<svg xmlns="http://www.w3.org/2000/svg" width="52.157" height="52.157">
    <g opacity=".99">
        <path fill="#e1d8bb" fill-opacity=".976" stroke="#39372e" stroke-opacity=".949" stroke-width=".953" d="m26.077 4.138 12.622 3.867 6.726 40.035H6.732l6.725-40.036Z"/>
        <path fill="#3b3930" fill-opacity=".992" d="m26.072 10.277.277.386c.807 1.128 1.6 2.503 2.843 3.046l.52.225-.44.36c-.836.676-1.369 1.875-1.66 3.435a16 16 0 0 0-.159 1.122c1.21.49 2.305 1.253 3.33 2.178-.356.225-.871.534-1.546.895-1.099.588-2.456.788-3.167.789-.723.001-2.083-.2-3.182-.79a22 22 0 0 1-1.524-.898c1.024-.922 2.114-1.686 3.323-2.174a15 15 0 0 0-.158-1.122c-.291-1.56-.821-2.76-1.657-3.436l-.444-.36.52-.224c1.244-.542 2.039-1.917 2.846-3.046zm9.185 2.025.569.022c.073 3.834-.175 7.414-1.56 10.043a7.3 7.3 0 0 1-1.942 2.363c-.359.13-1.081.387-2.138.7-1.38.41-3.062.81-4.105.81-1.047 0-2.734-.4-4.118-.81a38 38 0 0 1-2.115-.689 7.3 7.3 0 0 1-1.954-2.375c-1.385-2.628-1.634-6.208-1.56-10.042l.569-.022c.292 4.122.97 6.654 2.344 8.216.337.383.739.698 1.177.978l-.005.01s.893.613 2.038 1.227a7.9 7.9 0 0 0 3.613.898 7.95 7.95 0 0 0 3.6-.9c1.145-.613 2.069-1.224 2.069-1.224l-.007-.01a5.4 5.4 0 0 0 1.18-.98c1.375-1.562 2.053-4.093 2.345-8.215m-2.61 13.321c2.128 4.54 5.933 9.812 7.658 12.2l.178.245-.155.267c-.8 1.366-2.384 3.25-4.048 3.653l-.265.064-.123-.286c-.31-.714-1.122-4.358-2.013-6.845q-.005.001-.007.004l-2.758-8.79c.853-.271 1.298-.43 1.532-.514zm-13.139.005c.24.085.674.239 1.52.507l-2.805 8.938c-.867 2.42-1.652 5.997-1.956 6.695l-.125.286-.265-.064c-1.664-.403-3.246-2.287-4.046-3.653l-.157-.267.178-.245c1.725-2.389 5.527-7.66 7.656-12.197m2.394.779c1.375.4 2.965.791 4.179.79 1.208 0 2.79-.39 4.158-.788l.559 1.78c-.313.113-.826.291-1.568.512-1.059.314-2.35.623-3.15.623-.805 0-2.1-.308-3.163-.623-.744-.22-1.259-.4-1.573-.512zm9.116 2.484 2.006 6.397c-1.9.813-4.943 1.98-6.945 1.983-1.994.003-5.026-1.137-6.97-1.956l2.015-6.425c.332.119.847.297 1.584.516 1.089.323 2.392.652 3.37.652.977 0 2.276-.33 3.361-.654a29 29 0 0 0 1.579-.513" color="#000" overflow="visible" style="line-height:normal;font-variant-ligatures:normal;font-variant-position:normal;font-variant-caps:normal;font-variant-numeric:normal;font-variant-alternates:normal;font-variant-east-asian:normal;font-feature-settings:normal;font-variation-settings:normal;text-indent:0;text-align:start;text-decoration-line:none;text-decoration-style:solid;text-decoration-color:#000;text-transform:none;text-orientation:mixed;white-space:normal;shape-padding:0;shape-margin:0;inline-size:0;isolation:auto;mix-blend-mode:normal;solid-color:#000;solid-opacity:1"/>
    </g>
</svg>
