<svg xmlns="http://www.w3.org/2000/svg" width="52.157" height="52.157">
    <path fill="#e3d9b9" fill-opacity=".969" stroke="#35342f" stroke-width=".949" d="M26.079 3.767 12.548 8.203l-6.312 40.21h39.685L39.61 8.204Z" opacity=".99"/>
    <path fill="#373630" d="M15.272 14.553c-.44.013-.66.396-.44.77l.88 2.991c.096.22.217.352.44.352h7.657v7.235h-5.633c-.218-.003-.438.17-.438.418l-.88 2.573c-.096.375.097.77.44.77H23.9v8.28H12.986c-.217.027-.445.19-.445.418l-.88 2.993c-.072.352.218.682.44.682h27.966c.217-.041.44-.353.44-.682l-.88-2.993c-.073-.262-.218-.418-.438-.418H28.121v-8.278h6.47c.44.015.66-.375.44-.77l-.88-2.574c-.073-.263-.218-.419-.445-.419h-5.502v-7.235h7.724c.218.013.44-.128.44-.352l.88-2.992c.096-.375-.097-.77-.44-.77H15.352z" color="#000" opacity=".99" overflow="visible" style="line-height:1.25;-inkscape-font-specification:MingLiU_HKSCS-ExtB;font-variant-ligatures:normal;font-variant-position:normal;font-variant-caps:normal;font-variant-numeric:normal;font-variant-alternates:normal;font-variant-east-asian:normal;font-feature-settings:normal;font-variation-settings:normal;text-indent:0;text-align:start;text-decoration-line:none;text-decoration-style:solid;text-decoration-color:#000;text-transform:none;text-orientation:mixed;white-space:normal;shape-padding:0;shape-margin:0;inline-size:0;isolation:auto;mix-blend-mode:normal;solid-color:#000;solid-opacity:1"/>
</svg>
