<svg xmlns="http://www.w3.org/2000/svg" width="52.157" height="52.157">
    <g opacity=".99">
        <path fill="#e1d8bb" fill-opacity=".976" stroke="#39372e" stroke-opacity=".949" stroke-width=".953" d="m26.077 4.138 12.622 3.867 6.726 40.035H6.732l6.725-40.036Z"/>
        <path fill="#ca100e" fill-opacity=".992" d="m26.166 9.748-.287.402c-.839 1.173-1.664 2.601-2.956 3.164l-.542.235.46.372c.651.527 1.126 1.36 1.45 2.427a3.84 3.84 0 0 0-1.862 3.3c0 .067.007.133.01.2-.56.417-1.154.909-1.8 1.484l-.207.184a5.7 5.7 0 0 1-1.266-1.07c-1.435-1.632-2.146-4.293-2.45-8.586l-.596.016v.025l.002.011c-.074 3.963.185 7.648 1.61 10.351a7.6 7.6 0 0 0 1.958 2.41l-2.268 4.723c.704.573 1.184.911 1.751 1.35l1.938-5.179c.237.113.485.22.744.313l-.57 1.524c3.152 1.462 6.856 1.48 9.91-.066l-.51-1.472a8 8 0 0 0 .742-.317l1.63 4.706a29 29 0 0 1 1.678-.863L32.56 24.87c.935-.687 1.66-1.57 2.207-2.606 1.425-2.703 1.685-6.388 1.61-10.351q0-.006.003-.011v-.026l-.595-.015c-.304 4.292-1.017 6.954-2.452 8.585a5.8 5.8 0 0 1-1.138.99l-.041-.037c-.83-.726-1.573-1.335-2.27-1.825a3.83 3.83 0 0 0-1.844-3.216c.324-1.072.798-1.909 1.451-2.437l.461-.372-.541-.235c-1.293-.562-2.118-1.99-2.956-3.163zm-.008 6.65c.639 0 1.233.197 1.73.532a3.23 3.23 0 0 1 1.088 1.246l.009.02q.072.146.127.297 0 .003.002.003l.001.007q.058.155.099.32l.004.016c.027.105.048.219.064.328l.002.01c.022.152.037.312.037.472 0 1.804-1.418 3.252-3.163 3.252s-3.16-1.448-3.16-3.252q.002-.098.01-.203a3.3 3.3 0 0 1 .636-1.765l.006-.009c.22-.297.488-.55.793-.753l.002-.002a3.1 3.1 0 0 1 1.714-.52zm9.39.943-.002.006zc-.226 1.76-.623 3.35-1.307 4.647a8 8 0 0 1-.248.436q-.023.035-.043.07c-.071.118-.146.227-.222.34l-.063.091a7 7 0 0 1-.328.427 6 6 0 0 1-.254.285l-.121.125c-.067.066-.137.137-.208.2a6 6 0 0 1-.45.38 7 7 0 0 1-.643.432l-.015.008q-.231.135-.482.259-.026.011-.052.025a8 8 0 0 1-1.068.408l-.114.034a8 8 0 0 1-.497.124q-.079.02-.159.036-.24.047-.49.086-.1.017-.203.031-.239.03-.489.051-.122.013-.247.023-.244.015-.498.022c-.093.004-.181.01-.276.01q-.392.006-.81-.01l-.01-.002h-.002l-.011.002q-.404.015-.782.012a14 14 0 0 1-1.435-.09h-.002a10 10 0 0 1-.653-.101h-.001a9 9 0 0 1-.613-.138h-.002a9 9 0 0 1-.573-.172c-1.854-.627-3.084-1.815-3.92-3.402-.684-1.297-1.081-2.884-1.307-4.644l.002.007-.001-.007c.413 1.455.98 2.603 1.766 3.496q.054.06.108.117.084.094.172.184l.137.129q.08.076.164.152.078.07.16.133l.161.129.168.124.17.118q.09.061.184.121.082.051.165.098.1.06.203.117.082.046.165.087.105.056.214.11l.133.06q.257.114.53.219.061.024.125.046.128.046.26.087l.194.062q.13.037.262.078.089.025.177.046a16 16 0 0 0 .489.122l.295.062.204.04.294.053.075.012q.468.076.97.137.635.074 1.327.124h.042a27 27 0 0 0 1.088-.101h.003c1.616-.176 2.97-.48 4.097-.985q.047-.02.095-.043.125-.056.246-.121l.16-.082.198-.11q.091-.053.18-.111.092-.056.18-.113.094-.062.183-.125l.153-.11q.105-.081.209-.168l.112-.094q.143-.123.278-.258l.02-.018q.002-.003.004-.003.156-.152.303-.321c.787-.894 1.355-2.042 1.768-3.5zM31.46 28.108c-3.252 1.607-7.136 1.578-10.46.054l-2.7 7.222c4.94 1.836 10.907 1.958 15.715.09zm-14.851 1.6-1.759 3.037 2.882 1.854 1.143-3.056c-.719-.629-1.626-1.232-2.266-1.835m18.937 0c-.904.633-.372.294-2.222 1.322l1.238 3.57 2.782-1.789zM14 33.09l-2.381 3.487.157.27c.847 1.447 2.417 2.845 4.08 3.248l.276.066.129-.297c.27-.621.894-2.318 1.59-4.234-1.208-.988-2.732-1.566-3.85-2.541zm24.159 0c-1.067.957-2.537 1.789-3.787 2.593l-.103-.16c.714 1.964 1.354 3.708 1.63 4.342l.129.298.275-.067c1.663-.402 3.233-1.801 4.08-3.248l.157-.27zm-16.595 4.172-.623 2.12c2.52.554 8.04.457 10.36-.05l-.597-2 .009.039c-2.546.566-6.515.52-9.148-.11zm-1.356 2.79-1.061 3.352.39.168c4.245 1.785 9.632 1.71 13.186 0l.39-.223-1.06-3.296c-3.09.45-7.957.79-11.845 0z" color="#000" overflow="visible" style="line-height:normal;font-variant-ligatures:normal;font-variant-position:normal;font-variant-caps:normal;font-variant-numeric:normal;font-variant-alternates:normal;font-variant-east-asian:normal;font-feature-settings:normal;font-variation-settings:normal;text-indent:0;text-align:start;text-decoration-line:none;text-decoration-style:solid;text-decoration-color:#000;text-transform:none;text-orientation:mixed;white-space:normal;shape-padding:0;shape-margin:0;inline-size:0;isolation:auto;mix-blend-mode:normal;solid-color:#000;solid-opacity:1"/>
    </g>
</svg>
