<svg xmlns="http://www.w3.org/2000/svg" width="52.157" height="52.157">
    <path fill="#e2d9ba" stroke="#38362e" stroke-opacity=".973" d="m-11.427 7.439-12.666 4.1-6.756 42.757H7.992L1.245 11.592Z" opacity=".99" transform="matrix(.95786 0 0 .9052 37.026 -1.851)"/>
    <path fill="#ca100e" d="m23.733 11.111-.258.228c-.643.572-.919 1.297-1.052 2.03-.117.637-.139 1.28-.202 1.903l-.479-.064-2.527-2.98-.204.384c-.708 1.337-.477 2.797-.457 4.126l-.61 1.442c-.727 1.652-1.18 3.132-1.09 4.79-1.445 1.618-2.729 3.352-3.565 5.368l-.009.022-.006.022c-.237.998-.465 2.063-.047 3.148l.037.102.571.315c.31.643.536 1.123.93 1.4.413.293.94.316 1.71.217l1.607-2.528.624.395-1.688 2.65.018.297.362-.114c1.23-.396 1.888-.965 2.353-1.659.182-.273.34-.564.5-.87a15 15 0 0 1-.28-.616l-1.567-1.578-4.101-2.213c.14-.342.32-.708.554-1.098l3.668 2.129.097-.164c2.118-3.489 2.121-3.416 4.23-6.357l.061-.088-.04-.1c-.35-.862-1.114-1.48-1.99-2.003-.828-.493-1.76-.905-2.589-1.343l.609-1.434c1.753 1.042 3.776 1.652 4.814 3.378l.138.232.172-.209c1.287-1.541 2.11-3.07 2.942-4.297.616.068 1.15.144 1.808.383-.159.228-.329.457-.494.685.331.05.655.16.957.28.68.274 1.279.651 1.659.972 2.06 1.74 4.567 4.085 4.608 7.287.154 1.246.256 2.616.354 4.016q.151-.16.308-.312c.083-.08.203-.186.352-.288s.287-.236.622-.247c-.035-.858-.067-1.78-.095-2.862v-.011c-.146-2.248-1.35-4.877-3.233-6.934-1.792-1.956-4.225-3.372-6.967-3.38l-.043-.005-.003.005q-.094-.002-.188-.001zm4.073 7.197a.4.4 0 0 0-.149.033l-.363.073c-2.173 2.882-4.59 5.69-7.727 10.42l-.089.132 1.145 1.107-.006.01c.144.138.244.305.304.428.051-.084.093-.163.147-.25 1.727-.8 2.579-1.243 4.21-1.866l.603-1.174.06.033-.054-.031c.559-.976.664-2.842.608-3.416l.734-.068c.073.76.017 2.582-.695 3.838l.005.004-.306.68.118.521c.001.02.015.285.022.603.007.33-.005.735-.017.791l-.003.018-.002.02c-.095 1.44-1.223 3.24-2.354 4.473.762.587 1.493.94 2.047 1.083 2.911-.032 4.66-.905 6.083-2.138.918-.794 1.703-1.752 2.536-2.718-.122-1.863-.215-3.677-.413-5.248l-.003-.035v-.035c-.033-2.531-2.152-4.642-4.162-6.34a5.6 5.6 0 0 0-1.314-.763c-.395-.16-.76-.201-.966-.186Zm-6.454 1.713.109.484c.162.725-.017 1.454-.513 1.944s-1.257.72-2.162.65l-.73-.058.347-.642c.226-.42.268-.8.586-1.231.319-.432.863-.744 1.885-1.018zm-6.014 8.358.505.534c-.444.421-.797.684-.93.847-.067.08-.076.114-.08.152-.002.036.008.11.084.25l-.65.35c-.114-.213-.183-.429-.168-.65.016-.22.12-.415.244-.567.248-.304.586-.528.995-.915zm21.855 1.448.002.027zm.003.058c-.015.007-.025.007-.04.019-.082.057-.176.14-.213.174-.339.327-.66.675-.976 1.032.212 2.943.49 5.888 1.284 8.037l.01-.005a17 17 0 0 1 1.032-.52c.153-.073.224-.118.412-.171a38 38 0 0 0-.308-1.197l-.001-.005v-.004c-.738-2.475-1.034-4.278-1.2-7.364Zm-2.417 2.6c-.592.684-1.21 1.365-1.926 1.985-1.589 1.375-3.685 2.41-6.885 2.423H25.9l-.065-.014c-.787-.19-1.726-.645-2.657-1.392-1.26.986-1.858 1.977-2.192 3.224.503.118 1 .342 1.322.522 4.895 2.707 9.706 3.296 13.865.627-.847-2.1-1.185-4.734-1.394-7.374zm4.22 7.342c-.039.016-.077.03-.122.052-.135.06-.307.148-.477.231-.17.088-.34.175-.475.251-.134.073-.263.156-.222.125-4.795 3.574-10.605 2.978-16.065-.041.035.02-.722-.296-.917-.365-.027.19-.054.38-.079.584l-.023.197.173.095c4.622 2.565 8.11 3.266 10.983 2.944 2.873-.319 5.104-1.658 7.225-3.076l.161-.107-.034-.19a45 45 0 0 0-.127-.703Z" color="#000" overflow="visible" style="line-height:normal;font-variant-ligatures:normal;font-variant-position:normal;font-variant-caps:normal;font-variant-numeric:normal;font-variant-alternates:normal;font-variant-east-asian:normal;font-feature-settings:normal;font-variation-settings:normal;text-indent:0;text-align:start;text-decoration-line:none;text-decoration-style:solid;text-decoration-color:#000;text-transform:none;text-orientation:mixed;white-space:normal;shape-padding:0;shape-margin:0;inline-size:0;isolation:auto;mix-blend-mode:normal;solid-color:#000;solid-opacity:1"/>
</svg>
