<svg xmlns="http://www.w3.org/2000/svg" width="52.157" height="52.157">
    <path fill="#38362e" fill-opacity=".973" stroke="#38362e" stroke-opacity=".973" d="m-11.427 7.439-12.666 4.1-6.756 42.757H7.992L1.245 11.592Z" opacity=".99" transform="matrix(.95786 0 0 .9052 37.026 -1.851)"/>
    <path fill="#ed5a5a" fill-opacity=".992" d="m23.734 11.111-.259.228c-.642.572-.918 1.297-1.052 2.03-.116.637-.138 1.28-.202 1.903l-.478-.064-2.527-2.98-.204.384c-.709 1.337-.478 2.797-.457 4.126l-.61 1.442c-.727 1.652-1.18 3.132-1.09 4.79-1.446 1.618-2.73 3.352-3.566 5.368l-.009.022-.005.022c-.238.997-.465 2.063-.048 3.148l.038.102.57.315c.31.643.537 1.123.93 1.4.414.293.94.316 1.71.217l1.608-2.528.623.395-1.687 2.65.017.297.363-.114c1.229-.396 1.887-.965 2.352-1.659.182-.273.34-.564.5-.87a15 15 0 0 1-.28-.616l-1.567-1.578-4.101-2.213a8 8 0 0 1 .554-1.098l3.668 2.128.098-.163c2.118-3.49 2.12-3.416 4.23-6.357l.06-.088-.039-.1c-.35-.862-1.114-1.48-1.991-2.003-.828-.493-1.759-.905-2.588-1.343l.608-1.435c1.753 1.043 3.777 1.653 4.814 3.38l.138.231.172-.209c1.288-1.542 2.11-3.07 2.942-4.297.616.068 1.15.144 1.809.383-.16.228-.33.457-.495.685.332.05.656.16.957.28.68.274 1.28.651 1.659.972 2.06 1.74 4.567 4.085 4.608 7.287.155 1.246.256 2.616.354 4.016q.151-.16.309-.312c.082-.08.202-.186.351-.288.15-.102.287-.236.622-.247a178 178 0 0 1-.094-2.862v-.011c-.147-2.248-1.35-4.877-3.234-6.934-1.792-1.956-4.225-3.372-6.967-3.38l-.043-.005-.003.005q-.094-.002-.188-.001zm4.072 7.197a.4.4 0 0 0-.148.033l-.363.072c-2.173 2.883-4.59 5.691-7.728 10.42l-.088.133 1.144 1.107-.006.01c.144.138.244.304.305.428.05-.084.092-.163.147-.25 1.726-.8 2.578-1.243 4.21-1.866l.603-1.174.06.033-.055-.031c.56-.976.664-2.842.609-3.416l.733-.068c.073.76.017 2.582-.695 3.838l.006.003-.307.68.118.522c.002.02.016.285.022.603.008.33-.005.735-.016.791l-.004.018-.002.02c-.094 1.439-1.222 3.24-2.353 4.473.761.587 1.492.94 2.047 1.083 2.91-.032 4.658-.905 6.083-2.138.917-.794 1.702-1.752 2.535-2.718-.122-1.863-.215-3.677-.412-5.248l-.004-.036v-.034c-.033-2.531-2.152-4.642-4.161-6.34a5.6 5.6 0 0 0-1.314-.763c-.396-.16-.76-.201-.966-.186Zm-6.453 1.713.108.484c.163.725-.016 1.454-.513 1.944-.496.49-1.257.72-2.162.65l-.73-.058.347-.642c.226-.42.268-.8.587-1.231s.863-.744 1.884-1.019zm-6.015 8.358.506.534c-.445.42-.797.684-.93.847-.067.08-.077.114-.08.152-.003.035.007.11.083.25l-.65.35c-.114-.213-.183-.429-.167-.65.015-.22.12-.415.243-.567.249-.304.586-.528.995-.915zm21.855 1.448.002.027zm.004.057c-.016.008-.025.008-.04.02-.082.057-.177.14-.214.174-.338.327-.66.675-.976 1.032.212 2.943.49 5.888 1.284 8.037l.01-.005a17 17 0 0 1 1.032-.52c.154-.073.224-.118.412-.171a38 38 0 0 0-.307-1.197l-.002-.005v-.004c-.738-2.475-1.033-4.278-1.2-7.364Zm-2.418 2.602c-.592.683-1.209 1.364-1.926 1.984-1.588 1.375-3.684 2.41-6.885 2.423H25.9l-.065-.014c-.787-.19-1.725-.645-2.657-1.392-1.26.986-1.857 1.976-2.192 3.224.503.118 1 .342 1.322.522 4.896 2.707 9.707 3.296 13.865.627-.847-2.1-1.184-4.734-1.394-7.374M39 39.826c-.04.017-.078.03-.123.053-.135.06-.306.148-.477.231-.17.088-.34.175-.474.251-.135.073-.264.156-.222.125-4.796 3.574-10.605 2.978-16.066-.041.035.019-.722-.297-.916-.365-.028.19-.055.38-.08.584l-.022.197.173.095c4.622 2.565 8.109 3.266 10.982 2.944 2.873-.319 5.105-1.658 7.226-3.076l.16-.107-.033-.19a45 45 0 0 0-.128-.703z" color="#000" overflow="visible" style="line-height:normal;font-variant-ligatures:normal;font-variant-position:normal;font-variant-caps:normal;font-variant-numeric:normal;font-variant-alternates:normal;font-variant-east-asian:normal;font-feature-settings:normal;font-variation-settings:normal;text-indent:0;text-align:start;text-decoration-line:none;text-decoration-style:solid;text-decoration-color:#000;text-transform:none;text-orientation:mixed;white-space:normal;shape-padding:0;shape-margin:0;inline-size:0;isolation:auto;mix-blend-mode:normal;solid-color:#000;solid-opacity:1"/>
</svg>
