<svg xmlns="http://www.w3.org/2000/svg" width="52.157" height="52.157">
    <path fill="#38362e" fill-opacity=".973" stroke="#38362e" stroke-opacity=".973" stroke-width=".878" d="M26.08 5.256 14.845 8.985l-5.882 37.94h34.229L37.31 8.985Z" opacity=".99"/>
    <path fill="#e75757" d="m26.078 15.222-.104.126-.808.978-.111 3.805.41.191v.709a7.5 7.5 0 0 0-3.888 1.472l-.783-.783.146-.442-2.776-2.618-1.438-.104.158 1.425 2.612 2.788.446-.162.717.717a7.5 7.5 0 0 0-2.045 4.546h-.794l-.212-.421-3.815.111-1.09.944 1.12.896 3.818.124.197-.424h.776a7.51 7.51 0 0 0 6.851 6.842v.56l-.41.19.111 3.806.912 1.103.912-1.103.112-3.806-.407-.185v-.563A7.51 7.51 0 0 0 33.56 29.1h.759l.197.424 3.819-.124 1.12-.896-1.09-.944-3.816-.111-.212.421h-.778a7.5 7.5 0 0 0-2.025-4.53l.733-.733.442.146 2.619-2.777.103-1.438-1.425.159-2.788 2.612.163.445-.762.762a7.5 7.5 0 0 0-3.924-1.486v-.713l.407-.185-.112-3.806zm.617 7.45a5.9 5.9 0 0 1 2.742 1.026l-2.742 2.742zm-1.23.001v3.718l-2.708-2.709a5.9 5.9 0 0 1 2.708-1.009m-3.638 1.818 3.379 3.38h-4.949a5.87 5.87 0 0 1 1.57-3.38m8.537.02a5.87 5.87 0 0 1 1.552 3.36h-4.912zM20.257 29.1h3.778l-2.738 2.738a5.9 5.9 0 0 1-1.04-2.738m7.917 0h3.727a5.9 5.9 0 0 1-1.02 2.706zm-1.48.26 3.39 3.389a5.87 5.87 0 0 1-3.39 1.55zm-1.229.049v4.89a5.87 5.87 0 0 1-3.366-1.524z" color="#000" style="-inkscape-stroke:none"/>
</svg>
