<svg xmlns="http://www.w3.org/2000/svg" width="52.157" height="52.157">
    <path fill="#38362e" fill-opacity=".973" stroke="#38362e" stroke-opacity=".973" d="m-11.427 7.439-12.666 4.1-6.756 42.757H7.992L1.245 11.592Z" opacity=".99" transform="matrix(-.95786 0 0 -.9052 15.132 54.008)"/>
    <path fill="#b1b1b1" fill-opacity=".992" d="m28.43 40.927.24-.213c.64-.57.915-1.29 1.049-2.023.117-.64.137-1.294.203-1.924l.51.067 2.517 2.97.19-.359c.728-1.372.457-2.883.45-4.248 1.086-2.243 1.845-4.046 1.723-6.148 1.443-1.617 2.724-3.347 3.559-5.358l.009-.02.004-.022c.238-.998.466-2.06.05-3.142l-.036-.094-.55-.305c-.322-.667-.553-1.132-.95-1.412-.35-.248-.79-.294-1.39-.242l-1.86 2.611-.746-.532 1.764-2.478-.145-.35-.242.077c-1.228.396-1.883.962-2.346 1.654-.452.673-.75 1.448-1.323 2.35-1.818.841-2.644 1.284-4.446 1.96l-.022.008.054.032c-.257.448-.54 1.45-.715 2.381-.088.466-.154.919-.194 1.29-.04.372-.048.683-.04.77l-.913.087c-.024-.247-.002-.554.042-.954.043-.4.113-.873.205-1.363.173-.915.407-1.864.75-2.531l-.047-.213c0-.018-.014-.284-.02-.604a8 8 0 0 1 .017-.796l.004-.019v-.017c.116-1.77 1.775-4.084 3.101-5.228 1.93-1.472 2.346-2.935 2.618-5.246l.02-.183-.161-.09c-4.629-2.568-8.118-3.269-10.992-2.948s-5.106 1.659-7.231 3.08l-.148.099.032.176a31 31 0 0 0 .73 3.28l.002.003v.003c1.009 3.391 1.194 5.502 1.347 11.392v.011c.148 2.246 1.35 4.876 3.235 6.934 1.846 2.016 4.372 3.464 7.213 3.384zm-4.576-6.775c-.15-.012-.289-.053-.428-.093a5 5 0 0 1-.836-.345 8.2 8.2 0 0 1-1.462-.952c-2.089-1.764-3.266-3.424-3.764-6.394l-.002-.013-.002-.012c-.573-4.56-.203-10.047-1.788-13.568l1.103-.496c1.797 3.989 1.34 9.536 1.885 13.898.462 2.747 1.363 3.984 3.35 5.661.253.215.766.56 1.233.799.233.12.459.214.62.261.163.047.258.007.142.052l.443 1.126a1.1 1.1 0 0 1-.494.076m7.77-2.125q-.131 0-.276-.008l-.517-.031.146-.496c.173-.59.207-1.084.474-1.533.134-.225.354-.426.632-.528.279-.102.596-.122.989-.092l.514.04-.151.493c-.178.578-.22 1.066-.487 1.51a1.27 1.27 0 0 1-.624.53 2 2 0 0 1-.699.115zm5.225-8.357-.529-.56c.446-.423.8-.689.93-.848.066-.08.073-.11.075-.142.002-.033-.005-.103-.08-.243l.679-.363c.116.216.184.434.168.66a1.04 1.04 0 0 1-.247.576c-.251.307-.587.533-.996.92" color="#000" opacity=".99" overflow="visible" style="line-height:normal;font-variant-ligatures:normal;font-variant-position:normal;font-variant-caps:normal;font-variant-numeric:normal;font-variant-alternates:normal;font-variant-east-asian:normal;font-feature-settings:normal;font-variation-settings:normal;text-indent:0;text-align:start;text-decoration-line:none;text-decoration-style:solid;text-decoration-color:#000;text-transform:none;text-orientation:mixed;white-space:normal;shape-padding:0;shape-margin:0;inline-size:0;isolation:auto;mix-blend-mode:normal;solid-color:#000;solid-opacity:1"/>
</svg>
