<svg xmlns="http://www.w3.org/2000/svg" width="52.157" height="52.157">
    <g opacity=".99">
        <path fill="#38372f" fill-opacity=".965" stroke="#38372f" stroke-opacity=".965" stroke-width=".953" d="m26.08 48.018-12.622-3.867L6.732 4.116h38.693L38.7 44.152z"/>
        <path fill="#b0b0b0" fill-opacity=".992" d="M16.823 40.754c-.399-.12-1.709-.374-.933-.886.324-.307.895-.757 1.234-1.322 1.535-2.557 1.087-5.617 1.198-7.525-.94.08-3.061.222-3.392-.573l-2.09-3.621c1.779.258 4.013.611 5.284-.969.862-.469 1.448-2.79 2.017-2.676l1.226 3.654c1.171-.176 1.038-.82.632-1.657.754-.862 2.872-.929 4.212-.978 1.262.144 3.37.197 4.012 1.042-.375.793-.555 1.437.59 1.595l1.337-3.817c.882 1.337 1.481 3.034 3.043 3.72 1.322.517 2.76.277 4.123.087l-2.38 4.127c-.964.422-2.762-.035-3.154.077.13 2.3-.173 4.778 1.063 6.851.463.877 1.125 1.62 1.768 2.365-.722.479-1.638.733-2.338.02-.951-.91-1.987-1.125-3.19-.771-1.293-.16-1.933-1.411-2.217-2.545 1.097.019 1.625-1.096 1.723-2.059.137-.92.097-3.547-1.081-3.054.275 2.259-2.112 4.268-4.292 3.616-1.605-.382-2.764-2.04-2.567-3.678-1.14-.397-1.211 2.18-1.064 3.116.097.965.625 2.076 1.722 2.059-.287 1.216-1.064 2.57-2.479 2.562-1.652-.868-2.513.906-4.007 1.24m1.676-2.497c.933-1.03 2.034.198 2.963-.36-.203-.78-1.157-1.983-1.094-3.124-.365-2.593 1.213-5.407 3.827-6.07 2.851-.984 6.514.468 7.368 3.497.543 1.843.351 4.095-.996 5.553.853.965 2-.613 2.96.412-.196-.833-.982-2.893-.87-4.315-.027-1.46.224-3.087-.819-4.289-1.197-1.954-3.667-2.373-5.778-2.271-2.095-.098-4.537.336-5.722 2.271-1.043 1.202-.79 2.828-.817 4.288-.03 1.52-.35 3.04-1.022 4.408m7.58-3.933c1.76.091 2.861-2.247 1.672-3.548-1.044-1.408-3.53-.79-3.795.943-.302 1.3.788 2.64 2.123 2.605m8.283-9.388c-.492-1.17-1.746-2.188-1.657-3.496.22-.283.216-1.47.643-.915.668.633 1.36 1.24 2.005 1.896zm-16.475-.153-.938-2.381c.718-.724 1.484-1.399 2.225-2.1.148.612.616 1.22.243 1.844-.407.931-1.04 1.748-1.53 2.637m3.718-.744-2.27-6.57c4.36-1.398 9.188-1.396 13.536.052l-2.23 6.5c-2.917-1.043-6.134-1.128-9.036.018m14.365-2.303c-.828-.811-1.692-1.586-2.536-2.38.347-1.02.675-1.979 1.157-2.93 1.203.385 2.259 1.09 3.138 1.992-.565 1.117-1.177 2.21-1.76 3.318m-19.638-.017c-.58-1.103-1.188-2.19-1.753-3.3.884-.897 1.932-1.613 3.139-1.992.476.947.814 1.906 1.135 2.923-.839.79-1.698 1.561-2.52 2.369m6.01-6.236-.355-1.528c2.626-.652 5.443-.71 8.074-.06l-.345 1.578c-2.41-.58-4.96-.527-7.374.01m-1.105-2.43-.987-3.22c3.576-1.91 8.043-1.706 11.657 0l-1.049 3.22c-1.54-.593-3.065-.718-4.83-.755-1.45.015-3.435.215-4.79.755" color="#000" opacity=".99" overflow="visible" style="line-height:normal;font-variant-ligatures:normal;font-variant-position:normal;font-variant-caps:normal;font-variant-numeric:normal;font-variant-alternates:normal;font-variant-east-asian:normal;font-feature-settings:normal;font-variation-settings:normal;text-indent:0;text-align:start;text-decoration-line:none;text-decoration-style:solid;text-decoration-color:#000;text-transform:none;text-orientation:mixed;white-space:normal;shape-padding:0;shape-margin:0;inline-size:0;isolation:auto;mix-blend-mode:normal;solid-color:#000;solid-opacity:1"/>
    </g>
</svg>
