<svg xmlns="http://www.w3.org/2000/svg" width="52.157" height="52.157">
    <g opacity=".99">
        <path fill="#39372e" fill-opacity=".949" stroke="#39372e" stroke-opacity=".949" stroke-width=".953" d="m26.077 48.018 12.622-3.867 6.726-40.035H6.732l6.725 40.036z"/>
        <path fill="#ec5959" fill-opacity=".992" d="m26.166 42.408-.287-.402c-.839-1.173-1.664-2.601-2.956-3.164l-.542-.235.46-.372c.651-.527 1.126-1.36 1.45-2.427a3.84 3.84 0 0 1-1.862-3.3c0-.067.007-.133.01-.2a27 27 0 0 1-1.8-1.484l-.207-.184a5.7 5.7 0 0 0-1.266 1.07c-1.435 1.632-2.146 4.293-2.45 8.586l-.596-.016v-.025l.002-.011c-.074-3.963.185-7.648 1.61-10.352a7.6 7.6 0 0 1 1.958-2.41l-2.268-4.722c.704-.573 1.184-.911 1.751-1.35l1.938 5.179q.355-.171.744-.313l-.57-1.524c3.152-1.462 6.856-1.48 9.91.066l-.51 1.472c.258.094.505.204.742.317l1.63-4.706c.405.223.832.458 1.678.863l-2.174 4.523c.935.687 1.66 1.57 2.207 2.606 1.425 2.703 1.685 6.388 1.61 10.35q0 .007.003.012v.025l-.595.016c-.304-4.292-1.017-6.954-2.452-8.585a5.8 5.8 0 0 0-1.138-.99l-.041.036c-.83.727-1.573 1.336-2.27 1.826a3.83 3.83 0 0 1-1.844 3.216c.324 1.072.798 1.909 1.451 2.437l.461.372-.541.235c-1.293.562-2.118 1.99-2.956 3.163zm-.008-6.651c.639 0 1.233-.196 1.73-.531a3.23 3.23 0 0 0 1.088-1.246l.009-.02q.072-.146.127-.297 0-.003.002-.003l.001-.007q.058-.155.099-.32l.004-.016c.027-.105.048-.22.064-.329l.002-.009a3 3 0 0 0 .037-.473c0-1.803-1.418-3.251-3.163-3.251s-3.16 1.448-3.16 3.251q.002.099.01.204a3.3 3.3 0 0 0 .636 1.765l.006.009a3.2 3.2 0 0 0 .795.755c.494.328 1.081.52 1.714.52zm9.39-.942-.002-.007q0 .004.003.007c-.226-1.76-.623-3.35-1.307-4.647a8 8 0 0 0-.248-.436l-.043-.07c-.071-.118-.146-.228-.222-.34l-.063-.091a7 7 0 0 0-.328-.427 6 6 0 0 0-.254-.286l-.121-.124c-.067-.066-.137-.137-.208-.2a6 6 0 0 0-.45-.38 7 7 0 0 0-.643-.433l-.015-.007a8 8 0 0 0-.482-.259l-.052-.025a8 8 0 0 0-1.068-.408l-.114-.034a8 8 0 0 0-.497-.124q-.079-.02-.159-.036-.24-.047-.49-.086-.1-.017-.203-.031a10 10 0 0 0-.489-.051q-.122-.013-.247-.023-.244-.015-.498-.022c-.093-.004-.181-.01-.276-.01q-.392-.006-.81.01l-.01.002h-.002l-.011-.002q-.404-.015-.782-.012a14 14 0 0 0-1.435.09h-.002a10 10 0 0 0-.653.101h-.001q-.316.061-.613.137h-.002a9 9 0 0 0-.573.173c-1.854.627-3.084 1.815-3.92 3.402-.684 1.297-1.081 2.884-1.307 4.643l.002-.006-.001.006c.413-1.455.98-2.602 1.766-3.495q.054-.06.108-.117.084-.094.172-.184l.137-.129q.08-.076.164-.152.078-.07.16-.133l.161-.129.168-.125.17-.117.184-.122q.082-.05.165-.097l.203-.118q.082-.045.165-.086.105-.056.214-.11l.133-.06q.257-.114.53-.219.061-.024.125-.046.128-.047.26-.087l.194-.062q.13-.037.262-.078.089-.025.177-.046a16 16 0 0 1 .489-.122l.295-.062.204-.04q.146-.028.294-.054l.075-.01q.468-.078.97-.138.635-.075 1.327-.125h.042a27 27 0 0 1 1.088.102h.003c1.616.176 2.97.48 4.097.985q.047.02.095.043.125.056.246.121l.16.082.198.11q.092.053.18.11.092.057.18.114l.183.125.153.11q.106.081.209.168l.112.094q.143.123.278.258l.02.018.004.003q.156.152.303.321c.787.894 1.355 2.042 1.768 3.5zM31.46 24.048c-3.252-1.607-7.136-1.578-10.46-.054l-2.7-7.222c4.94-1.836 10.907-1.958 15.715-.09zm-14.85-1.6-1.76-3.037 2.882-1.854 1.143 3.056c-.719.629-1.626 1.232-2.266 1.834m18.936 0c-.904-.633-.372-.294-2.222-1.322l1.238-3.57 2.782 1.789zM14 19.065l-2.381-3.487.157-.27c.847-1.447 2.417-2.845 4.08-3.248l.276-.066.129.297c.27.621.894 2.318 1.59 4.234-1.208.988-2.732 1.566-3.85 2.541zm24.159 0c-1.067-.957-2.537-1.789-3.787-2.593l-.103.16c.714-1.964 1.354-3.708 1.63-4.342l.129-.298.275.067c1.663.402 3.233 1.801 4.08 3.248l.157.27zm-16.595-4.172-.623-2.12c2.52-.554 8.04-.457 10.36.05l-.597 2 .009-.04c-2.546-.565-6.515-.519-9.148.111zm-1.356-2.79-1.061-3.352.39-.168c4.245-1.785 9.632-1.71 13.186 0l.39.223-1.06 3.296c-3.09-.45-7.957-.79-11.845 0z" color="#000" overflow="visible" style="line-height:normal;font-variant-ligatures:normal;font-variant-position:normal;font-variant-caps:normal;font-variant-numeric:normal;font-variant-alternates:normal;font-variant-east-asian:normal;font-feature-settings:normal;font-variation-settings:normal;text-indent:0;text-align:start;text-decoration-line:none;text-decoration-style:solid;text-decoration-color:#000;text-transform:none;text-orientation:mixed;white-space:normal;shape-padding:0;shape-margin:0;inline-size:0;isolation:auto;mix-blend-mode:normal;solid-color:#000;solid-opacity:1"/>
    </g>
</svg>
