<svg xmlns="http://www.w3.org/2000/svg" width="52.157" height="52.157">
    <path fill="#38362e" fill-opacity=".973" stroke="#38362e" stroke-opacity=".973" d="m-11.427 7.439-12.666 4.1-6.756 42.757H7.992L1.245 11.592Z" opacity=".99" transform="matrix(-.95786 0 0 -.9052 15.132 54.008)"/>
    <path fill="#ed5a5a" fill-opacity=".992" d="m28.424 41.046.258-.228c.643-.572.919-1.297 1.053-2.03.116-.637.138-1.28.202-1.903l.478.064 2.527 2.98.204-.384c.708-1.337.478-2.797.457-4.126l.61-1.442c.727-1.652 1.18-3.132 1.09-4.79 1.445-1.618 2.73-3.352 3.565-5.368l.01-.022.005-.022c.238-.998.465-2.063.047-3.148l-.037-.102-.57-.315c-.31-.643-.537-1.123-.93-1.4-.414-.293-.94-.316-1.71-.217l-1.608 2.528-.623-.395 1.687-2.65-.017-.297-.363.114c-1.23.395-1.887.965-2.352 1.658a10 10 0 0 0-.5.87q.144.301.28.617l1.567 1.578 4.1 2.213c-.14.342-.32.708-.553 1.098l-3.668-2.129-.098.164c-2.118 3.489-2.12 3.416-4.23 6.357l-.06.088.039.099c.35.863 1.114 1.48 1.99 2.004.829.493 1.76.905 2.59 1.343l-.61 1.434c-1.752-1.042-3.776-1.652-4.813-3.379l-.138-.231-.172.209c-1.288 1.541-2.11 3.07-2.943 4.297-.615-.068-1.15-.144-1.808-.384.16-.227.329-.456.494-.684a4.3 4.3 0 0 1-.957-.28 6.4 6.4 0 0 1-1.658-.972c-2.06-1.74-4.568-4.085-4.609-7.287-.154-1.246-.255-2.616-.353-4.016q-.152.16-.309.312c-.082.08-.203.186-.351.288-.15.102-.287.236-.622.247.035.858.067 1.78.094 2.862v.011c.147 2.248 1.35 4.877 3.234 6.934 1.791 1.956 4.225 3.372 6.967 3.38l.042.005.004-.005c.062 0 .125.003.187.001zm-4.072-7.197a.4.4 0 0 0 .148-.033l.363-.073c2.173-2.883 4.59-5.69 7.727-10.42l.09-.132-1.145-1.107.005-.01a1.5 1.5 0 0 1-.304-.428c-.05.083-.092.163-.147.25-1.726.8-2.579 1.243-4.21 1.866l-.603 1.174-.06-.033.054.031c-.558.976-.663 2.842-.608 3.416l-.733.068c-.074-.76-.018-2.582.695-3.838l-.006-.004.307-.68-.119-.522c-.001-.019-.015-.284-.022-.602-.007-.33.006-.735.017-.791l.003-.018.003-.02c.094-1.44 1.222-3.24 2.353-4.473-.762-.587-1.493-.94-2.047-1.083-2.911.032-4.659.905-6.083 2.138-.917.794-1.702 1.752-2.535 2.718.122 1.863.215 3.677.412 5.248l.003.035v.035c.033 2.531 2.152 4.642 4.162 6.34a5.6 5.6 0 0 0 1.314.763c.396.16.76.201.966.186zm6.453-1.713-.109-.484c-.162-.725.017-1.454.513-1.944.497-.49 1.257-.72 2.163-.65l.73.058-.348.642c-.226.42-.267.8-.586 1.231s-.863.744-1.885 1.018zm6.015-8.358-.506-.534c.445-.421.797-.684.93-.847.067-.08.077-.114.08-.152.003-.036-.007-.11-.083-.25l.65-.35c.114.213.183.429.167.65a1.03 1.03 0 0 1-.243.567c-.249.304-.586.528-.995.915zM14.964 22.33l-.001-.027zm-.003-.058c.015-.007.025-.008.04-.019.082-.057.176-.14.214-.174.338-.327.66-.675.976-1.032-.213-2.943-.49-5.888-1.284-8.037l-.01.005a17 17 0 0 1-1.032.52c-.154.073-.224.118-.412.171.084.353.18.735.307 1.197l.001.004v.004c.739 2.476 1.034 4.28 1.2 7.364zm2.418-2.6c.591-.684 1.209-1.365 1.925-1.985 1.589-1.376 3.685-2.41 6.885-2.423h.069l.064.014c.787.19 1.726.645 2.658 1.392 1.26-.986 1.857-1.977 2.191-3.224a5.4 5.4 0 0 1-1.321-.522c-4.896-2.707-9.707-3.296-13.865-.627.847 2.1 1.184 4.734 1.393 7.374zm-4.221-7.342c.04-.016.078-.03.123-.052.135-.06.306-.148.477-.231.17-.088.34-.175.474-.251.135-.073.263-.156.222-.125 4.796-3.574 10.605-2.978 16.066.041-.036-.02.722.296.916.365.027-.19.055-.38.079-.584l.023-.197-.173-.095c-4.622-2.565-8.11-3.266-10.982-2.944-2.874.319-5.105 1.658-7.226 3.076l-.161.107.034.19c.043.247.085.476.128.703z" color="#000" overflow="visible" style="line-height:normal;font-variant-ligatures:normal;font-variant-position:normal;font-variant-caps:normal;font-variant-numeric:normal;font-variant-alternates:normal;font-variant-east-asian:normal;font-feature-settings:normal;font-variation-settings:normal;text-indent:0;text-align:start;text-decoration-line:none;text-decoration-style:solid;text-decoration-color:#000;text-transform:none;text-orientation:mixed;white-space:normal;shape-padding:0;shape-margin:0;inline-size:0;isolation:auto;mix-blend-mode:normal;solid-color:#000;solid-opacity:1"/>
</svg>
