<svg xmlns="http://www.w3.org/2000/svg" width="52.157" height="52.157">
    <path fill="#e2d9ba" stroke="#38362e" stroke-opacity=".973" d="m-11.427 7.439-12.666 4.1-6.756 42.757H7.992L1.245 11.592Z" opacity=".99" transform="matrix(-.95786 0 0 -.9052 15.132 54.008)"/>
    <path fill="#ca100e" d="m28.425 41.046.258-.228c.643-.572.918-1.297 1.052-2.031.116-.636.138-1.28.202-1.903l.479.065 2.526 2.98.204-.384c.709-1.337.478-2.797.457-4.126l.61-1.443c.727-1.651 1.18-3.13 1.09-4.789 1.446-1.618 2.73-3.352 3.566-5.368l.009-.022.006-.022c.237-.998.465-2.063.047-3.149l-.038-.101-.57-.315c-.31-.643-.536-1.123-.93-1.4-.414-.293-.94-.316-1.71-.217l-1.608 2.528-.623-.395 1.688-2.651-.018-.296-.363.114c-1.229.395-1.887.965-2.352 1.658-.182.274-.34.565-.5.87q.145.301.28.617l1.567 1.578 4.101 2.213a8 8 0 0 1-.554 1.098l-3.668-2.129-.097.164c-2.118 3.489-2.121 3.416-4.23 6.357l-.061.088.04.099c.35.863 1.114 1.48 1.99 2.003.828.494 1.759.906 2.589 1.344l-.609 1.434c-1.753-1.042-3.776-1.652-4.814-3.379l-.138-.231-.172.209c-1.287 1.541-2.11 3.07-2.942 4.297-.616-.068-1.15-.144-1.809-.384.16-.227.33-.456.495-.684a4.3 4.3 0 0 1-.957-.28 6.4 6.4 0 0 1-1.659-.972c-2.06-1.74-4.567-4.085-4.608-7.287-.154-1.246-.256-2.616-.354-4.016q-.151.159-.308.312c-.083.08-.203.186-.352.288s-.287.236-.622.247c.035.858.067 1.78.094 2.862v.011c.147 2.248 1.35 4.876 3.234 6.934 1.792 1.956 4.225 3.372 6.967 3.38l.043.005.003-.005q.094.002.188.001zm-4.073-7.197a.4.4 0 0 0 .148-.033l.363-.073c2.174-2.883 4.59-5.69 7.728-10.42l.089-.132-1.145-1.107.006-.01a1.5 1.5 0 0 1-.305-.428c-.05.083-.092.163-.147.25-1.726.8-2.578 1.243-4.21 1.866l-.603 1.173-.06-.032.055.031c-.56.976-.664 2.842-.609 3.416l-.733.068c-.073-.76-.017-2.582.695-3.838l-.006-.004.307-.68-.118-.522a15 15 0 0 1-.022-.602c-.007-.33.005-.735.016-.791l.004-.018.002-.02c.094-1.44 1.222-3.24 2.353-4.474-.761-.586-1.492-.939-2.046-1.082-2.912.032-4.66.905-6.084 2.138-.917.794-1.702 1.752-2.535 2.718.122 1.863.215 3.677.412 5.248l.004.035v.035c.033 2.531 2.152 4.642 4.162 6.34a5.6 5.6 0 0 0 1.313.763c.396.16.76.201.966.186zm6.454-1.713-.11-.484c-.162-.725.017-1.455.514-1.944.496-.49 1.257-.72 2.162-.65l.73.058-.347.642c-.226.419-.268.8-.587 1.231s-.862.744-1.884 1.018zm6.014-8.358-.505-.534c.444-.421.796-.685.93-.847.066-.08.076-.114.08-.152.002-.036-.008-.11-.084-.25l.65-.35c.114.213.183.429.167.65-.015.22-.119.415-.243.567-.248.303-.586.528-.995.915zM14.965 22.33l-.002-.027zm-.004-.058c.016-.007.026-.008.041-.019.081-.058.176-.14.213-.175.338-.326.66-.674.976-1.03-.212-2.944-.49-5.889-1.284-8.038l-.01.005a17 17 0 0 1-1.032.52c-.154.073-.224.118-.412.171.085.353.18.735.307 1.197l.002.004v.004c.738 2.476 1.034 4.28 1.2 7.364zm2.418-2.6c.592-.684 1.21-1.365 1.926-1.986 1.588-1.375 3.685-2.409 6.885-2.422h.068l.065.014c.787.19 1.725.645 2.657 1.392 1.26-.986 1.857-1.977 2.192-3.224-.503-.118-1-.342-1.322-.522-4.895-2.707-9.706-3.296-13.865-.627.847 2.1 1.185 4.734 1.394 7.373zm-4.22-7.342c.039-.016.077-.03.122-.052.135-.06.306-.148.477-.232.17-.087.34-.174.475-.25.134-.073.263-.156.221-.125 4.796-3.574 10.605-2.978 16.066.041-.035-.02.722.296.916.365.028-.19.055-.38.08-.584l.022-.198-.172-.094c-4.622-2.565-8.11-3.266-10.983-2.944-2.873.318-5.104 1.658-7.226 3.076l-.16.107.033.19c.043.247.085.476.128.703z" color="#000" overflow="visible" style="line-height:normal;font-variant-ligatures:normal;font-variant-position:normal;font-variant-caps:normal;font-variant-numeric:normal;font-variant-alternates:normal;font-variant-east-asian:normal;font-feature-settings:normal;font-variation-settings:normal;text-indent:0;text-align:start;text-decoration-line:none;text-decoration-style:solid;text-decoration-color:#000;text-transform:none;text-orientation:mixed;white-space:normal;shape-padding:0;shape-margin:0;inline-size:0;isolation:auto;mix-blend-mode:normal;solid-color:#000;solid-opacity:1"/>
</svg>
