<svg xmlns="http://www.w3.org/2000/svg" width="52.157" height="52.157">
    <path fill="#38362e" fill-opacity=".973" stroke="#38362e" stroke-opacity=".973" stroke-width=".878" d="m26.075 46.901 11.235-3.729 5.882-37.94H8.963l5.882 37.94z" opacity=".99"/>
    <path fill="#e75757" d="m26.077 36.935.104-.126.808-.977.111-3.806-.41-.19v-.71a7.5 7.5 0 0 0 3.888-1.471l.783.782-.146.442 2.776 2.619 1.438.104-.158-1.426-2.612-2.788-.446.163-.717-.717a7.5 7.5 0 0 0 2.045-4.547h.794l.212.422 3.815-.112 1.09-.943-1.12-.896-3.818-.125-.197.425h-.776a7.51 7.51 0 0 0-6.851-6.843v-.56l.41-.19-.111-3.806-.912-1.103-.912 1.103-.112 3.807.407.185v.563a7.51 7.51 0 0 0-6.865 6.844h-.759l-.197-.425-3.819.125-1.12.896 1.09.943 3.816.112.212-.422h.778a7.5 7.5 0 0 0 2.025 4.53l-.733.733-.442-.146-2.619 2.777-.103 1.438 1.425-.158 2.788-2.612-.163-.446.762-.762a7.5 7.5 0 0 0 3.924 1.487v.713l-.407.184.112 3.807zm-.617-7.45a5.9 5.9 0 0 1-2.742-1.026l2.742-2.742zm1.23 0v-3.718l2.708 2.708a5.9 5.9 0 0 1-2.708 1.01m3.638-1.819-3.379-3.379h4.949a5.87 5.87 0 0 1-1.57 3.38m-8.537-.019a5.87 5.87 0 0 1-1.552-3.36h4.912zm10.107-4.59H28.12l2.738-2.737a5.9 5.9 0 0 1 1.04 2.738m-7.917 0h-3.727a5.9 5.9 0 0 1 1.02-2.706zm1.48-.259-3.39-3.39a5.87 5.87 0 0 1 3.39-1.549zm1.229-.05v-4.89a5.87 5.87 0 0 1 3.366 1.523z" color="#000" style="-inkscape-stroke:none"/>
</svg>
