<svg xmlns="http://www.w3.org/2000/svg" width="52.157" height="52.157">
    <g opacity=".99">
        <path fill="#e2d9ba" stroke="#393831" stroke-opacity=".992" stroke-width="1.044" d="m-11.54 7.386-13.14 4.634-6.169 42.276H7.767L1.598 12.02Z" transform="matrix(1.04053 0 0 -.96762 38.088 55.905)"/>
        <path fill="#c90f0e" fill-opacity=".992" d="M16.566 42.639a1.6 1.6 0 0 1-.269-.004q-.12-.014-.192-.051c.49-.595 4.35-3.344 2.239-4.101-.03-.009-.04-.02-.07-.03-.845.038-1.706.894-1.8.979-.124.115-.422.154-.758.144-1.017-.043-2.432-.845-.883-1.175 1.41-.49 2.555-.74 3.396-1.344l.004.008c.595-.624 1.85-1.753 2.475-2.304l1.043-.996a9.4 9.4 0 0 1 1.46-1.051 3.6 3.6 0 0 1 .865-.365c.259-.07.432-.07.576-.02a1 1 0 0 1-.036.399c-.097.325-.327.767-.586 1.19-.26.422-.538.835-.74 1.132-.096.154-.182.26-.23.346 0 0-4.147 1.088-2.808 2.74 2.22 2.738-2.192 4.418-3.685 4.51zm19.106 0v-.002c-1.493-.09-5.906-1.772-3.686-4.511 1.34-1.651-2.808-2.74-2.808-2.74-.05-.085-.134-.202-.23-.346-.202-.297-.48-.71-.74-1.132-.259-.423-.48-.864-.576-1.19-.05-.164-.06-.298-.04-.366.006-.027.005-.03.004-.034.144-.046.326-.043.576.021a4 4 0 0 1 .864.365c.586.327 1.143.778 1.46 1.051l1.044.996c.624.547 1.875 1.682 2.475 2.304l.003-.008c.845.605 1.988.855 3.397 1.344 1.546.327.134 1.132-.883 1.175-.336.014-.634-.024-.759-.144-.09-.085-.95-.94-1.799-.978-.02.01-.04.021-.07.03-2.111.758 1.75 3.502 2.239 4.1a.5.5 0 0 1-.192.052c-.08.008-.163.01-.269.003zm-19.45-7.772c-.692-1.54-.99-2.374.974-4.642-1.295.307-2.702 2.916-3.293 3.45-1.016-2.57.259-3.697 1.826-4.516-1.533-.326-2.446.404-3.983.874.854-1.565 1.913-3.955 4.503-2.842-.962-1.322-2.638-1.93-4.07-2.78 1.473-.279 3.008-1.01 4.265.278-.653-1.192-1.715-2.21-2.757-3.234a18 18 0 0 1 1.27.221c.662.74 1.44 1.226 2.205 1.573.008.413.125.835.23 1.205.06.22.08.259.135.403-.192.046-.346.06-.567.192a1.07 1.07 0 0 0-.45.547c-.091.25-.091.547-.003.864l.47 1.73c.145.52.586.769 1.035 1.006.355.192.71.326 1.032.46q-.076.591-.135 1.182zm19.746 0-2.691-4.033c-.04-.394-.08-.787-.135-1.177.327-.135.682-.269 1.032-.461.451-.24.893-.49 1.034-1.005l.47-1.731q.135-.476 0-.864a1.06 1.06 0 0 0-.46-.547c-.221-.135-.375-.154-.567-.192.05-.144.07-.173.135-.403.115-.375.22-.797.23-1.206.768-.346 1.538-.835 2.205-1.573q.619-.134 1.272-.22c-1.042 1.024-2.107 2.04-2.759 3.233 1.257-1.291 2.794-.557 4.267-.279-1.433.855-3.11 1.459-4.072 2.78 2.59-1.112 3.647 1.278 4.504 2.843-1.537-.47-2.45-1.199-3.982-.873 1.57.816 2.842 1.946 1.826 4.516-.595-.537-2-3.14-3.295-3.45 1.964 2.269 1.67 3.103.974 4.642zm-8.5-.308c-.24-.006-.49-.016-.519-.019l-.02.002-.835-.144-.835.144q-.007-.002-.02-.002a10 10 0 0 1-.461.017c.03-.057.06-.09.096-.153.278-.46.528-.912.682-1.415.08-.26.124-.423.06-.787.002.016.009.026.01.043-.006-.074-.01-.086-.01-.09.004.02-.002.029.002.044-.164-.963-1.018-1.008-1.784-.807h-.004a4.3 4.3 0 0 0-1.091.461c-.691.384-1.275.864-1.617 1.16l-.02.017-1.034.988c-.02.016-.05.046-.07.063-.003-.008-.03-.063-.03-.07v-.001c-.48-1.276-.307-2.903-.096-4.562l.04-.307-.288-.125c-.365-.154-.845-.336-1.23-.547-.384-.202-.624-.461-.633-.51l-.47-1.73c-.06-.202-.04-.307-.02-.375.02-.06.06-.096.134-.153.124-.077.355-.135.585-.202.384.004.816.024 1.263-.017.547-.055 1.141-.211 1.566-.691l.04-.046.02-.06c.173-.394.27-.816.365-1.222h-.652c-.308.008-3.607.072-5.585-2.527-.749-.982-1.462-1.709-2.283-2.082-.355-.163-.518-.307-.816-.346-.182-.024-.508.09-.787.173l.26-.662c.892-.308 1.619-.154 2.311.297.72.47 1.383 1.252 2.03 2.095.844 1.108 2.199 1.62 3.332 1.87.963.211 1.533.192 1.756.192l.72.027c.05-.106.096-.202.144-.278a.6.6 0 0 1 .298-.25 33 33 0 0 0 4.078.634l.03.003.03-.003a31 31 0 0 0 4.076-.634.57.57 0 0 1 .298.25 2 2 0 0 1 .144.278l.72-.027c.22-.001.797.014 1.757-.192 1.133-.25 2.49-.758 3.332-1.87.643-.845 1.311-1.627 2.03-2.095.69-.451 1.416-.605 2.311-.297l.26.662c-.28-.074-.605-.192-.788-.173-.297.037-.46.183-.816.346-.816.374-1.535 1.102-2.282 2.084-1.977 2.6-5.279 2.535-5.585 2.527h-.653c.096.403.202.835.365 1.222l.03.06.04.046c.432.48 1.037.662 1.617.73.537.069 1.064.055 1.49.06a1.2 1.2 0 0 1 .318.125.28.28 0 0 1 .134.153c.02.06.04.173-.02.375l-.47 1.73c-.01.04-.25.298-.634.51-.384.2-.864.393-1.23.547l-.288.124.04.308c.211 1.658.384 3.288-.096 4.563 0 0-.01.03-.01.034-.009-.008-.03-.023-.03-.03l-1.034-.988-.02-.017c-.336-.288-.931-.777-1.617-1.16-.355-.191-.71-.364-1.091-.46h-.002c-.768-.202-1.626-.154-1.786.806.004-.019 0-.027.004-.046 0 .002-.007.012-.01.09q.004-.022.01-.04c-.06.365-.009.538.07.788.144.499.403.96.681 1.415.03.057.06.09.096.153zm-5.412-3.427c.663-.096.931-.988 2.972-2.458-.528-.864-1.264-1.227-2.57-1.015-1.225.442-2.418 1.183-1.665 2.72.288.471.605.682.95.75.115.019.307-.086.317.007zm8.075 0a1 1 0 0 0 .307-.007c.346-.06.662-.279.95-.75.75-1.537-.441-2.28-1.665-2.72-1.307-.211-2.046.154-2.568 1.015 2.044 1.47 2.31 2.364 2.972 2.458zm-6-6.06c.643-.144.921-1.065 1.37-1.635l-.815.605-1.015.114c.07.442-.355.787.46.922zm3.922 0c.816-.135.394-.48.461-.922l-1.015-.115-.816-.605c.442.567.73 1.495 1.37 1.635zm5.779-.279c-.25-.003-.5-.012-.74-.039-.47-.06-.835-.201-1.074-.451-.03-.085-.06-.192-.09-.298a9 9 0 0 0 2.236-.422c-.03.202-.07.422-.135.643-.096.317-.153.47-.192.576zm-15.503-.069c-.04-.125-.09-.22-.173-.509-.06-.22-.09-.432-.125-.633a9.2 9.2 0 0 0 2.222.422c-.03.096-.06.211-.09.298-.24.25-.567.365-.999.413a8 8 0 0 1-.835.017zm2.573-2.722a8.5 8.5 0 0 1-1.735-.212c-.211-.046-.432-.115-.653-.182a4.4 4.4 0 0 1 .346-.547c-.007.009.288-.192.538-.307.259-.116.49-.192.49-.192l.23-.075.04-.25c.537-3.553 1.267-4.858 2.164-7.514.106-.163.24-.307.384-.442l.557-7.495.797 5.632 1.06-5.002.982 4.9.974-4.888 1.069 5.074.787-5.752.557 7.536a2.3 2.3 0 0 1 .374.442c.893 2.657 1.625 3.962 2.165 7.517l.04.25.23.073s.23.075.49.192a3.4 3.4 0 0 1 .538.308c.134.172.24.364.345.547-.22.069-.441.134-.652.182a8.2 8.2 0 0 1-1.737.211c-.04-.072-.06-.153-.115-.22-.173-.26-.432-.5-.768-.605.04-3.847-.02-3.451-.988-7.085l-.04-.154-.135-.085c-.864-.557-2-.835-3.138-.825-1.138 0-2.284.278-3.163.902l-.125.085-.04.144c-.961 3.65-1.076 3.248-.99 7.02l-.01.002a1.5 1.5 0 0 0-.778.604c-.04.07-.07.144-.115.221zm5.19-.192a29 29 0 0 1-3.393-.49l.566-3.056.797 1.532 1.061-1.174.981 1.114.975-1.108 1.068 1.215.787-1.6.567 3.071a32 32 0 0 1-3.412.49zm.01-5.145-.974-.94-.921.892-.413-2.203c.653-.365 1.47-.576 2.317-.576a5.24 5.24 0 0 1 2.308.537l-.422 2.236-.912-.883z"/>
    </g>
</svg>
