<svg xmlns="http://www.w3.org/2000/svg" width="52.157" height="52.157">
    <g stroke="#000" opacity=".99">
        <path fill="#38362e" fill-opacity=".965" stroke="#38362e" stroke-opacity=".965" stroke-width=".844" d="m26.08 46.157 10.95-3.56 5.792-36.62H9.336l5.796 36.619Z"/>
        <path fill="#ed5959" fill-opacity=".984" stroke="none" d="M56.934 15.586a.6.6 0 0 0-.218.066l-.436.222.336.397c1.655 1.954 2 3.75 2.075 5.328.038.788.002 1.52.018 2.187.017.668.083 1.293.392 1.812.515 1.044 1.131 1.802 1.836 2.34-.572.456-1.22.968-2.054 1.658a.358.358 0 0 0 .086.604 16.8 16.8 0 0 0 4.541 1.246c-.05 2.005-.194 3.838-.756 5.49-.707 2.074-2.049 3.899-4.758 5.549l-.01.005c-1.307.848-2.212 1.548-2.834 2.44s-.931 1.95-1.095 3.444a.36.36 0 0 0 .264.386c3.397.91 7.408 1.343 11.416 1.325 4.009.019 8.021-.414 11.42-1.325a.36.36 0 0 0 .263-.386c-.164-1.493-.476-2.552-1.098-3.444s-1.524-1.592-2.832-2.44l-.01-.005c-2.709-1.65-4.05-3.475-4.757-5.55-.563-1.652-.707-3.486-.756-5.493a17.2 17.2 0 0 0 4.54-1.24.358.358 0 0 0 .087-.606 97 97 0 0 0-2.061-1.652c.708-.539 1.326-1.3 1.843-2.346l.015-.028c.294-.514.36-1.128.376-1.784.017-.668-.02-1.399.018-2.187.076-1.578.42-3.374 2.075-5.328l.336-.397-.435-.222c-.298-.152-.568-.03-.83.108-.263.138-.537.335-.819.534-.537.378-1.112.73-1.443.762-.661-.412-1.318-.368-1.816-.089-.525.295-.889.8-1.05 1.298l-.232.721.625-.22c.139-.05.254-.028.397.074s.302.299.439.574c.274.55.457 1.4.42 2.288s-.285 1.81-.838 2.564a3.75 3.75 0 0 1-1.367 1.141c.38-.5.606-1.116.606-1.785 0-1.673-1.404-3.025-3.114-3.025s-3.116 1.352-3.116 3.025c0 .67.227 1.285.606 1.785a3.75 3.75 0 0 1-1.366-1.141c-.553-.754-.802-1.676-.839-2.564s.147-1.738.42-2.288c.138-.275.296-.472.44-.574.143-.102.258-.124.396-.075l.626.221-.233-.721a2.33 2.33 0 0 0-1.05-1.298c-.497-.28-1.154-.323-1.816.09-.33-.033-.905-.385-1.442-.763-.282-.2-.557-.396-.82-.534-.196-.103-.397-.197-.611-.174m.944 1.253.156.108c.282.2.578.42.884.592s.623.292.947.29h.088l.075-.053c.532-.372.96-.323 1.319-.122q.132.076.246.18.115.105.208.223a1 1 0 0 0-.25.131q-.1.072-.191.162-.092.09-.174.197-.164.213-.296.481c-.354.71-.552 1.681-.509 2.712.043 1.03.335 2.125.996 3.025l.026.033q.13.173.278.335.047.049.095.096.125.13.262.248.057.049.116.096.147.12.306.227l.103.07q.212.136.448.252l.01.006c.434.212.927.373 1.483.468.386.12.826.148 1.227.16h.016c.401-.012.84-.04 1.226-.16a5.5 5.5 0 0 0 1.464-.457l.025-.014q.228-.113.434-.243.064-.041.124-.084a4.5 4.5 0 0 0 .677-.564l.095-.097q.166-.18.309-.372c.66-.9.952-1.995.995-3.026a7 7 0 0 0-.011-.758 6 6 0 0 0-.094-.718 4.8 4.8 0 0 0-.403-1.235c-.177-.355-.394-.65-.662-.84a1 1 0 0 0-.25-.131c.124-.157.278-.304.454-.403.36-.201.787-.25 1.319.122l.075.054h.088q.12 0 .241-.021c.56-.097 1.096-.513 1.59-.862l.156-.108a9.2 9.2 0 0 0-1.253 3.063c-.12.58-.18 1.134-.204 1.653-.04.842-.004 1.592-.019 2.209-.015.616-.085 1.078-.275 1.397l-.008.013-.007.015a8 8 0 0 1-.235.442l-.085.144a7 7 0 0 1-.272.421 6 6 0 0 1-.264.35l-.082.093a4.6 4.6 0 0 1-.682.647l-.002.002h-.001q-.132.101-.269.19c-.17.11-.343.213-.525.3-.968.459-2.132.594-3.512.587q-.074 0-.147-.005l-.018-.001-.019.001q-.075.006-.146.005c-1.38.007-2.546-.128-3.513-.588a4.5 4.5 0 0 1-.537-.306 4 4 0 0 1-.262-.186l-.02-.016q-.345-.268-.657-.627l-.09-.102a6 6 0 0 1-.263-.349 6 6 0 0 1-.276-.429l-.078-.131a8 8 0 0 1-.234-.442l-.007-.014-.008-.014c-.143-.24-.218-.559-.252-.963a7 7 0 0 1-.023-.434c-.016-.617.022-1.367-.019-2.209-.066-1.383-.373-3.02-1.457-4.716m7.86 4.451c1.11 0 2.033.714 2.32 1.684a2.2 2.2 0 0 1 .083.423l.001.003q.003.043.004.088.005.063.007.126v.008l-.001.012a2 2 0 0 1-.03.33q-.005.042-.013.085-.03.153-.08.298l-.034.09a2 2 0 0 1-.118.258l-.053.09q-.06.1-.132.195c-.016.02-.028.044-.044.064l-.003-.005c-.44.546-1.126.9-1.907.9a2.44 2.44 0 0 1-1.912-.906l-.002.004c-.014-.017-.023-.036-.036-.053a2 2 0 0 1-.151-.225l-.035-.06a2 2 0 0 1-.123-.268l-.032-.086a2 2 0 0 1-.08-.301l-.013-.078a2 2 0 0 1-.03-.333v-.019q.001-.063.006-.126l.005-.09a2.3 2.3 0 0 1 .082-.42l.001-.004c.287-.97 1.21-1.684 2.32-1.684" color="#000" overflow="visible" paint-order="stroke fill markers" style="line-height:normal;font-variant-ligatures:normal;font-variant-position:normal;font-variant-caps:normal;font-variant-numeric:normal;font-variant-alternates:normal;font-variant-east-asian:normal;font-feature-settings:normal;font-variation-settings:normal;text-indent:0;text-align:start;text-decoration-line:none;text-decoration-style:solid;text-decoration-color:#000;text-transform:none;text-orientation:mixed;white-space:normal;shape-padding:0;shape-margin:0;inline-size:0;isolation:auto;mix-blend-mode:normal;solid-color:#000;solid-opacity:1" transform="matrix(.83285 0 0 -.83285 -28.671 52.487)"/>
    </g>
</svg>
