<svg xmlns="http://www.w3.org/2000/svg" xmlns:xlink="http://www.w3.org/1999/xlink" viewBox="0 0 60 60">
    <defs>
        <linearGradient xlink:href="#0GI_svg__a" id="0GI_svg__c" x1="-30.849" x2="-14.721" y1="30.267" y2="30.267" gradientUnits="userSpaceOnUse" spreadMethod="repeat"/>
        <linearGradient id="0GI_svg__a">
            <stop offset="0" stop-color="#e5c37b"/>
            <stop offset=".042" stop-color="#e4bd76"/>
            <stop offset=".093" stop-color="#e7c781"/>
            <stop offset=".165" stop-color="#e2b86e"/>
            <stop offset=".305" stop-color="#e6c686"/>
            <stop offset=".539" stop-color="#dfb96f"/>
            <stop offset=".586" stop-color="#ddbb73"/>
            <stop offset=".84" stop-color="#e7ce8f"/>
            <stop offset=".924" stop-color="#e1bd73"/>
            <stop offset=".962" stop-color="#e0bf78"/>
            <stop offset="1" stop-color="#e7c685"/>
        </linearGradient>
        <filter id="0GI_svg__b" width="1.286" height="1.236" x="-.118" y="-.097">
            <feGaussianBlur in="SourceAlpha" result="blur" stdDeviation="2"/>
            <feOffset dx="2" dy="2" result="offsetBlur"/>
            <feBlend in="SourceGraphic" in2="offsetBlur"/>
        </filter>
        <filter id="0GI_svg__d" width="1.049" height="1.044" x="-.024" y="-.022" color-interpolation-filters="sRGB">
            <feColorMatrix in="SourceGraphic" result="color" values="1 0 0 0 0 0 1 0 0 0 0 0 1 0 0 0 0 0 0.85 0"/>
            <feGaussianBlur in="SourceAlpha" result="blur" stdDeviation=".32"/>
            <feSpecularLighting in="blur" lighting-color="#fff" result="specular" specularConstant="2.019" specularExponent="25" surfaceScale="5">
                <feDistantLight azimuth="245" elevation="25"/>
            </feSpecularLighting>
            <feComposite in="specular" in2="SourceGraphic" k2="1" k3="1" operator="arithmetic" result="composite1"/>
            <feComposite in="composite1" in2="color" operator="atop" result="composite2"/>
        </filter>
    </defs>
    <g fill="#fecb00" filter="url(#0GI_svg__b)" transform="translate(39.935 1.558)scale(.93934)">
        <path fill="#83611c" d="m-10.348 7.413-12.84 3.608-7.05 44.45H9.696L2.907 11.31l-.611-1.177.164 1.046z"/>
        <path fill="url(#0GI_svg__c)" d="m-10.96 6.237-12.838 3.608-7.051 44.45H9.085l-6.79-44.163z"/>
    </g>
    <path fill="#654b13" d="m11.531 53.665-.574-1.105h37.511l.575 1.105z"/>
    <path d="m30.008 12.6-.303.423c-.88 1.231-1.746 2.732-3.103 3.324l-.569.246.483.392c.912.739 1.493 2.048 1.81 3.75.073.388.127.801.174 1.225-1.321.534-2.515 1.368-3.635 2.377.389.246.952.582 1.688.977 1.2.642 2.68.86 3.457.86.79.002 2.274-.218 3.472-.86.747-.4 1.28-.736 1.665-.98-1.118-1.008-2.308-1.841-3.627-2.374.046-.424.1-.837.171-1.225.318-1.702.897-3.011 1.81-3.75l.483-.392-.568-.246c-1.357-.592-2.225-2.093-3.105-3.324zm-10.025 2.212-.622.023c-.08 4.185.191 8.092 1.704 10.961a8 8 0 0 0 2.119 2.58c.39.142 1.18.421 2.334.764 1.506.447 3.34.884 4.48.885 1.143 0 2.984-.438 4.494-.885a42 42 0 0 0 2.309-.752 8 8 0 0 0 2.133-2.592c1.512-2.87 1.783-6.776 1.703-10.96l-.621-.024c-.319 4.498-1.059 7.261-2.559 8.966-.369.42-.806.762-1.285 1.069l.006.01s-.975.67-2.225 1.34-2.718.981-3.943.98c-1.215-.002-2.68-.314-3.93-.983-1.25-.668-2.258-1.335-2.258-1.335l.008-.012c-.48-.307-.92-.649-1.289-1.068-1.5-1.705-2.24-4.469-2.559-8.967Zm2.85 14.539c-2.324 4.954-6.477 10.71-8.36 13.316l-.196.268.17.29c.873 1.49 2.602 3.547 4.418 3.987l.29.07.134-.31c.339-.778 1.224-4.756 2.197-7.471q.006.001.008.004l3.01-9.593c-.931-.296-1.416-.47-1.672-.561zm14.339.006c-.262.092-.735.26-1.658.552l3.06 9.756c.947 2.642 1.804 6.546 2.135 7.307l.137.31.289-.07c1.816-.44 3.544-2.496 4.416-3.986l.172-.291-.196-.268c-1.882-2.605-6.031-8.359-8.355-13.31m-2.613.85c-1.5.436-3.236.863-4.56.862-1.32 0-3.046-.425-4.54-.86l-.61 1.943c.342.122.902.318 1.712.558 1.156.343 2.565.68 3.44.68.876 0 2.29-.336 3.45-.68.813-.24 1.374-.436 1.717-.558zm-9.95 2.71L22.42 39.9c2.073.887 5.395 2.16 7.58 2.164 2.176.003 5.486-1.241 7.607-2.135l-2.199-7.012c-.362.13-.924.324-1.728.563-1.189.352-2.611.71-3.68.71-1.066 0-2.483-.36-3.668-.712a34 34 0 0 1-1.723-.56z" enable-background="accumulate" filter="url(#0GI_svg__d)" overflow="visible"/>
</svg>
