<svg xmlns="http://www.w3.org/2000/svg" xmlns:xlink="http://www.w3.org/1999/xlink" viewBox="0 0 60 60">
    <defs>
        <linearGradient xlink:href="#0HI_svg__a" id="0HI_svg__c" x1="-30.849" x2="-15.094" y1="30.267" y2="30.267" gradientTransform="translate(40.882 -.267)" gradientUnits="userSpaceOnUse" spreadMethod="repeat"/>
        <linearGradient id="0HI_svg__a">
            <stop offset="0" stop-color="#e5c37b"/>
            <stop offset=".042" stop-color="#e4bd76"/>
            <stop offset=".093" stop-color="#e7c781"/>
            <stop offset=".165" stop-color="#e2b86e"/>
            <stop offset=".305" stop-color="#e6c686"/>
            <stop offset=".539" stop-color="#dfb96f"/>
            <stop offset=".586" stop-color="#ddbb73"/>
            <stop offset=".84" stop-color="#e7ce8f"/>
            <stop offset=".924" stop-color="#e1bd73"/>
            <stop offset=".962" stop-color="#e0bf78"/>
            <stop offset="1" stop-color="#e7c685"/>
        </linearGradient>
        <filter id="0HI_svg__b" width="1.289" height="1.241" x="-.119" y="-.1">
            <feGaussianBlur in="SourceAlpha" result="blur" stdDeviation="2"/>
            <feOffset dx="2" dy="2" result="offsetBlur"/>
            <feBlend in="SourceGraphic" in2="offsetBlur"/>
        </filter>
        <filter id="0HI_svg__d" width="1.057" height="1.048" x="-.028" y="-.024" color-interpolation-filters="sRGB">
            <feColorMatrix in="SourceGraphic" result="color" values="1 0 0 0 0 0 1 0 0 0 0 0 1 0 0 0 0 0 0.85 0"/>
            <feGaussianBlur in="SourceAlpha" result="blur" stdDeviation=".32"/>
            <feSpecularLighting in="blur" lighting-color="#fff" result="specular" specularConstant="2.019" specularExponent="25" surfaceScale="5">
                <feDistantLight azimuth="245" elevation="25"/>
            </feSpecularLighting>
            <feComposite in="specular" in2="SourceGraphic" k2="1" k3="1" operator="arithmetic" result="composite1"/>
            <feComposite in="composite1" in2="color" operator="atop" result="composite2"/>
        </filter>
    </defs>
    <g fill="#75581b" filter="url(#0HI_svg__b)" transform="translate(41.197 .902)">
        <path fill="#84631f" d="m-10.96 6.237-12.84 3.61-6.865 43.278-.419.025.234 1.145H9.084L1.999 9.082l-.333-.119.203 1.045Z"/>
    </g>
    <path fill="url(#0HI_svg__c)" d="M29.922 5.97 17.084 9.578l-7.051 44.45h39.934l-6.79-44.163Z"/>
    <path fill="#654b13" d="m10.044 54.007.303 1.19h39.934l-.316-1.135z"/>
    <path fill="#020101" d="M43.427 18.746v.001c-9.096.994-17.734.994-26.857.017-.067-.007-.045.09-.034.139.503 2.022.674 2.272 2.076 3.76l22.769-.007c1.455-1.427 1.58-1.715 2.086-3.749.011-.057.022-.171-.033-.171zM18.581 23.7v17.306h1.44c.523-5.036 4.796-8.98 9.968-8.98s9.443 3.944 9.966 8.98h1.44V23.7Zm11.407 9.366a8.983 8.983 0 1 0 0 17.966 8.983 8.983 0 0 0 0-17.966m-.833 3.135v3.833l-2.708-2.71a5.85 5.85 0 0 1 2.708-1.123m1.67 0a5.86 5.86 0 0 1 2.707 1.122l-2.708 2.71zm-5.557 2.303 2.71 2.71h-3.832a5.9 5.9 0 0 1 1.122-2.71m9.445 0a5.85 5.85 0 0 1 1.123 2.71h-3.833zM18.68 42.02c-.577.003-1.139.009-1.139.009l-.855 1.466v1.656h3.83c-.46-.801-.683-2.086-.609-3.122-.055-.013-.652-.011-1.226-.009zm22.617 0c-.577-.002-1.168-.003-1.226.009.066 1.036-.15 2.324-.61 3.122h3.832v-1.656l-.855-1.466s-.567-.006-1.14-.009zm-17.152.855h3.832l-2.708 2.71a5.86 5.86 0 0 1-1.124-2.71m7.859 0h3.831a5.85 5.85 0 0 1-1.124 2.71zm-2.85 1.181v3.83a5.85 5.85 0 0 1-2.706-1.122zm1.67 0 2.708 2.708a5.85 5.85 0 0 1-2.708 1.123z" filter="url(#0HI_svg__d)" opacity=".99"/>
</svg>
