<svg xmlns="http://www.w3.org/2000/svg" xmlns:xlink="http://www.w3.org/1999/xlink" viewBox="0 0 60 60">
    <defs>
        <linearGradient id="0KY_svg__a">
            <stop offset="0" stop-color="#dfb459"/>
            <stop offset=".042" stop-color="#dead54"/>
            <stop offset=".093" stop-color="#e1b85f"/>
            <stop offset=".165" stop-color="#dba84d"/>
            <stop offset=".305" stop-color="#dfb765"/>
            <stop offset=".539" stop-color="#d8a94e"/>
            <stop offset=".586" stop-color="#d5ab53"/>
            <stop offset=".84" stop-color="#e0bf6e"/>
            <stop offset=".924" stop-color="#daae52"/>
            <stop offset=".962" stop-color="#d9af57"/>
            <stop offset="1" stop-color="#e1b663"/>
        </linearGradient>
        <linearGradient xlink:href="#0KY_svg__a" id="0KY_svg__c" x1="287.356" x2="301.335" y1="53.513" y2="53.513" gradientUnits="userSpaceOnUse" spreadMethod="repeat"/>
        <linearGradient xlink:href="#0KY_svg__b" id="0KY_svg__e" x1="287.356" x2="301.335" y1="53.513" y2="53.513" gradientUnits="userSpaceOnUse" spreadMethod="repeat"/>
        <linearGradient id="0KY_svg__b">
            <stop offset="0" stop-color="#e5c37b"/>
            <stop offset=".042" stop-color="#e4bd76"/>
            <stop offset=".093" stop-color="#e7c781"/>
            <stop offset=".165" stop-color="#e2b86e"/>
            <stop offset=".305" stop-color="#e6c686"/>
            <stop offset=".539" stop-color="#dfb96f"/>
            <stop offset=".586" stop-color="#ddbb73"/>
            <stop offset=".84" stop-color="#e7ce8f"/>
            <stop offset=".924" stop-color="#e1bd73"/>
            <stop offset=".962" stop-color="#e0bf78"/>
            <stop offset="1" stop-color="#e7c685"/>
        </linearGradient>
        <filter id="0KY_svg__d" width="1.286" height="1.235" x="-.118" y="-.097">
            <feGaussianBlur in="SourceAlpha" result="blur" stdDeviation="2"/>
            <feOffset dx="2" dy="2" result="offsetBlur"/>
            <feBlend in="SourceGraphic" in2="offsetBlur"/>
        </filter>
        <filter id="0KY_svg__f" width="1.078" height="1.039" x="-.039" y="-.019" color-interpolation-filters="sRGB">
            <feColorMatrix in="SourceGraphic" result="color" values="1 0 0 0 0 0 1 0 0 0 0 0 1 0 0 0 0 0 0.85 0"/>
            <feGaussianBlur in="SourceAlpha" result="blur" stdDeviation=".32"/>
            <feSpecularLighting in="blur" lighting-color="#fff" result="specular" specularConstant="2.019" specularExponent="25" surfaceScale="5">
                <feDistantLight azimuth="245" elevation="25"/>
            </feSpecularLighting>
            <feComposite in="specular" in2="SourceGraphic" k2="1" k3="1" operator="arithmetic" result="composite1"/>
            <feComposite in="composite1" in2="color" operator="atop" result="composite2"/>
        </filter>
    </defs>
    <g fill="url(#0KY_svg__c)" filter="url(#0KY_svg__d)" transform="translate(39.64 2.874)scale(.91071)">
        <path fill="#826015" d="M-10.368 7.618c-4.319 1-8.69 2.09-12.837 3.61l-7.052 44.45H9.678l-6.79-44.163-.594-1.383.197 1.265c-4.285-1.259-8.575-2.522-12.859-3.779"/>
        <path fill="url(#0KY_svg__e)" d="M-10.96 6.237c-4.319 1-8.69 2.088-12.838 3.608l-7.051 44.45H9.085l-6.79-44.162c-4.418-1.298-8.839-2.6-13.255-3.896"/>
    </g>
    <path fill="#654b13" d="m11.546 52.322.54 1.258h36.368l-.54-1.258z"/>
    <path d="m29.99 10.593-2.333 2.91-.305 9.526 1.827.957h.044v7.266c-5.108.4-9.048 4.564-9.048 9.572 0 5.303 4.398 9.6 9.824 9.602 5.427 0 9.826-4.299 9.826-9.602v-.179c-.045-2.81-1.359-5.458-3.58-7.245-.045-.034-.084-.071-.147-.116a9.95 9.95 0 0 0-5.336-2.055v-7.267h.055l1.82-.957-.274-9.526zm-.61 3.327h1.244v7.996h-1.245zm-.169 19.425v5.638l-4.08-3.987a7.73 7.73 0 0 1 4.08-1.652zm1.555.002c1.495.157 2.912.715 4.077 1.652l-4.077 3.985zm-6.732 2.724 4.118 4.022h-5.81a7.36 7.36 0 0 1 1.692-4.022m11.908 0a7.33 7.33 0 0 1 1.69 4.014v.007h-5.806zM22.35 41.612h5.726l-4.04 3.95a7.4 7.4 0 0 1-1.685-3.95zm9.552 0h5.724a7.44 7.44 0 0 1-1.684 3.949zm-2.69 1.041v5.637a7 7 0 0 1-.6-.083 7.8 7.8 0 0 1-3.485-1.57zm1.554 0 4.078 3.986a7.7 7.7 0 0 1-4.078 1.65z" filter="url(#0KY_svg__f)"/>
</svg>
