<svg xmlns="http://www.w3.org/2000/svg" xmlns:xlink="http://www.w3.org/1999/xlink" viewBox="0 0 60 60">
    <defs>
        <linearGradient xlink:href="#0NG_svg__a" id="0NG_svg__c" x1="-30.849" x2="-14.721" y1="30.267" y2="30.267" gradientUnits="userSpaceOnUse" spreadMethod="repeat"/>
        <linearGradient id="0NG_svg__a">
            <stop offset="0" stop-color="#e5c37b"/>
            <stop offset=".042" stop-color="#e4bd76"/>
            <stop offset=".093" stop-color="#e7c781"/>
            <stop offset=".165" stop-color="#e2b86e"/>
            <stop offset=".305" stop-color="#e6c686"/>
            <stop offset=".539" stop-color="#dfb96f"/>
            <stop offset=".586" stop-color="#ddbb73"/>
            <stop offset=".84" stop-color="#e7ce8f"/>
            <stop offset=".924" stop-color="#e1bd73"/>
            <stop offset=".962" stop-color="#e0bf78"/>
            <stop offset="1" stop-color="#e7c685"/>
        </linearGradient>
        <filter id="0NG_svg__b" width="1.286" height="1.236" x="-.118" y="-.097">
            <feGaussianBlur in="SourceAlpha" result="blur" stdDeviation="2"/>
            <feOffset dx="2" dy="2" result="offsetBlur"/>
            <feBlend in="SourceGraphic" in2="offsetBlur"/>
        </filter>
        <filter id="0NG_svg__d" width="1.052" height="1.043" x="-.026" y="-.021" color-interpolation-filters="sRGB">
            <feColorMatrix in="SourceGraphic" result="color" values="1 0 0 0 0 0 1 0 0 0 0 0 1 0 0 0 0 0 0.85 0"/>
            <feGaussianBlur in="SourceAlpha" result="blur" stdDeviation=".32"/>
            <feSpecularLighting in="blur" lighting-color="#fff" result="specular" specularConstant="2.019" specularExponent="25" surfaceScale="5">
                <feDistantLight azimuth="245" elevation="25"/>
            </feSpecularLighting>
            <feComposite in="specular" in2="SourceGraphic" k2="1" k3="1" operator="arithmetic" result="composite1"/>
            <feComposite in="composite1" in2="color" operator="atop" result="composite2"/>
        </filter>
    </defs>
    <g fill="#fecb00" filter="url(#0NG_svg__b)" transform="translate(39.935 1.558)scale(.93934)">
        <path fill="#83611c" d="m-10.348 7.413-12.84 3.608-7.05 44.45H9.696L2.907 11.31l-.611-1.177.164 1.046z"/>
        <path fill="url(#0NG_svg__c)" d="m-10.96 6.237-12.838 3.608-7.051 44.45H9.085l-6.79-44.163z"/>
    </g>
    <path fill="#654b13" d="m11.531 53.665-.574-1.105h37.511l.575 1.105z"/>
    <path fill="#c80000" d="m30.008 13.124-.303.422c-.881 1.232-1.745 2.732-3.104 3.324l-.568.246.483.393c.687.556 1.182 1.442 1.521 2.57a4.01 4.01 0 0 0-1.936 3.436l.002.074-.003.059q0 .1.007.197-.623.46-1.214.992a4 4 0 0 1-.627-.379c-.02-.016-.045-.03-.065-.047a4 4 0 0 1-.459-.466q-.15-.176-.299-.381l-.033-.045c-.518-.734-1.013-1.711-1.433-2.73v-.003a23 23 0 0 1-.301-.767v-.002a24 24 0 0 1-.27-.764v-.002l-.017-.055c-.418-1.208-.717-2.45-1-3.695l-.004-.021v-.002L18.9 14.466s-.043 2.037-.048 3.322a50 50 0 0 0 .04 2.397c.004.074.003.14.007.214.063 1.35.171 2.79.423 4.11a15 15 0 0 0 .198.885q.089.341.195.664c.199.602.444 1.154.756 1.619a6 6 0 0 0 .734.896 7 7 0 0 0 .537.5q.025.023.051.043.099.082.201.16l.143.11.125.09q.285.204.584.386l.056.037-.07-.025c-2.324 4.953-5.476 3.353-7.36 5.96l-.195.267.17.29c2.277 3.891 4.572 6.332 5.54 3.633q.004 0 .007.004l3.426-9.363.072.03q.364.152.727.285c.048.017.096.04.144.056l-.513 1.639c.342.122.9.318 1.71.558 1.157.344 2.565.68 3.44.68.877 0 2.292-.336 3.451-.68a31 31 0 0 0 1.717-.558l-.516-1.647.055-.021q.423-.153.848-.334l.04-.016 3.48 9.532c.902 2.514 3.204.08 5.476-3.797l.172-.29-.196-.267c-1.882-2.606-5.032-1.003-7.355-5.953v-.002l-.106.037.037-.023a10 10 0 0 0 .747-.498l.158-.121q.087-.067.172-.137l.125-.108q.09-.076.18-.156l.095-.092q.108-.1.21-.205l.005-.004.014-.013q.123-.128.24-.262l.008-.008.035-.043a6 6 0 0 0 .435-.57v-.002q.11-.164.211-.34v-.002q.1-.178.19-.367v-.002a7 7 0 0 0 .17-.389v-.002q.08-.2.154-.41v-.002l.008-.023q.136-.4.244-.828l.006-.024v-.002l.006-.027q.105-.43.187-.88l.006-.025v-.002q.086-.479.148-.972v-.002q.065-.494.11-.992v-.002q.045-.5.078-.998v-.002q.032-.498.055-.983v-.008c.03-.644.045-1.264.05-1.834v-.006c.018-1.718-.05-4.086-.05-4.086l-1.485 1.012v.004l-.002-.002s-.35 1.755-1.021 3.774q-.126.378-.268.763l-.002.002q-.142.386-.299.768-.09.215-.185.426-.071.165-.145.328v.002q-.17.37-.351.716v.002q-.18.348-.37.665v.002q-.188.316-.382.591l-.002.002q-.181.255-.365.467l-.028.033v.002a4 4 0 0 1-.197.21 3 3 0 0 1-.2.179l-.064.049a4.4 4.4 0 0 1-.597.388 16 16 0 0 0-1.246-1.019q.005-.09.005-.182l-.002-.02q.004-.055.004-.112c0-1.45-.772-2.73-1.922-3.426.34-1.134.834-2.023 1.524-2.58l.484-.393-.568-.246c-1.358-.592-2.225-2.092-3.106-3.324Zm-9.543 7.795c.665 1.777 1.491 3.584 2.781 4.649 1.955 1.613 5.25 2.252 6.94 2.252 1.689 0 4.655-.674 6.568-2.252 1.29-1.065 2.116-2.872 2.781-4.649-.157 2.351-.56 4.886-1.254 5.92-.854 1.275-2.555 2.232-4.256 2.822-1.7.59-3.421.823-4.025.823s-2.325-.233-4.025-.823-3.402-1.547-4.256-2.822c-.693-1.034-1.097-3.569-1.254-5.92m9.535.115c1.323 0 2.398 1.091 2.398 2.48S31.323 25.998 30 25.998s-2.4-1.094-2.4-2.483 1.076-2.48 2.399-2.48m-5.39 12.407-2.19 6.982c2.074.887 5.395 2.16 7.58 2.164 2.177.003 5.486-1.24 7.607-2.135l-2.199-7.011c-.362.129-.923.324-1.728.562-1.188.352-2.61.711-3.68.711-1.065 0-2.483-.36-3.668-.713-.8-.237-1.36-.431-1.723-.56m.779 9.332-.942 4.468c3.407 2.652 7.663 2.369 11.106 0l-.998-4.468c-1.468.823-2.922.995-4.604 1.047-1.382-.022-3.27-.299-4.562-1.047" filter="url(#0NG_svg__d)"/>
</svg>
