<svg xmlns="http://www.w3.org/2000/svg" xmlns:xlink="http://www.w3.org/1999/xlink" viewBox="0 0 60 60">
    <defs>
        <linearGradient id="0NK_svg__a">
            <stop offset="0" stop-color="#dfb459"/>
            <stop offset=".042" stop-color="#dead54"/>
            <stop offset=".093" stop-color="#e1b85f"/>
            <stop offset=".165" stop-color="#dba84d"/>
            <stop offset=".305" stop-color="#dfb765"/>
            <stop offset=".539" stop-color="#d8a94e"/>
            <stop offset=".586" stop-color="#d5ab53"/>
            <stop offset=".84" stop-color="#e0bf6e"/>
            <stop offset=".924" stop-color="#daae52"/>
            <stop offset=".962" stop-color="#d9af57"/>
            <stop offset="1" stop-color="#e1b663"/>
        </linearGradient>
        <linearGradient xlink:href="#0NK_svg__a" id="0NK_svg__c" x1="287.356" x2="301.335" y1="53.513" y2="53.513" gradientUnits="userSpaceOnUse" spreadMethod="repeat"/>
        <linearGradient xlink:href="#0NK_svg__b" id="0NK_svg__e" x1="287.356" x2="301.335" y1="53.513" y2="53.513" gradientUnits="userSpaceOnUse" spreadMethod="repeat"/>
        <linearGradient id="0NK_svg__b">
            <stop offset="0" stop-color="#e5c37b"/>
            <stop offset=".042" stop-color="#e4bd76"/>
            <stop offset=".093" stop-color="#e7c781"/>
            <stop offset=".165" stop-color="#e2b86e"/>
            <stop offset=".305" stop-color="#e6c686"/>
            <stop offset=".539" stop-color="#dfb96f"/>
            <stop offset=".586" stop-color="#ddbb73"/>
            <stop offset=".84" stop-color="#e7ce8f"/>
            <stop offset=".924" stop-color="#e1bd73"/>
            <stop offset=".962" stop-color="#e0bf78"/>
            <stop offset="1" stop-color="#e7c685"/>
        </linearGradient>
        <filter id="0NK_svg__d" width="1.286" height="1.235" x="-.118" y="-.097">
            <feGaussianBlur in="SourceAlpha" result="blur" stdDeviation="2"/>
            <feOffset dx="2" dy="2" result="offsetBlur"/>
            <feBlend in="SourceGraphic" in2="offsetBlur"/>
        </filter>
        <filter id="0NK_svg__f" width="1.056" height="1.043" x="-.028" y="-.022" color-interpolation-filters="sRGB">
            <feColorMatrix in="SourceGraphic" result="color" values="1 0 0 0 0 0 1 0 0 0 0 0 1 0 0 0 0 0 0.85 0"/>
            <feGaussianBlur in="SourceAlpha" result="blur" stdDeviation=".32"/>
            <feSpecularLighting in="blur" lighting-color="#fff" result="specular" specularConstant="2.019" specularExponent="25" surfaceScale="5">
                <feDistantLight azimuth="245" elevation="25"/>
            </feSpecularLighting>
            <feComposite in="specular" in2="SourceGraphic" k2="1" k3="1" operator="arithmetic" result="composite1"/>
            <feComposite in="composite1" in2="color" operator="atop" result="composite2"/>
        </filter>
    </defs>
    <g fill="url(#0NK_svg__c)" filter="url(#0NK_svg__d)" transform="translate(39.641 2.874)scale(.91071)">
        <path fill="#826015" d="M-10.368 7.62c-4.319 1-8.69 2.087-12.838 3.607l-7.05 44.45H9.676l-6.79-44.163c-4.418-1.297-8.838-2.6-13.255-3.895z"/>
        <path fill="url(#0NK_svg__e)" d="M-10.96 6.237c-4.319 1-8.69 2.088-12.838 3.608l-7.051 44.45H9.085l-6.79-44.162c-4.418-1.298-8.839-2.6-13.255-3.896"/>
    </g>
    <path fill="#654b13" d="m11.546 52.322.54 1.258h36.368l-.54-1.258z"/>
    <path fill="#c80000" d="m20.5 13.085.076.67s.06.553.236 1.164c.137.473.306 1.026.707 1.4-.283.604-.428 1.31-.428 2.083 0 .72.123 1.386.37 1.963v.002a1.3 1.3 0 0 0-.083.261 3 3 0 0 0-.035.274c-.032.402.003.902.12 1.427q.071.322.187.645c-.442 1.233-.69 2.419-.615 3.71-1.517 1.7-2.865 3.519-3.742 5.634l-.01.021-.004.022c-.25 1.05-.49 2.167-.053 3.304l.037.1.58.32c.339.702.58 1.19.998 1.485.368.26.831.31 1.463.256l1.953-2.747.786.559-1.854 2.605.152.37.254-.082c1.292-.416 1.98-1.01 2.467-1.739.475-.708.788-1.523 1.39-2.47 1.912-.885 2.781-1.352 4.676-2.063l.024-.008-.059-.033c.27-.471.568-1.525.752-2.504.093-.49.164-.966.205-1.357.042-.391.05-.717.041-.809l.961-.092c.026.26.001.584-.045 1.004-.045.42-.117.918-.214 1.432-.182.963-.428 1.96-.79 2.662l.05.225c0 .02.015.298.023.634.007.348-.006.773-.02.838l-.004.02v.017c-.078 1.189-.818 2.608-1.705 3.793 1.806 1.235 4.15 2.084 6.487 2.266 1.243.097 2.473.01 3.626-.285-.522-3.412-.415-7.183-.812-10.358-.486-2.888-1.433-4.189-3.521-5.953a8 8 0 0 0-1.297-.84 4 4 0 0 0-.653-.275c-.17-.05-.27-.005-.148-.053l-.465-1.183c.192-.075.36-.095.518-.082h.002c.157.012.303.055.449.097.291.085.585.213.879.364.586.3 1.156.678 1.537 1 2.197 1.855 3.433 3.602 3.957 6.724l.002.014.002.012c.407 3.239.365 6.922.807 10.113a7.9 7.9 0 0 0 2.17-1.35c-.371-2.146-.496-4.498-.602-8.566v-.01c-.156-2.362-1.421-5.127-3.402-7.29-1.942-2.12-4.597-3.644-7.584-3.56-.12-.937 2.242-.785 3.431-.955-.88-.677-2.93-1.658-4.213-1.998l.059-.132c.143-.329.24-.545.24-.545l.475-1.045-1.088.363a8 8 0 0 1-.83.225q-.157.03-.309.048-.176.02-.346.018-.148-.002-.293-.023l-.076-.012a2 2 0 0 1-.598-.209 2 2 0 0 1-.304-.2l-.043-.033-.049-.023a2.4 2.4 0 0 0-.406-.15l-.025-.008a2 2 0 0 0-.166-.035l-.024-.004-.014-.002a1.5 1.5 0 0 0-.396-.008l-.049.006a1.33 1.33 0 0 0-.715.344l-.002.002a2 2 0 0 0-.197.21q-.09.115-.162.237l-.15.254.15.256s.088.148.215.388a13 13 0 0 1 .45.946q.079.186.147.38.025.064.047.13.07.205.125.408c.083.303.139.591.153.822l-.168-.024-.684-.806a4.4 4.4 0 0 0-.43-1.477c-.205-.404-.52-.807-.947-1.043l.033-1.853-.677.234c-.544.19-.79.153-1.088.06-.298-.092-.663-.302-1.213-.404zm1.234 1.364c.115.045.207.074.344.117.265.082.676-.01 1.04-.041l-.007.455a1.72 1.72 0 0 0-.975.465 3.2 3.2 0 0 1-.363-.803c-.029-.1-.017-.1-.039-.193m4.725.677c.094-.007.232.018.439.112.824.6 1.74.595 2.64.435-.128.294-.162.355-.34.787-.37.9-.77 1.938-.92 2.66-.151.743-.198 1.564-.335 2.258-.137.69-.357 1.197-.72 1.444-.023.004-.285.129-.57.23-.324.116-.738.25-1.157.375s-.847.24-1.19.316-.67.088-.603.098c-.317-.048-.561-.23-.782-.545-.22-.314-.386-.752-.482-1.183-.044-.198-.028-.335-.045-.516.188.128.365.269.582.355.668.266 1.511.321 2.192-.162a6.8 6.8 0 0 0 1.35-1.299c.38-.48.676-.958.782-1.449.19-.882-.17-1.841-.515-2.652-.263-.619-.433-.898-.553-1.11.046-.038.097-.122.14-.136a.4.4 0 0 1 .087-.018m-3.15.797a1.258 2.479 0 0 1 1.259 2.479 1.258 2.479 0 0 1-1.26 2.478 1.258 2.479 0 0 1-1.258-2.478 1.258 2.479 0 0 1 1.258-2.479m2.198 8.541c-.11.464-.19.887-.414 1.264-.14.236-.371.447-.664.555-.292.106-.626.127-1.039.095l-.54-.04.16-.518c.163-.532.38-.65.618-.983q.109.011.21.006h.01l.011-.002a2 2 0 0 0 .201-.021c.022-.004.049-.012.07-.016a17 17 0 0 0 1.346-.332zm-6.09 7.877.557.588c-.469.444-.841.725-.978.893-.069.084-.076.114-.078.148s.007.11.085.256l-.714.38c-.123-.227-.195-.456-.178-.693s.127-.444.26-.605c.264-.323.617-.56 1.047-.967m8.952 6.893a9 9 0 0 1-.578.552c-2.03 1.548-2.466 3.086-2.752 5.516l-.022.191.17.094c4.867 2.701 8.535 3.438 11.557 3.1 3.021-.338 5.37-1.743 7.603-3.237l.156-.105-.033-.186a32 32 0 0 0-.767-3.447l-.002-.004v-.004a34 34 0 0 1-.475-1.771c-.7.51-1.457.91-2.252 1.213.199.957.458 1.852.817 2.648l-1.16.524c-.39-.867-.675-1.806-.893-2.787a12.7 12.7 0 0 1-4.022.31c-2.666-.208-5.29-1.151-7.347-2.607" color="#000" enable-background="accumulate" filter="url(#0NK_svg__f)" opacity=".99" overflow="visible" style="line-height:normal;font-variant-ligatures:normal;font-variant-position:normal;font-variant-caps:normal;font-variant-numeric:normal;font-variant-alternates:normal;font-variant-east-asian:normal;font-feature-settings:normal;font-variation-settings:normal;text-indent:0;text-align:start;text-decoration-line:none;text-decoration-style:solid;text-decoration-color:#000;text-transform:none;text-orientation:mixed;white-space:normal;shape-padding:0;shape-margin:0;inline-size:0;isolation:auto;mix-blend-mode:normal;solid-color:#000;solid-opacity:1"/>
</svg>
