<svg xmlns="http://www.w3.org/2000/svg" xmlns:xlink="http://www.w3.org/1999/xlink" viewBox="0 0 60 60">
    <defs>
        <linearGradient id="0NY_svg__a">
            <stop offset="0" stop-color="#dfb459"/>
            <stop offset=".093" stop-color="#dead54"/>
            <stop offset=".093" stop-color="#e1b85f"/>
            <stop offset=".165" stop-color="#dba84d"/>
            <stop offset=".305" stop-color="#dfb765"/>
            <stop offset=".539" stop-color="#d8a94e"/>
            <stop offset=".586" stop-color="#d5ab53"/>
            <stop offset=".84" stop-color="#e0bf6e"/>
            <stop offset=".924" stop-color="#daae52"/>
            <stop offset=".962" stop-color="#d9af57"/>
            <stop offset="1" stop-color="#e1b663"/>
        </linearGradient>
        <linearGradient xlink:href="#0NY_svg__a" id="0NY_svg__c" x1="287.356" x2="301.335" y1="53.513" y2="53.513" gradientUnits="userSpaceOnUse" spreadMethod="repeat"/>
        <linearGradient xlink:href="#0NY_svg__b" id="0NY_svg__e" x1="287.356" x2="301.335" y1="53.513" y2="53.513" gradientUnits="userSpaceOnUse" spreadMethod="repeat"/>
        <linearGradient id="0NY_svg__b">
            <stop offset="0" stop-color="#e5c37b"/>
            <stop offset=".042" stop-color="#e4bd76"/>
            <stop offset=".093" stop-color="#e7c781"/>
            <stop offset=".165" stop-color="#e2b86e"/>
            <stop offset=".305" stop-color="#e6c686"/>
            <stop offset=".539" stop-color="#dfb96f"/>
            <stop offset=".586" stop-color="#ddbb73"/>
            <stop offset=".84" stop-color="#e7ce8f"/>
            <stop offset=".924" stop-color="#e1bd73"/>
            <stop offset=".962" stop-color="#e0bf78"/>
            <stop offset="1" stop-color="#e7c685"/>
        </linearGradient>
        <filter id="0NY_svg__d" width="1.286" height="1.235" x="-.118" y="-.097">
            <feGaussianBlur in="SourceAlpha" result="blur" stdDeviation="2"/>
            <feOffset dx="2" dy="2" result="offsetBlur"/>
            <feBlend in="SourceGraphic" in2="offsetBlur"/>
        </filter>
        <filter id="0NY_svg__f" width="1.054" height="1.054" x="-.027" y="-.027" color-interpolation-filters="sRGB">
            <feColorMatrix in="SourceGraphic" result="color" values="1 0 0 0 0 0 1 0 0 0 0 0 1 0 0 0 0 0 0.85 0"/>
            <feGaussianBlur in="SourceAlpha" result="blur" stdDeviation=".32"/>
            <feSpecularLighting in="blur" lighting-color="#fff" result="specular" specularConstant="2.019" specularExponent="25" surfaceScale="5">
                <feDistantLight azimuth="245" elevation="25"/>
            </feSpecularLighting>
            <feComposite in="specular" in2="SourceGraphic" k2="1" k3="1" operator="arithmetic" result="composite1"/>
            <feComposite in="composite1" in2="color" operator="atop" result="composite2"/>
        </filter>
    </defs>
    <g fill="url(#0NY_svg__c)" filter="url(#0NY_svg__d)" transform="translate(39.64 2.874)scale(.91071)">
        <path fill="#826015" d="M-10.368 7.618c-4.319 1-8.69 2.09-12.837 3.61l-7.052 44.45H9.678l-6.79-44.163-.594-1.383.197 1.265c-4.285-1.259-8.575-2.522-12.859-3.779"/>
        <path fill="url(#0NY_svg__e)" d="M-10.96 6.237c-4.319 1-8.69 2.088-12.838 3.608l-7.051 44.45H9.085l-6.79-44.162c-4.418-1.298-8.839-2.6-13.255-3.896"/>
    </g>
    <path fill="#654b13" d="m11.546 52.322.54 1.258h36.368l-.54-1.258z"/>
    <path fill="#c80000" d="m30 18.497-.111.135-.866 1.046-.12 4.077.44.205v.76a8.04 8.04 0 0 0-4.165 1.576l-.838-.838.156-.475-2.973-2.805-1.54-.11.17 1.526 2.796 2.987.479-.174.767.768a8.04 8.04 0 0 0-2.19 4.869h-.85l-.227-.452-4.088.12-1.168 1.011 1.201.96 4.09.132.21-.453h.833a8.04 8.04 0 0 0 7.338 7.328v.6l-.442.203.121 4.076.977 1.184.977-1.184.119-4.076-.436-.197v-.604a8.04 8.04 0 0 0 7.354-7.33h.812l.211.453 4.09-.133 1.201-.959-1.168-1.011-4.088-.12-.226.452h-.832a8.04 8.04 0 0 0-2.17-4.852l.785-.785.473.156 2.804-2.974.112-1.54-1.528.17-2.984 2.797.174.477-.817.816a8.04 8.04 0 0 0-4.203-1.592v-.763l.436-.197-.12-4.079zm-.656 7.98v2.028a4.2 4.2 0 0 0-1.438.517l-1.465-1.463a6.3 6.3 0 0 1 2.903-1.082m1.316 0a6.3 6.3 0 0 1 2.938 1.1l-1.467 1.467a4.2 4.2 0 0 0-1.47-.537zm-5.215 1.948 1.436 1.435a4.2 4.2 0 0 0-1.026 2.184h-2.09a6.3 6.3 0 0 1 1.68-3.62m9.145.021a6.3 6.3 0 0 1 1.662 3.598h-2.107a4.2 4.2 0 0 0-1-2.155zM30 29.952a2.687 2.687 0 0 1 2.687 2.687A2.687 2.687 0 0 1 30 35.327a2.687 2.687 0 0 1-2.688-2.688A2.687 2.687 0 0 1 30 29.952m-6.236 3.41h2.113c.09.504.272.98.527 1.406l-1.525 1.526a6.3 6.3 0 0 1-1.115-2.932m10.359 0h2.113a6.3 6.3 0 0 1-1.093 2.898l-1.526-1.525c.245-.418.419-.882.506-1.373m-1.344 2.396 1.512 1.512a6.3 6.3 0 0 1-3.63 1.66v-2.158a4.2 4.2 0 0 0 2.118-1.014m-5.529.026c.581.51 1.302.863 2.094.99v2.156a6.3 6.3 0 0 1-3.608-1.632z" color="#000" filter="url(#0NY_svg__f)" style="-inkscape-stroke:none"/>
</svg>
