<svg xmlns="http://www.w3.org/2000/svg" xmlns:xlink="http://www.w3.org/1999/xlink" viewBox="0 0 60 60">
    <defs>
        <linearGradient xlink:href="#0RY_svg__a" id="0RY_svg__c" x1="-30.849" x2="-15.094" y1="30.267" y2="30.267" gradientTransform="translate(40.882 -.267)" gradientUnits="userSpaceOnUse" spreadMethod="repeat"/>
        <linearGradient id="0RY_svg__a">
            <stop offset="0" stop-color="#e5c37b"/>
            <stop offset=".042" stop-color="#e4bd76"/>
            <stop offset=".093" stop-color="#e7c781"/>
            <stop offset=".165" stop-color="#e2b86e"/>
            <stop offset=".305" stop-color="#e6c686"/>
            <stop offset=".539" stop-color="#dfb96f"/>
            <stop offset=".586" stop-color="#ddbb73"/>
            <stop offset=".84" stop-color="#e7ce8f"/>
            <stop offset=".924" stop-color="#e1bd73"/>
            <stop offset=".962" stop-color="#e0bf78"/>
            <stop offset="1" stop-color="#e7c685"/>
        </linearGradient>
        <filter id="0RY_svg__b" width="1.289" height="1.241" x="-.119" y="-.1">
            <feGaussianBlur in="SourceAlpha" result="blur" stdDeviation="2"/>
            <feOffset dx="2" dy="2" result="offsetBlur"/>
            <feBlend in="SourceGraphic" in2="offsetBlur"/>
        </filter>
        <filter id="0RY_svg__d" width="1.05" height="1.036" x="-.025" y="-.018" color-interpolation-filters="sRGB">
            <feColorMatrix in="SourceGraphic" result="color" values="1 0 0 0 0 0 1 0 0 0 0 0 1 0 0 0 0 0 0.85 0"/>
            <feGaussianBlur in="SourceAlpha" result="blur" stdDeviation=".32"/>
            <feSpecularLighting in="blur" lighting-color="#fff" result="specular" specularConstant="2.019" specularExponent="25" surfaceScale="5">
                <feDistantLight azimuth="245" elevation="25"/>
            </feSpecularLighting>
            <feComposite in="specular" in2="SourceGraphic" k2="1" k3="1" operator="arithmetic" result="composite1"/>
            <feComposite in="composite1" in2="color" operator="atop" result="composite2"/>
        </filter>
    </defs>
    <g fill="#75581b" filter="url(#0RY_svg__b)" transform="translate(41.197 .902)">
        <path fill="#84631f" d="m-10.96 6.237-12.84 3.61-6.865 43.278-.419.025.234 1.145H9.084L1.999 9.082l-.333-.119.203 1.045Z"/>
    </g>
    <path fill="url(#0RY_svg__c)" d="M29.922 5.97 17.084 9.578l-7.051 44.45h39.934l-6.79-44.163Z"/>
    <path fill="#654b13" d="m10.044 54.007.303 1.19h39.934l-.316-1.135z"/>
    <path fill="#c80000" d="M24.687 9.645c.084.79 1.855 5.315-.383 4.78-.027-.007-.049-.008-.074-.014-.703-.508-.962-1.726-.995-1.852-.044-.17-.274-.367-.574-.547-.896-.534-2.562-.637-1.418.512.933 1.212 1.776 2.071 2.158 3.063l.008-.004c.167.87.604 2.146.83 2.97l.334 1.44c.12.411.346 1.11.664 1.722.162.312.348.6.53.803.18.199.336.301.486.342a.9.9 0 0 0 .19-.363c.1-.332.15-.84.17-1.348.019-.508.01-1.021.001-1.389a18 18 0 0 1-.004-.427c-.813-1.095-1.12-2.044-1.52-3.297.042-.17.41-.158.651-.235 3.445-1.103.601-5.023-.629-5.941l.002-.004a1.6 1.6 0 0 0-.23-.142.6.6 0 0 0-.197-.069m10.628 0a.6.6 0 0 0-.197.068q-.121.063-.23.143l.002.004c-1.23.918-4.074 4.838-.63 5.941.19.061.485.452.6.391-.375 1.174-.69 2.094-1.468 3.14q.002.155-.004.428c-.008.368-.018.88.002 1.389.02.508.07 1.016.17 1.348a.9.9 0 0 0 .19.363c.15-.041.305-.143.485-.342.182-.202.368-.491.53-.803.318-.612.545-1.31.664-1.722l.334-1.44c.227-.824.664-2.1.83-2.97l.008.004c.382-.992 1.225-1.85 2.158-3.063 1.145-1.149-.522-1.046-1.418-.512-.3.18-.53.377-.574.547-.033.126-.292 1.344-.994 1.852-.026.006-.048.007-.075.013-2.238.536-.467-3.99-.382-4.779M30.001 19.6l-2.38.574c.003.309.006.648-.009 1.014-.02.54-.06 1.065-.209 1.57a1.9 1.9 0 0 1-.39.752l-.412.48-.612-.165c-.39-.107-.704-.353-.96-.635l-.005-.002-.002-.004a4.8 4.8 0 0 1-.673-1.008 9 9 0 0 1-.475-1.1l-.166.042v.002c-.494 1.309-.315 3.725-.096 5.427l.04.315-.294.12c-.379.154-.866.346-1.261.558-.394.21-.64.475-.653.52l-.486 1.773c-.057.212-.04.324-.02.386.023.062.058.099.137.149.127.082.363.14.604.207.393-.004.834-.025 1.295.017.565.053 1.17.22 1.607.711l.043.051.027.063c.171.402.277.836.38 1.254h-.667c-.314-.01-3.7-.076-5.728 2.591-.766 1.008-1.5 1.753-2.342 2.137-.367.168-.53.317-.838.357-.19.025-.527-.096-.809-.173l.264.685c.917.314 1.66.16 2.37-.303.737-.48 1.42-1.284 2.083-2.148.864-1.136 2.256-1.662 3.418-1.918.987-.218 1.571-.202 1.801-.203l.74-.03q.073.17.153.292c.07.117.178.208.306.255a32 32 0 0 1 4.184-.646l.033-.004.035.004c1.09.09 2.665.305 4.182.646a.6.6 0 0 0 .306-.255q.089-.139.153-.29l.738.028c.23 0 .818-.015 1.805.203 1.162.256 2.554.782 3.418 1.918.663.864 1.345 1.67 2.082 2.148.71.462 1.454.617 2.37.303l.265-.685c-.282.077-.62.198-.81.173-.305-.04-.47-.19-.837-.357-.842-.384-1.576-1.129-2.342-2.137-2.029-2.667-5.414-2.6-5.728-2.591h-.668c.1-.418.207-.851.379-1.254l.027-.063.045-.05c.44-.497 1.063-.678 1.658-.753.55-.07 1.09-.054 1.53-.06q.166-.041.318-.121c.08-.05.113-.09.135-.15.022-.064.036-.175-.022-.387l-.482-1.774c-.011-.043-.26-.31-.655-.521-.394-.21-.882-.401-1.261-.555l-.293-.121.039-.315c.218-1.702.397-4.12-.098-5.43l-.162-.038a9 9 0 0 1-.473 1.097 4.8 4.8 0 0 1-.673 1.008l-.002.004-.004.002c-.257.282-.57.528-.961.635l-.612.166-.412-.48a1.9 1.9 0 0 1-.39-.753c-.149-.505-.188-1.03-.21-1.57a19 19 0 0 1-.007-1.014zM19.872 21c-.714 1.578-1.015 2.434 1 4.761-1.33-.318-2.773-2.99-3.38-3.539-1.042 2.636.262 3.793 1.874 4.633-1.572.336-2.51-.418-4.086-.896.878 1.605 1.962 4.058 4.62 2.916-.988 1.356-2.706 1.981-4.176 2.853 1.51.286 3.086 1.036 4.375-.289-.67 1.222-1.76 2.267-2.828 3.317q.655-.088 1.302-.225c.684-.756 1.476-1.26 2.26-1.615.008-.418.122-.853.236-1.235.068-.228.086-.263.139-.41-.194-.05-.353-.062-.576-.203a1.15 1.15 0 0 1-.469-.568c-.093-.257-.09-.556-.002-.881l.486-1.776c.144-.529.601-.785 1.059-1.03.363-.195.729-.335 1.06-.47q-.08-.604-.138-1.21zm20.256 0-2.762 4.136q-.056.605-.135 1.207c.332.135.695.275 1.057.47.46.245.919.501 1.063 1.03l.482 1.776c.09.325.094.624 0 .88a1.15 1.15 0 0 1-.467.569c-.223.141-.384.154-.578.203.053.147.075.182.143.41.114.382.224.817.232 1.235.785.356 1.58.859 2.264 1.615q.639.137 1.304.225c-1.07-1.05-2.16-2.095-2.83-3.317 1.29 1.325 2.866.575 4.377.29-1.47-.873-3.191-1.498-4.177-2.854 2.657 1.142 3.74-1.31 4.619-2.916-1.578.478-2.512 1.231-4.084.896 1.612-.84 2.915-1.997 1.873-4.633-.607.548-2.053 3.22-3.381 3.54 2.014-2.329 1.713-3.184 1-4.762m-5.826 3.824q.082.002.162.017c.353.06.682.284.973.764.77 1.577-.452 2.34-1.71 2.791-1.34.217-2.097-.16-2.634-1.04 2.097-1.51 2.37-2.427 3.049-2.524a1 1 0 0 1 .16-.008m-8.444.008c.68.097.952 1.014 3.05 2.523-.538.882-1.297 1.258-2.637 1.041-1.257-.452-2.48-1.213-1.71-2.79.29-.48.62-.705.973-.765.12-.02.32.087.324-.007zm2.13 6.218c.66.145.95 1.093 1.406 1.678l-.838-.62-1.041-.112c.069-.45-.368-.81.472-.946m4.023 0c.84.136.404.495.474.946l-1.04.113-.839.62c.457-.586.745-1.534 1.405-1.679m5.927.278q-.38 0-.757.043c-.48.06-.856.207-1.102.46-.035.09-.062.203-.092.307a9 9 0 0 1 2.293.434 5 5 0 0 0-.14-.656c-.098-.328-.163-.487-.202-.588m-15.472.066a8 8 0 0 0-.43.004c-.047.124-.09.23-.176.518-.068.226-.095.44-.127.652a9 9 0 0 1 2.28-.43c-.03-.103-.058-.216-.092-.304-.246-.255-.58-.378-1.024-.42a8 8 0 0 0-.431-.02m12.857 2.795c-.038.076-.068.156-.115.227a1.5 1.5 0 0 1-.785.619c.038 3.946-.025 3.54-1.014 7.267l-.04.155-.136.086c-.89.572-2.051.853-3.218.853s-2.343-.284-3.244-.924l-.122-.086-.037-.144c-.987-3.745-1.104-3.332-1.017-7.201l-.012-.002a1.5 1.5 0 0 1-.797-.625c-.046-.07-.073-.149-.111-.223-.6.011-1.197.085-1.781.219q-.34.078-.672.187c.113.194.222.39.36.565-.008-.01.29.198.554.312.263.114.5.192.5.192l.238.08.04.25c.553 3.646 1.3 4.985 2.22 7.71q.166.251.388.456l.575 7.69.812-5.778 1.088 5.129 1.006-5.024 1 5.014 1.096-5.205.812 5.9.569-7.73c.145-.138.278-.285.384-.451.92-2.725 1.665-4.063 2.219-7.71l.041-.25.238-.08s.24-.079.502-.193c.263-.114.56-.321.551-.312.137-.176.248-.373.361-.567a8.7 8.7 0 0 0-2.453-.406m-5.326.205a32 32 0 0 0-3.478.5l.586 3.135.81-1.57 1.09 1.203 1.006-1.143 1 1.137 1.095-1.246.813 1.64.578-3.15a32 32 0 0 0-3.5-.506m.014 5.278-1 .962-.947-.912-.426 2.26a5 5 0 0 0 2.377.59c.863 0 1.696-.215 2.367-.55l-.432-2.292-.94.904z" filter="url(#0RY_svg__d)"/>
</svg>
