<svg xmlns="http://www.w3.org/2000/svg" xmlns:xlink="http://www.w3.org/1999/xlink" viewBox="0 0 60 60">
    <defs>
        <linearGradient id="0TO_svg__a">
            <stop offset="0" stop-color="#dfb459"/>
            <stop offset=".076" stop-color="#dead54"/>
            <stop offset=".123" stop-color="#e1b85f"/>
            <stop offset=".212" stop-color="#dba84d"/>
            <stop offset=".305" stop-color="#dfb765"/>
            <stop offset=".539" stop-color="#d8a94e"/>
            <stop offset=".586" stop-color="#d5ab53"/>
            <stop offset=".84" stop-color="#e0bf6e"/>
            <stop offset=".924" stop-color="#daae52"/>
            <stop offset=".962" stop-color="#d9af57"/>
            <stop offset="1" stop-color="#e1b663"/>
        </linearGradient>
        <linearGradient xlink:href="#0TO_svg__a" id="0TO_svg__c" x1="-29.351" x2="-11.018" y1="30.267" y2="30.267" gradientUnits="userSpaceOnUse" spreadMethod="repeat"/>
        <linearGradient xlink:href="#0TO_svg__b" id="0TO_svg__e" x1="-29.351" x2="-11.018" y1="30.267" y2="30.267" gradientUnits="userSpaceOnUse" spreadMethod="repeat"/>
        <linearGradient id="0TO_svg__b">
            <stop offset="0" stop-color="#e5c37b"/>
            <stop offset=".042" stop-color="#e4bd76"/>
            <stop offset=".093" stop-color="#e7c781"/>
            <stop offset=".165" stop-color="#e2b86e"/>
            <stop offset=".305" stop-color="#e6c686"/>
            <stop offset=".539" stop-color="#dfb96f"/>
            <stop offset=".586" stop-color="#ddbb73"/>
            <stop offset=".84" stop-color="#e7ce8f"/>
            <stop offset=".924" stop-color="#e1bd73"/>
            <stop offset=".962" stop-color="#e0bf78"/>
            <stop offset="1" stop-color="#e7c685"/>
        </linearGradient>
        <filter id="0TO_svg__d" width="1.286" height="1.235" x="-.118" y="-.097">
            <feGaussianBlur in="SourceAlpha" result="blur" stdDeviation="2"/>
            <feOffset dx="2" dy="2" result="offsetBlur"/>
            <feBlend in="SourceGraphic" in2="offsetBlur"/>
        </filter>
        <filter id="0TO_svg__f" width="1.076" height="1.051" x="-.038" y="-.026" color-interpolation-filters="sRGB">
            <feColorMatrix in="SourceGraphic" result="color" values="1 0 0 0 0 0 1 0 0 0 0 0 1 0 0 0 0 0 0.85 0"/>
            <feGaussianBlur in="SourceAlpha" result="blur" stdDeviation=".32"/>
            <feSpecularLighting in="blur" lighting-color="#fff" result="specular" specularConstant="2.019" specularExponent="25" surfaceScale="5">
                <feDistantLight azimuth="245" elevation="25"/>
            </feSpecularLighting>
            <feComposite in="specular" in2="SourceGraphic" k2="1" k3="1" operator="arithmetic" result="composite1"/>
            <feComposite in="composite1" in2="color" operator="atop" result="composite2"/>
        </filter>
    </defs>
    <g fill="url(#0TO_svg__c)" filter="url(#0TO_svg__d)" transform="translate(38.888 4.483)scale(.84306)">
        <path fill="#815e0c" d="m-10.282 7.519-12.837 3.607-7.052 44.45H9.764l-6.79-44.163-.679-1.28.19 1.137c-4.255-1.25-8.514-2.504-12.767-3.751"/>
        <path fill="url(#0TO_svg__e)" d="m-10.96 6.237-12.838 3.608-7.051 44.451H9.085l-6.79-44.163c-4.418-1.298-8.839-2.6-13.255-3.896"/>
    </g>
    <path fill="#654b13" d="m12.88 50.258.571 1.08H47.12l-.571-1.08z"/>
    <path fill="#c80000" d="M22.514 15.682a.65.65 0 0 0-.332.082l-.622.319.479.564c1.388 1.64 1.665 3.108 1.729 4.432.031.662-.001 1.285.013 1.873.014.572.07 1.14.348 1.633q.002.007.006.013l.015.028c.443.892.98 1.555 1.588 2.033-.47.374-.984.78-1.658 1.338a.31.31 0 0 0 .074.521c1.233.538 2.557.9 3.922 1.076-.043 1.732-.168 3.314-.654 4.74-.61 1.792-1.768 3.369-4.108 4.794l-.007.003c-1.13.732-1.91 1.337-2.448 2.108-.536.77-.805 1.683-.947 2.973a.31.31 0 0 0 .229.333c2.933.787 6.396 1.161 9.857 1.145 3.462.016 6.927-.358 9.861-1.145a.31.31 0 0 0 .229-.333c-.142-1.29-.413-2.203-.95-2.973s-1.316-1.376-2.445-2.108l-.007-.003c-2.34-1.425-3.5-3.002-4.11-4.793-.486-1.428-.61-3.012-.652-4.745a15 15 0 0 0 3.92-1.07.31.31 0 0 0 .076-.523 80 80 0 0 0-1.664-1.336c.61-.478 1.146-1.142 1.59-2.035l.021-.041c.278-.493.334-1.061.348-1.633.014-.588-.016-1.211.015-1.873.064-1.324.34-2.792 1.729-4.432l.479-.564-.622-.319c-.344-.176-.617-.033-.859.094s-.48.3-.723.47c-.437.31-.896.566-1.117.614-.597-.345-1.208-.302-1.666-.045a2.18 2.18 0 0 0-.992 1.232l-.334 1.03.895-.317c.068-.024.105-.02.193.043s.206.203.312.416c.213.427.366 1.122.336 1.844s-.231 1.466-.675 2.07a3 3 0 0 1-.46.495q.144-.415.145-.877c0-1.548-1.3-2.795-2.873-2.795-1.572 0-2.873 1.247-2.873 2.795 0 .307.054.602.148.879a3 3 0 0 1-.462-.497c-.444-.604-.646-1.348-.676-2.07s.123-1.417.336-1.844c.106-.213.226-.353.314-.416.088-.062.124-.067.192-.043l.894.317-.332-1.03a2.18 2.18 0 0 0-.994-1.232c-.457-.257-1.069-.3-1.666.045-.22-.048-.678-.305-1.115-.613-.242-.171-.481-.344-.723-.471-.159-.083-.33-.173-.527-.176m1.33 1.961c.337.221.699.408 1.113.406h.125l.107-.076c.41-.286.7-.242.961-.095.047.026.09.064.133.1-.251.187-.448.456-.605.773-.327.655-.5 1.524-.461 2.449s.3 1.912.898 2.726c.596.812 1.52 1.427 2.791 1.645.357.11.738.13 1.082.14h.022c.345-.01.725-.033 1.082-.142 1.27-.218 2.193-.831 2.789-1.643.598-.814.862-1.801.9-2.726s-.136-1.794-.463-2.45c-.157-.316-.354-.585-.605-.773.043-.035.088-.073.135-.1.26-.146.549-.19.959.096l.107.076h.125c.414.002.778-.185 1.115-.406-.595 1.214-.794 2.378-.842 3.375-.035.737-.004 1.388-.017 1.903-.013.514-.072.862-.201 1.08l-.012.02-.012.02c-.552 1.13-1.189 1.752-1.984 2.13s-1.77.493-2.945.488q-.057 0-.116-.004l-.027-.002-.025.002q-.06.004-.118.004c-1.174.005-2.15-.11-2.945-.489-.795-.377-1.432-.999-1.984-2.128l-.01-.022-.012-.02c-.129-.217-.19-.565-.203-1.08-.013-.514.02-1.165-.016-1.902-.047-.997-.246-2.161-.841-3.375m6.154 3.395c1.05 0 1.873.806 1.873 1.795 0 .896-.676 1.643-1.584 1.775l-.039.004q-.125.008-.25.012a7 7 0 0 1-.248-.012l-.04-.004c-.907-.132-1.585-.88-1.585-1.775 0-.99.824-1.795 1.873-1.795" color="#000" filter="url(#0TO_svg__f)" style="-inkscape-stroke:none"/>
</svg>
