<svg xmlns="http://www.w3.org/2000/svg" xmlns:xlink="http://www.w3.org/1999/xlink" viewBox="0 0 60 60">
    <defs>
        <linearGradient xlink:href="#0UM_svg__a" id="0UM_svg__c" x1="-30.849" x2="-15.094" y1="30.267" y2="30.267" gradientTransform="translate(40.882 -.267)" gradientUnits="userSpaceOnUse" spreadMethod="repeat"/>
        <linearGradient id="0UM_svg__a">
            <stop offset="0" stop-color="#e5c37b"/>
            <stop offset=".042" stop-color="#e4bd76"/>
            <stop offset=".093" stop-color="#e7c781"/>
            <stop offset=".165" stop-color="#e2b86e"/>
            <stop offset=".305" stop-color="#e6c686"/>
            <stop offset=".539" stop-color="#dfb96f"/>
            <stop offset=".586" stop-color="#ddbb73"/>
            <stop offset=".84" stop-color="#e7ce8f"/>
            <stop offset=".924" stop-color="#e1bd73"/>
            <stop offset=".962" stop-color="#e0bf78"/>
            <stop offset="1" stop-color="#e7c685"/>
        </linearGradient>
        <filter id="0UM_svg__b" width="1.289" height="1.241" x="-.119" y="-.1">
            <feGaussianBlur in="SourceAlpha" result="blur" stdDeviation="2"/>
            <feOffset dx="2" dy="2" result="offsetBlur"/>
            <feBlend in="SourceGraphic" in2="offsetBlur"/>
        </filter>
        <filter id="0UM_svg__d" width="1.046" height="1.035" x="-.023" y="-.018" color-interpolation-filters="sRGB">
            <feColorMatrix in="SourceGraphic" result="color" values="1 0 0 0 0 0 1 0 0 0 0 0 1 0 0 0 0 0 0.85 0"/>
            <feGaussianBlur in="SourceAlpha" result="blur" stdDeviation=".32"/>
            <feSpecularLighting in="blur" lighting-color="#fff" result="specular" specularConstant="2.019" specularExponent="25" surfaceScale="5">
                <feDistantLight azimuth="245" elevation="25"/>
            </feSpecularLighting>
            <feComposite in="specular" in2="SourceGraphic" k2="1" k3="1" operator="arithmetic" result="composite1"/>
            <feComposite in="composite1" in2="color" operator="atop" result="composite2"/>
        </filter>
    </defs>
    <g fill="#75581b" filter="url(#0UM_svg__b)" transform="translate(41.197 .902)">
        <path fill="#84631f" d="m-10.96 6.237-12.84 3.61-6.865 43.278-.419.025.234 1.145H9.084L1.999 9.082l-.333-.119.203 1.045Z"/>
    </g>
    <path fill="url(#0UM_svg__c)" d="M29.922 5.97 17.084 9.578l-7.051 44.45h39.934l-6.79-44.163Z"/>
    <path fill="#654b13" d="m10.044 54.007.303 1.19h39.934l-.316-1.135z"/>
    <path fill="#c80000" d="M26.307 8.968a1.4 1.4 0 0 0-.456.082c-.072.026-.253.075-.447.146-.194.072-.417.162-.616.371a.96.96 0 0 0-.175.947c.13.325.384.587.785.897l.05.036.055.025c.98.424 1.201.81 1.343 1.294.076 1.312.468 1.89 1.268 2.786.291.265.642.513 1.184.909l.154.11c-1.352-.688-2.26-1.235-3.058-2.022-.103-.085-.146-.32-.15-.33-.428-.959-.518-1.369-1.116-2.27-.35-.53-.882-.997-1.448-1.327a3.4 3.4 0 0 0-.876-.384 1.53 1.53 0 0 0-.91.03c-.134.048-.602.076-.95.504-.176.214-.246.57-.155.874.09.304.284.587.595.924l.07.076.095.042c.981.424 1.202.81 1.344 1.294.167.57.144 1.51.553 2.05.807.901 1.359 1.113 2.714 1.797 1.356.682 2.393 1.58 3.27 1.99.096.082.17.142.262.219a7 7 0 0 0-.884-.291c-1.814-.527-3.068-.28-3.13-.266L24.476 20c1.759 1.14 3.389 2.328 4.296 3.79-.63-.442-1.293-.942-1.912-1.257-.847-.43-1.474-.67-1.86-.71-.1-.011-.22-.01-.343-.003-.368.025-.764.12-.766.208 0 .027.184.155.409.285.472.273 1.132.773 1.868 1.412.284.246.606.524.718.618s.207.188.21.209c.008.065-.565-.167-1.18-.476-1.2-.601-2.066-.797-3.021-.68-.786.096-1.365.411-1.813.985-.358.457-.346.537.05.307 1.093-.637 2.476-.49 3.014.322.392.592.186 1.412-.462 1.845-.436.291-1.2.431-2.612.48-1.476.05-2.97.467-3.898 1.088-.495.331-1.214 1.047-1.123 1.118.016.013.202-.074.412-.192 1.252-.705 2.498-.966 3.819-.795.4.052 1.073.239 1.035.287-.011.015-.275.09-.585.168-1 .247-1.703.618-2.35 1.243-.588.57-.987 1.262-1.419 2.463-.265.738-.566 1.832-.515 1.872.017.013.365-.415.774-.952.928-1.22 1.241-1.519 1.995-1.899.248-.125.416-.174.728-.213.224-.028.39-.029.367-.004-.022.026-.188.113-.369.194-.71.318-.966.642-1.77 2.25-.819 1.643-1.097 1.965-1.772 2.05-.524.065-1.175-.203-1.502-.618-.105-.134-.206-.243-.224-.242-.056.005-.025.614.043.88.157.611.439 1.062.871 1.391.831.633 2.152.612 3.016-.049.47-.359.062.286-.635 1.004-.583.601-.633.66-.826.969-.363.58-.388.91-.168 2.332.218 1.405.188 1.719-.209 2.186-.22.26-.459.433-.764.55-.118.047-.214.104-.21.128.01.083.478.267.796.312.577.082 1.256-.146 1.777-.595.143-.124.278-.22.3-.215.07.016-.148.678-.334 1.023-.27.497-.646.914-1.076 1.191-.206.133-.429.249-.496.257-.235.029-.232.135.011.367.442.422.969.86 1.562 1.262-1.801.696-3.385 1.45-3.936 4.474.663-.432 2.44-1.328 3.1-1.6 3.348-1.824 5.292-1.147 8.872-1.247 1.538-.06 5.36-.631 6.618-.861 1.302-.238 1.39-.483 3.45-.985.011-3.342-7.856-5.468-6.474-12.126a2.3 2.3 0 0 0-.013-.36 20 20 0 0 0-3.307-.107c-.323.02-.607.05-.821.089s-.367.103-.352.093l-1.055.679.324-1.213c.35-1.32 1.029-2.044 1.798-2.41.44-.21.866-.287 1.301-.392-.417-.3-.776-.616-1.319-.851-.855-.37-1.765-.611-2.278-.64l-.827-.048.445-.7c.504-.794 1.33-1.116 2.111-1.25.461-.08.85-.094 1.274-.12-.176-.207-.281-.378-.489-.587-.431-.435-.863-.825-1.106-1.076l-.401-.412.475-.327c.61-.419 1.311-.637 2.02-.722a7.3 7.3 0 0 1 2.084.077 7.2 7.2 0 0 1 1.706.508c.233.106.434.218.605.344s.323.252.418.49l-1.426.052a6.3 6.3 0 0 0-1.47-.436 5.2 5.2 0 0 0-2.772.278c.196.187.326.308.555.54.454.457.912.946 1.179 1.44l.332.616-.692.097c-.71.1-1.478.085-2.13.198-.308.053-.453.269-.686.384.489.126.934.174 1.457.4.937.406 1.845.933 2.426 1.593l.479.546-.687.236c-.845.29-1.61.374-2.168.64-.372.177-.662.504-.916.973.178-.02.341-.048.545-.06a20 20 0 0 1 2.328.009c.8.047 1.563.132 2.15.27.293.069.54.143.76.272q.064.036.126.083c.302.153.64.459.844.894 1.454 2.144 1.049 4.74 4.014 7.661l1.381.084c.274-.078 1.149-.475 1.403-.797.037 1.565.654 3.368 2.176 4.92.221.224.27.37.287.522.019.151-.012.329-.053.56-.038.22-.359.646-.745 1.088-.386.441-.855.904-.9 1.59l1.634-.95c.38-.436.853-.894.969-1.56.036-.205.103-.495.06-.844-.041-.35-.212-.74-.556-1.09-1.536-1.564-1.996-3.366-1.885-4.787q.005-.08.017-.16a.59.59 0 0 0 .53.065c.374-.134.39-.194.842-.395.451-.202.942-.49 1.26-1.029a1 1 0 0 0 .059-.231c.002-.013.031-.091.289-.29a7 7 0 0 1 1.019-.598c.116.062.2.144.27.245.152.223.241.617.237 1.135-.008 1.035-.362 2.469-.526 3.748-.098.76-.058 1.322.11 1.775s.465.761.741.996l2.283 1.456c-.403-1.304-1.203-1.814-1.654-2.197-.225-.192-.364-.34-.458-.593-.094-.254-.144-.648-.059-1.312.153-1.188.527-2.63.536-3.866.005-.618-.076-1.21-.408-1.693q-.137-.197-.327-.348a.6.6 0 0 0-.22-.574l-.738-.519c-1.454-2.117-2.368-3.024-2.541-4.628.142-.162.278-.341.41-.528.35-.496.656-1.058.869-1.562q.161-.38.241-.71c.053-.219.098-.407.023-.668-.263-.915-.884-1.868-1.471-2.644a14 14 0 0 0-.812-.983l-.099-.104a2 2 0 0 0-.154-.599 6 6 0 0 0-.332-.65c-.323-.553-.754-1.122-1.2-1.709a22 22 0 0 1-1.193-1.762 4.6 4.6 0 0 1-.365-.71 2.1 2.1 0 0 1-.148-.58l.311-2.262.113-.146c.147-.197.276-.381.376-.568s.204-.378.15-.675c-.05-.28-.165-.453-.315-.715a11.4 11.4 0 0 0-1.148-1.623 3 3 0 0 0-.291-.29c-.099-.085-.177-.172-.396-.217l-.087-.01a.73.73 0 0 0-.51.203c-.117.12-.172.239-.224.36a4.7 4.7 0 0 0-.23.794c-.063.283-.122.575-.182.817-.06.243-.138.445-.156.473l-.028.046-.017.051c-.097.277-.278.574-.506.932a22 22 0 0 1-1.713-1.11c-.71-.508-1.24-.911-1.682-1.306a8 8 0 0 1-1.142-1.256 18 18 0 0 0-.175-.394l-.004-.01c-.125-.343-.148-.643-.192-1.001-.05-.414-.135-.913-.477-1.428-.35-.529-.882-.995-1.448-1.324a3.4 3.4 0 0 0-.874-.384q-.224-.058-.453-.055Zm-.08.99c.154-.008.53.065.916.29.44.256.887.66 1.127 1.022.091.138.15.263.194.388l.004-.004.01.042c.02.06.033.127.047.188.067.27.182.713.287.964.118.28.195.548.289.794l.025-.011c.032.132.076.28.218.473a8 8 0 0 0 1.264 1.372c.467.405 1.013.802 1.743 1.325.584.42 1.147.792 1.68 1.125q-.127.206-.262.44a17 17 0 0 1-.998-.326c-.846-.619-2.146-1.617-3.02-2.254-.482-.35-.755-.565-.971-.777a4 4 0 0 1-.333-.379l-.004-.004a1.4 1.4 0 0 1-.281-.366l-.011-.016v-.001h.001c-.303-.565-.353-1.338-.382-1.78-.204-.667-.713-1.36-1.815-1.855-.267-.212-.358-.349-.391-.408.041-.026.08-.056.177-.091.135-.05.287-.089.435-.141a.2.2 0 0 1 .051-.01m-3.952 1.215c.153-.009.53.064.915.289.44.257.887.663 1.127 1.024.307.464.454.763.604 1.11.212.276.521 1.092.882 1.654 1.08 1.056 2.138 1.569 3.948 2.461 1.575.78 3.076 1.409 4.116 1.675l.054.043.325.082c.377-.84.86-1.588 1.39-2.319.158-.215.182-.376.23-.477.095-.194.114-.23.166-.442.123-.501.26-1.533.373-1.49.468.561.968 1.111 1.163 1.77 0 0-.076.16-.099.198s-1.832 2.494-1.832 2.494l-.386 1.247.002.002q.021.128.059.254c.036.196.111.385.235.552.192.358.444.704.728 1.043.5.595 1.128 1.151 1.717 1.716.467.444.897.881 1.256 1.283l-.05-.008a21 21 0 0 0-1.832-.17q-.42-.022-.832-.031c-.544-.272-.978-.73-1.355-1.004-.08-.06-.92-.984-1.036-1.032-1.336-1.599-2.551-3.06-4.33-4.14-.912-.431-1.894-1.267-3.21-1.93-.621-.312-.99-.542-1.294-.78-1.211-.594-1.432-1.637-1.416-2.23-.022-.104-.035-.2-.067-.309-.19-.648-.71-1.31-1.733-1.807-.24-.264-.342-.452-.365-.525.016.001.227-.097.496-.194a.2.2 0 0 1 .051-.01zm14.535 8.074-.046.578-.017.156c.009.311.091.623.216.93.126.309.295.614.48.917.335.553.766 1.09 1.178 1.627l-.015-.015a23 23 0 0 1-1.6-1.716c-.433-.51-.673-.948-.75-1.314l.432-.982.002-.002q.057-.09.12-.179m-.335 6.867q.411 0 .842.02c.626.034 1.24.092 1.743.164.462.066.838.158.983.211a1 1 0 0 1 .076.06c.064.06.155.152.26.267.21.23.48.55.754.912.543.719 1.1 1.626 1.302 2.304-.005.004.001.09-.024.198a4 4 0 0 1-.192.558c-.183.434-.463.95-.766 1.378-.303.43-.651.766-.84.86-.095.046-.117.034-.112.036.002 0-.036-.05-.069-.094 0-.02-.003-.031-.004-.06a13 13 0 0 1-.002-.45c.003-.372.013-.86.004-1.36a11 11 0 0 0-.104-1.444c-.035-.22-.08-.42-.154-.608s-.174-.385-.405-.523c-.469-.279-1.092-.46-1.638-.597a13 13 0 0 0-.717-.158 6 6 0 0 0-.336-.05c-.032-.004-.019-.024-.171.007h-.002c.02-.004-.33-.045-.7-.223a6.7 6.7 0 0 1-1.146-.72c-.266-.207-.409-.384-.536-.54.412-.087 1.136-.148 1.954-.148m1.433 2.78c.453.115.972.286 1.272.438l.004.002q.041.041.081.085l.002.004a2 2 0 0 1 .099.405c.057.353.083.83.091 1.308a40 40 0 0 1-.002 1.071l-.08.048a1.27 1.27 0 0 1-1.092.07c-.317-.144-.538-.364-.768-.614l-.01-.01-.008-.007c-.163-.192-.299-.346-.414-.538a1.26 1.26 0 0 1-.192-.72c.034-.452.191-.698.918-1.54.035-.003.065 0 .099-.002m-15.275 2.612 1.243.201c-1.303 1.625-1.935 3.153-2.017 4.29s.168 2.344.202 3.986c.082 3.995-.102 4.95-.87 8.32l-1.251.225c.767-3.36 1.002-4.574.921-8.524-.031-1.549-.294-2.758-.2-4.075.096-1.318.585-2.694 1.972-4.423m14.878 4.227c1.487.05 1.982 3.004 2.48 4.16.051.097.124.19.2.276-.32.563-.527 1.262-.588 2.043a6 6 0 0 0-.017.407c-.145-.026-.4-.018-.52-.118l-.069-.62-.629-.075c-.27-.315-.39-.54-.498-.82-.598-1.94-2.855-3.72-1.06-5.084a1.5 1.5 0 0 1 .7-.169m5.293 1.536a.2.2 0 0 1 .099.028c.678.4.72 1.058.994 1.585 0-.005-.072.524-.836.116-.308-.688-.096-.666-.633-1.305.078-.141.205-.42.376-.424" color="#000" enable-background="accumulate" filter="url(#0UM_svg__d)" overflow="visible" style="line-height:normal;font-variant-ligatures:normal;font-variant-position:normal;font-variant-caps:normal;font-variant-numeric:normal;font-variant-alternates:normal;font-variant-east-asian:normal;font-feature-settings:normal;font-variation-settings:normal;text-indent:0;text-align:start;text-decoration-line:none;text-decoration-style:solid;text-decoration-color:#000;text-transform:none;text-orientation:mixed;white-space:normal;shape-padding:0;shape-margin:0;inline-size:0;isolation:auto;mix-blend-mode:normal;solid-color:#000;solid-opacity:1"/>
</svg>
