<svg xmlns="http://www.w3.org/2000/svg" xmlns:xlink="http://www.w3.org/1999/xlink" viewBox="0 0 60 60">
    <defs>
        <linearGradient id="1FU_svg__a">
            <stop offset="0" stop-color="#dfb459"/>
            <stop offset=".042" stop-color="#dead54"/>
            <stop offset=".093" stop-color="#e1b85f"/>
            <stop offset=".165" stop-color="#dba84d"/>
            <stop offset=".305" stop-color="#dfb765"/>
            <stop offset=".539" stop-color="#d8a94e"/>
            <stop offset=".586" stop-color="#d5ab53"/>
            <stop offset=".84" stop-color="#e0bf6e"/>
            <stop offset=".924" stop-color="#daae52"/>
            <stop offset=".962" stop-color="#d9af57"/>
            <stop offset="1" stop-color="#e1b663"/>
        </linearGradient>
        <linearGradient xlink:href="#1FU_svg__a" id="1FU_svg__b" x1="417.476" x2="400.442" y1="176.269" y2="176.269" gradientUnits="userSpaceOnUse" spreadMethod="repeat"/>
        <linearGradient xlink:href="#1FU_svg__a" id="1FU_svg__e" x1="-57.492" x2="-36.526" y1="15.248" y2="15.248" gradientUnits="userSpaceOnUse" spreadMethod="repeat"/>
        <linearGradient xlink:href="#1FU_svg__a" id="1FU_svg__d" x1="417.476" x2="400.442" y1="176.269" y2="176.269" gradientUnits="userSpaceOnUse" spreadMethod="repeat"/>
        <filter id="1FU_svg__c" width="1.284" height="1.233" x="-.117" y="-.096">
            <feGaussianBlur in="SourceAlpha" result="blur" stdDeviation="2"/>
            <feOffset dx="2" dy="2" result="offsetBlur"/>
            <feBlend in="SourceGraphic" in2="offsetBlur"/>
        </filter>
        <filter id="1FU_svg__f" width="1.108" height="1.08" x="-.054" y="-.04" color-interpolation-filters="sRGB">
            <feColorMatrix in="SourceGraphic" result="color" values="1 0 0 0 0 0 1 0 0 0 0 0 1 0 0 0 0 0 0.85 0"/>
            <feGaussianBlur in="SourceAlpha" result="blur" stdDeviation=".32"/>
            <feSpecularLighting in="blur" lighting-color="#fff" result="specular" specularConstant="2.019" specularExponent="25" surfaceScale="5">
                <feDistantLight azimuth="245" elevation="25"/>
            </feSpecularLighting>
            <feComposite in="specular" in2="SourceGraphic" k2="1" k3="1" operator="arithmetic" result="composite1"/>
            <feComposite in="composite1" in2="color" operator="atop" result="composite2"/>
        </filter>
    </defs>
    <g fill="url(#1FU_svg__b)" filter="url(#1FU_svg__c)" transform="translate(-76.742 -14.867)scale(.82776)">
        <path fill="#886310" d="m148.702 30.041-.153 1.076h-39.346l6.4 43.696-.555-.134.691 1.076 13.138 4.068 13.679-4.373 6.838-44.333z"/>
        <path fill="url(#1FU_svg__d)" d="m141.865 74.375 6.837-44.334h-40.19l6.535 44.638 13.138 3.935z"/>
        <path fill="url(#1FU_svg__e)" d="m-50.708-26.75-6.837 44.334h40.19l-6.535-44.638-13.138-3.935z" transform="rotate(180 45.578 23.813)"/>
    </g>
    <g stroke="#000" stroke-linejoin="round" stroke-width="1.313" filter="url(#1FU_svg__f)" paint-order="stroke fill markers">
        <path d="M-23.356 37.944c-2.134 9.081-4.332 14.438-13.39 20.588 8.914 3.135 18.701 2.896 26.78 0-9.058-6.15-11.255-11.507-13.39-20.588z" transform="matrix(-.42483 0 0 -.5171 19.74 63.465)"/>
        <path d="M-26.818 58.55c-.101 8.756-.37 15.837-11.545 21.428-5.232 2.786-6.963 4.476-7.615 9.333 6.785 1.493 14.837 2.21 22.883 2.179 8.046.031 16.097-.686 22.882-2.18-.651-4.856-2.382-6.546-7.615-9.332-11.174-5.591-11.443-12.672-11.545-21.428-1.24.02-2.481.02-3.722.02s-2.482 0-3.723-.02z" transform="matrix(-.42483 0 0 -.5171 19.74 63.465)"/>
    </g>
    <path fill="#a5780f" d="m29.364 50.207.573 1 11.322-3.62-.57-.89z"/>
</svg>
