<svg xmlns="http://www.w3.org/2000/svg" xmlns:xlink="http://www.w3.org/1999/xlink" viewBox="0 0 60 60">
    <defs>
        <linearGradient xlink:href="#1KE_svg__a" id="1KE_svg__c" x1="-57.446" x2="-39.653" y1="-2.331" y2="-2.331" gradientUnits="userSpaceOnUse" spreadMethod="repeat"/>
        <linearGradient id="1KE_svg__a">
            <stop offset="0" stop-color="#dfb459"/>
            <stop offset=".042" stop-color="#dead54"/>
            <stop offset=".093" stop-color="#e1b85f"/>
            <stop offset=".165" stop-color="#dba84d"/>
            <stop offset=".305" stop-color="#dfb765"/>
            <stop offset=".539" stop-color="#d8a94e"/>
            <stop offset=".586" stop-color="#d5ab53"/>
            <stop offset=".84" stop-color="#e0bf6e"/>
            <stop offset=".924" stop-color="#daae52"/>
            <stop offset=".962" stop-color="#d9af57"/>
            <stop offset="1" stop-color="#e1b663"/>
        </linearGradient>
        <filter id="1KE_svg__b" width="1.286" height="1.232" x="-.118" y="-.096">
            <feGaussianBlur in="SourceAlpha" result="blur" stdDeviation="2"/>
            <feOffset dx="2" dy="2" result="offsetBlur"/>
            <feBlend in="SourceGraphic" in2="offsetBlur"/>
        </filter>
        <filter id="1KE_svg__d" width="1.056" height="1.044" x="-.028" y="-.022" color-interpolation-filters="sRGB">
            <feColorMatrix in="SourceGraphic" result="color" values="1 0 0 0 0 0 1 0 0 0 0 0 1 0 0 0 0 0 0.85 0"/>
            <feGaussianBlur in="SourceAlpha" result="blur" stdDeviation=".32"/>
            <feSpecularLighting in="blur" lighting-color="#fff" result="specular" specularConstant="2.019" specularExponent="25" surfaceScale="5">
                <feDistantLight azimuth="245" elevation="25"/>
            </feSpecularLighting>
            <feComposite in="specular" in2="SourceGraphic" k2="1" k3="1" operator="arithmetic" result="composite1"/>
            <feComposite in="composite1" in2="color" operator="atop" result="composite2"/>
        </filter>
    </defs>
    <g fill="#654b13" filter="url(#1KE_svg__b)" transform="translate(-84.656 -17.119)scale(.89418)">
        <path fill="#876419" d="m147.797 28.31-.236 1.177h-39.613l6.736 43.812-.542-.129.703 1.18 13.139 3.933c.093.026.192.016.27.022l13.41-4.261 6.837-44.557z"/>
    </g>
    <path fill="url(#1KE_svg__c)" d="m-37.3-31.01-13.408 4.26-6.837 44.558h40.553l-6.898-44.862-13.138-3.935c-.094-.026-.193-.015-.271-.021z" transform="translate(-3.954 24.118)scale(-.89418)"/>
    <path fill-opacity=".992" d="m31.357 47.553.252-.225c.673-.599.963-1.356 1.103-2.127.123-.673.144-1.36.213-2.023l.535.072 2.649 3.121.2-.377c.764-1.443.479-3.03.472-4.466 1.142-2.358 1.94-4.255 1.812-6.465 1.516-1.7 2.865-3.518 3.742-5.633l.01-.021.004-.022c.251-1.05.49-2.168.053-3.305l-.037-.1-.58-.32c-.339-.7-.58-1.19-.998-1.484-.368-.26-.831-.31-1.463-.256l-.47.662q-.576-.002-1.135-.066l.72-1.014-.152-.369-.254.082c-.832.268-1.41.612-1.85 1.016-1.672-.433-3.207-1.22-4.539-2.09.064-.06.13-.128.194-.182 2.029-1.547 2.466-3.085 2.752-5.515l.021-.192-.17-.094c-4.866-2.7-8.535-3.437-11.556-3.1-3.022.339-5.37 1.743-7.604 3.237l-.156.106.033.185c.194 1.11.35 1.915.768 3.447l.002.004v.004c1.06 3.566 1.254 5.785 1.416 11.979v.01c.155 2.362 1.42 5.127 3.402 7.29 1.941 2.12 4.596 3.644 7.584 3.56zm-4.81-7.123h-.003c-.157-.012-.303-.055-.449-.098a5 5 0 0 1-.879-.363 8.6 8.6 0 0 1-1.537-1c-2.197-1.855-3.434-3.602-3.957-6.725l-.002-.013-.002-.012c-.602-4.794-.213-10.564-1.88-14.266l1.16-.523c.286.635.517 1.306.707 2.006 1.06 3.924.788 8.715 1.275 12.607.486 2.888 1.433 4.19 3.521 5.953.267.226.806.589 1.297.84.245.126.482.226.653.276.17.05.27.005.148.052l.465 1.184a1.14 1.14 0 0 1-.518.082m8.17-2.234q-.14 0-.292-.01l-.543-.033.153-.522c.181-.62.219-1.139.5-1.611.14-.237.371-.448.664-.555.292-.107.626-.128 1.039-.096l.54.041-.16.518c-.186.607-.23 1.122-.511 1.59a1.33 1.33 0 0 1-.654.555 2.1 2.1 0 0 1-.737.123m-7.141-3.905c-.026-.26-.001-.583.045-1.004.045-.42.117-.917.214-1.431.182-.963.428-1.96.79-2.662l-.05-.225c0-.02-.015-.299-.023-.635a8 8 0 0 1 .02-.838l.004-.02v-.017c.096-1.461 1.192-3.266 2.334-4.56-3.393.35-6.745-1.018-7.807-7.703 4.218 1.29 7.352 2.278 8.598 7.593q-.366.064-.733.104c1.31.87 2.834 1.685 4.524 2.185-.433.68-.748 1.453-1.317 2.348-1.91.885-2.78 1.352-4.675 2.063l-.024.007.059.034c-.27.47-.568 1.525-.752 2.504-.093.489-.163.966-.205 1.357-.042.39-.05.717-.041.809zm12.634-4.884-.556-.588c.469-.444.84-.725.978-.893.069-.084.076-.114.078-.148.002-.035-.007-.11-.086-.256l.715-.381c.123.227.195.456.178.693a1.1 1.1 0 0 1-.26.606c-.264.323-.617.56-1.047.967m-2.84-2.739-.785-.558.477-.672q.539.088 1.096.123zm-6.449-4.502-.642-.83c-3.608-2.128-4.447-3.324-5.309-4.617l-.922-.625.248.986c.922 1.384 1.927 2.697 5.627 4.88z" color="#000" enable-background="accumulate" filter="url(#1KE_svg__d)" opacity=".99" overflow="visible" style="line-height:normal;font-variant-ligatures:normal;font-variant-position:normal;font-variant-caps:normal;font-variant-numeric:normal;font-variant-alternates:normal;font-variant-east-asian:normal;font-feature-settings:normal;font-variation-settings:normal;text-indent:0;text-align:start;text-decoration-line:none;text-decoration-style:solid;text-decoration-color:#000;text-transform:none;text-orientation:mixed;white-space:normal;shape-padding:0;shape-margin:0;inline-size:0;isolation:auto;mix-blend-mode:normal;solid-color:#000;solid-opacity:1"/>
</svg>
