<svg xmlns="http://www.w3.org/2000/svg" xmlns:xlink="http://www.w3.org/1999/xlink" viewBox="0 0 60 60">
    <defs>
        <linearGradient xlink:href="#1KI_svg__a" id="1KI_svg__c" x1="148.368" x2="129.504" y1="49.819" y2="49.819" gradientUnits="userSpaceOnUse" spreadMethod="repeat"/>
        <linearGradient id="1KI_svg__a">
            <stop offset="0" stop-color="#e5c37b"/>
            <stop offset=".042" stop-color="#e4bd76"/>
            <stop offset=".093" stop-color="#e7c781"/>
            <stop offset=".165" stop-color="#e2b86e"/>
            <stop offset=".305" stop-color="#e6c686"/>
            <stop offset=".539" stop-color="#dfb96f"/>
            <stop offset=".586" stop-color="#ddbb73"/>
            <stop offset=".84" stop-color="#e7ce8f"/>
            <stop offset=".924" stop-color="#e1bd73"/>
            <stop offset=".962" stop-color="#e0bf78"/>
            <stop offset="1" stop-color="#e7c685"/>
        </linearGradient>
        <linearGradient xlink:href="#1KI_svg__b" id="1KI_svg__e" x1="148.368" x2="129.504" y1="49.819" y2="49.819" gradientUnits="userSpaceOnUse" spreadMethod="repeat"/>
        <linearGradient id="1KI_svg__b">
            <stop offset="0" stop-color="#dfb459"/>
            <stop offset=".042" stop-color="#dead54"/>
            <stop offset=".093" stop-color="#e1b85f"/>
            <stop offset=".165" stop-color="#dba84d"/>
            <stop offset=".305" stop-color="#dfb765"/>
            <stop offset=".539" stop-color="#d8a94e"/>
            <stop offset=".586" stop-color="#d5ab53"/>
            <stop offset=".84" stop-color="#e0bf6e"/>
            <stop offset=".924" stop-color="#daae52"/>
            <stop offset=".962" stop-color="#d9af57"/>
            <stop offset="1" stop-color="#e1b663"/>
        </linearGradient>
        <filter id="1KI_svg__d" width="1.28" height="1.232" x="-.116" y="-.096">
            <feGaussianBlur in="SourceAlpha" result="blur" stdDeviation="2"/>
            <feOffset dx="2" dy="2" result="offsetBlur"/>
            <feBlend in="SourceGraphic" in2="offsetBlur"/>
        </filter>
        <filter id="1KI_svg__f" width="1.053" height="1.043" x="-.026" y="-.022" color-interpolation-filters="sRGB">
            <feColorMatrix in="SourceGraphic" result="color" values="1 0 0 0 0 0 1 0 0 0 0 0 1 0 0 0 0 0 0.85 0"/>
            <feGaussianBlur in="SourceAlpha" result="blur" stdDeviation=".32"/>
            <feSpecularLighting in="blur" lighting-color="#fff" result="specular" specularConstant="2.019" specularExponent="25" surfaceScale="5">
                <feDistantLight azimuth="245" elevation="25"/>
            </feSpecularLighting>
            <feComposite in="specular" in2="SourceGraphic" k2="1" k3="1" operator="arithmetic" result="composite1"/>
            <feComposite in="composite1" in2="color" operator="atop" result="composite2"/>
        </filter>
    </defs>
    <g fill="url(#1KI_svg__c)" filter="url(#1KI_svg__d)" transform="translate(-88.747 -20.034)scale(.92309)">
        <path fill="#876419" d="m148.703 29.817-.234 1.17h-39.89l6.924 43.53-.457-.142.62 1.17 13.14 4.24c.09.018.18.03.27.02l13.409-4.26 6.836-44.558z"/>
        <path fill="url(#1KI_svg__e)" d="m128.456 78.635 13.41-4.26 6.836-44.558H107.96l7.088 44.558 13.138 4.239c.09.017.18.032.271.021z"/>
    </g>
    <path fill="#a57a1b" d="m29.58 52.534.822 1.099L42.78 49.7l-.572-1.08z"/>
    <path fill-opacity=".992" d="M40.153 46.584c.437-.131 1.874-.41 1.023-.972-.356-.338-.982-.831-1.353-1.45-1.685-2.805-1.193-6.162-1.314-8.255 1.03.089 3.358.243 3.72-.629l2.292-3.972c-1.95.283-4.401.67-5.795-1.062-.946-.514-1.589-3.061-2.213-2.935l-1.345 4.008c-1.285-.194-1.138-.9-.693-1.818-.827-.945-3.15-1.02-4.62-1.073-1.385.158-3.698.216-4.4 1.143.41.87.608 1.576-.648 1.75l-1.467-4.187c-.968 1.467-1.625 3.328-3.338 4.08-1.45.568-3.027.304-4.523.095l2.612 4.527c1.056.464 3.03-.038 3.459.086-.143 2.522.19 5.24-1.166 7.515-.508.961-1.234 1.776-1.94 2.594.792.524 1.797.804 2.565.021 1.044-.997 2.18-1.234 3.5-.846 1.418-.176 2.12-1.547 2.432-2.792-1.204.022-1.783-1.201-1.89-2.257-.151-1.009-.107-3.891 1.185-3.35-.302 2.477 2.316 4.681 4.708 3.966 1.76-.42 3.032-2.238 2.816-4.035 1.251-.435 1.329 2.392 1.167 3.419-.106 1.058-.686 2.277-1.89 2.258.316 1.334 1.168 2.818 2.72 2.81 1.812-.952 2.757.994 4.396 1.36zm-1.839-2.74c-1.024-1.13-2.231.217-3.25-.395.223-.855 1.27-2.175 1.2-3.426.4-2.845-1.331-5.931-4.198-6.658-3.128-1.08-7.146.513-8.082 3.835-.596 2.022-.385 4.493 1.093 6.092-.937 1.058-2.194-.673-3.247.452.214-.914 1.077-3.174.954-4.734.03-1.602-.246-3.386.898-4.704 1.313-2.144 4.023-2.604 6.339-2.492 2.297-.107 4.976.37 6.276 2.492 1.144 1.318.866 3.101.896 4.704.033 1.666.385 3.334 1.121 4.835M30 39.53c-1.932.1-3.139-2.465-1.834-3.891 1.144-1.545 3.872-.866 4.162 1.033.332 1.426-.864 2.896-2.328 2.858m-9.087-10.298c.54-1.283 1.916-2.4 1.819-3.835-.242-.31-.238-1.612-.706-1.003-.733.694-1.492 1.36-2.2 2.08zm18.072-.168 1.03-2.611c-.788-.795-1.629-1.534-2.44-2.304-.163.672-.677 1.338-.268 2.023.447 1.021 1.142 1.917 1.678 2.892m-4.078-.816 2.491-7.206c-4.784-1.534-10.079-1.532-14.85.056l2.447 7.131c3.2-1.144 6.729-1.237 9.912.02zM19.15 25.722c.909-.89 1.856-1.74 2.781-2.611-.38-1.118-.74-2.17-1.269-3.213-1.319.422-2.477 1.196-3.442 2.184.62 1.226 1.292 2.424 1.93 3.64m21.541-.019c.636-1.21 1.304-2.402 1.923-3.62-.97-.983-2.12-1.769-3.443-2.185-.522 1.04-.893 2.091-1.246 3.207.92.867 1.864 1.712 2.766 2.599m-6.593-6.84.39-1.676c-2.88-.715-5.97-.779-8.857-.066l.379 1.731c2.644-.636 5.441-.578 8.088.012zm1.212-2.666 1.083-3.531c-3.922-2.096-8.822-1.872-12.786 0l1.15 3.531c1.69-.65 3.362-.787 5.298-.827 1.591.016 3.768.236 5.255.827" color="#000" enable-background="accumulate" filter="url(#1KI_svg__f)" opacity=".99" overflow="visible" style="line-height:normal;font-variant-ligatures:normal;font-variant-position:normal;font-variant-caps:normal;font-variant-numeric:normal;font-variant-alternates:normal;font-variant-east-asian:normal;font-feature-settings:normal;font-variation-settings:normal;text-indent:0;text-align:start;text-decoration-line:none;text-decoration-style:solid;text-decoration-color:#000;text-transform:none;text-orientation:mixed;white-space:normal;shape-padding:0;shape-margin:0;inline-size:0;isolation:auto;mix-blend-mode:normal;solid-color:#000;solid-opacity:1"/>
</svg>
