<svg xmlns="http://www.w3.org/2000/svg" xmlns:xlink="http://www.w3.org/1999/xlink" viewBox="0 0 60 60">
    <defs>
        <linearGradient xlink:href="#1KY_svg__a" id="1KY_svg__c" x1="-57.446" x2="-39.653" y1="-2.331" y2="-2.331" gradientUnits="userSpaceOnUse" spreadMethod="repeat"/>
        <linearGradient id="1KY_svg__a">
            <stop offset="0" stop-color="#dfb459"/>
            <stop offset=".042" stop-color="#dead54"/>
            <stop offset=".093" stop-color="#e1b85f"/>
            <stop offset=".165" stop-color="#dba84d"/>
            <stop offset=".305" stop-color="#dfb765"/>
            <stop offset=".539" stop-color="#d8a94e"/>
            <stop offset=".586" stop-color="#d5ab53"/>
            <stop offset=".84" stop-color="#e0bf6e"/>
            <stop offset=".924" stop-color="#daae52"/>
            <stop offset=".962" stop-color="#d9af57"/>
            <stop offset="1" stop-color="#e1b663"/>
        </linearGradient>
        <filter id="1KY_svg__b" width="1.286" height="1.232" x="-.118" y="-.096">
            <feGaussianBlur in="SourceAlpha" result="blur" stdDeviation="2"/>
            <feOffset dx="2" dy="2" result="offsetBlur"/>
            <feBlend in="SourceGraphic" in2="offsetBlur"/>
        </filter>
        <filter id="1KY_svg__d" width="1.078" height="1.039" x="-.039" y="-.019" color-interpolation-filters="sRGB">
            <feColorMatrix in="SourceGraphic" result="color" values="1 0 0 0 0 0 1 0 0 0 0 0 1 0 0 0 0 0 0.85 0"/>
            <feGaussianBlur in="SourceAlpha" result="blur" stdDeviation=".32"/>
            <feSpecularLighting in="blur" lighting-color="#fff" result="specular" specularConstant="2.019" specularExponent="25" surfaceScale="5">
                <feDistantLight azimuth="245" elevation="25"/>
            </feSpecularLighting>
            <feComposite in="specular" in2="SourceGraphic" k2="1" k3="1" operator="arithmetic" result="composite1"/>
            <feComposite in="composite1" in2="color" operator="atop" result="composite2"/>
        </filter>
    </defs>
    <g fill="#654b13" filter="url(#1KY_svg__b)" transform="translate(-84.656 -17.119)scale(.89418)">
        <path fill="#876419" d="m147.797 28.31-.236 1.177h-39.613l6.736 43.812-.542-.129.703 1.18 13.139 3.933c.093.026.192.016.27.022l13.41-4.261 6.837-44.557z"/>
    </g>
    <path fill="url(#1KY_svg__c)" d="m-37.3-31.01-13.408 4.26-6.837 44.558h40.553l-6.898-44.862-13.138-3.935c-.094-.026-.193-.015-.271-.021z" transform="translate(-3.954 24.118)scale(-.89418)"/>
    <path d="m29.99 51.108-2.333-2.91-.305-9.525 1.827-.958h.044V30.45c-5.108-.4-9.048-4.564-9.048-9.572 0-5.303 4.398-9.6 9.824-9.602 5.427 0 9.826 4.299 9.826 9.602v.179c-.045 2.81-1.359 5.458-3.58 7.245-.045.034-.084.071-.147.116a9.95 9.95 0 0 1-5.336 2.055v7.267h.055l1.82.957-.274 9.526zm-.61-3.327h1.244v-7.996h-1.245zm-.169-19.425v-5.638l-4.08 3.987a7.73 7.73 0 0 0 4.08 1.652zm1.555-.001c1.495-.158 2.912-.716 4.077-1.653l-4.077-3.985zm-6.732-2.725 4.118-4.022h-5.81a7.36 7.36 0 0 0 1.692 4.022m11.908 0a7.33 7.33 0 0 0 1.69-4.014v-.007h-5.806zM22.35 20.089h5.726l-4.04-3.95a7.4 7.4 0 0 0-1.685 3.95zm9.552 0h5.724a7.44 7.44 0 0 0-1.684-3.948zm-2.69-1.041V13.41a7 7 0 0 0-.6.083 7.8 7.8 0 0 0-3.485 1.57zm1.554 0 4.078-3.986a7.7 7.7 0 0 0-4.078-1.65z" filter="url(#1KY_svg__d)"/>
</svg>
