<svg xmlns="http://www.w3.org/2000/svg" xmlns:xlink="http://www.w3.org/1999/xlink" viewBox="0 0 60 60">
    <defs>
        <linearGradient id="1RY_svg__a">
            <stop offset="0" stop-color="#dfb459"/>
            <stop offset=".041" stop-color="#dead54"/>
            <stop offset=".082" stop-color="#e1b85f"/>
            <stop offset=".165" stop-color="#dba84d"/>
            <stop offset=".305" stop-color="#dfb765"/>
            <stop offset=".539" stop-color="#d8a94e"/>
            <stop offset=".586" stop-color="#d5ab53"/>
            <stop offset=".84" stop-color="#e0bf6e"/>
            <stop offset=".924" stop-color="#daae52"/>
            <stop offset=".962" stop-color="#d9af57"/>
            <stop offset="1" stop-color="#e1b663"/>
        </linearGradient>
        <linearGradient xlink:href="#1RY_svg__a" id="1RY_svg__c" x1="148.578" x2="130.323" y1="49.826" y2="49.826" gradientUnits="userSpaceOnUse" spreadMethod="repeat"/>
        <linearGradient xlink:href="#1RY_svg__b" id="1RY_svg__e" x1="148.578" x2="130.323" y1="49.826" y2="49.826" gradientUnits="userSpaceOnUse" spreadMethod="repeat"/>
        <linearGradient id="1RY_svg__b">
            <stop offset="0" stop-color="#dfb459"/>
            <stop offset=".042" stop-color="#dead54"/>
            <stop offset=".093" stop-color="#e1b85f"/>
            <stop offset=".165" stop-color="#dba84d"/>
            <stop offset=".305" stop-color="#dfb765"/>
            <stop offset=".539" stop-color="#d8a94e"/>
            <stop offset=".586" stop-color="#d5ab53"/>
            <stop offset=".84" stop-color="#e0bf6e"/>
            <stop offset=".924" stop-color="#daae52"/>
            <stop offset=".962" stop-color="#d9af57"/>
            <stop offset="1" stop-color="#e1b663"/>
        </linearGradient>
        <filter id="1RY_svg__d" width="1.285" height="1.233" x="-.118" y="-.096">
            <feGaussianBlur in="SourceAlpha" result="blur" stdDeviation="2"/>
            <feOffset dx="2" dy="2" result="offsetBlur"/>
            <feBlend in="SourceGraphic" in2="offsetBlur"/>
        </filter>
        <filter id="1RY_svg__f" width="1.05" height="1.036" x="-.025" y="-.018" color-interpolation-filters="sRGB">
            <feColorMatrix in="SourceGraphic" result="color" values="1 0 0 0 0 0 1 0 0 0 0 0 1 0 0 0 0 0 0.85 0"/>
            <feGaussianBlur in="SourceAlpha" result="blur" stdDeviation=".32"/>
            <feSpecularLighting in="blur" lighting-color="#fff" result="specular" specularConstant="2.019" specularExponent="25" surfaceScale="5">
                <feDistantLight azimuth="245" elevation="25"/>
            </feSpecularLighting>
            <feComposite in="specular" in2="SourceGraphic" k2="1" k3="1" operator="arithmetic" result="composite1"/>
            <feComposite in="composite1" in2="color" operator="atop" result="composite2"/>
        </filter>
    </defs>
    <g fill="url(#1RY_svg__c)" filter="url(#1RY_svg__d)" transform="translate(-96.557 -23.219)scale(.98185)">
        <path fill="#876419" d="m148.702 29.817-.223 1.173.802-.191Zm.58.982H109.09l6.41 44.002-.454-.121.578.98 13.14 3.935a.9.9 0 0 0 .27.022l13.41-4.26 6.836-44.558z"/>
        <path fill="url(#1RY_svg__e)" d="m-37.3-31.01-13.408 4.26-6.837 44.558h40.19l-6.535-44.862-13.138-3.935a.9.9 0 0 0-.271-.021z" transform="rotate(180 45.578 23.813)"/>
    </g>
    <path fill="#9a0000" d="M35.013 49.25c-.084-.789-1.855-5.314.383-4.779.027.007.048.008.074.014.703.508.962 1.726.994 1.852.044.17.275.367.574.547.896.534 2.563.637 1.418-.512-.933-1.213-1.776-2.071-2.158-3.063l-.008.004c-.166-.87-.603-2.147-.83-2.97l-.334-1.44c-.119-.411-.345-1.11-.664-1.723a4 4 0 0 0-.529-.802c-.18-.199-.336-.301-.486-.342a.9.9 0 0 0-.19.363c-.1.332-.15.84-.17 1.348s-.01 1.021-.002 1.388q.006.275.004.428c.813 1.095 1.12 2.043 1.52 3.297-.04.169-.41.158-.65.234-3.445 1.104-.602 5.024.628 5.942l-.002.004q.109.08.23.142a.6.6 0 0 0 .198.069m-10.629 0a.6.6 0 0 0 .197-.068q.122-.061.23-.142l-.001-.004c1.23-.918 4.073-4.838.629-5.942-.19-.06-.484-.451-.6-.39.375-1.174.691-2.094 1.469-3.14q-.002-.154.004-.429c.008-.367.018-.88-.002-1.388s-.07-1.016-.17-1.348a.9.9 0 0 0-.19-.363c-.15.04-.305.143-.486.342a4 4 0 0 0-.53.802c-.318.613-.544 1.312-.663 1.723l-.334 1.44c-.227.823-.664 2.1-.83 2.97l-.008-.004c-.382.992-1.225 1.85-2.158 3.063-1.145 1.149.522 1.046 1.418.512.3-.18.53-.377.574-.547.033-.126.291-1.344.994-1.852.026-.006.048-.007.074-.014 2.238-.535.467 3.99.383 4.78m5.315-9.954 2.38-.575c-.004-.308-.006-.647.008-1.013.021-.54.06-1.065.21-1.57.073-.277.203-.535.39-.753l.412-.48.611.166c.392.107.704.353.961.635l.004.002.002.004a4.8 4.8 0 0 1 .674 1.007c.195.377.35.756.475 1.1l.166-.04v-.003c.494-1.309.314-3.726.095-5.428l-.039-.314.293-.12c.38-.154.867-.346 1.262-.558.394-.21.64-.475.652-.52l.487-1.773c.057-.212.04-.325.02-.387-.024-.062-.059-.098-.138-.148-.127-.082-.362-.141-.603-.207-.393.004-.834.024-1.295-.018-.565-.053-1.17-.22-1.607-.71l-.043-.051-.028-.063c-.17-.402-.277-.836-.379-1.254h.666c.314.01 3.7.075 5.729-2.591.766-1.008 1.5-1.753 2.342-2.137.367-.168.53-.318.838-.358.19-.025.526.097.808.174l-.264-.685c-.917-.314-1.66-.16-2.369.302-.738.48-1.42 1.285-2.084 2.149-.864 1.136-2.256 1.662-3.418 1.918-.987.218-1.57.202-1.8.203l-.74.03a2 2 0 0 0-.153-.292.6.6 0 0 0-.307-.256 32 32 0 0 1-4.183.647l-.033.004-.036-.004a32.5 32.5 0 0 1-4.181-.647.6.6 0 0 0-.307.256q-.088.139-.152.29l-.738-.028c-.23 0-.818.015-1.805-.203-1.162-.256-2.554-.782-3.418-1.918-.663-.864-1.345-1.67-2.082-2.149-.71-.462-1.454-.616-2.371-.302l-.264.685c.282-.077.619-.199.809-.174.306.04.47.19.838.358.842.384 1.575 1.129 2.341 2.137 2.03 2.667 5.415 2.6 5.729 2.591h.668c-.101.418-.207.851-.38 1.254l-.026.063-.045.05c-.44.496-1.064.677-1.659.752-.55.07-1.09.055-1.529.061q-.166.041-.318.121c-.08.05-.113.09-.135.15-.022.063-.036.175.022.387l.482 1.774c.01.043.26.31.654.521.394.21.883.4 1.262.555l.293.12-.04.315c-.217 1.702-.396 4.121.099 5.43l.162.04c.123-.344.277-.723.472-1.099a4.8 4.8 0 0 1 .674-1.007l.002-.004.004-.002c.257-.282.57-.528.96-.635l.612-.166.412.48c.187.218.318.475.391.752.148.506.188 1.031.209 1.57.014.366.012.706.008 1.014zm10.129-1.399c.714-1.578 1.014-2.435-1-4.762 1.33.318 2.772 2.99 3.38 3.54 1.041-2.636-.263-3.793-1.875-4.633 1.572-.336 2.51.418 4.086.896-.878-1.605-1.962-4.058-4.619-2.916.987-1.356 2.706-1.981 4.176-2.853-1.511-.286-3.086-1.036-4.375.289.669-1.222 1.76-2.267 2.828-3.317q-.655.087-1.303.225c-.684.756-1.475 1.26-2.26 1.615-.007.418-.122.853-.236 1.235-.068.228-.085.263-.138.41.194.05.353.062.576.203.214.132.38.333.468.568.093.257.09.556.002.881l-.486 1.775c-.144.53-.6.786-1.058 1.032-.363.194-.729.333-1.061.468q.08.605.139 1.211zm-20.256 0 2.761-4.137q.058-.604.135-1.207c-.332-.135-.695-.274-1.057-.468-.46-.246-.918-.503-1.062-1.032l-.482-1.775c-.09-.325-.094-.624 0-.88.093-.259.278-.45.466-.57.223-.14.384-.153.578-.202-.053-.147-.074-.182-.142-.41-.114-.382-.225-.817-.233-1.235-.785-.356-1.58-.86-2.263-1.615a16 16 0 0 0-1.305-.225c1.07 1.05 2.161 2.095 2.83 3.317-1.289-1.325-2.866-.575-4.377-.29 1.47.873 3.192 1.498 4.178 2.854-2.657-1.142-3.74 1.31-4.62 2.916 1.579-.478 2.513-1.231 4.085-.896-1.612.84-2.915 1.997-1.873 4.633.607-.548 2.053-3.22 3.38-3.54-2.013 2.328-1.712 3.184-1 4.762m5.826-3.824a1 1 0 0 1-.162-.018c-.353-.06-.682-.283-.973-.763-.77-1.577.452-2.34 1.709-2.791 1.34-.217 2.098.16 2.635 1.04-2.097 1.51-2.37 2.427-3.049 2.524a1 1 0 0 1-.16.008m8.443-.008c-.679-.097-.952-1.014-3.049-2.523.537-.882 1.297-1.258 2.637-1.041 1.257.452 2.48 1.213 1.709 2.79-.29.48-.62.704-.973.764-.119.02-.32-.086-.324.008zm-2.129-6.219c-.66-.145-.95-1.092-1.406-1.677l.838.62 1.04.112c-.068.45.368.81-.472.945m-4.023 0c-.84-.136-.405-.494-.475-.945l1.041-.113.838-.62c-.457.586-.744 1.533-1.404 1.678m-5.928-.277q.38 0 .758-.043c.479-.06.855-.207 1.101-.46.035-.09.062-.203.092-.307a9 9 0 0 1-2.293-.434q.049.332.14.656c.099.328.163.487.202.588m15.473-.066q.214.003.43-.004c.046-.124.09-.23.175-.518.068-.226.095-.44.127-.652a9 9 0 0 1-2.28.43c.03.103.059.216.093.304.246.255.58.378 1.023.42q.215.015.432.02M24.375 24.71c.038-.076.069-.156.116-.227.18-.27.44-.511.785-.619-.038-3.946.024-3.54 1.013-7.268l.041-.154.135-.086c.89-.572 2.052-.853 3.219-.853s2.343.284 3.244.924l.121.085.037.145c.987 3.745 1.105 3.332 1.018 7.201l.012.002c.33.11.611.331.796.625.046.07.074.149.112.223a8.7 8.7 0 0 0 1.781-.219q.34-.078.672-.187c-.113-.194-.222-.39-.36-.565.008.01-.291-.198-.554-.312s-.5-.192-.5-.192l-.238-.08-.04-.25c-.554-3.646-1.3-4.985-2.22-7.71a2.5 2.5 0 0 0-.389-.456l-.574-7.69-.813 5.778-1.087-5.129-1.006 5.024-1-5.014-1.096 5.205-.813-5.9-.568 7.73a2.5 2.5 0 0 0-.385.451c-.92 2.725-1.664 4.063-2.218 7.71l-.041.25-.239.08s-.239.079-.502.193-.558.321-.55.312c-.137.176-.249.373-.362.567q.332.106.672.185a8.7 8.7 0 0 0 1.781.22m5.327-.205a32 32 0 0 0 3.478-.5l-.586-3.135-.81 1.57-1.09-1.203-1.006 1.143-1-1.137-1.096 1.246-.812-1.64-.578 3.15a32 32 0 0 0 3.5.506m-.014-5.278 1-.963.947.913.426-2.26a5 5 0 0 0-2.377-.59c-.863 0-1.696.215-2.367.55l.431 2.292.94-.905z" filter="url(#1RY_svg__f)"/>
</svg>
