<svg xmlns="http://www.w3.org/2000/svg" xmlns:xlink="http://www.w3.org/1999/xlink" viewBox="0 0 60 60">
    <defs>
        <linearGradient id="1TO_svg__a">
            <stop offset="0" stop-color="#dfb459"/>
            <stop offset=".042" stop-color="#dead54"/>
            <stop offset=".093" stop-color="#e1b85f"/>
            <stop offset=".165" stop-color="#dba84d"/>
            <stop offset=".305" stop-color="#dfb765"/>
            <stop offset=".539" stop-color="#d8a94e"/>
            <stop offset=".586" stop-color="#d5ab53"/>
            <stop offset=".84" stop-color="#e0bf6e"/>
            <stop offset=".924" stop-color="#daae52"/>
            <stop offset=".962" stop-color="#d9af57"/>
            <stop offset="1" stop-color="#e1b663"/>
        </linearGradient>
        <linearGradient xlink:href="#1TO_svg__a" id="1TO_svg__c" x1="417.476" x2="400.442" y1="176.269" y2="176.269" gradientUnits="userSpaceOnUse" spreadMethod="repeat"/>
        <linearGradient xlink:href="#1TO_svg__b" id="1TO_svg__f" x1="417.476" x2="400.442" y1="176.269" y2="176.269" gradientUnits="userSpaceOnUse" spreadMethod="repeat"/>
        <linearGradient xlink:href="#1TO_svg__a" id="1TO_svg__e" x1="417.476" x2="400.442" y1="176.269" y2="176.269" gradientUnits="userSpaceOnUse" spreadMethod="repeat"/>
        <linearGradient id="1TO_svg__b">
            <stop offset="0" stop-color="#dfb459"/>
            <stop offset=".033" stop-color="#dead54"/>
            <stop offset=".093" stop-color="#e1b85f"/>
            <stop offset=".165" stop-color="#dba84d"/>
            <stop offset=".305" stop-color="#dfb765"/>
            <stop offset=".539" stop-color="#d8a94e"/>
            <stop offset=".586" stop-color="#d5ab53"/>
            <stop offset=".84" stop-color="#e0bf6e"/>
            <stop offset=".924" stop-color="#daae52"/>
            <stop offset=".962" stop-color="#d9af57"/>
            <stop offset="1" stop-color="#e1b663"/>
        </linearGradient>
        <filter id="1TO_svg__d" width="1.284" height="1.233" x="-.117" y="-.096">
            <feGaussianBlur in="SourceAlpha" result="blur" stdDeviation="2"/>
            <feOffset dx="2" dy="2" result="offsetBlur"/>
            <feBlend in="SourceGraphic" in2="offsetBlur"/>
        </filter>
        <filter id="1TO_svg__g" width="1.076" height="1.051" x="-.038" y="-.026" color-interpolation-filters="sRGB">
            <feColorMatrix in="SourceGraphic" result="color" values="1 0 0 0 0 0 1 0 0 0 0 0 1 0 0 0 0 0 0.85 0"/>
            <feGaussianBlur in="SourceAlpha" result="blur" stdDeviation=".32"/>
            <feSpecularLighting in="blur" lighting-color="#fff" result="specular" specularConstant="2.019" specularExponent="25" surfaceScale="5">
                <feDistantLight azimuth="245" elevation="25"/>
            </feSpecularLighting>
            <feComposite in="specular" in2="SourceGraphic" k2="1" k3="1" operator="arithmetic" result="composite1"/>
            <feComposite in="composite1" in2="color" operator="atop" result="composite2"/>
        </filter>
    </defs>
    <g fill="url(#1TO_svg__c)" filter="url(#1TO_svg__d)" transform="translate(-77.198 -14.428)scale(.82776)">
        <path fill="#886310" d="m148.702 30.041-.153 1.076h-39.346l6.4 43.696-.555-.134.691 1.076 13.138 4.068 13.679-4.373 6.838-44.333z"/>
        <path fill="url(#1TO_svg__e)" d="m141.865 74.375 6.837-44.334h-40.19l6.535 44.638 13.138 3.935z"/>
        <path fill="url(#1TO_svg__f)" d="m-50.708-26.75-6.837 44.334h40.19l-6.535-44.638-13.138-3.935z" transform="rotate(180 45.578 23.813)"/>
    </g>
    <path fill="#a5780f" d="m28.908 50.646.573 1 11.322-3.62-.571-.89z"/>
    <path fill="#9a0000" d="M21.863 45.392a.65.65 0 0 1-.332-.082l-.621-.318.478-.565c1.389-1.64 1.665-3.108 1.729-4.432.032-.661 0-1.285.014-1.873.014-.572.07-1.14.347-1.632l.006-.014.016-.027c.443-.892.979-1.556 1.588-2.034-.471-.374-.984-.78-1.659-1.338a.31.31 0 0 1 .075-.521c1.232-.538 2.557-.9 3.922-1.076-.043-1.732-.17-3.314-.655-4.74-.61-1.792-1.768-3.369-4.107-4.793l-.008-.004c-1.129-.732-1.91-1.337-2.447-2.108-.537-.77-.805-1.683-.947-2.972a.31.31 0 0 1 .228-.334c2.934-.786 6.397-1.16 9.857-1.145 3.463-.016 6.927.358 9.862 1.145a.31.31 0 0 1 .228.334c-.142 1.289-.412 2.202-.949 2.972s-1.316 1.376-2.445 2.108l-.008.004c-2.34 1.424-3.5 3.001-4.11 4.793-.485 1.427-.61 3.01-.652 4.744a14.8 14.8 0 0 1 3.92 1.07.31.31 0 0 1 .076.523c-.674.558-1.196.97-1.664 1.336.61.478 1.147 1.142 1.59 2.036l.022.04c.278.493.333 1.061.347 1.633.015.588-.016 1.212.016 1.873.063 1.324.34 2.792 1.728 4.432l.479.565-.621.318c-.345.176-.618.033-.86-.094-.241-.127-.48-.3-.722-.47-.438-.31-.897-.565-1.117-.614-.598.345-1.209.302-1.666.045a2.18 2.18 0 0 1-.993-1.232l-.334-1.03.895.317c.068.024.105.02.193-.043s.207-.203.313-.416c.212-.427.366-1.122.336-1.844s-.232-1.465-.676-2.07a3 3 0 0 0-.459-.494c.094.275.145.57.145.877 0 1.547-1.301 2.794-2.874 2.794-1.572 0-2.873-1.247-2.873-2.794 0-.308.054-.603.149-.88a3 3 0 0 0-.463.497c-.444.605-.646 1.348-.676 2.07s.124 1.417.336 1.844c.106.213.227.353.315.416.087.062.123.067.191.043l.895-.317-.332 1.03c-.158.49-.497.953-.995 1.232-.457.257-1.068.3-1.666-.045-.22.049-.678.305-1.115.613-.242.171-.48.344-.723.471-.158.084-.33.173-.527.176m1.33-1.961c.337-.221.7-.408 1.113-.406h.125l.108.076c.41.287.7.242.96.096.048-.027.09-.065.134-.1-.252-.188-.448-.457-.606-.773-.326-.656-.5-1.525-.46-2.45.038-.925.3-1.911.898-2.726.595-.812 1.52-1.427 2.79-1.645.357-.11.738-.13 1.083-.14h.021c.345.01.726.033 1.082.142 1.271.218 2.194.832 2.79 1.643.597.815.861 1.801.9 2.726.038.925-.137 1.794-.463 2.45-.158.316-.354.585-.606.773.044.036.088.073.135.1.261.146.55.19.96-.096l.106-.076h.125c.415-.002.779.185 1.116.406-.596-1.214-.794-2.378-.842-3.375-.035-.737-.005-1.388-.018-1.902-.012-.515-.072-.863-.2-1.08l-.013-.02-.011-.021c-.553-1.13-1.19-1.751-1.985-2.13-.795-.377-1.77-.493-2.945-.488q-.057 0-.115.004l-.028.002-.025-.002-.117-.004c-1.175-.005-2.15.11-2.945.489-.796.378-1.432 1-1.985 2.129l-.01.021-.011.02c-.13.217-.19.565-.203 1.08-.013.514.02 1.165-.016 1.902-.048.997-.247 2.161-.842 3.375m6.154-3.395c1.05 0 1.873-.806 1.873-1.794 0-.897-.676-1.644-1.584-1.776l-.039-.004a7 7 0 0 0-.25-.012 7 7 0 0 0-.248.012l-.039.004c-.908.132-1.586.88-1.586 1.776 0 .988.824 1.794 1.873 1.794" color="#000" filter="url(#1TO_svg__g)" style="-inkscape-stroke:none"/>
</svg>
