<svg xmlns="http://www.w3.org/2000/svg" xmlns:xlink="http://www.w3.org/1999/xlink" viewBox="0 0 60 60">
    <defs>
        <linearGradient id="1UM_svg__a">
            <stop offset="0" stop-color="#dfb459"/>
            <stop offset=".041" stop-color="#dead54"/>
            <stop offset=".082" stop-color="#e1b85f"/>
            <stop offset=".165" stop-color="#dba84d"/>
            <stop offset=".305" stop-color="#dfb765"/>
            <stop offset=".539" stop-color="#d8a94e"/>
            <stop offset=".586" stop-color="#d5ab53"/>
            <stop offset=".84" stop-color="#e0bf6e"/>
            <stop offset=".924" stop-color="#daae52"/>
            <stop offset=".962" stop-color="#d9af57"/>
            <stop offset="1" stop-color="#e1b663"/>
        </linearGradient>
        <linearGradient xlink:href="#1UM_svg__a" id="1UM_svg__c" x1="148.578" x2="130.323" y1="49.826" y2="49.826" gradientUnits="userSpaceOnUse" spreadMethod="repeat"/>
        <linearGradient xlink:href="#1UM_svg__b" id="1UM_svg__e" x1="148.578" x2="130.323" y1="49.826" y2="49.826" gradientUnits="userSpaceOnUse" spreadMethod="repeat"/>
        <linearGradient id="1UM_svg__b">
            <stop offset="0" stop-color="#dfb459"/>
            <stop offset=".042" stop-color="#dead54"/>
            <stop offset=".093" stop-color="#e1b85f"/>
            <stop offset=".165" stop-color="#dba84d"/>
            <stop offset=".305" stop-color="#dfb765"/>
            <stop offset=".539" stop-color="#d8a94e"/>
            <stop offset=".586" stop-color="#d5ab53"/>
            <stop offset=".84" stop-color="#e0bf6e"/>
            <stop offset=".924" stop-color="#daae52"/>
            <stop offset=".962" stop-color="#d9af57"/>
            <stop offset="1" stop-color="#e1b663"/>
        </linearGradient>
        <filter id="1UM_svg__d" width="1.285" height="1.233" x="-.118" y="-.096">
            <feGaussianBlur in="SourceAlpha" result="blur" stdDeviation="2"/>
            <feOffset dx="2" dy="2" result="offsetBlur"/>
            <feBlend in="SourceGraphic" in2="offsetBlur"/>
        </filter>
        <filter id="1UM_svg__f" width="1.045" height="1.034" x="-.022" y="-.017" color-interpolation-filters="sRGB">
            <feColorMatrix in="SourceGraphic" result="color" values="1 0 0 0 0 0 1 0 0 0 0 0 1 0 0 0 0 0 0.85 0"/>
            <feGaussianBlur in="SourceAlpha" result="blur" stdDeviation=".32"/>
            <feSpecularLighting in="blur" lighting-color="#fff" result="specular" specularConstant="2.019" specularExponent="25" surfaceScale="5">
                <feDistantLight azimuth="245" elevation="25"/>
            </feSpecularLighting>
            <feComposite in="specular" in2="SourceGraphic" k2="1" k3="1" operator="arithmetic" result="composite1"/>
            <feComposite in="composite1" in2="color" operator="atop" result="composite2"/>
        </filter>
    </defs>
    <g fill="url(#1UM_svg__c)" filter="url(#1UM_svg__d)" transform="translate(-96.557 -23.219)scale(.98185)">
        <path fill="#876419" d="m148.702 29.817-.271 1.202.85-.22zm.58.982H109.09l6.41 44.002-.454-.121.578.98 13.14 3.935a.9.9 0 0 0 .27.022l13.41-4.26 6.836-44.558z"/>
        <path fill="url(#1UM_svg__e)" d="m-37.3-31.01-13.408 4.26-6.837 44.558h40.19l-6.535-44.862-13.138-3.935a.9.9 0 0 0-.271-.021z" transform="rotate(180 45.578 23.813)"/>
    </g>
    <path fill="#ac812a" d="m29.567 53.989.303.943 13.431-4.162-.568-.964z"/>
    <path fill="#9a0000" d="M33.76 51.574a1.5 1.5 0 0 0 .47-.084c.073-.026.259-.076.458-.15.2-.074.429-.166.633-.38a.99.99 0 0 0 .18-.973c-.134-.334-.395-.604-.807-.922l-.05-.037-.057-.026c-1.008-.436-1.235-.832-1.381-1.33-.078-1.348-.48-1.942-1.303-2.863-.299-.272-.66-.527-1.217-.934l-.158-.113c1.39.707 2.323 1.27 3.143 2.078.106.087.15.328.154.338.44.986.532 1.408 1.147 2.334.36.543.906 1.024 1.488 1.363.29.17.593.318.9.395s.622.082.936-.031c.137-.05.617-.078.976-.518.18-.22.252-.586.159-.898-.094-.313-.292-.603-.612-.95l-.072-.078-.098-.043c-1.008-.436-1.234-.832-1.38-1.33-.172-.584-.148-1.552-.569-2.105-.828-.928-1.396-1.145-2.789-1.848-1.393-.7-2.459-1.623-3.36-2.045-.098-.084-.175-.146-.269-.225a7 7 0 0 0 .908.3c1.864.54 3.153.286 3.217.273l1.235-.533c-1.807-1.173-3.482-2.393-4.415-3.895.648.454 1.329.967 1.965 1.291.87.443 1.515.69 1.91.73.104.011.228.01.354.002.378-.025.785-.122.787-.212 0-.028-.189-.16-.42-.293-.485-.281-1.164-.795-1.92-1.452a80 80 0 0 0-.738-.634c-.115-.097-.212-.194-.215-.215-.009-.067.58.17 1.213.488 1.233.619 2.122.82 3.104.7.807-.1 1.402-.423 1.863-1.012.368-.47.355-.553-.051-.317-1.124.655-2.545.504-3.098-.33-.403-.608-.192-1.452.475-1.896.448-.3 1.233-.443 2.684-.493 1.516-.051 3.052-.48 4.005-1.119.51-.34 1.248-1.075 1.155-1.148-.017-.014-.208.075-.424.197-1.286.725-2.567.992-3.924.817-.41-.054-1.103-.246-1.064-.295.011-.016.282-.093.601-.172 1.029-.255 1.75-.636 2.414-1.278.606-.585 1.016-1.297 1.46-2.53.272-.76.581-1.884.528-1.925-.017-.013-.374.427-.794.979-.955 1.254-1.276 1.56-2.051 1.951a2 2 0 0 1-.748.219c-.23.028-.4.03-.377.004s.194-.117.379-.2c.73-.326.993-.659 1.818-2.312.842-1.687 1.128-2.018 1.822-2.105.538-.068 1.207.207 1.543.634.108.138.212.25.23.248.058-.005.026-.63-.044-.904-.161-.628-.45-1.091-.895-1.43-.854-.65-2.21-.628-3.1.051-.481.369-.063-.293.653-1.031.6-.619.651-.678.85-.996.372-.596.398-.935.172-2.397-.224-1.443-.193-1.766.214-2.246.228-.268.472-.445.786-.566.122-.047.22-.106.216-.131-.01-.085-.492-.274-.818-.32-.593-.085-1.29.15-1.826.611-.148.127-.286.226-.309.22-.07-.015.152-.696.344-1.05a3.4 3.4 0 0 1 1.105-1.225c.212-.136.44-.255.51-.263.241-.03.238-.139-.011-.377a12.6 12.6 0 0 0-1.606-1.297c1.851-.716 3.479-1.49 4.045-4.598-.681.444-2.507 1.364-3.186 1.645-3.44 1.874-5.437 1.178-9.117 1.281-1.58.062-5.507.648-6.8.885-1.338.244-1.429.496-3.545 1.011-.012 3.435 8.073 5.62 6.652 12.461-.008.12.002.246.014.371a20.3 20.3 0 0 0 3.398.11c.332-.02.624-.053.844-.092s.377-.106.361-.095l1.084-.698-.332 1.246c-.36 1.358-1.058 2.1-1.848 2.477-.453.216-.89.295-1.338.402.43.308.798.634 1.356.875.879.38 1.814.629 2.342.659l.85.048-.458.72c-.518.815-1.367 1.146-2.17 1.284-.473.082-.873.096-1.308.123.18.213.288.388.502.604.443.447.887.847 1.136 1.105l.413.424-.489.336c-.627.43-1.347.655-2.076.742s-1.47.037-2.14-.08a7.4 7.4 0 0 1-1.754-.521 3.4 3.4 0 0 1-.621-.354c-.176-.13-.333-.259-.43-.504l1.465-.052c.384.174.92.344 1.511.447.954.166 1.981.06 2.848-.285-.2-.192-.335-.317-.57-.555-.466-.47-.938-.973-1.211-1.48l-.342-.633.71-.1c.732-.103 1.52-.088 2.19-.203.317-.055.465-.277.705-.395-.502-.13-.96-.179-1.498-.412-.962-.416-1.895-.958-2.492-1.636l-.492-.561.705-.242c.869-.299 1.656-.385 2.229-.658.382-.183.68-.518.941-1-.183.021-.351.05-.56.062-.717.043-1.57.039-2.393-.01-.822-.048-1.606-.136-2.21-.277-.3-.071-.554-.148-.78-.28a1 1 0 0 1-.13-.085 2 2 0 0 1-.866-.918c-1.495-2.204-1.078-4.871-4.125-7.873l-1.42-.086c-.281.08-1.18.488-1.442.818-.037-1.608-.671-3.46-2.236-5.055-.227-.23-.276-.381-.295-.537-.019-.155.013-.338.055-.576.04-.226.369-.663.765-1.117.397-.454.88-.93.926-1.635l-1.68.977c-.391.448-.876.919-.996 1.603-.036.211-.105.509-.062.867.043.36.22.76.572 1.12 1.579 1.608 2.052 3.459 1.938 4.92q-.008.083-.018.164a.6.6 0 0 0-.545-.067c-.385.138-.402.2-.865.406-.464.207-.969.503-1.295 1.057a1 1 0 0 0-.06.238c-.003.014-.032.094-.297.297a7 7 0 0 1-1.047.615.76.76 0 0 1-.278-.252c-.157-.228-.248-.634-.244-1.166.008-1.063.372-2.537.541-3.851.1-.78.06-1.359-.113-1.824s-.478-.782-.762-1.024l-2.345-1.496c.413 1.34 1.235 1.864 1.699 2.258.232.197.374.349.47.61.097.26.149.665.06 1.347-.156 1.22-.54 2.702-.55 3.973-.005.635.079 1.243.42 1.74q.14.202.336.357a.62.62 0 0 0 .227.59l.757.533c1.494 2.177 2.433 3.108 2.612 4.756a7 7 0 0 0-.422.543 8.8 8.8 0 0 0-.893 1.606q-.165.39-.248.728c-.054.226-.1.42-.023.688.27.94.908 1.919 1.512 2.716.301.4.594.748.834 1.01.035.04.068.072.101.108.018.207.074.41.158.615.091.221.213.442.342.668.332.568.775 1.152 1.233 1.756.454.604.885 1.248 1.226 1.81q.244.4.375.73.13.333.152.596l-.32 2.325c-.038.05-.079.101-.115.15a4.6 4.6 0 0 0-.387.584c-.102.192-.21.388-.154.693.052.289.17.466.324.735a11.7 11.7 0 0 0 1.18 1.668q.149.169.299.299c.1.086.182.176.406.222q.045.01.09.01c.208.007.418-.1.523-.209a1.1 1.1 0 0 0 .23-.369c.106-.248.172-.525.237-.816s.126-.59.187-.84a3 3 0 0 1 .16-.487l.03-.046.017-.053c.1-.284.285-.59.52-.957.553.325 1.152.704 1.76 1.14.73.522 1.275.937 1.728 1.342a8.2 8.2 0 0 1 1.174 1.291c.063.148.122.28.18.405l.004.01c.129.352.153.66.197 1.029.051.425.14.938.49 1.467.361.543.907 1.022 1.489 1.361.29.17.591.318.898.395q.23.059.465.056zm.083-1.017c-.16.009-.546-.066-.942-.297-.452-.264-.912-.68-1.158-1.05a1.8 1.8 0 0 1-.2-.4l-.003.005-.01-.043a2 2 0 0 1-.049-.194c-.069-.277-.187-.733-.295-.99-.121-.287-.2-.563-.297-.816l-.025.011a1.2 1.2 0 0 0-.225-.486 8.3 8.3 0 0 0-1.299-1.41c-.479-.416-1.04-.824-1.79-1.361a33 33 0 0 0-1.727-1.157q.13-.21.27-.453c.302.089.641.198 1.025.336.869.636 2.205 1.662 3.103 2.317.495.36.776.58.998.798.123.12.23.247.342.39l.004.003q.171.16.29.377l.01.016v.002h-.001c.312.58.363 1.374.392 1.828.21.686.734 1.397 1.866 1.906.275.219.368.359.402.42-.043.027-.082.057-.182.094-.139.051-.295.09-.447.144a.2.2 0 0 1-.053.01zm4.06-1.248c-.157.009-.543-.066-.94-.297-.452-.264-.911-.681-1.157-1.053a6.5 6.5 0 0 1-.622-1.14c-.217-.284-.535-1.122-.906-1.7-1.109-1.085-2.197-1.612-4.056-2.529-1.619-.801-3.162-1.447-4.23-1.72l-.056-.046-.334-.084c-.387.865-.885 1.633-1.43 2.383-.16.222-.185.387-.236.49-.097.2-.116.236-.17.456-.125.514-.266 1.575-.382 1.53-.481-.577-.996-1.142-1.196-1.82 0 0 .079-.164.102-.203s1.883-2.562 1.883-2.562l.396-1.281-.002-.002a2 2 0 0 0-.06-.262 1.35 1.35 0 0 0-.243-.566 6.4 6.4 0 0 0-.748-1.073c-.513-.611-1.159-1.182-1.763-1.763-.48-.456-.923-.906-1.291-1.319l.05.008c.557.08 1.214.141 1.883.176q.432.022.856.031c.56.28 1.005.75 1.392 1.032.083.061.946 1.01 1.065 1.06 1.373 1.644 2.622 3.145 4.45 4.254.936.444 1.945 1.303 3.298 1.984.639.321 1.017.557 1.33.801 1.244.61 1.472 1.683 1.455 2.293.023.106.036.205.068.317.196.665.73 1.346 1.782 1.857.246.271.351.465.375.539-.017 0-.234.1-.51.2a.2.2 0 0 1-.053.01zm-14.935-8.297.047-.594.017-.16a2.8 2.8 0 0 0-.223-.957 7 7 0 0 0-.492-.941c-.345-.569-.787-1.12-1.21-1.672l.015.015a24 24 0 0 1 1.644 1.764c.444.523.691.974.77 1.35l-.443 1.01-.002.001zm.343-7.057q-.421 0-.865-.021a21 21 0 0 1-1.79-.168c-.476-.068-.862-.162-1.01-.217a1 1 0 0 1-.079-.06 6 6 0 0 1-.267-.276 14 14 0 0 1-.776-.937c-.558-.738-1.13-1.671-1.338-2.368.005-.004 0-.091.026-.203a4 4 0 0 1 .197-.574c.187-.445.476-.975.787-1.416s.67-.786.863-.883c.098-.048.12-.036.116-.037-.003 0 .036.05.07.096l.004.062c.003.11.004.272.002.463-.003.382-.013.884-.004 1.397s.035 1.034.107 1.484c.037.225.082.432.159.625.076.193.178.396.416.537.481.287 1.121.473 1.683.614.281.07.539.125.737.162a6 6 0 0 0 .345.052c.032.003.019.024.176-.008h.002c-.02.004.34.046.719.229.38.182.816.458 1.178.74.273.213.42.395.55.555-.423.09-1.166.152-2.008.152m-1.472-2.857c-.466-.117-1-.293-1.307-.45l-.004-.001q-.043-.043-.084-.088l-.002-.004a2 2 0 0 1-.101-.416 10 10 0 0 1-.094-1.344 40 40 0 0 1 .002-1.102l.082-.048a1.3 1.3 0 0 1 1.123-.073c.325.148.552.375.789.631l.01.01.008.008c.168.197.307.356.426.553a1.3 1.3 0 0 1 .197.74c-.035.464-.196.718-.943 1.582-.036.003-.067 0-.102.002m15.697-2.684-1.277-.207c1.338-1.669 1.988-3.239 2.072-4.408s-.172-2.408-.207-4.096c-.084-4.105.104-5.087.894-8.55l1.286-.23c-.789 3.453-1.03 4.7-.948 8.759.033 1.591.303 2.834.205 4.187-.097 1.354-.6 2.769-2.025 4.545m-15.29-4.343c-1.527-.053-2.036-3.088-2.548-4.276a1.6 1.6 0 0 0-.205-.283c.329-.578.54-1.297.604-2.1q.015-.205.017-.418c.15.027.411.019.535.121l.07.637.647.078c.278.323.4.555.512.842.614 1.994 2.933 3.822 1.09 5.225a1.5 1.5 0 0 1-.721.174m-5.439-1.579a.2.2 0 0 1-.101-.029c-.697-.41-.74-1.087-1.022-1.629 0 .006.074-.538.86-.119.316.707.098.685.65 1.342-.08.145-.211.43-.387.435" color="#000" enable-background="accumulate" filter="url(#1UM_svg__f)" overflow="visible" style="line-height:normal;font-variant-ligatures:normal;font-variant-position:normal;font-variant-caps:normal;font-variant-numeric:normal;font-variant-alternates:normal;font-variant-east-asian:normal;font-feature-settings:normal;font-variation-settings:normal;text-indent:0;text-align:start;text-decoration-line:none;text-decoration-style:solid;text-decoration-color:#000;text-transform:none;text-orientation:mixed;white-space:normal;shape-padding:0;shape-margin:0;inline-size:0;isolation:auto;mix-blend-mode:normal;solid-color:#000;solid-opacity:1"/>
</svg>
