<svg xmlns="http://www.w3.org/2000/svg" width="120" height="120" viewBox="0 0 120 136">
    <path fill="none" stroke="red" stroke-width=".004" d="m-42.05-32.95-.026.182-.092.643-.236 1.65-.707-.707-.89.889-1.792 1.793H-44v-1l1.333 1 .667.5-2 1.5v-1h-1.793L-44-25.707l.89.889.706-.707.236 1.65.118.825-.825-.118-1.125-.16-.525-.076.525-.525.182-.182-.182-.182-3-3-3 3-.182.182.182.182.525.525-.525.075-1.125.161-.825.118.118-.825.236-1.65.707.707.889-.889 1.793-1.793H-50v1l-2-1.5.666-.5 1.334-1v1h1.793L-50-30.293l-.889-.889-.707.707-.236-1.65-.092-.643-.026-.182.825.118.448.064.677.097.525.075-.525.525-.182.182.182.182 3 3 3-3 .182-.182-.182-.182-.525-.525.525-.075.677-.097.448-.064.825-.118m-7.01-8.425.114.415.012.044.041.148.115.615.07.626.035.615.002.022.01.649v.024l.431-.22.425-.238.381-.237.036-.022.406-.275.394-.29.211-.171.17-.136h-2.262v-1.11h2.092v-.91h-1.569v-1.11h1.569v-1.056h1.223v1.056h1.34v.463l.12-.194.082-.136.035-.058.085-.147.028-.048.108-.196.103-.197.1-.196.002.001.143.049 1.008.343-.216.412-.02.037-.211.367-.244.395-.257.386-.06.084-.208.29-.242.321-.034.044h1.484v1.11h-2.46l-.133.141-.135.135-.137.133-.14.13-.043.038-.099.09-.145.127h2.746V-34h-1.254v-.401h-2.215v.4h-1.192v-3.592l-.138.084-.136.083-.136.08-.137.08-.14.077-.114.059-.012.005-.005.003-.008.005-.003.002h-.002l-.076-.108-.092-.127-.105-.141-.113-.146-.116-.147-.085-.104-.029-.036-.001.036-.019.647-.025.377-.02.28-.072.615-.108.55-.15.467-.095.177-.102.189-.079.105-.092.092-.102.08-.113.063-.122.049-.13.035-.197.043-.206.03-.215.016-.223.006h-.233l-.234-.01h-.008l-.012-.21-.03-.211-.044-.21-.033-.108-.029-.097-.079-.2-.093-.185-.003-.005.225.016.106.005.1.005.184.005.163-.001.142-.005.12-.01.065-.014.06-.02.053-.026.049-.034.042-.04.037-.051.097-.197.043-.17.034-.134.059-.394.042-.47.001-.026.026-.503.01-.389.002-.08v-.056l.002-.034v-.014l-.219.271-.223.262-.227.25-.23.234-.064.059-.168.157-.2.168-.024.02-.007.006-.086-.168-.105-.183-.002-.003-.122-.194-.13-.192-.13-.178-.098-.12-.027-.034.366-.264.365-.32.357-.368.31-.375.024-.029.303-.429.26-.443-.029-.196-.033-.193-.037-.192-.042-.19-.046-.189-.025-.092-.007-.026-.006-.021-.007-.022-.003-.017-.003-.009-.001-.002-.002.002-.18.193-.185.183-.186.174-.185.164-.182.155-.095.077-.018.016-.032.026-.02.015-.01.01-.005.003-.09-.179-.109-.198-.12-.205-.13-.201-.133-.188-.037-.045-.014-.017-.028-.034-.02-.026-.015-.018-.012-.014-.007-.009.21-.143.216-.16.217-.174.219-.186.217-.196.213-.205-.132-.203-.145-.201-.155-.2-.05-.057-.118-.14-.06-.065-.119-.132-.19-.197.477-.357.408-.306.168.16.158.159.149.161.14.163.131.163.123.165.113-.142.109-.143.103-.141.097-.142.089-.14.081-.14.18.113.774.489-.13.211-.083.128-.057.088-.031.045-.12.173-.158.221-.165.219-.03.04-.14.178.14.362.09.235m-5.557-1.397L-56-34.292l-.248 1.524-.696 4.268-.162 1-.619 3.794-.278 1.708h22.006l-.03-.19-.867-5.312-.162-1-.466-2.858-.23-1.41-.248-1.523-1.382-8.48v-.032h-.007L-42-44.587l-5-3.416-5 3.416-2.61 1.784h-.008v.031M-38-44l.2 1.197 1.672 10.035 1.795 10.77L-34-20h-26l2.128-12.768 1.672-10.035L-56-44l1.775-1.183 5.745-3.831h.001L-47-50l9 6m-6.894 2.937.132-.149.128-.15.124-.152.12-.155.113-.157h-.877v.91h.123l.041-.044.096-.103m-1.13 3.84h2.216v-.755h-2.215v.755m2.215 1.797v-.795h-2.215v.795Zm0 0" transform="matrix(4.29492 0 0 4.26451 261.99 217.49)"/>
    <path fill="red" d="M4.46 131.988c0-.066 3.849-23.058 8.552-51.09l8.55-50.968L60.118 4.406l19.16 12.684c10.54 6.976 19.227 12.746 19.305 12.824.125.125 17.191 101.332 17.191 101.953 0 .219-6.195.246-55.656.246-30.61 0-55.652-.054-55.656-.125m102.974-8.703c-.055-.246-3.34-20.219-7.301-44.379-4.031-24.578-7.293-44.008-7.403-44.113-.19-.18-31.617-21.492-32.296-21.902-.317-.192-1.711.714-16.746 10.918-9.02 6.117-16.399 11.195-16.399 11.285 0 .207-14.36 87.789-14.473 88.273l-.086.371h94.797Zm0 0"/>
    <path fill="red" d="M59.375 64.703c0-4.203-.043-7.637-.09-7.637-.05 0-.847.442-1.77.985-.925.543-1.722.984-1.777.984s-.527-.57-1.047-1.273c-1.175-1.578-1.593-2.075-1.671-1.992-.036.035-.145 1.468-.247 3.183-.343 5.692-.992 8.719-2.32 10.8-1.055 1.65-2.766 2.282-6.266 2.317l-1.917.02-.282-1.5c-.156-.824-.465-1.945-.687-2.492l-.403-.993 2.442-.05c2.16-.047 2.48-.09 2.812-.383.938-.828 1.418-3.172 1.633-7.945.125-2.75.117-3.344-.035-3.125-.898 1.285-5.352 5.898-5.691 5.898-.075 0-.32-.352-.547-.777s-.813-1.332-1.301-2.008-.918-1.305-.95-1.399c-.034-.093.188-.34.493-.546 2.281-1.536 5.14-4.676 7.059-7.747l.789-1.261-.305-1.63c-.395-2.136-.692-3.355-.817-3.355-.054 0-.507.414-1.003.914-.497.504-1.54 1.457-2.317 2.118l-1.414 1.203-.527-1.008c-.461-.879-1.285-2.176-2.11-3.32-.234-.325-.18-.391 1.203-1.418a38 38 0 0 0 2.739-2.29l1.293-1.206-.73-1.067c-.403-.586-1.325-1.734-2.048-2.547L40.25 32.68l1.715-1.282c1.21-.91 1.8-1.253 2.02-1.183.3.094 1.831 1.719 2.995 3.18l.567.71.55-.628c.305-.348.887-1.133 1.298-1.743.41-.609.785-1.109.835-1.109.051 0 .934.531 1.965 1.176 1.114.695 1.832 1.246 1.77 1.355-.395.668-1.91 2.848-2.719 3.91-.535.7-.969 1.368-.969 1.485s.223.789.496 1.492c1.297 3.34 2.145 8.61 2.149 13.367 0 .656.05 1.192.113 1.192.223 0 3.34-1.727 5.024-2.786 1.48-.93 3.707-2.52 5.285-3.773l.414-.332-4.922-.004h-4.918v-4.602h8.93V39H56.23v-4.598h6.618V29.97h5.125v4.433h5.789v1.024c0 .883.031.988.234.777.219-.223 2.512-4.144 2.637-4.508.055-.164 4.347 1.137 4.64 1.407.282.257-2.902 5.484-5.34 8.773l-.851 1.148 3.227.047 3.226.043v4.59l-5.332.008-5.336.004-3.555 3.437h11.743v21.184H73.93v-1.64h-9.758v1.64h-4.797Zm14.555 0v-1.726h-9.758v3.449h9.758Zm0-7.555v-1.726h-9.758v3.45h9.758Zm-4.418-15.02c.949-1.015 2.433-2.866 2.433-3.03 0-.055-.894-.098-1.984-.098h-1.988v2.055c0 1.902.023 2.05.316 2.05.172 0 .723-.437 1.223-.976m-30.481 76.777c0-.34 1.38-9.867 1.438-9.941.035-.04.71.57 1.504 1.355l1.445 1.426 5.867-5.828 5.871-5.828h-8.011l-.047 2.066-.043 2.063-4.106-3.059-4.11-3.062 4.063-3.028c2.235-1.664 4.102-3.027 4.149-3.027s.086.887.086 1.973v1.968h8.02l-5.79-5.746c-3.18-3.164-5.86-5.75-5.949-5.75-.09 0-.797.63-1.574 1.399L40.43 87.28l-.715-5.02c-.395-2.757-.684-5.05-.645-5.09.07-.07 9.438 1.2 9.875 1.345.164.05-.222.539-1.199 1.504l-1.437 1.43 6.902 6.859 6.906 6.855 6.903-6.855 6.906-6.852-1.438-1.434c-.965-.964-1.355-1.457-1.195-1.507.477-.157 9.805-1.414 9.887-1.332.043.043-.246 2.332-.649 5.09l-.722 5.007-1.414-1.394c-.778-.77-1.489-1.399-1.575-1.399-.09 0-2.77 2.586-5.953 5.75l-5.785 5.746h8.02v-4.109l4.011 2.98a670 670 0 0 1 4.153 3.106c.078.07-1.707 1.508-3.97 3.191l-4.112 3.067-.047-2.063-.047-2.066h-8.008l5.867 5.828 5.871 5.828 1.493-1.476 1.496-1.477.703 4.969c.386 2.73.703 5.047.699 5.144-.004.114-1.734-.07-4.926-.527-2.707-.39-5.031-.711-5.164-.711-.137-.004.442-.691 1.281-1.527l1.524-1.52-6.82-6.773c-3.754-3.727-6.899-6.774-6.989-6.774s-3.23 3.047-6.984 6.774l-6.82 6.773 1.523 1.52c.84.836 1.414 1.523 1.281 1.527-.137.004-2.46.32-5.164.71-3.183.454-4.922.642-4.922.528m0 0"/>
    <path fill="#f9f9f9" d="M13.066 123.328c0-.527 14.391-88.035 14.512-88.226.184-.297 32.3-22.047 32.559-22.047.117 0 7.492 4.937 16.383 10.972C91.773 34.38 92.695 35.031 92.809 35.562c.062.313 3.25 19.668 7.078 43.016 3.832 23.348 7.062 43.024 7.183 43.723l.22 1.273H60.175c-41.688 0-47.11-.027-47.11-.246m31.59-4.863c2.684-.375 4.91-.711 4.953-.746.04-.04-.613-.75-1.449-1.582l-1.52-1.516 6.743-6.691 6.738-6.692 6.777 6.735 6.778 6.73-3.055 3.047 5.402.777c2.973.426 5.418.758 5.438.735.05-.059-1.457-10.535-1.527-10.625-.036-.04-.73.59-1.547 1.394l-1.485 1.469-5.664-5.621-5.66-5.625h7.36v2.137c0 1.171.046 2.132.105 2.132.195 0 8.644-6.316 8.61-6.437-.02-.063-1.97-1.555-4.333-3.313l-4.3-3.203-.094 4.25h-7.348L76.82 84.656l1.532 1.516c.84.832 1.539 1.476 1.55 1.433.008-.043.368-2.46.797-5.375.696-4.742.746-5.293.5-5.293-.273 0-8.984 1.215-10.066 1.403l-.563.097 1.551 1.551 1.555 1.547-6.739 6.692-6.734 6.691-13.562-13.461 1.507-1.504c1.504-1.5 1.508-1.504 1.036-1.598-1.532-.308-10.188-1.44-10.282-1.347-.101.101 1.18 9.555 1.403 10.336.07.25.36.035 1.597-1.192l1.516-1.496L54.66 95.82h-7.35l-.043-2.125-.047-2.125-4.285 3.192a550 550 0 0 0-4.356 3.261c-.07.07 8.473 6.5 8.637 6.5.047 0 .086-.96.086-2.132v-2.137h7.523l-5.66 5.625L43.5 111.5l-1.488-1.469c-.903-.894-1.543-1.41-1.63-1.312-.136.152-1.515 9.453-1.515 10.226 0 .332.063.371.453.293.25-.05 2.653-.398 5.336-.773m19.68-46.785v-.82h9.426v1.64h5.625V50.988H67.805l1.613-1.554 1.617-1.551 5.332-.008 5.336-.004v-4.93h-6.316l.597-.777c1.641-2.129 5.72-8.625 5.72-9.105 0-.059-1.063-.457-2.36-.883a370 370 0 0 1-2.543-.844c-.106-.039-.606.691-1.114 1.625-.503.93-1.105 1.988-1.335 2.352l-.415.656-.007-1.727h-5.79v-4.433h-5.456v4.43l-3.352.042-3.348.043-.093 4.844h6.793v3.777H53.75v4.922l4.672.043 4.672.047-.992.79c-2.028 1.616-8.317 5.53-8.883 5.53-.07 0-.13-.535-.13-1.191-.003-1.941-.327-5.652-.675-7.668-.363-2.125-.762-3.59-1.5-5.535l-.508-1.344.992-1.293c1.122-1.465 2.848-4.047 2.848-4.265 0-.153-4.113-2.77-4.18-2.66-.515.847-2.011 2.953-2.246 3.16-.3.273-.336.253-.902-.504-.324-.434-1.148-1.336-1.832-2.008l-1.246-1.223-.559.403c-2.12 1.52-3.246 2.39-3.25 2.507-.004.078.446.633 1.004 1.235 1.094 1.183 2.957 3.574 2.957 3.793 0 .226-2.082 2.086-3.808 3.402l-1.621 1.238.746 1.008a22 22 0 0 1 1.386 2.16c1.102 1.989.903 1.934 2.403.657a63 63 0 0 0 2.324-2.094l1.016-.98.34 1.456c.636 2.707.636 3.032.023 4.114-1.438 2.543-4.742 6.25-6.934 7.773-.55.383-1 .719-1 .746s.446.664.988 1.414c.543.75 1.22 1.79 1.497 2.309.28.52.586.945.675.945.2 0 3.711-3.453 4.848-4.762l.785-.902-.094 2.79c-.148 4.456-.636 6.733-1.62 7.554-.473.398-.567.41-2.962.41h-2.472l.32.617c.441.86.969 2.727 1.098 3.883l.11.969 2.175-.098c4.168-.18 5.48-.738 6.637-2.824 1.265-2.285 1.742-4.805 2.203-11.613l.117-1.758 1.23 1.625 1.23 1.62.485-.245a52 52 0 0 0 1.707-.969l1.219-.715V72.5h5.293Zm0 0"/>
    <path fill="#f9f9f9" d="M68.14 41.055v-1.89h3.512l-.465.616c-1.144 1.524-2.644 3.16-2.894 3.16-.086 0-.152-.828-.152-1.886m-3.805 16.093v-1.562h9.426v3.121h-9.426Zm0 7.555v-1.562h9.426v3.12h-9.426Zm0 0"/>
</svg>
