<svg xmlns="http://www.w3.org/2000/svg" width="120" height="120" viewBox="0 0 120 136">
    <path fill="none" stroke="red" stroke-width=".004" d="m-47-33 .174.232.326.435.75 1 .25.333h-1v1.856l.125.06.136.092.123.108.108.123.06.09.031.046.072.147.052.154.032.16.01.164-.01.163-.032.16-.01.03-.042.125-.072.147-.09.136-.109.123-.123.108-.136.091-.125.062V-25h1l-1 1.333-.5.667-.5-.667-.75-1-.25-.333h1v-1.855l-.125-.062-.136-.091-.123-.108-.108-.123-.091-.136-.072-.147-.043-.126-.009-.028-.032-.161-.01-.163.01-.163.032-.16.052-.155.072-.147.032-.047.059-.089.108-.123.123-.108.136-.091.125-.061V-31h-1l.25-.334.75-.999.326-.435L-47-33m3.142-8.13.114.05.28.12.519.223-.234.855-.286.79-.333.729-.38.67-.425.613-.18.216-.273.326-.015.018.015.01.422.267.468.252.498.226.527.2.133.042.423.13.418.104.056.014.04.009.03.007.024.007.017.004-.152.165-.16.2-.16.222-.153.231-.136.224-.113.206-.134-.04-.5-.146-.597-.214-.56-.242-.391-.202-.136-.07-.494-.299-.37-.262-.062-.044-.032-.023-.457.32-.481.294-.016.008-.488.26-.525.242-.546.22-.489.171-.013.005-.03.01-.021.008-.012.004-.09-.2-.111-.22-.13-.227-.105-.17-.033-.05-.14-.202-.118-.145-.02-.026.51-.147.313-.11.18-.064.476-.2.457-.226.439-.253.419-.28-.28-.344-.092-.114-.345-.493-.319-.527-.292-.56-.159-.354-.107-.238-.241-.625h-.417l-.062.973-.117 1.013-.167.925-.017.093-.267.99-.363.926-.022.039-.384.676-.023.04-.015.027-.014.023-.008.014-.006.012-.145-.133-.18-.145-.202-.149-.207-.14-.197-.126-.171-.1.51-.912.353-1.008.027-.127.197-.931.124-1.065.053-1.027.012-.948V-44h8.29v1.33h-6.975v1.59h5.3l.251-.05m-10.76-1.642L-56-34.292l-.248 1.524-.288 1.768-.978 6-.49 3.002h22.007l-.49-3.002-.285-1.75-.692-4.25-.288-1.768-.248-1.523-1.382-8.48v-.032h-.007L-42-44.587l-5-3.416-5 3.416-2.61 1.784h-.008v.031M-38-44l.2 1.197 1.672 10.035 1.795 10.77L-34-20h-26l2.128-12.768 1.672-10.035L-56-44l1.775-1.183 5.745-3.831h.001L-47-50l9 6m-9.442 4.665.217.42.001.003.237.4.26.383.28.362.305.341.3-.34.28-.36.26-.383.233-.4v-.003l.013-.024.196-.396.183-.443h-2.96Zm0 0" transform="matrix(4.29492 0 0 4.26451 261.99 217.49)"/>
    <path d="M4.46 131.988c0-.066 3.849-23.058 8.552-51.09l8.55-50.968L60.118 4.406l19.16 12.684c10.54 6.976 19.227 12.746 19.305 12.824.125.125 17.191 101.332 17.191 101.953 0 .219-6.195.246-55.656.246-30.61 0-55.652-.054-55.656-.125m102.974-8.703c-.055-.246-3.34-20.219-7.301-44.379-4.024-24.515-7.293-44.008-7.403-44.113-.19-.176-31.613-21.488-32.296-21.902-.317-.192-1.711.714-16.746 10.918-9.02 6.117-16.399 11.195-16.399 11.285 0 .207-14.36 87.789-14.473 88.273l-.086.371h94.797Zm0 0"/>
    <path d="M49.867 70.879c-.418-.8-1.09-1.926-1.492-2.5s-.68-1.09-.613-1.145c.066-.058.601-.23 1.191-.39 1.563-.418 4.664-1.649 6.285-2.496 1.715-.891 4.137-2.387 4.137-2.555 0-.066-.66-.992-1.465-2.055-.8-1.062-1.851-2.582-2.328-3.379-1.02-1.691-2.895-5.562-3.578-7.382l-.48-1.274h-1.88l-.085 1.027c-.739 8.817-1.567 13.239-3.352 17.84-.559 1.442-2.387 5.078-2.8 5.575-.028.03-.481-.297-1.012-.727a32 32 0 0 0-2.204-1.586c-.68-.441-1.265-.828-1.293-.86-.03-.027.43-.929 1.024-2 1.86-3.347 3.031-7.34 3.773-12.863.313-2.297.352-3.605.418-13.343l.075-10.797h35.53v5.418l-15.011.043-15.008.043v6.894l24.477.063 1.57.68c.867.374 1.594.703 1.621.73.086.086-.972 3.7-1.543 5.27-1.5 4.113-3.863 8.296-6.351 11.242a63 63 0 0 0-.97 1.168c-.175.23-.062.355.833.937 2.5 1.613 6.95 3.48 10.262 4.3.746.188 1.457.372 1.574.411.137.047-.094.441-.664 1.129-.48.578-1.281 1.723-1.781 2.543-1.067 1.742-.715 1.687-3.973.597-3.723-1.25-7.32-3.03-9.977-4.945l-.965-.695-1.847 1.234c-2.238 1.496-6.254 3.504-9.094 4.54-1.152.421-2.129.765-2.172.765-.039 0-.418-.652-.832-1.457m15.137-14.184c.558-.652 1.488-1.898 2.07-2.761 1.059-1.567 3.051-5.47 3.051-5.965 0-.239-.64-.266-6.367-.266-5.813 0-6.367.027-6.367.274 0 .418 1.879 4.03 2.918 5.617 1.332 2.031 3.207 4.293 3.558 4.293.067 0 .578-.535 1.137-1.192m-7.996 58.379-3.07-4.062 2.058-.047 2.055-.047v-7.98l-.805-.52c-.875-.563-1.855-1.86-2.176-2.883-.293-.926-.129-2.816.317-3.68.476-.921 1.343-1.867 2.078-2.257l.586-.317v-8.133h-4.137l3.059-4.023c1.687-2.215 3.105-4.031 3.16-4.035.05-.004 1.465 1.805 3.14 4.023l3.051 4.035h-4.136v8.157l.402.183c.785.356 1.8 1.438 2.27 2.414 1.105 2.32.218 5.328-1.946 6.586l-.727.426v8.004l4.157.094-3.074 4.062c-1.688 2.235-3.098 4.067-3.133 4.067s-1.442-1.832-3.13-4.067m0 0"/>
    <path fill="#f9f9f9" d="M13.066 123.328c0-.527 14.391-88.035 14.512-88.226.184-.297 32.3-22.047 32.555-22.047.12 0 7.496 4.937 16.387 10.972 15.273 10.36 16.175 11 16.285 11.535.066.313 3.254 19.668 7.082 43.016 3.832 23.348 7.062 43.024 7.183 43.723l.22 1.273H60.175c-41.79 0-47.11-.027-47.11-.246m50.36-8.125c1.773-2.348 3.226-4.305 3.226-4.351s-.968-.086-2.152-.086h-2.148v-7.672l.757-.477c.88-.547 1.778-1.683 2.149-2.715.406-1.125.34-2.922-.149-3.98-.484-1.047-1.363-2.059-2.171-2.488l-.586-.317V85.32l2.16-.047 2.16-.043-3.258-4.316c-1.793-2.375-3.285-4.289-3.32-4.254a573 573 0 0 0-3.274 4.313l-3.215 4.257 2.141.043 2.14.047v7.797l-.597.32c-1.484.793-2.547 2.711-2.547 4.602 0 1.918.813 3.473 2.36 4.523l.785.536v7.668h-2.153c-1.18 0-2.148.039-2.148.086 0 .12 6.437 8.617 6.531 8.617.043 0 1.531-1.922 3.309-4.266M44.492 70.691c1.285-2.27 2.301-4.82 3.137-7.879 1.031-3.765 1.504-6.882 2.094-13.761l.086-1.035 1.656.101.57 1.477c1.457 3.773 4.024 8.281 6.305 11.082l.855 1.05-1.058.704c-2.38 1.586-6.157 3.316-9.266 4.246-.816.246-1.508.465-1.535.488s.43.742 1.012 1.594c.582.855 1.297 2.047 1.586 2.648.3.625.632 1.094.773 1.094.43 0 4.215-1.48 6.316-2.473 2.176-1.023 3.313-1.668 5.426-3.058l1.336-.883 1.809 1.195c2.965 1.965 6.855 3.739 10.566 4.828 1.672.489 1.809.485 2.043-.027.328-.719 1.945-3.066 2.754-4 .879-1.02.89-1-.828-1.383-2.516-.562-6.531-2.074-8.68-3.27-1.375-.761-2.812-1.64-2.812-1.718 0-.035.437-.582.972-1.215 3.145-3.71 5.903-9.105 7.461-14.598.266-.949.489-1.843.493-1.984.003-.18-.614-.523-1.965-1.098-1.758-.742-2.04-.816-2.606-.683-.347.078-5.676.148-11.84.148l-11.207.004v-6.73h29.938v-5.75h-35.86l-.074 10.797c-.07 9.718-.11 11.05-.418 13.343-.484 3.59-1.09 6.313-1.953 8.785-.691 1.98-1.148 2.946-2.527 5.364l-.528.926 1.618 1.054c.89.582 1.976 1.364 2.414 1.742.437.375.824.684.855.684s.52-.812 1.082-1.809m0 0"/>
    <path fill="#f9f9f9" d="M62.867 56.645c-1.793-2.09-3.601-4.899-4.719-7.34l-.586-1.27h12.38l-.258.613c-1.036 2.465-2.864 5.497-4.528 7.52-1.39 1.695-1.265 1.668-2.289.477m0 0"/>
</svg>
