<svg xmlns="http://www.w3.org/2000/svg" width="120" height="120" viewBox="0 0 120 136">
    <path fill="none" stroke="red" stroke-width=".004" d="M-45.916-41.607h2.356v1.022h-2.356v-1.022m-2.14.597-.039-.038-.043-.04-.043-.04-.045-.039-.047-.036v.968h-.914v.778h1.277v1.067h-1.277v2.469l.035-.006.76-.136.482-.086.071.99-.65.144-.654.14-.009.002-.268.057-.367.078-.623.132-.592.127-.55.12-.098-.457-.144-.663v-.007l.228-.034.244-.038.122-.02.136-.023.269-.044.28-.047.288-.046v-2.652h-1.41v-1.067h1.41v-.778h-.812v-.465l-.086.086-.075.07-.01.01-.085.077-.085.074-.085.07-.066.055-.008.006-.008.007-.004.003-.048-.173-.068-.219-.082-.246-.028-.08-.059-.168-.086-.23-.031-.075-.031-.074-.016-.04.397-.312.394-.364.009-.01.372-.394.144-.176.166-.205.046-.056.32-.46.272-.476.045.02.683.31.194.089-.031.065-.031.064-.03.065-.033.063-.035.063-.034.056-.003.005.003.001.316.191.313.203.003.002.293.203.273.203.245.195.209.184-.017.034-.49.985-.008.015-.004.007-.001.003-.037-.036M-42-35.303l-.01.262-.031.225-.058.191-.085.161-.12.133-.153.11-.191.08-.22.06-.14.021-.111.018-.285.025-.323.013-.246.003h-.115l-.025-.169-.04-.196-.054-.208-.066-.206-.014-.036-.01-.027-.05-.129-.045-.093-.024-.049-.002-.004-.004-.008-.002-.004-.003-.006.237.01.232.002h.216l.19-.001.154-.002h.106l.07-.005.051-.014.036-.024.024-.037.012-.052.004-.067v-7.081h-3.28v8.384h-1.07v-9.512H-42v8.232m-1.64-1.212h-1.433v.54h-.765V-39.8h2.199v3.285m-4.2-1.342-.094.306-.005.014-.097.322-.095.315-.011.036-.081.263-.087.276-.082.244-.717-.226-.008-.002.075-.265.073-.29v-.006l.07-.315.064-.319.054-.31.042-.287.897.244h.002m-3.728.077.008-.002.765-.227.085.305.082.322.074.325.04.193.025.123.051.297.037.264-.8.221h-.001l-.017.005-.01.003-.028-.268-.042-.298-.055-.317-.006-.03-.058-.295-.073-.32-.077-.301m-3.051-4.992L-56-34.292l-.248 1.524-1.755 10.77h22.006l-1.755-10.77-.248-1.523-1.382-8.48v-.032h-.007L-42-44.587l-5-3.416-5 3.416-2.61 1.784h-.008v.031M-38-44l.2 1.197 1.672 10.035 1.795 10.77L-34-20h-26l2.128-12.768 1.672-10.035L-56-44l1.775-1.183 5.745-3.831h.001L-47-50l9 6m-6.525 12.818.707.707-2.682 2.682V-25h-1v-2.793l-.012-.012-.195-.195-2.475-2.475.707-.707 1.975 1.975V-31h1v1.793l1.975-1.975m-5.832-10.258-.138.161h2.15l-.2-.17-.215-.172-.228-.17-.164-.116-.072-.051-.244-.165-.203-.134-.015-.008-.01-.007-.012-.009-.007-.004-.118.177-.124.172-.13.168-.134.166-.136.162m5.922 2.608h-.638v1.356h.638Zm0 0" transform="matrix(4.29492 0 0 4.26451 261.99 217.49)"/>
    <path d="M4.46 131.988c0-.066 3.849-23.058 8.552-51.09l8.55-50.968L60.118 4.406l19.16 12.684c10.54 6.976 19.227 12.746 19.305 12.824.125.125 17.191 101.332 17.191 101.953 0 .219-6.195.246-55.656.246-30.61 0-55.652-.054-55.656-.125m102.974-8.703c-.055-.246-3.34-20.219-7.301-44.379-4.031-24.578-7.293-44.008-7.403-44.113-.19-.18-31.617-21.492-32.296-21.902-.317-.192-1.711.714-16.746 10.918-9.02 6.117-16.399 11.195-16.399 11.285 0 .207-14.36 87.789-14.473 88.273l-.086.371h94.797Zm0 0"/>
    <path d="M40.621 70.586c-.238-.762-.93-4.211-.86-4.281.044-.047 1.516-.313 3.274-.598l3.192-.52.086-11.57h-5.958v-4.27h5.954v-3.449h-3.473v-2.171l-1.004.921c-.55.508-1.05.918-1.113.918-.106-.004-1.606-4.214-1.785-5.004-.055-.246.129-.476.703-.902 2.61-1.933 5.93-5.726 7.644-8.738l.532-.938 1.273.582c.703.32 1.55.692 1.89.829l.614.25-.418.82c-.23.453-.395.844-.367.867.027.023.722.457 1.539.957 1.742 1.07 5.031 3.52 5.281 3.93.133.222-.04.703-.812 2.258-.54 1.086-1.016 1.972-1.055 1.972-.04 0-.324-.187-.625-.418l-.555-.418v4.285H50.61v3.45h5.457v4.27H50.61V64.46l.371-.086c1.344-.32 5.012-.879 5.102-.781.063.066.16.972.223 2.015l.113 1.891-7.66 1.621c-4.211.895-7.746 1.656-7.852 1.692-.105.039-.234-.063-.285-.227m13.793-29.184c0-.34-5.984-4.527-6.078-4.25-.09.262-1.606 2.254-2.57 3.368l-.813.945h4.73c2.602 0 4.731-.028 4.731-.063m0 0"/>
    <path d="M41.781 62.031a61 61 0 0 0-.695-3.722c-.285-1.274-.352-1.829-.219-1.91.297-.18 2.82-.84 2.906-.754.145.14 1.204 4.62 1.434 6.058l.23 1.438-.683.175c-.371.098-1.047.282-1.492.41-.45.13-.903.235-1.004.235-.113 0-.305-.766-.477-1.93M52.508 63l-1.328-.434.36-1.355c.202-.746.558-2.402.792-3.684.238-1.28.45-2.34.469-2.359.043-.031 3.484.91 3.547.969.097.101-2.207 7.23-2.348 7.261-.094.02-.766-.156-1.492-.398m5.875-10.86V31.942h23.16l-.047 18.434c-.039 14.578-.094 18.563-.262 19.059-.3.875-1.21 1.82-2.14 2.214-1.047.446-3.098.72-4.906.657l-1.477-.051-.285-1.313c-.156-.722-.442-1.703-.633-2.18-.188-.48-.344-.902-.344-.94 0-.04 1.203-.094 2.676-.118l2.676-.047.136-.52c.075-.284.118-7.265.094-15.515l-.043-15-14.304-.086v35.8h-4.301Zm0 0"/>
    <path d="M64.832 42.203v-2.05h9.922v4.105h-9.922Zm.332 13.711v-8.043h9.262v13.793h-6.121v2.297h-3.14Zm6.117-1.148v-2.957h-2.976v5.914h2.976ZM58.05 104.813v-5.958l-5.702-5.66-5.707-5.664 1.445-1.441 1.441-1.438 4.262 4.227 4.262 4.23v-7.796h4.136v7.796l4.258-4.23 4.262-4.227 1.445 1.438 1.442 1.441-5.703 5.664-5.704 5.66v11.91h-4.136Zm0 0"/>
    <path fill="#f9f9f9" d="M13.066 123.328c0-.527 14.391-88.035 14.512-88.226.184-.297 32.3-22.047 32.555-22.047.12 0 7.496 4.937 16.387 10.972 15.273 10.36 16.175 11 16.285 11.535.066.313 3.254 19.668 7.082 43.016 3.832 23.348 7.062 43.024 7.183 43.723l.22 1.273H60.175c-41.707 0-47.11-.027-47.11-.246m49.286-18.351v-5.954l11.578-11.5-1.575-1.554-1.57-1.559-4.219 4.188-4.214 4.183v-7.633h-4.465v7.47l-4.094-4.063c-2.254-2.239-4.172-4.067-4.266-4.067-.09 0-.851.688-1.691 1.524l-1.523 1.52 5.785 5.745 5.789 5.743v11.91h4.465Zm.496-50.375V36.703h13.894l-.086 30.79-2.785.046c-2.562.04-2.777.066-2.672.328.594 1.457.926 2.469 1.121 3.422l.23 1.129 1.888.05c2.066.052 4.07-.257 5.117-.788.777-.395 1.574-1.297 1.843-2.09.168-.485.223-4.625.262-19.215l.05-18.598H58.05v6.395l-1.362-1.094c-.75-.601-2.313-1.715-3.473-2.473-1.16-.761-2.11-1.41-2.11-1.445s.165-.394.364-.8c.195-.407.328-.77.289-.801-.14-.118-3.84-1.754-3.969-1.754-.07 0-.46.574-.871 1.273-1.613 2.762-4.895 6.516-7.29 8.332-.745.567-1.05.899-.98 1.07.055.133.497 1.383.98 2.77.485 1.39.919 2.566.966 2.613.05.047.535-.3 1.082-.77l.996-.859v1.828h3.473v3.122h-5.958v4.597h5.961l-.043 5.621-.046 5.621-3.192.52c-1.754.285-3.234.562-3.289.613-.11.11.754 4.399.942 4.703.082.133 2.425-.3 8.039-1.492 4.355-.926 7.945-1.699 7.976-1.722.031-.028.004-1.02-.062-2.207l-.121-2.16-.97.113c-.534.062-.968.05-.968-.024s.48-1.699 1.074-3.61c.59-1.913 1.075-3.55 1.075-3.64 0-.156-3.778-1.27-3.899-1.148-.035.035-.254 1.093-.484 2.351-.235 1.262-.61 2.985-.836 3.836-.227.848-.39 1.559-.367 1.578.027.02.62.203 1.328.41.703.204 1.28.426 1.28.493 0 .062-.315.16-.702.21-.387.055-1.02.15-1.406.212l-.704.109V53.781h5.457v-4.597h-5.457v-3.121h3.97v-1.97c0-1.085.05-1.972.112-1.972.063 0 .286.16.497.356.21.199.41.328.449.289.035-.04.55-1.032 1.148-2.203l1.086-2.137.008 17.039.008 17.035h4.797Zm-18.809 9.101 1.613-.445-.093-.59c-.524-3.246-1.551-7.45-1.797-7.355-.102.039-.899.273-1.778.523l-1.593.457.148.512c.285.972 1.113 5.277 1.227 6.383.097.917.164 1.101.386 1.039.149-.043.996-.278 1.887-.524m24.43-.726v-1.149h6.12V47.703h-9.593v16.422h3.473Zm6.453-20.774v-2.215H64.668v4.434h10.254Zm0 0"/>
    <path fill="#f9f9f9" d="M45.875 40.766c.238-.293.93-1.176 1.531-1.965 1-1.301 1.13-1.414 1.446-1.246.476.246 3.851 2.648 4.57 3.25l.578.488-8.562.008Zm22.594 14v-2.79h2.648v5.583H68.47Zm0 0"/>
</svg>
