<svg xmlns="http://www.w3.org/2000/svg" width="120" height="120" viewBox="0 0 120 136">
    <path fill="none" stroke="red" stroke-width=".004" d="m-17-33 .174.232.326.435 1 1.333h-1v2.5h2.5v-1l1.333 1 .667.5-2 1.5v-1h-1.792L-14-25.708l.707.708.182.182.182-.182.525-.525.075.525.161 1.125.118.825-.824-.118-1.651-.236.707-.707-.89-.889-1.792-1.792V-25h1l-1 1.333-.5.667-.5-.667-1-1.333h1v-1.792L-19.293-25l-.89.889.708.707-1.65.236-.825.118.118-.825.16-1.125.076-.525.525.525.182.182.182-.182.707-.708 1.792-1.792H-20v1l-2-1.5.666-.5 1.334-1v1h2.5V-31h-1l1-1.333.326-.435L-17-33m4.132-8.39.113.07.138.065.153.062.16.054.016.005.141.041.147.033-.015.1-.05.332-.096.325-.127.219-.007.012-.163.136-.015.013-.228.079-.286.024h-.813l-.383-.023-.153-.04-.131-.033-.198-.132-.124-.198-.05-.204-.015-.067-.006-.107-.009-.164-.004-.081v-.26l-.089.17-.075.142-.195.286-.23.26-.273.238-.317.214-.332.173-.016.008-.008.004-.004.002-.008.004-.026-.056-.03-.061-.034-.063-.039-.066-.039-.062-.004-.006-.049-.069v.001l-.003.005-.039.07-.187.337h3.33v2.205h-5.69v.276h7.096v.605h-7.096v.298h6.638v.018l-.001.048-.001.066-.003.074-.003.053v.02l-.008.058-.004.037-.024.239-.018.17-.052.365-.052.25-.01.04-.071.227-.085.17-.102.125-.098.076-.11.06-.078.03-.043.016-.125.032-.094.013-.035.005-.127.006-.134.01-.162.005h-.185l-.119-.001h-.083l-.215-.01-.214-.011-.004-.001h-.005l-.008-.07-.015-.08-.022-.083-.027-.087-.033-.087-.037-.083-.361.08-.255.056-.008.002-.035-.149-.01-.036-.039-.132-.042-.123-.018-.054-.069-.18-.076-.175-.082-.162.9-.161.076.145.075.154.073.158.067.156.046.119.01.029.048.135.071.007.066.004.053.002.005.001.052.001.045.001h.071l.023-.002.048-.005.042-.011.039-.016.038-.025.04-.033.04-.06.012-.028.026-.062.035-.123.032-.159.03-.199.029-.242H-20.5v-3.997h2.367l.028-.07.08-.21.023-.058.003-.009.024-.066-.11-.104-.061-.053-.065-.056-.137-.11-.084-.06-.057-.042-.138-.094-.13-.078.325-.195.26-.157h-.789v1.186h-.916v-1.186h-1.057l.454.14.343.105-.165.2-.178.198-.003.004-.191.201-.177.176-.017.017-.19.18-.158.14-.006.006-.007.006-.005.005-.1-.084-.124-.092-.136-.095-.124-.083-.013-.009-.131-.083h-.001l-.04-.024-.03-.017-.02-.012-.015-.01-.008-.004.174-.13.174-.14.169-.146.16-.15.15-.151.136-.148h-.419v-1.463h4.05v1.463h-.561l.136.08.14.09.133.096.126.095.113.094.094.088-.207.134-.243.157.243.02.736.064-.06-.079-.063-.075-.063-.072-.063-.066-.062-.06-.015-.013-.045-.04.368-.192.29-.21.014-.008.103-.103.143-.143.196-.277.152-.312.024-.072.073-.22.018-.056h-1.184v-.842h1.326l.01-.126.004-.038.011-.17.008-.175.008-.181.007-.185.007-.189h1.026l-.004.186-.007.183-.008.18-.009.176-.013.172-.003.041-.011.126h.86l-.1-.102-.025-.024-.083-.08-.114-.106-.116-.1-.115-.095-.11-.083.726-.467.168.111.17.122.163.13.152.13.135.125.112.117-.274.196-.176.126h.845v.842h-2.313l-.012.046-.002.01-.009.038-.012.047-.012.046-.012.045-.012.044h.805v.88l.003.098.012.068.025.043.04.024.06.01.081.002h.513l.078-.01.06-.038.045-.08.032-.135.007-.058.016-.145.01-.2.002-.026.001-.026.001-.019v-.013m-9.052-1.317v-.674h1.902l-.028-.065-.027-.064-.03-.064-.028-.063-.03-.06-.031-.06 1.09-.244.052.095.055.102.053.104.051.107.044.107.037.105h1.878v.674h-4.988m5.619 8.269-.082.016-.925.18-.011.003-.024-.157-.019-.084-.02-.092-.052-.188-.018-.057-.042-.136-.065-.191-.067-.182h.005l.957-.16.08.167.074.18.066.185.043.137.015.045.003.01.045.165.037.159m-1.886-.472.014.093.014.1.018.183.009.165-.299.044-.738.106-.025.004-.021.003-.013.002h-.01v-.162l-.011-.185-.02-.198-.027-.203-.034-.198-.041-.186.01-.001.93-.122.118-.015.048.18.043.193.035.197m-1.822-.106-.177.205-.188.207-.105.108-.09.094-.204.188-.208.166-.831-.431-.06-.03-.05-.027-.032-.017-.03-.014-.015-.01.216-.159.217-.183.21-.198.198-.203.177-.2.15-.189.332.167.655.33-.165.196m-4.608-7.757L-26-34.292l-.248 1.524-.45 2.768-.246 1.5-.162 1-.408 2.5-.49 3.002h22.007l-.03-.19-.119-.726-.188-1.152-1.334-8.184-.084-.518L-8-34.291l-1.382-8.48v-.032h-.007L-12-44.587l-5-3.416-5 3.416-2.61 1.784h-.008v.031M-8-44l.2 1.197 1.672 10.035 1.795 10.77L-4-20h-26l2.128-12.768 1.672-10.035L-26-44l1.775-1.183 5.745-3.831h.001L-17-50l9 6m-4.75 13.518-1.768-1.768h1.768v1.768m-6.75-1.768-1.768 1.768v-1.768h1.768M-19-31v1h-1.768L-19-31.768V-31m4 0v-.768L-13.232-30H-15v-1m-5.437-10.496h2.012v-.39h-2.012v.39m5.627 2.465h-4.42v.298h4.42v-.298m0 1.072v-.291h-4.42v.291Zm0 0" transform="matrix(4.29492 0 0 4.26451 133.142 217.49)"/>
    <path fill="red" d="M4.46 131.988c0-.066 3.849-23.058 8.552-51.09l8.55-50.968L60.118 4.406l19.16 12.684c10.54 6.976 19.227 12.746 19.305 12.824.125.125 17.191 101.332 17.191 101.953 0 .219-6.195.246-55.656.246-30.61 0-55.652-.054-55.656-.125m102.974-8.703c-.055-.246-3.34-20.219-7.301-44.379-4.035-24.601-7.29-44.008-7.403-44.11-.195-.183-31.625-21.5-32.296-21.905-.317-.192-1.72.722-16.746 10.914-9.02 6.12-16.399 11.199-16.399 11.289 0 .207-14.36 87.789-14.473 88.273l-.086.371h94.797Zm0 0"/>
    <path fill="red" d="M39.031 33.914v-1.312l4.13-.043 4.124-.043-.324-.723c-.18-.398-.293-.758-.246-.8.043-.048 1.023-.294 2.176-.552 2.414-.546 2.218-.62 2.976 1.13l.446 1.027h8.054v2.625H39.031ZM69.2 71.348c-.153-.543-.337-1.024-.407-1.067-.07-.047-.629.035-1.242.176-.61.14-1.203.223-1.313.18s-.293-.434-.402-.871c-.11-.438-.418-1.309-.684-1.934-.261-.625-.46-1.156-.441-1.176s.832-.176 1.805-.347l1.765-.313.586 1.242c.324.684.688 1.535.813 1.899l.23.656 1.098.047c.98.043 1.144.004 1.504-.352.449-.441.668-1.133.883-2.773l.148-1.11h-28.39V48.691h10.206l.364-.945.363-.941-.711-.617a21 21 0 0 0-1.652-1.254l-.934-.633.606-.344c.332-.191.902-.531 1.265-.758l.66-.41-1.86-.004-1.858-.008v5.094h-3.805v-5.094l-2.356.02-2.359.02 1.613.511c.887.285 1.614.606 1.614.711 0 .11-.957 1.172-2.125 2.36l-2.125 2.16-1.524-1.043-1.523-1.04.629-.488c.347-.27 1.265-1.097 2.039-1.847l1.402-1.356-.95-.004-.952-.004v-6.074h17.203v6.063l-2.375.093.926.61c.504.332 1.191.843 1.523 1.133l.602.523-.934.613c-.512.34-.867.653-.793.7.078.042.996.132 2.043.199 1.047.066 1.96.156 2.031.195.07.043-.101.477-.386.969l-.512.89h14.414v9.196h-24.48v1.476h30.433v2.301H50.441v1.477h28.45v.898c0 1.3-.461 4.367-.832 5.566-.414 1.329-1.176 2.137-2.344 2.48-.613.18-1.61.25-3.543.25H69.48Zm.429-16.336v-.739H50.44v1.477h19.19Zm0-3.285v-.739H50.44v1.48h19.19ZM54.082 39.742v-.906h-8.766v1.809h8.766Zm0 0"/>
    <path fill="red" d="M62.297 47.664c-.23-.383-.793-1.14-1.246-1.68L60.227 45l.91-.484c.504-.27 1.425-.961 2.058-1.54.934-.859 1.274-1.324 1.875-2.554.407-.828.782-1.668.84-1.871l.102-.371h-5.149v-3.45h5.79v-.792c0-.438.046-1.473.105-2.301l.11-1.504h2.1c2.087 0 2.102.004 2.052.37-.028.204-.086 1.24-.13 2.298l-.078 1.93h1.891c1.063 0 1.887-.067 1.887-.153s-.559-.656-1.242-1.27c-.68-.613-1.239-1.163-1.239-1.226 0-.113 2.579-1.785 2.754-1.785.168 0 2.086 1.418 2.942 2.176l.816.722-.933.645c-.516.355-.938.7-.942.77-.004.066.813.12 1.813.12h1.82v3.45H70.332l-.105.515a6 6 0 0 0-.102.657c0 .078.777.144 1.73.144h1.735l.043 2.34.047 2.34 1.738.039c.953.023 1.832-.02 1.953-.098.277-.18.516-1.187.524-2.191l.003-.77 1.032.457c.57.254 1.382.551 1.808.664.766.207.77.215.688.805-.313 2.293-1.258 3.895-2.508 4.266-.84.25-6.25.254-7.242.007-.946-.238-1.797-1.023-2.028-1.875-.097-.359-.226-1.304-.289-2.101l-.113-1.445-.476.879c-1.075 1.992-3.004 3.902-5.067 5.019l-.988.535ZM41.098 71.188c-1-.536-1.891-1.008-1.985-1.051-.09-.04.172-.352.578-.692.895-.742 2.7-2.523 3.457-3.414l.551-.644 1.965.965c1.082.53 1.969 1.011 1.969 1.066 0 .352-4.332 4.773-4.656 4.75-.032 0-.88-.441-1.88-.98m9.372-1.598a153 153 0 0 1-.242-2.344c-.032-.402-.004-.414 2.035-.676 1.468-.187 2.101-.21 2.183-.086.203.313.832 4.375.676 4.375-.086 0-3.41.485-3.941.575l-.504.086Zm8.336 1.558c-.04-.113-.157-.613-.27-1.109a25 25 0 0 0-.582-2.012c-.207-.609-.363-1.109-.348-1.109.02 0 .887-.148 1.934-.328 1.707-.293 1.922-.3 2.09-.074.262.347 1.426 3.863 1.32 3.972-.078.075-3.597.84-3.953.856-.07.004-.156-.082-.191-.196m-16.961 12.52v-3.613h7.355l-3.636 3.613c-1.997 1.988-3.653 3.613-3.676 3.613s-.043-1.625-.043-3.613m5.953 2.219c1.953-1.942 3.574-3.532 3.598-3.532.023 0 .042 1.59.042 3.532v3.531h-7.19Zm0 0"/>
    <path fill="red" d="M39.031 118.906c0-.34 1.38-9.867 1.438-9.941.035-.04.71.57 1.504 1.355l1.445 1.426 5.867-5.828 5.871-5.828h-8.011l-.047 2.066-.043 2.063-4.106-3.059-4.11-3.062 4.063-3.028c2.235-1.664 4.102-3.027 4.149-3.027s.086.887.086 1.973v1.968H58.05V85.148h-4.137l3.07-4.066c1.692-2.234 3.125-4.031 3.188-3.996.062.039 1.473 1.867 3.133 4.066l3.02 3.996h-4.138v10.836h10.915v-4.109l4.011 2.98a670 670 0 0 1 4.153 3.106c.078.07-1.707 1.508-3.97 3.191l-4.112 3.067-.047-2.063-.047-2.066h-8.008l5.867 5.828 5.871 5.828 1.493-1.476 1.496-1.477.703 4.969c.386 2.73.703 5.047.699 5.144-.004.114-1.734-.07-4.926-.527-2.707-.39-5.031-.711-5.164-.711-.137-.004.442-.691 1.281-1.527l1.524-1.52-5.746-5.707c-3.16-3.137-5.805-5.703-5.871-5.703s-.121 1.734-.121 3.855v3.852l4.156.094-3.086 4.082c-1.711 2.261-3.149 4.02-3.227 3.941s-1.48-1.914-3.117-4.082l-2.977-3.941 2.055-.047 2.059-.047v-3.852c0-2.12-.055-3.855-.121-3.855-.07 0-2.711 2.566-5.871 5.703l-5.746 5.707 1.523 1.52c.84.836 1.414 1.523 1.281 1.527-.137.004-2.46.32-5.164.71-3.183.454-4.922.642-4.922.528m0 0"/>
    <path fill="red" d="M68.8 85.848v-3.57l3.555 3.527c1.957 1.937 3.56 3.547 3.56 3.57s-1.603.043-3.56.043h-3.554Zm5.79-2.262-3.555-3.531h7.192v3.53c0 1.942-.016 3.532-.04 3.532-.023 0-1.644-1.59-3.597-3.531m0 0"/>
    <path fill="#f9f9f9" d="M13.066 123.328c0-.527 14.391-88.035 14.512-88.226.184-.297 32.3-22.047 32.559-22.047.117 0 7.492 4.937 16.383 10.972C91.773 34.38 92.695 35.031 92.809 35.562c.062.313 3.25 19.668 7.078 43.016 3.832 23.348 7.062 43.024 7.183 43.723l.22 1.273H60.175c-41.707 0-47.11-.027-47.11-.246m50.36-8.125c1.773-2.348 3.226-4.305 3.226-4.351s-.968-.086-2.152-.086h-2.148v-7.309l5.664 5.621 5.66 5.625-1.524 1.52-1.527 1.52 5.402.78c2.97.43 5.414.762 5.434.739.05-.059-1.457-10.54-1.527-10.625-.036-.04-.73.59-1.547 1.394l-1.485 1.469-5.664-5.621-5.66-5.625h7.36v2.137c0 1.171.046 2.132.105 2.132.195 0 8.644-6.316 8.61-6.437-.02-.063-1.97-1.555-4.333-3.313l-4.3-3.203-.094 4.25H62.352v-10.5l2.16-.047 2.16-.043-3.258-4.316c-1.793-2.375-3.285-4.289-3.32-4.254a573 573 0 0 0-3.274 4.313l-3.215 4.257 2.141.043 2.14.047v10.5H47.31l-.043-2.125-.047-2.125-4.285 3.192a550 550 0 0 0-4.356 3.261c-.07.07 8.473 6.5 8.637 6.5.047 0 .086-.96.086-2.132v-2.137h7.523l-5.66 5.625L43.5 111.5l-1.488-1.469c-.907-.898-1.543-1.41-1.63-1.312-.167.18-1.628 10.363-1.507 10.484.086.082 10.605-1.371 10.734-1.484.04-.04-.613-.75-1.449-1.582l-1.52-1.516 5.626-5.582 5.62-5.582v7.309h-2.152c-1.18 0-2.148.039-2.148.086 0 .12 6.437 8.617 6.531 8.617.043 0 1.531-1.922 3.309-4.266m-11.824-29.48c0-2.125-.02-3.86-.043-3.86-.024 0-1.79 1.735-3.926 3.86l-3.887 3.859h7.856Zm24.808 3.816c0-.023-1.75-1.777-3.887-3.898l-3.886-3.86v7.801h3.886c2.137 0 3.887-.02 3.887-.043M45.648 83.75l3.883-3.86H41.68v3.86c0 2.125.015 3.86.039 3.86.023 0 1.793-1.735 3.93-3.86m32.747 0v-3.86H74.59c-2.094 0-3.805.055-3.805.122 0 .11 7.457 7.597 7.567 7.597.023 0 .043-1.734.043-3.859m-2.747-11.43c2.278-.625 2.782-1.84 3.493-8.398l.105-.945H50.61v-1.149h30.43V59.2H50.61v-1.148h24.477v-9.524h-12.14l1.374-.843c1.657-1.008 3.211-2.48 4.102-3.883l.656-1.031.184 1.492c.265 2.133.695 2.742 2.27 3.234.859.266 6.75.285 7.538.024.82-.274 1.598-1.079 1.95-2.024.289-.777.757-3.031.648-3.129-.027-.023-.492-.168-1.035-.32a12 12 0 0 1-1.774-.68c-.43-.219-.863-.394-.957-.394s-.172.351-.175.78c-.004 1.009-.243 2.02-.52 2.2-.121.078-.926.121-1.789.098l-1.57-.04-.047-2.34-.047-2.343h-1.75c-1.527 0-1.738-.031-1.649-.258.055-.144.102-.363.102-.492 0-.195.797-.234 5.043-.234h5.043v-3.766l-3.39-.094.784-.539c.434-.3.79-.64.79-.761 0-.227-2.59-2.43-3.426-2.914-.473-.278-.48-.274-1.875.628-.77.497-1.512.965-1.645 1.043-.199.11-.152.207.246.516.274.207.907.766 1.407 1.238l.91.867h-1.688l-1.687.004.066-.777c.04-.43.11-1.465.156-2.3l.086-1.52H66.7l-.105 1.355a37 37 0 0 0-.106 2.301l-.004.941H60.7v3.778h4.996l-.113.453c-.062.246-.344.93-.621 1.52-.652 1.367-2.594 3.316-4.063 4.081l-1.035.54.684.765.683.77-.472.043c-.262.023-1.067-.012-1.793-.082l-1.32-.125.875-.555.87-.559-.46-.48c-.258-.266-.903-.774-1.434-1.13l-.973-.644h2.024V36.54H41.016v6.387l.765.05.766.047-.973.965a28 28 0 0 1-1.922 1.707c-.523.41-.945.79-.941.844.016.125 2.973 2.05 3.266 2.125.226.055 3.793-3.422 4.457-4.348l.367-.515-1.278-.414-1.28-.41 1.694-.016 1.696-.02v5.094h4.133v-5.094l1.449.004h1.445l-1.125.668-1.12.672.956.664c1.402.977 2.363 1.785 2.363 1.989 0 .101-.12.5-.27.886l-.269.703h-10.21v17.25l-.665-.34-.668-.335-.445.539c-.957 1.16-2.71 2.87-3.66 3.578-.55.406-1 .773-1.004.82-.004.102 4.324 2.305 4.523 2.3.414-.007 4.641-4.288 4.868-4.929.027-.082-.606-.48-1.407-.887l-1.46-.738 11.496.012 11.496.008-1.489.3c-.82.165-1.656.305-1.863.31-.203.007-.371.038-.371.07 0 .035.215.53.48 1.109.262.578.641 1.586.84 2.238.203.656.38 1.188.39 1.188l1.321-.313 1.293-.305.14.375c.079.203.227.676.325 1.047l.184.676h2.847c1.567 0 3.137-.082 3.492-.18m-22.64-.968c1.18-.176 2.207-.32 2.277-.325.215-.007-.41-4.285-.687-4.734-.094-.148-.57-.137-2.098.055-2.957.37-2.7.222-2.453 1.414.117.554.262 1.668.324 2.465.07.902.184 1.453.3 1.449.102 0 1.153-.149 2.337-.324m8.152-.23c1.024-.212 1.914-.434 1.973-.493.273-.27-1.301-4.531-1.672-4.531-.348.004-3.95.644-4.023.718-.04.04.19.891.519 1.891.324 1 .59 1.992.59 2.203 0 .73.05.735 2.613.211m-.629-37.212v-1.476h-8.027l-.645-1.317c-.355-.719-.738-1.312-.851-1.312-.254 0-4.594.988-4.668 1.066-.031.027.101.352.289.719s.34.707.34.754c0 .05-1.82.09-4.051.09h-4.05v2.957H60.53Zm0 0"/>
    <path fill="#f9f9f9" d="M45.48 39.742V39h8.438v1.48H45.48ZM75.008 53.32v-4.718h-7.145c-4.242 0-7.14-.004-7.136-.012.015-.035.941-1.684.949-1.684.015 0 .25.344.418.625.156.258.386.692.484.918l.031.07.348-.18c1.285-.655 1.2-.609 1.938-1.1l.675-.454.594-.515.59-.512.496-.555.492-.555.828-1.21.336-.63.332-.632.012.633c.004.367.02.863.04 1.175.019.301.03.559.026.575 0 .015-.05-.356-.109-.825-.133-1.054-.121-.972-.144-.949-.008.012-.168.254-.348.543-.535.836-.738 1.121-1.153 1.602a13.8 13.8 0 0 1-2.203 2.039c-.437.324-.765.543-1.629 1.066-.41.25-.757.465-.77.477-.015.015.97.02 6.052.02h6.066v9.507h-.07Zm0 0"/>
    <path fill="#f9f9f9" d="M50.566 51.668v-.617h18.938v1.23H50.566Zm0 3.324v-.574h18.938v1.148H50.566Zm0 0"/>
    <path fill="#f9f9f9" d="M70.547 69.734c-.254-.02-.477-.043-.492-.058a8 8 0 0 1-.262-.653 24 24 0 0 0-.438-1.078c-.304-.691-1-2.074-1.043-2.074-.019 0-.398.067-.84.145-1.038.187-1.16.175-.242-.016.399-.086.75-.168.786-.18.035-.011-4.164-.027-9.329-.027a1821 1821 0 0 1-11.503-.031c-1.301-.016-2.118-.012-2.118.011 0 .02.239.153.524.297.285.14.512.266.5.278-.012.011-.27-.102-.574-.254l-.551-.274.012-8.636.007-8.637h10.22l.073-.18c.176-.402.457-1.273.457-1.402 0-.117-.039-.184-.238-.38-.398-.398-1.523-1.265-2.398-1.85-.145-.098-.254-.188-.243-.2.028-.023.805.492 1.329.887.523.39 1.312 1.05 1.543 1.285l.18.184-.325.84-.324.835-5.094.012-5.098.012v17.117H59.23c11.301 0 14.16.012 14.16.05 0 .243-.171 1.423-.292 2.044-.227 1.148-.465 1.605-.965 1.832-.25.113-.836.152-1.586.101m0 0"/>
</svg>
