<svg xmlns="http://www.w3.org/2000/svg" width="120" height="120" viewBox="0 0 120 136">
    <path fill="none" stroke="red" stroke-width=".004" d="m-45.032-42.779-.024.038-.078.123-.112.165-.12.17-.127.172-.133.173-.139.173h2.588v2.619h-3.78l-.094.054-.046.027-.047.027-.047.026-.047.027.097.073.005.004.032.024.082.061.202.164.188.167.174.17.16.173.144.178.407-.174.413-.188.278-.135.128-.062.391-.2.331-.182.033-.018.326-.193.01.008.269.203.757.573-.23.115-.24.116-.245.114-.249.112-.25.108-.251.103.25.431.266.376.034.049.354.404.364.33.042.04.457.318.352.177.066.033.036.019.026.013.018.009.01.005-.144.142-.157.173-.159.192-.152.2-.135.195-.11.181-.15-.094-.407-.256-.497-.43-.437-.487-.376-.527-.316-.544-.015-.032-.052-.11-.19-.4-.342.115.1.285.103.296.077.558-.042.516-.154.457-.15.22-.109.161-.355.287-.208.123-.2.092-.203.068-.212.045-.11.013-.12.015-.256.013-.138-.001-.148-.004-.156-.006-.15-.007h-.011l-.165-.01h-.005l-.076-.005-.044-.003h-.03l-.013-.002-.02-.176-.036-.192-.053-.2-.068-.2-.005-.01-.078-.179-.088-.153-.009-.016v-.003l.197.017.195.014.189.01.063.003.117.004.168.004.153.001.138-.002.13-.009.125-.02.115-.031.078-.035.028-.013.095-.066.151-.12.116-.158.078-.192.038-.223-.005-.252-.05-.277-.45.286-.225.142-.454.244-.285.153-.06.028-.721.333-.304.12-.5.2-.563.19-.24.081-.772.217-.009.003-.091-.145-.11-.156-.002-.004-.126-.167-.13-.164-.13-.153-.12-.132.745-.176.135-.032.243-.072.654-.192.88-.312.136-.057.695-.293.581-.294.168-.085.604-.38.03-.02-.03-.04-.005-.006-.034-.048-.034-.047-.036-.046-.003-.004-.035-.042-.012-.012-.029-.03-.575.307-.622.286-.418.167-.233.093-.012.005-.654.226-.663.197-.642.162-.09-.143-.104-.154-.117-.158-.125-.155-.065-.073-.061-.07-.124-.123.597-.112.072-.013.467-.108.01-.003.207-.048.68-.188.612-.2.042-.014.376-.145.234-.09.544-.254h.001l-.056-.043-.058-.043-.059-.045-.06-.044-.108-.074-.017-.012-.433.177-.406.149-.037.014-.445.148-.391.117-.05.015-.427.117-.404.1h-.003L-51-37.79l-.068-.098-.037-.052-.095-.129-.021-.028-.12-.153-.121-.14-.117-.118.379-.066.044-.007.438-.088.446-.1.448-.114.102-.029.073-.02.267-.077.23-.073.2-.064h-1.817v-1.605l-.058.038-.04.025-.02.012-.06.036-.06.037-.063.037-.037.022-.017.01-.01.006-.11-.153-.136-.165-.103-.114-.05-.054-.013-.014-.147-.145-.023-.02-.13-.114-.005-.005-.095-.068-.054-.039.666-.385.601-.416.534-.438.15-.145.315-.304.393-.45.19-.263.128-.18 1.328.258.01.002h.001l.001.001-.054.073-.054.073-.035.047-.02.027-.054.074-.055.075-.054.077h1.91l.194-.054.836.544.013.008.024.016m-2.135.92.063-.08.01-.013.071-.096.072-.098.071-.1.071-.103h-2.02l-.096.1-.098.098-.1.097-.029.028-.072.069-.104.096-.108.096h2.198l.07-.093m-7.45-.914L-56-34.292l-.248 1.524-.696 4.268-.162 1-.897 5.502h22.006l-.897-5.502-.162-1-.696-4.268-.248-1.523-1.382-8.48v-.032h-.007L-42-44.587l-5-3.416-5 3.416-2.61 1.784h-.008v.031M-38-44l.2 1.197 1.672 10.035 1.795 10.77L-34-20h-26l2.128-12.768 1.672-10.035L-56-44l1.775-1.183 5.745-3.831h.001L-47-50l9 6m-9.5 13h1v1.793l1.975-1.975.707.707-1.975 1.975H-44v1h-1.793l1.975 1.975-.707.707L-47-27.293l-2.475 2.475-.707-.707 1.975-1.975H-50v-1h1.793l-1.975-1.975.707-.707 1.975 1.975V-31m2.133-9.06h.912v-.79h-2.066v.79h1.154m-3.785-.79h-.401v.79h1.88v-.79Zm0 0" transform="matrix(4.29492 0 0 4.26451 261.99 217.49)"/>
    <path fill="red" d="M4.46 131.988c0-.066 3.849-23.058 8.552-51.09l8.55-50.968L60.118 4.406l19.16 12.684c10.54 6.976 19.227 12.746 19.305 12.824.125.125 17.191 101.332 17.191 101.953 0 .219-6.195.246-55.656.246-30.61 0-55.652-.054-55.656-.125m102.974-8.703c-.055-.246-3.34-20.219-7.301-44.379-4.024-24.515-7.293-44.008-7.403-44.113-.19-.176-31.613-21.488-32.296-21.902-.317-.192-1.711.714-16.746 10.918-9.02 6.117-16.399 11.195-16.399 11.285 0 .207-14.36 87.789-14.473 88.273l-.086.371h94.797Zm0 0"/>
    <path fill="red" d="M54.18 72.133c-.032-.113-.18-.762-.332-1.442-.149-.68-.457-1.632-.684-2.117-.227-.484-.39-.894-.367-.91s1.012.031 2.195.102c2.469.148 3.692.058 4.633-.348.824-.352 1.664-1.168 2.004-1.953.281-.645.348-2.79.11-3.434-.134-.355-.16-.347-1.4.442-4.554 2.894-11.081 5.718-16.882 7.304l-1.441.395-.727-1.012a41 41 0 0 0-1.406-1.824c-.371-.445-.645-.84-.606-.879s1.32-.387 2.848-.773c5.133-1.297 10.379-3.246 14.129-5.258 1.605-.86 3.094-1.75 3.601-2.153.098-.078-.847-1.39-.968-1.336-.055.024-.918.465-1.918.973-3.578 1.832-8.293 3.598-12.586 4.715l-1.844.48-.523-.8a23 23 0 0 0-1.344-1.778c-.934-1.109-1.035-.988 1.172-1.41 2.48-.476 5.965-1.414 8.656-2.328 2.621-.894 5.566-2.133 5.566-2.348 0-.062-.343-.359-.765-.66l-.77-.547-.761.293c-2.844 1.098-4.551 1.68-6.766 2.313-3.871 1.105-3.48 1.12-4.43-.2-.445-.617-1.05-1.39-1.347-1.714l-.543-.598 1.613-.285c2.144-.383 6.398-1.426 8.144-2l1.407-.465-3.922-.043L44 50.492l-.043-3.441-.047-3.438-1.476.914-.598-.75c-.332-.414-1.133-1.246-1.777-1.851l-1.176-1.098 1.105-.61c1.516-.831 4-2.534 5.492-3.769 1.633-1.344 4.184-3.98 5.211-5.379.641-.875.895-1.101 1.157-1.039.183.043 1.422.282 2.757.528l2.422.453-.644.867c-.356.476-.649.914-.649.965 0 .054 2.086.086 4.63.07l4.628-.027 3.485 2.203-.938 1.34a42 42 0 0 1-1.574 2.101c-.352.418-.637.809-.637.864s2.492.101 5.54.101h5.542v11h-8.125c-8.07 0-8.133.004-8.71.36l-.587.359.73.578c.403.316 1.477 1.309 2.384 2.203l1.656 1.621.578-.195c.883-.3 6.52-3.035 7.977-3.871.742-.422 1.378-.688 1.496-.621.113.066 1.09.785 2.175 1.593L77.954 54l-1.391.645c-.766.355-2.122.964-3.012 1.351-.89.383-1.664.742-1.715.793-.133.133.848 1.8 1.906 3.23 1.742 2.364 4.317 4.586 6.676 5.77l.996.5-.664.684c-.55.57-1.43 1.675-2.723 3.433-.195.266-.293.235-1.289-.394-2.101-1.336-4.105-3.254-5.84-5.602-1.03-1.39-2.43-3.773-2.945-5.02-.394-.945-.496-.98-1.672-.535l-.457.172.473 1.29c1.129 3.07.914 6.261-.578 8.492-1 1.496-3.375 2.992-5.336 3.363-1.328.25-6.133.219-6.203-.04m3.21-27.137V43.27h-8.269v3.449h8.27Zm13.727 0V43.27H62.02v3.449h9.097Zm-10.996-6.773.938-1.274-4.418-.043-4.418-.047-1.262 1.188c-.695.652-1.285 1.242-1.316 1.316-.032.07 2.105.133 4.742.133h4.8ZM47.96 110.023l-1.398-1.394 8.594-8.54h-7.855v-4.105h7.855l-8.515-8.46 1.445-1.434 1.445-1.438 4.262 4.23 4.258 4.227v-7.796h4.136v7.796l4.258-4.226 4.262-4.23 1.445 1.437 1.446 1.433-8.516 8.461h7.856v4.106h-7.856l4.297 4.27 4.3 4.269-1.449 1.437-1.445 1.434-5.25-5.21c-2.89-2.868-5.328-5.216-5.418-5.216s-2.508 2.328-5.375 5.176c-2.863 2.844-5.246 5.172-5.293 5.172-.05 0-.719-.629-1.488-1.399m0 0"/>
    <path fill="#f9f9f9" d="M13.066 123.328c0-.133 2.754-17.039 6.125-37.566 3.368-20.524 6.614-40.313 7.207-43.969.598-3.656 1.172-6.734 1.278-6.832.41-.395 32.066-21.781 32.344-21.856.195-.05 5.816 3.672 16.48 10.907 15.293 10.375 16.195 11.015 16.305 11.55.066.313 3.254 19.668 7.082 43.016 3.832 23.348 7.062 43.024 7.183 43.723l.22 1.273H60.175c-41.656 0-47.11-.027-47.11-.246m41.758-16.832 5.293-5.258 5.336 5.297 5.332 5.293 1.613-1.598 1.61-1.601-8.43-8.375h7.524V95.82h-7.524l8.352-8.297-1.575-1.554-1.57-1.559-4.219 4.188-4.214 4.183v-7.633h-4.465v7.47l-4.094-4.063c-2.254-2.239-4.168-4.067-4.258-4.067s-.851.684-1.695 1.52l-1.535 1.515 4.175 4.149 4.18 4.148h-7.523v4.434h7.687l-8.515 8.46 1.527 1.516c.844.836 1.566 1.52 1.613 1.52s2.469-2.363 5.375-5.254m6-34.242c2.692-.629 5.082-2.625 5.903-4.926.671-1.887.601-4.676-.176-6.863-.219-.617-.395-1.176-.395-1.246 0-.114 1.184-.555 1.246-.465.016.02.38.754.809 1.633 1.883 3.851 5.363 7.941 8.246 9.691.707.43 1.344.781 1.414.781.074 0 .488-.515.922-1.144a24 24 0 0 1 1.871-2.305c.594-.64 1.05-1.187 1.016-1.219-.032-.03-.543-.296-1.137-.59-1.648-.82-3.078-1.89-4.711-3.527-1.71-1.715-4.027-4.984-3.707-5.226.035-.028.887-.403 1.887-.832a61 61 0 0 0 3.043-1.399L78.277 54l-2.195-1.668-2.195-1.672h2.687V39.328H65.641l.726-.941c.973-1.258 2.27-3.153 2.27-3.313 0-.07-.793-.633-1.762-1.25l-1.758-1.12-4.543.042c-3.742.035-4.52.004-4.414-.176.07-.12.34-.488.594-.816.258-.332.469-.668.469-.75 0-.207-5.782-1.274-5.942-1.094a79 79 0 0 0-1.082 1.426c-2.234 2.992-6.25 6.367-10.476 8.8l-1.211.7.633.555c.347.304.68.554.742.558.129.008 2.039 2.188 2.258 2.582.14.246.23.23.917-.172l.766-.445v6.742l3.516.043 3.511.043-2.48.696c-1.363.382-3.707.93-5.207 1.222-1.504.29-2.762.547-2.797.574-.035.028.234.371.598.762.367.395 1.05 1.242 1.52 1.879l.85 1.164 1.856-.492c2.313-.61 6.516-1.969 8.09-2.613l1.184-.485.633.434c.347.238.632.46.632.492 0 .121-1.754.934-3.355 1.55-2.93 1.138-6.938 2.266-10.75 3.04-1.098.222-2.024.433-2.063.469-.039.039.332.539.82 1.113.493.574 1.145 1.41 1.45 1.86.305.448.57.835.59.859.047.07 3.101-.743 5.207-1.383a60.6 60.6 0 0 0 8.726-3.45l2.524-1.234.324.387c.176.21.32.457.32.547 0 .199-2.59 1.797-4.215 2.597-3.945 1.95-9.71 3.973-14.585 5.122-1.024.242-1.86.476-1.86.52 0 .046.434.612.965 1.257a33 33 0 0 1 1.508 1.973c.62.914.277.921 3.629-.07 5.605-1.66 12.086-4.579 15.972-7.196.641-.434.743-.258.746 1.258.004 1.433-.406 2.437-1.253 3.078-1.102.836-1.614.95-4.204.926-1.316-.008-2.714-.063-3.097-.121-.75-.11-.844-.008-.477.515.348.496 1.051 2.547 1.184 3.453.066.446.152.868.191.934.133.234 5.696.133 6.793-.125m0 0"/>
    <path fill="#f9f9f9" d="m51.129 38.188 1.215-1.145 4.187-.004 4.188-.008-.371.535c-.203.293-.59.809-.852 1.149l-.48.613h-9.098Zm-1.844 6.808v-1.562h7.938v3.12h-7.938Zm13.067 0v-1.562h8.601v3.12h-8.601Zm-.082 8.879c-.82-.828-1.825-1.77-2.23-2.09l-.74-.586.528-.27c.469-.242 1.254-.269 7.027-.23l6.493.043-1.145.64c-2.437 1.364-8.21 4.126-8.406 4.02-.024-.011-.711-.699-1.527-1.527m0 0"/>
</svg>
