<svg xmlns="http://www.w3.org/2000/svg" width="120" height="120" viewBox="0 0 120 136">
    <path fill="none" stroke="red" stroke-width=".004" d="m-44.096-41.872.03.072h1.553v.478h-1.645v.266h1.393v.394h-1.393v.243h1.393v.417h-1.393v.221h1.73v.47h-4.155v.068l.63.091.32.046-.055.053-.107.103-.042.038-.012.011-.053.047-.054.044h2.923v1.828h-5.172v.289H-42v.508h-6.205v.25h5.86v.017l-.002.043-.002.062-.003.072-.004.073-.004.067-.04.339-.048.282-.04.164-.016.068-.065.185-.077.144-.09.108-.087.075-.096.06-.09.04-.013.007-.109.034-.114.022-.117.012-.115.003h-.043l-.1.002-.167-.002-.184-.004-.03-.001-.031-.002-.135-.006-.182-.01-.009-.002h-.014l-.007-.068-.012-.074-.018-.078v-.001l-.022-.08-.026-.082-.03-.08-.057.024-.512.21-.004.001-.062-.128-.08-.143-.004-.006-.092-.144-.059-.084-.046-.067-.112-.143-.112-.127.57-.217.088-.034h-4.33l.147.063.404.173-.103.207-.082.145-.036.065-.135.207-.048.062-.105.135-.171.184-.193.163-.38-.192-.538-.27.186-.147.173-.169.032-.038.126-.148.022-.03.118-.165.119-.2.097-.196.344.144v-3.399h2.211l.043-.058.032-.044.01-.016.045-.059.044-.058.044-.055.042-.052h-.688v-1.176l-.015.013-.038.033-.051.047-.05.047-.05.046-.05.044-.028.023-.01.008-.004.003-.004.004-.006.005-.06-.07-.072-.078-.08-.084-.088-.087-.09-.088-.092-.086v1.442h-.903v-1.161l-.042.037-.042.034-.043.033-.042.032-.015.011-.027.02-.007.005-.018.013-.009.006-.006.005h-.002l-.048-.103-.063-.13-.076-.144-.084-.15-.087-.143-.074-.108-.012-.017v.811l-.002.12-.012.81-.011.213-.044.808-.004.038-.108 1.025-.032.177-.156.88-.281 1.002-.072.166-.26.598-.026.063-.014.03-.008.02-.006.013-.004.01-.14-.101-.17-.11-.189-.11-.193-.104-.183-.09-.158-.063.069-.156.294-.665.254-.905.083-.478.08-.471.094-.953.029-.624.013-.296.009-.728.001-.119v-3.156h3.971v-.002l-.039-.08-.04-.084-.082-.163-.042-.079-.042-.078.244-.065.896-.238.08.122.077.13.075.134.072.136.068.135.064.132h3.65v.97h-2.189l.049.077.047.074.044.073.013.024.027.05.035.07m-1.209-.215.249-.08.225-.072h-2.05l.642.19-.023.039-.025.04-.025.043-.026.043-.027.043-.027.042h1.255l-.027-.05-.028-.05-.029-.05-.02-.034-.01-.014-.027-.047-.027-.043m.858 7.157.08.115.003.006.068.12h.057l.054.001.044.001h.095l.014-.001h.02l.012-.002h.034l.042-.006.037-.01.034-.013.032-.02.03-.026.038-.05.034-.068.032-.09.03-.114.026-.143.024-.173h-1.24l.105.113.103.118.1.12.092.122m-2.61-.154.01-.003.824-.24.096.145.097.156.091.161.025.05.056.11.068.155.049.141-.78.26-.057.02-.017.005-.011.004-.041-.144-.06-.16-.073-.17-.086-.17-.028-.051-.065-.116-.098-.153m-1.477-.023.007-.001.873-.204.085.157.08.167.07.172.059.17.045.158.028.14-.847.238-.027.007-.02.006-.015.004-.01.003-.03-.156-.042-.17-.054-.177-.062-.178-.018-.044-.05-.13-.072-.162m6.484 2.158-.026.182-.092.643-.236 1.65-.707-.707-.89.889-1.792 1.793H-44v-1l1.333 1 .667.5-2 1.5v-1h-1.793L-44-25.707l.89.889.706-.707.236 1.65.118.825-.825-.118-1.125-.16-.525-.076.525-.525.182-.182-.182-.182-.707-.707-1.793-1.793V-25h1l-1.5 2-1.5-2h1v-1.793L-49.293-25l-.707.707-.182.182.182.182.525.525-.525.075-1.125.161-.825.118.118-.825.236-1.65.707.707.889-.889 1.793-1.793H-50v1l-2-1.5.666-.5 1.334-1v1h1.793L-50-30.293l-.889-.889-.707.707-.236-1.65-.092-.643-.026-.182.825.118.448.064.677.097.525.075-.525.525-.182.182.182.182.457.457.5.5 1.646 1.647.397.396 2.043-2.043.5-.5.457-.457.182-.182-.182-.182-.525-.525.525-.075.677-.097.448-.064.825-.118m-12.568-9.822L-56-34.292l-.248 1.524-.696 4.268-.162 1-.619 3.794-.278 1.708h22.006l-.03-.19-.867-5.312-.162-1-.466-2.858-.23-1.41-.248-1.523-1.382-8.48v-.032h-.007L-42-44.587l-5-3.416-5 3.416-2.61 1.784h-.008v.031M-38-44l.2 1.197 1.672 10.035 1.795 10.77L-34-20h-26l2.128-12.768 1.672-10.035L-56-44l1.775-1.183 5.745-3.831h.001L-47-50l9 6m-7.75 12.75h-2.5L-47-32.5l1.25 1.25m-2.5.5h2.5L-47-29.5l-1.25-1.25m.486-11.234-.058.095-.09.141-.095.142-.1.142-.108.141-.112.138v.34l.136-.115.099-.084.224-.217.209-.232.194-.243.174-.248v-.002l.157-.254h-1.232l.628.213-.026.043m1.18.928h1.393v-.266h-1.392v.266m-2.089-1.184h-1.255v1.245l.237-.174.233-.193.224-.207.081-.084.128-.134.166-.197.023-.028.163-.228m4.499 3.877h-4.032v.258h4.032v-.258m0 .934v-.266h-4.032v.266h4.032m-1.018-2.573h-1.392v.221h1.392v-.22m-1.392-.418h1.392v-.243h-1.392Zm0 0" transform="matrix(4.29492 0 0 4.26451 261.99 217.49)"/>
    <path fill="red" d="M4.46 131.988c0-.066 3.849-23.058 8.552-51.09l8.55-50.968L60.118 4.406l19.16 12.684c10.54 6.976 19.227 12.746 19.305 12.824.125.125 17.191 101.332 17.191 101.953 0 .219-6.195.246-55.656.246-30.61 0-55.652-.054-55.656-.125m102.974-8.703c-.055-.246-3.34-20.219-7.301-44.379-4.024-24.515-7.293-44.008-7.403-44.113-.19-.176-31.613-21.488-32.296-21.902-.317-.192-1.711.714-16.746 10.918-9.02 6.117-16.399 11.195-16.399 11.285 0 .207-14.36 87.789-14.473 88.273l-.086.371h94.797Zm0 0"/>
    <path fill="red" d="M71.855 72.063c-.246-.051-.386-.286-.535-.915-.113-.464-.257-.902-.328-.968-.066-.067-.633.097-1.258.363-.62.266-1.16.48-1.195.48s-.246-.355-.465-.789c-.222-.433-.715-1.18-1.094-1.66-.382-.476-.628-.922-.55-.984.074-.067.695-.336 1.379-.602l1.242-.48-18.774-.086V52.14h9.395l.582-.782.586-.78-2.945-.095-.047-2.55-.043-2.551-.64.547-.642.55-1.05-1.07-1.055-1.07-.004 3.16v3.16H50.61V48.2c0-1.356-.062-2.466-.14-2.466s-.274.149-.438.328c-.168.18-.36.329-.433.329-.07 0-.41-.555-.754-1.23-.34-.677-.778-1.43-.973-1.673l-.355-.441-.098 5.16c-.145 7.785-.758 12.98-2.113 17.809-.64 2.293-2.067 5.828-2.344 5.828-.082 0-.461-.211-.84-.469-.379-.262-1.25-.75-1.934-1.086-.68-.34-1.269-.644-1.304-.676-.035-.031.277-.816.687-1.746.875-1.96 1.63-4.515 2.121-7.187.758-4.137.844-5.649.926-16.793l.082-10.633h8.504c5.738 0 8.5-.055 8.5-.168 0-.094-.187-.547-.422-1.004s-.402-.852-.37-.879c.026-.027 1.054-.312 2.284-.637l2.23-.59.278.364c.156.203.59.937.965 1.64l.684 1.274H81.04v3.941h-4.727c-2.601 0-4.703.063-4.671.137.03.074.277.555.55 1.066l.496.93h6.7v1.809h-7.114v1.312h5.954v1.48h-5.954v1.313h5.954v1.64h-5.954v.99h7.446v1.968h-8.946c-7.082 0-8.93.043-8.878.207.042.121.761.3 1.824.45.96.136 1.797.292 1.851.347s-.164.332-.484.613c-.32.277-.586.547-.586.594 0 .05 2.828.09 6.285.09h6.285v7.55H54.91v1.48h26.625v1.97H54.91v1.148h25.176l-.113 1.273c-.172 1.915-.555 3.637-1.02 4.594-.754 1.563-1.89 2.028-4.844 1.996-1.054-.011-2.066-.054-2.254-.09m1.743-2.563c.523-.258.941-1.11 1.086-2.21l.113-.864h-2.75c-1.512 0-2.75.031-2.75.074 0 .04.379.5.844 1.023.464.528 1.004 1.23 1.199 1.57.328.567.414.614 1.101.614.407 0 .93-.094 1.157-.207M72.41 57.27l-.055-.614-17.445-.086v1.317h17.55Zm0-2.79-.055-.617-17.445-.086v1.317h17.55Zm-4.437-7.105v-.492h-6.118v.988h6.118Zm0-2.79v-.655h-6.118v1.312h6.118ZM57.07 40.95c.883-1.023 2.633-3.457 2.633-3.664 0-.05-1.226-.09-2.726-.09s-2.73.063-2.73.137c0 .078.316.234.702.348.387.113.95.308 1.25.43.656.269.645.304-.812 2.316-.887 1.222-.973 1.414-.973 2.191v.848l.844-.703c.469-.387 1.281-1.203 1.812-1.813m-8.527 1.117c1.625-1.21 4.691-4.507 4.43-4.77-.059-.054-1.32-.1-2.805-.1h-2.703v2.8c0 2.195.047 2.777.207 2.684.113-.067.504-.344.871-.614m19.43-.273v-.656h-6.118v1.312h6.118Zm.16-2.668c0-.113-.113-.348-.246-.523-.367-.48-.317-.547.668-.852.5-.16.91-.348.91-.422s-2.012-.133-4.469-.133c-2.453 0-4.465.059-4.465.13 0 .073.528.273 1.168.448 1.531.414 1.582.454 1.254.918-.148.211-.27.442-.27.512s1.227.125 2.727.125c2.078 0 2.727-.047 2.723-.203m0 0"/>
    <path fill="red" d="m46.938 71.43-1.774-.895.922-.863c.781-.734 2.394-2.902 2.59-3.477.058-.18 2.98.899 3.539 1.301.234.172.172.348-.547 1.555-.758 1.27-2.5 3.297-2.82 3.277-.078-.004-.938-.41-1.91-.898m8.078.445c-.036-.062-.118-.406-.184-.77-.062-.359-.344-1.234-.617-1.94-.274-.704-.469-1.306-.438-1.33.082-.065 3.164-.753 3.371-.753.313 0 1.563 2.902 1.563 3.621 0 .195-.215.336-.7.461a79 79 0 0 0-1.82.5c-.613.176-1.14.27-1.175.211m6.605-.801c-.148-.433-.559-1.324-.906-1.98l-.637-1.188.684-.183a56 56 0 0 0 1.66-.485c.922-.285.992-.285 1.187-.023.48.64 1.743 3.183 1.672 3.363-.043.11-.738.414-1.543.672-.808.262-1.554.508-1.66.547s-.305-.274-.457-.723m-22.59 47.832c0-.34 1.38-9.867 1.438-9.941.035-.04.71.57 1.504 1.355l1.445 1.426 5.867-5.828 5.871-5.828h-8.011l-.047 2.066-.043 2.063-4.106-3.059-4.11-3.062 4.063-3.028c2.235-1.664 4.102-3.027 4.149-3.027s.086.887.086 1.973v1.968h8.02l-5.79-5.746c-3.18-3.164-5.86-5.75-5.949-5.75-.09 0-.797.63-1.574 1.399L40.43 87.28l-.715-5.02c-.395-2.757-.684-5.05-.645-5.09.07-.07 9.438 1.2 9.875 1.345.164.05-.222.539-1.199 1.504l-1.437 1.43 6.902 6.859 6.906 6.855 6.903-6.855 6.906-6.852-1.438-1.434c-.965-.964-1.355-1.457-1.195-1.507.477-.157 9.805-1.414 9.887-1.332.043.043-.246 2.332-.649 5.09l-.722 5.007-1.414-1.394c-.778-.77-1.489-1.399-1.575-1.399-.09 0-2.77 2.586-5.953 5.75l-5.785 5.746h8.02v-4.109l4.011 2.98a670 670 0 0 1 4.153 3.106c.078.07-1.707 1.508-3.97 3.191l-4.112 3.067-.047-2.063-.047-2.066h-8.008l5.867 5.828 5.871 5.828 1.493-1.476 1.496-1.477.703 4.969c.386 2.73.703 5.047.699 5.144-.004.114-1.734-.07-4.926-.527-2.707-.39-5.031-.711-5.164-.711-.137-.004.442-.691 1.281-1.527l1.524-1.52-5.746-5.707c-3.16-3.137-5.805-5.703-5.871-5.703s-.121 1.734-.121 3.855v3.852l4.156.094-3.086 4.082c-1.711 2.261-3.149 4.02-3.227 3.941s-1.48-1.914-3.117-4.082l-2.977-3.941 2.055-.047 2.059-.047v-3.852c0-2.12-.055-3.855-.121-3.855-.07 0-2.711 2.566-5.871 5.703l-5.746 5.707 1.523 1.52c.84.836 1.414 1.523 1.281 1.527-.137.004-2.46.32-5.164.71-3.183.454-4.922.642-4.922.528m0 0"/>
    <path fill="red" d="m57.555 89.004-2.559-2.543h10.246l-2.558 2.543a750 750 0 0 1-2.567 2.547s-1.156-1.145-2.562-2.547m0-7.387 2.558-2.547 2.528 2.504c1.386 1.375 2.523 2.52 2.523 2.543s-2.289.043-5.086.043h-5.082Zm0 0"/>
    <path fill="#f9f9f9" d="M13.066 123.328c0-.527 14.391-88.035 14.512-88.226.184-.297 32.3-22.047 32.555-22.047.12 0 7.496 4.937 16.387 10.972 15.273 10.36 16.175 11 16.285 11.535.066.313 3.254 19.668 7.082 43.016 3.832 23.348 7.062 43.024 7.183 43.723l.22 1.273H60.175c-41.707 0-47.11-.027-47.11-.246m50.36-8.125c1.773-2.348 3.226-4.305 3.226-4.351s-.968-.086-2.152-.086h-2.148v-7.309l5.664 5.621 5.66 5.625-3.055 3.047 5.402.777c2.973.426 5.418.758 5.438.735.05-.059-1.457-10.54-1.527-10.625-.036-.04-.73.59-1.547 1.394l-1.485 1.469-5.664-5.621-5.66-5.625h7.36v2.137c0 1.171.046 2.132.105 2.132.195 0 8.644-6.316 8.61-6.437-.02-.063-1.97-1.555-4.333-3.313l-4.3-3.203-.094 4.25h-7.348L76.82 84.656l1.532 1.516c.84.832 1.539 1.476 1.55 1.433.008-.043.368-2.46.797-5.375.696-4.742.746-5.293.5-5.293-.273 0-8.984 1.215-10.066 1.403l-.563.097 1.551 1.551 1.555 1.547-6.739 6.692-6.734 6.691-13.562-13.461 1.507-1.504c1.504-1.5 1.508-1.504 1.036-1.598-1.532-.308-10.188-1.44-10.282-1.347-.101.101 1.18 9.555 1.403 10.336.07.25.36.035 1.597-1.192l1.516-1.496L54.66 95.82h-7.35l-.043-2.125-.047-2.125-4.285 3.192a550 550 0 0 0-4.356 3.261c-.07.07 8.473 6.5 8.637 6.5.047 0 .086-.96.086-2.132v-2.137h7.523l-5.66 5.625L43.5 111.5l-1.488-1.469c-.907-.898-1.543-1.41-1.63-1.312-.167.18-1.628 10.363-1.507 10.484.086.082 10.605-1.371 10.734-1.484.04-.04-.613-.75-1.449-1.582l-1.52-1.516 5.626-5.582 5.62-5.582v7.309h-2.152c-1.18 0-2.148.039-2.148.086 0 .12 6.437 8.617 6.531 8.617.043 0 1.531-1.922 3.309-4.266m-.54-26.074c1.434-1.418 2.606-2.64 2.606-2.707 0-.07-2.418-.125-5.375-.125-2.953 0-5.375.055-5.375.121 0 .184 5.184 5.297 5.371 5.297.094 0 1.34-1.164 2.774-2.586m2.606-4.926c0-.066-1.207-1.32-2.683-2.789l-2.688-2.672-2.687 2.668c-1.48 1.465-2.692 2.723-2.692 2.79 0 .07 2.422.124 5.375.124 2.957 0 5.375-.054 5.375-.12M49.555 72.047c.843-.73 2.011-2.277 2.62-3.477l.567-1.117-.941-.414-.946-.418 17.368-.016-1.075.43c-.593.235-1.101.45-1.136.477s.281.5.699 1.054c.422.555.969 1.371 1.223 1.817.25.441.527.805.62.805.09 0 .63-.196 1.2-.434.57-.242 1.074-.402 1.117-.356.047.047.176.457.285.918.145.606.293.864.535.926.735.2 4.5.094 5.313-.148.957-.281 1.812-1.04 2.23-1.973.387-.867.766-2.781.91-4.558l.114-1.438H55.074v-.82h26.63v-2.297h-26.63v-1.153h22.16v-7.878H64.832l.664-.602c.367-.328.633-.629.594-.668-.04-.043-.953-.207-2.031-.371l-1.957-.293 17.78-.04v-2.3H76.16c-3.61 0-3.719-.008-3.719-.328 0-.316.11-.328 2.977-.328h2.977v-1.969H72.44v-.984h5.954v-1.809H72.44v-.984h7.11v-2.137h-3.348l-3.351-.004-.454-.816-.453-.82h9.262V33.09h-15.68l-.879-1.578c-.484-.871-.964-1.614-1.066-1.649-.164-.066-4.613 1.024-4.91 1.2-.067.039.101.511.375 1.05l.496.977H42.535l-.082 10.633c-.086 11.132-.172 12.664-.93 16.793-.34 1.859-1.367 5.687-1.683 6.273-.09.168-.418.895-.73 1.621l-.57 1.32.866.387c.477.211 1.492.762 2.262 1.223.766.46 1.45.781 1.52.71.316-.316 1.738-3.933 2.242-5.706 1.343-4.739 2-10.114 2.152-17.633l.102-5.148.386.632c.215.352.594 1.043.844 1.54l.484.96c.02.035.262-.101.54-.297l.503-.359v4.785h4.137V44.84l.992.976.989.973.582-.559.578-.558v4.988h2.828l-.531.656-.532.66h-9.37v7.141c0 4.88-.055 7.145-.176 7.145-.094 0-.407-.121-.696-.27-.492-.25-.535-.25-.695.024-.902 1.53-1.856 2.785-2.727 3.578-.57.527-1.011.98-.976 1.008.215.195 3.746 1.882 3.945 1.886.137.004.48-.195.766-.441m7.383-.383c1.023-.277 1.906-.555 1.964-.613.32-.324-1.308-4.352-1.707-4.227-.12.04-.925.227-1.789.418a50 50 0 0 0-1.765.41c-.133.047-.047.446.277 1.27.258.66.555 1.57.664 2.02.254 1.093.3 1.23.406 1.23.051 0 .926-.227 1.95-.508m6.949-.246c2.066-.684 2.004-.477.836-2.691-1.13-2.141-1.02-2.051-2.114-1.743-.504.145-1.328.38-1.828.52-.5.144-.91.324-.91.398 0 .078.25.575.559 1.098.308.527.738 1.418.953 1.984.21.563.46 1.024.554 1.024.09 0 .97-.266 1.95-.59m0 0"/>
    <path fill="#f9f9f9" d="M47.633 39.996v-2.473h2.48c1.364 0 2.48.059 2.48.133 0 .375-3.195 3.559-4.507 4.492l-.453.325Zm6.945 2.394c0-.359.145-.742.39-1.035.618-.734 2.13-3.027 2.052-3.105-.04-.04-.477-.215-.97-.387l-.894-.316 2.028-.012c1.113-.008 2.023.05 2.023.125 0 .5-3.125 4.242-4.145 4.965l-.484.34Zm8.434-3.312c0-.047.12-.273.273-.496.149-.227.238-.437.203-.469-.035-.035-.433-.172-.89-.308-.801-.239-.723-.246 2.484-.25 2.523-.004 3.188.035 2.809.168-.672.234-.66.203-.254.859l.363.582h-2.492c-1.371 0-2.496-.039-2.496-.086m-.992 2.715v-.492h5.789v.984h-5.79Zm0 2.793v-.492h5.789v.984h-5.79Zm0 2.789c0-.312.109-.328 2.894-.328s2.895.016 2.895.328c0 .316-.11.328-2.895.328s-2.894-.012-2.894-.328m-6.946 7.063v-.493H72.11v.985H55.074Zm0 2.875v-.41H72.11v.82H55.074Zm16.332 11.515a15 15 0 0 0-1.133-1.476l-.671-.762h5.015l-.113.7c-.29 1.714-.8 2.257-2.129 2.257-.426 0-.59-.125-.969-.719m0 0"/>
</svg>
