<svg xmlns="http://www.w3.org/2000/svg" width="120" height="120" viewBox="0 0 120 136">
    <path fill="none" stroke="red" stroke-width=".004" d="M-48.638-41.881h2.625v-2.01h1.294v2.01H-42v5.043h-1.285v-.565h-1.434V-34h-1.294v-3.403h-1.41v.642h-1.215v-5.12M-52-39.978l.474-.527.345-.455.113-.15.434-.665.398-.713.148-.315.204-.432.298-.765.055.016.109.035.27.084.788.244-.154.388-.163.389-.018.041-.155.347-.182.386-.093.189-.023.046-.073.148-.197.378V-34h-1.23v-5.406l-.11.137-.109.132-.108.127-.085.098-.022.026-.106.12-.096.11-.007.008-.077-.184-.038-.08-.07-.146-.126-.25-.136-.25-.135-.231-.089-.136-.034-.053m-2.618-2.794L-56-34.292l-.248 1.524-1.755 10.77h22.006l-.775-4.752-.98-6.018-.248-1.523-1.382-8.48v-.032h-.007L-42-44.587l-5-3.416-5 3.416-2.61 1.784h-.008v.031M-38-44l.2 1.197 1.672 10.035 1.795 10.77L-34-20h-26l2.128-12.768 1.672-10.035L-56-44l1.775-1.183 5.745-3.831h.001L-47-50l9 6m-8.008 15.24.06.088.031.047.072.147.052.154.032.16.01.164-.01.163-.032.16-.01.03-.042.125-.072.147-.09.136-.109.123-.123.108-.136.091-.125.062V-25h-1v-1.855l-.125-.062-.136-.091-.123-.108-.108-.123-.091-.136-.072-.147-.043-.126-.009-.028-.032-.161-.01-.163.01-.163.032-.16.052-.155.072-.147.032-.047.059-.089.108-.123.123-.108.136-.091.125-.061V-31h1v1.856l.125.06.136.092.123.108.108.123m2.723-9.818v-2.11h-1.434v2.11h1.434m-2.728 0v-2.11h-1.41v2.11Zm0 0" transform="matrix(4.29492 0 0 4.26451 261.99 217.49)"/>
    <path d="M4.46 131.988c0-.066 3.849-23.058 8.552-51.09l8.55-50.968L60.118 4.406l19.16 12.684c10.54 6.976 19.227 12.746 19.305 12.824.125.125 17.191 101.332 17.191 101.953 0 .219-6.195.246-55.656.246-30.61 0-55.652-.054-55.656-.125m102.974-8.703c-.055-.246-3.34-20.219-7.301-44.379-4.031-24.578-7.293-44.008-7.403-44.113-.19-.18-31.617-21.492-32.296-21.902-.317-.192-1.715.718-16.746 10.914-9.02 6.12-16.399 11.199-16.399 11.289 0 .207-14.36 87.789-14.473 88.273l-.086.371h94.797Zm0 0"/>
    <path d="m44.45 60.844-.044-11.496-1.32 1.55-1.316 1.547-1.168-2.246c-.641-1.238-1.305-2.453-1.473-2.703l-.309-.457.688-.777c3.699-4.172 6.469-8.68 8.789-14.32.43-1.04.844-1.883.926-1.876.484.051 4.859 1.47 4.859 1.575 0 .289-2.062 4.89-3.227 7.195l-1.238 2.46v31.04h-5.125Zm0 0"/>
    <path d="M64.5 65.113v-7.226h-6.285v2.793h-4.961V39H64.5v-8.54h5.293V39h11.742v21.352h-5.293v-2.465h-6.449v14.449H64.5Zm0-16.586V43.93h-6.285v9.195H64.5Zm11.707-.043.043-4.554h-6.457v9.203l3.184-.047 3.183-.043ZM58.05 106.852v-3.915l-.804-.519c-.875-.563-1.855-1.86-2.176-2.883-.293-.926-.129-2.816.317-3.68.476-.921 1.343-1.867 2.078-2.257l.586-.317v-7.969h4.136v7.993l.403.183c.785.356 1.8 1.438 2.27 2.414 1.105 2.32.218 5.328-1.946 6.586l-.727.426v7.852h-4.136Zm0 0"/>
    <path fill="#f9f9f9" d="M13.066 123.328c0-.527 14.391-88.035 14.512-88.226.125-.207 31.383-21.45 32.168-21.864.238-.125.531-.183.652-.133.118.055 7.434 5 16.254 10.993 15.145 10.293 16.043 10.93 16.153 11.465.066.308 3.254 19.667 7.082 43.015 3.832 23.348 7.062 43.024 7.183 43.723l.22 1.273H60.175c-41.79 0-47.11-.027-47.11-.246m49.286-16.316v-3.918l.757-.477c.88-.547 1.778-1.683 2.149-2.715.406-1.125.34-2.922-.149-3.98-.484-1.047-1.363-2.059-2.171-2.488l-.586-.317v-7.969h-4.465v7.97l-.598.32c-1.484.792-2.547 2.71-2.547 4.601 0 1.918.813 3.473 2.36 4.523l.785.536v7.832h4.465Zm-12.57-50.008V41.512l1.558-3.188c1.664-3.394 3.117-6.832 2.933-6.941-.43-.258-5.214-1.582-5.32-1.469-.07.074-.45.95-.836 1.945-.844 2.157-2.699 5.813-4.031 7.942-1.086 1.73-3.453 4.89-4.711 6.281l-.836.922.785 1.3c.43.716 1.117 2.016 1.528 2.887.41.875.78 1.594.828 1.594.043.004.64-.648 1.32-1.453l1.242-1.457.086 22.625h5.453Zm20.179 8.273v-7.226h5.937l.047 1.191.051 1.192 2.852.043 2.855.046V38.836H69.961v-8.54h-5.625v8.54H52.922l.043 10.96.043 10.966 2.687.043 2.688.047V58.05h5.953V72.5h5.625Zm0 0"/>
    <path fill="#f9f9f9" d="M58.383 48.527v-4.433h5.953v8.867h-5.953Zm11.577 0v-4.433h5.954v8.867h-5.953Zm0 0"/>
</svg>
