<svg xmlns="http://www.w3.org/2000/svg" width="120" height="120" viewBox="0 0 120 136">
    <path fill="none" stroke="red" stroke-width=".004" d="M-42.084-41.513h-.601v3.87H-42v1.08h-4.772v-1.08h.64v-3.87h-.609v-1.056h.609v-1.377h1.035v1.377h1.347v-1.377h1.065v1.377h.6v1.056m-4.945.199v2.762h-3.539l-.014.73-.04.77-.019.188-.057.594-.12.758-.07.28-.073.287-.03.12-.003.009-.002.01-.203.522-.01.026-.013.033-.006.017-.007.015-.003.009-.095-.088-.124-.1-.142-.1-.145-.095-.138-.08-.117-.057.04-.112.174-.48.147-.653.094-.69.017-.225.034-.479.022-.697.005-.665v-4.293h1.765l-.033-.11-.005-.018-.041-.13-.041-.13-.044-.127-.046-.124-.048-.118.808-.174.333-.071.078.16.074.166.069.172.064.173.058.169.053.162h1.446v1.026h-1.279v.658h1.226m4.854 6.419.146.283-.978.556-.004.002-.13-.29-.173-.326-.203-.348-.224-.355-.233-.35-.232-.328.01-.005.918-.484.232.311.039.055.198.28.233.344.215.338.186.317m-2.694-.807-.186.328-.015.026-.255.384-.112.148-.16.211-.28.324-.213.21-.029.029-.017.016-.014.013-.007.008-.005.005-.112-.114-.14-.13-.156-.138-.162-.133-.157-.12-.14-.1.095-.081.17-.145.155-.157.102-.104.24-.289.22-.31.011-.02.18-.302.158-.328.03.009.613.183.408.12-.195.41-.027.047m-3.013-2.644v.834h.716v.911h-.716v.987l.758-.226.021-.006.043-.013v.019l.003.123.007.153.011.157.015.153.019.14.02.12-.118.038-.427.14-.034.01-.434.148-.313.113-.215.089-.143.074-.057.04-.017.012-.006.005-.016.01-.018-.072-.024-.082-.03-.089-.035-.092-.039-.096-.033-.07-.011-.026-.049.016-.033.01-.114.036-.23.073-.326.109-.24.089-.17.074-.119.063-.03.021-.033.024-.011.008-.007.005-.008-.06-.032-.123-.047-.138-.06-.144-.016-.037-.047-.102-.064-.127-.034-.057-.02-.035-.007-.01.073-.05.07-.062.058-.078.005-.007.052-.11.034-.142.012-.18v-2.608h.822v.864h.64v.92h-.64v1.039l.375-.09.17-.042.01-.003h.004l.01-.002.002-.001-.002.073-.001.078.002.082.004.084.005.084.007.081.056-.055.052-.066.046-.08.035-.095.024-.111.008-.128v-2.594h.837m-6.735-4.426L-56-34.292l-.248 1.524-1.755 10.77h22.006l-.775-4.752-.57-3.5-.41-2.518-.248-1.523-1.382-8.48v-.032h-.007L-42-44.587l-5-3.416-5 3.416-2.61 1.784h-.008v.031M-38-44l.2 1.197 1.672 10.035 1.795 10.77L-34-20h-26l2.128-12.768 1.672-10.035L-56-44l1.775-1.183 5.745-3.831h.001L-47-50l9 6m-12.182 13.525.707-.707.225.225 1 1 1.25 1.25 1.25-1.25.293-.293.932-.932.707.707-.225.225-.707.707-1 1-.543.543.543.543 1 1 .932.932-.707.707-.225-.225-1-1-1.25-1.25-1.25 1.25-1.225 1.225-.707-.707 1.225-1.225.707-.707.543-.543-.543-.543-1-1-.932-.932m.674 1.714.06.09.03.046.073.147.052.154.032.16.01.164-.01.163-.032.16-.052.155-.072.147-.091.136-.108.123-.123.108-.136.091-.147.072-.154.052-.161.032-.163.01-.163-.01-.161-.032-.154-.052-.147-.072-.075-.05-.061-.041-.123-.108-.108-.123-.091-.136-.072-.147-.052-.154-.032-.161-.011-.163.01-.163.033-.16.052-.155.072-.147.032-.047.059-.089.108-.123.123-.108.06-.04.076-.051.147-.072.154-.052.161-.032.163-.01.163.01.161.032.154.052.147.072.136.09.123.109.108.123m2.67 3.022.162.032.154.052.147.072.136.09.123.109.108.123.091.136.072.147.052.154.032.16.006.088.005.076-.011.163-.032.16-.052.155-.072.147-.09.136-.109.123-.123.108-.136.091-.147.072-.154.052-.161.032-.163.01-.104-.006-.059-.004-.16-.032-.155-.052-.147-.072-.136-.091-.123-.108-.108-.123-.091-.136-.072-.147-.052-.154-.032-.161-.01-.163.004-.076.006-.087.032-.16.052-.155.072-.147.09-.136.109-.123.123-.108.136-.091.147-.072.154-.052.161-.032.06-.004.103-.007.163.011m4.098-3.253.123.108.108.123.06.09.031.046.072.147.052.154.032.16.011.164-.01.163-.033.16-.052.155-.072.147-.09.136-.11.123-.122.108-.136.091-.133.065-.014.007-.154.052-.161.032-.163.01-.163-.01-.161-.032-.154-.052-.147-.072-.136-.091-.123-.108-.108-.123-.091-.136-.072-.147-.042-.126-.01-.028-.032-.161-.01-.163.01-.163.032-.16.052-.155.072-.147.031-.047.06-.089.108-.123.123-.108.136-.091.147-.072.154-.052.161-.032.163-.01.163.01.16.032.155.052.014.007.133.065.136.09m-3.054-2.83.016.079.016.08.01.164-.01.163-.032.16-.052.155-.072.147-.09.136-.018.019-.09.104-.124.108-.136.091-.147.072-.154.052-.161.032-.163.01-.163-.01-.16-.032-.155-.052-.147-.072-.136-.091-.123-.108-.091-.104-.017-.02-.091-.135-.072-.147-.052-.154-.032-.161-.01-.163.01-.163.016-.081.016-.08.052-.154.072-.147.09-.136.109-.123.123-.108.136-.091.147-.072.154-.052.161-.032.06-.004.103-.007.163.011.16.032.155.052.147.072.136.09.123.109.108.123.091.136.072.147.052.154m-3.627-7.647h.457v-.918h-.457v.918m4.364-2.042h-.041v.62h1.347v-.62h-1.306m-3.907-.459h-.457v.658h.457v-.658m-1.172.658v-.658h-.434v.658h.434m5.079 1.392h-.041v.627h1.347v-.627h-1.306m0 1.622h-.041v.658h1.347v-.658h-1.306m-2.766-2.09h-.434v.919h.434v-.918m-2.313 0h-.434v.918h.434Zm0 0" transform="matrix(4.29492 0 0 4.26451 261.99 217.49)"/>
    <path d="M4.46 131.988c0-.066 3.849-23.058 8.552-51.09l8.55-50.968L60.118 4.406l19.16 12.684c10.54 6.976 19.227 12.746 19.305 12.824.125.125 17.191 101.332 17.191 101.953 0 .219-6.195.246-55.656.246-30.61 0-55.652-.054-55.656-.125m102.974-8.703c-.055-.246-3.34-20.219-7.301-44.379-4.031-24.578-7.293-44.008-7.403-44.113-.19-.18-31.617-21.492-32.296-21.902-.317-.192-1.715.718-16.746 10.914-9.02 6.12-16.399 11.199-16.399 11.289 0 .207-14.36 87.789-14.473 88.273l-.086.371h94.797Zm0 0"/>
    <path d="M40.457 70.453c-.715-.492-1.375-.918-1.469-.95-.101-.034.032-.675.34-1.608 1.465-4.461 1.684-7.356 1.688-22.368V34.238h7.613l-.11-.449a30 30 0 0 0-.5-1.59c-.214-.625-.355-1.168-.316-1.207.059-.058 4.32-1.023 4.516-1.023.105 0 .98 2.043 1.355 3.16l.371 1.11h6.258v4.105h-5.637l.094 3.039 2.606.047 2.605.043V52.96H44.707l-.105 3.324c-.145 4.48-.602 8.336-1.344 11.293-.309 1.238-1.25 3.777-1.399 3.77-.054 0-.683-.403-1.402-.895m6.348-23.242v-1.969h-2.149v3.942h2.149Zm4.96 0v-1.969h-2.148v3.942h2.149Zm4.962 0v-1.969h-2.149v3.942h2.149Zm-9.922-7.305v-1.562h-2.149v3.12h2.149Zm4.96 0v-1.562h-2.148v3.12h2.149Zm0 0"/>
    <path d="M45.926 70.738c-.04-.07-.164-.422-.281-.781a12 12 0 0 0-.614-1.457l-.402-.797.402-.433c.739-.79.782-1.211.782-7.438v-5.887h3.308v3.614h2.813v3.777H49.12v2.297c0 1.265.055 2.3.125 2.297.066 0 .531-.11 1.031-.243 1.32-.351 1.325-.351 1.328.532 0 1.011.172 1.304.536.91.57-.629.617-1.172.617-7.117v-5.903h3.472v3.45h3.145v3.777H56.23v2.21c0 1.696.051 2.196.208 2.145.113-.039.867-.265 1.675-.504 1.707-.507 1.75-.484 1.758.91 0 .497.047 1.173.102 1.5l.101.594-2.625.864c-1.441.476-3.101 1.078-3.687 1.336-.586.261-1.114.418-1.18.347-.062-.066-.238-.511-.395-.988-.164-.5-.378-.86-.515-.86-.395 0-3.402.997-4.52 1.497-1.187.531-1.129.515-1.226.351m15.269-11.457v-2.215h2.809v-16.75h-2.645v-4.27h2.645v-5.913h4.137v5.922l3.015-.047 3.02-.043.047-2.918.043-2.914h4.293v5.914h2.648v4.27h-2.648v16.75h2.976V61.5h-20.34Zm12.98-3.695V54.19l-3.019-.043-3.015-.046v2.972l3.015-.047 3.02-.043Zm.048-7.02.05-1.355h-6.132v2.8l3.015-.046 3.02-.043Zm0-6.812-.047-1.356-3.02-.046-3.015-.043v2.796h6.132ZM63.45 72.035c-.153-.168-.93-.84-1.731-1.488l-1.45-1.18 1.45-1.457c1.414-1.418 2.86-3.402 3.625-4.972.21-.43.449-.782.531-.782s1.074.27 2.2.602l2.05.601-.91 1.707c-.5.938-1.211 2.149-1.582 2.688-.742 1.086-2.852 3.633-3.492 4.215-.399.363-.418.367-.692.066m13.633-.406c-.25-.746-2.312-4.238-3.68-6.223l-1.097-1.597 1.02-.559a68 68 0 0 1 1.878-.992l.86-.426.73.941c.89 1.153 3.36 4.875 4.066 6.137l.52.926-1.7.95a79 79 0 0 0-2.054 1.179c-.336.21-.371.191-.543-.336m-18.32 16.574c-1.09-.351-2.117-1.02-2.7-1.746-2.09-2.625-1.218-6.527 1.79-7.992.796-.39 1.152-.461 2.265-.461s1.473.07 2.262.457c1.121.547 2.012 1.48 2.574 2.7.363.784.406 1.07.344 2.237-.113 2.165-1.094 3.602-3.07 4.5-1.075.485-2.516.614-3.465.305m-14.746 15.004a5.7 5.7 0 0 1-1.414-.555c-3.715-2.16-3.602-7.39.199-9.246.8-.39 1.148-.457 2.265-.457 1.73.008 2.762.45 3.88 1.66 2.367 2.57 1.605 6.586-1.536 8.102-1.137.547-2.312.719-3.394.496m0 0"/>
    <path d="m47.96 110.023-1.398-1.398 5.333-5.293 5.328-5.297-5.29-5.25-5.292-5.254 1.445-1.441 1.441-1.438 5.297 5.254 5.297 5.258L70.7 84.656l1.45 1.434 1.453 1.433-5.293 5.258-5.297 5.258 5.336 5.293 5.332 5.297-1.45 1.437-1.445 1.434-5.25-5.21c-2.89-2.868-5.328-5.216-5.418-5.216s-2.508 2.328-5.375 5.176c-2.863 2.844-5.246 5.172-5.293 5.172-.05 0-.719-.629-1.488-1.399m0 0"/>
    <path d="M73.918 103.156c-2.453-.68-3.961-2.644-3.957-5.16 0-1.988 1.223-3.832 3.121-4.695 1.188-.543 3.117-.496 4.348.101 1.027.504 1.906 1.368 2.484 2.453.559 1.043.547 3.329-.02 4.47-1.082 2.183-3.753 3.448-5.976 2.831M59.23 118.137c-1.636-.309-3.125-1.43-3.855-2.907-.316-.632-.383-1.035-.383-2.25 0-1.332.047-1.562.488-2.355 1.817-3.254 6.075-3.777 8.543-1.047 1.801 1.992 1.75 5.117-.117 7.024-1.226 1.253-3.031 1.847-4.676 1.535m0 0"/>
    <path fill="#f9f9f9" d="M13.066 123.328c0-.133 2.754-17.039 6.125-37.566 3.368-20.524 6.614-40.313 7.207-43.969.598-3.656 1.172-6.734 1.278-6.832.25-.242 31.289-21.266 31.969-21.656.285-.164.62-.254.746-.2.12.055 7.441 5 16.261 10.993 15.145 10.293 16.043 10.93 16.153 11.465.066.308 3.254 19.667 7.082 43.015 3.832 23.348 7.062 43.024 7.183 43.723l.22 1.273H60.175c-41.656 0-47.11-.027-47.11-.246m49.012-5.277c.867-.301 1.852-1.047 2.438-1.836 1.609-2.172 1.289-5.387-.711-7.176-2.828-2.523-7.407-1.484-8.723 1.977-.508 1.343-.426 3.23.195 4.433 1.266 2.457 4.114 3.543 6.801 2.602m-7.254-11.555 5.293-5.258 5.336 5.297 5.332 5.293 1.613-1.598 1.61-1.601-10.664-10.594 5.293-5.254 5.293-5.25-1.575-1.562-1.57-1.559-5.293 5.254-5.289 5.25-5.254-5.21c-2.886-2.868-5.324-5.216-5.414-5.216s-.851.684-1.695 1.52l-1.535 1.515 5.336 5.297 5.332 5.301-10.664 10.594 1.527 1.515c.844.836 1.566 1.52 1.613 1.52s2.469-2.363 5.375-5.254m-7.441-3.512c2.695-1.222 3.883-4.41 2.652-7.12a5.62 5.62 0 0 0-2.707-2.727c-.61-.278-1.086-.352-2.262-.352-1.761-.004-2.691.363-3.851 1.516-1.121 1.113-1.438 1.96-1.438 3.82 0 1.367.055 1.66.438 2.387.738 1.39 2.11 2.46 3.695 2.883.832.222 2.524.027 3.473-.407m30.11-.015c1.038-.508 2.105-1.551 2.597-2.543.539-1.094.601-3.063.133-4.301-.465-1.227-1.45-2.312-2.621-2.883-.82-.398-1.137-.46-2.434-.46-1.293 0-1.61.062-2.426.456-2.957 1.442-3.941 5.375-2 7.996.809 1.09 1.883 1.82 3.14 2.137.997.246 2.65.063 3.61-.402M62.41 88.05c3.008-1.367 4.074-5.188 2.215-7.934-2.422-3.57-8.047-2.937-9.562 1.074-.47 1.243-.403 3.2.148 4.317 1.309 2.648 4.492 3.773 7.2 2.543m2.914-17.043a36 36 0 0 0 2.266-2.875c1-1.453 2.7-4.457 2.7-4.774 0-.152-.497-.32-3.59-1.21l-1.028-.294-.738 1.38a19.6 19.6 0 0 1-3.809 4.96l-1.23 1.164 1.433 1.145c.79.625 1.621 1.336 1.844 1.574s.516.414.652.387c.133-.024.813-.684 1.5-1.457m14.09.164c1.121-.637 2.07-1.192 2.106-1.227.199-.195-2.504-4.554-4.387-7.086l-.89-1.195h5.46v-4.762h-2.976V40.48h2.644v-4.597h-2.644v-5.914H73.93v5.914h-5.461v-5.914h-4.63v5.914h-2.644v4.597h2.645v16.422h-2.813v4.762l14.805.008-1.773.945c-.973.52-1.817.996-1.88 1.055-.058.058.528 1.055 1.301 2.21 1.489 2.223 3.372 5.466 3.532 6.087.05.203.156.367.226.367.075 0 1.051-.523 2.176-1.164m-36.848-.848c1.329-3.449 2.012-7.761 2.204-13.875l.101-3.324h15.164V41.301h-5.293v-2.793h5.625v-4.434h-6.242l-.453-1.27c-.652-1.82-1.2-3-1.395-3-.199 0-4.859.981-4.914 1.036-.02.02.215.758.524 1.637l.562 1.597h-7.597v11.047c0 16.063-.301 19.313-2.227 24.117-.082.2.113.39.77.758.48.274 1.25.797 1.703 1.168.457.367.84.672.855.676s.293-.68.613-1.516m4.403.352c.5-.23 1.758-.7 2.789-1.04 2.105-.698 1.976-.734 2.426.677.152.48.308.874.347.874.04 0 .496-.21 1.02-.468.52-.258 2.226-.895 3.789-1.41l2.847-.942-.097-1.914c-.055-1.055-.113-1.933-.133-1.957-.02-.023-.789.18-1.71.45-.919.273-1.712.495-1.763.495-.047 0-.086-.886-.086-1.972V61.5h3.141v-4.105H56.4v-3.45h-3.805v5.918c0 4.793-.047 6.024-.239 6.485-.351.832-.59.707-.59-.313v-.883l-1.238.29-1.242.285V61.5h2.813v-4.105h-2.813V53.78h-3.637l-.003 5.871c0 3.36-.07 6.121-.165 6.453-.09.325-.382.793-.648 1.051l-.488.465.472.93c.258.511.598 1.316.754 1.789.157.476.332.836.387.808.059-.027.512-.242 1.012-.472m0 0"/>
    <path fill="#f9f9f9" d="M44.82 39.906v-1.398h1.82V41.3h-1.82Zm4.961 0v-1.398h1.82V41.3h-1.82ZM44.82 47.21v-1.804h1.82v3.614h-1.82Zm4.961 0v-1.804h1.82v3.614h-1.82Zm4.961 0v-1.804h1.82v3.614h-1.82Zm13.727-5.5v-1.23h5.46v2.461h-5.46Zm0 6.9v-1.235h5.46v2.465h-5.46Zm0 6.976v-1.313h5.46v2.63h-5.46Zm0 0"/>
</svg>
