<svg xmlns="http://www.w3.org/2000/svg" width="120" height="120" viewBox="0 0 120 136">
    <path fill="none" stroke="red" stroke-width=".004" d="M-42-42.101v.026l-.001.008v.032l-.001.055-.002.12-.001.076v.057l-.002.125v.098l-.017.544-.001.053-.044 1.5-.07 1.646-.062.897-.024.35-.111.9-.143.61-.182.37-.15.178-.157.138-.04.026-.123.078-.174.077-.189.056-.207.043-.218.022-.255.012-.283.004-.301-.002-.298-.005h-.012l-.12-.003-.09-.002-.05-.002h-.05l-.023-.188-.043-.207-.063-.215-.08-.213-.097-.201-.1-.16-.006-.01-.005-.008.328.023.31.015.1.004.186.005.253.005.214.002h.168l.095-.004.084-.013.075-.024.057-.03.011-.005.064-.048.063-.062.138-.266.112-.496.089-.753v-.001l.013-.19.06-.842.057-1.34.05-1.67h-2.669l-.129.27-.133.26-.137.249-.015.025-.03.052-.018.03-.077.13-.143.224-.135.194-.005.008-.005.007-.134-.104-.173-.121-.033-.022-.162-.107-.2-.126-.193-.115-.11-.062-.058-.033.359-.5.177-.313.15-.267.037-.078.259-.565.258-.688.075-.245.144-.47.18-.727 1.132.229.095.02-.07.275-.025.092-.05.186-.081.278-.036.117-.049.159-.087.274-.09.269H-42m-6.87.02.065.097.029.043.093.142.089.14.082.132.097-.074.092-.075.088-.076.083-.075.079-.075.073-.075.003.003.761.695-.195.192-.14.127-.066.06-.217.183-.228.178-.238.172-.042.028-.205.138.564.977.1.312.25.773.156 1.099-.003.176-.015.841-.17.841-.197.366-.11.205-.164.18-.177.142-.192.106-.208.073-.226.045-.193.014-.053.005h-.387l-.142-.004-.146-.005-.016-.001-.063-.002-.037-.002h-.029l-.015-.174-.027-.187-.038-.193-.051-.194-.003-.008-.002-.007-.015-.043-.044-.127-.079-.169.123.011.03.003.152.012.146.01.136.005.124.004.108.002.114-.004.102-.016.092-.032.02-.013.064-.04.08-.079.079-.11.078-.123.067-.17.056-.209.042-.247.028-.279.01-.274.002-.032-.421.352-.085.065-.36.275-.301.21-.16.113-.203.13-.264.17-.464.27-.296.155-.017.009-.06.031-.039.021-.019.01-.013.007-.006.003-.084-.15-.098-.163-.109-.164-.116-.161-.12-.148-.089-.096-.03-.032.572-.248.228-.118.361-.187.584-.352.18-.123.376-.259.505-.401.042-.04.388-.366-.013-.081-.017-.08-.019-.083-.02-.08-.02-.083-.02-.081-.279.207-.102.076-.408.28-.424.268-.428.253-.422.229-.264.13-.022.01-.069.036-.023.01-.015.008-.01.005-.071-.144-.091-.156-.105-.161-.113-.157-.115-.146-.091-.105-.02-.023.462-.175.283-.126.205-.092.493-.249.476-.273.305-.199.132-.086.376-.288-.036-.068-.04-.066-.04-.063-.072-.108-.012-.018-.003-.004-.018-.026-.018-.027-.005-.008-.302.16-.307.153-.312.146-.314.141-.315.133-.071.03-.122.048-.123.05-.058-.099-.02-.035-.096-.147-.109-.151-.118-.146-.12-.133-.098-.093-.008-.007-.007-.007-.004-.004.18-.07.178-.073.178-.074.177-.077.048-.021.13-.059.18-.084-.095-.188-.112-.205-.103-.179-.02-.033-.127-.214-.03-.048-.101-.158-.128-.192.406-.192.476-.226.121.165.012.015.136.195.135.204.119.19.01.015.119.2.103.186.104-.06.105-.06.105-.064.105-.064.103-.066.101-.066-.011-.022-.068-.134-.092-.164-.1-.167-.105-.167-.105-.162-.102-.153.777-.397.09-.045.095.13.096.137m-2.483.23-.078-.144-.096-.161-.109-.167-.116-.165-.117-.15-.092-.104-.022-.024.166-.036.49-.106.128-.034.25-.065.287-.075.65-.2.616-.221.245-.103.315-.132.483-.245.028.03.696.745-.357.201-.159.09-.252.115-.332.152-.416.16-.006.001-.21.081-.661.215-.67.186-.202.048-.305.07-.075.019-.038.008-.02.005-.014.003-.007.002m7.4 4.25-.862.739-.113.097-.127-.195-.102-.155-.297-.381-.347-.396-.381-.395-.397-.379-.278-.244-.118-.103.378-.313.015-.012.012-.011.492-.408.4.326.407.358.171.163.045.042.179.17.364.38.315.37.245.346m-10.665-5.168L-56-34.292l-.248 1.524-1.755 10.77h22.006l-1.755-10.77-.248-1.523-1.382-8.48v-.032h-.007L-42-44.587l-5-3.416-5 3.416-2.61 1.784h-.008v.031M-38-44l.2 1.197 1.672 10.035 1.795 10.77L-34-20h-26l2.128-12.768 1.672-10.035L-56-44l1.775-1.183 5.745-3.831h.001L-47-50l9 6m-6.525 12.818.707.707L-46.293-28l2.475 2.475-.707.707-1.975-1.975V-25h-1v-1.793l-1.975 1.975-.707-.707L-47.707-28l-2.475-2.475.707-.707 1.975 1.975V-31h1v1.793Zm0 0" transform="matrix(4.29492 0 0 4.26451 261.99 217.49)"/>
    <path d="M4.46 131.988c0-.066 3.849-23.058 8.552-51.09l8.55-50.968L60.118 4.406l19.16 12.684c10.54 6.976 19.227 12.746 19.305 12.824.125.125 17.191 101.332 17.191 101.953 0 .219-6.195.246-55.656.246-30.61 0-55.652-.054-55.656-.125m102.974-8.703c-.055-.246-3.34-20.219-7.301-44.379-4.024-24.515-7.293-44.008-7.403-44.113-.19-.176-31.613-21.488-32.296-21.902-.317-.192-1.715.718-16.746 10.914-9.02 6.12-16.399 11.199-16.399 11.289 0 .207-14.36 87.789-14.473 88.273l-.086.371h94.797Zm0 0"/>
    <path d="M41.148 38.305c-.14-.293-.675-1.114-1.187-1.817-.512-.707-.93-1.316-.93-1.355 0-.04.133-.074.297-.074.637 0 5.711-1.364 8.293-2.227 1.496-.504 3.598-1.324 4.672-1.832 2.266-1.062 1.86-1.164 3.797.969l1.148 1.261-1.37.739c-1.9 1.02-4.434 2.066-7.165 2.957-2.18.71-6.625 1.91-7.086 1.91-.113 0-.324-.238-.469-.531m6.079 33.664c-.036-.114-.11-.598-.168-1.074-.09-.758-.493-2.239-.813-2.993-.094-.21.121-.234 1.59-.156 2.852.152 3.375-.027 4.21-1.441.579-.977.868-2.164.99-4.063l.109-1.64-.649.539c-1.394 1.164-5.027 3.804-6.52 4.746-1.718 1.078-4.453 2.582-4.527 2.488-.023-.035-.289-.469-.594-.965-.3-.496-.867-1.316-1.261-1.824l-.715-.922 1.11-.46c2.097-.872 5.46-2.763 7.808-4.4 2.543-1.769 4.797-3.761 4.797-4.238 0-.515-.387-1.949-.524-1.949-.074 0-.738.442-1.472.98-1.66 1.227-4.977 3.27-7.27 4.489l-1.742.922-.469-.828c-.258-.457-.82-1.29-1.246-1.852l-.781-1.023 1.086-.387c2.664-.941 9.554-4.781 10.398-5.79.149-.179.063-.413-.386-1.077l-.579-.852-1.941.961c-2.082 1.028-5.98 2.723-6.059 2.625a71 71 0 0 1-.597-.879 24 24 0 0 0-1.211-1.601c-.364-.43-.625-.809-.59-.84.039-.035.894-.406 1.906-.824 2.73-1.141 2.61-.91 1.508-2.828a66 66 0 0 0-1.508-2.528l-.578-.902.61-.313a46 46 0 0 1 1.8-.855l1.188-.54.972 1.43c.54.786 1.254 1.887 1.598 2.454.34.566.656 1.027.703 1.027.227 0 2.703-1.578 2.703-1.723 0-.144-.554-1.101-2.027-3.5-.18-.297-.3-.566-.27-.597.036-.032.825-.434 1.754-.895l1.692-.84 1.168 1.723c.64.95 1.199 1.726 1.238 1.726.043 0 .562-.406 1.148-.902l1.075-.902 1.492 1.344c.824.738 1.496 1.398 1.496 1.468 0 .305-4.184 3.692-5.426 4.395-.16.09.106.672 1.04 2.265.987 1.692 1.41 2.63 1.991 4.438 2.399 7.477 1.645 15.488-1.714 18.227-1.278 1.039-2.516 1.359-5.258 1.359-1.633 0-2.239-.055-2.285-.203m0 0"/>
    <path d="M67.074 71.594c-.152-1-.695-2.637-1.148-3.45l-.371-.664 3.566.063c2.266.039 3.73 0 4.016-.11 1.836-.71 2.433-4.527 2.941-18.742.09-2.484.164-4.793.164-5.132v-.618H64.695l-1.004 1.887c-1.187 2.223-2.433 4.192-2.652 4.192a.34.34 0 0 1-.25-.149c-.113-.184-2.621-1.832-3.363-2.215-.293-.148-.531-.355-.531-.453s.253-.52.562-.937c2.14-2.899 4.293-7.864 5.633-13 .312-1.192.594-2.196.629-2.235.039-.035 1.168.16 2.52.43 1.347.273 2.468.492 2.495.492.075 0-.879 3.406-1.48 5.297l-.567 1.766h14.891l-.11 3.324c-.448 13.894-.714 18.93-1.183 22.539-.597 4.59-1.543 6.539-3.7 7.633-1.35.683-2.374.824-5.98.824h-3.421Zm0 0"/>
    <path d="M68.45 59.656c-1.118-1.734-3.856-4.75-6.45-7.105l-1.59-1.446 1.84-1.511 1.836-1.516 1.242.996c1.738 1.39 6.086 5.73 6.992 6.98l.758 1.044-1.766 1.504a155 155 0 0 1-2.035 1.71c-.234.18-.343.094-.828-.656M47.96 110.023l-1.398-1.398 5.333-5.293 5.328-5.297-5.29-5.25-5.292-5.254 1.445-1.441 1.441-1.438 4.262 4.227 4.262 4.23v-7.796h4.136v7.796l4.258-4.23 4.262-4.227 1.445 1.438 1.442 1.441-5.29 5.254-5.292 5.25 5.332 5.297 5.336 5.297-1.45 1.437-1.445 1.434-4.176-4.145c-2.296-2.28-4.234-4.144-4.3-4.144-.067 0-.121 1.7-.121 3.777v3.778H58.05v-3.778c0-2.078-.055-3.777-.125-3.777s-1.985 1.848-4.258 4.105-4.172 4.106-4.219 4.106-.719-.629-1.488-1.399m0 0"/>
    <path fill="#f9f9f9" d="M13.066 123.328c0-.527 14.391-88.035 14.512-88.226.125-.207 31.383-21.45 32.168-21.864.238-.125.531-.183.652-.133.118.055 7.434 5 16.254 10.993 15.145 10.293 16.043 10.93 16.153 11.465.066.308 3.254 19.667 7.082 43.015 3.832 23.348 7.062 43.024 7.183 43.723l.22 1.273H60.175c-41.707 0-47.11-.027-47.11-.246m40.641-15.723 4.18-4.144v7.469h4.465v-7.47l4.218 4.185 4.215 4.183 1.613-1.598 1.61-1.601-10.664-10.594 5.293-5.254 5.293-5.25-1.575-1.562-1.57-1.559-4.215 4.184-4.218 4.187v-7.633h-4.465v7.47l-4.094-4.063c-2.254-2.239-4.168-4.067-4.258-4.067s-.851.684-1.695 1.52l-1.535 1.515 5.336 5.297 5.332 5.301-10.664 10.594 1.527 1.515c.844.836 1.566 1.52 1.613 1.52.043 0 1.961-1.867 4.258-4.145m21.43-35.363c1.984-.512 3.11-1.355 3.957-2.972 1.469-2.805 1.972-8.293 2.543-27.68l.11-3.738h-7.395c-6.965 0-7.387-.016-7.305-.286l.672-2.148c.644-2.05 1.293-4.477 1.215-4.547-.145-.129-5.274-1.105-5.36-1.02-.058.055-.246.715-.422 1.465-1.199 5.102-3.578 10.7-5.879 13.82-.39.528-.71 1.024-.71 1.098s.464.41 1.035.746a52 52 0 0 1 2.316 1.497l1.285.882.965-1.484a36 36 0 0 0 1.773-3.117l.813-1.637 5.664-.008c5.29-.004 5.664.012 5.664.282-.004.156-.078 2.355-.164 4.886-.394 11.246-.89 16.172-1.816 17.973-.586 1.14-.942 1.219-5.157 1.121l-3.714-.086.636 1.27c.356.707.762 1.863.914 2.605l.282 1.336h3.535c2.687 0 3.777-.059 4.543-.258m-22.235-.215c1.809-.558 2.868-1.586 4.07-3.937.153-.305.462-1.395.68-2.426 1.098-5.152-.082-12.629-2.715-17.18-.535-.925-1.058-1.84-1.16-2.035-.168-.324-.07-.433 1.176-1.336 1.73-1.25 4.29-3.465 4.223-3.66-.028-.082-.785-.812-1.684-1.621l-1.633-1.473-1.078.961-1.074.961-1.133-1.707c-.62-.937-1.21-1.707-1.304-1.707-.239 0-3.805 1.785-3.805 1.906 0 .051.152.309.34.567.187.262.746 1.156 1.242 1.992l.902 1.516-1.117.703c-.613.386-1.207.703-1.32.703-.11 0-.325-.238-.477-.531-.45-.88-2.73-4.227-2.879-4.227-.074 0-1 .402-2.054.895l-1.918.89.89 1.367c1.035 1.59 2.094 3.457 2.094 3.692 0 .172-1.43.863-3.34 1.613l-1.105.438.996 1.175c.55.649 1.16 1.454 1.355 1.793.196.336.45.614.567.614.336.004 3.675-1.426 5.91-2.528l2.039-1 .426.672c.234.371.425.715.425.766 0 .176-2.261 1.75-3.968 2.762-1.875 1.109-4.793 2.52-6.43 3.113-.563.203-1.059.43-1.102.5s.29.613.743 1.203c.449.594 1.023 1.43 1.27 1.86l.487.835c.02.028.77-.316 1.668-.765 2.555-1.274 5.024-2.77 7.52-4.551l1.426-1.016.414 1.836-1.055.988c-2.809 2.645-8.277 6.102-12.016 7.606l-.875.351.801.985a20 20 0 0 1 1.434 2.062l.633 1.075 1.425-.766c2.989-1.613 6.75-4.113 9.024-6.004l1-.832.05.59c.079.89-.37 3.21-.788 4.094-.204.425-.633 1.007-.957 1.289l-.586.511-4.68-.117.469 1.348c.257.742.511 1.832.57 2.422l.102 1.074h2.44c1.927 0 2.653-.063 3.442-.309m18.586-13.3c.977-.836 1.778-1.563 1.778-1.61 0-.304-1.778-2.469-3.38-4.12-1.64-1.688-5.3-4.95-5.722-5.099-.164-.058-3.96 3.028-3.96 3.223 0 .066.745.785 1.663 1.594 2.465 2.183 5.61 5.691 6.758 7.535.379.61.383.61.734.305.192-.172 1.153-.992 2.13-1.828M46.094 37.949c2.172-.605 5.703-1.847 7.41-2.605 1.566-.692 3.836-1.88 3.953-2.063.035-.058-.656-.875-1.535-1.812l-1.602-1.707-.906.504c-2.168 1.203-6.746 2.82-11.062 3.906-1.586.398-3.016.723-3.176.723-.489 0-.531.335-.102.796.469.504 1.602 2.164 1.996 2.922l.266.516 1.64-.383c.899-.21 2.305-.57 3.118-.797m0 0"/>
</svg>
