<svg xmlns="http://www.w3.org/2000/svg" width="120" height="120" viewBox="0 0 120 136">
    <path fill="none" stroke="red" stroke-width=".004" d="M-12-33v10h-10v-10h10m0-9.453h-1.573v1.106h1.413v4.81l-.005.191-.018.171-.034.151-.053.131-.018.026-.018.027-.041.06-.103.094-.115.074-.124.054-.134.036-.147.023-.16.011-.152.003h-.023l-.022-.125-.032-.14-.026-.09-.017-.058-.05-.15-.058-.145-.063-.135V-34h-1.015v-6.28h-.465v4.834h-.916v-5.901h1.381v-1.114h-1.496v-1.083H-12v1.091m-6.947-.163h.497l.018-.065.033-.122.013-.045.042-.16.019-.076.058-.237.052-.234.047-.225.038-.212 1.128.2H-17l-.07.202-.067.2-.067.198-.062.184-.004.012-.065.192v.001l-.062.187h1.046v3.372h-1.603v.712h1.679v3.619h-1.68v.735h-.992v-8.438M-22-41.046l.178-.156.175-.167.172-.175.168-.184.163-.19.159-.195-.105-.215-.118-.213-.131-.211-.035-.05-.107-.16-.036-.046-.119-.16-.166-.206.848-.595.125.144.118.146.111.148.105.148.015.022.085.126.097.148.091-.152.087-.154.084-.154.08-.153.076-.15.07-.15.004.002.974.6-.13.252-.076.138-.063.113-.055.092-.092.155-.155.245-.16.241-.13.178-.04.057.19.58.088.387.048.205.093.605.057.618.028.62v.014l.008.652-.008.738-.025.644-.003.082-.057.685-.093.615-.137.515-.074.15-.115.237-.07.092-.082.082-.09.07-.102.057-.11.043-.118.027-.154.034-.02.004-.143.022-.17.018-.179.012-.184.004h-.189l-.01-.202-.025-.2-.04-.2-.027-.1-.006-.024-.02-.069-.027-.078-.005-.014-.034-.095-.08-.18.114.012.046.004.145.007h.131l.116-.003.072-.005.029-.003.087-.011.06-.007.055-.012.048-.02.042-.027.037-.036.033-.045.085-.176.038-.165.03-.127.05-.387.034-.461.005-.125.016-.39.009-.551-.144.222-.007.01-.153.222-.156.213-.157.201-.06.073-.097.115-.154.17-.003.004-.088-.156-.08-.133-.025-.042-.118-.182-.125-.178-.107-.14-.017-.023-.044-.05-.048-.054-.028-.032.293-.282.291-.345.28-.393.202-.327.06-.096.23-.437.111-.248.083-.185-.023-.176-.025-.174-.026-.172-.009-.054-.019-.115-.028-.166-.021-.113-.005-.026-.003-.018-.001-.007-.214.216-.108.105-.108.103-.11.1-.01.009-.043.038-.021.018-.016.013-.012.011-.007.006-.105-.128-.126-.138-.14-.14-.146-.135-.143-.123-.02-.016-.024-.018-.025-.018-.024-.019-.02-.015-.013-.01-.008-.006m8.714 4.601.052.001h.043l.028-.002.021-.007.016-.013.011-.02.006-.03.002-.036v-3.728h-.466v3.821l.082.006.075.004.069.003h.035l.026.001m-11.332-6.327L-26-34.292l-.248 1.524-1.755 10.77h22.006l-1.755-10.77L-8-34.291l-1.382-8.48v-.032h-.007L-12-44.587l-5-3.416-5 3.416-2.61 1.784h-.008v.031M-8-44l.2 1.197 1.672 10.035 1.795 10.77L-4-20h-26l2.128-12.768 1.672-10.035L-26-44l1.775-1.183 5.745-3.831h.001L-17-50l9 6m-7 18h-4v-4h4v4m0 1.002h1.002v-6.005h-6.005v6.005H-15m-2.275-10.982v-1.477h-.68v1.477h.68m-.069-5.56h-.61v1.221h.61Zm0 0" transform="matrix(4.29492 0 0 4.26451 133.142 217.49)"/>
    <path fill="red" d="M4.46 131.988c0-.066 3.849-23.058 8.552-51.09l8.55-50.968L60.118 4.406l19.16 12.684c10.54 6.976 19.227 12.746 19.305 12.824.125.125 17.191 101.332 17.191 101.953 0 .219-6.195.246-55.656.246-30.61 0-55.652-.054-55.656-.125m102.974-8.703c-.055-.246-3.34-20.219-7.301-44.379-4.035-24.601-7.29-44.008-7.403-44.11-.195-.183-31.625-21.5-32.296-21.905-.317-.192-1.72.722-16.746 10.914-9.02 6.12-16.399 11.199-16.399 11.289 0 .207-14.36 87.789-14.473 88.273l-.086.371h94.797Zm0 0"/>
    <path fill="red" d="M41.465 70.813c-.055-.567-.278-1.59-.496-2.278l-.403-1.246 1.672-.082c.922-.047 1.805-.14 1.969-.207.36-.148.828-1.047 1.074-2.05.29-1.18.555-4.848.5-6.876l-.05-1.867-.942 1.375c-1.09 1.586-2.723 3.59-2.93 3.59-.078 0-.445-.5-.816-1.11a24 24 0 0 0-1.32-1.93l-.649-.82 1.133-1.203c1.746-1.855 3.074-3.847 4.61-6.902l.855-1.7-.727-4.554-1.41 1.29-1.406 1.284-1.176-1.183c-.648-.653-1.394-1.348-1.66-1.543l-.48-.356.714-.605c.391-.332 1.368-1.34 2.172-2.238l1.457-1.633-.695-1.332c-.383-.73-1.164-1.95-1.738-2.711-.578-.758-.989-1.43-.914-1.492s.851-.61 1.73-1.207l1.594-1.094.648.781c.356.43.965 1.223 1.352 1.766.383.543.781.984.879.984s.593-.793 1.105-1.762c.512-.968.996-1.761 1.082-1.765.082 0 .996.52 2.028 1.16l1.875 1.16-.676 1.29c-.371.71-1.23 2.116-1.906 3.128l-1.227 1.84.488 1.52c1.215 3.765 1.664 7.652 1.66 14.402-.004 7.976-.511 12.093-1.816 14.64-.395.778-.79 1.282-1.242 1.602-.824.582-2.598.965-4.453.965h-1.371ZM51.934 53.79V35.897l1.03-.05L54 35.8l.605-2.383c.336-1.309.618-2.578.622-2.824.015-.57.14-.633.93-.469.359.078 1.37.262 2.25.414l1.597.277-.813 2.403c-.445 1.324-.808 2.46-.808 2.535 0 .07 1.004.129 2.23.129h2.235v14.12h-6.946v3.286h7.278v15.273h-7.278v3.118h-3.968Zm7.109 7.136v-3.203h-3.14v6.402h3.14Zm-.332-17.985v-2.625h-2.809v5.254h2.809Zm11.91 16.012V45.57H68.47v20.692h-3.801V41.3h5.953v-4.926h-6.45V31.94h17.364v4.434h-6.781V41.3h6.133l-.094 22.086-.371.75c-.207.41-.594.91-.863 1.11-.543.398-2.098.85-2.914.85-.508 0-.536-.034-.79-1.046-.148-.574-.433-1.406-.64-1.848l-.375-.8-.047 4.968-.043 4.965h-4.129Zm6.285-5.09V45.57h-2.152v16.586h2.152ZM38.7 98.04V76.77h42.835v42.535H38.7Zm34.402 0V85.147H47.137v25.782h25.965Zm0 0"/>
    <path fill="red" d="M51.602 98.04v-8.458h17.035v16.914H51.602Zm0 0"/>
    <path fill="#f9f9f9" d="M13.066 123.328c0-.527 14.391-88.035 14.512-88.226.184-.297 32.3-22.047 32.555-22.047.12 0 7.496 4.937 16.387 10.972 15.273 10.36 16.175 11 16.285 11.535.066.313 3.254 19.668 7.082 43.016 3.832 23.348 7.062 43.024 7.183 43.723l.22 1.273H60.175c-41.707 0-47.11-.027-47.11-.246M81.703 98.04V76.605H38.535v42.864h43.168Zm-6.781-30.258c.004-3.058.058-4.636.16-4.476.09.136.32.855.52 1.601l.363 1.356h.68c.964 0 2.296-.371 2.984-.836.324-.219.754-.727.957-1.137l.371-.738.047-11.207.05-11.207h-6.132V36.54h6.781v-4.762h-17.7v4.762h6.454v4.598H64.5v25.289h4.137V45.734h1.82V72.5h4.465Zm-29.36 4.004c1.766-.379 2.461-.898 3.227-2.402.652-1.281 1.086-2.914 1.441-5.422.434-3.05.43-15.285-.003-18.145-.332-2.183-.922-4.777-1.403-6.152l-.312-.898 1.199-1.813c1.285-1.941 2.547-4.152 2.55-4.469 0-.164-3.917-2.68-4.179-2.68-.055 0-.523.813-1.043 1.81-.52.991-1 1.804-1.062 1.804-.067 0-.38-.387-.696-.863-.87-1.293-1.933-2.586-2.133-2.586-.097 0-.988.566-1.98 1.258-1.184.82-1.758 1.316-1.664 1.437.074.098.45.578.832 1.063.379.484 1.11 1.578 1.621 2.43.879 1.464.914 1.566.695 1.984-.125.238-1.101 1.32-2.164 2.398l-1.93 1.965.442.328c.246.18 1.027.906 1.738 1.617.715.707 1.344 1.285 1.403 1.285s.687-.57 1.394-1.27c.707-.694 1.285-1.194 1.29-1.109 0 .09.148 1.043.327 2.122l.325 1.96-.989 1.97c-1.265 2.511-2.879 4.89-4.414 6.511-.664.703-1.207 1.328-1.207 1.39 0 .063.254.422.563.797.312.375.972 1.333 1.472 2.122l.91 1.437.696-.781c.59-.66 1.43-1.738 2.867-3.676.277-.371.285-.277.2 2.484-.138 4.434-.54 6.48-1.384 7.028-.34.222-.808.281-2.214.281-.985 0-1.79.012-1.79.027 0 .016.141.352.313.746.387.895.848 2.883.848 3.653v.582l1.613-.004c.887-.004 2.059-.102 2.602-.219m10.504-1.5v-1.558h7.278V53.125h-7.278v-2.957h6.946v-14.45h-2.25c-1.727 0-2.235-.05-2.176-.206 1.035-2.907 1.648-4.742 1.598-4.793-.145-.137-4.805-.918-4.954-.828-.085.054-.16.297-.167.539-.008.246-.286 1.515-.622 2.824l-.609 2.383-1.113.047-1.117.046v36.114h4.464Zm0 0"/>
    <path fill="#f9f9f9" d="M56.066 42.941v-2.46h2.48v4.925h-2.48Zm0 17.985v-3.04h2.813v6.075h-2.813Zm18.856-7.063v-8.129h1.816v16.258h-1.816ZM47.3 98.04V85.311h25.638v25.454H47.3Zm21.5 0v-8.622H51.439v17.242H68.8Zm0 0"/>
</svg>
