<svg xmlns="http://www.w3.org/2000/svg" width="120" height="120" viewBox="0 0 120 136">
    <path fill="none" stroke="red" stroke-width=".004" d="M-46.101-34h-1.362v-3.539h-4.366v-1.264h4.366v-2.144h-2.288l-.158.306-.16.294-.166.28-.17.263-.173.247-.135.175-.017.021-.008.011-.007.009-.007.008-.003.005-.166-.098-.207-.114-.23-.12-.233-.116-.22-.106-.121-.055-.068-.03.405-.483.335-.51.036-.055.334-.63.24-.559.053-.124.165-.475.084-.24.2-.733.996.19.327.064-.059.226-.061.224-.064.22-.015.05-.052.169-.07.216-.006.017-.07.196h1.76V-44h1.36v1.796h3.487v1.257h-3.486v2.144h4.1v1.264h-4.1V-34m4.051 1.05-.026.182-.092.643-.16 1.125-.076.525-.525-.525-.182-.182-.182.182-3 3 3 3 .182.182.182-.182.525-.525.075.525.161 1.125.118.825-.825-.118-1.65-.236.707-.707-.89-.889-1.792-1.793V-25h1l-1 1.333-.5.667-.5-.667-1-1.333h1v-1.793L-49.293-25l-.89.889.708.707-1.65.236-.825.118.118-.825.16-1.125.076-.525.525.525.182.182.182-.182 3-3-3-3-.182-.182-.182.182-.525.525-.075-.525-.161-1.125-.092-.643-.026-.182.825.118.448.064 1.202.172-.707.707.89.889 1.792 1.793V-31h-1l1-1.333.326-.435L-47-33l.174.232.326.435 1 1.333h-1v1.793L-44.707-31l.89-.889-.708-.707 1.202-.172.448-.064.825-.118m-12.568-9.822L-56-34.292l-.248 1.524-.288 1.768-.978 6-.49 3.002h22.007l-.03-.19-.46-2.812-.902-5.54-.075-.46-.288-1.768-.248-1.523-1.382-8.48v-.032h-.007L-42-44.587l-5-3.416-5 3.416-2.61 1.784h-.008v.031M-38-44l.2 1.197 1.672 10.035 1.795 10.77L-34-20h-26l2.128-12.768 1.672-10.035L-56-44l1.775-1.183 5.745-3.831h.001L-47-50Zm0 0" transform="matrix(4.29492 0 0 4.26451 261.99 217.49)"/>
    <path fill="red" d="M4.46 131.988c0-.066 3.849-23.058 8.552-51.09l8.55-50.968L60.118 4.406l19.16 12.684c10.54 6.976 19.227 12.746 19.305 12.824.125.125 17.191 101.332 17.191 101.953 0 .219-6.195.246-55.656.246-30.61 0-55.652-.054-55.656-.125m102.974-8.703c-.055-.246-3.34-20.219-7.301-44.379-4.031-24.578-7.293-44.008-7.403-44.113-.19-.18-31.617-21.492-32.296-21.902-.317-.192-1.711.714-16.746 10.918-9.02 6.117-16.399 11.195-16.399 11.285 0 .207-14.36 87.789-14.473 88.273l-.086.371h94.797Zm0 0"/>
    <path fill="red" d="M58.215 64.867v-7.472H39.527V52.14h18.688v-9.364h-5l-5.004.004-.723 1.399c-.718 1.406-1.883 3.261-2.945 4.707l-.563.77-.98-.567c-.535-.317-1.687-.91-2.559-1.328L38.863 47l.575-.672c2.878-3.363 5.57-8.984 7.035-14.676.097-.382.238-.699.312-.699.297 0 5.195.98 5.27 1.055.105.101-.47 2.215-1.102 4.086l-.488 1.43h7.75v-7.555h5.625v7.554h15.05v5.254H63.84v9.364h17.695v5.254H63.84v14.94h-5.625Zm-19.184 54.039c0-.34 1.38-9.867 1.438-9.941.035-.04.71.57 1.504 1.355l1.445 1.426 13.805-13.71-6.82-6.774c-3.755-3.723-6.9-6.774-6.985-6.774-.09 0-.797.63-1.574 1.399L40.43 87.28l-.715-5.02c-.395-2.757-.684-5.05-.645-5.09.07-.07 9.434 1.2 9.875 1.345.16.05-.23.543-1.199 1.507l-1.434 1.434 5.868 5.824 5.87 5.828v-7.96h-4.136l3.07-4.067c1.692-2.234 3.125-4.031 3.188-3.996.062.039 1.473 1.867 3.133 4.066l3.02 3.996h-4.138v7.961l5.868-5.828 5.87-5.824-1.433-1.434c-.969-.964-1.36-1.457-1.199-1.507.477-.157 9.805-1.414 9.887-1.332.043.043-.246 2.332-.649 5.09l-.722 5.007-1.414-1.394c-.778-.77-1.485-1.399-1.575-1.399s-3.234 3.051-6.984 6.778l-6.824 6.773 6.906 6.856 6.91 6.859 1.484-1.484 1.489-1.485.695 4.809c.383 2.644.7 4.96.703 5.148.008.336-.054.332-4.914-.363-2.707-.39-5.031-.711-5.164-.711-.137-.004.442-.691 1.281-1.527l1.524-1.52-5.746-5.707c-3.16-3.137-5.805-5.703-5.871-5.703s-.121 1.734-.121 3.855v3.852l4.156.094-3.086 4.082c-1.711 2.261-3.149 4.02-3.227 3.941s-1.48-1.914-3.117-4.082l-2.977-3.941 2.055-.047 2.059-.047v-3.852c0-2.12-.055-3.855-.121-3.855-.07 0-2.711 2.566-5.871 5.703l-5.746 5.707 1.523 1.52c.84.836 1.414 1.523 1.281 1.527-.137.004-2.46.32-5.164.71-3.183.454-4.922.642-4.922.528m0 0"/>
    <path fill="#f9f9f9" d="M13.066 123.328c0-.527 14.391-88.035 14.512-88.226.184-.297 32.3-22.047 32.559-22.047.117 0 7.492 4.937 16.383 10.972C91.773 34.38 92.695 35.031 92.809 35.562c.062.313 3.25 19.668 7.078 43.016 3.832 23.348 7.062 43.024 7.183 43.723l.22 1.273H60.175c-41.79 0-47.11-.027-47.11-.246m50.36-8.125c1.773-2.348 3.226-4.305 3.226-4.351s-.968-.086-2.152-.086h-2.148v-7.309l5.664 5.621 5.66 5.625-1.524 1.52-1.527 1.523 5.398.777c2.973.43 5.418.762 5.438.739.05-.059-1.457-10.535-1.527-10.625-.036-.04-.73.59-1.547 1.394l-1.485 1.469-6.777-6.73-6.781-6.73L76.82 84.655l1.532 1.516c.84.832 1.539 1.476 1.55 1.433.008-.043.368-2.46.797-5.375.696-4.742.746-5.293.5-5.293-.273 0-8.984 1.215-10.066 1.403l-.563.097 1.551 1.551 1.555 1.547-5.66 5.625-5.664 5.621v-7.46l2.16-.048 2.16-.043-3.258-4.316c-1.793-2.375-3.285-4.289-3.32-4.254a573 573 0 0 0-3.274 4.313l-3.215 4.257 2.141.043 2.14.047v7.297l-5.62-5.582-5.625-5.578 1.507-1.504c1.504-1.5 1.508-1.504 1.036-1.598-1.536-.308-10.188-1.437-10.282-1.343-.101.097 1.18 9.562 1.399 10.332.074.25.363.039 1.601-1.192l1.516-1.496 6.777 6.73 6.782 6.735-6.739 6.688L43.5 111.5l-1.488-1.469c-.907-.898-1.543-1.41-1.63-1.312-.167.18-1.628 10.363-1.507 10.484.086.082 10.605-1.371 10.734-1.484.04-.04-.613-.75-1.449-1.582l-1.52-1.516 5.626-5.582 5.62-5.582v7.309h-2.152c-1.18 0-2.148.039-2.148.086 0 .12 6.437 8.617 6.531 8.617.043 0 1.531-1.922 3.309-4.266m.578-50.172V57.56h17.7v-5.582h-17.7V42.94h15.05v-5.58h-15.05v-7.554H58.05v7.554h-3.656c-3.415 0-3.649-.02-3.543-.289.093-.238 1.265-4.105 1.511-4.988.063-.223-.355-.348-2.636-.777-1.489-.282-2.82-.516-2.961-.516-.18 0-.364.402-.621 1.356-1.497 5.523-4.075 10.789-6.836 13.96-.454.52-.797.965-.758.985 1.015.597 5.52 2.722 5.629 2.656.285-.176 2.71-3.95 3.453-5.371l.742-1.43h4.84l4.836-.004v9.036H39.363v5.582h18.688V72.5h5.953Zm0 0"/>
</svg>
