<svg xmlns="http://www.w3.org/2000/svg" width="120" height="120" viewBox="0 0 120 136">
    <path fill="none" stroke="red" stroke-width=".004" d="M-44.672-41.737h-1.946l-.034.076-.034.074-.034.072-.035.07-.036.068-.037.066h1.827v2.72h-3.197v.345h3.661v.707h-3.66v.353h3.802v.07l-.001.074-.001.084-.003.084v.01l-.003.063-.037.688-.04.555-.048.435-.055.307-.004.023-.074.236-.093.156-.093.098-.098.078-.103.06-.008.004-.102.04-.117.031-.123.018-.12.006-.146.005-.166.002h-.184l-.194-.002h-.043l-.062-.001-.045-.001h-.026l-.016-.001h-.009l-.016-.14-.027-.149-.036-.153-.044-.15-.052-.141-.009-.02-.039-.084-.004-.011-.002-.004-.002-.005v-.002l.154.015.147.012.136.01.12.006h.003l.1.004.08.001.059-.002.05-.007.046-.013.04-.02.038-.027.037-.035.045-.082.038-.138.021-.13.012-.072.027-.276.011-.163.013-.194.02-.446h-3.847v-4.83h1.444l.017-.074.01-.05.004-.022.012-.07.01-.072.01-.07.012-.069h-1.736v-.778h4.835v.778m.24 1.11-.001-.333-.003-.777-.004-1.066v-.081h-5.285v2.142l-.018 1.048-.068 1.155-.14 1.204-.09.47-.071.379-.067.348-.34 1.13-.09.192-.203.434-.178.382-.112-.107-.015-.015-.163-.135-.184-.136-.19-.13-.184-.11-.162-.08.049-.103.386-.816.303-1.008.041-.224.153-.832.109-1.06.048-1.025.011-.945V-44h7.672l-.013 1.116v.081l-.01.875-.002.191-.002.777-.002 1.019.016 1.03.01.742.032.63.032.675.006.122.124.951.029.052.162.294.046-.053.04-.15.032-.238.027-.312.02-.376.008-.208.007-.22.074.138.028.05.11.193.115.188.116.177.114.158.109.132-.067.61-.095.493-.016.047-.114.332-.172.268-.222.16-.28.056-.042-.023-.583-.315-.158-.358-.053-.12-.206-.464-.243-1.391-.008-.044-.01-.15-.048-.674-.07-.995-.007-.378-.038-1.715m-1.435 4.776.006.01.075.157.068.156.05.14-.138.06-.274.12-.222.096-.009.004-.046-.152-.025-.068-.036-.098-.072-.174-.082-.176-.033-.064-.056-.108-.092-.163.59-.233.105.157.1.166.091.17m-1.138-.16.054.17.016.052.062.228.053.222.002.01.039.198.026.184-.034.01-.013.003-.02.006-.014.005-.043.011-.227.066-.102.03-.243.07-.007-.07-.012-.121-.033-.215-.044-.227-.054-.233-.061-.228-.066-.215.622-.162.022-.006.076.21v.001m-1.671-.075.681-.072.038.257.007.062.023.211.022.279.015.27.008.255v.223l-.722.08h-.004l.005-.225v-.252l-.005-.269-.014-.277-.022-.276-.002-.02-.03-.246m-.47 1.083-.005.01-.104.178-.059.103-.199.262-.233.226-.704-.497.1-.094.112-.106.19-.232.168-.257.144-.274.118-.284.089-.286.24.095.138.055.371.147-.037.118-.065.205-.12.321-.143.31m-5.472-7.768L-56-34.292l-.248 1.524-1.755 10.77h22.006l-.204-1.252-1.141-7-.41-2.518-.248-1.523-1.382-8.48v-.032h-.007L-42-44.587l-5-3.416-5 3.416-2.61 1.784h-.008v.031M-38-44l.2 1.197 1.672 10.035 1.795 10.77L-34-20h-26l2.128-12.768 1.672-10.035L-56-44l1.775-1.183 5.745-3.831h.001L-47-50l9 6m-8.5 19h-1v-2.5H-50v-1h2.5V-31h1v2.5h2.5v1h-2.5v2.5m-3.522-.655.147.072.136.09.123.109.108.123.09.136.073.147.052.154.032.16.005.088.006.076-.011.163-.032.16-.052.155-.072.147-.091.136-.108.123-.123.108-.136.091-.147.072-.154.052-.161.032-.163.01-.163-.01-.161-.032-.154-.052-.147-.072-.075-.05-.061-.041-.123-.108-.108-.123-.091-.136-.072-.147-.052-.154-.032-.161-.011-.163.005-.076.006-.087.032-.16.052-.155.072-.147.091-.136.108-.123.123-.108.06-.04.076-.051.147-.072.154-.052.161-.032.163-.01.163.01.161.032.154.052m.73-6.169.015.08.016.08.01.164-.01.163-.032.16-.052.155-.072.147-.091.136-.017.019-.09.104-.124.108-.136.091-.147.072-.154.052-.161.032-.163.01-.163-.01-.161-.032-.154-.052-.147-.072-.136-.091-.123-.108-.092-.104-.016-.02-.091-.135-.072-.147-.052-.154-.032-.161-.011-.163.01-.163.033-.16.052-.155.072-.147.091-.136.108-.123.123-.108.06-.04.076-.051.147-.072.154-.052.161-.032.163-.01.163.01.161.032.154.052.147.072.136.09.123.109.108.123.09.136.073.147.052.154m6.554 6.332.123.108.108.123.091.136.072.147.052.154.032.16.006.088.005.076-.01.163-.033.16-.052.155-.072.147-.09.136-.11.123-.122.108-.136.091-.133.065-.014.007-.154.052-.161.032-.163.01-.163-.01-.161-.032-.154-.052-.054-.026-.093-.046-.136-.091-.123-.108-.108-.123-.091-.136-.072-.147-.052-.154-.032-.161-.01-.163.004-.076.006-.087.032-.16.052-.155.072-.147.091-.136.108-.123.123-.108.136-.091.093-.046.054-.026.154-.052.161-.032.163-.01.163.01.16.032.155.052.014.007.133.065.136.09m.478-6.17.011.163-.01.163-.033.16-.052.155-.072.147-.09.136-.017.019-.092.104-.123.108-.136.091-.147.072-.154.052-.161.032-.163.01-.163-.01-.161-.032-.154-.052-.147-.072-.136-.091-.123-.108-.091-.104-.017-.02-.091-.135-.072-.147-.052-.154-.032-.161-.01-.163.01-.163.016-.081.016-.08.052-.154.072-.147.091-.136.108-.123.123-.108.136-.091.147-.072.154-.052.161-.032.163-.01.163.01.16.032.155.052.014.007.133.065.136.09.123.109.108.123.091.136.072.147.052.154.032.16m-3.833-8.957h-2.104v.361h2.104v-.36m0 1.34v-.37h-2.104v.37Zm0 0" transform="matrix(4.29492 0 0 4.26451 261.99 217.49)"/>
    <path d="M4.46 131.988c0-.066 3.849-23.058 8.552-51.09l8.55-50.968L60.118 4.406l19.16 12.684c10.54 6.976 19.227 12.746 19.305 12.824.125.125 17.191 101.332 17.191 101.953 0 .219-6.195.246-55.656.246-30.61 0-55.652-.054-55.656-.125m102.974-8.703c-.055-.246-3.34-20.219-7.301-44.379-4.031-24.578-7.293-44.008-7.403-44.113-.19-.18-31.617-21.492-32.296-21.902-.317-.192-1.711.714-16.746 10.918-9.02 6.117-16.399 11.195-16.399 11.285 0 .207-14.36 87.789-14.473 88.273l-.086.371h94.797Zm0 0"/>
    <path d="M42.504 71.926c-.41-.438-3.063-2.274-3.488-2.414-.16-.051.054-.668.785-2.278 1.191-2.613 2.039-5.421 2.613-8.691.82-4.664.957-7.008 1.04-18.188l.077-10.386h32.64l.005 12.523c.004 16.09.316 21.5 1.34 23.235.703 1.191.984.43 1.152-3.118.059-1.242.156-2.257.219-2.257.058 0 .281.312.492.695.215.383.781 1.262 1.262 1.953l.875 1.254-.23 1.754c-.54 4.07-1.54 5.996-3.27 6.273-.465.074-.82-.039-1.88-.61l-1.304-.702-.879-1.985c-.805-1.804-.933-2.27-1.437-5.187-.829-4.785-1.082-9.016-1.188-19.91l-.094-9.32H48.293l-.004 6.773c0 3.726-.074 7.883-.164 9.238-.559 8.426-1.96 14.992-4.2 19.68l-1.007 2.11Zm0 0"/>
    <path d="M62.613 71.336a10 10 0 0 0-.425-1.742l-.31-.871 1.903.043c1.809.039 1.918.023 2.211-.332.43-.524.649-1.735.79-4.352l.116-2.254H50.441V41.465h3.051c3.403 0 3.106.113 3.32-1.274l.11-.695h-7.473v-3.285h20.512v3.285h-8.266l-.418.813c-.226.449-.414.894-.414.988 0 .11 1.32.168 3.887.168h3.887v11.332H54.91v1.64h15.711v2.958h-15.71v1.64H71.3l-.098 1.602c-.375 5.96-.629 8.183-1.05 9.261-.282.707-1.141 1.563-1.891 1.875-.528.223-1.297.313-3.117.364l-2.415.07Zm1.559-22.152v-.82H54.91v1.64h9.262Zm0-4.106v-.82H54.91v1.64h9.262Zm-17.32 25.305-1.36-.953.426-.395c1.05-.969 2.742-3.785 3.203-5.336l.203-.676 1.535.586 1.536.582-.497 1.407c-.675 1.918-1.699 3.785-2.66 4.859-.445.492-.855.89-.918.887-.058-.004-.722-.438-1.468-.961m0 0"/>
    <path d="M53.219 66.969c-.047-1.79-.067-3.27-.051-3.293.02-.024.621-.059 1.34-.082l1.308-.043.114.824c.058.45.164 1.863.23 3.14l.121 2.32-1.058.11a31 31 0 0 0-1.493.192l-.433.082Zm4.929 1.289c-.058-.535-.296-1.735-.52-2.664-.226-.93-.355-1.739-.284-1.801.222-.195 2.273-.64 2.386-.52.254.266 1.297 4.13 1.297 4.797 0 .246-.254.387-1.18.66-.648.192-1.269.383-1.382.426-.14.055-.238-.222-.317-.898m4.922-.953c-.437-1.207-.808-2.067-1.226-2.836-.266-.489-.461-.914-.434-.942s.55-.234 1.16-.46l1.11-.419.593.926c.575.89 1.387 2.551 1.387 2.836 0 .11-1.066.633-2.273 1.117-.114.047-.254-.054-.317-.222M43.95 88.254c-1.52-.356-2.915-1.477-3.626-2.91-.308-.625-.383-1.04-.383-2.168 0-1.2.067-1.528.465-2.336.512-1.031 1.414-1.895 2.582-2.465 1.16-.57 3.082-.527 4.348.09 4.238 2.066 3.852 8.156-.613 9.613-1.145.371-1.758.41-2.774.176m29.793-.07c-1.683-.536-3.191-2-3.613-3.5-.094-.332-.168-1.09-.168-1.688-.004-1.914 1.258-3.789 3.121-4.64 1.191-.543 3.117-.497 4.356.109 3.882 1.894 3.917 7.43.058 9.316-1.266.617-2.621.766-3.754.403M58.05 105.426v-5.336H47.3v-4.106h10.75V85.313h4.138v10.671h10.75v4.106h-10.75v10.676H58.05Zm-13.823 12.719a5.5 5.5 0 0 1-3.829-2.86c-1.363-2.652.008-6.07 2.856-7.14 2.035-.762 4.238-.2 5.75 1.464 2.305 2.551 1.512 6.567-1.594 8.036-1.129.53-2.16.695-3.183.5m30.019.003c-2.402-.39-4.137-2.406-4.262-4.953-.05-1.09 0-1.386.38-2.215 1.523-3.312 5.554-4.203 8.269-1.832.422.372.969 1.051 1.21 1.512.387.73.446 1.04.45 2.32.004 1.22-.066 1.614-.379 2.25-1.031 2.079-3.383 3.29-5.668 2.918m0 0"/>
    <path fill="#f9f9f9" d="M13.066 123.328c0-.133 2.754-17.039 6.125-37.566 3.368-20.524 6.614-40.313 7.207-43.969.598-3.656 1.172-6.734 1.278-6.832.41-.395 32.066-21.781 32.344-21.856.195-.05 5.816 3.672 16.48 10.907 15.293 10.375 16.195 11.015 16.305 11.55.066.313 3.254 19.668 7.082 43.016 3.832 23.348 7.062 43.024 7.183 43.723l.22 1.273H60.175c-41.656 0-47.11-.027-47.11-.246m34.317-5.41a5.24 5.24 0 0 0 3.11-4.746c.019-1.727-.388-2.77-1.524-3.899-1.137-1.128-2.336-1.628-3.903-1.628-4.714 0-7.132 5.503-3.953 9.011 1.563 1.727 4.09 2.235 6.27 1.262m29.722.133c1-.317 2.336-1.504 2.91-2.59.4-.746.446-1.012.446-2.48 0-1.512-.04-1.711-.492-2.52-2.153-3.86-7.727-3.742-9.684.203-.43.871-.508 1.219-.508 2.25 0 1.356.301 2.39.942 3.223 1.59 2.066 3.816 2.734 6.386 1.914M62.352 105.59v-5.336h10.75V95.82h-10.75V85.148h-4.465V95.82h-10.75v4.434h10.75v10.676h4.465ZM47.543 87.953c.578-.281 1.293-.785 1.586-1.121 2.398-2.707 1.578-6.969-1.637-8.535-.8-.395-1.137-.457-2.36-.457-1.296 0-1.519.047-2.554.574-2.008 1.016-3.004 2.816-2.848 5.16.254 3.864 4.266 6.114 7.813 4.38m29.934.094c1.054-.48 2.074-1.477 2.601-2.54.563-1.14.617-3.073.125-4.374-1.496-3.957-7.14-4.555-9.539-1.016-1.621 2.395-1.023 5.824 1.293 7.418 1.652 1.137 3.719 1.328 5.52.512M44.125 70.324c2.254-4.82 3.61-11.191 4.164-19.582.09-1.355.164-5.512.168-9.238V34.73h22.617l.086 9.403c.106 10.933.348 14.996 1.192 19.828.511 2.941.628 3.367 1.445 5.172l.89 1.969 1.235.695c1.355.766 2.008.863 2.91.433 1.402-.656 2.219-2.675 2.707-6.675l.176-1.45-.48-.605c-.266-.332-.915-1.324-1.442-2.207q-.962-1.599-1.098-1.395c-.07.114-.132.836-.132 1.606-.004 1.516-.278 4.027-.477 4.383-.266.472-.82-.996-1.086-2.88-.512-3.632-.652-8.124-.648-20.76l.003-12.442H43.332l-.004 8.09c-.004 11.449-.3 16.597-1.23 21.351-.598 3.07-1.477 5.84-2.594 8.16-.84 1.754-.945 2.074-.73 2.219.136.094.68.41 1.203.703.527.297 1.39.906 1.921 1.356.532.449 1.02.816 1.086.816s.578-.977 1.141-2.176m24.262 1.63c2.11-.919 2.46-2.235 2.988-11.235l.11-1.848h-16.41V57.56h15.71v-3.286h-15.71v-1.312H68.8V41.3h-7.778l.418-.82.418-.817 4.172-.043 4.176-.043.094-3.531H49.285v3.613h7.45l-.344 1.64h-6.114v20.692h16.426l-.113 2.176c-.145 2.785-.383 3.848-.95 4.266-.394.293-.578.308-2.277.18-1.625-.126-1.832-.114-1.734.109.371.832.758 2.136.84 2.836l.097.812 2.582-.066c1.977-.051 2.73-.133 3.239-.352m-17.782-3.04c.778-1.3 2.07-4.61 1.875-4.797-.18-.172-3.195-1.363-3.253-1.285-.028.035-.247.617-.497 1.293a13.3 13.3 0 0 1-2.636 4.36l-.907.992 1.594 1.109 1.594 1.113.785-.84c.43-.46 1.082-1.336 1.445-1.945m4.868 1.191.972-.109-.117-2.484c-.113-2.403-.293-4.137-.437-4.262-.04-.031-.735.012-1.543.102l-1.47.164.106 1.234c.059.676.106 2.227.106 3.445V70.4l.703-.093c.387-.051 1.14-.141 1.68-.204m4.605-1.234c1.348-.39 1.344-.375.637-3.125-.586-2.27-.774-2.77-1.05-2.77-.208 0-2.645.645-2.724.72-.02.019.079.402.215.85.356 1.15.895 3.794.895 4.38 0 .558-.07.558 2.027-.055m4.793-1.766c1.05-.472 1.106-.523.965-.898-.297-.777-1.465-2.988-1.785-3.379l-.324-.394-1.266.457c-.695.254-1.266.523-1.266.605s.25.645.555 1.25c.309.61.727 1.563.93 2.121.418 1.149.218 1.125 2.191.238m0 0"/>
    <path fill="#f9f9f9" d="M55.074 45.078v-.656h8.93v1.312h-8.93Zm0 4.106v-.657h8.93v1.313h-8.93Zm0 0"/>
</svg>
