<svg xmlns="http://www.w3.org/2000/svg" width="120" height="120" viewBox="0 0 120 136">
    <path fill="none" stroke="red" stroke-width=".004" d="M-42.288-41.338v1.312h-3.673l.397 1.051.032.063.467.912.009.013.595.87.71.774.821.651.81.445.046.025.036.02.022.012.016.01-.167.153-.176.189-.176.21-.164.22-.144.213-.114.195-.91-.544-.796-.663-.41-.456-.285-.32-.602-.879-.001-.002-.515-.975-.28-.68-.054-.13-.045-.108-.032-.076-.02-.05-.01-.024-.129.405-.145.4-.164.392-.184.385-.208.378-.052.083-.181.287.296-.201.013.012.09.082.227.207.234.222.112.106.343.34.322.34.281.322.222.291-1.123.825-.157-.23-.024-.035-.23-.295-.266-.314-.29-.323-.303-.321-.276-.287-.024-.024-.336.353-.299.273-.07.064-.405.32-.442.304-.479.284-.455.23-.03.015-.023.012-.011.005-.113-.176-.137-.19-.157-.193-.043-.048-.126-.14-.178-.175-.002-.002-.177-.149 1.167-.628.932-.731.383-.432.339-.384.027-.044.511-.84.32-.78.062-.15.25-.964h-3.68v-1.312h3.862l.034-.465.02-.458.013-.451.001-.09.001-.046.005-.306.004-.43.005-.416h1.38l-.006.419-.008.431-.01.347-.002.094-.018.45-.025.457-.036.464h4.181m-12.33-1.434L-56-34.292l-.248 1.524-.696 4.268-.162 1-.897 5.502h22.006l-.897-5.502-.162-1-.696-4.268-.248-1.523-1.382-8.48v-.032h-.007L-42-44.587l-5-3.416-5 3.416-2.61 1.784h-.008v.031M-38-44l.2 1.197 1.672 10.035 1.795 10.77L-34-20h-26l2.128-12.768 1.672-10.035L-56-44l1.775-1.183 5.745-3.831h.001L-47-50l9 6m-12.182 18.475 1.975-1.975H-50v-1h1.793l-1.975-1.975.707-.707 1.975 1.975V-31h1v1.793l1.975-1.975.707.707-1.975 1.975H-44v1h-1.793l1.975 1.975-.707.707-1.975-1.975V-25h-1v-1.793l-1.975 1.975Zm0 0" transform="matrix(4.29492 0 0 4.26451 261.99 217.49)"/>
    <path fill="red" d="M4.46 131.988c0-.066 3.849-23.058 8.552-51.09l8.55-50.968L60.118 4.406l19.16 12.684c10.54 6.976 19.227 12.746 19.305 12.824.125.125 17.191 101.332 17.191 101.953 0 .219-6.195.246-55.656.246-30.61 0-55.652-.054-55.656-.125m102.974-8.703c-.055-.246-3.34-20.219-7.301-44.379-4.031-24.578-7.293-44.008-7.403-44.113-.19-.18-31.617-21.492-32.296-21.902-.317-.192-1.711.714-16.746 10.918-9.02 6.117-16.399 11.195-16.399 11.285 0 .207-14.36 87.789-14.473 88.273l-.086.371h94.797Zm0 0"/>
    <path fill="red" d="M41.996 71.316c-.398-.566-1.258-1.566-1.906-2.222l-1.18-1.192 2.383-1.273c7.234-3.86 12.102-9.98 14.031-17.64.235-.93.465-1.825.512-1.981.082-.274-.367-.29-7.863-.29h-7.95v-5.417h16.664l.102-1.848c.055-1.016.148-3.566.207-5.664l.106-3.82h5.722l-.066.863c-.04.473-.106 2.488-.153 4.477-.046 1.984-.136 4.148-.195 4.8l-.105 1.192h17.91v5.418h-7.86c-4.32 0-7.855.031-7.855.066 0 .367 1.867 4.793 2.777 6.586 2.926 5.758 7.246 10.379 12.207 13.047l1.887 1.016-1.086 1.191a27 27 0 0 0-1.926 2.41c-.46.672-.918 1.195-1.02 1.168-.648-.195-3.929-2.367-5.312-3.523-4.375-3.649-7.8-8.535-10.422-14.86-.535-1.289-1.023-2.285-1.085-2.218-.063.07-.243.535-.403 1.03-.836 2.59-2.644 6.485-3.797 8.169-.226.328-.379.629-.34.668.04.035.333-.094.657-.293l.59-.364.949.82c1.898 1.641 6.215 6.161 6.71 7.036.067.113-.718.785-2 1.71l-2.288 1.657c-.114.086-.63-.445-1.426-1.465-1.004-1.289-5.332-6.113-5.48-6.113-.024 0-.731.66-1.575 1.473-2.652 2.554-5.597 4.57-9.297 6.37-.05.024-.422-.417-.824-.984m5.964 38.707-1.398-1.394 8.594-8.54h-7.855v-4.105h7.855l-8.515-8.46 1.445-1.434 1.445-1.438 4.262 4.23 4.258 4.227v-7.796h4.136v7.796l4.258-4.226 4.262-4.23 1.445 1.437 1.446 1.433-8.516 8.461h7.856v4.106h-7.856l4.297 4.27 4.3 4.269-1.449 1.437-1.445 1.434-4.176-4.145c-2.296-2.28-4.234-4.144-4.3-4.144-.067 0-.121 1.7-.121 3.777v3.778H58.05v-3.778c0-2.078-.055-3.777-.125-3.777s-1.985 1.848-4.258 4.105-4.172 4.106-4.219 4.106-.719-.629-1.488-1.399m0 0"/>
    <path fill="#f9f9f9" d="M13.066 123.328c0-.133 2.754-17.039 6.125-37.566 3.368-20.524 6.614-40.313 7.207-43.969.598-3.656 1.172-6.734 1.278-6.832.41-.395 32.066-21.781 32.344-21.856.195-.05 5.816 3.672 16.48 10.907 15.293 10.375 16.195 11.015 16.305 11.55.066.313 3.254 19.668 7.082 43.016 3.832 23.348 7.062 43.024 7.183 43.723l.22 1.273H60.175c-41.656 0-47.11-.027-47.11-.246m40.641-15.723 4.18-4.144v7.469h4.465v-7.47l4.218 4.185 4.215 4.183 1.613-1.598 1.61-1.601-8.43-8.375h7.524V95.82h-7.524l8.352-8.297-1.575-1.554-1.57-1.559-4.219 4.188-4.214 4.183v-7.633h-4.465v7.47l-4.094-4.063c-2.254-2.239-4.168-4.067-4.258-4.067s-.851.684-1.695 1.52l-1.535 1.515 4.175 4.149 4.18 4.148h-7.523v4.434h7.687l-8.515 8.46 1.527 1.516c.844.836 1.566 1.52 1.613 1.52.043 0 1.961-1.867 4.258-4.145m-9.422-35.824c2.832-1.418 5.746-3.504 8.055-5.777l1.308-1.285 1.551 1.633c1.61 1.695 3.989 4.496 4.668 5.492.215.316.41.597.43.629.02.027 1.16-.774 2.531-1.782l2.5-1.828-.77-1.015c-.421-.555-2.214-2.438-3.98-4.184-3.195-3.16-3.21-3.172-3.613-2.91-.223.14-.403.223-.403.172 0-.047.372-.73.82-1.524.93-1.62 1.852-3.675 2.653-5.914.3-.836.563-1.5.586-1.476.02.023.387.894.813 1.933 3.222 7.864 8.082 13.887 14.09 17.461 1.015.602 1.906 1.094 1.988 1.094.078 0 .527-.578 1-1.285.472-.711 1.386-1.852 2.031-2.535l1.172-1.246-.711-.407c-.39-.222-1.305-.73-2.031-1.129-4.262-2.32-8.614-7.066-11.477-12.515-.883-1.684-2.664-5.934-2.664-6.36 0-.078 3.496-.14 7.773-.14h7.774v-5.746H62.473l.097-.864c.055-.472.14-2.156.192-3.734.05-1.582.129-3.742.175-4.805l.086-1.93h-6.078l-.11 2.34a120 120 0 0 0-.108 4.067c0 .95-.047 2.445-.106 3.324l-.11 1.602H39.86v5.746h7.856c6.176 0 7.855.047 7.851.207-.011.648-1.05 4.09-1.726 5.707-2.406 5.773-6.738 10.5-12.371 13.496-3.352 1.781-3.114 1.453-1.89 2.59.573.535 1.487 1.566 2.026 2.293.54.73 1.04 1.324 1.11 1.324s.777-.324 1.57-.719m0 0"/>
</svg>
