<svg xmlns="http://www.w3.org/2000/svg" width="120" height="120" viewBox="0 0 120 136">
    <path fill="none" stroke="red" stroke-width=".004" d="m-48.056-41.032-.065.072-.143.156-.22.224-.228.22-.242.213h1.31v-.937h1.204v.937h1.41l-.026-.023-.195-.18-.211-.214-.201-.222-.144-.174-.047-.057-.05-.067-.131-.173-.17-.249h-1.46l-.192.24-.155.182-.044.052m-3.655-1.633h3.359l.079-.138.046-.08.116-.22.107-.221.097-.222.087-.226.077-.228.64.104.693.111-.074.19-.08.191-.082.188-.088.186-.094.184-.024.043-.076.138h4.57v1.16h-2.422l.383.35.255.195.167.13.457.295.484.263.026.011.482.214.335.118.08.027.044.016.033.012.02.006.014.005-.148.143-.155.17-.155.187-.145.194-.127.189-.039.068-.06.108-.275-.106-.004-.002-.261-.117-.058-.03-.201-.1-.252-.14-.247-.151-.242-.16v.552h-2.07v1.167h-1.205v-1.167h-2.178v-.445l-.216.14-.224.138-.23.134-.238.129-.099.05-.147.074-.24.111-.015.007-.085-.168-.015-.024-.1-.16-.133-.184-.145-.177-.148-.158-.11-.098-.033-.029.554-.249.246-.13.266-.142.472-.292.433-.31.144-.119.251-.207.361-.339h-2.438v-1.16m3.253 4.046v1.097h2.787v-1.112h1.272v1.112h2.155v1.175H-44.4v2.333h-1.272v-2.333h-2.902l-.136.435-.186.386-.02.04-.237.335-.054.076-.26.26-.13.129-.505.36-.445.23-.082.042-.048.024-.027.014-.021.011-.012.006-.102-.15-.132-.167-.152-.171-.16-.165-.16-.145-.023-.018-.082-.064-.042-.033.445-.208.371-.222.305-.236.244-.247.19-.257.144-.265h-1.942v-1.175h2.163v-1.097h1.211m6.408 5.67-.026.182-.092.643-.16 1.125-.076.525-.525-.525-.182-.182-.182.182-.707.707-1.793 1.793H-44v-1l1.333 1 .667.5-2 1.5v-1h-1.793L-44-25.707l.707.707.182.182.182-.182.525-.525.075.525.161 1.125.118.825-.825-.118-1.65-.236.707-.707-.89-.889-1.792-1.793V-25h1l-1 1.333-.5.667-.5-.667-1-1.333h1v-1.793L-49.293-25l-.89.889.708.707-1.65.236-.825.118.118-.825.16-1.125.076-.525.525.525.182.182.182-.182.707-.707 1.793-1.793H-50v1l-2-1.5.666-.5 1.334-1v1h1.793L-50-30.293l-.707-.707-.182-.182-.182.182-.525.525-.075-.525-.161-1.125-.092-.643-.026-.182.825.118.448.064 1.202.172-.707.707.89.889 1.792 1.793V-31h-1l1-1.333.326-.435L-47-33l.174.232.326.435 1 1.333h-1v1.793L-44.707-31l.89-.889-.708-.707 1.202-.172.448-.064.825-.118m-12.568-9.822L-56-34.292l-.248 1.524-.288 1.768-.408 2.5-.162 1-.408 2.5-.49 3.002h22.007l-.03-.19-.46-2.812-.407-2.5-.162-1-.408-2.5-.288-1.768-.248-1.523-1.382-8.48v-.032h-.007L-42-44.587l-5-3.416-5 3.416-2.61 1.784h-.008v.031M-38-44l.2 1.197 1.672 10.035 1.795 10.77L-34-20h-26l2.128-12.768 1.672-10.035L-56-44l1.775-1.183 5.745-3.831h.001L-47-50Zm0 0" transform="matrix(4.29492 0 0 4.26451 261.99 217.49)"/>
    <path d="M4.46 131.988c0-.066 3.849-23.058 8.552-51.09l8.55-50.968L60.118 4.406l19.16 12.684c10.54 6.976 19.227 12.746 19.305 12.824.125.125 17.191 101.332 17.191 101.953 0 .219-6.195.246-55.656.246-30.61 0-55.652-.054-55.656-.125m102.974-8.703c-.055-.246-3.34-20.219-7.301-44.379-4.028-24.543-7.293-44.008-7.403-44.11-.19-.179-31.625-21.5-32.296-21.905-.317-.192-1.715.718-16.746 10.918-9.02 6.117-16.399 11.195-16.399 11.285 0 .207-14.36 87.789-14.473 88.273l-.086.371h94.797Zm0 0"/>
    <path d="M57.39 53.29v-2.466h-9.26v-.902c0-.531-.074-.902-.18-.902-.094 0-.484.207-.867.464-2.125 1.426-5.086 2.868-5.2 2.532-.152-.461-1.382-2.176-2.167-3.024-.824-.894-.844-.937-.48-1.047.624-.191 3.882-1.847 5.062-2.574 1.555-.96 3.89-2.723 5.152-3.887l1.078-.988-5.254-.008-5.25-.008v-4.925l7.235-.043 7.238-.04.86-1.644c.476-.902 1.019-2.101 1.214-2.668.192-.562.407-1.058.473-1.098.113-.07 5.328.704 5.437.805.063.059-.972 2.434-1.597 3.66l-.52 1.028h19.684v4.925h-10.48l.484.508c1.215 1.278 4.644 3.64 6.937 4.785.707.352 3.114 1.325 4.11 1.664.265.09.168.254-.68 1.157a19 19 0 0 0-1.707 2.133c-.395.597-.777 1.082-.848 1.082-.34 0-3.363-1.465-4.785-2.325-.879-.527-1.64-.957-1.695-.957s-.102.516-.102 1.149v1.148h-8.765v4.926H57.39Zm0-8.868v-1.973h5.126v3.942h3.062c1.68 0 3.059-.036 3.059-.078s-.63-.708-1.395-1.477a32 32 0 0 1-2.508-2.875l-1.113-1.48H57.11l-.808 1.023c-.446.566-1.692 1.898-2.77 2.957l-1.965 1.93h5.825Zm0 0"/>
    <path d="M43.77 71.844c-.16-.274-.907-1.11-1.657-1.864l-1.367-1.363 1.36-.691c1.609-.82 3.257-2.024 4.113-3.008.593-.684 1.574-2.219 1.578-2.473 0-.07-1.86-.125-4.133-.125h-4.137v-4.76h9.262v-4.6h4.961v4.598h12.238v-4.762h5.293v4.762h9.262v4.761h-9.262v10.016h-5.285l-.047-4.965-.043-4.969-6.297-.043-6.3-.043-.207.7c-.887 2.984-2.653 5.398-5.305 7.261-.984.692-3.43 2.059-3.68 2.059-.031 0-.183-.223-.347-.492m-4.739 47.063c0-.34 1.38-9.867 1.438-9.941.035-.04.71.57 1.504 1.355l1.445 1.426 5.867-5.828 5.871-5.828h-8.011l-.047 2.066-.043 2.063-4.106-3.059-4.11-3.062 4.063-3.028c2.235-1.664 4.102-3.027 4.149-3.027s.086.887.086 1.973v1.968h8.02l-5.79-5.746c-3.18-3.164-5.86-5.75-5.949-5.75-.09 0-.797.63-1.574 1.399L40.43 87.28l-.715-5.02c-.395-2.757-.684-5.05-.645-5.09.07-.07 9.434 1.2 9.875 1.345.16.05-.23.543-1.199 1.507l-1.434 1.434 5.868 5.824 5.87 5.828v-7.96h-4.136l3.07-4.067c1.692-2.234 3.125-4.031 3.188-3.996.062.039 1.473 1.867 3.133 4.066l3.02 3.996h-4.138v7.961l5.868-5.828 5.87-5.824-1.433-1.434c-.969-.964-1.36-1.457-1.199-1.507.477-.157 9.805-1.414 9.887-1.332.043.043-.246 2.332-.649 5.09l-.722 5.007-1.414-1.394c-.778-.77-1.489-1.399-1.575-1.399-.09 0-2.77 2.586-5.953 5.75l-5.785 5.746h8.02v-4.109l4.011 2.98a670 670 0 0 1 4.153 3.106c.078.07-1.707 1.508-3.97 3.191l-4.112 3.067-.047-2.063-.047-2.066h-8.008l5.867 5.828 5.871 5.828 1.493-1.476 1.496-1.477.703 4.969c.386 2.73.703 5.047.699 5.144-.004.114-1.734-.07-4.926-.527-2.707-.39-5.031-.711-5.164-.711-.137-.004.442-.691 1.281-1.527l1.524-1.52-5.746-5.707c-3.16-3.137-5.805-5.703-5.871-5.703s-.121 1.734-.121 3.855v3.852l4.156.094-3.086 4.082c-1.711 2.261-3.149 4.02-3.227 3.941s-1.48-1.914-3.117-4.082l-2.977-3.941 2.055-.047 2.059-.047v-3.852c0-2.12-.055-3.855-.121-3.855-.07 0-2.711 2.566-5.871 5.703l-5.746 5.707 1.523 1.52c.84.836 1.414 1.523 1.281 1.527-.137.004-2.46.32-5.164.71-3.183.454-4.922.642-4.922.528m0 0"/>
    <path fill="#f9f9f9" d="M13.066 123.328c0-.527 14.391-88.035 14.512-88.226.184-.297 32.3-22.047 32.559-22.047.117 0 7.492 4.937 16.383 10.972C91.773 34.38 92.695 35.031 92.809 35.562c.062.313 3.25 19.668 7.078 43.016 3.832 23.348 7.062 43.024 7.183 43.723l.22 1.273H60.175c-41.79 0-47.11-.027-47.11-.246m50.36-8.125c1.773-2.348 3.226-4.305 3.226-4.351s-.968-.086-2.152-.086h-2.148v-7.309l5.664 5.621 5.66 5.625-1.524 1.52-1.527 1.523 5.398.777c2.973.43 5.418.762 5.438.739.05-.059-1.457-10.535-1.527-10.625-.036-.04-.73.59-1.547 1.394l-1.485 1.469-5.664-5.621-5.66-5.625h7.36v2.137c0 1.171.046 2.132.105 2.132.195 0 8.644-6.316 8.61-6.437-.02-.063-1.97-1.555-4.333-3.313l-4.3-3.203-.094 4.25h-7.348L76.82 84.656l1.532 1.516c.84.832 1.539 1.476 1.55 1.433.008-.043.368-2.46.797-5.375.696-4.742.746-5.293.5-5.293-.273 0-8.984 1.215-10.066 1.403l-.563.097 1.551 1.551 1.555 1.547-5.66 5.625-5.664 5.621v-7.46l2.16-.048 2.16-.043-3.258-4.316c-1.793-2.375-3.285-4.289-3.32-4.254a573 573 0 0 0-3.274 4.313l-3.215 4.257 2.141.043 2.14.047v7.297l-5.62-5.582-5.625-5.578 1.507-1.504c1.504-1.5 1.508-1.504 1.036-1.598-1.536-.308-10.188-1.437-10.282-1.343-.101.097 1.18 9.562 1.399 10.332.074.25.363.039 1.601-1.192l1.516-1.496L54.66 95.82h-7.35l-.043-2.125-.047-2.125-4.285 3.192a550 550 0 0 0-4.356 3.261c-.07.07 8.473 6.5 8.637 6.5.047 0 .086-.96.086-2.132v-2.137h7.523l-5.66 5.625L43.5 111.5l-1.488-1.469c-.907-.898-1.543-1.41-1.63-1.312-.167.18-1.628 10.363-1.507 10.484.086.082 10.605-1.371 10.734-1.484.04-.04-.613-.75-1.449-1.582l-1.52-1.516 5.626-5.582 5.62-5.582v7.309h-2.152c-1.18 0-2.148.039-2.148.086 0 .12 6.437 8.617 6.531 8.617.043 0 1.531-1.922 3.309-4.266M45.754 71.777c3.867-2.062 6.23-4.699 7.41-8.265l.281-.864h12.38V72.5h5.624v-9.848l4.586-.043 4.59-.043.094-5.171h-9.27v-4.762h-5.625v4.762H53.918v-4.762h-5.293v4.762h-9.262v5.253h8.11l-.32.625c-.79 1.532-2.79 3.247-5.286 4.528l-1.5.77 1.453 1.433c.797.785 1.594 1.672 1.766 1.965s.426.531.566.531c.141-.004.86-.328 1.602-.723m16.93-18.324v-2.465h8.765v-2.293l1.114.715c1.226.785 3.398 1.903 4.675 2.403l.82.32.602-.942c.715-1.113 2.516-3.277 2.824-3.394.457-.172.176-.406-.898-.754-2.902-.93-7.543-3.617-9.707-5.613l-.836-.774 5.086-.008 5.086-.003V35.39h-19.48l.972-2.121c.535-1.168.977-2.23.977-2.36 0-.183-.664-.348-2.832-.687-1.555-.246-2.887-.383-2.957-.309s-.29.582-.489 1.121c-.199.543-.742 1.746-1.207 2.672l-.844 1.684H39.86v5.254h5.063c5.832 0 5.496-.184 3.18 1.734-2.387 1.976-5.883 4.105-8.707 5.3l-.88.372.973 1.035c.832.883 2.246 2.809 2.403 3.273.058.18 3.039-1.293 4.777-2.363l1.293-.797v1.79h9.262v4.925h5.46Zm0 0"/>
    <path fill="#f9f9f9" d="M53.79 44.504c.96-.945 2.136-2.203 2.616-2.79l.875-1.07h6.188l.957 1.274c.527.7 1.629 1.953 2.449 2.789l1.492 1.52h-5.683V42.12h-5.461v4.106h-5.18Zm0 0"/>
</svg>
