<svg xmlns="http://www.w3.org/2000/svg" width="120" height="120" viewBox="0 0 120 136">
    <path fill="none" stroke="red" stroke-width=".004" d="M-48.443-41.344h1.473v-.747h-1.186v-1.001h1.186v-.9h1.148v.9h1.307v-.9h1.163v.9h.914v1h-.914v.748h1.193v1.03h-2.545v.486h2.115v3.665h-1.322l.36.24.357.25.186.136.157.116.32.247.287.232.244.21-.914.732-.094-.093-.15-.147-.289-.261-.324-.272-.344-.273-.351-.267-.344-.25.65-.6h-2.243l.785.546-.338.308-.385.301-.416.289-.347.215-.087.054-.436.242-.355.175h-.001l-.027.014-.019.009-.01.005-.008.003-.003.002-.096-.132-.11-.146-.121-.15-.125-.151-.125-.142-.067-.072-.033-.034-.018-.02.363-.166.37-.199.03-.018.335-.206.347-.239.196-.153.119-.092.272-.243h-1.27v-3.665h2.146v-.485h-2.606v-1.03m-.166 0v.507h-.838v.4l.195.26.1.14.142.202.26.382.248.372.059.09.051.078.098.149.138.213-.66.9-.005.006-.005.007-.002.003-.076-.178-.089-.2-.102-.218-.057-.118-.054-.113-.118-.24-.108-.21-.015-.03v4.918h-1.156v-4.157l-.126.374-.13.357-.137.338-.111.247-.031.067-.148.286-.142.235-.009.013-.004.007-.068-.186-.085-.21-.093-.212-.005-.012-.104-.221-.105-.206-.02-.036-.05-.089-.03-.052.275-.429.26-.51.207-.493.033-.078.215-.608.184-.623.149-.615h-1.005v-1.178h1.08V-44h1.156v1.986h.838v.67m-6.009-1.428L-56-34.292l-.248 1.524-1.477 9.062-.278 1.708h22.006l-1.525-9.36-.23-1.41-.248-1.523-1.382-8.48v-.032h-.007L-42-44.587l-5-3.416-5 3.416-2.61 1.784h-.008v.031M-38-44l.2 1.197 1.672 10.035 1.795 10.77L-34-20h-26l2.128-12.768 1.672-10.035L-56-44l1.775-1.183 5.745-3.831h.001L-47-50l9 6m-9.5 13h1v2.5h2.5v-1l2 1.5-2 1.5v-1h-2.5v2.5h-1v-2.5H-50v1l-2-1.5 2-1.5v1h2.5V-31m2.444-11.091h-.766v.747h1.307v-.747h-.541m1.274 3.133h-.922v.585h.922v-.585m0 1.925v-.57h-.922v.57h.922m-3.052-1.925v.585h.997v-.585h-.997m.997 1.355h-.997v.57h.997Zm0 0" transform="matrix(4.29492 0 0 4.26451 261.99 217.49)"/>
    <path d="M4.46 131.988c0-.066 3.849-23.058 8.552-51.09l8.55-50.968L60.118 4.406l19.16 12.684c10.54 6.976 19.227 12.746 19.305 12.824.125.125 17.191 101.332 17.191 101.953 0 .219-6.195.246-55.656.246-30.61 0-55.652-.054-55.656-.125m102.974-8.703c-.055-.246-3.34-20.219-7.301-44.379-4.031-24.578-7.293-44.008-7.403-44.113-.19-.18-31.617-21.492-32.296-21.902-.317-.192-1.711.714-16.746 10.918-9.02 6.117-16.399 11.195-16.399 11.285 0 .207-14.36 87.789-14.473 88.273l-.086.371h94.797Zm0 0"/>
    <path d="M44.82 63.469c0-4.875-.054-8.867-.125-8.864-.066 0-.453.93-.86 2.063-.722 2.027-1.776 4.383-2.444 5.46l-.34.552-.207-.633c-.114-.348-.617-1.496-1.117-2.559l-.91-1.93.59-.878c1.566-2.344 3.238-6.496 4.421-10.985l.637-2.425h-4.442v-4.926h4.797v-8.375h4.63v8.375h3.64v4.926h-3.64v.878c0 .797.077.98.8 1.93.441.578 1.7 2.39 2.8 4.031l2 2.977-1.269 1.703c-.699.934-1.332 1.723-1.41 1.75-.074.027-.621-.973-1.21-2.219-.59-1.246-1.157-2.43-1.255-2.633s-.238-.37-.316-.37-.14 4.73-.14 10.511v10.508h-4.63Zm0 0"/>
    <path d="M54.66 71.09a148 148 0 0 0-1.379-1.715l-.386-.469 1.507-.75c2.403-1.199 5.84-3.535 6.86-4.664l.312-.351h-5.508V47.703h9.098V45.57H54.082V41.3h6.285v-3.448h-5.129v-4.106h5.13V29.97h4.796v3.777h5.79V29.97h4.792v3.777h3.805v4.106h-3.805V41.3h5.129v4.27H69.961v2.132h9.094V63.14l-2.934.011c-2.918.008-2.933.008-2.523.317.226.172 1.285.93 2.355 1.68 2.223 1.566 5.422 4.058 5.41 4.21-.004.059-.832.75-1.84 1.543l-1.832 1.434-1.152-1.074c-1.215-1.14-4.687-3.938-5.98-4.82-.422-.29-.758-.575-.754-.641.007-.063.593-.633 1.308-1.262.711-.633 1.305-1.207 1.313-1.273.008-.07-2.18-.125-4.864-.125s-4.878.062-4.878.136.703.61 1.566 1.192c.86.578 1.566 1.105 1.57 1.168.008.226-2.937 2.52-4.75 3.695-1.55 1.008-5.113 3.008-5.347 3.004-.04 0-.516-.563-1.063-1.246m10.504-12.711v-1.313H60.7v2.625h4.465Zm8.93 0v-1.313H69.96v2.625h4.133Zm-8.93-5.746v-1.317H60.7v2.63h4.465Zm8.93 0v-1.317H69.96v2.63h4.133Zm-3.14-13.055v-1.726h-5.79V41.3h5.79ZM58.05 105.426v-5.336H47.146l-.047 2.066-.043 2.063-4.106-3.059-4.11-3.062 4.063-3.028c2.235-1.664 4.102-3.027 4.149-3.027s.086.887.086 1.973v1.968H58.05V85.313h4.136v10.671h10.915v-4.109l4.011 2.98a670 670 0 0 1 4.153 3.106c.078.07-1.707 1.508-3.97 3.191l-4.112 3.067-.047-2.063-.047-2.066H62.187v10.676h-4.136Zm0 0"/>
    <path fill="#f9f9f9" d="M13.066 123.328c0-.527 14.391-88.035 14.512-88.226.184-.297 32.3-22.047 32.555-22.047.12 0 7.496 4.937 16.387 10.972 15.273 10.36 16.175 11 16.285 11.535.066.313 3.254 19.668 7.082 43.016 3.832 23.348 7.062 43.024 7.183 43.723l.22 1.273H60.175c-41.707 0-47.11-.027-47.11-.246m49.286-17.738v-5.336h10.586v2.137c0 1.171.046 2.132.105 2.132.195 0 8.644-6.316 8.61-6.437-.02-.063-1.97-1.555-4.333-3.313l-4.3-3.203-.094 4.25H62.352V85.148h-4.465V95.82H47.309l-.043-2.125-.047-2.125-4.285 3.192a550 550 0 0 0-4.356 3.261c-.07.07 8.473 6.5 8.637 6.5.047 0 .086-.96.086-2.132v-2.137h10.586v10.676h4.465ZM49.797 62.28l.016-10.222 1.136 2.296c.621 1.266 1.137 2.391 1.14 2.504.016.453.345.121 1.727-1.757 1.32-1.793 1.426-1.997 1.243-2.34-.305-.563-3.036-4.606-4.23-6.254-.95-1.309-1.048-1.524-1.048-2.258v-.816h3.473V38.18H49.78v-8.375h-5.293v8.375H39.86v5.254h2.149c1.183 0 2.152.035 2.152.078 0 .398-.816 3.343-1.465 5.293-1.004 3.008-2.12 5.55-3.27 7.441l-.874 1.445.52.957c.288.524.831 1.68 1.214 2.57.38.887.754 1.618.836 1.63.223.023 1.895-3.352 2.664-5.371l.688-1.809.007 8.418.008 8.414h5.293ZM56.91 72c1.785-.895 4.324-2.453 6.02-3.7 1.836-1.347 3.347-2.632 3.222-2.745-.043-.04-.78-.563-1.64-1.16l-1.559-1.09h9.14l-1.273 1.191c-.703.652-1.297 1.234-1.32 1.29-.027.054.8.73 1.836 1.503 2.215 1.652 4.559 3.598 5.48 4.54.36.37.739.671.848.671.2 0 3.918-2.887 4-3.105.063-.168-3.273-2.805-5.812-4.594l-2.125-1.496h5.496V47.539h-9.098v-1.805h10.914v-4.597h-5.125v-3.121h3.969v-4.434h-3.969v-3.777h-5.129v3.777h-5.457v-3.777h-5.125v3.777h-5.129v4.434h5.13v3.12h-6.286v4.598h11.078v1.805h-9.094v15.766l2.606.008 2.601.007-.824.746c-1.172 1.055-4.191 3.02-6.039 3.934-.863.426-1.598.8-1.633.828-.039.027.352.54.864 1.133a38 38 0 0 1 1.457 1.809c.289.402.629.73.754.73.12 0 .671-.223 1.222-.5m0 0"/>
    <path fill="#f9f9f9" d="M65.328 39.578v-1.562h5.457v3.12h-5.457Zm-4.465 13.055V51.48h4.133v2.301h-4.133Zm9.262 0V51.48h3.805v2.301h-3.805Zm-9.262 5.746V57.23h4.133v2.297h-4.133Zm9.262 0V57.23h3.805v2.297h-3.805Zm0 0"/>
</svg>
