<svg xmlns="http://www.w3.org/2000/svg" width="120" height="120" viewBox="0 0 120 136">
    <path fill="none" stroke="red" stroke-width=".004" d="M-42.459-41.255v2.882h-7.439l-.069.747-.08.564-.026.188-.002.01-.146.733-.194.716-.22.599-.027.073-.229.459-.035.071-.019.036-.011.025-.007.014-.005.009-.136-.117-.17-.13-.19-.133-.194-.124-.183-.105-.16-.076.002-.002.378-.8.263-.883.066-.365.102-.557.095-.927.005-.106.02-.458.016-.33.01-.826v-3.057h3.845l-.038-.1-.038-.1-.038-.1-.039-.098-.038-.093-.038-.087.324-.076.944-.221h.001l.062.14.064.142.063.147.062.148.06.15.056.148h3.593v1.095h-7.637v.775h1.223v-.623h1.17v.623h1.322v-.623h1.193v.623h2.47m.152 3.871v.996h-2.393v.928l.006.137.02.098.041.063.068.038.1.017.14.004h.91l.122-.012.09-.044.064-.088.044-.144.03-.212.02-.237.004-.054.032.02.105.067.165.085.184.078.19.071.189.06.175.045-.082.479-.122.364-.171.262-.23.172-.297.094-.106.008-.27.021h-1.237l-.499-.031-.042-.011-.326-.086-.256-.174-.14-.227-.021-.034-.084-.357-.024-.464v-2.685h1.208v.753h2.393m-3.952 1.894-.003.157v.17l.004.173.006.168.01.153.013.13-.876.111-.238.031-.64.088-.17.024-.563.089-.372.073-.065.018-.17.045-.055.021-.044.018-.028.01-.018.007-.01.004-.038-.152-.057-.174-.071-.183-.08-.176-.07-.131-.01-.018-.004-.008-.045-.068-.027-.04-.011-.016.102-.054.095-.072.083-.095.066-.121.044-.151.015-.184v-2.555h1.2v.814h1.965v.996h-1.964v1.095l1.18-.115.78-.076.03-.003.019-.002h.014l.003-.001m-3.579-4.238-.002.116-.005.236h1.23v-.875h-1.222v.523M-47-33l.174.232L-45.5-31h-1v1.793L-44.707-31l.182-.182.182.182.525.525-1.975 1.975H-44v1h-1.793l1.975 1.975-.525.525-.182.182-.182-.182-1.793-1.793V-25h1l-1.5 2-1.5-2h1v-1.793L-49.293-25l-.182.182-.182-.182-.525-.525 1.975-1.975H-50v-1h1.793l-1.975-1.975.525-.525.182-.182.182.182 1.793 1.793V-31h-1l1.326-1.768L-47-33m-7.618-9.772L-56-34.292l-.248 1.524-.288 1.768-.408 2.5-.162 1-.408 2.5-.49 3.002h22.007l-.49-3.002-.407-2.5-.162-1-.408-2.5-.288-1.768-.248-1.523-1.382-8.48v-.032h-.007L-42-44.587l-5-3.416-5 3.416-2.61 1.784h-.008v.031M-38-44l.2 1.197 1.672 10.035 1.795 10.77L-34-20h-26l2.128-12.768 1.672-10.035L-56-44l1.775-1.183 5.745-3.831h.001L-47-50l9 6m-5.66 3.75h-1.268v.874h1.269v-.875m-2.462.875v-.875h-1.322v.875Zm0 0" transform="matrix(4.29492 0 0 4.26451 261.99 217.49)"/>
    <path fill="red" d="M4.46 131.988c0-.066 3.849-23.058 8.552-51.09l8.55-50.968L60.118 4.406l19.16 12.684c10.54 6.976 19.227 12.746 19.305 12.824.125.125 17.191 101.332 17.191 101.953 0 .219-6.195.246-55.656.246-30.61 0-55.652-.054-55.656-.125m102.974-8.703c-.055-.246-3.34-20.219-7.301-44.379-4.031-24.578-7.293-44.008-7.403-44.113-.19-.18-31.617-21.492-32.296-21.902-.317-.192-1.711.714-16.746 10.918-9.02 6.117-16.399 11.195-16.399 11.285 0 .207-14.36 87.789-14.473 88.273l-.086.371h94.797Zm0 0"/>
    <path fill="red" d="M42.754 71.516c-.113-.176-3.453-2.399-3.762-2.504-.117-.04.133-.742.656-1.856 1.368-2.918 2.196-6.207 2.79-11.074.21-1.742.289-4.387.351-12.277l.082-10.059h16.527l-.117-.367a21 21 0 0 0-.484-1.29l-.371-.917 2.336-.531c1.285-.293 2.476-.547 2.648-.563.246-.02.473.344 1.094 1.781l.785 1.805 15.422.086v4.43H47.797v3.449h5.457V39h4.96v2.629h5.79V39h4.96v2.629h10.587V53.78H47.648l-.082.535a67 67 0 0 0-.27 2.34c-.538 5.258-1.69 9.774-3.425 13.422-.742 1.563-.91 1.777-1.117 1.438m10.5-23.813v-1.969h-5.457v3.942h5.457Zm10.75 0v-1.969h-5.79v3.942h5.79Zm10.586 0v-1.969h-5.625v3.942h5.625Zm0 0"/>
    <path fill="red" d="M49.313 71.563c-.11-.43-.458-1.301-.766-1.934l-.563-1.152.47-.426c1.081-.985 1.073-.95 1.132-7.496l.055-5.953h4.937v3.613h8.434v3.941h-8.434v4.957l.785-.097c1.52-.188 7.696-.762 7.735-.72.02.028.078.915.132 1.977l.102 1.93h-.402c-1.524 0-12.227 1.66-13.157 2.04-.199.081-.304-.075-.46-.68m20.397.511c-2.108-.199-3.26-.703-3.956-1.734-.719-1.063-.781-1.695-.875-8.719l-.086-6.691h5.168v3.285h10.254v3.941H69.96v2.606c0 2.222.039 2.64.27 2.836.203.164 1 .238 3.027.277 2.57.047 2.777.027 3.183-.29q.437-.34.532-.995l.191-1.281.09-.625.941.453c.52.25 1.465.617 2.102.816.637.2 1.172.367 1.187.379.016.008-.078.57-.207 1.246-.289 1.512-1.047 3.086-1.722 3.582-1.07.785-1.672.887-5.543.934-2 .023-3.938.015-4.301-.02m-12.702 43-3.07-4.062 2.058-.047 2.055-.047v-3.852c0-2.12-.055-3.855-.121-3.855-.07 0-2.004 1.863-4.301 4.144l-4.18 4.145-1.445-1.434-1.445-1.437 4.296-4.27 4.301-4.27h-7.855v-4.105h7.855l-8.515-8.46 1.445-1.434 1.445-1.438 4.262 4.23 4.258 4.227v-7.96h-4.137l3.059-4.024c1.687-2.215 3.105-4.031 3.16-4.035.05-.004 1.465 1.805 3.14 4.023l3.051 4.035h-4.136v7.961l4.257-4.226 4.262-4.23 1.445 1.437 1.446 1.433-8.516 8.461h7.856v4.106h-7.856l4.297 4.27 4.3 4.269-1.449 1.437-1.445 1.434-4.176-4.145c-2.296-2.28-4.234-4.144-4.3-4.144-.067 0-.121 1.734-.121 3.855v3.852l4.156.094-3.074 4.062c-1.688 2.235-3.098 4.067-3.133 4.067s-1.442-1.832-3.13-4.067m0 0"/>
    <path fill="#f9f9f9" d="M13.066 123.328c0-.133 2.754-17.039 6.125-37.566 3.368-20.524 6.614-40.313 7.207-43.969.598-3.656 1.172-6.734 1.278-6.832.41-.395 32.066-21.781 32.344-21.856.195-.05 5.816 3.672 16.48 10.907 15.293 10.375 16.195 11.015 16.305 11.55.066.313 3.254 19.668 7.082 43.016 3.832 23.348 7.062 43.024 7.183 43.723l.22 1.273H60.175c-41.656 0-47.11-.027-47.11-.246m50.36-8.125c1.773-2.348 3.226-4.305 3.226-4.351s-.968-.086-2.152-.086h-2.148v-7.305l4.218 4.184 4.215 4.183 1.613-1.598 1.61-1.601-8.43-8.375h7.524V95.82h-7.524l8.352-8.297-1.575-1.554-1.57-1.559-4.219 4.188-4.214 4.183v-7.46l2.16-.048 2.16-.043-3.258-4.316c-1.793-2.375-3.285-4.289-3.32-4.254a573 573 0 0 0-3.274 4.313l-3.215 4.257 2.141.043 2.14.047v7.297l-4.093-4.062c-2.254-2.239-4.168-4.067-4.258-4.067s-.851.684-1.695 1.52l-1.535 1.515 4.175 4.149 4.18 4.148h-7.523v4.434h7.687l-4.258 4.23-4.261 4.23 1.574 1.56 1.574 1.554 4.215-4.183 4.219-4.184v7.305h-2.153c-1.18 0-2.148.039-2.148.086 0 .12 6.437 8.617 6.531 8.617.043 0 1.531-1.922 3.309-4.266M52.098 71.922c1.828-.379 10.14-1.555 11.007-1.555h.418l-.113-2.094c-.058-1.152-.133-2.12-.16-2.152-.055-.062-7.066.574-7.969.723l-.539.09V62.32h8.438v-4.27h-8.438v-3.62l-2.687.047-2.688.043-.082 6.078c-.09 6.699-.105 6.797-1.156 7.414-.277.16-.48.332-.457.379s.277.53.558 1.074c.282.539.645 1.39.805 1.887.387 1.183.395 1.195.805 1.074.195-.059 1.21-.285 2.258-.504m26.34.074c1.519-.508 2.574-2.016 3.015-4.316.137-.703.25-1.34.25-1.407 0-.07-.484-.257-1.074-.414-.59-.16-1.625-.566-2.3-.902l-1.227-.613-.102.754c-.371 2.734-.129 2.558-3.55 2.558-2.11 0-2.845-.054-3.052-.222-.234-.192-.273-.598-.273-2.672V62.32h10.254v-4.27H70.125v-3.284h-5.457l.004 5.625c.008 6.992.129 8.55.77 9.793.398.773.617.988 1.398 1.386.61.309 1.344.516 2.148.606 1.82.203 8.696.074 9.45-.18m-34.606-1.308c1.754-3.465 3.09-8.56 3.633-13.868.101-.996.222-2.047.265-2.34l.083-.535h31.906v-12.48H69.133v-2.63H63.84v2.63h-5.457v-2.63H53.09v2.63h-5.13v-3.121h32.915v-4.926H65.371l-.715-1.734c-.394-.954-.781-1.774-.855-1.82-.121-.075-5.399 1.054-5.563 1.19-.035.028.133.536.371 1.126.239.593.434 1.113.434 1.156 0 .047-3.676.082-8.168.082h-8.168l-.082 10.14c-.09 10.645-.18 12.196-.96 16.38-.407 2.175-1.364 5.457-1.907 6.519a40 40 0 0 0-.79 1.668l-.402.898 1.266.75c.695.41 1.676 1.075 2.176 1.48.5.403.965.74 1.031.743.07.008.426-.582.793-1.308m0 0"/>
    <path fill="#f9f9f9" d="M47.96 47.703v-1.805h5.13v3.614h-5.13Zm10.423 0v-1.805h5.457v3.614h-5.457Zm10.75 0v-1.805h5.293v3.614h-5.293Zm0 0"/>
</svg>
