<svg xmlns="http://www.w3.org/2000/svg" width="120" height="120" viewBox="0 0 120 136">
    <path fill="none" stroke="red" stroke-width=".004" d="m-42.395-41.728-.104.321-.112.329-.042.118-.025.068-.051.14-.12.315-.117.294-.113.264-.998-.246-.01-.002-.01-.003h-.002l-.005-.002h-.001l.042-.11.044-.119.043-.125.044-.13.043-.136.042-.14h-3.001v.637l1.792-.158.647-.057.093.895v.008l.006.049-.746.068-1.792.162v.031l.007.142.027.113.051.085.007.005.077.055.121.034.166.011h1.976l.195-.003.219-.007.226-.013.217-.018.192-.023.142-.027.009-.001.006.05.016.124.017.147.003.033.018.18.018.177.018.166.016.14.002.011-.145.033-.185.023-.213.015-.23.009-.24.004h-2.33l-.543-.032-.23-.056-.186-.046-.3-.179-.202-.263-.115-.353-.019-.19-.024-.262-1.088.101-.242.022-.046-.493-.045-.474.128-.011.205-.02.715-.065.373-.034v-.745h-1.672v2.019l-.019.77-.072.83-.07.409-.075.442-.24.834-.328.721-.027.06-.381.537-.053.074-.024.036-.017.022-.01.015-.006.008-.117-.116-.152-.134-.173-.138-.18-.13-.171-.11-.14-.073-.01-.005.428-.61.301-.668.196-.704.01-.061.103-.655.052-.703.013-.667v-3h2.69V-44h1.246v.683h3.792v.982h-3.792v.446h3.51l.191-.03.866.19m-2.348 4.283v1.896l.005.13.02.092.042.063.069.037.102.018.142.005h.904l.139-.019.1-.071.072-.149.047-.249.031-.373.02-.52.042.026.097.061.168.083.187.078.195.069.189.059.172.046-.078.68-.12.51-.175.358-.242.23-.32.12-.073.007-.337.029h-1.201l-.49-.03-.02-.004-.345-.086-.255-.163-.162-.245-.086-.335-.025-.434v-1.92h1.186m-2.485 0-.013.583-.01.38-.113.781-.256.62-.447.476-.64.331-.046.024-.399.103-.35.09-.095.025-.05.013-.039.01-.026.007-.016.004-.058-.15-.084-.164-.103-.169-.115-.163-.118-.147-.022-.023-.093-.097.784-.167.385-.168.152-.066.336-.327.18-.447.074-.593.003-.183.01-.582h1.169m-7.39-5.326L-56-34.292l-.248 1.524-.696 4.268-.162 1-.897 5.502h22.006l-.897-5.502-.162-1-.696-4.268-.248-1.523-1.382-8.48v-.032h-.007L-42-44.587l-5-3.416-5 3.416-2.61 1.784h-.008v.031M-38-44l.2 1.197 1.672 10.035 1.795 10.77L-34-20h-26l2.128-12.768 1.672-10.035L-56-44l1.775-1.183 5.745-3.831h.001L-47-50l9 6m-8.5 19h-1v-1.793l-1.975 1.975-.707-.707 1.975-1.975H-50v-1h1.793l-1.975-1.975.707-.707L-47-28.707l2.475-2.475.707.707-1.975 1.975H-44v1h-1.793l1.975 1.975-.707.707-1.975-1.975Zm0 0" transform="matrix(4.29492 0 0 4.26451 261.99 217.49)"/>
    <path d="M4.46 131.988c0-.066 3.849-23.058 8.552-51.09l8.55-50.968L60.118 4.406l19.16 12.684c10.54 6.976 19.227 12.746 19.305 12.824.125.125 17.191 101.332 17.191 101.953 0 .219-6.195.246-55.656.246-30.61 0-55.652-.054-55.656-.125m102.974-8.703c-.055-.246-3.34-20.219-7.301-44.379-4.024-24.515-7.293-44.008-7.403-44.113-.19-.176-31.613-21.488-32.296-21.902-.317-.192-1.711.714-16.746 10.918-9.02 6.117-16.399 11.195-16.399 11.285 0 .207-14.36 87.789-14.473 88.273l-.086.371h94.797Zm0 0"/>
    <path d="M41.914 71.133c-.844-.711-2.66-2.035-2.906-2.117-.117-.036.18-.594.722-1.368 1.66-2.367 2.81-5.585 3.372-9.433.218-1.504.289-3.653.347-10.55L43.527 39h11.547v-9.031h5.13v2.957H76.41v3.941H60.203v2.153l8.313-.028c7.347-.027 8.472.004 9.636.258.723.156 1.38.34 1.453.406.22.2-2.34 7.254-2.718 7.485-.184.113-4.117-.754-4.117-.91 0-.06.222-.762.496-1.563.273-.8.496-1.52.496-1.594 0-.07-2.938-.133-6.532-.133H60.7v1.48c0 .868.066 1.477.163 1.477.09 0 2.293-.187 4.899-.418 2.601-.23 4.89-.398 5.086-.37.32.046.367.21.539 1.855.101.996.164 1.832.136 1.863-.043.05-10.082 1.004-10.62 1.008-.532.008-.036 1.797.574 2.066.726.32 13.066.22 14.605-.12.184-.044.281.394.453 1.98.121 1.117.184 2.066.14 2.11-.452.448-15.745.472-17.382.023-1.16-.317-2.078-.88-2.586-1.59-.531-.735-.973-2.14-.973-3.09 0-.383-.062-.738-.14-.785s-1.348.03-2.82.172c-1.473.144-2.72.222-2.766.175-.11-.109-.461-3.715-.371-3.804.054-.055 5.258-.582 5.746-.582.129 0 .187-.555.187-1.723v-1.727h-7.277v5.598c0 3.078-.078 6.496-.176 7.594-.543 6.144-2.004 10.894-4.379 14.242-.508.719-.98 1.305-1.05 1.305-.067 0-.415-.246-.774-.547m0 0"/>
    <path d="M48.227 71.773c-.286-.671-1.442-2.394-1.817-2.707-.148-.117-.265-.27-.265-.332 0-.058.687-.246 1.527-.414 3.16-.625 5.031-1.84 5.808-3.77.422-1.058.766-3.527.766-5.519v-1.144h4.797v1.683c.004 2.567-.422 5.207-1.098 6.856-1.12 2.719-3.383 4.383-7.394 5.43-1.016.261-1.899.48-1.965.48s-.23-.254-.36-.563m19.583-.656c-1.032-.285-1.79-.781-2.196-1.433-.664-1.067-.777-2.09-.777-7.075l-.004-4.722h4.961v4.504c0 3.875.035 4.539.262 4.761.215.215.738.258 3.117.258 2.512 0 2.887-.035 3.117-.285.434-.477.61-1.14.707-2.64.05-.782.125-1.727.172-2.094l.078-.664.945.453c.52.25 1.489.62 2.153.82 1.133.348 1.199.395 1.125.79-.043.23-.125.862-.184 1.405-.254 2.371-.945 4.203-1.926 5.106-1.066.984-1.488 1.054-6.386 1.035-3-.008-4.66-.078-5.164-.219M47.96 110.023l-1.398-1.394 8.594-8.54h-7.855v-4.105h7.855l-4.261-4.23-4.258-4.23 1.449-1.434 1.453-1.434 10.578 10.508 5.293-5.254 5.297-5.258 1.445 1.438 1.446 1.433-8.516 8.461h7.856v4.106h-7.856l4.297 4.27 4.3 4.269-1.449 1.437-1.445 1.434-4.176-4.145c-2.296-2.28-4.234-4.144-4.3-4.144-.067 0-.121 1.7-.121 3.777v3.778H58.05v-3.778c0-2.078-.055-3.777-.125-3.777s-1.985 1.848-4.258 4.105-4.172 4.106-4.219 4.106-.719-.629-1.488-1.399m0 0"/>
    <path fill="#f9f9f9" d="M13.066 123.328c0-.527 14.391-88.035 14.512-88.226.184-.297 32.3-22.047 32.555-22.047.12 0 7.496 4.937 16.387 10.972 15.273 10.36 16.175 11 16.285 11.535.066.313 3.254 19.668 7.082 43.016 3.832 23.348 7.062 43.024 7.183 43.723l.22 1.273H60.175c-41.79 0-47.11-.027-47.11-.246m40.641-15.723 4.18-4.144v7.469h4.465v-7.47l4.218 4.185 4.215 4.183 1.613-1.598 1.61-1.601-8.43-8.375h7.524V95.82h-7.524l8.352-8.297-1.575-1.554-1.57-1.559-5.293 5.254-5.289 5.25-5.254-5.21c-2.886-2.868-5.324-5.216-5.414-5.216s-.851.684-1.695 1.52l-1.535 1.515 4.175 4.149 4.18 4.148h-7.523v4.434h7.687l-8.515 8.46 1.527 1.516c.844.836 1.566 1.52 1.613 1.52.043 0 1.961-1.867 4.258-4.145m-2.95-35.613c3.888-1.039 6.247-2.73 7.306-5.238.664-1.582 1.14-4.543 1.144-7.102v-1.93h-5.062l-.188 2.77c-.16 2.313-.258 2.942-.617 3.828-.805 2-2.555 3.172-5.707 3.813-.774.156-1.504.316-1.621.355-.14.043.066.426.601 1.121.446.579 1.016 1.47 1.266 1.973.262.527.562.918.71.918.141 0 1.118-.227 2.169-.508m-6.944-1.355q3.646-5.024 4.468-14.34c.098-1.098.176-4.48.176-7.512V43.27h6.95v1.48q0 1.476-.188 1.477c-.543 0-5.696.53-5.758.593-.102.102.258 3.996.379 4.118.055.054 1.308-.012 2.789-.145 1.48-.137 2.75-.215 2.816-.18.07.04.125.383.125.766 0 1.625.864 3.305 2.078 4.05 1.329.817 1.825.864 9.516.938 6.453.059 9.39-.047 9.691-.347.047-.047-.015-1.067-.14-2.27l-.223-2.187-.414.058c-.226.035-3.543.094-7.367.137-6.543.07-6.98.058-7.324-.223-.207-.168-.414-.57-.469-.914-.086-.527-.055-.617.21-.625.84-.02 10.505-.941 10.571-1.008.09-.09-.32-4.043-.43-4.125-.058-.047-5.57.41-9.374.782l-1.032.097V43.27h6.285c3.457 0 6.286.062 6.286.136 0 .07-.223.778-.489 1.567-.347 1.023-.433 1.453-.289 1.5.11.035 1.016.257 2.016.488 1 .234 1.941.46 2.09.508.328.101 1.031-1.485 2.375-5.367.789-2.286.863-2.602.613-2.672-2.027-.602-2.477-.625-10.988-.598l-8.395.027v-1.828h16.371v-4.27h-16.37v-2.956H54.91v9.03H43.363l-.078 8.665c-.062 6.848-.137 9.059-.351 10.55-.563 3.88-1.739 7.204-3.348 9.446a68 68 0 0 0-.934 1.332c-.066.11.27.418.836.77.524.32 1.434.992 2.024 1.488.593.5 1.125.91 1.187.914.063.008.563-.61 1.114-1.363m34.414.617c.953-.367 1.746-1.094 2.242-2.059.398-.777.953-3.207 1.14-5l.102-1-1.219-.351a16 16 0 0 1-2.312-.899l-1.098-.55-.082.667a56 56 0 0 0-.168 2.168c-.09 1.567-.266 2.243-.707 2.73-.23.25-.602.286-2.953.286-2.227 0-2.738-.043-2.953-.258-.223-.222-.258-.886-.258-4.761v-4.504h-5.313l.059 5.297c.043 3.703.121 5.484.27 5.925.293.88 1.472 2.012 2.363 2.262 1.191.332 3.183.45 6.754.39 2.73-.046 3.535-.113 4.133-.343m0 0"/>
</svg>
