<svg xmlns="http://www.w3.org/2000/svg" width="120" height="120" viewBox="0 0 120 136">
    <path fill="none" stroke="red" stroke-width=".004" d="M-46.803-42.7v-1.177h3.48l.23-.032.085.03.701.25-.165.656-.056.17-.147.442-.237.57-.096.186-.176.341-.189.304-.114.183-.332.448.12.085.078.054.069.048.282.174.262.14.034.019.31.145.325.128.274.09.025.009.024.008.016.005-.135.139-.14.17-.138.187-.01.016-.121.179-.117.19-.016.029-.08.144-.36-.141-.345-.158-.327-.176-.109-.067-.202-.125-.293-.21-.26-.213-.016-.013-.27.214-.117.084-.162.114-.236.15-.054.033-.3.169-.31.155-.309.136-.005.002-.006.003h-.003v.001l.028.08.027.076.026.077.025.075.023.074.021.071h3.614v1.194h-2.417l.038.009.836.18-.084.238-.084.235-.079.221-.004.011-.084.226-.082.221-.08.214h2.473V-34H-52v-1.21h2.496l-.048-.207-.062-.22-.077-.23-.088-.232-.099-.227-.106-.217.27-.077.51-.145h-2.276v-1.194h3.866l-.028-.086-.06-.172-.062-.169-.03-.083h-3.954V-44h4.512v.98h-1.221v.584h1.15v2.37h-1.15v.617h1.26v.585l.093-.024.091-.024.226-.06-.058-.089-.061-.087-.063-.082-.062-.078-.04-.047-.02-.023-.013-.013-.046-.05.046-.017.25-.097.288-.13.28-.146.174-.105.095-.058.26-.179.229-.184.016-.013-.221-.319-.167-.27-.04-.066-.193-.355-.18-.371-.165-.388-.152-.404.591-.157h-.764m-1.402 7.243-.52.157-.299.09H-46l.086-.256.083-.262.079-.266.074-.264.067-.258.06-.249h-3.142l.114.22.104.225.09.227.078.224.061.214.04.198M-47-33l.174.232L-45.5-31h-1v2.5h2.5v1h-2.5v2.5h1l-1.5 2-1.5-2h1v-2.5H-50v-1h2.5V-31h-1l1.326-1.768L-47-33m-7.618-9.772L-56-34.292l-.248 1.524-.288 1.768-.408 2.5-.162 1-.408 2.5-.49 3.002h22.007l-.49-3.002-.407-2.5-.162-1-.408-2.5-.288-1.768-.248-1.523-1.382-8.48v-.032h-.007L-42-44.587l-5-3.416-5 3.416-2.61 1.784h-.008v.031M-38-44l.2 1.197 1.672 10.035 1.795 10.77L-34-20h-26l2.128-12.768 1.672-10.035L-56-44l1.775-1.183 5.745-3.831h.001L-47-50l9 6m-7.03 2.345.158.235.171.227.17-.227.16-.235.151-.245.14-.255.129-.267.116-.278h-1.708l.11.278.12.267.135.255.122.204.025.04m-4.552-.78v-.585h-.984v.585h.984m1.126.88h-2.11v.609h2.11v-.61m-1.126 1.491h-.984v.617h.984Zm0 0" transform="matrix(4.29492 0 0 4.26451 261.99 217.49)"/>
    <path fill="red" d="M4.46 131.988c0-.066 3.849-23.058 8.552-51.09l8.55-50.968L60.118 4.406l19.16 12.684c10.54 6.976 19.227 12.746 19.305 12.824.125.125 17.191 101.332 17.191 101.953 0 .219-6.195.246-55.656.246-30.61 0-55.652-.054-55.656-.125m102.974-8.703c-.055-.246-3.34-20.219-7.301-44.379-4.024-24.515-7.293-44.008-7.403-44.113-.19-.176-31.613-21.488-32.296-21.902-.317-.192-1.711.714-16.746 10.918-9.02 6.117-16.399 11.195-16.399 11.285 0 .207-14.36 87.789-14.473 88.273l-.086.371h94.797Zm0 0"/>
    <path fill="red" d="M38.7 69.875V67.41h5.374c3.024 0 5.375-.062 5.375-.144 0-.387-.863-3.04-1.379-4.23l-.578-1.34 1.684-.47 1.68-.464-4.919-.043-4.921-.047V55.75h8.27c6.51 0 8.269-.043 8.26-.203-.007-.113-.175-.649-.374-1.192l-.363-.984-8.477-.043-8.473-.043V29.97h19.184v3.941H53.75v2.63h4.96v10.015h-4.96v2.793h5.457v1.23c0 .68.043 1.23.094 1.23.238 0 1.66-.382 1.765-.476.067-.059-.214-.531-.629-1.05l-.746-.946.63-.254c2.113-.848 5.523-2.824 6.128-3.547.14-.172-.004-.504-.64-1.45-1.133-1.679-2.13-3.53-3.004-5.577-1.117-2.606-1.149-2.332.332-2.738l1.281-.348-3.39-.031V30.47l7.898-.043 7.898-.047 1.672.547 1.676.547-.317 1.261c-1.12 4.446-2.843 8.2-5.296 11.543-.438.598-.793 1.153-.793 1.23.007.43 4.097 2.65 6.32 3.43l1.281.45-.637.761c-.718.852-2.335 3.27-2.335 3.489 0 .332-3.594-1.36-5.54-2.606-.636-.406-1.511-1.031-1.937-1.386L70.141 49l-1.043.809c-1.461 1.136-2.657 1.867-4.774 2.925-1.406.703-1.82.98-1.758 1.188.043.148.176.621.297 1.05l.219.778h15.477v4.93h-5.153c-2.836 0-5.12.03-5.078.074.043.043.856.238 1.805.437.949.196 1.746.371 1.77.387.023.02-.434 1.317-1.012 2.89l-1.051 2.86 10.703.086v4.922H38.699Zm26.253-3.777c.352-1.13 1.2-4.16 1.414-5.051l.086-.367h-13.66l.719 1.601c.394.88.863 2.125 1.043 2.766l.32 1.172-1.594.457c-.879.25-1.668.52-1.758.597-.086.079 2.778.122 6.446.098l6.601-.043ZM49.121 47.953v-1.398h-4.465v2.793h4.465Zm4.797-6.406v-1.395h-9.262v2.79h9.262Zm17.203-1.102c.965-1.43 2.297-3.879 2.547-4.687l.117-.367h-7.488l.117.359c.234.734 1.098 2.523 1.684 3.488.636 1.051 1.824 2.719 1.937 2.719.04 0 .528-.68 1.086-1.512m-22-5.222V33.91h-4.465v2.63h4.465Zm7.887 79.851-3.07-4.062 2.058-.047 2.055-.047V100.09H47.3v-4.106h10.75V85.148h-4.137l3.059-4.023c1.687-2.215 3.105-4.031 3.16-4.035.05-.004 1.465 1.805 3.14 4.023l3.051 4.035h-4.136v10.836h10.75v4.106h-10.75v10.828l4.156.094-3.074 4.062c-1.688 2.235-3.098 4.067-3.133 4.067s-1.442-1.832-3.13-4.067m0 0"/>
    <path fill="#f9f9f9" d="M13.066 123.328c0-.527 14.391-88.035 14.512-88.226.184-.297 32.3-22.047 32.559-22.047.117 0 7.492 4.937 16.383 10.972C91.773 34.38 92.695 35.031 92.809 35.562c.062.313 3.25 19.668 7.078 43.016 3.832 23.348 7.062 43.024 7.183 43.723l.22 1.273H60.175c-41.79 0-47.11-.027-47.11-.246m50.36-8.125c1.773-2.348 3.226-4.305 3.226-4.351s-.968-.086-2.152-.086h-2.148v-10.512h10.75V95.82h-10.75v-10.5l2.16-.047 2.16-.043-3.258-4.316c-1.793-2.375-3.285-4.289-3.32-4.254a573 573 0 0 0-3.274 4.313l-3.215 4.257 2.141.043 2.14.047v10.5h-10.75v4.434h10.75v10.512h-2.152c-1.18 0-2.148.039-2.148.086 0 .12 6.437 8.617 6.531 8.617.043 0 1.531-1.922 3.309-4.266M80.71 69.875v-2.629h-5.313c-4.18 0-5.293-.043-5.23-.203.52-1.344 1.941-5.367 1.941-5.488 0-.086-.539-.274-1.199-.418l-1.2-.258 4.509-.02 4.508-.015v-5.258H63.219l-.196-.695c-.105-.387-.234-.79-.28-.899-.052-.12.51-.492 1.456-.96 1.992-.989 3.239-1.731 4.735-2.817l1.203-.88 1.425 1.063c1.446 1.075 4.184 2.582 5.84 3.211 1.051.399.832.547 2.141-1.468.441-.68 1.113-1.586 1.496-2.012.61-.688.652-.793.387-.887-2.54-.887-4.66-1.89-6.41-3.031l-1.043-.68 1.218-1.789c2.125-3.125 3.715-6.644 4.72-10.453.269-1.031.468-1.894.437-1.922-.028-.031-.797-.3-1.707-.601l-1.653-.551-16.125.094v5.246l1.117.02 1.114.019-.7.168c-.386.09-.703.258-.703.367 0 .754 2.387 5.707 3.754 7.793l.91 1.387-.472.382c-1.035.844-2.762 1.899-4.305 2.633l-1.625.778-3.02.05-3.015.051V46.72h4.96V36.375h-4.96v-2.3h5.289v-4.27H39.691v23.644l16.954.086.367 1.028.367 1.023H40.852v5.258l4.34.015 4.343.016-1.129.34c-.87.262-1.11.398-1.05.597.046.145.343.891.664 1.657.32.77.734 1.933.914 2.586l.332 1.191h-10.73V72.5H80.71Zm0 0"/>
    <path fill="#f9f9f9" d="M44.82 35.223v-1.149h4.133v2.301H44.82Zm0 6.324v-1.23h8.93v2.46h-8.93Zm0 6.406V46.72h4.133v2.465H44.82Zm24.309-7.503c-.836-1.18-2.477-4.286-2.477-4.692 0-.156.778-.203 3.391-.203 2.289 0 3.39.054 3.39.172 0 .515-2.042 4.097-3.16 5.543l-.293.378ZM59.375 50.5v-1.184l.586.696c.918 1.093.969 1.25.441 1.355-.246.051-.578.14-.738.203-.258.098-.289-.011-.289-1.07m-5.707 16.3c.727-.226 1.348-.433 1.379-.46.125-.117-.668-2.602-1.277-3.992l-.657-1.504h13.078l-.113.61c-.066.335-.465 1.757-.887 3.16l-.773 2.55-6.035.027-6.04.024Zm0 0"/>
</svg>
