<svg xmlns="http://www.w3.org/2000/svg" width="120" height="120" viewBox="0 0 120 136">
    <path fill="none" stroke="red" stroke-width=".004" d="M-42.468-41.086v3.277h-1.568v2.53l-.009.253-.03.21v.006l-.056.183-.087.152-.123.126-.163.102-.182.08-.206.052-.164.024-.069.01-.26.018-.288.008h-.316l-.023-.142-.003-.018-.01-.043-.008-.036-.021-.092-.05-.176-.057-.175-.03-.08-.033-.09-.066-.154v-.003l-.03.056-.013.024-.005.008-.035.07-.041.078-.007.012-.032.063-.069.137-.003.007-.107-.086-.129-.093-.042-.028-.1-.069-.15-.095-.05-.03-.097-.06-.14-.079-.13.056-.03.013h-.002l-.472.203-.033.014-.02.01-.014.005-.042-.237-.064-.263-.08-.28-.073-.212-.025-.076-.107-.282-.114-.269.716-.27.095.215.093.23.088.238.054.161.018.053.008.025.07.232.057.218.163-.3.08-.16.083-.167.157-.344.147-.355.064-.173.068-.184.085-.264.028-.088 1.04.308-.08.228-.033.091-.127.328-.137.33-.12.275-.023.052-.128.281-.016.035-.142.3h.007l.151.002.026.001.18.002.165.002h.338l.057-.002.043-.01.03-.017.02-.027.012-.039.004-.05v-2.499h-1.818v-3.277h4.555m-.213 4.082.055.14.108.275.155.42.142.412.123.388.098.351-1.008.352-.033.01-.037-.16-.044-.19-.112-.397-.133-.422-.147-.432-.153-.423-.07-.184-.08-.212.972-.324.164.396m-5.888 1.126.008.038.068.305.066.334.054.313.01.072.028.207-.74.19-.014.003-.03-.281-.017-.12-.016-.101-.015-.097-.062-.34-.074-.349-.032-.136-.048-.21-.083-.325.007-.001.307-.069.41-.092.09.321.083.338m-1.817-.474h.005l.749-.092.036.355.021.249.01.122.025.375.02.365.005.162.007.182.004.31-.795.123-.004.001v-.318l-.004-.298v-.054l-.012-.371-.017-.38-.014-.22-.009-.154-.027-.357m-.21.414-.02.098-.066.314-.097.417-.078.293-.03.11-.118.377-.128.329-.844-.353-.023-.009.139-.32.047-.134.08-.23.118-.39.103-.402.09-.398.072-.378.15.052.68.234-.075.39m3.174-5.788v-1.11h2.164l-.047-.145-.05-.147-.052-.147-.053-.145-.054-.14-.053-.132.51-.143.59-.165.08.184.085.195.086.2.084.201.079.197.07.187h1.862v1.11h-5.301M-47-33l.174.232.326.435 1 1.333h-1v2.792L-43.293-25l.182.182.182-.182.525-.525.075.525.161 1.125.118.825-.824-.118-1.651-.236.707-.707-.89-.889-1.792-1.792V-25h1l-1 1.333-.5.667-.5-.667-1-1.333h1v-1.792L-49.293-25l-.89.889.708.707-1.65.236-.825.118.118-.825.16-1.125.076-.525.525.525.182.182.182-.182 3.207-3.208V-31h-1l1-1.333.326-.435L-47-33m-7.618-9.772L-56-34.292l-.248 1.524-.288 1.768-.075.46-.903 5.54-.49 3.002h22.007l-.03-.19-.46-2.812-.902-5.54-.075-.46-.288-1.768-.248-1.523-1.382-8.48v-.032h-.007L-42-44.587l-5-3.416-5 3.416-2.61 1.784h-.008v.031m4.923-.687-.034.122-.034.123-.035.124h.898l.188-.07.449.324.045.033.147.106-.099.235-.108.24-.115.244-.122.242-.127.237-.13.228h1.033v4.34h-3.695v-3.391l-.094-.09-.096-.084-.098-.08-.096-.074-.09-.062-.084-.05.138-.198.21-.3.296-.532.148-.327.102-.225.169-.459.036-.098.032-.107.025-.082.107-.355.124-.516.996.138-.025.12-.029.122-.027.102-.005.02M-38-44l.2 1.197 1.672 10.035 1.795 10.77L-34-20h-26l2.128-12.768 1.672-10.035L-56-44l1.775-1.183 5.745-3.831h.001L-47-50l9 6m-12.183 2.012-.002.004-.06.141-.062.144-.065.143-.069.143-.073.142h.73l.071-.127.067-.136.065-.142.064-.15.063-.152.002-.006.06-.15h-.73l-.061.146m.166 2.429v-.717h-.497v.717h.497m5.981-.409h-1.9v1.04h2.307v-1.04h-.407m-4.661.409v-.717h-.52v.717h.52m0 1.627v-.702h-.52v.702h.52m-1.817-.702v.702h.497v-.702Zm0 0" transform="matrix(4.29492 0 0 4.26451 261.99 217.49)"/>
    <path fill="red" d="M4.46 131.988c0-.066 3.849-23.058 8.552-51.09l8.55-50.968L60.118 4.406l19.16 12.684c10.54 6.976 19.227 12.746 19.305 12.824.125.125 17.191 101.332 17.191 101.953 0 .219-6.195.246-55.656.246-30.61 0-55.652-.054-55.656-.125m102.974-8.703c-.055-.246-3.34-20.219-7.301-44.379-4.035-24.601-7.29-44.008-7.403-44.11-.195-.183-31.625-21.5-32.296-21.905-.317-.192-1.72.722-16.746 10.914-9.02 6.12-16.399 11.199-16.399 11.289 0 .207-14.36 87.789-14.473 88.273l-.086.371h94.797Zm0 0"/>
    <path fill="red" d="m41.14 52.602-.042-7.258-.856-.692c-.469-.382-.98-.761-1.129-.847-.238-.133-.152-.328.66-1.516 1.766-2.574 3.778-7.281 4.633-10.84.16-.68.313-1.254.336-1.281.074-.09 4.047.508 4.047.61 0 .05-.176.745-.39 1.546l-.391 1.45 2.465-.044 2.465-.046 1.218.867c1.457 1.035 1.492.66-.433 4.449-.711 1.402-1.293 2.566-1.293 2.59 0 .02 1.004.039 2.23.039h2.235v18.226H41.184Zm6.16 1.59v-1.56h-2.316v3.118h2.317Zm5.626 0v-1.56H50.44v3.118h2.485ZM47.3 47.21v-1.64h-2.317v3.284H47.3Zm5.625-.004v-1.652l-1.2.05-1.199.047-.047 1.602-.05 1.601h2.496Zm-3.93-7.18c1.2-2.554 1.262-2.34-.7-2.34H46.62l-.172.497c-.097.273-.465 1.09-.82 1.82-.352.726-.645 1.39-.645 1.473 0 .086.735.152 1.63.152h1.628ZM40.52 71.637a68 68 0 0 1-1.625-.707c-.028-.024.222-.766.554-1.657.606-1.593 1.895-6.375 1.899-7.027.007-.762.195-.789 1.75-.238.812.285 1.543.582 1.62.656.391.348-1.96 9.488-2.468 9.606-.086.02-.867-.266-1.73-.633m5.398-4.184c-.059-2.238-.152-4.258-.203-4.492l-.098-.43 1.547-.172c.848-.093 1.555-.16 1.566-.144.07.07.395 4.27.493 6.367l.113 2.406-.48.098c-.52.105-2.567.426-2.727.43-.055 0-.149-1.829-.211-4.063m5.285 2.707c-.039-.203-.2-1.18-.355-2.176a52 52 0 0 0-.735-3.664c-.316-1.285-.398-1.879-.27-1.918.563-.18 2.637-.578 2.692-.52.254.25 1.711 6.759 1.711 7.638 0 .257-.254.378-1.398.664-.77.191-1.438.347-1.485.347s-.12-.168-.16-.37m0 0"/>
    <path fill="red" d="M64.281 70.945c-.328-1.39-.922-3.043-1.09-3.043-.062 0-.308.407-.554.903l-.446.902-1.636-1.066c-.903-.586-1.746-1.067-1.88-1.067-.132 0-.827.258-1.546.57-1.516.653-1.336.793-1.879-1.46a28 28 0 0 0-.984-3.063l-.63-1.594 1.356-.507c.746-.282 1.399-.512 1.45-.512.136 0 1.015 2.183 1.523 3.777.715 2.254.613 2.176 1.285.977.836-1.496 1.992-4.11 2.621-5.922.293-.848.563-1.574.594-1.617.078-.094 3.894.984 4.086 1.156.187.164-.574 2.195-2.074 5.55-.625 1.391-1.133 2.555-1.133 2.587 0 .035.996.058 2.215.058 1.867 0 2.23-.039 2.316-.258.055-.144.098-2.691.098-5.668v-5.402h-7.77v-13.96h19.348v13.96h-6.762l-.05 6.363c-.048 6.121-.063 6.391-.407 7.13-.426.913-1.394 1.667-2.605 2.034-.465.141-1.805.297-2.993.348l-2.148.094Zm10.473-21.68v-2.382H64.668v4.762h10.086Zm-16.371-12.07v-2.3h4.629c2.648 0 4.633-.063 4.633-.149 0-.078-.266-.902-.59-1.824-.32-.922-.563-1.692-.535-1.715.148-.11 4.351-1.207 4.433-1.152.055.03.543 1.133 1.082 2.445l.985 2.387 4.011.004 4.008.004v4.601H58.383Zm0 0"/>
    <path fill="red" d="M77.152 69.34a14 14 0 0 1-.234-.945c-.3-1.364-2.156-6.95-2.89-8.707-.087-.204.292-.383 1.874-.895 1.094-.352 2.016-.61 2.051-.57.309.351 3.254 8.535 3.445 9.574.047.254-.289.422-2.011 1.023-2.407.84-2.145.778-2.235.52m-38.121 49.566c0-.34 1.38-9.867 1.438-9.941.035-.04.71.57 1.504 1.355l1.445 1.426 14.633-14.531V85.148h-4.137l3.07-4.066c1.692-2.234 3.125-4.031 3.188-3.996.062.039 1.473 1.867 3.133 4.066l3.02 3.996h-4.138v12.07l7.32 7.266 7.321 7.27 1.484-1.484 1.489-1.485.695 4.809c.383 2.644.7 4.96.703 5.148.008.336-.054.332-4.914-.363-2.707-.39-5.031-.711-5.164-.711-.137-.004.442-.691 1.281-1.527l1.524-1.52-5.746-5.707c-3.16-3.137-5.805-5.703-5.871-5.703s-.121 1.734-.121 3.855v3.852l4.156.094-3.086 4.082c-1.711 2.261-3.149 4.02-3.227 3.941s-1.48-1.914-3.117-4.082l-2.977-3.941 2.055-.047 2.059-.047v-3.852c0-2.12-.055-3.855-.121-3.855-.07 0-2.711 2.566-5.871 5.703l-5.746 5.707 1.523 1.52c.84.836 1.414 1.523 1.281 1.527-.137.004-2.46.32-5.164.71-3.183.454-4.922.642-4.922.528m0 0"/>
    <path fill="#f9f9f9" d="M13.066 123.328c0-.133 2.754-17.039 6.125-37.566 3.368-20.524 6.614-40.313 7.207-43.969.598-3.656 1.172-6.734 1.278-6.832.41-.395 32.07-21.781 32.347-21.856.192-.05 5.786 3.653 16.48 10.91C91.774 34.38 92.696 35.032 92.81 35.564c.062.312 3.25 19.667 7.078 43.015 3.832 23.348 7.062 43.024 7.183 43.723l.22 1.273H60.175c-41.656 0-47.11-.027-47.11-.246m50.36-8.125c1.773-2.348 3.226-4.305 3.226-4.351s-.968-.086-2.152-.086h-2.148v-7.309l5.664 5.621 5.66 5.625-1.524 1.52-1.527 1.52 5.402.78c2.97.43 5.414.762 5.434.739.05-.059-1.457-10.54-1.527-10.625-.036-.04-.73.59-1.547 1.394l-1.485 1.469-7.277-7.223-7.273-7.222V85.32l2.16-.047 2.16-.043-3.258-4.316c-1.793-2.375-3.285-4.289-3.32-4.254a573 573 0 0 0-3.274 4.313l-3.215 4.257 2.141.043 2.14.047v11.9l-7.195 7.14-7.19 7.14-1.488-1.473c-.907-.894-1.543-1.406-1.63-1.308-.167.18-1.628 10.363-1.507 10.484.086.082 10.605-1.371 10.734-1.484.04-.04-.613-.75-1.449-1.582l-1.52-1.516 5.626-5.582 5.62-5.582v7.309h-2.152c-1.18 0-2.148.039-2.148.086 0 .12 6.437 8.617 6.531 8.617.043 0 1.531-1.922 3.309-4.266M42.8 71.641c.75-2.016 1.558-5.098 2.074-7.868l.23-1.261-1.683-.586c-.926-.324-1.766-.59-1.867-.59-.102 0-.27.426-.375.945-.559 2.758-1.614 6.36-2.383 8.13-.254.581-.25.628.023.73.16.058.965.386 1.782.73.82.34 1.578.625 1.683.625.11.004.34-.383.516-.855m27.219.226c1.293-.453 2.054-1.058 2.48-1.976.34-.723.355-1.028.402-7.118l.051-6.363h6.766V42.117l-19.766.086-.043 7.102-.043 7.105h7.942v5.238c0 2.883-.043 5.36-.102 5.504-.082.215-.426.258-2.066.258-1.082 0-1.965-.062-1.965-.14s.36-.91.8-1.848c.868-1.848 2.567-6.055 2.477-6.14-.176-.169-4.527-1.368-4.613-1.27-.055.066-.344.824-.64 1.68-.579 1.675-2.106 5.144-2.673 6.066l-.343.562-.559-1.699c-.898-2.754-1.441-3.96-1.727-3.848-.136.055-.867.329-1.625.606-1.062.387-1.359.562-1.296.762.046.144.351.953.683 1.8.328.844.79 2.286 1.024 3.204.238.914.453 1.69.488 1.726.031.035.726-.21 1.539-.55l1.484-.618.88.527c.48.293 1.26.817 1.734 1.168l.859.637.45-.82c.245-.45.5-.82.566-.82.152 0 .945 2.386 1.09 3.285l.113.703 2.332-.086c1.758-.067 2.566-.172 3.3-.43m-22.555-.355a49 49 0 0 0 1.555-.262l.48-.098-.11-2.652c-.1-2.383-.413-6.36-.511-6.469-.02-.023-.8.047-1.734.157l-1.7.199.102.664c.055.367.148 2.457.207 4.648.098 3.489.144 3.98.375 3.98.144 0 .746-.077 1.336-.167m6.95-2.028c-.005-.609-1.005-5.523-1.403-6.875-.164-.57-.367-.945-.508-.945-.39 0-2.797.535-2.934.652-.07.063.09 1.004.36 2.098.418 1.695.64 2.895 1.101 5.89l.082.516 1.649-.41c1.652-.414 1.652-.414 1.652-.926m24.929-.437c1.07-.363 2.039-.719 2.156-.793.168-.102.09-.54-.36-2.004-1.14-3.734-3.003-8.426-3.304-8.312a226 226 0 0 1-2.14.703c-1.731.566-1.946.675-1.876.968.043.18.52 1.551 1.063 3.04.805 2.222 1.344 3.956 2.12 6.855.083.297.192.273 2.34-.457M57.059 50.742v-9.277h-2.164c-1.192 0-2.137-.055-2.11-.125.031-.067.63-1.266 1.328-2.668.7-1.399 1.317-2.73 1.371-2.953.09-.367-.039-.516-1.172-1.317l-1.269-.902-2.375.059c-1.305.035-2.375.015-2.375-.043 0-.055.148-.637.332-1.286.504-1.804.605-1.675-1.613-1.988-1.07-.148-2.059-.273-2.203-.273-.188 0-.344.355-.559 1.273-.855 3.637-2.941 8.488-4.773 11.113l-.91 1.305.687.48c.379.27.93.712 1.226.989l.536.504V60.02h16.043Zm24.148-13.547V34.73h-8.031l-.989-2.398c-.542-1.32-1.066-2.43-1.167-2.469-.098-.039-1.215.223-2.48.578-1.599.454-2.286.72-2.25.872.038.171.67 1.94 1.147 3.214.06.16-.921.203-4.574.203h-4.648v4.93h22.992Zm0 0"/>
    <path fill="#f9f9f9" d="M45.879 39.945c.39-.836.754-1.648.812-1.804.086-.246.32-.29 1.516-.29.773 0 1.41.067 1.41.149 0 .203-1.066 2.668-1.347 3.113-.2.317-.368.352-1.66.352h-1.438Zm-.727 7.348v-1.395h1.985v2.793h-1.985Zm5.621 0v-1.395h1.985v2.793h-1.985Zm-5.621 6.898v-1.394h1.985v2.789h-1.985Zm5.621 0v-1.394h1.985v2.789h-1.985Zm14.059-4.843V47.21h9.758v4.27h-9.758Zm0 0"/>
</svg>
