<svg xmlns="http://www.w3.org/2000/svg" width="120" height="120" viewBox="0 0 120 136">
    <path fill="none" stroke="red" stroke-width=".004" d="m-42.05-32.95-.026.182-.092.643-.16 1.125-.076.525-.525-.525-.182-.182-.182.182-3.207 3.208V-25h1l-1 1.333-.5.667-.5-.667-1-1.333h1v-2.792L-50.707-31l-.182-.182-.182.182-.525.525-.075-.525-.161-1.125-.092-.643-.026-.182.824.118.449.064 1.202.172-.707.707.89.889 1.792 1.792V-31h-1l1-1.333.326-.435L-47-33l.174.232.326.435 1 1.333h-1v1.792L-44.707-31l.89-.889-.708-.707 1.202-.172.449-.064.824-.118m.05-9.353-.001.085-.001.116-.003.127-.004.12-.007.09-.012.57-.005.235-.03 1.398-.053 1.722-.05.976-.017.322-.091.933-.122.623-.161.373-.126.168-.13.13-.135.098-.06.03-.084.041-.157.05-.172.038-.182.031-.207.018-.226.009h-.24l-.253-.005-.163-.004-.048-.002h-.032l-.015-.001-.018-.187-.037-.208-.056-.218-.064-.191-.009-.027-.003-.005-.082-.193-.004-.009-.103-.187.107.007.142.009.234.01.214.007.19.004h.29l.082-.002.072-.01.066-.021.06-.032.057-.047.056-.064.113-.27.035-.194.056-.31.042-.459.024-.255.006-.06.058-1.077.048-1.412.035-1.547.006-.235h-2.637l-.099.19-.025.045-.077.138-.102.177-.103.172-.104.166-.102.16h2.574v3.538h-1.93v.578h-1.005v-3.715l-.13-.124-.157-.143-.037-.033-.133-.117-.175-.145-.168-.129-.15-.103.342-.42.022-.028.262-.406.073-.113.302-.575.265-.617.036-.104.19-.54.18-.657 1.002.23.207.047-.068.235-.071.235-.068.214-.006.02-.073.216-.004.014-.081.228-.085.226H-42v.032m-5.801 2.958h-.996v.678h1.224v.079l-.002.08-.003.09-.004.086-.007.074-.01.37-.008.262-.014.517-.01.245-.027.663-.024.36-.023.334-.063.506-.044.185-.038.16-.108.212-.078.108-.085.084-.093.064-.101.046-.111.033-.12.02-.123.02-.138.014-.15.01-.16.004h-.194l-.138-.002-.004-.046-.008-.107-.025-.164-.039-.167-.049-.164-.048-.125-.011-.029-.055-.113-.004-.01-.003-.004-.005-.011.133.013.123.009.112.005.098.003.082.001h.12l.05-.006.046-.012.043-.02.04-.032.04-.046.029-.067.027-.095.024-.129.023-.166.023-.207.01-.108.013-.145-.38.137-.005.002-.05-.204-.053-.195-.009-.033-.07-.241-.08-.245-.035-.1-.048-.139-.086-.223.328-.113.12-.041.07.168.07.178.062.17.005.013.065.184.062.179.055.166.002.006.006-.181.006-.197.006-.17.002-.04.008-.227.007-.24.005-.255h-2.842v-5.966h3.768v1.033h-1.122v.709h.965v.94h-.965v.64h.996v.925m-2.339 2.219.518-.084.069.29.012.056.053.249.059.305.05.298.026.172.016.107.029.249-.527.107-.006.001-.03-.255-.03-.21-.011-.076-.05-.305-.055-.31-.06-.307-.005-.025-.058-.262m-.65.078.533-.039.017.223.008.095.02.338.018.344.01.247.003.091.005.227.002.091.003.286h-.005l-.535.067-.01.002h-.007l.004-.29-.003-.322-.004-.152-.005-.19-.015-.349-.018-.344-.01-.141-.012-.184m-.119.009-.02.175-.023.196-.052.41-.062.418-.07.41-.063.307-.015.073-.061.234-.025.095-.277-.095-.309-.106-.039-.012-.032-.011-.024-.009-.018-.006.099-.333.09-.377.082-.405.071-.412.055-.377.004-.026.046-.374.11.037.243.081.291.098v.009m-3.709-5.733L-56-34.292l-.248 1.524-.288 1.768-.978 6-.49 3.002h22.007l-.49-3.002-.977-6-.288-1.768-.248-1.523-1.382-8.48v-.032h-.007L-42-44.587l-5-3.416-5 3.416-2.61 1.784h-.008v.031M-38-44l.2 1.197 1.672 10.035 1.795 10.77L-34-20h-26l2.128-12.768 1.672-10.035L-56-44l1.775-1.183 5.745-3.831h.001L-47-50l9 6m-11.763 5.333v-.678h-.675v.678h.675m0-3.892h-.675v.709h.675v-.71m4.922 3.454h-.935v1.456h.935v-1.456m-5.597-1.164h.675v-.64h-.675Zm0 0" transform="matrix(4.29492 0 0 4.26451 261.99 217.49)"/>
    <path fill="red" d="M4.46 131.988c0-.066 3.849-23.058 8.552-51.09l8.55-50.968L60.118 4.406l19.16 12.684c10.54 6.976 19.227 12.746 19.305 12.824.125.125 17.191 101.332 17.191 101.953 0 .219-6.195.246-55.656.246-30.61 0-55.652-.054-55.656-.125m102.974-8.703c-.055-.246-3.34-20.219-7.301-44.379-4.024-24.515-7.293-44.008-7.403-44.113-.19-.176-31.613-21.488-32.296-21.902-.317-.192-1.711.714-16.746 10.918-9.02 6.117-16.399 11.195-16.399 11.285 0 .207-14.36 87.789-14.473 88.273l-.086.371h94.797Zm0 0"/>
    <path fill="red" d="M49.617 71.637c0-.473-.406-2.063-.77-2.996-.062-.164.223-.192 1.31-.125 1.597.101 2.027-.051 2.35-.832.235-.555.65-3.547.513-3.68-.043-.047-.387.039-.762.187-.371.149-.738.23-.813.188-.078-.047-.191-.363-.254-.703-.101-.531-1.171-3.887-1.484-4.653-.078-.195.063-.308.582-.464.375-.11.773-.239.883-.278.125-.05.492.723 1.016 2.14.449 1.224.874 2.224.945 2.224.066.003.12-1.172.12-2.61s.048-2.73.102-2.875c.09-.234-.507-.258-6.035-.258h-6.14V31.613h15.879v4.27h-4.797v3.281h4.136v3.777h-4.136v2.957h4.3v3.778h-4.3v2.957h5.328l-.11 3.324c-.359 11.176-.703 13.711-2.042 15.129-.731.773-1.407.965-3.711 1.05l-2.11.083Zm-1.324-20.485v-1.476h-2.977v2.957h2.977Zm0-6.73v-1.48h-2.977v2.956h2.977Zm0-6.899v-1.64h-2.977v3.281h2.977Zm0 0"/>
    <path fill="red" d="M40.05 68.773c-1.07-.363-1.206-.457-1.132-.765.043-.192.273-1.164.508-2.156s.582-2.84.773-4.106.38-2.46.418-2.656l.07-.36 1.239.415c1.437.48 1.36.246.992 3.003-.535 4.028-1.164 7.075-1.461 7.055-.105-.004-.738-.2-1.406-.43m4.105-3.515c0-1.39-.047-3.242-.105-4.113l-.106-1.586 1.04-.055c.597-.035 1.058.012 1.09.105.081.239.425 7.828.362 7.895-.03.031-.558.105-1.167.168l-1.11.113Zm3.66-.215a76 76 0 0 0-.617-3.602c-.226-1.164-.386-2.136-.355-2.168.031-.03.48-.125.996-.203.805-.125.957-.11 1.027.114.309.988 1.32 6.726 1.207 6.843-.027.024-.5.149-1.054.278l-1.004.23Zm21.813 6.773c0-.687-.567-2.746-1-3.636-.18-.368-.324-.688-.324-.72 0-.026 1.285-.05 2.86-.05 3.241 0 3.374-.039 3.897-1.215.786-1.761 1.31-9.28 1.555-22.226l.04-2.176H65.202l-1.3 2.176a126 126 0 0 0-1.36 2.3c-.027.067 2.445.122 5.5.122h5.555v14.945h-8.27v2.46h-4.133V47.91l-1.199-1.055a39 39 0 0 0-2.758-2.218c-.035-.028.27-.473.676-.996 1.656-2.11 2.969-4.356 4.098-7.008.715-1.688 1.687-4.516 1.988-5.801.113-.473.219-.863.238-.863.153 0 4.922 1.125 4.969 1.172.05.054-1.5 4.847-1.812 5.601-.11.274.289.29 7.02.29h7.132l-.09 2.995c-.05 1.649-.168 5.918-.262 9.485-.418 16.129-.988 19.89-3.277 21.633-1.156.875-2.063 1.07-5.356 1.152l-2.933.074Zm-.164-17.953V50.66h-4.137v6.406h4.137Zm-12.457 61.211-3.07-4.062 2.058-.047 2.055-.047V98.855l-7.235-7.183c-3.98-3.95-7.312-7.184-7.398-7.184-.09 0-.797.63-1.574 1.399L40.43 87.28l-.715-5.02c-.395-2.757-.684-5.05-.645-5.09.07-.07 9.434 1.2 9.875 1.345.16.05-.23.543-1.199 1.507l-1.434 1.434 5.868 5.824 5.87 5.828v-7.96h-4.136l3.059-4.024c1.687-2.215 3.105-4.031 3.16-4.035.05-.004 1.465 1.805 3.14 4.023l3.051 4.035h-4.136v7.961l5.867-5.828 5.87-5.824-1.433-1.434c-.969-.964-1.36-1.457-1.199-1.507.477-.157 9.805-1.414 9.887-1.332.043.043-.246 2.332-.649 5.09l-.722 5.007-1.414-1.394c-.778-.77-1.485-1.399-1.575-1.399s-3.422 3.235-7.398 7.188l-7.234 7.183v12.059l4.156.094-3.074 4.062c-1.688 2.235-3.098 4.067-3.133 4.067s-1.442-1.832-3.13-4.067m0 0"/>
    <path fill="#f9f9f9" d="M13.066 123.328c0-.133 2.754-17.039 6.125-37.566 3.368-20.524 6.614-40.313 7.207-43.969.598-3.656 1.172-6.734 1.278-6.832.41-.395 32.07-21.781 32.347-21.856.192-.05 5.786 3.653 16.48 10.91C91.774 34.38 92.696 35.032 92.81 35.564c.062.312 3.25 19.667 7.078 43.015 3.832 23.348 7.062 43.024 7.183 43.723l.22 1.273H60.175c-41.656 0-47.11-.027-47.11-.246m50.36-8.125c1.773-2.348 3.226-4.305 3.226-4.351s-.968-.086-2.152-.086h-2.148V99.02l14.476-14.368 1.477 1.473c.812.813 1.52 1.434 1.57 1.383.05-.047.43-2.445.844-5.328.68-4.703.73-5.243.48-5.243-.273 0-8.984 1.215-10.066 1.403l-.563.097 1.551 1.551 1.555 1.547-5.66 5.625-5.664 5.621v-7.46l2.16-.048 2.16-.043-3.258-4.316c-1.793-2.375-3.285-4.289-3.32-4.254a573 573 0 0 0-3.274 4.313l-3.215 4.257 2.141.043 2.14.047v7.297l-5.62-5.582-5.625-5.578 1.507-1.504c1.504-1.5 1.508-1.504 1.036-1.598-1.532-.308-10.188-1.44-10.282-1.347-.101.101 1.18 9.555 1.403 10.336.07.25.36.035 1.597-1.192l1.516-1.496 14.469 14.367v11.743h-2.153c-1.18 0-2.148.039-2.148.086 0 .12 6.437 8.617 6.531 8.617.043 0 1.531-1.922 3.309-4.266m12.453-42.95c1.312-.308 1.855-.585 2.617-1.343 1.93-1.914 2.469-5.855 2.867-20.906.09-3.477.207-7.856.262-9.73l.094-3.407h-7.035c-4.403 0-7.04-.058-7.04-.16 0-.086.145-.52.32-.965.446-1.117 1.516-4.66 1.434-4.742-.082-.078-4.87-1.195-5.136-1.195-.106 0-.293.386-.41.863-1.168 4.633-3.57 9.695-6.09 12.824-.5.617-.84 1.176-.762 1.238.078.067.438.336.805.602.363.262 1.238.984 1.941 1.598l1.281 1.12v15.91h4.465V61.5h8.27V46.23l-10.875-.085.93-1.583c.511-.874 1.058-1.816 1.214-2.097l.281-.508H76.46l-.11 5.234c-.234 11.16-.687 17.055-1.449 18.856-.5 1.172-.71 1.234-4.027 1.172-2.164-.04-2.902-.004-2.902.14 0 .11.07.239.152.29.273.167 1.18 2.913 1.285 3.89l.102.961h2.664c1.77-.004 3.011-.086 3.703-.246m-21.875-.171c2.8-.723 3.242-2.648 3.644-15.96l.11-3.653H52.43v-2.63h4.297v-4.105H52.43v-2.629h4.133V39H52.43v-2.953h4.96v-4.598H41.017v25.617H53.09l-.016 5.172-.668-1.804a158 158 0 0 1-.754-2.094c-.05-.16-.18-.29-.289-.29-.195 0-1.77.493-1.89.59-.032.028.285 1.106.699 2.4.418 1.292.84 2.66.933 3.042l.176.691.824-.32.82-.324-.093.7c-.355 2.624-.43 2.91-.875 3.257-.402.316-.566.336-1.992.234-1.457-.105-1.543-.093-1.426.188.477 1.152.793 2.226.867 2.969l.09.859h1.762c1.058 0 2.156-.102 2.746-.254M42.066 68.23c.325-1.328.852-4.507 1.094-6.566.102-.86.215-1.71.254-1.898.063-.293-.105-.395-1.348-.797-1.546-.5-1.703-.461-1.71.422-.004.797-.852 5.449-1.325 7.28-.258.993-.457 1.817-.441 1.825.25.168 3.035.98 3.11.906.058-.054.222-.582.366-1.172m4.551-.578c.11-.105-.324-8.203-.441-8.304-.063-.055-.63-.067-1.258-.024l-1.14.082.109 1.977a98 98 0 0 1 .105 4.3v2.325l1.281-.149c.707-.082 1.313-.175 1.344-.207m2.711-1.226c.746-.149.95-.254.95-.492 0-.786-1.176-6.973-1.36-7.157-.035-.03-.566.028-1.184.13l-1.125.183.075.508c.043.277.308 1.82.593 3.425.285 1.606.52 3.106.52 3.336 0 .32.066.399.289.336.16-.047.719-.168 1.242-.27m0 0"/>
    <path fill="#f9f9f9" d="M45.48 37.523v-1.476h2.649V39H45.48Zm0 6.899v-1.317h2.649v2.63H45.48Zm0 6.73V49.84h2.649v2.629H45.48Zm20.012 2.711v-3.039h3.805v6.078h-3.805Zm0 0"/>
</svg>
