<svg xmlns="http://www.w3.org/2000/svg" width="120" height="120" viewBox="0 0 120 136">
    <path fill="none" stroke="red" stroke-width=".004" d="m-44.525-37.404.525-.525.182-.182-.182-.182-3-3-3 3-.182.182.182.182.525.525-.525.075-1.125.161-.825.118.118-.825.236-1.65.707.707.889-.889 1.793-1.793H-50v1l-2-1.5.666-.5 1.334-1v1h1.793L-50-44.293l-.889-.889-.707.707-.236-1.65-.118-.825.825.118 1.125.161.525.075-.525.525-.182.182.182.182 3 3 3-3 .182-.182-.182-.182-.525-.525.525-.075 1.125-.161.825-.118-.118.825-.236 1.65-.707-.707-.89.889-1.792 1.793H-44v-1l1.333 1 .667.5-2 1.5v-1h-1.793L-44-39.707l.89.889.706-.707.236 1.65.118.825-.825-.118-1.125-.16-.525-.076m1.733 1.481.012.21.03.21.044.21.062.206.079.2.036.07.053.105.004.01.003.005-.225-.016-.205-.01-.11-.003-.075-.002h-.163l-.142.006-.12.01-.065.014-.06.02-.054.026-.048.034-.042.04-.037.051-.097.197-.077.303-.035.235-.024.16-.042.47-.02.394-.007.135-.013.525v.034l-.001.014.219-.271.223-.262.159-.175.068-.075.23-.234.224-.209.008-.007.196-.164.016-.014.012-.01.007-.006.086.168.107.186.122.194.116.17.014.022.013.017.094.13.023.03.05.063.048.059.027.033-.366.264-.366.32-.356.368-.334.404-.24.339-.063.09-.26.443.029.196.033.193.037.192.042.19.046.19.032.117.006.019.007.026.003.014.004.012.182-.195.185-.183.185-.174.186-.164.069-.06.113-.095.054-.044.06-.049.031-.025.02-.016.01-.01.005-.003.09.179.109.198.12.205.13.201.133.188.126.154.007.01-.211.142-.144.107-.071.053-.217.174-.219.186-.146.132-.071.064-.213.205.132.203.145.201.007.009.148.19.05.058.118.14.179.197.19.197-.685.513-.2.15-.168-.16-.158-.159-.149-.16-.124-.145-.016-.019-.131-.163-.123-.165-.113.142-.036.047-.073.096-.045.062-.058.08-.097.141-.089.14-.08.14-.388-.244-.567-.358.13-.211.083-.128.057-.088.031-.045.12-.173.146-.204.012-.017.165-.219.123-.156.048-.062-.231-.597-.013-.047-.104-.375-.01-.037-.041-.148-.115-.615-.07-.626-.015-.247-.022-.39-.008-.634-.001-.015v-.024l-.009.004-.038.02-.03.015-.355.18-.425.239-.417.258-.406.276-.086.064-.01.007-.298.22-.211.17-.17.136h2.262v1.11h-2.092v.91h1.569v1.11h-1.569v1.056h-1.223v-1.056h-1.34v-.463l-.12.194-.082.136-.035.058-.113.195-.108.196-.103.197-.1.196-.002-.001-.351-.12-.8-.272.216-.412.02-.037.211-.367.244-.395.109-.164.148-.222.234-.327.034-.048.276-.364h-1.484v-1.11h2.46l.133-.141.135-.135.112-.109.025-.024.126-.117.014-.013.142-.128.145-.127h-2.746V-36h1.254v.401h2.215v-.4h1.192v3.592l.138-.084.136-.083.136-.08.137-.08.062-.034.078-.043.142-.073.002-.001.076.108.007.009.085.118.105.141.113.146.116.147.09.111.024.03.02-.684v-.01l.044-.648.073-.614.108-.55.037-.115.039-.12.074-.232.197-.366.079-.105.092-.092.102-.08.113-.063.122-.049.13-.035.197-.043.206-.029.215-.017.223-.006.233.001.026.001h.03l.08.005.056.001.033.001.017.001M-34-50l-2.872 17.232-.928 5.57L-38-26l-7.52 5.013-.001.001L-47-20l-9-6-.2-1.197-.928-5.571L-60-50h26m-20.618 22.772v.03h.007l2.61 1.785L-47-21.997l5-3.416.859-.587 1.752-1.197h.007v-.031l.903-5.54.479-2.941 2.003-12.293h-22.006L-56-35.709l.479 2.94.903 5.54m5.252-1.409-.124.152-.12.155-.113.157h.877v-.91h-.123l-.137.147-.046.052-.086.097-.1.116-.028.034m.214-5.936h-1.04v.795h2.215v-.795h-1.175m0 1.797h-1.04v.755h2.215v-.755Zm0 0" transform="matrix(4.29492 0 0 4.26451 261.99 217.49)"/>
    <path fill="red" d="m40.84 119.297-19.278-12.762-8.55-50.969C8.309 27.536 4.46 4.543 4.46 4.476c.004-.07 25.047-.124 55.656-.124 49.461 0 55.656.027 55.656.246 0 .136-3.835 23.082-8.52 50.988-4.683 27.91-8.515 50.781-8.515 50.824 0 .047-8.691 5.836-19.312 12.867L60.117 132.06Zm35.648-6.57c8.91-6.051 16.258-11.055 16.32-11.122.067-.066 3.36-19.886 7.325-44.046 3.96-24.16 7.246-44.133 7.3-44.38l.094-.452H12.73l.086.37c.047.204 3.325 20.137 7.286 44.298 3.957 24.16 7.214 43.988 7.238 44.062.05.176 32.562 22.262 32.777 22.266.094.004 7.457-4.946 16.371-10.996m0 0"/>
    <path fill="red" d="M52.262 104.277v-2.215h-5.774l-.047-1.027-.05-1.027-.844 1.394c-.465.77-1.09 1.86-1.387 2.426-.3.563-.625 1.024-.726 1.024-.282 0-4.301-1.336-4.461-1.48-.278-.255 2.765-5.286 5.039-8.325.625-.84 1.14-1.563 1.14-1.61 0-.042-1.453-.082-3.226-.082h-3.227v-4.597l5.336-.004 5.332-.008 1.79-1.719 1.788-1.715H41.18V64.126h5.129v1.645h9.757v-1.645h4.957l.043 7.617.043 7.613 1.72-.992 1.714-.996.352.48c.847 1.16 2.285 2.887 2.351 2.825.04-.04.145-1.43.238-3.094.344-6.086 1.207-9.656 2.786-11.523.918-1.082 2.824-1.63 5.8-1.66l1.895-.024.117.496c.063.27.203.969.313 1.555.105.586.367 1.488.578 2l.382.937-2.48.051-2.477.055-.476.527c-.524.582-.742 1.246-1.094 3.332-.281 1.656-.504 7.715-.277 7.469.086-.09.683-.793 1.332-1.566 1.199-1.426 4.062-4.262 4.297-4.258.074 0 .39.449.71 1 .317.55.934 1.492 1.364 2.09.433.597.785 1.132.785 1.191s-.316.313-.7.566c-2.644 1.735-7.57 7.746-7.57 9.235 0 .55.626 3.695.852 4.285.145.375.192.348 1.512-.902 1.515-1.442 3.16-2.852 3.316-2.852.059 0 .262.313.457.695.196.387.774 1.328 1.285 2.094.512.77.985 1.48 1.051 1.582.074.113-.465.629-1.406 1.34-.84.637-2.07 1.664-2.738 2.281l-1.215 1.121.82 1.149c.45.633 1.379 1.785 2.067 2.562l1.246 1.41-3.563 2.649-1.316-1.34c-.727-.738-1.57-1.664-1.875-2.062l-.559-.723-.586.676c-.324.375-.883 1.156-1.25 1.746-.363.586-.715 1.066-.781 1.07s-.973-.52-2.016-1.164l-1.89-1.168.605-.969c.336-.535 1.219-1.785 1.965-2.781l1.355-1.809-.296-.695c-1.407-3.254-2.188-7.348-2.426-12.715-.063-1.469-.137-2.668-.164-2.668-.106 0-3.676 1.95-4.54 2.48a54 54 0 0 0-4.78 3.329l-1.391 1.086h9.812v4.597h-8.93v4.106h6.782v4.602H57.39v4.433h-5.13Zm0-8.867c0-1.906-.02-2.055-.313-2.055-.406 0-2.8 2.63-3.554 3.903-.094.16.324.203 1.875.203h1.992Zm3.804-16.094v-1.722H46.31v3.449h9.757Zm0-7.554v-1.723H46.31v3.45h9.757ZM39.04 59.098c0-.168.315-2.473.698-5.114l.7-4.808 1.402 1.398c.77.77 1.476 1.403 1.57 1.403s2.778-2.59 5.957-5.75l5.79-5.747h-8.02v1.97c0 1.085-.04 1.972-.086 1.972-.047 0-1.914-1.363-4.149-3.027l-4.062-3.028 4.11-3.062 4.105-3.059.043 2.063.047 2.066h8.011l-5.87-5.828-5.868-5.828-1.445 1.426c-.793.785-1.47 1.394-1.504 1.351-.059-.07-1.438-9.598-1.438-9.937 0-.114 1.739.074 4.922.527 2.703.39 5.027.707 5.164.71.133.005-.441.692-1.281 1.528l-1.523 1.52 6.82 6.773c3.754 3.723 6.894 6.774 6.984 6.774s3.235-3.051 6.988-6.774l6.82-6.773-1.523-1.52c-.84-.836-1.418-1.523-1.28-1.527.132-.004 2.456-.32 5.163-.711 3.192-.457 4.922-.64 4.926-.527.004.097-.313 2.414-.7 5.144l-.702 4.969-1.496-1.477-1.493-1.476-5.87 5.828-5.868 5.828h8.008l.047-2.066.047-2.063 4.113 3.063c2.262 1.687 4.047 3.125 3.969 3.191-.079.07-1.95 1.469-4.153 3.11l-4.011 2.98v-4.11h-8.02l5.785 5.747c3.184 3.16 5.863 5.75 5.953 5.75.086 0 .797-.63 1.575-1.399l1.414-1.394.722 5.007c.403 2.754.692 5.047.649 5.09-.082.082-9.41-1.176-9.887-1.332-.16-.05.23-.543 1.195-1.508l1.438-1.433-6.906-6.852-6.903-6.855-6.906 6.86-6.906 6.855 1.406 1.39c.773.762 1.352 1.434 1.281 1.492-.066.055-2.129.38-4.586.72s-4.668.655-4.918.702c-.367.07-.457.024-.449-.222m0 0"/>
    <path fill="#f9f9f9" d="M43.914 112.555c-8.91-6.047-16.254-11.047-16.316-11.114-.149-.16-14.61-88.363-14.504-88.468.047-.047 21.25-.063 47.125-.04l47.043.04-7.235 44.086c-3.98 24.246-7.265 44.164-7.3 44.257-.051.13-29.801 20.43-32.18 21.957l-.43.278Zm13.64-8.114v-2.214h6.782v-4.93h-6.781v-3.774h8.93v-4.93h-4.641c-2.828 0-4.602-.058-4.543-.152.18-.289 3.304-2.539 5.043-3.629 1.62-1.015 4.484-2.62 4.672-2.62.046 0 .132 1.124.195 2.503.23 5.106.824 8.438 2.121 11.903l.504 1.351-1.012 1.328c-1.222 1.606-2.836 3.996-2.836 4.2 0 .152 4.121 2.77 4.2 2.668l.808-1.211c.418-.633.973-1.399 1.23-1.704l.473-.554.688.883c.379.488 1.21 1.394 1.851 2.023l1.16 1.137.555-.399c2.094-1.5 3.25-2.39 3.254-2.504.004-.07-.535-.734-1.2-1.476-.66-.742-1.57-1.86-2.019-2.485l-.812-1.136 1.23-1.137c1.149-1.055 3.426-2.852 4.078-3.215.25-.137.207-.254-.398-1.05-.688-.907-2.36-3.692-2.36-3.934 0-.074-.074-.13-.163-.13-.192 0-2.028 1.556-3.586 3.032-.614.582-1.141 1.035-1.176 1-.176-.176-.895-4.215-.809-4.558.145-.575 2.117-3.461 3.227-4.727 1.355-1.543 2.734-2.863 3.89-3.73a53 53 0 0 0 1.157-.883c.078-.07-.305-.742-.848-1.492-.547-.754-1.234-1.793-1.527-2.313-.29-.52-.586-.945-.657-.945-.257 0-3.18 2.863-4.414 4.324l-1.27 1.5.106-2.707c.106-2.645.414-5.172.79-6.477.1-.355.433-.89.73-1.191l.547-.54h4.976l-.398-.862c-.469-1.02-.906-2.618-.91-3.32 0-.274-.051-.677-.106-.891l-.11-.395-2.163.098c-3.907.176-5.301.719-6.41 2.496-1.38 2.207-1.899 4.836-2.387 12.113-.055.79-.164 1.395-.242 1.348-.082-.051-.641-.754-1.246-1.567l-1.102-1.472-.918.511a57 57 0 0 0-1.676.985l-.754.465-.086-15.094h-5.289v1.644h-9.43v-1.644h-5.456v21.516h11.441l-1.625 1.55-1.629 1.555-5.332.008-5.336.004v4.93h6.317l-.594.777c-1.887 2.488-5.895 8.96-5.676 9.176.04.039 1.18.437 2.535.89 2.106.7 2.488.785 2.63.574.089-.132.683-1.171 1.32-2.308l1.16-2.07.05.832.047.832h5.774v4.433h5.457ZM43.927 58.875c2.539-.36 4.867-.695 5.18-.75l.562-.098-1.512-1.511-1.515-1.508 13.562-13.461 6.734 6.691 6.739 6.688-1.555 1.55-1.55 1.551.562.098c1.082.188 9.793 1.402 10.066 1.402.246 0 .196-.55-.5-5.293-.43-2.914-.789-5.332-.797-5.375-.011-.047-.71.602-1.55 1.434l-1.532 1.516-11.242-11.164h7.348l.094 4.25 4.3-3.204c2.364-1.757 4.313-3.25 4.332-3.312.035-.121-8.414-6.438-8.609-6.438-.059 0-.106.961-.106 2.133v2.137h-7.359l5.66-5.625 5.664-5.621 1.485 1.469c.816.804 1.511 1.433 1.547 1.394.07-.09 1.578-10.566 1.527-10.625-.02-.023-2.465.309-5.438.735l-5.402.777 3.055 3.047-13.555 13.46-6.738-6.687-6.742-6.691 1.52-1.516c.835-.832 1.487-1.543 1.448-1.582-.129-.113-10.648-1.57-10.734-1.484-.121.12 1.34 10.304 1.508 10.484.086.098.722-.414 1.629-1.312l1.488-1.47 5.664 5.622 5.66 5.625h-7.523v-2.137c0-1.172-.04-2.133-.086-2.133-.164 0-8.707 6.43-8.637 6.5.04.04 1.996 1.504 4.356 3.262l4.285 3.192.047-2.125.043-2.125h7.351L43.418 51.809l-1.52-1.504c-1.414-1.399-1.53-1.477-1.613-1.11-.164.742-1.418 9.524-1.418 9.93 0 .23.094.402.223.402.12 0 2.3-.293 4.836-.652m0 0"/>
    <path fill="#f9f9f9" d="M49.11 96.602c.734-.997 2.648-3.079 2.831-3.079.09 0 .157.825.157 1.887v1.887h-3.504Zm-2.637-17.286v-1.558h9.43v3.117h-9.43Zm0-7.554v-1.559h9.43v3.121h-9.43Zm0 0"/>
</svg>
