<svg xmlns="http://www.w3.org/2000/svg" width="120" height="120" viewBox="0 0 120 136">
    <path fill="none" stroke="red" stroke-width=".004" d="m-48.5-45 .25-.334.75-.999.5-.667.5.667.75 1 .25.333h-1v1.856l.125.06.112.076.024.016.123.108.108.123.091.136.072.147.052.154.032.16.01.164v.016l-.01.147-.032.16-.052.155-.072.147-.09.136-.109.123-.123.108-.072.048-.064.043-.125.062V-39h1l-1 1.333-.5.667-.5-.667-.75-1-.25-.333h1v-1.855l-.125-.062-.064-.043-.072-.048-.123-.108-.108-.123-.091-.136-.072-.147-.052-.154-.032-.161-.01-.147V-42l.01-.163.032-.16.052-.155.072-.147.09-.136.109-.123.123-.108.024-.016.112-.075.125-.061V-45h-1m5.398 9.024.145.133.18.145.202.149.207.141.197.125.17.1-.205.367-.304.545-.353 1.008-.105.495-.12.563-.123 1.065-.053 1.027-.012.948V-26h-8.29v-1.33h6.975v-1.59h-5.3l-.251.05-.114-.05-.799-.343.234-.855.038-.107.248-.684.333-.728.38-.67.32-.461.105-.152.245-.293.223-.267-.165-.104-.058-.037-.214-.136-.468-.252-.498-.226-.527-.2-.556-.172-.585-.145.059-.064.093-.101.16-.2.16-.222.153-.231.136-.224.113-.206.634.186.597.214.56.242.183.095.344.177.494.299.432.306.032.023.457-.32.29-.177.191-.117.504-.267.525-.243.546-.22.28-.099.088-.03.085-.03.049-.017.03-.01.021-.008.012-.004.09.2.111.22.13.227.138.22.14.202.093.115.025.03.02.026-.51.147-.493.174-.028.012-.448.188-.457.226-.439.253-.384.256-.035.024.372.458.177.254.168.239.319.527.292.56.266.592.05.13.119.309.072.186h.417l.062-.973.117-1.013.101-.557.083-.46.267-.99.234-.598.13-.33.405-.715.023-.04.015-.026.022-.037.006-.012M-34-50l-2.872 17.232-.928 5.57L-38-26l-7.52 5.013-.001.001L-47-20l-9-6-.2-1.197-.928-5.571L-60-50h26m-20.618 22.772v.03h.007l2.61 1.785L-47-21.997l5-3.416.859-.587 1.752-1.197h.007v-.031l.903-5.54.479-2.941 2.003-12.293h-22.006L-56-35.709l.479 2.94.903 5.54m5.478-3.439-.012.029-.17.414h2.96l-.196-.44-.028-.055-.19-.366-.237-.402-.26-.383-.28-.362-.305-.34-.3.339-.28.36-.26.383-.233.401-.184.37Zm0 0" transform="matrix(4.29492 0 0 4.26451 261.99 217.49)"/>
    <path d="m40.84 119.297-19.278-12.762-8.55-50.969C8.309 27.536 4.46 4.543 4.46 4.476c.004-.07 25.047-.124 55.656-.124 49.461 0 55.656.027 55.656.246 0 .136-3.835 23.082-8.52 50.988-4.683 27.91-8.515 50.781-8.515 50.824 0 .047-8.691 5.836-19.312 12.867L60.117 132.06Zm35.648-6.57c8.91-6.051 16.258-11.055 16.32-11.122.067-.066 3.36-19.886 7.325-44.046 3.96-24.16 7.246-44.133 7.3-44.38l.094-.452H12.73l.086.37c.047.204 3.325 20.137 7.286 44.298 3.957 24.16 7.214 43.988 7.238 44.062.05.176 32.562 22.262 32.777 22.266.094.004 7.457-4.946 16.371-10.996m0 0"/>
    <path d="M40.684 103.785v-2.71H70.62v-7.079l-12.281.024-12.281.02-1.57-.685c-.864-.375-1.587-.699-1.606-.718-.024-.02.172-.813.433-1.762 1.442-5.305 4.192-10.781 7.274-14.484 1.535-1.848 1.492-1.649.484-2.286-3.125-1.968-7.355-3.73-10.8-4.503-.637-.141-1.215-.293-1.286-.332-.07-.043.176-.422.551-.844.746-.84 2.32-3.13 2.652-3.856.246-.543.336-.535 2.961.328 3.696 1.22 6.625 2.614 9.535 4.543l1.82 1.207.977-.675c2.754-1.907 5.504-3.34 9.086-4.743 3.352-1.308 2.946-1.316 3.645.067.664 1.3 1.219 2.2 1.941 3.137.469.609.48.949.031.949-.496 0-3.886 1.234-5.785 2.101-1.863.856-4.351 2.266-5.207 2.954l-.383.308.997 1.242c2.484 3.102 4.484 6.637 6.3 11.13l.633 1.558.918.05c.91.047.918.044 1.02-.472.058-.285.105-.879.105-1.32 0-.438.117-1.926.258-3.305.746-7.324 2.367-13.234 4.832-17.613.508-.903.941-1.668.965-1.696.02-.03.605.395 1.3.942.696.55 1.731 1.273 2.301 1.605l1.032.606-1.043 1.84c-1.89 3.324-3.133 7.535-3.88 13.124-.316 2.38-.355 3.645-.425 13.344l-.078 10.715H40.684Zm22.328-15.097c0-.2-1.543-3.333-2.16-4.383-1.336-2.278-4.012-5.727-4.446-5.727-.25 0-2.226 2.461-3.383 4.215-1.082 1.644-2.617 4.629-2.836 5.516l-.109.449h6.465c3.559 0 6.469-.031 6.469-.07m-6-33.27-3.098-4.102h4.137v-8.132l-.586-.317c-.735-.39-1.602-1.336-2.078-2.258-.446-.863-.61-2.754-.317-3.68.32-1.023 1.301-2.324 2.176-2.882l.805-.52v-7.98l-2.059-.047-2.054-.047 2.976-3.941c1.637-2.168 3.04-4.004 3.117-4.082.078-.078 1.516 1.68 3.227 3.941l3.086 4.082-4.156.094v8.004l.726.426c2.164 1.257 3.05 4.265 1.945 6.586-.468.976-1.484 2.058-2.27 2.414l-.401.183v8.156h4.136l-3 3.985a548 548 0 0 1-3.11 4.101c-.058.067-1.5-1.726-3.202-3.984m0 0"/>
    <path fill="#f9f9f9" d="M43.914 112.555c-8.91-6.047-16.254-11.047-16.316-11.114-.149-.16-14.61-88.363-14.504-88.468.047-.047 21.25-.063 47.125-.04l47.043.04-7.235 44.086c-3.98 24.246-7.265 44.164-7.304 44.257-.047.133-29.72 20.375-32.176 21.957l-.43.278Zm32.375-16.61c.074-9.715.113-10.965.434-13.39.707-5.356 1.984-9.774 3.715-12.828.488-.868.972-1.735 1.074-1.93.172-.328.066-.434-1.426-1.422-.887-.586-1.969-1.379-2.41-1.766-.64-.558-.832-.652-.953-.468-1.676 2.566-3.262 6.289-4.188 9.84-.937 3.605-1.914 10.074-1.914 12.707 0 .394-.047.949-.105 1.23-.098.488-.141.512-.887.512h-.781l-.707-1.766c-1.621-4.055-3.985-8.168-6.344-11.043l-.742-.902 1.351-.867c2.512-1.614 6.48-3.368 9.578-4.227.524-.148.954-.316.954-.383 0-.062-.333-.555-.739-1.09-.406-.539-1.117-1.699-1.582-2.586-.465-.882-.945-1.605-1.066-1.605-.492 0-4.45 1.586-6.785 2.715-1.368.66-3.336 1.761-4.38 2.445-1.038.688-1.917 1.246-1.949 1.246-.03 0-.44-.281-.914-.629-1.441-1.05-3.96-2.472-5.937-3.347-2.043-.91-5.793-2.22-6.738-2.352l-.59-.086-.817 1.402a25 25 0 0 1-1.843 2.672l-1.032 1.274.77.21c5.426 1.509 9.078 3.028 11.941 4.973l.383.258-1.137 1.383c-3.308 4.035-5.918 9.254-7.445 14.895-.25.93-.426 1.714-.39 1.746.035.03.937.43 2.003.882 1.72.73 2.008.809 2.563.684.344-.082 5.707-.148 11.914-.148l11.289-.004v6.73H40.355v5.75h35.852ZM63.512 55.422l3.16-4.188-2.16-.043-2.16-.046v-7.797l.586-.317c.808-.433 1.687-1.441 2.171-2.488.489-1.059.555-2.855.149-3.98-.371-1.032-1.27-2.168-2.149-2.715l-.757-.477V25.7H64.5c1.184 0 2.152-.039 2.152-.086 0-.12-6.441-8.617-6.535-8.617s-6.531 8.496-6.531 8.617c0 .047.969.086 2.148.086h2.153v7.668l-.785.535c-1.547 1.047-2.36 2.578-2.36 4.442 0 1.976 1.031 3.875 2.547 4.683l.598.32v7.798l-2.14.046-2.138.043 3.25 4.309c1.786 2.367 3.305 4.254 3.371 4.187.063-.066 1.54-2.003 3.282-4.308m0 0"/>
    <path fill="#f9f9f9" d="M50.441 88.203c0-.125.524-1.254 1.164-2.504 1.176-2.308 2.551-4.363 4.047-6.054l.828-.934 1.145 1.371c1.79 2.14 3.527 4.922 4.633 7.406l.422.942h-6.117c-5.114 0-6.122-.035-6.122-.227m0 0"/>
</svg>
