<svg xmlns="http://www.w3.org/2000/svg" width="120" height="120" viewBox="0 0 120 136">
    <path fill="none" stroke="red" stroke-width=".004" d="M-48.162-34.026v3.826h-2.199v-3.285h1.434v-.54h.765m-1.411-.839-.237-.01-.232-.002h-.216l-.19.001-.154.002h-.106l-.07.005-.051.014-.036.024-.01.014-.014.023-.012.052-.004.067v7.081h3.28v-8.384h1.07v9.512H-52v-8.232l.01-.262.031-.225.058-.191.085-.161.12-.133.153-.11.191-.08.152-.04.068-.02.251-.039.285-.025.323-.013.097-.001h.05l.1-.002h.114l.025.169.04.196.054.208.066.206.074.192.075.154.002.004.003.006m.098-3.954-.707-.707 2.682-2.682V-45h1v2.793l.012.012.195.195 2.475 2.475-.707.707-1.975-1.975V-39h-1v-1.793l-1.975 1.975m6.703 4.77.028.267.042.298.055.317.064.325.017.073.055.246.078.302-.01.002-.763.227-.085-.305-.082-.322-.034-.15-.04-.175-.065-.316-.051-.297-.037-.264.592-.164.157-.044.033-.008.019-.005.017-.006.01-.002m.567-.465-.23.034-.141.022-.102.016-.258.043-.072.011-.197.033-.28.047-.288.046v2.652h1.41v1.067h-1.41v.778h.812v.465l.086-.086.085-.08.085-.077.085-.074.085-.07.05-.042.016-.013.008-.007.008-.006.004-.003.048.173.068.219.082.246.087.248.074.2.012.03.031.076.031.073.016.04-.397.312-.394.364-.217.23-.164.174-.144.176-.212.261-.217.312-.103.148-.272.476-.045-.02-.877-.398v-.001l.031-.065.031-.064.03-.065.006-.01.027-.053.035-.063.037-.06-.211-.128-.109-.066-.312-.202-.003-.002-.293-.203-.273-.203-.245-.195-.209-.184.344-.69.066-.134.098-.195.007-.015.004-.007v-.003l.038.036.038.038h.001l.042.04.043.04.045.039.047.036v-.968h.914v-.778h-1.277v-1.067h1.277v-2.469l-.01.002-.233.041-.552.1-.482.085-.071-.99.65-.144.455-.097.199-.043.644-.137.623-.132.592-.127.55-.12.177.825.065.296v.006m-2.678.823-.075.265-.074.296-.023.104-.047.211-.009.047-.054.272-.054.31-.042.287-.897-.244h-.002l.099-.32.092-.305.005-.017.095-.315.092-.3.087-.275.082-.244.553.174.15.047.014.005.008.002m-10.637.92v.003l.903 5.54v.03h.007l2.61 1.785L-47-21.997l5-3.416.859-.587 1.752-1.197h.007v-.031l.903-5.54v-.004l.198-1.215.28-1.722 2.004-12.293h-22.006L-56-35.709l.28 1.722.199 1.215M-34.001-50l-2.87 17.232-.93 5.57L-38-26l-7.52 5.013v.001L-47-20l-9-6-.2-1.197-.928-5.571L-60-50h26m-9.643 21.44.096-.112.042-.05h-2.15l.057.05.143.122.215.171.184.137.044.033.236.167.244.165.203.133.015.01.01.007.013.008.006.004.118-.177.124-.172.13-.168.134-.166.136-.162m-4.441.167h-2.356v-1.022h2.356v1.022m-.843-4.13h-.638v1.355h.638Zm0 0" transform="matrix(4.29492 0 0 4.26451 261.99 217.49)"/>
    <path d="m40.84 119.297-19.278-12.762-8.55-50.969C8.309 27.536 4.46 4.543 4.46 4.476c.004-.07 25.047-.124 55.656-.124 49.461 0 55.656.027 55.656.246 0 .136-3.835 23.082-8.52 50.988-4.683 27.91-8.515 50.781-8.515 50.824 0 .047-8.691 5.836-19.312 12.867L60.117 132.06Zm35.648-6.57c8.91-6.051 16.258-11.055 16.32-11.122.067-.066 3.36-19.886 7.325-44.046 3.96-24.16 7.246-44.133 7.3-44.38l.094-.452H12.73l.086.37c.047.204 3.325 20.137 7.286 44.298 3.957 24.16 7.214 43.988 7.238 44.062.05.176 32.562 22.262 32.777 22.266.094.004 7.457-4.946 16.371-10.996m0 0"/>
    <path d="m70.512 105.625-1.844-.844.414-.812c.36-.703.379-.828.16-.95-1.867-1.039-6.726-4.578-6.726-4.898 0-.09.464-1.086 1.03-2.215l1.028-2.05.543.523.543.52v-4.333h3.969v-3.449h-5.457v-4.27h5.457v-5.429c0-5.094-.02-5.426-.29-5.344-.651.192-5.066.914-5.14.836-.094-.09-.406-3.87-.328-3.933.074-.055 15.2-3.25 15.492-3.274.18-.012.367.547.73 2.168.266 1.203.442 2.23.387 2.285s-1.53.328-3.285.606l-3.183.511-.043 5.786-.043 5.789h5.957v4.27H73.93v3.448h3.472v2.164l1.098-1 1.098-.996.773 2.336c.426 1.29.86 2.493.961 2.68.16.3.086.414-.676 1.008-2.898 2.258-5.945 5.765-7.781 8.957-.246.43-.465.773-.484.765-.02-.007-.864-.394-1.88-.855m1.675-6.723c.172-.289.934-1.289 1.692-2.215L75.258 95h-4.719c-2.594 0-4.715.023-4.715.055 0 .191 5.68 4.363 5.961 4.375.047 0 .23-.235.403-.528m0 0"/>
    <path d="M75.855 78.453c-.628-2.598-.933-4.144-.933-4.742 0-.32.164-.422 1.129-.707a27 27 0 0 1 1.636-.438l.512-.101.114.965c.085.77.8 4.5 1.19 6.242.075.316-.062.398-1.323.781-.774.23-1.48.422-1.57.422-.094 0-.434-1.09-.755-2.422m-10.222 2.383-1.766-.484.25-.844c.617-2.086 1.735-5.653 1.903-6.07.101-.254.265-.43.367-.395.097.039.746.234 1.437.437l1.254.368-.445 1.832a64 64 0 0 0-.735 3.472c-.425 2.41-.207 2.25-2.265 1.684M38.738 86.09c.043-17.262.063-18.48.34-19.168.777-1.93 2.266-2.59 6.195-2.746l2.36-.094v.414c0 .516.746 3.11 1.078 3.746l.25.477-2.773.043-2.774.047-.086 31.117h14.227V64.125h4.465v40.398H38.69Zm0 0"/>
    <path d="M45.48 94.262v-2.055h9.926v4.106H45.48Zm.333-12.562v-6.9h6.12v-2.3h3.141v16.094h-9.261Zm6.12 0v-2.958h-2.98v5.91h2.98Zm-3.847-31.329-1.445-1.437 5.707-5.664 5.703-5.66V25.7h4.136v11.91l5.704 5.66 5.703 5.664-1.442 1.437-1.445 1.441-4.262-4.226-4.257-4.23v7.796H58.05v-7.797l-4.262 4.23-4.262 4.227Zm0 0"/>
    <path fill="#f9f9f9" d="M43.914 112.555c-8.91-6.047-16.254-11.047-16.316-11.114-.149-.16-14.61-88.363-14.504-88.468.047-.047 21.25-.063 47.125-.04l47.043.04-7.235 44.086c-3.98 24.246-7.265 44.164-7.304 44.257-.047.133-29.72 20.38-32.176 21.957l-.43.278Zm29.117-6.676c1.739-3.074 4.778-6.61 7.594-8.828.547-.43 1.012-.797 1.035-.817.024-.015-.25-.82-.61-1.785-.359-.96-.78-2.195-.933-2.738-.156-.547-.347-1.031-.433-1.082-.082-.055-.594.285-1.133.754l-.985.847v-1.828h-3.472v-3.12h6.12v-4.598H74.09l.086-11.243 3.144-.511c1.73-.282 3.223-.54 3.32-.578.172-.067-.714-4.602-.945-4.825-.12-.12-15.707 3.164-15.906 3.352-.156.148.043 3.836.219 4.121.094.148.363.156 1.062.04.832-.145.926-.134.832.1-.183.473-2.226 7.106-2.226 7.231 0 .145 3.812 1.207 3.926 1.098.039-.043.222-.914.398-1.938.18-1.02.543-2.719.809-3.777.27-1.055.488-1.95.488-1.988 0-.04-.598-.239-1.332-.446-.73-.207-1.27-.43-1.2-.496.122-.11 2.055-.488 2.505-.488.144 0 .195 1.34.195 5.176v5.172h-5.461v4.597h5.46v3.121h-3.96l-.047 1.985-.047 1.988-.46-.363c-.259-.2-.49-.336-.52-.305-.032.035-.543 1.023-1.14 2.195l-1.087 2.137-.016-34.078h-4.796v35.8H43.496l.043-15.394.04-15.394 2.788-.047c2.567-.043 2.778-.067 2.664-.328-.43-1-1.07-3.098-1.168-3.82l-.113-.856-2.5.09c-4.074.148-5.332.683-6.25 2.664l-.383.816-.043 18.598-.047 18.597h23.66v-6.394l1.61 1.254c1.484 1.156 4.8 3.406 5.234 3.547.117.039.04.363-.215.91-.222.465-.37.871-.332.898.235.164 3.743 1.73 3.907 1.743.109.007.398-.336.64-.766m-17.46-11.617v-2.219H45.315v4.434H55.57Zm-.333-13.715v-8.211h-3.472v2.3h-6.118v14.122h9.59Zm24.559-.66c-.277-.871-.945-4.125-1.176-5.742-.152-1.04-.285-1.907-.3-1.926-.028-.035-3.618.937-3.676.996-.153.148 1.414 7.394 1.69 7.84.04.062.853-.118 1.81-.395 1.41-.41 1.722-.558 1.652-.773M53.793 47.91l4.094-4.062v7.468h4.465v-7.632l4.214 4.183 4.22 4.184 1.57-1.555 1.574-1.555-11.578-11.5V25.535h-4.465v11.906l-5.79 5.746-5.785 5.747 1.524 1.52c.84.835 1.602 1.523 1.691 1.523.094 0 2.012-1.832 4.266-4.067m0 0"/>
    <path fill="#f9f9f9" d="M69.984 97.957c-.941-.644-2.148-1.516-2.683-1.941l-.973-.77 2.055-.047a129 129 0 0 1 4.222 0l2.168.047-1.125 1.402c-.62.77-1.312 1.645-1.539 1.942l-.414.539ZM49.121 81.7v-2.794h2.645v5.582H49.12Zm0 0"/>
</svg>
