<svg xmlns="http://www.w3.org/2000/svg" width="120" height="120" viewBox="0 0 120 136">
    <path fill="none" stroke="red" stroke-width=".004" d="m-21.25-39.518 1.768 1.768h-1.768v-1.768m5.473 4.624-.025-.14-.01-.057-.028-.193-.018-.183-.009-.165 1.037-.15.025-.003.021-.004.013-.002h.01v.162l.011.185.02.198.027.203.034.198.006.029.035.157-.707.092-.35.046-.049-.18-.017-.078-.008-.037-.018-.078m-.596.219-.011.002-.95.159-.08-.168-.015-.034-.041-.1-.02-.046-.065-.185-.058-.182-.048-.175-.038-.159.29-.057.665-.13.039-.007.014-.003.011-.002.024.157.04.176.05.188.06.193.066.191.015.04.04.112.012.03m-2.004-.95.035.15.01.036.039.132.06.177.069.18.058.134.018.04.082.163-.426.076-.474.085-.076-.145-.075-.154-.03-.065-.043-.093-.067-.156-.057-.148-.047-.135-.071-.007-.066-.004-.018-.001-.035-.001-.005-.001-.052-.001-.045-.001h-.04l-.054.002-.048.005-.042.011-.039.016-.038.025-.04.033-.04.06-.038.09-.035.123-.032.159-.004.024-.027.175-.028.242h6.598v3.997h-2.367l-.028.069-.04.107-.04.103-.026.068-.024.066.11.104.061.054.065.055.1.08.037.03.14.102.14.094.128.078-.584.352h.789v-1.186h.916v1.186h1.057l-.797-.245.165-.2.181-.202.009-.009.182-.192.194-.193.19-.18.158-.14.006-.006.007-.006.005-.005.1.084.124.092.136.095.118.08.02.012.13.083.106.063.008.004-.174.13-.09.072-.01.007-.074.06-.169.147-.027.025-.134.125-.15.15-.135.149h.419v1.463h-4.05v-1.463h.561l-.136-.08-.14-.091-.051-.037-.082-.058-.126-.095-.113-.094-.094-.088.175-.113.24-.156.035-.022-.035-.003-.944-.08.06.078.063.075.063.072.035.036.015.017.013.013.062.06.015.014.045.04-.368.191-.304.218-.246.246-.013.018-.146.207-.037.052-.152.312-.115.348h1.184v.842h-1.326l-.014.164-.011.17-.007.16-.001.015-.008.181-.007.185-.007.19h-1.026l.004-.187.007-.183.008-.18v-.02l.009-.156.013-.172.014-.167h-.86l.1.102.108.105.114.105.116.1.1.082.015.013.11.083-.726.467-.05-.034-.118-.077-.17-.122-.163-.13-.152-.13-.135-.125-.112-.117.45-.322h-.845v-.842h2.313l.012-.046.01-.048.013-.047.012-.046.012-.045.012-.044h-.805v-.88l-.003-.098-.012-.068-.025-.043-.04-.024-.06-.01-.081-.002h-.513l-.078.01-.06.038-.045.08-.032.135-.023.203-.008.152-.002.048-.002.023-.003.06-.102-.06-.01-.007-.139-.066-.153-.062-.16-.054-.157-.046-.147-.033.065-.432.096-.324.134-.232.178-.149.228-.079.286-.024h.813l.383.023.284.073.198.132.124.198.014.058.05.213.008.122v.03l.01.168.002.032v.26l.164-.312.195-.286.2-.227.031-.035.105-.091.167-.145.317-.214.348-.18.008-.004.004-.003.008-.004.026.056.03.061.034.063.039.066.043.068.049.069.003-.006.226-.407h-3.33v-2.205h5.69v-.276h-7.096v-.605h7.096v-.298h-6.638v-.066l.002-.066.003-.074.003-.053v-.02l.008-.058.046-.446.035-.247.017-.118.061-.29.072-.227.085-.171.102-.124.098-.076.11-.061.12-.045.126-.032.04-.006.054-.007.035-.005.127-.006.134-.01.162-.005h.185l.202.002.125.005.09.003.144.008.028.002.023.001.012.001.01.001h.006l.008.07.015.08.022.083.027.087.033.087.037.083.57-.126.046-.01.008-.002m5.973-8.851L-12.93-45l-.182-.182-.182.182-.707.707-1.792 1.793H-14v-1l1.333 1 .667.5-2 1.5v-1h-2.5v2.5h1l-1 1.333-.5.667-.5-.667-1-1.333h1v-2.5H-20v1l-2-1.5.666-.5 1.334-1v1h1.792L-20-44.293l-.707-.707-.182-.182-.182.182-.525.525-.075-.525-.161-1.125-.118-.825.824.118 1.651.236-.707.707.89.889 1.792 1.792V-45h-1l1-1.333.5-.667.5.667 1 1.333h-1v1.792L-14.707-45l.89-.889-.708-.707 1.65-.236.825-.118-.118.825-.16 1.125-.076.525M-14.5-37.75l1.768-1.768v1.768H-14.5M-15-39v-1h1.768L-15-38.232V-39m3 3.575-.216.16-.072.06-.145.123-.21.198-.198.203-.177.2-.15.189-.332-.167-.655-.33.165-.196.177-.205.188-.207.196-.202.203-.188.208-.166.73.378.272.141.016.009M-19-39v.768L-20.768-40H-19v1m-8.854-8.086L-26-35.709l.479 2.94.903 5.54v.032h.007l2.61 1.784L-17-21.997l5-3.416.859-.587 1.752-1.197h.007v-.031l.903-5.54L-8-35.71l.699-4.29.245-1.501.162-1 .408-2.5.49-3.002h-22.007l.03.19.119.726M-4-50l-2.872 17.232-.928 5.57L-8-26l-7.52 5.013-.001.001L-17-20l-9-6-.2-1.197-.928-5.571L-30-50h26m-8.079 22.706v.674h-1.902l.028.065.027.064.03.064.028.063.03.06.031.059-.529.119-.561.126-.052-.095-.055-.102-.053-.104-.051-.107-.044-.107-.037-.105h-1.878v-.674h4.988m-1.484-1.21h-2.012v.39h2.012v-.39m-2.821-3.537h-2.806v.291h4.42v-.29h-1.614m0 .773h-2.806v.298h4.42v-.298Zm0 0" transform="matrix(4.29492 0 0 4.26451 133.142 217.49)"/>
    <path fill="red" d="m40.84 119.297-19.278-12.762-8.55-50.969C8.309 27.536 4.46 4.543 4.46 4.476c.004-.07 25.047-.124 55.656-.124 49.461 0 55.656.027 55.656.246 0 .136-3.835 23.082-8.52 50.988-4.683 27.91-8.515 50.781-8.515 50.824 0 .047-8.691 5.836-19.312 12.867L60.117 132.06Zm35.652-6.574c8.914-6.055 16.258-11.059 16.32-11.121s3.356-19.883 7.32-44.043c3.962-24.16 7.247-44.133 7.302-44.38l.093-.452H12.73l.086.37c.047.204 3.325 20.137 7.286 44.298 3.957 24.16 7.214 43.988 7.238 44.062.055.18 32.562 22.262 32.777 22.266.094.004 7.461-4.95 16.375-11m0 0"/>
    <path fill="red" d="m68.563 105.18-.622-1.313h-8.07v-2.629h21.336v2.63h-8.258l.328.76c.18.419.293.802.246.845-.066.066-3.937.992-4.242 1.015-.054.004-.375-.586-.719-1.308m-6.707-8.457v-3.035h2.508l-1.21-.81c-.669-.44-1.383-.98-1.587-1.198l-.367-.39.906-.544c.497-.3.868-.601.825-.672-.043-.07-.953-.18-2.024-.246-1.07-.066-2-.152-2.066-.191-.067-.04.11-.477.387-.969l.511-.895H45.316v-9.195h24.477v-1.476h-30.43V74.8h30.43v-1.477H41.297l.11-1.52c.35-4.984 1.21-6.91 3.347-7.5.945-.257 6.012-.238 6.09.028l.242.863c.309 1.098.324 1.106 1.52.828 1.5-.351 1.59-.335 1.71.278.059.297.36 1.199.672 2.008.309.812.551 1.488.532 1.504-.016.019-.825.175-1.797.351l-1.766.316-.539-1.16a34 34 0 0 1-.82-1.906l-.285-.742-1.028-.05c-.715-.032-1.14.026-1.414.206-.457.297-.848 1.453-1.004 2.984l-.11 1.047h28.329v16.914H64.879l-.711 1.891.539.465c.297.258 1.035.816 1.64 1.246l1.102.777-1.144.7c-.63.382-1.14.73-1.14.765 0 .04.78.07 1.733.07h1.739v-5.093h3.804v5.094l2.356-.008c1.297 0 2.246-.063 2.11-.137s-.864-.313-1.614-.527c-.75-.22-1.363-.485-1.363-.59 0-.106.965-1.168 2.14-2.364 1.989-2.015 2.168-2.156 2.465-1.945.18.13.86.594 1.516 1.04l1.195.804-.723.582c-.398.32-1.32 1.16-2.046 1.86l-1.325 1.277.953.004.95.004v6.074h-17.2Zm13.067 0v-.903h-8.766v1.809h8.766Zm-5.129-11.989v-.738H50.609v1.48h19.184Zm0-3.28v-.743H50.609v1.48h19.184Zm0 0"/>
    <path fill="red" d="m49.328 104.031.09-2.297h-1.883c-1.039 0-1.887.055-1.887.13 0 .144 1.278 1.382 2.118 2.054l.547.437-1.43.926c-1.672 1.082-1.5 1.11-3.524-.554-1.918-1.579-1.843-1.383-.789-2.114.508-.347.922-.691.926-.758 0-.066-.816-.12-1.816-.12h-1.82v-3.45h10.046l.102-.515c.058-.282.105-.579.105-.657s-.781-.144-1.734-.144h-1.73l-.047-2.34-.043-2.34-1.774-.047c-1.715-.043-1.777-.035-2.031.356-.149.218-.309.918-.363 1.554l-.098 1.157-.79-.395c-.433-.219-1.23-.52-1.769-.668l-.976-.27.129-.816c.363-2.297 1.191-3.676 2.425-4.043.856-.254 6.25-.258 7.266-.004.89.223 1.93 1.16 2.086 1.88.055.26.152 1.16.215 1.991l.11 1.516.706-1.187c1.227-2.06 2.653-3.407 5.055-4.782l.77-.437.43.726c.234.403.812 1.145 1.277 1.653.468.507.824.945.789.972-.036.024-.625.387-1.317.809-2.011 1.226-3.242 2.734-4.062 4.984l-.383 1.047h5.121v3.45h-2.793c-3.176 0-2.996-.09-2.996 1.449a28 28 0 0 1-.11 2.039l-.105 1.109h-4.133Zm25.137-33.957c-1.024-.511-1.86-.976-1.86-1.027 0-.195 2.97-3.39 3.778-4.063l.844-.703.707.352c.39.195 1.324.683 2.074 1.09l1.37.734-.46.344c-1.137.86-2.676 2.304-3.434 3.219-.453.55-.902 1-.992.992-.09-.004-1.004-.426-2.027-.938m-8.883-1.047a20 20 0 0 1-.371-2.297l-.094-1.09.477-.093a51 51 0 0 1 1.8-.27 42 42 0 0 0 1.747-.261l.425-.082.207 1.855c.114 1.02.247 2.078.293 2.356l.086.503-1.793.204c-.984.113-1.949.246-2.144.293-.324.078-.383-.024-.633-1.118m-7.336-.015c-.273-.657-.61-1.617-.742-2.137-.246-.926-.242-.945.11-1.027 1.472-.34 3.636-.723 3.741-.657.067.043.176.38.235.75.058.371.32 1.332.582 2.137.262.809.465 1.469.453 1.469-.016 0-.883.148-1.926.328-1.047.18-1.914.324-1.93.328-.015 0-.25-.535-.523-1.191m13.899-13.547c.699-.719 5.757-5.723 6.175-6.106.04-.035.075 1.536.075 3.493v3.558H71.23ZM68.8 50.578v-3.531h7.192l-3.55 3.531c-1.958 1.942-3.575 3.531-3.598 3.531-.024 0-.043-1.59-.043-3.53m0 0"/>
    <path fill="red" d="m57.012 55.418-3.098-4.102h4.137V40.48H47.137v1.97c0 1.085-.04 1.972-.086 1.972-.047 0-1.914-1.363-4.149-3.027l-4.062-3.028 4.11-3.062 4.105-3.059.043 2.063.047 2.066h8.011l-5.87-5.828-5.868-5.828-1.445 1.426c-.793.785-1.47 1.394-1.504 1.351-.059-.07-1.438-9.598-1.438-9.937 0-.114 1.739.074 4.922.527 2.703.39 5.027.707 5.164.71.133.005-.441.692-1.281 1.528l-1.523 1.52 5.746 5.707c3.16 3.137 5.8 5.703 5.87 5.703.067 0 .122-1.734.122-3.856v-3.851l-2.059-.047-2.054-.047 2.976-3.941c1.637-2.168 3.04-4.004 3.117-4.082.078-.078 1.516 1.68 3.227 3.941l3.086 4.082-4.156.094v3.851c0 2.122.054 3.856.12 3.856.067 0 2.712-2.566 5.872-5.703l5.746-5.707-1.524-1.52c-.84-.836-1.418-1.523-1.28-1.527.132-.004 2.456-.32 5.163-.711 3.192-.457 4.922-.64 4.926-.527.004.097-.313 2.414-.7 5.144l-.702 4.969-1.496-1.477-1.493-1.476-5.87 5.828-5.868 5.828h8.008l.047-2.066.047-2.063 4.113 3.063c2.262 1.687 4.047 3.125 3.969 3.191-.079.07-1.95 1.469-4.153 3.11l-4.011 2.98v-4.11H62.187v10.836h4.137l-3 3.985a548 548 0 0 1-3.11 4.101c-.058.067-1.5-1.726-3.202-3.984m0 0"/>
    <path fill="red" d="m47.797 50.578-3.55-3.531h7.19v3.531c0 1.942-.019 3.531-.042 3.531s-1.645-1.59-3.598-3.53m-5.789 2.261v-3.57l3.554 3.527c1.958 1.937 3.56 3.547 3.56 3.57 0 .024-1.602.043-3.56.043h-3.554Zm0 0"/>
    <path fill="#f9f9f9" d="M43.914 112.555c-8.91-6.047-16.254-11.047-16.316-11.114-.149-.16-14.61-88.363-14.504-88.468.047-.047 21.25-.063 47.125-.04l47.043.04-7.235 44.086c-3.98 24.246-7.265 44.164-7.3 44.257-.051.13-29.801 20.43-32.18 21.957l-.43.278Zm27.711-6.39c1.21-.274 2.227-.524 2.262-.56.035-.035-.09-.363-.278-.73-.187-.367-.343-.707-.343-.754 0-.05 1.824-.09 4.054-.09h4.051v-2.957H59.703v2.957h8.074l.621 1.313c.34.722.711 1.316.825 1.316s1.195-.222 2.402-.496m-24.488-.794a64 64 0 0 0 1.472-.95c.036-.03-.152-.222-.414-.421-.265-.203-.89-.758-1.39-1.234l-.91-.864 1.664-.004h1.668l-.075 2.297-.074 2.301h4.461l.106-1.012c.058-.554.105-1.472.105-2.039 0-1.648-.195-1.547 2.996-1.547h2.793V98.12h-4.984l.11-.371c.058-.203.362-.918.675-1.59.7-1.488 2.433-3.265 3.992-4.086.57-.297 1.035-.562 1.035-.586 0-.027-.297-.367-.664-.758-.363-.39-.629-.742-.594-.777.04-.039.868-.016 1.84.05l1.774.118-.942.57c-.918.559-.93.575-.636.899.164.183.812.691 1.437 1.133l1.145.8H61.69v6.403h17.532v-6.403H77.66l.906-.918a26 26 0 0 1 1.938-1.738c.566-.453 1.027-.87 1.023-.93-.004-.062-.582-.48-1.28-.933-.7-.45-1.434-.926-1.63-1.05-.328-.22-.422-.177-1.305.57-1 .851-3.714 3.788-3.714 4.023 0 .078.578.324 1.28.55l1.282.41-3.555.016V88.43H68.47v5.093l-1.446-.003h-1.445l1.113-.665c.618-.367 1.118-.69 1.118-.722 0-.031-.278-.219-.621-.418-.876-.516-2.688-1.996-2.688-2.2 0-.093.121-.488.273-.874l.27-.704H75.25v-17.25l.684.348.68.344.515-.629c.969-1.191 2.402-2.602 3.476-3.422.594-.45 1.082-.855 1.082-.902.004-.047-.984-.594-2.195-1.219-1.488-.766-2.277-1.09-2.433-.992-.88.52-4.532 4.25-4.754 4.847-.028.079.605.473 1.406.88l1.457.738-11.453.007c-6.297.004-11.453-.019-11.453-.05 0-.035.824-.192 1.828-.352 1.183-.191 1.8-.36 1.75-.476-.676-1.555-1.254-3.102-1.348-3.594-.066-.336-.168-.645-.226-.68-.063-.039-.688.063-1.391.227-.703.16-1.316.238-1.36.168-.042-.07-.18-.524-.304-1.004l-.227-.883L48.141 64c-1.575-.023-3.121.031-3.47.121-1.316.352-2.316 1.36-2.683 2.7-.355 1.296-.636 3.152-.746 4.902l-.11 1.765H69.63v1.149H39.195v2.629H69.63v1.148H45.152v9.523l12.32.008-1.042.559c-2.086 1.117-3.555 2.488-4.727 4.422l-.55.91-.114-1.34c-.187-2.238-.82-3.172-2.43-3.574-1.12-.277-7.203-.152-7.832.164-1.086.547-1.746 1.914-2.152 4.45l-.094.589 1.024.281a14 14 0 0 1 1.879.684c.468.222.894.402.937.402.047 0 .129-.523.184-1.164.054-.644.218-1.348.363-1.566.254-.387.324-.399 1.867-.356l1.606.047.093 4.68h1.75c1.528 0 1.735.035 1.649.262-.055.14-.102.363-.102.492 0 .195-.8.234-5.043.234h-5.047v3.777h3.543l-.863.598c-.473.328-.86.645-.86.703 0 .446 3.708 3.371 4.028 3.18.106-.063.824-.516 1.598-1.008m13.707-35.328c1.035-.176 1.914-.356 1.957-.395.039-.039-.156-.777-.434-1.64-.277-.86-.554-1.867-.613-2.235s-.176-.71-.262-.765c-.164-.098-3.984.586-4.281.77-.36.218 1.125 4.59 1.559 4.59.105 0 1.039-.15 2.074-.325m7.625-.012c.867-.101 1.656-.207 1.758-.238.132-.04.12-.367-.032-1.176a29 29 0 0 1-.328-2.496l-.117-1.371-.598.086c-4.488.66-4.32.621-4.246.992.04.195.114.79.168 1.328.055.535.215 1.485.36 2.11l.261 1.136.602-.093a91 91 0 0 1 2.172-.278m-4.957-14.61 3.16-4.187-2.16-.043-2.16-.046v-10.5h10.574l.094 4.25 4.3-3.204c2.364-1.757 4.313-3.25 4.332-3.312.035-.121-8.414-6.438-8.609-6.438-.059 0-.106.961-.106 2.133v2.137h-7.359l5.66-5.625 5.664-5.621 1.485 1.469c.816.804 1.511 1.433 1.547 1.394.07-.09 1.578-10.566 1.527-10.629-.02-.02-2.465.313-5.438.738l-5.398.782 1.527 1.523 1.524 1.52-5.66 5.62-5.664 5.626v-7.309H64.5c1.184 0 2.152-.039 2.152-.086 0-.12-6.441-8.617-6.535-8.617s-6.531 8.496-6.531 8.617c0 .047.969.086 2.148.086h2.153v7.305l-5.621-5.578-5.625-5.582 1.52-1.516c.835-.832 1.487-1.543 1.448-1.582-.129-.113-10.648-1.57-10.734-1.484-.121.12 1.34 10.304 1.508 10.484.086.098.722-.414 1.629-1.312l1.488-1.47 5.664 5.622 5.66 5.625h-7.523v-2.137c0-1.172-.04-2.133-.086-2.133-.164 0-8.707 6.43-8.637 6.5.04.04 1.996 1.504 4.356 3.262l4.285 3.192.047-2.125.043-2.125h10.578v10.5l-2.14.046-2.138.043 3.25 4.309c1.786 2.367 3.305 4.254 3.371 4.187.063-.066 1.54-2.003 3.282-4.308m-13.895 1.11c0-.023-1.75-1.777-3.887-3.898l-3.886-3.86v7.801h3.886c2.137 0 3.887-.02 3.887-.043m28.942-3.816c0-2.125-.02-3.86-.043-3.86-.024 0-1.79 1.735-3.926 3.86l-3.883 3.86h7.852Zm-26.957-1.973v-3.86h-7.856l3.887 3.86c2.137 2.125 3.902 3.86 3.926 3.86.023 0 .043-1.735.043-3.86m21.003 0 3.883-3.86h-7.851v3.86c0 2.125.02 3.86.043 3.86s1.789-1.735 3.925-3.86m0 0"/>
    <path fill="#f9f9f9" d="M66.277 96.766v-.801h8.602v1.601h-8.602Zm-7.953-7.606c-.129-.2-.332-.55-.449-.781-.195-.379-.227-.422-.309-.399-.05.012-.093.004-.093-.02 0-.03-2.004-.042-6.16-.042h-6.16v-4.742c0-3.133.011-4.742.038-4.742.028 0 .043 1.601.043 4.722v4.719h7.137c3.922 0 7.129.016 7.121.035-.047.113-.879 1.57-.902 1.59-.02.012-.14-.14-.266-.34m0 0"/>
    <path fill="#f9f9f9" d="M50.734 84.797v-.613h18.934v1.23H50.734Zm0-3.324v-.575h18.934v1.149H50.734Zm0 0"/>
    <path fill="#f9f9f9" d="M64.996 87.906c0-.015 2.29-.031 5.086-.031h5.086V70.758h-28.32l.02-.113c.01-.063.038-.29.062-.504.07-.594.242-1.602.332-1.946.16-.617.289-.894.515-1.117.317-.316.5-.367 1.336-.36.367.005.77.02.895.036l.219.027.156.438c.086.242.258.68.379.972.312.739 1.133 2.403 1.187 2.403.024 0 .192-.028.367-.063.407-.078.598-.074.239.004-.282.063-.325.082-.278.13.043.042 22.891.07 22.891.026 0-.02-.45-.265-.996-.543-.547-.28-.984-.515-.973-.527.008-.012.5.223 1.086.516.59.293 1.047.535 1.02.535-.043.004-.055 1.754-.055 8.625v8.621l-5.125.008c-2.82.008-5.129 0-5.129-.02m0 0"/>
</svg>
