<svg xmlns="http://www.w3.org/2000/svg" width="120" height="120" viewBox="0 0 120 136">
    <path fill="none" stroke="red" stroke-width=".004" d="m-48.185-35.344.355-.287.208-.123.122-.056.079-.036.202-.068.115-.024.097-.021.23-.028.256-.013h.021l.117.001.148.004.155.006h.001l.161.007.038.002.127.008h.005l.076.005.044.002.03.002h.013l.02.177.036.192.053.2.068.2.083.189.08.142.008.011.009.016v.003l-.197-.017-.195-.014-.19-.01-.179-.007-.09-.002-.078-.002h-.291l-.052.005-.079.005-.124.02-.115.031-.017.008-.089.04-.095.066-.085.068-.066.052-.116.158-.078.192-.038.223.005.252.05.277.243-.154.432-.274.172-.092.567-.305.781-.361.096-.038.262-.104.445-.177.803-.272.72-.203.02-.005.02-.006.013-.003.009-.003.091.145.112.16.125.167.132.164.028.033.1.12.085.092.036.04-.88.208-.073.022-.824.242-.88.312-.344.145-.487.205-.75.379-.207.13-.24.153-.184.116h-.001l-.001.001.02.027.015.019.034.048.034.047.036.046.038.046.012.013.029.03.575-.308.185-.085.437-.2.455-.183.196-.078.666-.23.663-.198.523-.132.033-.009.04-.009.024-.006.022-.006.09.143.104.154.117.158.125.155.126.142.1.1.024.024-.669.125-.136.032-.08.018-.251.058-.217.05-.68.189-.654.214-.166.064-.444.171-.545.254.03.024.026.02.058.042.059.045.06.044.108.074.017.012.433-.177.163-.06.035-.013.245-.09.445-.148.441-.132.427-.117.407-.1.083.122.008.012.105.15.116.157.12.153.121.14.117.118-.423.073-.164.033-.223.045-.05.01-.447.1-.448.114-.442.126-.43.137h1.817v1.605l.058-.038.04-.025.02-.012.06-.036.045-.028.015-.01.023-.012.04-.024.006-.003.031-.019.017-.01.01-.006.11.153.136.165.152.168.161.16.158.138.022.016.073.052.054.039-.666.385-.601.416-.534.438-.15.145-.315.304-.393.45-.318.443-.08-.015-1.258-.245h-.003l.055-.074.054-.073.035-.047.02-.027.054-.074.05-.069.005-.006.054-.077h-1.91l-.194.054-.836-.544-.037-.024.102-.161.112-.165.12-.17.127-.172.133-.173.139-.173h-2.588v-2.619h3.78l.094-.054.046-.027.047-.027.047-.026.037-.021.01-.006-.216-.162-.126-.103-.076-.061-.188-.167-.174-.17-.16-.173-.144-.178-.407.174-.413.188-.406.197-.08.041-.31.16-.365.2-.326.192-.01-.008-1.026-.776.23-.115.24-.116.245-.114.249-.112.25-.108.251-.103-.25-.43-.005-.01-.295-.416-.354-.404-.406-.369-.457-.319-.498-.25-.011-.006.145-.142.128-.141.03-.032.158-.192.152-.2.135-.195.11-.18.557.349.497.429.018.02.419.468.376.527.123.212.16.275.033.057.223.471.018.039.015.032.095-.032.131-.043.117-.04-.203-.581-.077-.558.042-.516.105-.31.049-.147.259-.38M-46.5-39h-1v-1.793l-1.975 1.975-.707-.707 1.975-1.975H-50v-1h1.793l-1.975-1.975.707-.707L-47-42.707l2.475-2.475.707.707-1.975 1.975H-44v1h-1.793l1.975 1.975-.707.707-1.975-1.975V-39m-10.444-2.5.944 5.79.28 1.723.199 1.215v.004l.903 5.54v.03h.007l2.61 1.785L-47-21.997l5-3.416.859-.587 1.752-1.197h.007v-.031l.903-5.54v-.004l.198-1.215.28-1.722.945-5.791.162-1 .897-5.502h-22.006l.897 5.502.162 1M-34-50l-2.872 17.232-.928 5.57L-38-26l-7.52 5.013-.001.001L-47-20l-9-6-.2-1.197-.928-5.571L-60-50h26m-12.833 21.858-.072.094-.072.096-.072.098-.055.077-.016.023-.071.103h2.02l.096-.1.098-.098.1-.097.1-.097.105-.096.108-.096h-2.198l-.07.093m-.647-1.798h-2.066v.79h2.066v-.79m3.032.79v-.79h-1.879v.79Zm0 0" transform="matrix(4.29492 0 0 4.26451 261.99 217.49)"/>
    <path fill="red" d="m40.84 119.297-19.278-12.762-8.55-50.969C8.309 27.536 4.46 4.543 4.46 4.476c.004-.07 25.047-.124 55.656-.124 49.461 0 55.656.027 55.656.246 0 .136-3.835 23.082-8.52 50.988-4.683 27.91-8.515 50.781-8.515 50.824 0 .047-8.691 5.836-19.312 12.867L60.117 132.06Zm35.648-6.57c8.91-6.051 16.258-11.055 16.32-11.122.067-.066 3.36-19.886 7.325-44.046 3.96-24.16 7.246-44.133 7.3-44.38l.094-.452H12.73l.086.37c.047.204 3.211 19.434 7.032 42.735 3.82 23.305 7.078 43.133 7.234 44.063l.29 1.695 16.292 11.066c8.957 6.086 16.363 11.067 16.453 11.067.094.004 7.457-4.946 16.371-10.996m0 0"/>
    <path fill="red" d="m48.086 50.375-1.445-1.437 4.257-4.227 4.258-4.23h-7.855v-4.106h7.855l-4.3-4.27-4.297-4.27 1.445-1.437 1.45-1.433 5.25 5.21c2.886 2.868 5.323 5.216 5.413 5.216s2.528-2.348 5.418-5.215l5.25-5.211 1.445 1.433 1.45 1.438-4.301 4.27-4.297 4.269h7.856v4.105h-7.856l4.258 4.23 4.258 4.227-1.446 1.438-1.445 1.434-4.262-4.227-4.257-4.227v7.797H58.05v-7.797l-4.258 4.227-4.262 4.227ZM65.8 105.941l-2.581-.515.636-.82c.352-.45.641-.88.645-.954 0-.07-2.082-.117-4.625-.101l-4.629.027-1.617-1.031a118 118 0 0 1-1.684-1.086c-.14-.117.325-.856 1.621-2.578.739-.985 1.344-1.813 1.344-1.848s-2.496-.066-5.543-.066h-5.539v-11h8.125c7.945 0 8.14-.008 8.684-.344.304-.187.554-.39.55-.45-.003-.062-.457-.445-1.007-.85-.551-.407-1.59-1.348-2.313-2.095-.722-.742-1.375-1.355-1.453-1.355-.437 0-6.57 2.926-8.644 4.125-.61.352-1.141.64-1.18.64-.13 0-4-2.964-4.047-3.1-.047-.126 2.988-1.614 4.758-2.333.5-.203.976-.426 1.054-.496.083-.07-.093-.555-.394-1.082-1.871-3.3-5.023-6.395-8.07-7.918l-1.047-.523.93-.997a26 26 0 0 0 1.761-2.168c.461-.644.899-1.156.98-1.132.383.105 2.005 1.203 3.047 2.062 2.344 1.942 4.368 4.567 6.22 8.07 1.1 2.082 1.019 2.024 2.202 1.575l.414-.157-.5-1.441c-.71-2.055-.847-4.738-.32-6.29.711-2.093 2.09-3.66 4.098-4.663 1.488-.742 2.73-.934 5.699-.883l2.672.043.297 1.371c.164.754.484 1.781.719 2.281.23.504.402.926.374.942-.023.015-1.007-.031-2.19-.102-3.34-.203-4.669.051-5.767 1.102-.785.746-1.093 1.629-1.082 3.113.012 2.086-.05 2.063 2.094.734 4.426-2.746 10.688-5.406 16.54-7.027l1.198-.336.485.703c.27.387.902 1.207 1.41 1.82.512.618.867 1.169.797 1.231-.07.059-.727.238-1.453.402-4.75 1.063-10.23 2.996-14.555 5.137-1.793.887-4.547 2.508-4.547 2.676 0 .047.219.351.488.676l.493.59 2.37-1.176c3.673-1.828 7.786-3.336 12.473-4.578l1.524-.407.445.68c.246.375.817 1.137 1.266 1.691.453.56.816 1.067.808 1.137-.004.067-1 .324-2.207.57a67 67 0 0 0-8.215 2.208c-2.332.793-5.64 2.183-5.64 2.37 0 .153 1.406 1.16 1.617 1.16.086 0 .7-.222 1.363-.495 1.688-.692 5.157-1.82 7.59-2.477l2.051-.55.344.476c.191.266.804 1.05 1.363 1.746l1.016 1.266-1.512.273c-2.262.406-6.094 1.34-7.961 1.941l-1.656.532 3.93.043 3.925.043v6.91l.824-.461.829-.457.273.406c.148.227.926 1.059 1.719 1.844l1.445 1.433-1.344.766c-3.976 2.266-8.238 5.938-10.441 9.004-.426.594-.86 1.07-.965 1.059-.11-.012-1.36-.25-2.781-.536m3.473-7.511c.696-.645 1.29-1.235 1.32-1.317.032-.078-2.027-.144-4.722-.144h-4.777l-.82 1.097c-.45.602-.876 1.192-.95 1.313-.11.18.649.219 4.278.219h4.406Zm-11.058-6.961v-1.723H49.12v3.445h9.094Zm12.902 0v-1.723h-8.105v3.445h8.105Zm0 0"/>
    <path fill="#f9f9f9" d="M43.91 112.559c-8.914-6.047-16.265-11.086-16.332-11.196-.07-.113-3.144-18.605-6.828-41.093-8.285-50.547-7.746-47.207-7.652-47.301.043-.043 21.246-.059 47.12-.035l47.044.039-7.235 44.086c-3.98 24.246-7.265 44.164-7.304 44.257-.047.133-29.72 20.375-32.176 21.957l-.43.278Zm25.82-7.008c.973-1.356 3.516-3.989 5.192-5.371 1.441-1.192 3.953-2.922 5.375-3.703.543-.297 1.074-.606 1.176-.684.125-.094-.348-.672-1.422-1.742-.887-.88-1.727-1.774-1.871-1.989l-.262-.39-.754.437-.754.442v-6.746l-3.515-.012c-2.57-.008-3.403-.055-3.102-.18.754-.304 6.672-1.746 8.394-2.039.934-.16 1.696-.34 1.696-.398 0-.059-.195-.285-.43-.504-.238-.219-.879-1.008-1.426-1.754-.683-.93-1.101-1.356-1.332-1.356-.84 0-7.25 1.965-9.91 3.04l-1.008.406-.652-.48-.656-.477.863-.438c2.781-1.398 8.762-3.234 13.672-4.195l1.851-.36-.945-1.09c-.52-.6-1.2-1.48-1.508-1.952-.379-.579-.648-.836-.824-.786-.14.043-.89.23-1.664.422-3.934.965-8.508 2.641-12.195 4.461l-2.356 1.164-.328-.39c-.18-.215-.328-.465-.328-.555 0-.184 1.8-1.289 3.961-2.434 3.242-1.718 9.07-3.828 13.883-5.027 1.496-.371 2.75-.71 2.793-.75.039-.039-.336-.574-.836-1.187-.5-.61-1.192-1.504-1.535-1.985-.723-1.011-.352-1.008-3.723-.011-4.762 1.406-11.277 4.265-14.883 6.523-1.078.68-1.605.926-1.691.793-.067-.106-.125-.715-.125-1.352-.004-1.898.863-3.203 2.558-3.859.528-.2 4.739-.242 5.996-.055.387.055.704.067.704.02 0-.043-.23-.574-.512-1.172-.285-.602-.637-1.719-.79-2.48l-.269-1.391h-2.894c-4.051.004-5.192.305-7.38 1.941-2.753 2.059-3.655 6.074-2.273 10.114.215.625.391 1.187.391 1.246s-.262.187-.578.285c-.66.199-.602.25-1.274-1.153-1.593-3.332-4.152-6.644-6.914-8.949-.703-.586-2.699-1.844-2.93-1.844-.09 0-.507.516-.929 1.145s-1.262 1.664-1.867 2.3c-.606.638-1.074 1.188-1.035 1.22.035.03.586.32 1.226.636 3.008 1.496 5.989 4.403 8 7.805l.512.867-.621.254c-1.016.41-4.203 1.856-4.988 2.262l-.735.379 4.367 3.25-1.328.047-1.324.046v11.317h10.941l-.351.453c-.684.887-2.652 3.71-2.649 3.805 0 .05.782.605 1.739 1.226l1.734 1.133 4.563-.035c3.73-.028 4.539.008 4.437.183-.07.118-.351.528-.625.915-.273.382-.465.722-.426.753.094.082 5.102 1.047 5.555 1.075.262.011.566-.274 1.148-1.09M53.793 47.91l4.094-4.063v7.468h4.465v-7.632l4.214 4.183 4.22 4.184 1.57-1.555 1.574-1.555-8.352-8.296h7.524V36.21h-7.524l8.43-8.375-1.61-1.602-1.613-1.601-5.332 5.297-5.336 5.293-10.664-10.586-1.574 1.554-1.574 1.559 4.261 4.23 4.258 4.23h-7.687v4.435h7.523l-4.176 4.148-4.175 4.145 1.527 1.519c.844.836 1.605 1.52 1.695 1.52s2.008-1.832 4.262-4.067m0 0"/>
    <path fill="#f9f9f9" d="M59.965 98.816c.254-.336.644-.855.867-1.148l.402-.535h4.567l4.57.004-1.238 1.14-1.242 1.141-8.391.016Zm3.215-7.347V89.91h7.773v3.117H63.18Zm-13.895 0V89.91h8.766v3.117h-8.766Zm-1.735-6.086c.954-.59 5.555-2.899 7.321-3.668l1.508-.66 1.539 1.523c.848.836 1.871 1.781 2.277 2.102l.742.586-.527.27c-.46.234-1.312.269-7.023.26l-6.5-.003Zm0 0"/>
</svg>
