<svg xmlns="http://www.w3.org/2000/svg" width="120" height="120" viewBox="0 0 120 136">
    <path fill="none" stroke="red" stroke-width=".004" d="m-48.5-45 1.5-2 1.5 2h-1v1.793L-44.707-45l.707-.707.182-.182-.182-.182-.525-.525.525-.075 1.125-.161.825-.118-.118.825-.236 1.65-.707-.707-.89.889-1.792 1.793H-44v-1l1.333 1 .667.5-2 1.5v-1h-1.793L-44-39.707l.89.889.706-.707.236 1.65.118.825-.825-.118-1.125-.16-.525-.076.525-.525.182-.182-.182-.182-.457-.457-.5-.5-1.646-1.647-.397-.396-2.043 2.043-.5.5-.457.457-.182.182.182.182.525.525-.525.075-1.125.161-.825.118.118-.825.236-1.65.707.707.889-.889 1.793-1.793H-50v1l-2-1.5.666-.5 1.334-1v1h1.793L-50-44.293l-.889-.889-.707.707-.236-1.65-.118-.825.825.118 1.125.161.525.075-.525.525-.182.182.182.182.707.707 1.793 1.793V-45h-1m1.815 9.49-.028-.14.605-.171.028-.007.214-.06.027-.008.02-.006.015-.004.01-.003.03.156.042.17.054.177.062.178.068.173.072.163-.007.002-.32.074-.553.129-.07-.13-.015-.027-.08-.167-.07-.172-.042-.122-.017-.047-.045-.159m-.709-.368.041.144.06.16.073.17.086.171.03.053.063.113.07.11.028.043-.01.003-.023.007-.128.037-.179.052-.494.144-.095-.144-.001-.001-.097-.156-.091-.161-.067-.133-.014-.028-.068-.154-.049-.141.131-.043.318-.107.33-.11.058-.02.017-.005.011-.004m-.856-2.87h2.5L-47-37.5l-1.25-1.25m2.5-.5h-2.5L-47-40.5l1.25 1.25m1.416 4.805-.344-.144v3.4h-2.211l-.018.024-.025.033-.087.119-.044.058-.04.05-.004.005-.042.052h.688v1.176l.028-.024.025-.022.051-.047.05-.047.05-.046.05-.044.042-.035.009-.007v-.001l.062.069.07.08.082.083.017.017.07.07.09.088.092.086v-1.442h.903v1.161l.042-.037.042-.034.043-.033.042-.032.042-.031.034-.024.006-.005.002-.001.048.104.063.13.076.144.084.15.087.143.086.125v-.811l.012-.775.002-.156.055-1.02.092-.872.02-.19.188-1.058.225-.8.056-.202.361-.832.03-.067.024.018.114.082.171.11.189.11.193.104.183.089.158.064-.231.524-.132.297-.254.905-.147.846-.017.103-.093.953-.042.92-.001.072-.01.775v3.156h-3.97l.039.083.04.082v.001l.082.163.042.08.042.077-.452.12-.688.183-.08-.122-.077-.13-.075-.134-.072-.136-.052-.102-.016-.033-.064-.132h-3.65v-.971h2.189l-.049-.076-.047-.074-.044-.073-.04-.073-.035-.072-.03-.072h-1.553v-.478h1.645v-.266h-1.393v-.394h1.393v-.243h-1.393v-.417h1.393v-.22h-1.73v-.47h4.155v-.069l-.63-.091-.32-.046.055-.053.053-.052.054-.05.054-.05.053-.047.054-.044h-2.923v-1.828h5.172v-.289H-52v-.508h6.205v-.25h-5.86v-.017l.002-.043.002-.062.007-.145.004-.067.04-.34.014-.077.034-.204.056-.232.065-.185.077-.144.09-.108.064-.055.023-.02.096-.06.034-.016.069-.03.109-.035.114-.022.117-.012.115-.003.143-.002.167.002h.037l.147.004.029.001.167.008.2.012h.005l.007.068.002.009.01.065.018.078.022.081.026.082.03.08.361-.148.187-.077.017-.007.008-.003.062.128.08.143.004.006.092.144.105.151.112.143.112.127-.081.03-.577.22h4.33l-.355-.152-.159-.067-.037-.016.103-.207.093-.166.025-.044.135-.207.153-.197.171-.184.193-.163.731.368.071.037.052.026.064.032-.186.146-.173.169-.158.186-.022.031-.118.164-.015.025-.104.175-.097.196m-5.532-.867h-.088l-.034.002H-50l-.034.002-.042.005-.037.009-.034.014-.029.019-.003.001-.03.026-.038.05-.034.068-.032.09-.03.114-.017.096-.009.047-.024.173h1.24l-.105-.113-.093-.107-.01-.011-.1-.12-.092-.122-.083-.121-.028-.049-.04-.07v-.001h-.111l-.05-.002m-6.613-3.33.478 2.933.28 1.722.199 1.215v.004l.903 5.54v.03h.007l2.61 1.785L-47-21.997l5-3.416.859-.587 1.752-1.197h.007v-.031l.903-5.54v-.004l.198-1.215.28-1.722.122-.744.823-5.047.162-1 .619-3.794.278-1.708h-22.006l.03.19.867 5.312.162 1 .466 2.859M-34-50l-2.872 17.232-.928 5.57L-38-26l-7.52 5.013-.001.001L-47-20l-9-6-.2-1.197-.928-5.571L-60-50h26m-11.892 21.464.103-.136.004-.005.112-.138v-.341l-.235.2-.224.217-.06.067-.149.165-.194.243-.175.25-.156.254h1.232l-.628-.213.084-.138.09-.141.095-.142.1-.142m-1.868.586.023-.04.025-.04.025-.042.026-.043.027-.043.027-.042h-1.255l.027.05.028.05.014.024.015.026.03.048.027.047.027.043-.457.147-.017.005h2.05l-.641-.19h-.001m3.218-.688-.224.207-.21.218-.08.095-.108.13-.163.228h1.255v-1.245l-.237.174-.192.16-.041.033m-2.56-3.933h-2.724v.266h4.032v-.266h-1.309m1.31.934v-.258h-4.033v.258h4.032m-3.014 1.418v.22h1.392v-.22h-1.392m1.392.638h-1.392v.243h1.392v-.243m0 .637h-1.392v.266h1.392Zm0 0" transform="matrix(4.29492 0 0 4.26451 261.99 217.49)"/>
    <path fill="red" d="m40.84 119.297-19.278-12.762-8.55-50.969C8.309 27.536 4.46 4.543 4.46 4.476c.004-.07 25.047-.124 55.656-.124 49.461 0 55.656.027 55.656.246 0 .136-3.835 23.082-8.52 50.988-4.683 27.91-8.515 50.781-8.515 50.824 0 .047-8.691 5.836-19.312 12.867L60.117 132.06Zm35.652-6.574c8.914-6.055 16.258-11.059 16.32-11.121s3.356-19.883 7.32-44.043c3.962-24.16 7.247-44.133 7.302-44.38l.093-.452H12.73l.086.37c.047.204 3.325 20.137 7.286 44.298 3.957 24.16 7.214 43.988 7.238 44.062.05.176 32.562 22.262 32.777 22.266.094.004 7.461-4.95 16.375-11m0 0"/>
    <path fill="red" d="M56.242 105.645a27 27 0 0 1-.879-1.649l-.37-.773-7.9-.004-7.898-.008V99.27h4.727c3.7 0 4.715-.047 4.672-.207-.028-.114-.278-.59-.551-1.063l-.492-.86-3.27-.003-3.265-.004v-1.805h6.945v-1.312h-5.953v-1.48h5.953v-1.313h-5.953v-1.641h5.953v-.988H40.52v-1.969h8.945c7.082 0 8.93-.043 8.875-.207-.04-.125-.758-.3-1.82-.45-.965-.136-1.801-.296-1.86-.355-.058-.058.16-.316.485-.574s.59-.523.59-.59-2.829-.125-6.286-.125h-6.281V76.77h22.16v-1.477H38.7v-1.969h26.63v-1.152H40.163l.106-1.106c.058-.609.218-1.738.355-2.504.602-3.378 1.727-4.273 5.363-4.273 2.657 0 2.715.023 2.953 1.082.114.488.254.918.32.957.067.04.634-.144 1.266-.406.63-.266 1.157-.48 1.172-.48.012 0 .309.484.656 1.074.352.593.88 1.359 1.176 1.707l.543.625-1.445.554-1.441.555 18.773.086v14.281h-9.398l-.594.824-.594.82h2.969l.043 2.587.047 2.582.652-.59.648-.594 2.172 2.172.047-3.16.043-3.16h3.633v2.46c0 2.247.098 2.805.414 2.301.055-.09.242-.238.414-.328.273-.148.39-.015.984 1.106.371.703.82 1.46.996 1.683l.325.414.008-3.285c.011-7.949.804-14.988 2.246-19.953.57-1.973 2.011-5.582 2.23-5.582.055 0 .707.36 1.45.8.742.442 1.667.938 2.062 1.099l.719.296-.735 1.653c-1.332 3-2.254 6.812-2.797 11.586-.187 1.66-.27 4.847-.332 12.687l-.078 10.469h-8.5c-4.676 0-8.504.039-8.504.086s.215.512.48 1.031l.481.945-2.176.555a89 89 0 0 0-2.37.625c-.106.04-.426-.324-.704-.808m3.461-6.504c0-.075-.523-.274-1.164-.45-1.531-.418-1.582-.453-1.254-.918.149-.21.27-.441.27-.511s-1.227-.13-2.73-.13c-2.876 0-3 .04-2.473.731.367.48.316.543-.668.852-.5.156-.91.347-.91.422 0 .07 2.011.133 4.464.133 2.457 0 4.465-.06 4.465-.13m6.285-.004c0-.07-.39-.27-.867-.434-.476-.168-1.043-.367-1.254-.445l-.383-.14.375-.614c.203-.34.77-1.145 1.25-1.785.766-1.02.88-1.274.88-1.93 0-.418-.04-.762-.094-.762-.051 0-.47.313-.922.696-1.414 1.183-4.274 4.757-4.274 5.34 0 .156.621.207 2.645.207 1.457 0 2.644-.06 2.644-.133m6.782-2.668c0-2.196-.043-2.778-.207-2.684-1.504.871-5.25 4.645-5.25 5.293 0 .137.773.192 2.73.192h2.727Zm-14.387-1.797v-.656h-6.121v1.312h6.12Zm0-2.793v-.656h-6.121v1.312h6.12Zm0-2.793v-.492h-6.121v.988h6.12Zm6.945-7.059v-.656H47.961v1.313h17.367Zm0-2.793v-.656H47.961v1.313h17.367ZM50.94 69.94c0-.054-.332-.464-.734-.91a13 13 0 0 1-1.2-1.554l-.464-.747-.961.063c-1.187.082-1.504.367-1.844 1.68-.441 1.691-.64 1.566 2.473 1.566 1.5 0 2.73-.047 2.73-.098m0 0"/>
    <path fill="red" d="M70.457 70.016c-.594-.25-1.434-.602-1.867-.786l-.793-.328.492-.968c.555-1.086 1.934-2.871 2.664-3.442l.477-.375 1.812.899 1.809.902-1.188 1.215c-.652.668-1.445 1.691-1.761 2.273l-.57 1.063Zm-8.078-1.774c-.504-1.12-.957-2.594-.836-2.707.035-.035.871-.281 1.855-.55 1.215-.337 1.805-.434 1.844-.305.028.101.301.96.602 1.91.304.95.574 1.805.605 1.902.043.149-2.777.895-3.37.89-.102 0-.419-.515-.7-1.14m-6.269.113C55.097 66.59 54.823 65.95 55 65.79c.086-.078.79-.348 1.563-.598s1.492-.488 1.597-.523c.102-.04.278.21.39.555.11.347.52 1.238.915 1.984.394.742.695 1.356.672 1.356-.04 0-2.453.707-3.09.906-.184.058-.453-.262-.938-1.114M39.04 59.098c0-.168.315-2.473.698-5.114l.7-4.808 1.402 1.398c.77.77 1.476 1.403 1.57 1.403s2.778-2.59 5.957-5.75l5.79-5.747h-8.02v1.97c0 1.085-.04 1.972-.086 1.972-.047 0-1.914-1.363-4.149-3.027l-4.062-3.028 4.11-3.062 4.105-3.059.043 2.063.047 2.066h8.011l-5.87-5.828-5.868-5.828-1.445 1.426c-.793.785-1.47 1.394-1.504 1.351-.059-.07-1.438-9.598-1.438-9.937 0-.114 1.739.074 4.922.527 2.703.39 5.027.707 5.164.71.133.005-.441.692-1.281 1.528l-1.523 1.52 5.746 5.707c3.16 3.137 5.8 5.703 5.87 5.703.067 0 .122-1.734.122-3.856v-3.851l-2.059-.047-2.054-.047 2.976-3.941c1.637-2.168 3.04-4.004 3.117-4.082.078-.078 1.516 1.68 3.227 3.941l3.086 4.082-4.156.094v3.851c0 2.122.054 3.856.12 3.856.067 0 2.712-2.566 5.872-5.703l5.746-5.707-1.524-1.52c-.84-.836-1.418-1.523-1.28-1.527.132-.004 2.456-.32 5.163-.711 3.192-.457 4.922-.64 4.926-.527.004.097-.313 2.414-.7 5.144l-.702 4.969-1.496-1.477-1.493-1.476-5.87 5.828-5.868 5.828h8.008l.047-2.066.047-2.063 4.113 3.063c2.262 1.687 4.047 3.125 3.969 3.191-.079.07-1.95 1.469-4.153 3.11l-4.011 2.98v-4.11h-8.02l5.785 5.747c3.184 3.16 5.863 5.75 5.953 5.75.086 0 .797-.63 1.575-1.399l1.414-1.394.722 5.007c.403 2.754.692 5.047.649 5.09-.082.082-9.41-1.176-9.887-1.332-.16-.05.23-.543 1.195-1.508l1.438-1.433-6.906-6.852-6.903-6.855-6.906 6.86-6.906 6.855 1.406 1.39c.773.762 1.352 1.434 1.281 1.492-.066.055-2.129.38-4.586.72s-4.668.655-4.918.702c-.367.07-.457.024-.449-.222m0 0"/>
    <path fill="red" d="m57.555 47.457 2.558-2.543 2.528 2.5c1.386 1.379 2.523 2.523 2.523 2.547 0 .023-2.289.043-5.086.043h-5.082Zm0 7.391-2.559-2.543h10.246l-2.558 2.543a750 750 0 0 1-2.567 2.547s-1.156-1.145-2.562-2.547m0 0"/>
    <path fill="#f9f9f9" d="M43.914 112.555c-8.91-6.047-16.254-11.047-16.316-11.114-.149-.16-14.61-88.363-14.504-88.468.047-.047 21.25-.063 47.125-.04l47.043.04-7.235 44.086c-3.98 24.246-7.265 44.164-7.304 44.257-.047.133-29.72 20.38-32.176 21.957l-.43.278Zm15.273-6.485c1.239-.324 2.317-.652 2.395-.722.078-.075-.05-.461-.289-.864-.238-.398-.43-.812-.43-.918 0-.144 2.133-.191 8.418-.191H77.7l.082-10.469c.063-8.015.14-11.008.344-12.77.527-4.636 1.426-8.46 2.625-11.163.36-.813.719-1.645.8-1.848.134-.34.036-.426-1.198-1.04-.739-.37-1.743-.937-2.235-1.26-.527-.348-.949-.528-1.035-.438-.078.082-.488.965-.914 1.957-1.414 3.304-2.469 7.75-2.969 12.48-.418 3.989-.469 4.82-.574 9.508l-.102 4.582-.812-1.543c-.445-.851-.832-1.57-.86-1.601-.023-.036-.273.101-.55.296l-.508.36V85.64H65.66l-.008 5.992-.922-.945c-.503-.52-.964-.942-1.02-.942-.058 0-.347.234-.648.524l-.546.523v-4.988h-1.32c-.731 0-1.325-.043-1.325-.094 0-.05.195-.348.434-.656l.433-.567h9.387v-7.14c0-7.653-.031-7.387.828-6.899.227.13.461.239.516.242.058 0 .426-.53.816-1.187.387-.652 1.254-1.734 1.926-2.402.668-.668 1.195-1.235 1.168-1.254-.203-.18-3.813-1.887-3.984-1.887-.278 0-1.766 1.488-2.383 2.383-.246.36-.692 1.101-.989 1.64l-.535.989 1.89.875H52.017l1.117-.418c.613-.235 1.113-.477 1.113-.543s-.285-.48-.637-.922a16 16 0 0 1-1.175-1.746c-.293-.516-.602-.942-.688-.942-.082 0-.61.184-1.168.41-.562.227-1.074.41-1.144.41-.067 0-.215-.402-.325-.89-.152-.672-.285-.914-.55-.984-.746-.196-4.508-.094-5.325.144-1.898.563-2.773 2.406-3.136 6.617l-.118 1.352h25.184v.824h-26.63v2.297h26.63v1.148H43v7.883h12.46l-.648.559c-.355.308-.59.617-.519.687.07.075.96.258 1.984.41l1.856.278-8.887.02-8.89.019v2.297h3.718c3.614 0 3.723.012 3.723.328s-.11.332-2.977.332h-2.976v1.969h5.953v.984h-5.953v1.809h5.953v.984h-7.129l.05 1.027.052 1.024 3.308.047 3.309.043.46.816.465.82h-9.28v4.434h15.816l.293.617c.609 1.29 1.445 2.668 1.617 2.668.097 0 1.191-.265 2.43-.59m-.292-36.937 1.59-.453-.786-1.496c-.43-.825-.87-1.774-.98-2.114s-.285-.613-.39-.613-.99.262-1.962.582l-1.765.586.222.629c.555 1.57 1.817 3.52 2.203 3.41.153-.043.993-.285 1.868-.531m6.02.082c.91-.203 1.706-.418 1.772-.477s-.09-.629-.351-1.265c-.262-.637-.57-1.578-.688-2.094s-.265-.973-.332-1.016c-.07-.039-.984.164-2.039.45-1.73.476-1.918.562-1.918.898 0 .887 1.368 4.082 1.692 3.957.117-.043.953-.246 1.863-.453m-20.99-10.34c2.54-.36 4.868-.695 5.18-.75l.563-.098-1.512-1.511-1.515-1.508 13.562-13.461 6.734 6.691 6.739 6.688-1.555 1.55-1.55 1.551.562.098c1.082.188 9.793 1.402 10.066 1.402.246 0 .196-.55-.5-5.293-.43-2.914-.789-5.332-.797-5.375-.011-.047-.71.602-1.55 1.434l-1.532 1.516-11.242-11.164h7.348l.094 4.25 4.3-3.204c2.364-1.757 4.313-3.25 4.332-3.312.035-.121-8.414-6.438-8.609-6.438-.059 0-.106.961-.106 2.133v2.137h-7.359l5.66-5.625 5.664-5.621 1.485 1.469c.816.804 1.511 1.433 1.547 1.394.07-.09 1.578-10.566 1.527-10.625-.02-.023-2.465.309-5.438.735l-5.402.777 3.055 3.047-5.66 5.62-5.664 5.626v-7.309H64.5c1.184 0 2.152-.039 2.152-.086 0-.12-6.441-8.617-6.535-8.617s-6.531 8.496-6.531 8.617c0 .047.969.086 2.148.086h2.153v7.305l-5.621-5.578-5.625-5.582 1.52-1.516c.835-.832 1.487-1.543 1.448-1.582-.129-.113-10.648-1.57-10.734-1.484-.121.12 1.34 10.304 1.508 10.484.086.098.722-.414 1.629-1.312l1.488-1.47 5.664 5.622 5.66 5.625h-7.523v-2.137c0-1.172-.04-2.133-.086-2.133-.164 0-8.707 6.43-8.637 6.5.04.04 1.996 1.504 4.356 3.262l4.285 3.192.047-2.125.043-2.125h7.351L43.418 51.809l-1.52-1.504c-1.414-1.399-1.53-1.477-1.613-1.11-.164.742-1.418 9.524-1.418 9.93 0 .23.094.402.223.402.12 0 2.3-.293 4.836-.652m16.337-6.7c-2.973-.023-5.446 0-5.496.052-.047.046 1.132 1.304 2.629 2.793l2.718 2.703 2.778-2.75 2.773-2.75Zm5.23-2.128c0-.188-5.18-5.297-5.37-5.297-.192 0-5.38 5.105-5.38 5.293 0 .07 2.422.125 5.375.125 2.957 0 5.375-.055 5.375-.121m0 0"/>
    <path fill="#f9f9f9" d="M67.828 98.57c.242-.46 3.516-3.71 4.238-4.21l.54-.368v4.95h-4.973Zm-6.801.274c0-.051.371-.625.825-1.274.949-1.36 2.613-3.226 3.32-3.726l.488-.344-.004.543c0 .406-.261.91-1.008 1.941-.554.77-1.109 1.594-1.238 1.836l-.226.438 1.898.656-2.027.016c-1.114.004-2.028-.032-2.028-.086m-8.683-.102c.676-.238.664-.207.277-.863l-.348-.582h2.477c1.36 0 2.473.058 2.473.129 0 .07-.118.297-.262.504-.148.207-.242.398-.207.43.031.027.43.163.883.3.8.238.726.246-2.48.25-2.524.004-3.192-.035-2.813-.168m.086-4.07v-.492h5.785v.984H52.43Zm0-2.793v-.492h5.785v.984H52.43Zm0-2.793c0-.313.11-.328 2.89-.328 2.785 0 2.895.015 2.895.328 0 .316-.11.332-2.895.332-2.78 0-2.89-.016-2.89-.332m-4.301-7.059v-.492h17.035v.985H48.13Zm0-2.875v-.41h17.035v.82H48.13ZM45.73 69.34c.395-1.93.622-2.219 1.836-2.36.774-.09.825-.07 1.114.422.168.285.672.957 1.12 1.496l.821.977h-5Zm0 0"/>
</svg>
