<svg xmlns="http://www.w3.org/2000/svg" width="120" height="120" viewBox="0 0 120 136">
    <path fill="none" stroke="red" stroke-width=".004" d="m-47.625-43.083.125-.061V-45h1v1.856l.125.06.112.076.024.016.123.108.108.123.091.136.072.147.052.154.032.16.01.164v.016l-.01.147-.032.16-.052.155-.072.147-.09.136-.109.123-.123.108-.072.048-.064.043-.125.062V-39h-1v-1.855l-.125-.062-.064-.043-.072-.048-.123-.108-.108-.123-.091-.136-.072-.147-.052-.154-.032-.161-.01-.147V-42l.01-.163.032-.16.052-.155.072-.147.09-.136.109-.123.123-.108.024-.016.112-.075M-48.25-36h.263v3.403h1.41v-.642h1.215v5.12h-2.625v2.011h-1.294v-2.01h-2.72v-5.044h1.286v.565h1.434V-36h1.031m4.902 0v5.406l.102-.126.008-.011.109-.132.108-.127.107-.124.106-.12.087-.1.01-.012.006-.006.077.183.107.227.113.222.014.027.136.25.135.232.025.04.064.096.034.053-.474.527-.458.604-.143.22-.29.446-.399.713-.148.315-.204.432-.298.765-.055-.017-.587-.183-.58-.18.154-.387.163-.389.018-.041.155-.347.09-.19.092-.196.189-.383.187-.359.01-.02V-36h1.23M-34-50l-2.872 17.232-.928 5.57L-38-26l-7.52 5.013-.001.001L-47-20l-9-6-.2-1.197-.928-5.571L-60-50h26m-20.618 22.772v.03h.007l2.61 1.785L-47-21.997l5-3.416.859-.587 1.752-1.197h.007v-.031l.903-5.54.479-2.941 2.003-12.293h-22.006L-56-35.709l.479 2.94.903 5.54m8.04-4.193h-1.409v2.112h1.41v-2.112m-4.138 0v2.112h1.434v-2.112Zm0 0" transform="matrix(4.29492 0 0 4.26451 261.99 217.49)"/>
    <path d="m40.84 119.297-19.278-12.762-8.55-50.969C8.309 27.536 4.46 4.543 4.46 4.476c.004-.07 25.047-.124 55.656-.124 49.461 0 55.656.027 55.656.246 0 .136-3.835 23.082-8.52 50.988-4.683 27.91-8.515 50.781-8.515 50.824 0 .047-8.691 5.836-19.312 12.867L60.117 132.06Zm35.652-6.574c8.914-6.055 16.258-11.059 16.32-11.121s3.356-19.883 7.32-44.043c3.962-24.16 7.247-44.133 7.302-44.38l.093-.452H12.73l.086.37c.047.204 3.325 20.137 7.286 44.298 3.957 24.16 7.214 43.988 7.238 44.062.05.176 32.562 22.262 32.777 22.266.094.004 7.461-4.95 16.375-11m0 0"/>
    <path d="M68.637 105.723c-1.32-.41-2.422-.766-2.453-.793-.114-.098 1.75-4.368 3.058-7.008l1.38-2.785V64.125h5.124l.008 11.54.004 11.534.43-.492c.234-.27.859-.988 1.386-1.598l.957-1.105.52 1.105c.285.61.922 1.817 1.418 2.688.496.875.902 1.633.902 1.687s-.39.524-.871 1.043c-3.297 3.563-6.926 9.606-8.824 14.692-.262.699-.512 1.265-.559 1.261-.047-.007-1.164-.347-2.48-.757m0 0"/>
    <path d="M50.441 101.734v-4.273H38.7V76.113h5.461v2.465h6.281V64.125h5.293v14.453h6.286v-2.793h5.128v21.676H55.734v8.543h-5.293Zm0-13.796V83.34h-6.28v9.195h6.28Zm11.579 0V83.34h-6.286v9.195h6.286Zm-3.97-40.77v-3.984l-.585-.317c-.735-.39-1.602-1.336-2.078-2.258-.446-.863-.61-2.754-.317-3.68.32-1.023 1.301-2.324 2.176-2.882l.805-.52V25.7h4.136v7.852l.727.426c2.164 1.257 3.05 4.265 1.945 6.586-.468.976-1.484 2.058-2.27 2.414l-.401.183v7.992H58.05Zm0 0"/>
    <path fill="#f9f9f9" d="M43.914 112.555c-8.91-6.047-16.254-11.047-16.316-11.114-.149-.16-14.61-88.363-14.504-88.468.047-.047 21.25-.063 47.125-.04l47.043.04-7.235 44.086c-3.98 24.246-7.265 44.164-7.304 44.257-.047.133-29.72 20.375-32.176 21.957l-.43.278Zm28.203-7.868c2.29-5.617 5.008-10.042 8.797-14.335l.785-.887-.808-1.348a40 40 0 0 1-1.528-2.898c-.398-.848-.758-1.543-.804-1.54-.043 0-.641.665-1.325 1.473l-1.238 1.47-.043-11.329-.043-11.332h-5.453v31.043l-1.137 2.254c-1.043 2.082-3.246 7.039-3.363 7.578-.035.168.652.453 2.43 1.016 1.367.43 2.59.765 2.722.75.137-.016.555-.809 1.008-1.915m-16.215-2.789v-4.27h11.41V75.622h-5.457v2.793h-5.953V63.961h-5.625v14.453h-5.953V75.95h-5.789v21.68h11.742v8.539h5.625Zm6.45-54.566v-3.984l.586-.317c.808-.433 1.687-1.441 2.171-2.488.489-1.059.555-2.855.149-3.98-.371-1.032-1.27-2.168-2.149-2.715l-.757-.477v-7.836h-4.465v7.832l-.785.535c-1.547 1.047-2.36 2.578-2.36 4.442 0 1.976 1.031 3.875 2.547 4.683l.598.32v7.97h4.465Zm0 0"/>
    <path fill="#f9f9f9" d="M55.902 87.938v-4.434h5.953v8.867h-5.953Zm-11.578 0v-4.434h5.953v8.867h-5.953Zm0 0"/>
</svg>
