<svg xmlns="http://www.w3.org/2000/svg" width="120" height="120" viewBox="0 0 120 136">
    <path fill="none" stroke="red" stroke-width=".004" d="m-51.824-35.105-.146-.283.22-.125.686-.39.034-.019.025-.015.017-.009.13.29.173.326.203.348.105.166.12.19.232.348.232.328-.01.005-.918.485-.232-.311-.237-.335-.233-.344-.215-.338-.017-.028-.095-.163-.074-.126m3.422-.29.152-.175.129-.15.212-.21.029-.028.017-.016.02-.021.006-.005.112.114.14.13.156.138.162.133.157.121.006.005.134.094-.134.113-.132.113-.219.223-.037.038-.241.289-.218.31-.191.322-.108.222-.05.106-.03-.009-.822-.244-.2-.06.195-.41.005-.007.223-.393.11-.164.145-.22.272-.36m-1.073-3.422-.707-.707 1.225-1.225.707-.707.543-.543-.543-.543-1-1-.932-.932.707-.707.225.225 1 1 1.25 1.25 1.25-1.25 1-1 .225-.225.707.707-.932.932-1 1-.543.543.543.543 1 1 .932.932-.707.707-.225-.225-1-1-1.25-1.25-1.25 1.25-1.225 1.225M-50.5-43.25l.163.011.161.032.154.052.147.072.112.075.024.016.123.108.108.123.09.136.073.147.052.154.032.16.01.164v.016l-.01.147-.032.16-.052.155-.072.147-.091.136-.108.123-.123.108-.071.048-.065.043-.147.072-.154.052-.161.032-.163.01-.163-.01-.161-.032-.154-.052-.147-.072-.064-.043-.011-.007-.061-.041-.123-.108-.108-.123-.091-.136-.072-.147-.052-.154-.032-.161-.01-.147-.001-.016.01-.163.033-.16.052-.155.072-.147.091-.136.108-.123.123-.108.024-.016.037-.025.075-.05.147-.072.154-.052.161-.032.163-.01m7.74 7.433.094.088.124.1.142.1.145.095.138.08.117.057-.173.48-.041.112-.147.653-.094.69-.043.593-.008.11-.022.698-.005.665v4.293h-1.765l.033.11.005.018.082.259.044.128.046.124.048.118-1.016.219-.125.026-.078-.16-.074-.166-.069-.172-.064-.173-.058-.169-.053-.162h-1.446v-1.026h1.279v-.658h-1.226v-2.762h3.539l.014-.73.016-.302.014-.288.01-.18.076-.782.01-.062.11-.696.083-.328.06-.24.03-.118.005-.02.193-.496.02-.053.013-.032.006-.017.007-.014.003-.01m-.921.13.008.06.032.123.047.138.06.143.063.14.064.127.06.103-.072.048-.07.063-.063.085-.052.11-.034.142-.012.18v2.608h-.822v-.864h-.64v-.92h.64v-1.039l-.545.132-.01.002h-.004l-.005.003h-.006v.001l.001-.073.001-.078-.002-.082-.004-.084-.005-.084-.004-.047-.003-.034-.056.055-.052.066-.046.08-.035.095-.024.111-.008.128v2.594h-.837v-.834h-.716v-.911h.716v-.987l-.777.232-.022.006-.012.004-.011.003-.003-.142-.007-.153-.011-.157-.015-.153-.01-.07-.009-.07-.02-.113-.001-.006.58-.19.355-.12.079-.027.313-.113.215-.089.143-.074.057-.04.017-.012.006-.005.016-.01.018.072.024.082.03.09.035.09.039.097.032.07.012.026.427-.135.325-.109.24-.09.17-.073.086-.045.033-.018.012-.008.019-.015.015-.01.017-.012.012-.008.006-.005m-3.546 2.25v1.078h-.64v3.871h.609v1.056h-.609v1.377h-1.035v-1.377h-1.347v1.377h-1.065v-1.377h-.6v-1.056h.6v-3.87H-52v-1.08h4.772m4.353-9.646.112.075.024.016.123.108.108.123.091.136.072.147.052.154.032.16.011.164-.001.016-.01.147-.032.16-.052.155-.072.147-.09.136-.11.123-.122.108-.072.048-.064.043-.147.072-.154.052-.161.032-.163.01-.163-.01-.161-.032-.154-.052-.147-.072-.065-.043-.07-.048-.124-.108-.108-.123-.091-.136-.072-.147-.052-.154-.032-.161-.01-.147V-42l.01-.163.032-.16.052-.155.072-.147.091-.136.108-.123.123-.108.024-.016.112-.075.147-.072.154-.052.161-.032.163-.01.163.01.16.032.155.052.014.007.133.065M-47-46.75l.163.011.16.032.155.052.147.072.136.09.123.109.108.123.091.136.022.045.05.102.052.154.032.16.01.164-.01.163-.032.16-.04.12-.012.035-.072.147-.09.136-.109.123-.123.108-.136.091-.147.072-.154.052-.161.032-.163.01-.104-.006-.059-.004-.16-.032-.155-.052-.147-.072-.136-.091-.123-.108-.108-.123-.091-.136-.072-.147-.012-.034-.04-.12-.032-.161-.01-.163.01-.163.032-.16.052-.155.072-.147.09-.136.109-.123.123-.108.136-.091.147-.072.154-.052.161-.032.06-.004.103-.007m0 7 .163.011.16.032.155.052.147.072.136.09.123.109.108.123.091.136.072.147.022.066.03.088.032.16.01.164-.01.163-.032.16-.052.155-.065.134-.007.013-.09.136-.109.123-.123.108-.136.091-.147.072-.154.052-.161.032-.163.01-.104-.006-.059-.004-.16-.032-.155-.052-.147-.072-.136-.091-.123-.108-.108-.123-.091-.136-.072-.147-.052-.154-.032-.161-.01-.163.01-.163.032-.16.03-.089.022-.066.072-.147.09-.136.109-.123.123-.108.136-.091.147-.072.154-.052.161-.032.06-.004.103-.007M-34-50l-2.872 17.232-.928 5.57L-38-26l-7.52 5.013-.001.001L-47-20l-9-6-.2-1.197-.928-5.571L-60-50h26m-20.618 22.772v.03h.007l2.61 1.785L-47-21.997l5-3.416.859-.587 1.752-1.197h.007v-.031l.903-5.54.479-2.941.252-1.541.57-3.5 1.181-7.252h-22.006L-56-35.709l.479 2.94.903 5.54m10.753-1.457v.658h.434v-.658h-.434m-1.172.014v.644h.457v-.658h-.457v.014m1.172-.939h.434v-.918h-.434v.918m-.715-.918h-.457v.918h.457v-.918m-4.323-1.171v-.658h-1.347v.658h1.347m0 3.014v-.42h-1.347v.62h1.347v-.2m0-1.392v-.627h-1.347v.627h1.347m2.725.467h.434v-.918h-.434Zm0 0" transform="matrix(4.29492 0 0 4.26451 261.99 217.49)"/>
    <path d="m40.84 119.297-19.278-12.762-8.55-50.969C8.309 27.536 4.46 4.543 4.46 4.476c.004-.07 25.047-.124 55.656-.124 49.461 0 55.656.027 55.656.246 0 .136-3.835 23.082-8.52 50.988-4.683 27.91-8.515 50.781-8.515 50.824 0 .047-8.691 5.836-19.312 12.867L60.117 132.06Zm35.648-6.57c8.91-6.051 16.258-11.055 16.32-11.122.067-.066 3.36-19.886 7.325-44.046 3.96-24.16 7.246-44.133 7.3-44.38l.094-.452H12.73l.086.37c.047.204 3.325 20.137 7.286 44.298 3.957 24.16 7.214 43.988 7.238 44.062.055.18 32.562 22.262 32.777 22.266.094.004 7.457-4.946 16.371-10.996m0 0"/>
    <path d="M67.55 105.55a36 36 0 0 1-.847-2.136l-.426-1.187h-6.074V98.12h5.457V95h-5.293V83.504h15.164l.106-3.2c.16-4.714.57-8.1 1.36-11.257.339-1.356 1.085-3.567 1.339-3.973.047-.078.332.078.637.344.3.262.965.727 1.472 1.027.508.301.926.64.926.75 0 .114-.152.59-.34 1.063-.812 2.043-1.37 5.312-1.644 9.582-.09 1.445-.164 7.523-.164 13.508v10.879h-3.805c-2.094 0-3.805.02-3.805.046 0 .028.227.739.5 1.582.278.844.469 1.57.426 1.61-.062.062-4.312 1.031-4.516 1.031-.03 0-.242-.426-.472-.945m3.071-8.991V95H68.47v3.121h2.152Zm4.961-.008v-1.567l-1.035.047-1.031.051-.047 1.52-.051 1.52h2.164Zm-9.922-7.297V87.28h-2.152v3.942h2.152Zm4.961 0V87.28H68.47v3.942h2.152Zm4.961 0V87.28h-2.148v3.942h2.148Zm0 0"/>
    <path d="M71.117 80.71v-1.804h-2.812V75.13h2.812v-2.297c0-1.266-.055-2.3-.125-2.3-.066.003-.531.113-1.031.245-1.348.36-1.324.371-1.324-.738 0-.543-.07-.984-.157-.984-.082 0-.324.238-.535.53-.382.532-.382.556-.43 6.653l-.05 6.117h-3.461v-3.449h-3.14V75.13h3.14v-4.4l-1.61.473c-.89.258-1.664.473-1.726.477-.063 0-.156-.426-.215-.942-.055-.52-.14-1.289-.191-1.707l-.086-.761 2.617-.864c1.441-.472 3.098-1.074 3.68-1.336.586-.257 1.117-.414 1.18-.343.058.066.245.511.413.988.196.555.399.86.57.86.372 0 3.903-1.192 4.786-1.618.89-.426 1.004-.434 1.004-.066 0 .16.261.875.578 1.593.57 1.297.57 1.309.254 1.645-.797.84-.832 1.18-.832 7.473v5.918h-3.309ZM41.68 103.375v-2.957h-2.65v-4.27h2.649v-16.75H38.7v-4.433h20.343v4.433H56.23l.043 8.336.043 8.332 1.282.047 1.28.051v4.254H56.23v5.914h-4.132v-5.914h-5.953v5.914H41.68Zm10.418-8.621v-1.399h-5.953v2.793h5.953Zm0-6.899v-1.394h-5.953v2.793h5.953Zm0-6.98v-1.477h-5.953v2.957h5.953Zm-.043-7.184-1.942-.586.836-1.554a30.6 30.6 0 0 1 4.614-6.48l.87-.946.993.863c.543.473 1.351 1.14 1.789 1.477l.797.613-1.442 1.442c-1.422 1.414-2.933 3.476-3.68 5.007-.222.457-.484.774-.636.766-.14-.008-1.129-.281-2.2-.602m-8.784-.253c-1.196-1.606-2.903-4.208-3.665-5.586-.523-.946-.582-1.157-.39-1.332.129-.114 1.023-.657 1.992-1.2l1.762-.992.304.68c.575 1.277 1.938 3.605 3.293 5.629l1.36 2.02-.684.394a43 43 0 0 1-1.883.992l-1.195.598ZM58.438 58.25c-4.415-1.566-4.782-7.543-.594-9.594 1.468-.718 2.96-.754 4.351-.113 2.02.937 2.989 2.348 3.102 4.52.062 1.171.02 1.457-.344 2.242-.89 1.93-2.512 3.066-4.55 3.183-.798.047-1.352-.02-1.965-.238M73.68 43.383c-2.266-.742-3.72-2.664-3.72-4.914-.003-2.149 1.032-3.824 2.927-4.75.941-.461 1.27-.54 2.281-.528 2.047.016 3.824 1.125 4.727 2.95.566 1.14.578 3.425.02 4.468-.958 1.793-2.536 2.828-4.462 2.93-.64.035-1.39-.035-1.773-.156m0 0"/>
    <path d="m48.086 50.371-1.445-1.437 5.293-5.254 5.289-5.25-10.664-10.594 1.445-1.438 1.45-1.433 5.25 5.21c2.886 2.868 5.323 5.216 5.413 5.216s2.528-2.348 5.418-5.215l5.25-5.211 1.445 1.433 1.45 1.438-5.332 5.297-5.336 5.297 5.297 5.254 5.293 5.257-1.454 1.434-1.449 1.434L60.121 41.3l-5.297 5.258-5.297 5.254Zm0 0"/>
    <path d="M43.387 43.305c-4.469-1.586-4.735-7.575-.422-9.668.703-.344 1.144-.438 2.078-.446 2.883-.015 5.25 2.243 5.266 5.036.007 1.5-.395 2.574-1.364 3.628-1.41 1.532-3.668 2.122-5.558 1.45m14.89-14.981c-3.148-1.238-4.375-5.133-2.46-7.804 1.054-1.473 2.566-2.239 4.417-2.243 4.403 0 6.75 5.332 3.79 8.61-1.032 1.136-2.11 1.644-3.657 1.715-.96.043-1.433-.02-2.09-.278m0 0"/>
    <path fill="#f9f9f9" d="M43.91 112.559c-8.914-6.047-16.265-11.086-16.332-11.196-.07-.113-3.144-18.605-6.828-41.093-8.285-50.547-7.746-47.207-7.652-47.301.043-.043 21.246-.059 47.12-.035l47.044.039-7.235 44.086c-3.98 24.246-7.265 44.164-7.304 44.261-.051.13-29.727 20.38-32.176 21.953l-.43.278Zm26.63-6.399c1.265-.273 2.323-.523 2.35-.55s-.128-.524-.347-1.102c-.215-.578-.445-1.293-.512-1.586l-.113-.531h7.469V91.676c.004-15.473.316-19.364 1.89-23.516.235-.613.426-1.144.426-1.176 0-.03-.207-.164-.457-.293-.25-.125-1.023-.636-1.719-1.132l-1.261-.899-.512 1.297c-1.324 3.36-2.074 8.008-2.281 14.14l-.11 3.243h-15.16v11.824h5.29v2.793H59.87v4.434h6.238l.371 1.023c.59 1.652 1.364 3.246 1.57 3.246.106 0 1.223-.226 2.49-.5m-24.231-2.62v-2.958h5.625v5.914h4.629v-5.914h2.48v-4.598h-2.48V79.563h2.644V74.8l-7.398-.004h-7.403l1.739-.918c.953-.504 1.824-.965 1.933-1.027.133-.07-.098-.528-.715-1.418-1.675-2.41-3.906-6.192-4.242-7.192-.043-.137-2.96 1.356-4.238 2.168-.184.117-.094.395.472 1.438.7 1.293 2.961 4.715 4.075 6.172l.593.78h-5.488v4.763h2.977v16.421h-2.645v4.598h2.645v5.914h4.797Zm28.285-26.81c.004-5.46.027-6.007.312-6.628.172-.372.473-.79.668-.926l.364-.25-.485-.965a15 15 0 0 1-.77-1.824c-.156-.473-.312-.86-.343-.86-.035 0-.309.141-.61.317-.48.277-4.785 1.816-5.085 1.816-.063 0-.286-.48-.493-1.066s-.41-1.067-.449-1.067-.496.211-1.016.473c-.519.258-2.21.895-3.757 1.41-1.547.52-2.836.965-2.864.992-.062.055.274 3.72.348 3.793.027.028.754-.168 1.613-.433.86-.266 1.621-.485 1.688-.485.07-.004.125.883.125 1.97v1.968H60.7v4.105h3.14v3.45h3.793l.047-6.125c.043-5.813.062-6.149.379-6.61l.328-.484.082 1 .086 1.004 2.398-.563v4.223h-2.812v4.105h2.812v3.614h3.637Zm-19.586-2.957c.906-1.789 2.3-3.683 3.816-5.191 1.305-1.293 1.524-1.578 1.297-1.707-.375-.207-3.172-2.527-3.305-2.738-.058-.098-.214-.176-.34-.176-.347 0-2.753 2.8-4.046 4.71-1.078 1.595-2.614 4.423-2.47 4.548.052.043 3.602 1.136 4.575 1.406.02.008.235-.375.473-.852m6.808-15.316a5.9 5.9 0 0 0 1.563-.785c3.273-2.469 2.73-7.547-.992-9.281-1.332-.618-3.176-.618-4.528 0-1.101.507-2.117 1.492-2.648 2.566-.547 1.11-.617 3.074-.156 4.3 1.004 2.653 3.93 4.036 6.761 3.2M54.95 46.762l5.254-5.211 5.29 5.25 5.292 5.254 1.57-1.559 1.575-1.562-5.293-5.25-5.293-5.254 10.664-10.594-1.61-1.602-1.613-1.601-5.332 5.297-5.336 5.293-10.664-10.586-1.574 1.554-1.574 1.559 5.336 5.297 5.332 5.297L46.31 48.937l1.527 1.52c.844.836 1.605 1.52 1.695 1.52s2.532-2.348 5.418-5.215m-7.62-3.45c3.425-1.511 4.28-6.109 1.624-8.746-1.082-1.074-2.281-1.55-3.887-1.539-1.586.008-2.515.368-3.648 1.403-1.063.976-1.594 2.078-1.688 3.515-.171 2.617 1.27 4.817 3.668 5.594.965.316 2.97.2 3.93-.227m30.296-.105c1.145-.555 2.137-1.648 2.598-2.867.468-1.238.406-3.207-.133-4.3-.504-1.017-1.563-2.04-2.672-2.58-1.227-.597-3.145-.632-4.371-.081-2.121.957-3.277 2.746-3.277 5.082.003 2.316 1.359 4.23 3.55 5.008 1.25.445 3.082.332 4.305-.262M62.09 28.484c3.937-1.464 4.68-6.886 1.285-9.367-1.39-1.015-3.414-1.312-5.113-.742-1.094.363-2.407 1.523-2.977 2.629-.629 1.215-.715 3.098-.203 4.445.488 1.281 1.727 2.531 2.977 3.008 1.21.465 2.828.473 4.03.027m0 0"/>
    <path fill="#f9f9f9" d="M73.762 96.559v-1.395h1.656v2.793h-1.656Zm-5.125 0v-1.395h1.82v2.793h-1.82Zm5.125-7.305v-1.809h1.656v3.614h-1.656Zm-5.125 0v-1.809h1.82v3.614h-1.82Zm-4.961 0v-1.809h1.816v3.614h-1.816Zm-17.367 5.5v-1.23h5.625v2.46h-5.625Zm0-6.899v-1.23h5.625v2.46h-5.625Zm0-6.98v-1.312h5.625v2.628h-5.625Zm0 0"/>
</svg>
