<svg xmlns="http://www.w3.org/2000/svg" width="120" height="120" viewBox="0 0 120 136">
    <path fill="none" stroke="red" stroke-width=".004" d="m-49.475-38.818-.707-.707L-47.707-42l-2.475-2.475.707-.707 1.975 1.975V-45h1v1.793l1.975-1.975.707.707L-46.293-42l2.475 2.475-.707.707-1.975-1.975V-39h-1v-1.793l-1.975 1.975m6.829 3.74.084.15.067.112.03.051.11.164.116.161.12.148.089.096.03.032-.572.248-.393.203-.043.022-.153.08-.584.352-.556.382-.137.109-.368.292-.25.236-.18.17.013.081.017.081.008.032.01.05.02.081.022.082.02.081.07-.052.31-.231.408-.28.424-.268.428-.253.188-.102.234-.127.056-.028.322-.158.015-.008.01-.005.071.144.091.156.017.026.088.135.113.157.115.146.058.067.033.038.02.023-.462.175-.488.218-.003.002-.49.247-.476.273-.437.285-.368.282-.008.006.036.068.04.066.04.063.084.126.03.044.009.014.005.007.302-.16.307-.153.173-.081.139-.065.314-.141.3-.126.015-.007.266-.108.028-.011.015-.006.007-.003.078.134.096.147.109.151.028.035.09.11.12.134.087.083.011.01.008.007.011.011-.18.071-.178.072-.178.074-.177.077-.178.08-.078.037-.102.047.095.188.007.013.105.192.122.212.128.214.131.206.128.192-.038.018-.398.189-.019.008-.026.013-.03.015-.05.022-.053.026-.268.127-.121-.164-.012-.016-.136-.195-.016-.025-.12-.18-.128-.204-.119-.2-.103-.186-.104.06-.105.06-.105.064-.105.064-.103.066-.101.066.079.156.092.164.042.07.058.097.105.167.105.162.102.153-.866.442-.096-.13-.023-.033-.073-.104-.095-.141-.093-.142-.089-.14-.082-.132-.097.074-.092.075-.088.076-.083.075-.079.075-.073.075-.003-.003-.708-.646-.053-.05.195-.19.206-.19.217-.18.228-.18.238-.17.093-.064.154-.103-.347-.601-.185-.32-.032-.056-.04-.127-.31-.958-.13-.907-.026-.192.018-1.017.17-.84v-.001l.307-.57.164-.181.177-.142.192-.106.208-.073.21-.042.016-.003.246-.019h.247l.14.001.142.003.146.005.088.004h.028l.019.002h.01l.015.173.027.187.038.193.051.194.064.185.075.161.004.008-.153-.014-.152-.012-.026-.002-.12-.007-.136-.006-.124-.004-.108-.002-.114.004-.102.016-.092.032-.027.017-.057.036-.08.08-.064.089-.015.021-.078.122-.067.17-.056.209-.042.247-.028.279-.012.306.298-.25.123-.102.445-.34.461-.323.467-.3.419-.244.045-.026.088-.046.356-.188.006-.002m-5.56.294-.327-.023-.31-.015-.286-.009h-.023l-.23-.005-.214-.002h-.168l-.095.004-.084.013-.016.005-.059.019-.068.035-.064.048-.063.062-.138.266-.112.496-.089.753-.026.369-.046.664-.058 1.34-.05 1.67h2.669l.129-.27.133-.26.137-.249.046-.077.017-.03.077-.13.143-.224.145-.21.132.103.002.002.173.121.195.13.2.125.193.115.168.095-.113.157-.246.343-.267.472-.054.096-.007.012-.034.074-.012.027-.198.43-.05.112-.259.688-.075.245-.144.47-.18.727-1.227-.248.07-.276.075-.278.081-.278.036-.117.049-.159.087-.274.09-.269H-52l.001-.026.001-.008v-.032l.001-.055.002-.12.001-.076v-.057l.002-.125v-.098l.006-.176.012-.421.044-1.5.07-1.646.036-.53.05-.717.111-.9.101-.43.042-.18.182-.369.139-.165.012-.014.156-.138.163-.104.174-.077.189-.056.207-.043.123-.012.095-.01.255-.012.283-.004.301.002.09.001.193.004h.027l.12.003.09.002.05.002h.05l.023.188.043.207.063.215.08.213.097.201.093.148.007.011.006.011.005.008m-.866 1.55.23.351.088.115.208.266.347.396.381.395.397.38.316.276.08.07-.08.066-.24.199-.058.049-.52.43-.399-.326-.174-.153-.233-.205-.395-.376-.029-.03-.335-.349-.315-.37-.245-.346.434-.372.461-.396.055-.047.026-.022M-34-50l-2.87 17.232-.93 5.57L-38-26l-7.52 5.013v.001L-47-20l-9-6-.2-1.197-.928-5.571L-60-50h26m-8.016 22.767-.166.036-.49.106-.336.088-.33.086-.649.2-.259.093-.357.128-.453.19-.107.045-.483.245-.029-.03-.54-.578-.155-.167.516-.29.252-.116.332-.152.214-.082.418-.16.176-.057.485-.158.67-.186.202-.048.097-.022.204-.048.079-.019.038-.008.02-.005.014-.003.007-.002.078.143.096.161.109.167.116.165.117.15.092.104.022.024m-12.602.005v.03h.007l2.61 1.785L-47-21.997l5-3.416.859-.587 1.752-1.197h.007v-.031l.903-5.54.479-2.941 2.003-12.293h-22.006L-56-35.709l.479 2.94Zm0 0" transform="matrix(4.29492 0 0 4.26451 261.99 217.49)"/>
    <path d="m40.84 119.297-19.278-12.762-8.55-50.969C8.309 27.536 4.46 4.543 4.46 4.476c.004-.07 25.047-.124 55.656-.124 49.461 0 55.656.027 55.656.246 0 .136-3.835 23.082-8.52 50.988-4.683 27.91-8.515 50.781-8.515 50.824 0 .047-8.691 5.836-19.312 12.867L60.117 132.06Zm35.648-6.57c8.91-6.051 16.258-11.055 16.32-11.122.067-.066 3.36-19.886 7.325-44.046 3.96-24.16 7.246-44.133 7.3-44.38l.094-.452H12.73l.086.37c.047.204 3.325 20.137 7.286 44.298 3.957 24.16 7.214 43.988 7.238 44.062.055.18 32.562 22.262 32.777 22.266.094.004 7.457-4.946 16.371-10.996m0 0"/>
    <path d="m64.438 104.785-1.43-1.543 1.203-.648c1.86-1.008 3.95-1.895 6.656-2.824 2.227-.762 7.219-2.145 7.738-2.141.11 0 .38.312.598.7.215.382.766 1.194 1.219 1.808.453.613.797 1.144.762 1.175-.032.032-.692.184-1.457.34-3.497.7-8.797 2.43-11.903 3.875-.945.442-1.773.805-1.84.805-.066 0-.761-.695-1.546-1.547m3.41-7.062c-.614-.946-1.164-1.723-1.227-1.727-.066-.008-.598.395-1.187.89l-1.07.903-1.462-1.324c-.804-.727-1.484-1.383-1.511-1.457-.086-.242 4.203-3.766 5.375-4.414.207-.117.035-.508-.985-2.262-3.73-6.402-4.558-15.863-1.816-20.727 1.45-2.57 2.984-3.316 6.836-3.316h2.3v.535c.004.625.583 3.117.837 3.586.167.313.109.324-1.946.3-1.164-.01-2.312.056-2.555.15-.558.222-1.238 1.105-1.624 2.12-.368.957-.711 3.157-.637 4.086l.054.68 1.715-1.371c2.223-1.77 5.57-4.02 7.922-5.32 1.028-.567 1.887-1.004 1.91-.97.684 1.044 2 2.966 2.254 3.286l.332.426-1.082.46c-3.18 1.34-7.738 4.141-10.488 6.442-2.316 1.942-2.238 1.817-1.984 3 .117.547.273 1.031.347 1.078.074.043.703-.336 1.395-.843 2.508-1.84 8.488-5.329 9.14-5.329.086 0 .258.239.375.524.121.285.641 1.086 1.157 1.773l.933 1.254-1.015.364c-1.332.472-5.32 2.41-6.793 3.3-1.825 1.098-3.72 2.508-3.72 2.762 0 .125.227.555.505.957l.5.723 1.605-.797c1.645-.817 5.473-2.524 6.078-2.707.278-.086.461.082 1.028.922.379.566.949 1.308 1.273 1.652l.586.625-.617.25c-1.754.711-3.695 1.59-3.766 1.703-.082.137.875 1.918 2.121 3.942l.758 1.23-.941.477a46 46 0 0 1-1.801.855l-.86.379-1.226-1.84c-.676-1.016-1.351-2.078-1.5-2.367-.148-.285-.344-.566-.433-.625-.188-.113-2.813 1.394-2.813 1.617 0 .125 1.32 2.383 2.098 3.59.156.246.25.477.21.516-.042.039-.84.449-1.773.914l-1.695.84Zm0 0"/>
    <path d="m53.809 105.96-2.336-.5.41-1.491c.347-1.274 1.402-4.649 1.66-5.317.062-.16-1.484-.203-7.398-.203h-7.473l.101-2.832c.055-1.558.176-5.125.266-7.926.203-6.129.59-12.48.914-14.941.61-4.645 1.5-6.598 3.504-7.684 1.398-.754 2.594-.933 6.246-.937l3.309-.004.355 1.473c.192.812.57 1.902.832 2.43l.48.952-3.648-.054c-4.035-.059-4.187-.028-4.847.941-1.16 1.707-1.551 5.586-2.114 20.903l-.101 2.753 5.843-.003 5.84-.004.746-1.516c.653-1.328 2.286-4.086 2.625-4.434.07-.07.825.34 1.684.907a61 61 0 0 0 2.188 1.394l.62.363-.84 1.153c-.894 1.215-2.827 4.847-3.46 6.496-.953 2.473-1.621 4.594-2.485 7.918-.097.383-.27.691-.382.683-.11-.011-1.25-.242-2.54-.515Zm0 0"/>
    <path d="M54.156 86.715c-2.968-2.535-6.855-6.684-6.855-7.32 0-.075.875-.883 1.945-1.793 1.934-1.649 1.941-1.657 2.191-1.286 1.16 1.73 2.66 3.45 5.282 6.047l3.07 3.051-1.379 1.137c-.762.629-1.582 1.3-1.828 1.496l-.45.355Zm-6.07-36.344-1.445-1.437 5.293-5.254 5.289-5.25-10.664-10.594 1.445-1.438 1.445-1.433 4.18 4.144c2.297 2.278 4.23 4.145 4.3 4.145.067 0 .122-1.7.122-3.777v-3.778h4.136v3.778c0 2.078.055 3.777.122 3.777.066 0 2.004-1.867 4.3-4.145l4.176-4.144 1.445 1.433 1.45 1.438-5.336 5.297-5.332 5.297 5.293 5.25 5.289 5.254-1.442 1.437-1.445 1.441-4.262-4.226-4.257-4.23v7.796H58.05v-7.797l-4.262 4.23-4.262 4.227Zm0 0"/>
    <path fill="#f9f9f9" d="M43.914 112.555c-8.91-6.047-16.254-11.047-16.316-11.114-.149-.16-14.61-88.363-14.504-88.468.047-.047 21.25-.063 47.125-.04l47.043.04-7.235 44.086c-3.98 24.246-7.265 44.164-7.304 44.257-.047.133-29.72 20.38-32.176 21.957l-.43.278Zm12.965-6.512c.09-.34.312-1.207.496-1.93 1.172-4.59 3.41-9.718 5.512-12.64l.949-1.317-.594-.328c-.324-.183-1.402-.863-2.398-1.52l-1.809-1.187-.82 1.246c-.45.684-1.25 2.086-1.774 3.117l-.953 1.871H44.156l.09-2.421c.566-15.254.938-19.09 1.996-20.758.746-1.172.778-1.18 5.008-1.086l3.77.082-.56-1.086c-.304-.598-.722-1.77-.92-2.606l-.364-1.52-3.473.005c-4.672.004-6.047.332-7.531 1.805-2.281 2.265-2.836 6.503-3.473 26.437a533 533 0 0 0-.164 5.79v.616h7.36c4.046 0 7.359.063 7.359.137 0 .078-.149.574-.336 1.11-.473 1.367-1.691 5.663-1.621 5.73.074.066 4.762 1.031 5.137 1.05.191.012.332-.175.445-.597m10.95-.273c3.187-1.508 7.448-2.926 11.464-3.817 1.098-.242 2.055-.492 2.129-.555.074-.062-.246-.617-.715-1.23s-1.07-1.5-1.336-1.969l-.484-.851-1.696.39c-5.203 1.211-11.03 3.364-13.941 5.149l-.566.351 1.601 1.711c.883.942 1.617 1.711 1.633 1.711s.879-.402 1.91-.89m3.124-7.079c1-.496 1.817-.945 1.817-.996 0-.05-.32-.586-.711-1.187a55 55 0 0 1-1.235-2.012l-.523-.914 1.273-.766 1.27-.77.23.45c.438.86 2.903 4.473 3.047 4.473.082 0 .996-.399 2.035-.89l1.887-.891-.965-1.532a61 61 0 0 1-1.523-2.562c-.668-1.219-.844-1.024 1.945-2.192l2.016-.847-.864-1.008c-.472-.559-1.082-1.36-1.355-1.785-.27-.426-.574-.774-.676-.774-.308 0-3.289 1.266-5.648 2.399-1.203.578-2.22 1.05-2.25 1.05-.032 0-.266-.308-.516-.687l-.457-.687.477-.383c2.125-1.72 7.308-4.528 10.277-5.567.476-.168.867-.363.867-.437 0-.07-.293-.496-.648-.946-.36-.449-.93-1.277-1.27-1.843a91 91 0 0 0-.664-1.086c-.082-.106-4.07 2.023-5.793 3.094a72 72 0 0 0-3.144 2.082c-.805.57-1.508 1.039-1.559 1.039-.055.004-.184-.38-.293-.848-.2-.844-.195-.852.344-1.41 2.379-2.473 8.074-6.14 12.406-7.988l.95-.407-1.036-1.363c-.566-.75-1.176-1.645-1.355-1.98-.18-.34-.43-.618-.555-.618-.73 0-6.75 3.785-9.563 6.016-.953.758-1.765 1.375-1.804 1.375-.149 0-.067-1.145.18-2.555.28-1.597.855-2.82 1.632-3.468.489-.41.531-.415 2.864-.356 2.066.055 2.351.031 2.253-.187-.445-.989-.886-2.559-.98-3.493l-.113-1.109h-2.34c-2.61 0-3.813.227-4.918.922-3.14 1.969-4.45 7.445-3.434 14.379.489 3.344 1.496 6.351 2.985 8.89.625 1.067 1.136 1.965 1.136 1.996 0 .032-.652.532-1.449 1.11-1.707 1.242-4.203 3.41-4.137 3.598.024.07.786.789 1.688 1.597l1.648 1.473 1-.887c.551-.488 1.051-.89 1.11-.89.058 0 .601.738 1.207 1.644.605.902 1.172 1.64 1.258 1.64.09 0 .98-.406 1.976-.906M58.164 87.02c1.04-.864 1.867-1.633 1.84-1.711-.027-.075-.797-.813-1.703-1.641-2.188-1.98-4.63-4.648-5.973-6.523l-1.09-1.52-1.496 1.27c-.824.699-1.8 1.539-2.172 1.867l-.675.593.976 1.293c1.195 1.582 4.59 4.989 6.672 6.692.844.691 1.578 1.254 1.633 1.254.05 0 .945-.707 1.988-1.574m-4.371-39.11 4.094-4.062v7.468h4.465v-7.632l4.218 4.187 4.215 4.184 1.57-1.559 1.575-1.562-5.293-5.25-5.293-5.254 10.664-10.594-1.61-1.602-1.613-1.597-4.215 4.183-4.218 4.184v-7.469h-4.465v7.469l-4.219-4.184-4.215-4.183-1.574 1.554-1.574 1.559 5.336 5.297 5.332 5.297-10.664 10.593 1.527 1.52c.844.836 1.605 1.52 1.695 1.52s2.008-1.832 4.262-4.067m0 0"/>
</svg>
