<svg xmlns="http://www.w3.org/2000/svg" width="120" height="120" viewBox="0 0 120 136">
    <path fill="none" stroke="red" stroke-width=".004" d="M-15-40h-4v-4h4v4m0 1.002h1.002v-6.005h-6.005v6.005H-15M-12-47v10h-10v-10h10m-.656 11.116.01.201.025.2.04.199.052.194.067.187.039.087.001.003.004.009.01.02.01.023.007.017.006.013.003.007-.16-.015-.145-.007h-.131l-.116.003-.072.005-.03.003-.086.011-.06.007-.055.012-.048.02-.027.017-.015.01-.037.036-.033.045-.085.176-.067.292-.041.317-.01.07-.034.461-.02.493v.023l-.009.51v.04l.15-.232.153-.222.087-.12.07-.093.156-.201.157-.188.13-.144.015-.016.009-.01.003-.004.088.156.105.175.118.182.101.144.024.034.01.012.114.15.12.137-.235.227-.058.055-.291.345-.28.393-.261.423-.144.272-.087.165-.025.055-.169.378.023.176.025.174.011.076.015.096.028.169.028.166.021.113.005.026.003.018.001.007.214-.216.108-.105.108-.103.11-.1.074-.064.007-.007.028-.024.02.024.085.104.126.138.14.14.135.125.011.01.143.123.126.096.008.006-.178.156-.11.105-.022.021-.043.041-.172.175-.168.184-.163.19-.16.195.106.215.014.024.104.189.131.21.035.052.107.158.155.207.076.095.09.11-.09.064-.758.532-.125-.144-.118-.146-.111-.148-.105-.148-.004-.007-.096-.14-.097-.15-.091.153-.077.137-.01.017-.084.154-.08.153-.076.15-.071.15-.003-.002-.142-.088-.832-.513.01-.02.12-.23.139-.252.055-.092.092-.155.155-.245.16-.241.101-.14.07-.095-.07-.212-.12-.37-.004-.017-.133-.573-.093-.605-.057-.618-.011-.252-.017-.382-.008-.652.008-.738.01-.276.018-.45.057-.685.093-.615.137-.515.12-.246.07-.14.07-.093.081-.082.09-.07.102-.057.11-.043.118-.027.154-.034.163-.026.066-.007.105-.01.178-.013.13-.002.054-.002h.189M-19.412-36v6.28h.465v-4.834h.916v5.901h-1.381v1.114h1.496v1.083H-22v-1.091h1.573v-1.106h-1.413v-4.81l.005-.19.015-.14.003-.032.034-.151.053-.131.077-.113.103-.094.046-.03.07-.044.123-.054.134-.036.147-.023.16-.011.051-.001.048-.001h.076l.022.124.032.14.043.148.05.149.058.146.007.015.003.006.053.114V-36h1.015m1.687.913h1.68v-.735h.992v8.438h-.497l-.051.187-.013.045-.06.236-.059.237-.012.055-.04.179-.047.225-.038.212-.514-.092-.607-.108H-17l.062-.182.007-.02.068-.2.067-.198.066-.196.065-.192v-.001l.062-.187h-1.046v-3.372h1.603v-.712h-1.679v-3.62M-4-50l-2.872 17.232-.928 5.57L-8-26l-7.52 5.013-.001.001L-17-20l-9-6-.2-1.197-.928-5.571L-30-50h26m-20.618 22.772v.03h.007l2.61 1.785L-17-21.997l5-3.416.859-.587 1.752-1.197h.007v-.031l.903-5.54L-8-35.71l2.003-12.293h-22.006L-26-35.709l.479 2.94.903 5.54m7.893-6.791v1.477h.68v-1.477h-.68m-4.168.572v3.728h.466v-3.821l-.053-.004-.029-.002-.075-.004-.069-.003-.061-.002h-.095l-.028.002-.021.007-.016.013-.011.02-.006.029-.002.037m4.847 3.767h-.61v1.222h.61Zm0 0" transform="matrix(4.29492 0 0 4.26451 133.142 217.49)"/>
    <path d="m40.84 119.297-19.278-12.762-8.55-50.969C8.309 27.536 4.46 4.543 4.46 4.476c.004-.07 25.047-.124 55.656-.124 49.461 0 55.656.027 55.656.246 0 .136-3.835 23.082-8.52 50.988-4.683 27.91-8.515 50.781-8.515 50.824 0 .047-8.691 5.836-19.312 12.867L60.117 132.06Zm35.652-6.574c8.914-6.055 16.258-11.059 16.32-11.121s3.356-19.883 7.32-44.043c3.962-24.16 7.247-44.133 7.302-44.38l.093-.452H12.73l.086.37c.047.204 3.325 20.137 7.286 44.298 3.957 24.16 7.214 43.988 7.238 44.062.055.18 32.562 22.262 32.777 22.266.094.004 7.461-4.95 16.375-11m0 0"/>
    <path d="m69.996 105.152-1.867-1.156.683-1.254c.372-.691 1.235-2.094 1.915-3.12l1.234-1.864-.414-1.258c-1.274-3.863-1.75-7.836-1.75-14.637-.004-7.996.543-12.172 1.941-14.828.457-.87.746-1.21 1.317-1.543.957-.555 2.43-.86 4.199-.867l1.426-.004.11 1.067c.093.925.464 2.347.831 3.218.102.235-.101.278-1.59.352-.937.047-1.84.137-2 .207-.386.156-.86 1.094-1.082 2.14-.289 1.36-.55 4.961-.492 6.864l.05 1.777 1.016-1.45a49 49 0 0 1 1.957-2.57l.938-1.117.578.954c.32.527.934 1.437 1.367 2.027l.785 1.074-1.14 1.227c-1.492 1.601-3.387 4.441-4.508 6.761l-.902 1.856.359 2.258c.195 1.242.398 2.257.453 2.257s.688-.593 1.41-1.312l1.313-1.313 1 1.036c.547.57 1.273 1.265 1.613 1.546l.617.516-1.449 1.445c-2.086 2.086-2.734 2.922-2.617 3.375.14.555 1.469 2.735 2.422 3.989.465.605.808 1.132.765 1.175-.039.04-.804.586-1.703 1.215l-1.629 1.145-.468-.54c-.258-.296-.88-1.109-1.38-1.808-.5-.703-.964-1.273-1.034-1.273-.118 0-1.696 2.726-1.922 3.324-.059.16-.196.281-.297.277-.106-.007-1.031-.53-2.055-1.168m0 0"/>
    <path d="M64.004 106.332a59 59 0 0 0-2.156-.41l-1.578-.274.792-2.308c.438-1.27.793-2.41.793-2.531 0-.18-.457-.227-2.234-.227h-2.23V86.461h6.945v-3.285h-7.277V67.902h7.277v-3.117h4.133v35.781l-1.11.051-1.113.047-.527 2.055c-.29 1.129-.578 2.441-.645 2.914-.062.484-.199.855-.3.844a9 9 0 0 1-.77-.145m.332-12.809v-2.628h-2.813v5.253h2.813Zm0-17.984v-3.203h-3.14v6.406h3.14ZM38.7 102.309v-2.22h6.78v-4.925h-6.136l.058-10.96c.043-8 .114-11.126.262-11.56.406-1.214 1.691-2.035 3.477-2.218 1-.106 1-.102 1.105.37.211.942.934 3.016 1.082 3.11.094.055.152-1.875.152-4.844v-4.937h4.137V90.91l1.117-.05 1.114-.047.086-20.61h3.636v24.961h-5.953v4.926h6.45v4.433H38.698Zm6.78-19.715v-8.301l-1.03.047-1.036.05-.043 8.25-.043 8.255h2.152ZM38.7 38.426V17.16h42.835v42.531H38.7Zm34.402 0v-12.89H47.137v25.78h25.965Zm0 0"/>
    <path d="M51.602 38.426v-8.457h17.035v16.914H51.602Zm0 0"/>
    <path fill="#f9f9f9" d="M43.914 112.555c-8.91-6.047-16.254-11.047-16.316-11.114-.149-.16-14.61-88.363-14.504-88.468.047-.047 21.25-.063 47.125-.04l47.043.04-7.235 44.086c-3.98 24.246-7.265 44.164-7.304 44.257-.047.133-29.72 20.375-32.176 21.957l-.43.278Zm21.676-8.36c.855-3.715.652-3.36 1.941-3.414l1.106-.05V64.62h-4.465v3.117h-7.277V83.34h7.277v2.957h-6.95v14.45h2.235c1.227 0 2.234.023 2.234.046 0 .027-.37 1.148-.828 2.492-.453 1.348-.804 2.465-.781 2.488.082.082 4.504.86 4.73.832.157-.02.41-.808.778-2.41m7.617.657c.523-.993 1-1.805 1.055-1.805s.422.46.82 1.027c1.027 1.457 1.836 2.422 2.031 2.422.09 0 .977-.566 1.969-1.258 1.598-1.117 1.777-1.289 1.59-1.539-1.43-1.914-2.203-3.054-2.7-3.984l-.597-1.117.945-1.149a29 29 0 0 1 2.196-2.304l1.246-1.157-.567-.422c-.312-.234-1.105-.964-1.765-1.629-.657-.664-1.254-1.207-1.325-1.207-.074 0-.687.551-1.359 1.227-.676.676-1.25 1.207-1.273 1.184-.078-.079-.563-3.215-.582-3.774-.051-1.363 3.527-7.187 5.722-9.305.418-.402.758-.789.758-.859 0-.074-.43-.71-.953-1.422-.52-.707-1.18-1.68-1.461-2.156l-.512-.867-1.027 1.215a38 38 0 0 0-1.93 2.515l-.898 1.305V78.16c.004-3.379.433-6.7 1.012-7.832.39-.758.738-.863 2.835-.863 1.368 0 1.598-.04 1.516-.246-.496-1.258-.902-2.75-.996-3.68l-.117-1.125-2 .086c-3.258.145-4.442.71-5.395 2.586-1.27 2.5-1.816 6.937-1.816 14.758 0 6.535.39 10.11 1.531 13.992l.559 1.898-1.14 1.711c-1.356 2.035-2.653 4.356-2.575 4.598.058.168 3.91 2.602 4.133 2.613.062 0 .543-.808 1.07-1.804m-16.977-2.543v-2.383h-6.449v-4.598h5.953V70.04h-4.132v20.69h-1.82V63.96H45.32l-.086 9.446-.359-1.152a31 31 0 0 1-.46-1.621l-.11-.477-1.14.094c-1.9.16-3.126.914-3.653 2.25-.184.465-.239 2.746-.278 11.703l-.05 11.125h6.132v4.598h-6.78v4.761H56.23Zm25.473-63.883v-21.43H38.535v42.86h43.168Zm0 0"/>
    <path fill="#f9f9f9" d="M61.691 93.523V91.06h2.48v4.925h-2.48ZM61.36 75.54V72.5h2.812v6.078h-2.813Zm-17.864 7.062v-8.13h1.82V90.73h-1.82ZM47.3 38.426V25.699h25.638v25.453H47.3Zm21.5 0v-8.621H51.439v17.242H68.8Zm0 0"/>
</svg>
