<svg xmlns="http://www.w3.org/2000/svg" width="120" height="120" viewBox="0 0 120 136">
    <path fill="none" stroke="red" stroke-width=".004" d="m-51.596-39.525.525.525.182.182.182-.182 3-3-3-3-.182-.182-.182.182-.525.525-.075-.525-.161-1.125-.118-.825.825.118 1.65.236-.707.707.89.889 1.792 1.793V-45h-1l1-1.333.5-.667.5.667 1 1.333h-1v1.793L-44.707-45l.89-.889-.708-.707 1.65-.236.825-.118-.118.825-.16 1.125-.076.525-.525-.525-.182-.182-.182.182-3 3 3 3 .182.182.182-.182.525-.525.075.525.161 1.125.118.825-.825-.118-1.65-.236.707-.707-.89-.889-1.792-1.793V-39h1l-1 1.333-.5.667-.5-.667-1-1.333h1v-1.793L-49.293-39l-.89.889.708.707-1.65.236-.825.118.118-.825.16-1.125.076-.525M-47.899-36h1.362v3.539h4.366v1.264h-4.366v2.144h2.288l.158-.306.16-.294.166-.28.17-.263.173-.247.174-.225.003-.004.166.098.07.04.137.074.23.12.233.116.22.106.01.004.111.05.068.032-.405.482-.371.565-.166.313-.168.318-.24.558-.053.124-.165.475-.084.24-.2.733-1.204-.231-.119-.023.059-.226.06-.22.001-.004.064-.221.015-.048.052-.17.07-.216.076-.213h-1.759V-26h-1.362v-1.796h-3.486v-1.257h3.486v-2.144H-52v-1.264h4.101V-36m-8.637-3 .536 3.29.28 1.723.199 1.215v.004l.903 5.54v.03h.007l2.61 1.785L-47-21.997l5-3.416.859-.587 1.752-1.197h.007v-.031l.903-5.54v-.004l.198-1.215.28-1.722.122-.744.415-2.547.978-6 .49-3.002h-22.007l.03.19.46 2.812.902 5.54.075.46M-34-50l-2.872 17.232-.928 5.57L-38-26l-7.52 5.013-.001.001L-47-20l-9-6-.2-1.197-.928-5.571L-60-50Zm0 0" transform="matrix(4.29492 0 0 4.26451 261.99 217.49)"/>
    <path fill="red" d="m40.84 119.297-19.278-12.762-8.55-50.969C8.309 27.536 4.46 4.543 4.46 4.476c.004-.07 25.047-.124 55.656-.124 49.461 0 55.656.027 55.656.246 0 .136-3.835 23.082-8.52 50.988-4.683 27.91-8.515 50.781-8.515 50.824 0 .047-8.691 5.836-19.312 12.867L60.117 132.06Zm35.648-6.57c8.91-6.051 16.258-11.055 16.32-11.122.067-.066 3.36-19.886 7.325-44.046 3.96-24.16 7.246-44.133 7.3-44.38l.094-.452H12.73l.086.37c.047.204 3.325 20.137 7.286 44.298 3.957 24.16 7.214 43.988 7.238 44.062.05.176 32.562 22.262 32.777 22.266.094.004 7.457-4.946 16.371-10.996m0 0"/>
    <path fill="red" d="M56.398 102.719V98.94h-15.05v-5.254h15.05v-9.363H38.7V79.07h17.7V64.125h5.62V79.07h18.692v5.254H62.02v9.364h10.023l.379-.782c.578-1.183 2.039-3.594 2.976-4.918l.84-1.18 1.532.84a48 48 0 0 0 2.582 1.313c.937.422 1.023.5.828.75-.118.152-.52.648-.89 1.102-2.407 2.937-4.806 7.917-6.196 12.867-.266.937-.512 1.734-.551 1.777-.082.078-5.238-.879-5.356-.996-.09-.09.626-2.715 1.176-4.328l.41-1.192H62.02v7.555h-5.622Zm.614-47.301-3.098-4.102h4.137v-7.96l-5.871 5.828-5.867 5.824 1.433 1.433c.969.965 1.36 1.457 1.2 1.508-.442.145-9.805 1.414-9.876 1.344-.039-.04.25-2.332.645-5.09l.715-5.02 1.414 1.395c.777.77 1.484 1.399 1.574 1.399.086 0 3.23-3.051 6.984-6.774l6.82-6.773-13.804-13.711-1.445 1.426c-.793.785-1.47 1.394-1.504 1.351-.059-.07-1.438-9.598-1.438-9.937 0-.114 1.739.074 4.922.527 2.703.39 5.027.707 5.164.71.133.005-.441.692-1.281 1.528l-1.523 1.52 5.746 5.707c3.16 3.137 5.8 5.703 5.87 5.703.067 0 .122-1.734.122-3.856v-3.851l-2.059-.047-2.054-.047 2.976-3.941c1.637-2.168 3.04-4.004 3.117-4.082.078-.078 1.516 1.68 3.227 3.941l3.086 4.082-4.156.094v3.851c0 2.122.054 3.856.12 3.856.067 0 2.712-2.566 5.872-5.703l5.746-5.707-1.524-1.52c-.84-.836-1.418-1.523-1.28-1.527.132-.004 2.456-.32 5.163-.711 4.86-.695 4.922-.7 4.914-.363-.004.187-.32 2.504-.703 5.148l-.695 4.805-1.489-1.48-1.484-1.485-6.91 6.86-6.906 6.855 6.824 6.773c3.75 3.727 6.894 6.778 6.984 6.778s.797-.63 1.575-1.399l1.414-1.394.722 5.007c.403 2.754.692 5.047.649 5.09-.082.082-9.41-1.176-9.887-1.332-.16-.05.23-.543 1.2-1.508l1.433-1.433-5.871-5.824-5.868-5.829v7.961h4.137l-3 3.985a548 548 0 0 1-3.11 4.101c-.058.067-1.5-1.726-3.202-3.984m0 0"/>
    <path fill="#f9f9f9" d="M43.914 112.555c-8.91-6.047-16.254-11.047-16.316-11.114-.149-.16-14.61-88.363-14.504-88.468.047-.047 21.25-.063 47.125-.04l47.043.04-7.235 44.086c-3.98 24.246-7.265 44.164-7.3 44.257-.051.13-29.801 20.43-32.18 21.957l-.43.278Zm18.274-9.672v-3.778h3.656c2.996 0 3.64.04 3.57.22-.176.456-1.098 3.507-1.324 4.402l-.238.925 2.691.512c1.48.281 2.809.508 2.95.508.163 0 .323-.25.437-.695 1.496-5.774 4.257-11.493 7.152-14.805.477-.543.633-.828.484-.879-.363-.125-3.695-1.8-4.55-2.285l-.801-.453-.32.402c-.75.941-2.286 3.344-3.13 4.89l-.906 1.665-4.836.004-4.835.007v-9.035h18.859l-.043-2.75-.047-2.75-9.387-.043-9.382-.043V63.961H56.23v14.945H38.535v5.582H56.23v9.035H41.18v5.582h15.05v7.555h5.958Zm1.324-47.461 3.16-4.188-2.16-.043-2.16-.046v-7.461l5.664 5.62 5.66 5.622-1.555 1.55-1.55 1.551.562.098c1.082.188 9.793 1.402 10.066 1.402.246 0 .196-.55-.5-5.293-.43-2.914-.789-5.332-.797-5.375-.011-.047-.71.602-1.55 1.434l-1.532 1.516-13.476-13.383 6.781-6.73 6.777-6.731 1.485 1.469c.816.804 1.511 1.433 1.547 1.394.07-.09 1.578-10.566 1.527-10.629-.02-.02-2.465.313-5.438.738l-5.398.782 1.527 1.523 1.524 1.52-5.66 5.62-5.664 5.626v-7.309H64.5c1.184 0 2.152-.039 2.152-.086 0-.12-6.441-8.617-6.535-8.617s-6.531 8.496-6.531 8.617c0 .047.969.086 2.148.086h2.153v7.305l-5.621-5.578-5.625-5.582 1.52-1.516c.835-.832 1.487-1.543 1.448-1.582-.129-.113-10.648-1.57-10.734-1.484-.121.12 1.34 10.304 1.508 10.484.086.098.722-.414 1.629-1.312l1.488-1.47 6.738 6.692 6.739 6.688-6.782 6.73-6.777 6.735-1.516-1.496c-1.238-1.231-1.527-1.442-1.601-1.192-.219.77-1.5 10.23-1.399 10.332.094.094 8.746-1.035 10.282-1.344.472-.093.468-.097-1.036-1.597l-1.507-1.504 5.625-5.578 5.62-5.582v7.297l-2.14.046-2.137.043 3.25 4.309c1.786 2.367 3.305 4.254 3.371 4.187.063-.066 1.54-2.003 3.282-4.308m0 0"/>
</svg>
