<svg xmlns="http://www.w3.org/2000/svg" width="120" height="120" viewBox="0 0 120 136">
    <path fill="none" stroke="red" stroke-width=".004" d="M-47.5-45h1v2.5h2.5v1h-2.5v2.5h-1v-2.5H-50v-1h2.5V-45m5.24-.663.01.163-.01.163-.033.16-.04.12-.012.035-.072.147-.09.136-.11.123-.122.108-.136.091-.133.065-.014.007-.154.052-.161.032-.163.01-.163-.01-.161-.032-.154-.052-.147-.072-.136-.091-.123-.108-.108-.123-.091-.136-.072-.147-.011-.034-.041-.12-.032-.161-.01-.163.01-.163.032-.16.052-.155.072-.147.091-.136.108-.123.123-.108.136-.091.093-.046.054-.026.154-.052.161-.032.163-.01.163.01.16.032.155.052.014.007.133.065.136.09.123.109.108.123.091.136.072.147.052.154.032.16m-.084 6.686.023.066.029.088.032.16.011.164-.01.163-.033.16-.052.155-.072.147-.09.136-.11.123-.122.108-.136.091-.133.065-.014.007-.154.052-.161.032-.163.01-.163-.01-.161-.032-.154-.052-.054-.027-.093-.045-.136-.091-.123-.108-.108-.123-.091-.136-.072-.147-.052-.154-.032-.161-.01-.163.01-.163.032-.16.03-.089.022-.066.072-.147.091-.136.108-.123.123-.108.136-.091.147-.072.154-.052.161-.032.163-.01.163.01.16.032.155.052.014.007.133.065.136.09.123.109.108.123.091.136.072.147m-6.916-6.685.01.163-.01.163-.032.16-.04.12-.012.035-.072.147-.091.136-.108.123-.123.108-.136.091-.147.072-.154.052-.161.032-.163.01-.163-.01-.161-.032-.154-.052-.147-.072-.075-.05-.061-.041-.123-.108-.108-.123-.091-.136-.072-.147-.012-.034-.04-.12-.032-.161-.011-.163.01-.163.033-.16.052-.155.072-.147.091-.136.108-.123.123-.108.06-.04.076-.051.147-.072.154-.052.161-.032.163-.01.163.01.161.032.154.052.147.072.136.09.123.109.108.123.09.136.073.147.052.154.032.16m-.084 6.686.022.066.03.088.032.16.01.164-.01.163-.032.16-.052.155-.072.147-.091.136-.108.123-.123.108-.136.091-.147.072-.154.052-.161.032-.163.01-.163-.01-.161-.032-.154-.052-.147-.072-.075-.05-.061-.041-.123-.108-.108-.123-.091-.136-.072-.147-.052-.154-.032-.161-.011-.163.01-.163.033-.16.03-.089.022-.066.072-.147.091-.136.108-.123.123-.108.06-.04.076-.051.147-.072.154-.052.161-.032.163-.01.163.01.161.032.154.052.147.072.136.09.123.109.108.123.09.136.073.147m5.796 3.7-.212.2-.19.232-.02.03-.148.227-.144.274-.118.284-.089.286-.24-.095-.346-.137-.163-.065.102-.323.06-.163.06-.158.06-.13.083-.18.169-.291.199-.262.233-.226.622.44.052.035.03.022m-1.16 1.758v4.83h-1.445l-.004.018-.013.056-.01.05-.004.022-.012.07-.01.072-.01.07-.012.069h1.736v.778h-4.835v-.778h1.946l.034-.076.034-.074.034-.072.035-.07.036-.068.027-.049.01-.017h-1.827v-2.72h3.197v-.345h-3.66v-.707h3.66v-.353h-3.803v-.071l.001-.073.001-.084.003-.084.003-.073.032-.593.005-.095.04-.555.042-.374.006-.06.06-.331.073-.236.093-.156.093-.098h.001l.097-.078.103-.06.012-.005.098-.04.117-.03.123-.018.12-.006.146-.005.166-.002h.184l.194.002.2.003.012.096.005.044.027.149.036.153.044.15.006.016.046.125.024.054.015.033.009.018.004.01.002.003.002.006v.002l-.154-.015-.147-.012-.136-.01-.12-.006-.103-.004-.08-.001h-.028l-.03.002-.052.007-.045.013-.04.02-.038.027-.037.035-.045.082-.034.123-.004.015-.033.202-.027.276-.024.357-.008.174-.012.272h3.847m-.681-1.958-.005.225-.001.252.004.185.002.084.014.277.022.276.032.266h-.01l-.671.072-.038-.257-.03-.273-.008-.102-.014-.177-.01-.166-.005-.105-.008-.254v-.223l.71-.078.012-.002h.004m-1.16.224.02.191.032.215.007.032.037.195.054.233.061.228.066.215-.007.002-.58.15-.057.016-.006-.015-.07-.195-.07-.224-.04-.144-.023-.084-.053-.222-.031-.155-.01-.053-.026-.184.034-.01.012-.003.02-.006.015-.004.043-.013.02-.006.527-.152.015-.004.01-.003m-1.138.362.023.076.023.076.06.166.073.174.082.176.089.172.092.163-.247.097-.344.135-.09-.135-.014-.021-.1-.166-.086-.16-.005-.01-.081-.167-.068-.156-.05-.14.204-.089.265-.115.174-.076m-4.149-.245.13-.38.172-.267.222-.16.28-.056.625.338.316.713.059.133.042.096.163.928.088.507.036.517.022.307.07.995.045 2.093.008 2.176v.081h5.285v-2.142l.018-1.048.068-1.155.14-1.204.019-.103.142-.746.067-.348.287-.954.053-.176.293-.626.173-.37.005-.012.002.002.125.12.163.135.184.136.19.13.184.11.162.08-.222.47-.213.449-.303 1.008-.052.281-.057.31-.085.465-.109 1.061-.048 1.024-.011.945V-26h-7.672l.013-1.116v-.081l.01-.875.006-1.987-.027-1.772-.03-.63-.015-.307-.024-.49-.07-.534-.054-.417-.19-.346-.047.053-.04.151-.032.237-.027.312-.02.376-.008.208-.002.094-.003.06v.034l-.002.022v.01l-.102-.189-.11-.192-.115-.188-.116-.177-.114-.158-.11-.132.068-.61.034-.172.061-.32M-34-50l-2.872 17.232-.928 5.57L-38-26l-7.52 5.013-.001.001L-47-20l-9-6-.2-1.197-.928-5.571L-60-50h26m-20.618 22.772v.03h.007l2.61 1.785L-47-21.997l5-3.416.859-.587 1.752-1.197h.007v-.031l.903-5.54.479-2.941 2.003-12.293h-22.006L-56-35.709l.479 2.94.903 5.54m6.712-2.15h2.104v-.36h-2.104v.36m2.104-1.34h-2.104v.37h2.104Zm0 0" transform="matrix(4.29492 0 0 4.26451 261.99 217.49)"/>
    <path d="m40.84 119.297-19.278-12.762-8.55-50.969C8.309 27.536 4.46 4.543 4.46 4.476c.004-.07 25.047-.124 55.656-.124 49.461 0 55.656.027 55.656.246 0 .136-3.835 23.082-8.52 50.988-4.683 27.91-8.515 50.781-8.515 50.824 0 .047-8.691 5.836-19.312 12.867L60.117 132.06Zm35.648-6.57c8.91-6.051 16.258-11.055 16.32-11.122.067-.066 3.36-19.886 7.325-44.046 3.96-24.16 7.246-44.133 7.3-44.38l.094-.452H12.73l.086.37c.047.204 3.325 20.137 7.286 44.298 3.957 24.16 7.214 43.988 7.238 44.062.05.176 32.562 22.262 32.777 22.266.094.004 7.457-4.946 16.371-10.996m0 0"/>
    <path d="M44.11 97.586c.109-10.43-.133-19.945-.61-23.656-.258-1.989-.395-2.567-.754-3.176-.73-1.242-.988-.516-1.172 3.34l-.113 2.328-.883-1.484c-.484-.817-1.098-1.754-1.36-2.083l-.48-.601.223-1.684c.539-4.136 1.547-6.113 3.266-6.386.472-.079.82.035 1.89.609l1.309.703.883 1.984c.785 1.774.937 2.305 1.414 5.02.793 4.5 1.074 9.05 1.23 19.953.074 5.149.14 9.379.152 9.402.008.024 5.149.043 11.426.043h11.414v-6.53c0-3.595.075-7.712.168-9.157.547-8.563 1.922-15.121 4.168-19.898l1.016-2.168.648.578c.633.57 2.895 2.101 3.301 2.238.145.047-.066.648-.676 1.941-1.597 3.399-2.718 7.774-3.254 12.684-.394 3.64-.57 9.004-.574 17.23l-.004 7.68H44.016Zm0 0"/>
    <path d="M50.277 98.613V96.97l8.352-.008.89-1.961h-7.917V83.668h13.726v-1.64h-15.71V79.07h15.71v-1.64H48.965l.078-1.274c.5-8.152.77-9.726 1.855-10.758.86-.816 1.575-1 4.22-1.074l2.437-.07v.41c0 .227.18 1.02.394 1.762l.395 1.351-1.598-.109c-1.906-.137-2.422.012-2.746.781-.266.63-.578 3.38-.578 5.055v1.133h16.371V95h-6.094l-.094.492-.19.985-.099.492h7.47v3.285h-20.51Zm15.051-7.23v-.824l-4.59.046-4.59.043-.05.782-.051.777h9.281Zm0-4.102v-.82h-9.262v1.64h9.262Zm4.086-14.414c-1.445-.586-1.453-.594-1.348-1.094.368-1.734 2.196-5.132 3.356-6.226l.496-.473 1.39.957 1.391.953-.949 1.125c-1.008 1.196-2.078 3.09-2.543 4.516-.156.473-.293.855-.309.848-.015-.012-.683-.282-1.484-.606m0 0"/>
    <path d="M64.426 72.648c-.145-.625-.422-3.91-.422-5.015V66.62l1.035-.105a27 27 0 0 0 1.465-.188l.43-.082.09 3.25c.05 1.79.078 3.266.062 3.281-.016.02-.598.082-1.297.149-1.246.11-1.273.105-1.363-.278m-4.043.236c-.254-.555-1.176-4.07-1.176-4.492 0-.243.258-.383 1.2-.653.66-.191 1.292-.375 1.406-.414.128-.043.207.09.207.348 0 .55.632 3.55.914 4.348.25.707.34.625-1.079.976-.41.098-.863.215-1.007.258-.164.047-.336-.09-.465-.371m-4.117.48c-.383-.535-1.688-3.09-1.688-3.3 0-.149 2.453-1.27 2.531-1.157.024.035.141.36.262.723.121.36.508 1.242.86 1.96.351.72.62 1.321.601 1.34-.047.04-2.145.887-2.203.887-.024 0-.188-.203-.363-.453M73.488 58.25c-1.527-.543-2.695-1.695-3.293-3.246-.43-1.117-.27-3.031.348-4.156.934-1.707 2.664-2.727 4.629-2.73 3.644-.009 6.156 3.624 4.871 7.034-.973 2.582-3.992 4.008-6.555 3.098m-29.925.07c-2.368-.77-3.86-3-3.66-5.46.199-2.47 2.144-4.438 4.706-4.755 1.227-.152 2.926.399 3.926 1.27 2.793 2.441 2.18 6.984-1.164 8.61-1.086.527-2.766.675-3.809.335M58.05 45.816V40.48H47.3v-4.105h10.75V25.699h4.138v10.676h10.75v4.105h-10.75v10.672H58.05Zm15.712-17.312c-1.492-.453-2.719-1.543-3.399-3.02-.379-.828-.43-1.125-.379-2.218.075-1.489.489-2.461 1.489-3.485 1.996-2.039 5.324-2.031 7.394.02 1.094 1.09 1.43 1.953 1.426 3.683-.004 1.282-.063 1.59-.45 2.317-.898 1.707-2.831 2.87-4.722 2.84-.52-.008-1.129-.07-1.36-.137m-30.589-.199c-1.254-.492-2.488-1.75-2.973-3.02-.77-2.023-.203-4.21 1.473-5.707 2.574-2.3 6.578-1.512 8.117 1.598.95 1.91.645 4.097-.785 5.68-1.063 1.167-2.129 1.675-3.688 1.746-.976.046-1.433-.02-2.144-.297m0 0"/>
    <path fill="#f9f9f9" d="M43.91 112.559c-8.914-6.047-16.265-11.086-16.332-11.196-.07-.113-3.144-18.605-6.828-41.093-8.285-50.547-7.746-47.207-7.652-47.301.043-.043 21.246-.059 47.12-.035l47.044.039-7.235 44.086c-3.98 24.246-7.265 44.164-7.304 44.261-.051.13-29.727 20.38-32.176 21.953l-.43.278Zm33-13.004c.008-17.672.836-24.2 3.88-30.594.839-1.773.901-1.977.647-2.125-1.05-.606-3.195-2.094-3.527-2.45-.219-.234-.484-.425-.586-.425-.34 0-2.187 4.309-2.96 6.898-1.884 6.32-2.587 12.926-2.587 24.344v6.531H49.285l-.004-1.273c-.004-.7-.074-4.969-.156-9.484-.176-9.762-.488-14.422-1.242-18.641-.485-2.711-.64-3.25-1.43-5.027l-.887-1.989-1.332-.703c-1.14-.605-1.43-.695-2.015-.617-1.852.25-2.864 2.156-3.438 6.492l-.242 1.848.758 1.023a24 24 0 0 1 1.422 2.219c.363.652.726 1.188.808 1.188s.153-.63.153-1.399c0-1.601.289-4.473.488-4.824.254-.45.828 1.055 1.082 2.82.504 3.5.645 7.988.648 20.688l.004 12.605h33.004Zm-5.957-.942v-1.808h-7.398l.133-.696c.078-.386.14-.754.144-.824.004-.066 1.422-.12 3.148-.12h3.145V74.472h-16.54v-.97c0-1.53.33-4.288.58-4.886.331-.785.812-.914 2.843-.754 1.504.117 1.699.102 1.61-.117-.395-.96-.74-2.129-.833-2.812l-.105-.809h-2.121c-2.547 0-3.551.191-4.461.848-1.426 1.023-1.676 2.261-2.227 11.02l-.101 1.6h16.394v1.313H49.45v3.285h15.715v1.313H51.437v11.66h7.743l-.348.82-.352.82h-8.367v3.614h20.84ZM57.81 73.574c.597-.226 1.156-.449 1.242-.5.082-.054-.067-.48-.328-.949-.41-.73-1.063-2.262-1.395-3.273-.082-.254-.23-.223-1.46.296-.755.32-1.423.633-1.49.696-.233.23 1.825 4.136 2.185 4.136.085 0 .648-.183 1.246-.406m13.55-.777c.586-1.77 1.735-3.707 3.004-5.063l.7-.742-1.59-1.105-1.59-1.11-.563.535c-1.203 1.157-2.3 3.106-3.191 5.68l-.473 1.367.531.22c.293.12.977.405 1.524.632s1.078.418 1.18.426c.105.008.316-.371.468-.84m-9.367.371c.668-.172 1.238-.336 1.27-.367.031-.028-.157-.867-.414-1.864-.262-1-.524-2.277-.59-2.847-.133-1.176.062-1.13-2.098-.5-1.023.3-1.117.363-1.113.773.004 1.11 1.215 5.125 1.539 5.121.105 0 .742-.144 1.406-.316m4.215-.102c1.102-.097 1.273-.152 1.184-.379-.063-.148-.153-1.695-.2-3.445l-.093-3.176-.676.09c-.375.051-1.11.14-1.633.2l-.95.109v1.172c0 1.222.266 4.449.43 5.242.067.328.172.433.372.379.152-.043.855-.13 1.566-.192M47.52 58.152c1.101-.535 1.992-1.472 2.558-2.707.34-.734.426-1.18.426-2.18 0-2.203-1.121-3.921-3.195-4.886-1.329-.617-3.184-.61-4.485.023-1.836.891-2.953 2.493-3.094 4.426-.101 1.399.16 2.45.883 3.54 1.422 2.144 4.524 2.944 6.907 1.784m29.964.051c1.2-.566 2.278-1.703 2.72-2.871.491-1.3.437-3.234-.126-4.375-.531-1.074-1.547-2.059-2.652-2.566-1.348-.618-3.196-.618-4.528 0-3.035 1.414-4.105 5.21-2.234 7.949 1.137 1.668 2.68 2.418 4.754 2.316.86-.043 1.492-.18 2.066-.453M62.352 45.98v-5.335h10.75V36.21h-10.75V25.535h-4.465v10.676h-10.75v4.434h10.75v10.671h4.465ZM47.086 28.465c1.316-.488 2.695-1.86 3.113-3.094 1.516-4.46-2.539-8.488-7.031-6.984-1.258.422-2.625 1.785-3.133 3.125-.515 1.355-.43 3.101.219 4.41 1.191 2.422 4.172 3.531 6.832 2.543m30.043.02c1.152-.426 2.223-1.364 2.832-2.481.402-.73.496-1.117.555-2.293.058-1.277.02-1.516-.391-2.43-1.39-3.078-5.184-4.156-8.016-2.281-1.554 1.027-2.34 2.555-2.34 4.547 0 1.023.083 1.375.516 2.25 1.254 2.527 4.184 3.68 6.844 2.687m0 0"/>
    <path fill="#f9f9f9" d="M56.398 87.281v-.656h8.766v1.313h-8.766Zm0 4.106v-.657h8.766v1.313h-8.766Zm0 0"/>
</svg>
