<svg xmlns="http://www.w3.org/2000/svg" width="120" height="120" viewBox="0 0 120 136">
    <path fill="none" stroke="red" stroke-width=".004" d="m-50.182-44.475.707-.707 1.975 1.975V-45h1v1.793l1.975-1.975.707.707-1.975 1.975H-44v1h-1.793l1.975 1.975-.707.707-1.975-1.975V-39h-1v-1.793l-1.975 1.975-.707-.707 1.975-1.975H-50v-1h1.793l-1.975-1.975M-42-34.927l-1.167.628-.932.731-.708.8-.014.016-.235.386-.303.498-.382.93-.25.964h3.68v1.312h-3.862l-.034.465-.02.458-.013.451-.001.09-.001.046-.005.306-.004.43-.005.416h-1.38l.006-.42.008-.43.009-.347.003-.094.018-.45.025-.457.036-.464h-4.181v-1.312h3.673l-.397-1.051-.5-.975-.216-.317-.308-.451-.08-.115-.71-.774-.82-.65-.81-.446-.046-.025-.036-.02-.022-.013-.016-.008.167-.154.176-.189.176-.21.164-.22.144-.213.114-.195.91.544.796.663.201.224.077.085.417.466.602.88.196.37.32.607.334.81.045.107.031.077.022.05.009.024.129-.405.145-.399.164-.393.184-.385.05-.093.158-.285.045-.07.188-.3-.296.201-.013-.012-.09-.082-.227-.207-.346-.328-.096-.095-.247-.246-.322-.34-.281-.32-.222-.292 1.072-.788.01-.007.025-.019.016-.01.181.264.23.295.266.314.291.323.302.321.276.287.024.024.336-.353.09-.083.279-.254.405-.32.442-.304.479-.284.455-.23.03-.015.023-.012.011-.005.113.176.137.19.157.193.043.048.126.14.178.175.002.002.177.149M-34-50l-2.872 17.232-.928 5.57L-38-26l-7.52 5.013-.001.001L-47-20l-9-6-.2-1.197-.928-5.571L-60-50h26m-20.618 22.772v.03h.007l2.61 1.785L-47-21.997l5-3.416.859-.587 1.752-1.197h.007v-.031l.903-5.54.479-2.941 2.003-12.293h-22.006L-56-35.709l.479 2.94Zm0 0" transform="matrix(4.29492 0 0 4.26451 261.99 217.49)"/>
    <path fill="red" d="m40.84 119.297-19.278-12.762-8.55-50.969C8.309 27.536 4.46 4.543 4.46 4.476c.004-.07 25.047-.124 55.656-.124 49.461 0 55.656.027 55.656.246 0 .136-3.835 23.082-8.52 50.988-4.683 27.91-8.515 50.781-8.515 50.824 0 .047-8.691 5.836-19.312 12.867L60.117 132.06Zm35.648-6.57c8.91-6.051 16.258-11.055 16.32-11.122.067-.066 3.36-19.886 7.325-44.046 3.96-24.16 7.246-44.133 7.3-44.38l.094-.452H12.73l.086.37c.047.204 3.325 20.137 7.286 44.298 3.957 24.16 7.214 43.988 7.238 44.062.05.176 32.562 22.262 32.777 22.266.094.004 7.457-4.946 16.371-10.996m0 0"/>
    <path fill="red" d="M57.61 102.102c.062-2.415.156-4.965.214-5.665l.11-1.273h-17.91v-5.418h7.855c4.32 0 7.855-.039 7.855-.082s-.379-1.094-.847-2.34c-2.907-7.738-8.11-14.101-14.14-17.297l-1.888-1 1.082-1.164a24 24 0 0 0 1.93-2.406c.461-.687.926-1.223 1.024-1.195.101.031.98.531 1.957 1.113 5.855 3.504 10.73 9.652 13.953 17.594.449 1.11.855 2.011.902 2.011.05 0 .297-.644.555-1.433.726-2.258 1.832-4.734 2.98-6.695.578-.993 1.031-1.832 1-1.864-.031-.035-.32.102-.64.301l-.59.36-1.09-.954c-1.469-1.277-5.477-5.418-6.137-6.336l-.531-.738 2.23-1.625c1.223-.89 2.286-1.64 2.352-1.664.07-.023.25.164.398.414.153.254.657.938 1.125 1.52.914 1.14 5.114 5.742 5.239 5.742.043 0 .648-.574 1.347-1.274 2.243-2.246 5.301-4.453 8.164-5.882l1.434-.715.766 1.062c.421.586 1.277 1.582 1.902 2.211l1.137 1.145-1.434.77c-3.102 1.663-3.734 2.062-5.613 3.55-4.555 3.61-7.758 8.563-9.313 14.406-.277 1.04-.543 2.02-.59 2.176-.078.27.372.29 7.864.29h7.953v5.417H63.559l-.106 1.848a86 86 0 0 0-.11 4.062c0 1.219-.05 2.938-.109 3.82l-.105 1.602h-5.625Zm-9.524-51.727-1.445-1.437 4.257-4.227 4.258-4.23h-7.855v-4.106h7.855l-4.3-4.27-4.297-4.27 1.445-1.437 1.445-1.433 4.18 4.144c2.297 2.278 4.23 4.145 4.3 4.145.067 0 .122-1.7.122-3.777v-3.778h4.136v3.778c0 2.078.055 3.777.122 3.777.066 0 2.004-1.867 4.3-4.145l4.176-4.144 1.445 1.433 1.45 1.438-4.301 4.27-4.297 4.269h7.856v4.105h-7.856l4.258 4.23 4.258 4.227-1.446 1.438-1.445 1.434-4.262-4.227-4.257-4.227v7.797H58.05v-7.797l-4.258 4.227-4.262 4.227Zm0 0"/>
    <path fill="#f9f9f9" d="M43.91 112.559c-8.914-6.047-16.265-11.086-16.332-11.196-.07-.113-3.144-18.605-6.828-41.093-8.285-50.547-7.746-47.207-7.652-47.301.043-.043 21.246-.059 47.12-.035l47.044.039-7.235 44.086c-3.98 24.246-7.265 44.164-7.304 44.257-.047.133-29.72 20.375-32.176 21.957l-.43.278Zm19.496-7.09c.051-.656.125-3.13.168-5.5.043-2.367.125-4.38.18-4.473.07-.11 2.922-.168 8.363-.168h8.262v-5.746h-7.856c-5.878 0-7.855-.05-7.855-.191 0-.582 1.11-4.16 1.824-5.871 2.403-5.766 6.602-10.27 12.574-13.497 1.313-.71 2.454-1.312 2.536-1.343.082-.028-.446-.64-1.168-1.36-.723-.718-1.63-1.765-2.012-2.332-.387-.562-.793-1.023-.902-1.023-.317.004-3.098 1.515-4.688 2.543-1.894 1.226-2.965 2.09-4.754 3.828l-1.465 1.426-1.238-1.313c-1.844-1.96-3.871-4.304-4.719-5.457l-.754-1.023-2.37 1.722c-1.31.95-2.395 1.82-2.423 1.938-.097.445 3.067 3.906 6.293 6.875 1.364 1.254 1.653 1.453 1.864 1.277.457-.379.379-.09-.293 1.074-.887 1.532-2.114 4.274-2.684 5.993-.254.765-.5 1.46-.547 1.539-.047.082-.512-.88-1.039-2.133-3.277-7.832-7.973-13.629-13.89-17.156-1.047-.625-1.977-1.133-2.067-1.133-.086 0-.527.566-.98 1.258-.453.687-1.368 1.828-2.032 2.527l-1.207 1.277 1.45.809c.8.45 1.687.934 1.972 1.078 1.094.555 4.176 3.148 5.656 4.754 2.895 3.144 5.32 7.14 7.036 11.574l.902 2.34H39.859v5.746h17.907l-.102 1.027c-.059.563-.144 2.872-.195 5.13s-.121 4.347-.157 4.64l-.066.535h6.07ZM53.793 47.91l4.094-4.062v7.468h4.465v-7.632l4.214 4.183 4.22 4.184 1.57-1.555 1.574-1.555-8.352-8.296h7.524V36.21h-7.524l8.43-8.375-1.61-1.602-1.613-1.597-4.215 4.183-4.218 4.184v-7.469h-4.465v7.469l-4.219-4.184-4.215-4.183-1.574 1.554-1.574 1.559 4.261 4.23 4.258 4.23h-7.687v4.435h7.523l-4.176 4.148-4.175 4.145 1.527 1.519c.844.836 1.605 1.52 1.695 1.52s2.008-1.832 4.262-4.067m0 0"/>
</svg>
