<svg xmlns="http://www.w3.org/2000/svg" width="120" height="120" viewBox="0 0 120 136">
    <path fill="none" stroke="red" stroke-width=".004" d="m-42.404-39.525.075.525.161 1.125.118.825-.825-.118-1.65-.236.707-.707-.89-.889-1.792-1.793V-39h1l-1 1.333-.5.667-.5-.667-1-1.333h1v-1.793L-49.293-39l-.89.889.708.707-1.65.236-.825.118.118-.825.16-1.125.076-.525.525.525.182.182.182-.182.707-.707 1.793-1.793H-50v1l-2-1.5.666-.5 1.334-1v1h1.793L-50-44.293l-.707-.707-.182-.182-.182.182-.525.525-.075-.525-.161-1.125-.118-.825.825.118 1.65.236-.707.707.89.889 1.792 1.793V-45h-1l1-1.333.5-.667.5.667 1 1.333h-1v1.793L-44.707-45l.89-.889-.708-.707 1.65-.236.825-.118-.118.825-.16 1.125-.076.525-.525-.525-.182-.182-.182.182-.707.707-1.793 1.793H-44v-1l1.333 1 .667.5-2 1.5v-1h-1.793L-44-39.707l.707.707.182.182.182-.182.525-.525m-.007 4.438-.445.208-.105.063-.266.16-.305.235-.244.247-.19.257-.144.265h1.942v1.175h-2.163v1.097h-1.211v-1.097h-2.787v1.112H-49.6v-1.112h-2.155v-1.175h2.155v-2.333h1.272v2.333h2.902l.136-.435.186-.386.02-.04.029-.041.185-.262.077-.108.39-.389.505-.36.445-.23.082-.042.048-.025.028-.013.02-.011.012-.006.102.15.132.167.152.17.16.166.16.145.105.082.042.033M-56.536-39l.536 3.29.28 1.723.199 1.215v.004l.903 5.54v.03h.007l2.61 1.785L-47-21.997l5-3.416.859-.587 1.752-1.197h.007v-.031l.903-5.54v-.004l.198-1.215.28-1.722.122-.744.415-2.547.408-2.5.162-1 .408-2.5.49-3.002h-22.007l.03.19.46 2.812.407 2.5.162 1 .408 2.5M-34-50l-2.872 17.232-.928 5.57L-38-26l-7.52 5.013-.001.001L-47-20l-9-6-.2-1.197-.928-5.571L-60-50h26m-8.769 18.72.085.168.114.183.134.185.02.024.025.032.1.121.011.012.104.11.033.036.05.045.06.053.033.029-.554.249-.512.272-.472.292-.433.31-.395.326-.171.161-.19.178h2.438v1.159h-3.359l-.079.138-.046.08-.116.22-.107.221-.097.222-.087.226-.077.228-.847-.136-.486-.08.074-.19.08-.19.082-.188.088-.186.094-.184.024-.043.044-.08.032-.058h-4.57v-1.16h2.422l-.195-.177-.188-.172-.028-.022-.394-.303-.457-.296-.484-.263-.508-.225-.46-.16-.032-.013-.02-.006-.014-.005.148-.143.155-.17.155-.187.062-.083.083-.11.074-.112.053-.078.1-.176.274.106.265.119.058.03.2.1.219.121.034.02.247.15.242.16v-.552h2.07v-1.167h1.205v1.167h2.178v.445l.216-.141.134-.082.09-.055.23-.134.238-.129.246-.124.178-.083.035-.015.027-.013.015-.007m-2.52 1.64.233-.204.01-.01h-1.31v.938h-1.204v-.937h-1.41l.221.204.211.213.201.222.191.23.051.068.13.173.048.071.121.178h1.462l.143-.178.048-.061.155-.183.044-.052.208-.228.22-.224Zm0 0" transform="matrix(4.29492 0 0 4.26451 261.99 217.49)"/>
    <path fill="red" d="m40.84 119.297-19.278-12.762-8.55-50.969C8.309 27.536 4.46 4.543 4.46 4.476c.004-.07 25.047-.124 55.656-.124 49.461 0 55.656.027 55.656.246 0 .136-3.835 23.082-8.52 50.988-4.683 27.91-8.515 50.781-8.515 50.824 0 .047-8.691 5.836-19.312 12.867L60.117 132.06Zm35.652-6.574c8.914-6.055 16.258-11.059 16.32-11.121s3.356-19.883 7.32-44.043c3.962-24.16 7.247-44.133 7.302-44.38l.093-.452H12.73l.086.37c.047.204 3.325 20.137 7.286 44.298 3.957 24.16 7.214 43.988 7.238 44.062.05.176 32.562 22.262 32.777 22.266.094.004 7.461-4.95 16.375-11m0 0"/>
    <path fill="red" d="m60.254 106.047-2.516-.41.332-.844c.184-.465.645-1.473 1.024-2.238.383-.77.718-1.453.75-1.52.027-.07-4.344-.125-9.719-.125h-9.77v-4.926l5.168-.004 5.168-.007-1-.938c-.55-.515-1.703-1.437-2.562-2.047-1.637-1.156-5.543-3.172-7.106-3.66-1.203-.375-1.214-.387-.851-.703.566-.496 2.129-2.437 2.586-3.215.246-.414.523-.758.617-.758.383 0 3.148 1.332 4.719 2.274.926.558 1.722 1.011 1.773 1.011.047 0 .086-.515.086-1.148v-1.148h8.934v-4.93h4.96v4.93h9.262v.902c0 .496.067.902.153.902.082 0 .75-.367 1.48-.82 2.035-1.25 4.52-2.422 4.61-2.172.152.43 1.37 2.121 2.16 2.992l.812.899-2.12 1.015c-2.657 1.27-5.458 3.098-7.724 5.043l-1.753 1.5 5.242.043 5.246.043v4.918l-7.238.043-7.235.043-.953 1.88c-.523 1.034-1.078 2.273-1.23 2.75-.184.589-.36.866-.536.855-.14-.012-1.39-.204-2.77-.43m3.758-11.152c.492-.602 1.746-1.934 2.785-2.957l1.894-1.864h-5.843v3.942h-4.961v-3.942h-3.145c-1.726 0-3.14.02-3.14.047s.671.738 1.492 1.578c.82.844 1.945 2.149 2.5 2.906l1.008 1.38h6.52Zm0 0"/>
    <path fill="red" d="M49.121 81.29v-2.384H39.86v-4.758l9.18-.085.086-9.938h5.29v10.02h12.542l.277-.938c.516-1.766 1.664-3.727 3.043-5.195.961-1.02 3.067-2.528 4.621-3.301 1.215-.606 1.215-.606 1.457-.262.532.75 1.606 1.934 2.422 2.66l.856.762-.93.41c-1.992.875-4.078 2.43-5.098 3.797-.582.785-1.164 1.774-1.164 1.977 0 .047 1.895.09 4.215.09h4.219v4.761H71.45v4.598h-4.965v-4.598h-12.07v4.762h-5.293Zm7.891-25.872-3.098-4.102h4.137v-7.96l-5.871 5.828-5.867 5.824 1.433 1.433c.969.965 1.36 1.457 1.2 1.508-.442.145-9.805 1.414-9.876 1.344-.039-.04.25-2.332.645-5.09l.715-5.02 1.414 1.395c.777.77 1.484 1.399 1.574 1.399s2.77-2.59 5.95-5.75l5.788-5.747h-8.02v1.97c0 1.085-.038 1.972-.085 1.972s-1.914-1.363-4.149-3.027l-4.062-3.028 4.11-3.062 4.105-3.059.043 2.063.047 2.066h8.011l-5.87-5.828-5.868-5.828-1.445 1.426c-.793.785-1.47 1.394-1.504 1.351-.059-.07-1.438-9.598-1.438-9.937 0-.114 1.739.074 4.922.527 2.703.39 5.027.707 5.164.71.133.005-.441.692-1.281 1.528l-1.523 1.52 5.746 5.707c3.16 3.137 5.8 5.703 5.87 5.703.067 0 .122-1.734.122-3.856v-3.851l-2.059-.047-2.054-.047 2.976-3.941c1.637-2.168 3.04-4.004 3.117-4.082.078-.078 1.516 1.68 3.227 3.941l3.086 4.082-4.156.094v3.851c0 2.122.054 3.856.12 3.856.067 0 2.712-2.566 5.872-5.703l5.746-5.707-1.524-1.52c-.84-.836-1.418-1.523-1.28-1.527.132-.004 2.456-.32 5.163-.711 3.192-.457 4.922-.64 4.926-.527.004.097-.313 2.414-.7 5.144l-.702 4.969-1.496-1.477-1.493-1.476-5.87 5.828-5.868 5.828h8.008l.047-2.066.047-2.063 4.113 3.063c2.262 1.687 4.047 3.125 3.969 3.191-.079.07-1.95 1.469-4.153 3.11l-4.011 2.98v-4.11h-8.02l5.785 5.747c3.184 3.16 5.863 5.75 5.953 5.75.086 0 .797-.63 1.575-1.399l1.414-1.394.722 5.007c.403 2.754.692 5.047.649 5.09-.082.082-9.41-1.176-9.887-1.332-.16-.05.23-.543 1.195-1.508l1.438-1.433-5.871-5.824-5.868-5.829v7.961h4.137l-3 3.985a548 548 0 0 1-3.11 4.101c-.058.067-1.5-1.726-3.202-3.984m0 0"/>
    <path fill="#f9f9f9" d="M43.914 112.555c-8.91-6.047-16.254-11.047-16.316-11.114-.149-.16-14.61-88.363-14.504-88.468.047-.047 21.25-.063 47.125-.04l47.043.04-7.235 44.086c-3.98 24.246-7.265 44.164-7.3 44.257-.051.13-29.801 20.43-32.18 21.957l-.43.278Zm19.973-7.168c.254-.7.812-1.938 1.238-2.75l.781-1.48 7.239-.044 7.234-.043v-5.25l-10.172-.015.91-.828c1.125-1.024 3.528-2.813 4.98-3.711 1.126-.7 3.88-2.11 5.005-2.57l.636-.262-.957-1.028c-.816-.875-1.539-1.863-2.308-3.164-.157-.262-.309-.215-1.739.496a53 53 0 0 0-3.011 1.657l-1.45.875v-1.793h-9.261v-4.93h-5.457v4.93h-8.766v1.066c0 .586-.039 1.066-.09 1.066s-.5-.257-.996-.574c-1.047-.664-3.523-1.922-4.691-2.379l-.801-.312-.754 1.125c-.414.617-1.242 1.68-1.836 2.36l-1.086 1.234 1.117.359c2.934.953 7.305 3.445 9.54 5.441l.984.875-10.07.164v5.09l9.718.043c5.344.024 9.715.063 9.715.09s-.324.71-.719 1.52c-.793 1.613-1.347 3-1.246 3.097.082.082 4.883.871 5.438.899.37.015.46-.114.875-1.254m-9.309-23.934V79.07H66.32v4.762h5.293V79.07h9.434l-.043-2.586-.047-2.586-4.098-.082-4.101-.082.476-.746c1.086-1.699 2.579-2.976 4.86-4.156.758-.39 1.484-.75 1.62-.793.169-.055-.187-.504-1.16-1.465-.769-.761-1.585-1.66-1.816-1.996-.226-.336-.515-.613-.64-.613-.34-.004-2.586 1.25-3.989 2.226-2.398 1.668-4.175 4.055-4.957 6.641l-.273.902-6.149.043-6.152.043v-9.86H48.79v9.856h-9.098v5.254h9.098v4.762h5.79Zm8.934-26.031 3.16-4.188-2.16-.043-2.16-.046v-7.461l5.664 5.62 5.66 5.622-1.555 1.55-1.55 1.551.562.098c1.082.188 9.793 1.402 10.066 1.402.246 0 .196-.55-.5-5.293-.43-2.914-.789-5.332-.797-5.375-.011-.047-.71.602-1.55 1.434l-1.532 1.516-11.242-11.164h7.348l.094 4.25 4.3-3.204c2.364-1.757 4.313-3.25 4.332-3.312.035-.121-8.414-6.438-8.609-6.438-.059 0-.106.961-.106 2.133v2.137h-7.359l5.66-5.625 5.664-5.621 1.485 1.469c.816.804 1.511 1.433 1.547 1.394.07-.09 1.578-10.566 1.527-10.629-.02-.02-2.465.313-5.438.738l-5.398.782 1.527 1.523 1.524 1.52-5.66 5.62-5.664 5.626v-7.309H64.5c1.184 0 2.152-.039 2.152-.086 0-.12-6.441-8.617-6.535-8.617s-6.531 8.496-6.531 8.617c0 .047.969.086 2.148.086h2.153v7.305l-5.621-5.578-5.625-5.582 1.52-1.516c.835-.832 1.487-1.543 1.448-1.582-.129-.113-10.648-1.57-10.734-1.484-.121.12 1.34 10.304 1.508 10.484.086.098.722-.414 1.629-1.312l1.488-1.47 5.664 5.622 5.66 5.625h-7.523v-2.137c0-1.172-.04-2.133-.086-2.133-.164 0-8.707 6.43-8.637 6.5.04.04 1.996 1.504 4.356 3.262l4.285 3.192.047-2.125.043-2.125h7.351L43.418 51.809l-1.516-1.496c-1.238-1.231-1.527-1.442-1.601-1.192-.219.77-1.5 10.23-1.399 10.332.094.094 8.746-1.035 10.282-1.344.472-.093.468-.097-1.036-1.597l-1.507-1.504 5.625-5.578 5.62-5.582v7.297l-2.14.046-2.137.043 3.25 4.309c1.786 2.367 3.305 4.254 3.371 4.187.063-.066 1.54-2.003 3.282-4.308m0 0"/>
    <path fill="#f9f9f9" d="M55.688 94.363a34 34 0 0 0-2.415-2.793l-1.312-1.332h5.582l.094 4.024 2.687.043 2.688.047v-4.114h5.195l-1.988 2.012c-1.094 1.105-2.27 2.363-2.617 2.79l-.63.78h-6.19Zm0 0"/>
</svg>
