<svg xmlns="http://www.w3.org/2000/svg" width="120" height="120" viewBox="0 0 120 136">
    <path fill="none" stroke="red" stroke-width=".004" d="m-45.255-35.153-.363.166-.318.17-.052.03-.03.017-.335.206-.147.101-.2.138-.315.245-.089.08-.183.163h1.27v3.665h-2.146v.485h2.606v1.03h-1.473v.748h1.186v1.001h-1.186v.9h-1.148v-.9h-1.307v.9h-1.163v-.9h-.914v-1h.914v-.748h-1.193v-1.03h2.545v-.486h-2.115v-3.665h1.322l-.36-.24-.357-.25-.343-.252-.307-.237-.013-.01-.287-.232-.244-.21.829-.664.053-.042.02-.016.012-.01.243.24.29.261.324.272.229.182.115.091.181.138.17.129.344.25-.65.6h2.243l-.785-.546.338-.308.385-.301.159-.11.257-.179.14-.086.294-.183.31-.171.126-.07.356-.176.027-.014.019-.009.018-.009h.003l.096.131.111.146.12.15.125.151.125.142.1.106.018.02M-46.5-39h-1v-2.5H-50v1l-2-1.5 2-1.5v1h2.5V-45h1v2.5h2.5v-1l2 1.5-2 1.5v-1h-2.5v2.5m3.103 3.023v4.157l.126-.374.131-.357.087-.217.05-.121.141-.314.148-.286.115-.189.017-.028.01-.018.009-.013.004-.007.068.186.085.211.098.223.104.221.069.135.036.071.02.036.05.089.029.052-.274.429-.26.51-.24.57-.102.291-.113.318-.184.623-.149.615h1.005v1.178h-1.08V-26h-1.156v-1.986h-.838v-1.178h.838v-.4l-.195-.26-.242-.342-.066-.097-.194-.285-.115-.172-.133-.2-.208-.317-.138-.213.67-.913.002-.003.076.178.04.09.049.11.102.218.11.231.119.24.123.241v-4.919h1.156m-13.08-2.664L-56-35.71l.479 2.94.903 5.54v.032h.007l2.61 1.784L-47-21.997l5-3.416.859-.587 1.752-1.197h.007v-.031l.903-5.54.479-2.941 1.725-10.585.278-1.708h-22.006l1.525 9.36M-34-50l-2.872 17.232-.928 5.57L-38-26l-7.52 5.013-.001.001L-47-20l-9-6-.2-1.197-.928-5.571L-60-50h26m-15.296 17.033h-.922v.57h.922v-.57m2.13 0h-.997v.57h.997v-.57m-.997 1.925h.997v-.585h-.997v.585m-.015 2.386h-1.307v.747h1.307v-.747m-2.04-2.386h.922v-.585h-.922Zm0 0" transform="matrix(4.29492 0 0 4.26451 261.99 217.49)"/>
    <path d="m40.84 119.297-19.278-12.762-8.55-50.969C8.309 27.536 4.46 4.543 4.46 4.476c.004-.07 25.047-.124 55.656-.124 49.461 0 55.656.027 55.656.246 0 .136-3.835 23.082-8.52 50.988-4.683 27.91-8.515 50.781-8.515 50.824 0 .047-8.691 5.836-19.312 12.867L60.117 132.06Zm35.648-6.57c8.91-6.051 16.258-11.055 16.32-11.122.067-.066 3.36-19.886 7.325-44.046 3.96-24.16 7.246-44.133 7.3-44.38l.094-.452H12.73l.086.37c.047.204 3.325 20.137 7.286 44.298 3.957 24.16 7.214 43.988 7.238 44.062.05.176 32.562 22.262 32.777 22.266.094.004 7.457-4.946 16.371-10.996m0 0"/>
    <path d="M58.05 45.816V40.48H47.138v1.97c0 1.085-.04 1.972-.086 1.972-.047 0-1.914-1.363-4.149-3.027l-4.062-3.028 4.11-3.062 4.105-3.059.043 2.063.047 2.066H58.05V25.699h4.136v10.676H73.09l.047-2.066.047-2.063 4.113 3.063c2.262 1.687 4.047 3.125 3.969 3.191-.079.07-1.95 1.469-4.153 3.11l-4.011 2.98v-4.11H62.187v10.672h-4.136Zm12.735 56.493V98.12h-3.637v-4.93h3.637v-.859c0-.793-.082-.973-1.015-2.258-1.48-2.035-4.442-6.492-4.442-6.68 0-.09.59-.96 1.313-1.937l1.308-1.773.48 1.046c1.301 2.844 2.09 4.418 2.216 4.418.078 0 .14-4.73.14-10.511V64.125h4.797l.008 17.82.906-2.382c.5-1.31 1.293-3.153 1.762-4.094.793-1.586.867-1.684 1.023-1.313.656 1.578 1.762 3.961 1.977 4.266.246.344.23.41-.203 1.043-.793 1.148-2.149 3.941-3.004 6.187-.793 2.094-2.137 6.641-2.137 7.239 0 .277.176.3 2.148.3h2.153v4.93h-4.633v8.375h-4.797Zm0 0"/>
    <path d="M44.488 104.605v-1.886h-3.804v-4.106h3.804v-3.449h-5.125v-4.27h10.914v-2.136h-8.93V73.332l2.852-.047 2.856-.043-2.09-1.445c-2.113-1.461-5.988-4.461-6.047-4.68-.02-.062.793-.765 1.805-1.558l1.84-1.446.84.809c1.117 1.074 3.624 3.129 5.511 4.516.84.62 1.527 1.167 1.527 1.214s-.613.664-1.363 1.371l-1.363 1.286 5.004.007c2.75.004 5-.027 5-.066 0-.043-.723-.574-1.61-1.18-.886-.61-1.648-1.132-1.691-1.168-.246-.191 3.957-3.347 6.285-4.718 1.61-.95 3.684-2.059 3.852-2.059.039 0 .48.54.984 1.191.504.657 1.113 1.371 1.348 1.59.234.219.425.457.425.528 0 .07-.726.5-1.617.953-2.523 1.285-6.816 4.3-6.816 4.781 0 .09 1.133.156 2.726.156h2.73v15.434h-9.26v2.137h11.081v4.27h-6.285v3.448h5.125v4.106h-5.125v3.777h-4.633v-3.777h-5.953v3.777h-4.797Zm10.668-7.718v-1.64h-5.789l-.047 1.464c-.027.805-.008 1.566.04 1.687.066.176.66.211 2.94.176l2.856-.043Zm-4.879-13.055V82.52h-4.132v2.628h4.132Zm9.262 0V82.52h-4.465v2.628h4.465Zm-9.262-5.746V76.77h-4.132v2.628h4.132Zm9.262 0V76.77h-4.465v2.628h4.465Zm0 0"/>
    <path fill="#f9f9f9" d="M43.914 112.555c-8.91-6.047-16.254-11.047-16.316-11.114-.149-.16-14.61-88.363-14.504-88.468.047-.047 21.25-.063 47.125-.04l47.043.04-7.235 44.086c-3.98 24.246-7.265 44.164-7.304 44.257-.047.133-29.72 20.38-32.176 21.957l-.43.278Zm5.703-7.785v-1.887h5.293v3.777h5.125v-3.777h5.13v-4.434h-5.13v-3.12h6.461l-.094-4.516-11.164-.086v-1.805H64.5V73.16h-2.664c-3.082 0-3.031.074-.977-1.476a32 32 0 0 1 5.227-3.25c.86-.422 1.559-.809 1.555-.856 0-.047-.414-.566-.922-1.152a36 36 0 0 1-1.434-1.766c-.277-.383-.625-.7-.77-.7-.367.005-3.906 1.958-5.706 3.153-1.91 1.27-4.887 3.657-4.727 3.79.047.034.602.425 1.238.867 2.258 1.554 2.563 1.39-2.582 1.382l-4.527-.007 1.281-1.211c.707-.668 1.281-1.254 1.281-1.301 0-.051-.574-.512-1.28-1.028-1.927-1.406-4.446-3.457-5.7-4.628-.613-.575-1.191-1.02-1.29-.985-.304.098-3.952 3.004-3.917 3.117.098.32 4.473 3.684 6.715 5.16l1.226.81-2.757.042-2.754.047v15.754h9.097v1.808H39.195v4.598h5.13v3.121H40.52v4.434h3.804v3.777h5.293Zm26.13-2.297v-4.188h4.632v-5.258h-2.152c-1.18 0-2.149-.039-2.149-.093 0-.356.977-3.809 1.586-5.598.941-2.781 2.121-5.418 3.2-7.164l.855-1.387-.574-1.047a32 32 0 0 1-1.188-2.527c-.332-.813-.648-1.543-.695-1.621-.215-.36-1.871 2.933-2.957 5.89l-.54 1.48-.007-8.5-.012-8.5h-5.125l-.016 20.774-.476-.902a61 61 0 0 1-1.274-2.668c-.437-.973-.835-1.766-.882-1.766-.235 0-2.985 3.961-2.875 4.149.406.695 4.21 6.277 4.804 7.047.606.785.72 1.05.72 1.683v.75H66.98v5.258h3.641v8.375h5.125ZM62.351 45.98v-5.335h10.574l.094 4.25 4.3-3.204c2.364-1.757 4.313-3.25 4.332-3.312.035-.121-8.414-6.438-8.609-6.438-.059 0-.106.961-.106 2.133v2.137H62.353V25.535h-4.465v10.676H47.3v-2.137c0-1.172-.04-2.133-.086-2.133-.164 0-8.707 6.43-8.637 6.5.04.04 1.996 1.504 4.356 3.262l4.285 3.192.047-2.125.043-2.125h10.578v10.671h4.465Zm0 0"/>
    <path fill="#f9f9f9" d="M49.617 96.887v-1.559h5.293v3.121h-5.293Zm5.621-13.055v-1.148h4.137v2.296h-4.137Zm-8.765 0v-1.148h3.64v2.296h-3.64Zm8.765-5.746v-1.148h4.137v2.296h-4.137Zm-8.765 0v-1.148h3.64v2.296h-3.64Zm0 0"/>
</svg>
