<svg xmlns="http://www.w3.org/2000/svg" width="120" height="120" viewBox="0 0 120 136">
    <path fill="none" stroke="red" stroke-width=".004" d="M-44-42.5v1h-1.793l1.975 1.975-.525.525-.182.182-.182-.182-1.793-1.793V-39h1l-1.5 2-1.5-2h1v-1.793L-49.293-39l-.182.182-.182-.182-.525-.525 1.975-1.975H-50v-1h1.793l-1.975-1.975.525-.525.182-.182.182.182 1.793 1.793V-45h-1l1.5-2 1.5 2h-1v1.793L-44.707-45l.182-.182.182.182.525.525-1.975 1.975H-44m-3.742 7.99.003-.157v-.17l-.004-.173-.006-.168-.01-.153-.013-.13.668-.084.446-.058.64-.088.17-.024.563-.089.229-.045.143-.028.202-.054.033-.01.055-.02.044-.018.028-.01.018-.007.01-.004.038.152.057.174.071.183.08.176.084.157.045.068.028.04.01.016-.102.054-.095.072-.08.092-.003.003-.066.121-.044.151-.015.184v2.555h-1.2v-.814h-1.965v-.996h1.964v-1.095l-1.388.135-.635.062h-.003m-4.176-.501.09-.268.032-.096.171-.262.23-.172.297-.094.375-.029h1.238l.333.021.166.01.368.097.256.174.14.227.02.034.085.357.01.196.014.268v2.685h-1.208v-.753h-2.393v-.996h2.393v-.928l-.006-.137-.02-.098-.027-.041-.014-.022-.068-.038-.1-.017-.14-.004h-.91l-.122.012-.09.044-.018.025-.046.063-.044.144-.03.212-.023.275-.001.016-.137-.087-.103-.053-.062-.032-.184-.078-.19-.071-.189-.06-.175-.045.049-.284.033-.195m8.705-.498.181-.362.024.02.112.097.17.13.19.133.194.124.183.105.159.076-.175.37-.204.433-.263.882-.133.733-.035.189-.095.927-.041.894v.038l-.01.788v3.057h-3.845l.038.1.038.1.038.1.039.098.038.093.038.087-.532.125-.736.172h-.001l-.062-.14-.064-.142-.063-.147-.062-.148-.06-.15-.056-.148H-51.8v-1.095h7.637v-.775h-1.223v.623h-1.17v-.623h-1.322v.623h-1.193v-.623h-2.47v-2.882h7.44l.069-.747.055-.394.025-.17.026-.188.148-.743.194-.716.085-.231.162-.442.125-.25M-56.536-39l.536 3.29.28 1.723.199 1.215v.004l.903 5.54v.03h.007l2.61 1.785L-47-21.997l5-3.416.859-.587 1.752-1.197h.007v-.031l.903-5.54v-.004l.198-1.215.28-1.722.537-3.29.408-2.501.162-1 .408-2.5.49-3.002h-22.007l.49 3.002.407 2.5.162 1 .408 2.5M-34-50l-2.872 17.232-.928 5.57L-38-26l-7.52 5.013-.001.001L-47-20l-9-6-.2-1.197-.928-5.571L-60-50h26m-10.163 19.728.002-.116.002-.118.003-.118h-1.231v.875h1.223v-.523m-4.908-.352h-1.269v.875h1.27v-.875m1.192 0v.875h1.322v-.875Zm0 0" transform="matrix(4.29492 0 0 4.26451 261.99 217.49)"/>
    <path fill="red" d="m40.84 119.297-19.278-12.762-8.55-50.969C8.309 27.536 4.46 4.543 4.46 4.476c.004-.07 25.047-.124 55.656-.124 49.461 0 55.656.027 55.656.246 0 .136-3.835 23.082-8.52 50.988-4.683 27.91-8.515 50.781-8.515 50.824 0 .047-8.691 5.836-19.312 12.867L60.117 132.06Zm35.648-6.57c8.91-6.051 16.258-11.055 16.32-11.122.067-.066 3.36-19.886 7.325-44.046 3.96-24.16 7.246-44.133 7.3-44.38l.094-.452H12.73l.086.37c.047.204 3.325 20.137 7.286 44.298 3.957 24.16 7.214 43.988 7.238 44.062.05.176 32.562 22.262 32.777 22.266.094.004 7.457-4.946 16.371-10.996m0 0"/>
    <path fill="red" d="M56.188 105.625a37 37 0 0 1-.793-1.883l-.403-1.023H39.527v-4.434h32.914v-3.45h-5.46v2.626h-4.793v-2.625H56.23v2.625h-4.96v-2.625H40.684V82.684h31.914l.078-.371c.043-.204.12-.922.176-1.602.277-3.379 1.218-8.121 2.183-11 .492-1.473 1.988-4.926 2.133-4.926.027 0 .629.414 1.34.922.71.508 1.672 1.11 2.137 1.336l.847.414-.8 1.668c-1.38 2.871-2.337 6.645-2.883 11.422-.215 1.855-.293 4.57-.36 12.277l-.086 9.895h-8.261c-8.16 0-8.262.004-8.157.324.055.18.278.75.492 1.273l.391.946-2.18.52c-3.398.812-3.007.831-3.46-.157M51.27 88.758v-1.969h-5.622v3.941h5.622Zm10.917 0v-1.969H56.23v3.941h5.958Zm10.254 0v-1.969h-5.46v3.941h5.46Zm0 0"/>
    <path fill="red" d="M65.66 80.055V78.25h-8.437v-3.941h8.437v-4.957l-.785.097c-1.465.188-7.695.762-7.734.719-.024-.027-.078-.914-.121-1.977l-.083-1.93h.391c1.52 0 12.2-1.66 13.133-2.038.195-.078.305.078.46.66.114.418.474 1.305.798 1.969l.594 1.207-.54.449c-.968.812-.988.937-.988 7.437v5.918H65.66Zm-15.383-.165v-1.64H40.023v-3.941h10.254v-2.61c0-2.222-.039-2.64-.273-2.832-.2-.164-1-.238-3.055-.277-2.761-.05-2.785-.047-3.187.351-.266.262-.442.668-.512 1.2-.059.441-.14.988-.184 1.218l-.078.418-1.101-.53c-.606-.294-1.563-.657-2.121-.806l-1.02-.273.215-1.094c.52-2.668 1.293-3.816 2.965-4.406.71-.254 1.414-.293 5.043-.293 4.633 0 5.547.125 6.703.906 1.504 1.024 1.726 2.375 1.73 10.63l.004 5.624h-5.129Zm6.735-24.472-3.098-4.102h4.137v-7.96l-4.258 4.226-4.262 4.227-1.445-1.434-1.445-1.437 4.257-4.227 4.258-4.23h-7.855v-4.106h7.855l-4.3-4.27-4.297-4.27 1.445-1.437 1.445-1.433 4.18 4.144c2.297 2.278 4.23 4.145 4.3 4.145.067 0 .122-1.734.122-3.856v-3.851l-2.059-.047-2.054-.047 2.976-3.941c1.637-2.168 3.04-4.004 3.117-4.082.078-.078 1.516 1.68 3.227 3.941l3.086 4.082-4.156.094v3.851c0 2.122.054 3.856.12 3.856.067 0 2.005-1.867 4.301-4.145l4.176-4.144 1.445 1.433 1.45 1.438-4.301 4.27-4.297 4.269h7.856v4.105h-7.856l4.258 4.23 4.258 4.227-1.446 1.438-1.445 1.434-4.262-4.227-4.257-4.227v7.961h4.136l-3 3.985a548 548 0 0 1-3.11 4.101c-.058.067-1.5-1.726-3.202-3.984m0 0"/>
    <path fill="#f9f9f9" d="M43.91 112.559c-8.914-6.047-16.265-11.086-16.332-11.196-.07-.113-3.144-18.605-6.828-41.093-8.285-50.547-7.746-47.207-7.652-47.301.043-.043 21.246-.059 47.12-.035l47.044.039-7.235 44.086c-3.98 24.246-7.265 44.164-7.304 44.257-.047.133-29.72 20.375-32.176 21.957l-.43.278Zm15.41-6.496c1.438-.329 2.645-.618 2.68-.649s-.133-.539-.371-1.133c-.238-.59-.434-1.11-.434-1.156 0-.043 3.672-.078 8.164-.078h8.168l.086-9.977c.067-7.644.149-10.515.352-12.277.582-5.04 1.457-8.516 2.914-11.582.902-1.902.922-1.965.601-1.965-.265 0-3.585-2.152-3.898-2.527-.121-.145-.285-.262-.363-.262s-.414.535-.75 1.188c-1.774 3.5-3.168 8.859-3.703 14.253-.102 1.036-.22 2.047-.258 2.25l-.074.372H40.52V95h10.585v2.629h5.293V95h5.622v2.629h5.128V95h5.125v3.121h-32.91v4.926h15.485l.789 1.805c.437.996.851 1.808.93 1.808.074 0 1.312-.27 2.753-.597m11.633-30.196c.082-6.008.086-6.082.465-6.691.215-.34.437-.617.496-.621.063-.004.238-.102.395-.22.265-.198.238-.308-.36-1.487-.355-.7-.738-1.645-.855-2.094-.18-.695-.262-.805-.551-.734-2.574.632-11.887 2.078-13.395 2.078h-.398l.094 2.093c.05 1.153.117 2.121.148 2.153.055.066 7.332-.598 8.047-.735l.453-.09v4.626H57.06v4.27h8.433v1.694c0 .934.055 1.75.117 1.813s1.27.094 2.688.066l2.57-.043Zm-15.43-1.023c-.054-4.926-.136-7.067-.289-7.598-.445-1.531-1.367-2.402-2.972-2.805-1.317-.332-9.18-.328-10.336.004-1.2.348-2.246 1.438-2.696 2.813-.316.965-.75 2.972-.652 3.02.024.011.586.19 1.254.398.672.207 1.691.62 2.27.922l1.054.547.082-.52c.043-.285.125-.879.184-1.32.066-.524.238-.934.496-1.192.379-.375.477-.386 2.926-.386 3.46 0 3.27-.176 3.27 2.964v2.454H39.858v4.27h10.254v3.284h5.489Zm7.989-19.422 3.16-4.188-2.16-.043-2.16-.046v-7.461l4.214 4.183 4.22 4.184 1.57-1.555 1.574-1.555-8.352-8.296h7.524V36.21h-7.524l8.43-8.375-1.61-1.602-1.613-1.597-4.215 4.183-4.218 4.184v-7.305H64.5c1.184 0 2.152-.039 2.152-.086 0-.12-6.441-8.617-6.535-8.617s-6.531 8.496-6.531 8.617c0 .047.969.086 2.148.086h2.153v7.305l-4.219-4.184-4.215-4.183-1.574 1.554-1.574 1.559 4.261 4.23 4.258 4.23h-7.687v4.435h7.523l-4.18 4.148-4.175 4.148 1.535 1.516c.844.836 1.605 1.52 1.695 1.52s2.004-1.832 4.258-4.067l4.094-4.062v7.297l-2.14.046-2.138.043 3.25 4.309c1.786 2.367 3.305 4.254 3.371 4.187.063-.066 1.54-2.003 3.282-4.308m0 0"/>
    <path fill="#f9f9f9" d="M67.148 88.758v-1.805h5.125v3.613h-5.125Zm-10.75 0v-1.805h5.622v3.613h-5.622Zm-10.585 0v-1.805h5.292v3.613h-5.292Zm0 0"/>
</svg>
