<svg xmlns="http://www.w3.org/2000/svg" width="120" height="120" viewBox="0 0 120 136">
    <path fill="none" stroke="red" stroke-width=".004" d="M-47.5-45h1v1.793l1.975-1.975.707.707-1.975 1.975H-44v1h-1.793l1.975 1.975-.707.707L-47-41.293l-2.475 2.475-.707-.707 1.975-1.975H-50v-1h1.793l-1.975-1.975.707-.707 1.975 1.975V-45m4.558 9.115.117.116.152.134.173.138.18.13.171.11.149.078-.254.363-.173.247-.301.668-.196.704-.068.429-.045.287-.052.703-.013.667v3h-2.69V-26h-1.246v-.683h-3.792v-.982h3.792v-.446h-3.51l-.191.03-.866-.191.104-.321.027-.079.085-.25.067-.186.051-.14.12-.315.117-.294.113-.264.998.246.01.002.01.003h.002l.005.002h.001l-.042.11-.044.119-.043.125-.044.13-.043.136-.042.14h3.001v-.637l-2 .176-.44.039-.092-.895v-.008l-.006-.049.538-.048 2-.182v-.03l-.007-.143-.027-.113-.051-.085-.084-.06-.121-.034-.166-.011h-1.976l-.195.003-.219.007-.226.013-.217.018-.192.023-.151.028-.022-.174-.017-.148-.003-.032-.018-.18-.011-.114-.007-.063-.018-.166-.018-.151.145-.033.185-.023.213-.015.23-.009.24-.004.233-.001h2.097l.451.027.092.006.23.056.186.046.3.179.202.263.115.353.043.452.88-.082.45-.04.046.491.045.475-.128.011-.413.039-.88.08v.745h1.672v-2.019l.019-.77.072-.83.007-.041.138-.81.24-.834.183-.404.145-.317.027-.06.18-.254.245-.345.009-.012.024-.035.017-.023.01-.015.006-.008m-1.33-.115.058.149.084.165.103.169.115.163.115.144.003.003.115.12-.784.167-.239.104-.298.13-.056.055-.28.272-.18.447-.074.593-.008.55-.004.215h-1.17l.005-.214.017-.748.114-.78.256-.62.447-.477.64-.331.046-.024.19-.05.654-.168.05-.013.039-.01.026-.007.016-.004m-3.8 1.527v1.92h-1.185v-1.897l-.005-.129-.02-.093-.042-.063-.069-.037-.102-.018-.142-.005h-.904l-.139.019-.1.07-.072.15-.047.249-.031.373-.005.142-.015.36v.018l-.14-.087-.11-.055-.057-.028-.187-.078-.195-.069-.189-.06-.172-.045.078-.68.07-.3.05-.21.175-.358.242-.23.32-.12.41-.036h1.201l.302.018.188.01.365.092.255.163.162.245.086.335.025.434M-34.001-50l-2.87 17.232-.93 5.57L-38-26l-7.52 5.013v.001L-47-20l-9-6-.2-1.197-.928-5.571L-60-50h26m-20.618 22.772v.03h.007l2.61 1.785L-47-21.997l5-3.416.859-.587 1.752-1.197h.007v-.031l.903-5.54.479-2.941 2.003-12.293h-22.006L-56-35.709l.479 2.94Zm0 0" transform="matrix(4.29492 0 0 4.26451 261.99 217.49)"/>
    <path d="m40.84 119.297-19.278-12.762-8.55-50.969C8.309 27.536 4.46 4.543 4.46 4.476c.004-.07 25.047-.124 55.656-.124 49.461 0 55.656.027 55.656.246 0 .136-3.835 23.082-8.52 50.988-4.683 27.91-8.515 50.781-8.515 50.824 0 .047-8.691 5.836-19.312 12.867L60.117 132.06Zm35.648-6.57c8.91-6.051 16.258-11.055 16.32-11.122.067-.066 3.36-19.886 7.325-44.046 3.96-24.16 7.246-44.133 7.3-44.38l.094-.452H12.73l.086.37c.047.204 3.325 20.137 7.286 44.298 3.957 24.16 7.214 43.988 7.238 44.062.05.176 32.562 22.262 32.777 22.266.094.004 7.457-4.946 16.371-10.996m0 0"/>
    <path d="m48.086 50.375-1.445-1.437 4.257-4.227 4.258-4.23h-7.855v-4.106h7.855l-4.3-4.27-4.297-4.27 1.445-1.437 1.445-1.433 4.18 4.144c2.297 2.278 4.23 4.145 4.3 4.145.067 0 .122-1.7.122-3.777v-3.778h4.136v3.778c0 2.078.055 3.777.122 3.777.066 0 2.004-1.867 4.3-4.145l4.176-4.144 1.445 1.433 1.45 1.438-4.301 4.27-4.297 4.269h7.856v4.105h-7.856l4.258 4.23 4.262 4.231-1.454 1.434-1.449 1.434L60.121 41.3l-5.297 5.254-5.293 5.258Zm11.949 54.641v-1.477H43.828v-3.941h16.207v-2.153l-8.316.028c-7.348.023-8.469-.004-9.633-.258-.727-.156-1.375-.336-1.445-.399-.176-.16 1.203-4.078 2.632-7.5.055-.129.707-.03 2.094.309 1.11.273 2.047.52 2.082.55.035.028-.172.75-.457 1.606s-.52 1.594-.52 1.645c0 .054 2.942.097 6.536.097h6.531V90.52l-.867.097c-2.86.32-9.402.809-9.5.711-.117-.113-.54-3.582-.453-3.691.043-.051 10.086-1.004 10.636-1.012.172 0 .208-.184.141-.773-.117-1.02-.492-1.305-1.902-1.457-1.34-.141-11.703.05-12.817.238-.722.12-.797.105-.863-.211-.14-.652-.422-3.762-.348-3.832.442-.442 15.954-.473 17.461-.04.899.263 1.887.856 2.414 1.45.493.555 1.059 2.191 1.063 3.055.004 1.12-.05 1.105 2.953.812 1.477-.144 2.734-.219 2.79-.16.12.121.46 3.676.358 3.777-.058.059-5.226.59-5.753.59-.125 0-.184.555-.184 1.723v1.726h7.277v-5.101c0-2.809.075-6.188.168-7.516.442-6.383 1.969-11.46 4.485-14.922l1.004-1.379.765.711c.426.395 1.254 1.036 1.848 1.43.59.395 1.101.738 1.133.766.035.027-.34.625-.832 1.328-1.551 2.219-2.657 5.152-3.192 8.453-.43 2.656-.578 6.027-.582 13.23l-.004 6.938H65.164v9.035h-5.129Zm0 0"/>
    <path d="M61.25 76.32c.219-4.754.875-6.91 2.645-8.718 1.289-1.317 3.167-2.286 5.753-2.973 1.036-.277 1.934-.5 1.997-.5.062-.004.386.508.714 1.133.332.625.868 1.441 1.188 1.812.324.375.558.703.523.73-.03.024-.691.176-1.465.329-2.007.406-3.734 1.156-4.652 2.031-1.16 1.102-1.586 2.344-1.793 5.211-.094 1.266-.168 2.504-.168 2.75l-.004.453h-4.843Zm-10.809-2.246c0-3.875-.035-4.539-.257-4.761-.215-.215-.743-.258-3.118-.258-2.574 0-2.882.027-3.136.304-.442.485-.61 1.278-.715 3.348-.055 1.063-.153 1.93-.215 1.93-.066 0-.594-.215-1.176-.473a17 17 0 0 0-2.094-.762c-.8-.222-1.02-.351-.964-.554.039-.145.12-.707.175-1.25.387-3.668 1.356-5.528 3.239-6.211 1.008-.371 8.847-.403 10.203-.043 1.64.433 2.281 1.054 2.777 2.68.188.609.242 1.874.242 5.667l.004 4.887h-4.965Zm0 0"/>
    <path fill="#f9f9f9" d="M43.914 112.555c-8.91-6.047-16.254-11.047-16.316-11.114-.149-.16-14.61-88.363-14.504-88.468.047-.047 21.25-.063 47.125-.04l47.043.04-7.235 44.086c-3.98 24.246-7.265 44.164-7.304 44.257-.047.133-29.72 20.375-32.176 21.957l-.43.278Zm21.414-10.41v-4.516h11.578v-6.613c.004-7.012.176-11.047.586-13.567.535-3.32 1.606-6.18 3.137-8.394.469-.68.902-1.317.96-1.418.063-.106-.288-.426-.843-.77-.52-.32-1.43-.992-2.02-1.496-.593-.5-1.124-.914-1.183-.914-.063 0-.574.64-1.14 1.43-2.446 3.398-3.962 8.379-4.454 14.644-.094 1.211-.172 4.555-.172 7.43v5.23h-6.945v-1.476c0-.942.063-1.477.176-1.477.273 0 5.86-.523 5.875-.55.07-.114-.38-4.055-.473-4.149-.066-.062-1.328-.004-2.808.133-1.957.183-2.72.2-2.809.066-.066-.097-.121-.48-.125-.851-.004-1.485-.93-3.23-2.043-3.856-1.457-.816-1.883-.86-9.406-.933-6.235-.059-9.543.054-9.824.336-.106.105.289 4.152.425 4.375.07.113.422.117 1.09.007.543-.09 3.836-.16 7.32-.16l6.333-.004.406.407c.433.43.57 1.398.199 1.402-.574.008-10.578.965-10.633 1.016-.07.074.356 4.074.445 4.136.051.035 6.668-.52 9.36-.789l1.035-.101v2.468H53.09c-3.754 0-6.285-.058-6.285-.152 0-.082.218-.766.488-1.516.266-.753.434-1.414.371-1.472-.062-.059-.973-.301-2.016-.54a67 67 0 0 1-2.175-.519c-.223-.066-.442.34-1.106 2.02a126 126 0 0 0-1.496 4.02c-.59 1.71-.633 1.933-.383 2.003 2.028.598 2.477.625 10.989.598l8.394-.028v1.829H43.664v4.27h16.207v2.956h5.457ZM55.57 73.773c-.004-5.183-.097-6.05-.765-7.175-.168-.282-.606-.688-.97-.899-1.241-.71-2.179-.824-6.78-.82-4.114.004-4.34.02-5.13.375-1.452.656-2.09 1.496-2.667 3.555-.219.77-.77 4.367-.68 4.437.024.016.567.188 1.211.379.648.191 1.676.598 2.29.906.687.344 1.136.485 1.171.371.031-.101.094-1.035.145-2.07.093-2.031.261-2.824.703-3.309.25-.273.554-.304 2.968-.304 2.227 0 2.739.043 2.954.258.222.222.257.886.257 4.761v4.504h5.293Zm10.649 3.942c.047-.563.129-1.817.176-2.785.195-3.95 1.898-5.739 6.293-6.61.82-.164 1.558-.36 1.644-.437.098-.086-.039-.352-.348-.676-.652-.691-1.496-1.941-1.804-2.672-.133-.316-.356-.574-.496-.574-.137 0-1.125.23-2.188.516-3.898 1.03-6.226 2.699-7.305 5.234-.656 1.543-1.152 4.625-1.16 7.184l-.004 1.847h5.102Zm-11.27-30.953 5.254-5.211 5.29 5.25 5.292 5.25 1.57-1.555 1.575-1.555-8.352-8.296h7.524V36.21h-7.524l8.43-8.375-1.61-1.602-1.613-1.597-4.215 4.183-4.218 4.184v-7.469h-4.465v7.469l-4.219-4.184-4.215-4.183-1.574 1.554-1.574 1.559 4.261 4.23 4.258 4.23h-7.687v4.435h7.523l-4.176 4.148-4.175 4.145 1.527 1.519c.844.836 1.605 1.52 1.695 1.52s2.532-2.348 5.418-5.215m0 0"/>
</svg>
