<svg xmlns="http://www.w3.org/2000/svg" width="120" height="120" viewBox="0 0 120 136">
    <path fill="none" stroke="red" stroke-width=".004" d="M-50-41.5v-1h2.5V-45h-1l1.5-2 1.5 2h-1v2.5h2.5v1h-2.5v2.5h1l-1.5 2-1.5-2h1v-2.5H-50m.47 7.37.085-.225.082-.221.08-.214h-2.473V-36H-42v1.21h-2.496l.048.207.062.221.077.229.088.232.099.227.106.217-.27.077-.51.145h2.276v1.194h-3.866l.028.086.06.172.031.085.031.084.03.083h3.954V-26h-4.512v-.98h1.221v-.584h-1.15v-2.37h1.15v-.617h-1.26v-.585l-.3.079-.11.028.058.09.051.072.01.015.063.082.04.05.022.028.06.07.06.062-.255.098-.042.017-.288.13-.28.146-.27.163-.258.18-.196.156-.033.026-.017.014.221.318.207.337.165.303.028.052.18.371.165.388.152.404-.591.157h.764v1.177h-3.48l-.23.032-.09-.032-.696-.247.165-.657.056-.17.147-.442.237-.57.239-.463.033-.064.303-.487.332-.448-.12-.084-.147-.103-.282-.174-.296-.16-.31-.144-.325-.128-.323-.107-.016-.005.135-.14.004-.004.136-.164.138-.188.131-.195.117-.19.016-.029.08-.144.36.14.345.16.327.175.31.192.294.21.04.033.236.193.18-.143.034-.027.029-.023.026-.021.28-.198.29-.183.3-.169.31-.155.284-.125.028-.012h.002l.006-.004.003-.001-.028-.08-.027-.076-.026-.077-.025-.075-.023-.074-.021-.07h-3.614v-1.195h2.417l-.246-.053-.628-.136.084-.238.084-.235.079-.221.004-.011M-56.536-39l.536 3.29.479 2.94.903 5.54v.032h.007l2.61 1.784L-47-21.997l5-3.416.859-.587 1.752-1.197h.007v-.031l.903-5.54.479-2.941.536-3.29.408-2.501.162-1 .408-2.5.49-3.002h-22.007l.49 3.002.407 2.5.162 1 .408 2.5M-34-50l-2.872 17.232-.928 5.57L-38-26l-7.52 5.013-.001.001L-47-20l-9-6-.2-1.197-.928-5.571L-60-50h26m-11.846 15.21H-48l-.086.256-.083.262-.079.266-.074.264-.067.258-.06.249h3.142l-.114-.22-.104-.225-.09-.227-.078-.224-.061-.214-.04-.198.52-.157.218-.066.08-.024h-.87m-2.72 7.212-.121-.267-.135-.255-.147-.245-.16-.235-.023-.032-.045-.06-.102-.135-.1.135-.07.092-.16.235-.151.245-.14.255-.129.267-.116.278h1.708l-.11-.278m4.15-1.475h-1.126v.61h2.11v-.61h-.984m0-.881h.984v-.617h-.984v.617m0 2.37v.585h.984v-.585Zm0 0" transform="matrix(4.29492 0 0 4.26451 261.99 217.49)"/>
    <path fill="red" d="m40.84 119.297-19.278-12.762-8.55-50.969C8.309 27.536 4.46 4.543 4.46 4.476c.004-.07 25.047-.124 55.656-.124 49.461 0 55.656.027 55.656.246 0 .136-3.835 23.082-8.52 50.988-4.683 27.91-8.515 50.781-8.515 50.824 0 .047-8.691 5.836-19.312 12.867L60.117 132.06Zm35.648-6.57c8.91-6.051 16.258-11.055 16.32-11.122.067-.066 3.36-19.886 7.325-44.046 3.96-24.16 7.246-44.133 7.3-44.38l.094-.452H12.73l.086.37c.047.204 3.325 20.137 7.286 44.298 3.957 24.16 7.214 43.988 7.238 44.062.05.176 32.562 22.262 32.777 22.266.094.004 7.457-4.946 16.371-10.996m0 0"/>
    <path fill="red" d="M61.195 104.523v-1.968h5.29v-2.63h-4.962V89.91h4.961v-2.793h-5.457v-2.5l-.433.11a32 32 0 0 1-.907.203c-.265.05-.48.187-.48.304 0 .118.305.59.672 1.051l.668.844-.629.258c-2.355.972-3.742 1.746-5.453 3.043l-.856.648.985 1.508a42 42 0 0 1 1.789 3.07c.797 1.547 2.078 4.582 1.972 4.672-.03.024-.613.195-1.296.383l-1.239.34 1.692.011 1.695.012v4.922l-7.895.043-7.898.047-3.352-1.11.461-1.746c.98-3.683 2.649-7.367 4.68-10.328.7-1.015 1.27-1.906 1.27-1.976 0-.399-4.368-2.758-6.465-3.489l-1.09-.382.812-.996a21 21 0 0 0 1.48-2.102c.372-.61.767-1.11.884-1.11.304 0 2.75 1.055 3.683 1.587 1.2.687 3.114 1.98 3.754 2.539l.574.5.708-.567c1.328-1.07 3.246-2.254 5.14-3.172l1.89-.918-.343-1.05-.344-1.055H41.68v-4.926l5.168-.012c2.84-.007 5.054-.058 4.918-.109-.137-.055-.965-.25-1.848-.437l-1.598-.344.961-2.63a288 288 0 0 1 1.078-2.913c.114-.27-.199-.285-5.191-.285h-5.309v-4.93h41.676v4.93H70.758l.117.53c.203.935 1.094 3.462 1.5 4.267.219.425.395.804.395.84 0 .038-.762.28-1.696.542l-1.695.47 4.922.042 4.922.047v4.918h-8.27c-6.512 0-8.27.047-8.262.207.004.113.18.648.387 1.191l.383.985 8.457.043 8.46.043v23.316H61.196Zm14.387-3.285v-1.312h-4.465v2.629h4.465Zm-21.75-.531c-.246-.867-1.965-4.07-2.734-5.105l-.836-1.122-.543.711c-.91 1.188-1.883 2.805-2.582 4.282-.364.773-.664 1.449-.664 1.504s1.68.097 3.734.097h3.73Zm21.75-5.789v-1.395H66.32v2.79h9.262Zm0-6.406v-1.395h-4.465v2.793h4.465Zm-8.105-12.79c0-.034-.25-.57-.555-1.19-.61-1.227-1.43-3.528-1.43-4.009 0-.234.317-.394 1.45-.726.796-.234 1.593-.492 1.777-.574.203-.09-2.258-.153-6.32-.16l-6.649-.008-.488 1.515c-.27.836-.715 2.352-.989 3.368l-.5 1.847h6.852c3.77 0 6.852-.027 6.852-.062M57.012 55.418l-3.098-4.102h4.137V40.48H47.3v-4.105h10.75V25.547l-2.059-.047-2.054-.047 2.976-3.941c1.637-2.168 3.04-4.004 3.117-4.082.078-.078 1.516 1.68 3.227 3.941l3.086 4.082-4.156.094v10.828h10.75v4.105h-10.75v10.836h4.136l-3 3.985a548 548 0 0 1-3.11 4.101c-.058.067-1.5-1.726-3.202-3.984m0 0"/>
    <path fill="#f9f9f9" d="M43.914 112.555c-8.91-6.047-16.254-11.047-16.316-11.114-.149-.16-14.61-88.363-14.504-88.468.047-.047 21.25-.063 47.125-.04l47.043.04-7.235 44.086c-3.98 24.246-7.265 44.164-7.3 44.257-.051.13-29.801 20.43-32.18 21.957l-.43.278Zm36.629-17.72v-11.82l-8.457-.042-8.461-.043-.773-2.055h16.535v-5.246l-4.344-.047-4.34-.043 2.383-.656-.656-1.442a26 26 0 0 1-1.051-2.789l-.39-1.351 5.355-.043 5.36-.043V63.96H39.69v5.258h5.211c2.868 0 5.211.031 5.211.07 0 .043-.449 1.3-.992 2.8-.547 1.505-.992 2.79-.992 2.86s.539.23 1.2.36c1.167.226 1.085.23-3.31.273l-4.507.047v5.246H57l.29.918c.16.508.265.934.237.95l-1.449.683c-1.57.734-3.8 2.078-5.082 3.058l-.855.653-1.34-.989a26.5 26.5 0 0 0-5.328-3.023c-.778-.332-1.457-.605-1.508-.605-.047 0-.445.57-.887 1.273-.437.7-1.195 1.734-1.676 2.3-.754.88-.836 1.044-.586 1.134 2.723.945 4.743 1.902 6.63 3.144.827.547.859.59.62.918-1.804 2.477-3.18 4.86-4.136 7.168-.711 1.715-2.188 6.516-2.04 6.637.028.023.794.293 1.704.597l1.656.559 16.125-.094v-5.246l-2.234-.039.703-.168c.426-.101.703-.262.703-.406 0-.402-1.578-4.063-2.39-5.54a37 37 0 0 0-1.505-2.487c-.402-.598-.691-1.149-.644-1.227.23-.371 3.554-2.395 4.992-3.035l1.613-.727h5.707v2.465h-4.96v10.344h4.96v2.3h-5.293v4.27h19.516ZM63.512 55.423l3.16-4.188-2.16-.043-2.16-.046v-10.5h10.75V36.21h-10.75V25.699H64.5c1.184 0 2.152-.039 2.152-.086 0-.12-6.441-8.617-6.535-8.617s-6.531 8.496-6.531 8.617c0 .047.969.086 2.148.086h2.153v10.512h-10.75v4.434h10.75v10.5l-2.14.046-2.138.043 3.25 4.309c1.786 2.367 3.305 4.254 3.371 4.187.063-.066 1.54-2.003 3.282-4.308m0 0"/>
    <path fill="#f9f9f9" d="M71.281 101.238v-1.148h4.137v2.3h-4.137Zm-4.797-6.32v-1.23h8.934v2.46h-8.934Zm4.797-6.406v-1.23h4.137v2.464h-4.137Zm-24.476 12.23c0-.336 1.386-2.91 2.363-4.383.77-1.168 1.05-1.476 1.215-1.34.531.438 2.394 3.618 3.094 5.278l.257.613H50.27c-2.25 0-3.465-.058-3.465-.168m13.254-14.609-.723-.899 1.445-.351.051.547c.027.3.027.785 0 1.074l-.05.531ZM54.082 75.5c0-.266.863-3.324 1.34-4.762l.508-1.52 6.062.012 6.067.012-1.446.43c-1.386.41-1.437.441-1.347.848.214.98.968 3.117 1.41 3.988.258.52.472.98.472 1.027s-2.941.086-6.535.086c-3.59 0-6.531-.055-6.531-.121m0 0"/>
</svg>
