<svg xmlns="http://www.w3.org/2000/svg" width="120" height="120" viewBox="0 0 120 136">
    <path fill="none" stroke="red" stroke-width=".004" d="m-42.404-39.525.075.525.161 1.125.118.825-.824-.118-1.651-.236.707-.707-.89-.889-1.792-1.792V-39h1l-1 1.333-.5.667-.5-.667-1-1.333h1v-1.792L-49.293-39l-.89.889.708.707-1.65.236-.825.118.118-.825.16-1.125.076-.525.525.525.182.182.182-.182 3.207-3.208V-45h-1l1-1.333.5-.667.5.667 1 1.333h-1v2.792L-43.293-39l.182.182.182-.182.525-.525m-.295 4.246.699.24-.067.223-.032.109-.09.377-.082.405-.071.412-.059.403-.042.342-.004.032-.096-.032-.465-.156-.083-.028.044-.38.039-.307.013-.103.062-.42.07-.409.05-.245.028-.134.086-.329m-1.13.424.557-.07-.002.109-.002.182.003.322.01.342.007.178.007.171.018.344.022.325h-.005l-.529.04-.025-.319-.021-.338-.011-.223-.006-.121-.013-.338-.007-.318-.003-.247v-.039m-.47-.162-.134-.013-.123-.009-.112-.005-.098-.003-.082-.001h-.12l-.05.006-.038.01-.008.002-.043.02-.04.032-.04.046-.03.067-.013.049-.013.046-.024.129-.023.166-.023.207-.023.253.28-.101.1-.036.005-.002.05.204.043.158.019.07.07.241.08.245.083.239.086.223-.017.006-.43.148-.063-.148-.008-.02-.018-.046-.051-.132-.068-.183-.065-.184-.062-.179-.055-.166-.001-.003-.001-.003-.006.181-.002.09-.004.107-.008.21-.008.227-.003.1-.004.141-.005.254h2.842v5.966h-3.768v-1.033h1.122v-.709h-.965v-.94h.965v-.64h-.996v-.925h.996v-.678h-1.224v-.079l.002-.08.003-.089.004-.087.007-.074.018-.632.01-.394.004-.123.037-.901v-.007l.047-.694.04-.323.023-.183.082-.345.07-.137.038-.075.078-.108.085-.084.093-.064.101-.046.111-.033.12-.02.123-.02.137-.014.138-.008h.012l.16-.006.165-.001.168.003.008.117.003.036.026.164.039.167.049.164.039.103.02.05.022.047.024.05.006.011.004.006.003.009.008.016m.141.393.03.255.041.286.047.29.002.015.007.039.049.272.06.306.063.287-.007.001-.165.027-.346.056-.069-.291-.065-.304-.059-.305-.017-.102-.033-.196-.042-.279-.029-.249.518-.105.009-.002h.006m-4.678-.14-.25-.016-.065-.003-.168-.008-.214-.006-.19-.004h-.29l-.082.002-.072.01-.066.021-.06.032-.057.047-.056.064-.113.27-.09.504-.006.058-.037.401-.03.315-.017.308-.04.77-.049 1.41-.04 1.783h2.636l.099-.19.1-.183.104-.177.103-.172.104-.166.102-.16h-2.574v-3.538h1.93v-.578h1.005v3.715l.13.124.157.143.17.15.175.145.168.129.099.068.051.035-.364.448-.22.34-.115.179-.135.257-.167.318-.265.617-.036.104-.19.54-.18.657-1.209-.277.068-.235.071-.235.074-.233.073-.217.004-.014.081-.228.085-.226H-52v-.032l.001-.085.001-.116.003-.127.004-.12.007-.09.009-.437.003-.133.035-1.633.053-1.722.032-.608.035-.69.091-.933.083-.425.04-.198.16-.373.126-.168.117-.117.013-.013.135-.098.144-.071.157-.051.172-.037.182-.031.207-.018.226-.009h.241l.252.005.21.005.033.001.014.001.02.187.036.208.006.024.05.194.073.218.089.207.101.182.002.005M-34-50l-2.872 17.232-.928 5.57L-38-26l-7.52 5.013-.001.001L-47-20l-9-6-.2-1.197-.928-5.571L-60-50h26m-20.618 22.772v.03h.007l2.61 1.785L-47-21.997l5-3.416.859-.587 1.752-1.197h.007v-.031l.903-5.54.479-2.941 2.003-12.293h-22.006L-56-35.709l.479 2.94.903 5.54m11.056-2.5h-.675v.639h.675v-.64m-.675-.925h.675v-.678h-.675v.678m0 3.214h.675v-.709h-.675v.71m-3.987-3.454v-1.456h-.935v1.456Zm0 0" transform="matrix(4.29492 0 0 4.26451 261.99 217.49)"/>
    <path fill="red" d="m40.84 119.297-19.278-12.762-8.55-50.969C8.309 27.536 4.46 4.543 4.46 4.476c.004-.07 25.047-.124 55.656-.124 49.461 0 55.656.027 55.656.246 0 .136-3.835 23.082-8.52 50.988-4.683 27.91-8.515 50.781-8.515 50.824 0 .047-8.691 5.836-19.312 12.867L60.117 132.06Zm35.648-6.57c8.91-6.051 16.258-11.055 16.32-11.122.067-.066 3.36-19.886 7.325-44.046 3.96-24.16 7.246-44.133 7.3-44.38l.094-.452H12.73l.086.37c.047.204 3.325 20.137 7.286 44.298 3.957 24.16 7.214 43.988 7.238 44.062.05.176 32.562 22.262 32.777 22.266.094.004 7.457-4.946 16.371-10.996m0 0"/>
    <path fill="red" d="M63.18 102.719v-2.137h4.793v-3.285H63.84v-3.774h4.133v-2.957h-4.297V86.79h4.297v-2.957h-5.309l.098-2.914c.41-12.066.71-14.254 2.148-15.637.711-.683 1.953-.984 4.074-.988l1.59-.004.106.871c.054.48.25 1.305.433 1.832.184.531.336.98.336 1s-.664-.004-1.476-.05c-2.172-.122-2.25-.012-2.743 3.78-.117.872-.054.91.852.532.813-.336.832-.328.961.371.09.484 1.203 4.059 1.523 4.898.04.098-.242.27-.617.383-.379.11-.777.239-.886.278-.13.05-.485-.715-1.012-2.176-.965-2.68-1.028-2.617-1.051 1.05l-.02 2.504h12.075v25.29H63.18Zm11.742-3.778v-1.644h-2.977v3.285h2.977Zm0-6.898v-1.477h-2.977v2.957h2.977Zm0-6.73v-1.481h-2.977v2.957h2.977Zm0 0"/>
    <path fill="red" d="M78.27 77.313c-.895-.301-1.2-.481-1.2-.7 0-1.203 1.328-9.093 1.575-9.34.027-.03.68.149 1.445.395l1.387.45-.305 1.081c-.438 1.551-1.063 4.754-1.3 6.668-.114.903-.25 1.688-.306 1.746-.054.055-.636-.078-1.296-.3m-4.106-.625c-.062-.27-.383-7.665-.336-7.743.012-.011.52-.078 1.133-.14l1.117-.118v2.13c0 1.167.047 3.019.11 4.105l.105 1.98-1.023.059c-.915.05-1.036.02-1.106-.273m-3.027-.61a73 73 0 0 1-.918-5l-.094-.683.836-.18c.457-.098.926-.176 1.039-.176.14 0 .383 1.023.742 3.16.297 1.739.578 3.356.63 3.598.085.406.046.441-.626.543a14 14 0 0 0-.992.187c-.227.063-.336-.191-.617-1.449M53.422 105.93c-1.5-.356-2.25-.61-2.281-.77-.036-.183 1.207-4.14 1.714-5.453.098-.254-.46-.273-7.035-.273h-7.136l.093-2.422c.051-1.332.168-5.489.262-9.239.395-16.113.914-20.117 2.867-22.054 1.239-1.23 2.614-1.586 6.145-1.59l2.484-.004.195 1.238c.168 1.032.48 1.985 1.145 3.485.07.16-.54.207-2.746.207-1.64 0-2.977.07-3.16.168-1.375.73-1.942 5.84-2.25 20.234l-.11 5.215h11.48l.282-.508c.156-.277.746-1.285 1.316-2.234.567-.95 1.032-1.758 1.032-1.793s-2.492-.063-5.54-.063h-5.538V75.13h8.27v-2.465h4.132V88.56l1.262 1.093c.695.606 1.586 1.336 1.98 1.621.39.29.719.57.723.633.004.059-.266.426-.602.82-2.281 2.692-4.843 8.012-6.09 12.66-.164.61-.382 1.098-.48 1.09-.102-.011-1.188-.257-2.414-.546m1.488-23.328v-3.204h-4.137v6.407h4.137Zm2.102-27.185-3.098-4.102h4.137v-7.96l-5.871 5.828-5.867 5.824 1.433 1.433c.969.965 1.36 1.457 1.2 1.508-.442.145-9.805 1.414-9.876 1.344-.039-.04.25-2.332.645-5.09l.715-5.02 1.414 1.395c.777.77 1.484 1.399 1.574 1.399s3.418-3.235 7.398-7.188l7.235-7.184V25.547l-2.059-.047-2.054-.047 2.976-3.941c1.637-2.168 3.04-4.004 3.117-4.082.078-.078 1.516 1.68 3.227 3.941l3.086 4.082-4.156.094v12.058l7.234 7.184c3.98 3.953 7.308 7.188 7.398 7.188s.797-.63 1.575-1.399l1.414-1.394.722 5.007c.403 2.754.692 5.047.649 5.09-.082.082-9.41-1.176-9.887-1.332-.16-.05.23-.543 1.2-1.508l1.433-1.433-5.871-5.824-5.868-5.829v7.961h4.137l-3 3.985a548 548 0 0 1-3.11 4.101c-.058.067-1.5-1.726-3.202-3.984m0 0"/>
    <path fill="#f9f9f9" d="M43.91 112.559c-8.914-6.047-16.265-11.086-16.332-11.196-.07-.113-3.144-18.605-6.828-41.093-8.285-50.547-7.746-47.207-7.652-47.301.043-.043 21.246-.059 47.12-.035l47.044.039-7.235 44.086c-3.98 24.246-7.265 44.164-7.3 44.257-.051.13-29.801 20.43-32.18 21.957l-.43.278Zm12.567-7.008c1.28-4.813 3.464-9.348 6.09-12.656.453-.57.757-1.094.675-1.16-.082-.07-.48-.376-.89-.68a44 44 0 0 1-1.946-1.61l-1.199-1.054V72.5h-4.465v2.465h-8.27v15.273h5.462c3 0 5.457.024 5.457.051 0 .031-.48.848-1.067 1.816-.59.973-1.113 1.91-1.172 2.082-.097.31-.308.32-5.738.32h-5.637l.114-4.968c.265-11.676.71-17.344 1.5-19.21.457-1.083.691-1.145 3.968-1.083 1.598.027 2.903-.004 2.903-.074s-.192-.504-.422-.961c-.469-.918-1.067-3.043-1.067-3.797v-.48l-3.101.07c-3.734.086-4.473.266-5.707 1.406-2.18 2.016-2.676 5.528-3.094 21.871-.09 3.567-.207 7.797-.258 9.403l-.093 2.914h14.16l-.961 2.894c-.528 1.59-.926 2.926-.883 2.969.094.094 4.695 1.168 5.082 1.184.191.011.348-.297.559-1.094m22.746-13.344V79.398H67.148v-2.187c0-1.207.051-2.242.11-2.3.062-.063.39.636.73 1.55s.692 1.73.778 1.82c.218.215 2.02-.347 2.02-.633 0-.117-.177-.683-.395-1.257-.22-.575-.598-1.778-.844-2.672S69.07 72 69.039 71.89c-.043-.153-.195-.141-.637.043-.32.132-.672.238-.777.238-.258 0-.059-2.45.258-3.207.347-.82.746-.957 2.457-.828 1.383.101 1.472.09 1.36-.184-.446-1.09-.766-2.21-.86-2.973l-.106-.89-2.164.07c-2.34.078-3.117.29-3.933 1.063-1.313 1.246-1.668 3.965-2.047 15.53l-.106 3.243h5.325v2.629h-4.301v4.105h4.3v2.625h-4.132v4.106h4.133v2.957h-4.797v4.598h16.21Zm.922-16.914c.37-2.578.878-5.02 1.34-6.457.136-.434.226-.813.19-.836-.218-.184-3.128-1.031-3.19-.93-.297.473-1.579 8.23-1.579 9.543 0 .422.094.492 1.2.871.66.23 1.304.403 1.433.383.172-.02.332-.699.606-2.574m-7.075 2.2c.54-.083.688-.169.618-.356-.137-.352-.86-4.305-1.098-5.992-.164-1.184-.246-1.426-.465-1.368-.145.043-.691.16-1.215.262-.523.102-.95.258-.95.34 0 .375.513 3.496.813 4.941.547 2.63.48 2.477 1.067 2.371.285-.046.836-.14 1.23-.199m3.43-.454c.004-.012-.043-.797-.105-1.746a88 88 0 0 1-.133-4.277l-.02-2.555-1.281.152c-.703.086-1.3.168-1.324.192-.07.058.297 7.86.386 8.148.067.223.27.254 1.274.184.656-.043 1.2-.09 1.203-.098M63.512 55.422l3.16-4.188-2.16-.043-2.16-.046v-7.461l5.664 5.62 5.66 5.622-1.555 1.55-1.55 1.551.562.098c1.082.188 9.793 1.402 10.066 1.402.25 0 .2-.539-.48-5.242-.414-2.883-.793-5.281-.844-5.332-.05-.047-.758.574-1.57 1.387l-1.477 1.472-7.238-7.183-7.238-7.188V25.7H64.5c1.184 0 2.152-.039 2.152-.086 0-.12-6.441-8.617-6.535-8.617s-6.531 8.496-6.531 8.617c0 .047.969.086 2.148.086h2.153v11.742L43.418 51.81l-1.516-1.496c-1.238-1.227-1.527-1.442-1.597-1.192-.223.781-1.504 10.234-1.403 10.332.094.094 8.75-1.035 10.282-1.344.472-.093.468-.097-1.036-1.597l-1.507-1.504 5.625-5.578 5.62-5.582v7.297l-2.14.046-2.137.043 3.25 4.309c1.786 2.367 3.305 4.254 3.371 4.187.063-.066 1.54-2.003 3.282-4.308m0 0"/>
    <path fill="#f9f9f9" d="M72.11 98.941v-1.48h2.644v2.957h-2.645Zm0-6.898V90.73h2.644v2.625h-2.645Zm0-6.73v-1.317h2.644v2.629h-2.645Zm-21.169-2.711v-3.04h3.801v6.079h-3.8Zm0 0"/>
</svg>
