<svg xmlns="http://www.w3.org/2000/svg" width="120" height="120" viewBox="0 0 120 136">
    <path fill="none" stroke="red" stroke-width=".004" d="M-51.596-44.475-51.67-45l-.161-1.125-.118-.825.824.118 1.651.236-.707.707.89.889 1.792 1.792V-45h-1l1-1.333.5-.667.5.667 1 1.333h-1v1.792L-44.707-45l.89-.889-.708-.707 1.65-.236.825-.118-.118.825-.16 1.125-.076.525-.525-.525-.182-.182-.182.182-3.207 3.208V-39h1l-1 1.333-.5.667-.5-.667-1-1.333h1v-2.792L-50.707-45l-.182-.182-.182.182-.525.525m3.97 9.38.04-.077.04-.075.036-.073.004-.008.006-.012.025-.05.078.062.029.023.129.093.135.092.008.005.101.064.048.031.147.09.14.079.16-.069.527-.226.014-.006.042.237.024.099.04.164.08.28.098.288.107.282.004.01.11.259-.716.27-.09-.206-.005-.009-.093-.23-.03-.084-.058-.154-.054-.161-.026-.078-.07-.232-.057-.218-.163.3-.163.327-.098.216-.027.057-.032.071-.147.355-.132.357-.059.184-.054.168-.568-.168-.473-.14.114-.319.127-.328.137-.33.143-.327.144-.316.136-.288.006-.012-.14-.002h-.044l-.18-.003h-.002l-.163-.002h-.145l-.115-.001h-.078l-.057.003-.043.01-.013.007-.018.01-.02.027-.01.039-.005.051v2.498h1.818v3.277h-4.555v-3.277h1.568v-2.53l.004-.095.005-.158.03-.216.056-.183.087-.152.123-.126.163-.102.182-.08.162-.04.044-.012.233-.034.26-.018.288-.008h.316l.017.105.006.036.003.019.04.17.05.177.035.11.021.065.063.17.066.154v.003l.03-.056.013-.024.005-.01.035-.069m-3.332-.25.047.206.034.146.025.089.025.088.062.219.133.422.147.432.153.423.15.396-.006.002-.462.154-.504.168-.07-.168-.094-.228-.163-.415-.155-.42-.142-.412-.123-.388-.052-.185-.046-.166 1.04-.363m6.426 1.72-.522.117-.202.045-.09-.321-.001-.008-.082-.33-.076-.343-.066-.334-.003-.017-.05-.296-.01-.07-.029-.209.609-.156.115-.03.017-.003.013-.004.03.281.048.318.03.169.032.171.074.349.08.345.04.159.009.036.034.131M-42-35.638l-.139.32-.128.363-.042.139-.075.252-.103.402-.08.353-.01.045-.072.378-.36-.124-.47-.162.023-.12.052-.27.086-.412.08-.342.017-.075.108-.404.105-.335.013-.04.128-.33.811.34.033.013.023.01m-1.697-.163v.318l.005.352.009.314.002.057.017.38.023.374.016.213.011.144-.754.092-.01-.103-.014-.133-.012-.12-.031-.37-.025-.375-.009-.16-.01-.205-.013-.344-.004-.31.784-.121.01-.002.005-.001m1.13 2.73v3.392l.095.09.096.084.098.081.096.073.09.062.032.018.052.032-.347.497-.038.07-.259.463-.25.552-.106.288-.063.17-.036.099-.057.189-.086.286-.021.069-.124.516-.996-.138.025-.12.029-.122.032-.122.024-.083.01-.04.034-.122.035-.124h-.898l-.188.07-.449-.324-.045-.033-.147-.106.099-.235.108-.24.115-.244.122-.242.127-.237.098-.17.032-.058h-1.033v-4.341h3.695M-56.536-39l.536 3.29.479 2.942.903 5.54v.03h.007l2.61 1.785L-47-21.997l5-3.416.859-.587 1.752-1.197h.007v-.031l.903-5.54.479-2.941.536-3.29.075-.46.903-5.541.49-3.002h-22.007l.03.19.46 2.812.902 5.54.075.46M-34-50l-2.872 17.232-.928 5.57L-38-26l-7.52 5.013-.001.001L-47-20l-9-6-.2-1.197-.928-5.571L-60-50h26m-9.56 21.413.044-.085.03-.057h-.73l-.033.057-.038.07-.067.136-.065.142-.064.149-.063.153-.063.156h.731l.061-.146.061-.145.063-.144.065-.143.069-.143m-3.019.313v1.11h-2.164l.047.145.05.147.052.147.053.145.054.14.053.132-.719.2-.381.108-.08-.184-.085-.195-.086-.2-.084-.201-.079-.197-.07-.187h-1.862v-1.11h5.301m1.795-3.794h-.52v.702h.52v-.702m0 1.627h-.52v.717h.52v-.717m1.297-.925v-.702h-.497v.702h.497m0 1.642v-.717h-.497v.717h.497m-4.577-.308v-1.04h-2.308v1.04Zm0 0" transform="matrix(4.29492 0 0 4.26451 261.99 217.49)"/>
    <path fill="red" d="m40.84 119.297-19.278-12.762-8.55-50.969C8.309 27.536 4.46 4.543 4.46 4.476c.004-.07 25.047-.124 55.656-.124 49.461 0 55.656.027 55.656.246 0 .136-3.835 23.082-8.52 50.988-4.683 27.91-8.515 50.781-8.515 50.824 0 .047-8.691 5.836-19.312 12.867L60.117 132.06Zm35.652-6.574c8.914-6.055 16.258-11.059 16.32-11.121s3.356-19.883 7.32-44.043c3.962-24.16 7.247-44.133 7.302-44.38l.093-.452H12.73l.086.37c.047.204 3.325 20.137 7.286 44.298 3.957 24.16 7.214 43.988 7.238 44.062.055.18 32.562 22.262 32.777 22.266.094.004 7.461-4.95 16.375-11m0 0"/>
    <path fill="red" d="M73.227 106.047c-.98-.137-1.778-.293-1.778-.352s.18-.757.399-1.554l.402-1.45-4.922.086-1.234-.867c-1.469-1.031-1.504-.637.414-4.422.715-1.406 1.3-2.582 1.3-2.605 0-.028-1.003-.047-2.23-.047h-2.234v-18.23h15.71v14.433l.926.75c.512.41 1.04.813 1.18.89.211.118.094.372-.68 1.5-1.812 2.641-3.746 7.204-4.648 10.962-.215.898-.352 1.183-.559 1.171a95 95 0 0 1-2.046-.265m1.132-8.996c1.125-2.442 1.2-2.215-.714-2.215h-1.649l-.594 1.273c-.605 1.293-1.113 2.489-1.113 2.61 0 .039.746.047 1.656.023l1.657-.047Zm-4.566-7.797v-1.645h-2.48v3.286h2.48Zm5.457 0v-1.645h-2.312v1.532c0 .843.046 1.582.109 1.644.058.059.582.11 1.156.11h1.047Zm-5.457-6.98V80.71h-2.48v3.121h2.48Zm5.457 0V80.71h-2.312v3.121h2.312Zm1.746-7.879c-.816-.293-1.508-.61-1.539-.704-.172-.515 1.906-8.597 2.41-9.359.102-.16.524-.047 1.778.469.902.375 1.671.707 1.71.738.036.031-.171.672-.457 1.418-.636 1.648-1.214 3.621-1.668 5.711-.187.855-.378 1.723-.425 1.926-.106.449.004.46-1.809-.2m-5.601-1.16c-.211-2.222-.493-7.636-.407-7.722.075-.075 2.778-.563 3.121-.563.055 0 .149 1.715.207 3.817.063 2.101.157 4.12.211 4.492l.102.676-1.055.113c-.578.058-1.281.152-1.562.2l-.516.089Zm-3.907.786c-.582-2.16-1.496-6.555-1.496-7.204-.004-.199 2.738-.945 2.961-.808.074.043.184.582.246 1.195.063.61.375 2.332.7 3.82l.613 2.856c.02.117-2.211.73-2.739.754-.062 0-.191-.274-.285-.613m0 0"/>
    <path fill="red" d="M40.684 87.2v-6.981h6.761l.051-6.364c.05-6.117.066-6.39.41-7.132.426-.91 1.395-1.668 2.606-2.032.465-.14 1.812-.296 3.008-.351l2.171-.098.118.64c.164.884 1.101 3.68 1.234 3.68.062 0 .324-.398.59-.882l.48-.88 1.602 1.044c.883.574 1.715 1.047 1.844 1.047.132 0 .828-.254 1.546-.567.72-.308 1.333-.539 1.36-.511.027.027.191.632.367 1.343.316 1.305 1.07 3.582 1.547 4.68l.262.598-1.368.511c-.753.282-1.414.512-1.468.512-.149 0-1.02-2.168-1.614-4.02-.289-.902-.554-1.671-.59-1.707-.14-.136-2.374 4.618-3.066 6.516l-.73 2.02-.485-.09c-.988-.192-3.734-1.094-3.734-1.23 0-.258 1.676-4.325 2.5-6.071.445-.937.809-1.77.809-1.848 0-.074-.965-.136-2.145-.136-1.953 0-2.16.027-2.316.316-.11.2-.172 2.293-.172 5.664v5.348h7.941v13.96h-19.52Zm14.886-.005v-2.382l-10.007.085-.043 2.13c-.028 1.167-.012 2.222.035 2.34.066.167 1.12.214 5.047.214h4.968Zm-6.586 18.586c-.18-.402-.644-1.511-1.039-2.472l-.71-1.743h-8.04V96.97h22.66v4.597h-4.632c-2.79 0-4.63.063-4.63.157 0 .086.266.902.594 1.816.329.914.57 1.684.54 1.707-.032.024-.914.281-1.961.57-1.047.293-2.028.567-2.18.614-.203.058-.363-.114-.602-.649m0 0"/>
    <path fill="red" d="M41.984 77.469c-1.015-2.305-3.117-8.324-3.117-8.934 0-.148.68-.457 1.942-.879 1.07-.355 2.011-.648 2.093-.652.082 0 .325.66.54 1.473.456 1.718 1.328 4.375 2.234 6.8.347.942.617 1.727.594 1.746-.086.067-3.688 1.227-3.813 1.227-.07 0-.285-.352-.473-.781m15.028-22.051-3.098-4.102h4.137V39.25L43.418 24.719l-1.445 1.426c-.793.785-1.47 1.394-1.504 1.351-.059-.07-1.438-9.598-1.438-9.937 0-.114 1.739.074 4.922.527 2.703.39 5.027.707 5.164.71.133.005-.441.692-1.281 1.528l-1.523 1.52 5.746 5.707c3.16 3.137 5.8 5.703 5.87 5.703.067 0 .122-1.734.122-3.856v-3.851l-2.059-.047-2.054-.047 2.976-3.941c1.637-2.168 3.04-4.004 3.117-4.082.078-.078 1.516 1.68 3.227 3.941l3.086 4.082-4.156.094v3.851c0 2.122.054 3.856.12 3.856.067 0 2.712-2.566 5.872-5.703l5.746-5.707-1.524-1.52c-.84-.836-1.418-1.523-1.28-1.527.132-.004 2.456-.32 5.163-.711 4.86-.695 4.922-.7 4.914-.363-.004.187-.32 2.504-.703 5.148l-.695 4.805-1.489-1.48-1.484-1.485-7.32 7.27-7.32 7.265v12.07h4.136l-3 3.985a548 548 0 0 1-3.11 4.101c-.058.067-1.5-1.726-3.202-3.984m0 0"/>
    <path fill="#f9f9f9" d="M43.91 112.559c-8.914-6.047-16.265-11.086-16.332-11.196-.07-.113-3.144-18.605-6.828-41.093-8.285-50.547-7.746-47.207-7.652-47.301.043-.043 21.246-.059 47.12-.035l47.044.039-7.235 44.086c-3.98 24.246-7.265 44.164-7.3 44.257-.051.13-29.801 20.43-32.18 21.957l-.43.278Zm7.856-6.543c1.547-.434 2.226-.696 2.207-.856-.016-.125-.297-.945-.621-1.828l-.59-1.598h9.258v-4.93H39.03v4.93h8.024l1.047 2.461c.574 1.356 1.132 2.461 1.238 2.457.105-.004 1.2-.289 2.426-.636m24.312-1.04c.895-3.683 2.77-8.035 4.617-10.714.89-1.301.98-1.5.739-1.645-.153-.09-.715-.515-1.246-.949l-.965-.785V76.44H63.18V95h2.148c1.184 0 2.149.043 2.149.098 0 .054-.329.699-.73 1.437-.716 1.305-2.083 4.274-2.079 4.508.004.062.578.52 1.277 1.02l1.274.902 2.363-.059c1.297-.035 2.363.004 2.363.082s-.152.657-.332 1.29c-.504 1.753-.586 1.648 1.446 1.929 2.906.398 2.593.523 3.02-1.23M60.368 87.2v-7.144H52.43v-5.13c0-2.823.047-5.3.101-5.503.098-.356.164-.367 2.13-.367h2.03l-.996 2.172c-.941 2.046-2.484 5.886-2.398 5.968.16.157 4.527 1.34 4.601 1.25.055-.062.348-.816.649-1.675.637-1.797 1.976-4.84 2.594-5.895l.425-.719.621 1.871c.344 1.028.813 2.297 1.047 2.817l.422.945.88-.348a43 43 0 0 1 1.577-.593c.387-.133.703-.282.703-.328 0-.051-.296-.875-.66-1.832a40 40 0 0 1-1.078-3.376c-.226-.898-.45-1.667-.492-1.707-.043-.043-.738.196-1.547.536l-1.469.609-.89-.54a29 29 0 0 1-1.758-1.163l-.863-.625-.473.93c-.262.511-.516.863-.563.78-.171-.3-.945-2.792-1.054-3.413l-.114-.637-2.332.09c-3.468.14-4.945.75-5.75 2.371-.386.777-.39.852-.441 7.148l-.05 6.364H40.52v14.289h19.847ZM44.53 77.824c1.067-.347 1.942-.719 1.942-.828 0-.11-.254-.86-.563-1.664-.758-1.977-2.16-6.297-2.426-7.484-.117-.532-.297-.996-.402-1.035-.164-.063-4.297 1.28-4.469 1.453-.082.078.871 3.226 1.477 4.894 1.16 3.168 2.133 5.434 2.308 5.371.106-.039 1.063-.355 2.133-.707m34.438-3.062c.043-.207.27-1.215.5-2.242.488-2.204 1.281-4.82 1.844-6.079.218-.492.34-.945.269-1.004-.2-.171-3.41-1.476-3.633-1.476-.238 0-.738 1.3-1.37 3.59-.61 2.21-1.372 5.836-1.298 6.199.035.18.563.457 1.543.805 1.836.656 2.035.675 2.145.207m-9.59-.266c1.547-.348 1.476-.117.855-2.824a66 66 0 0 1-.707-3.613c-.144-.942-.297-1.871-.328-2.067l-.062-.351-1.676.418-1.672.418.106.925c.132 1.168.796 4.371 1.265 6.09.403 1.492.281 1.438 2.219 1.004m4.363-.289 1.055-.11-.102-.921c-.058-.508-.152-2.602-.215-4.656-.093-3.262-.14-3.735-.37-3.735-.477 0-3.192.469-3.29.567-.093.093.203 6.02.41 8.109l.102 1.043.676-.094a94 94 0 0 1 1.734-.203m-10.23-18.785 3.16-4.188-2.16-.043-2.16-.046V39.41l7.273-7.222 7.277-7.223 1.485 1.469c.816.804 1.511 1.433 1.547 1.394.07-.09 1.578-10.566 1.527-10.629-.02-.02-2.465.313-5.438.738l-5.398.782 1.527 1.523 1.524 1.52-5.66 5.62-5.664 5.626v-7.309H64.5c1.184 0 2.152-.039 2.152-.086 0-.12-6.441-8.617-6.535-8.617s-6.531 8.496-6.531 8.617c0 .047.969.086 2.148.086h2.153v7.305l-5.621-5.578-5.625-5.582 1.52-1.516c.835-.832 1.487-1.543 1.448-1.582-.129-.113-10.648-1.57-10.734-1.484-.121.12 1.34 10.304 1.508 10.484.086.098.722-.414 1.629-1.312l1.488-1.47 7.191 7.141 7.196 7.141v11.899l-2.14.046-2.138.043 3.25 4.309c1.786 2.367 3.305 4.254 3.371 4.187.063-.066 1.54-2.003 3.282-4.308m0 0"/>
    <path fill="#f9f9f9" d="M70.621 98.438c0-.106.344-.922.77-1.813L72.16 95h2.89l-.793 1.766-.797 1.765-1.418.047c-.992.031-1.422-.012-1.422-.14m2.482-9.27v-1.395h1.984v2.793h-1.984Zm-5.625 0v-1.395h2.152v2.793h-2.152Zm5.625-6.895v-1.398h1.984v2.793h-1.984Zm-5.625 0v-1.398h2.152v2.793h-2.152Zm-21.664 4.844V84.98h9.593v4.274h-9.593Zm0 0"/>
</svg>
