<svg xmlns="http://www.w3.org/2000/svg" viewBox="0 0 60 60">
    <defs>
        <filter id="0FU_svg__a" width="1.324" height="1.265" x="-.137" y="-.112">
            <feGaussianBlur in="SourceAlpha" result="blur" stdDeviation="2"/>
            <feOffset dx="2" dy="2" result="offsetBlur"/>
            <feBlend in="SourceGraphic" in2="offsetBlur"/>
        </filter>
    </defs>
    <g filter="url(#0FU_svg__a)" transform="translate(39.633 3.208)scale(.88521)">
        <path fill="#e9dbc9" stroke="#333" stroke-width="1.13" d="m-23.798 14.317-7.051 44.451H9.085l-6.79-44.163c-4.418-1.298-8.839-2.6-13.255-3.896z"/>
    </g>
    <path d="M29.883 19.1a.32.32 0 0 0-.317.261c-.948 4.914-1.872 7.694-5.86 10.99a.323.323 0 0 0 .077.547c1.369.586 2.786.914 4.2 1.09-.048 2.001-.195 3.813-.842 5.428-.675 1.685-1.877 3.187-4.12 4.553l-.007.004c-1.179.763-1.995 1.394-2.555 2.199s-.838 1.76-.986 3.105a.32.32 0 0 0 .236.348c3.063.82 6.68 1.21 10.293 1.193 3.612.017 7.227-.374 10.289-1.195a.32.32 0 0 0 .236-.348c-.148-1.345-.426-2.299-.986-3.103s-1.376-1.436-2.555-2.2l-.007-.003c-2.247-1.368-3.45-2.873-4.124-4.56-.646-1.62-.79-3.438-.837-5.444 1.376-.19 2.723-.523 3.968-1.067a.323.323 0 0 0 .077-.546c-3.99-3.297-4.915-6.078-5.864-10.99a.32.32 0 0 0-.316-.262" color="#000" paint-order="stroke fill markers" style="-inkscape-stroke:none"/>
</svg>
