<svg xmlns="http://www.w3.org/2000/svg" viewBox="0 0 60 60">
    <defs>
        <filter id="0GI_svg__a" width="1.32" height="1.262" x="-.135" y="-.11">
            <feGaussianBlur in="SourceAlpha" result="blur" stdDeviation="2"/>
            <feOffset dx="2" dy="2" result="offsetBlur"/>
            <feBlend in="SourceGraphic" in2="offsetBlur"/>
        </filter>
    </defs>
    <g fill="#dcdcdc" filter="url(#0GI_svg__a)" transform="translate(40.742 .122)scale(.98716)">
        <path fill="#dfc585" stroke="#333" stroke-width="1.013" d="m-23.798 11.375-7.051 44.45H9.085l-6.79-44.163c-4.418-1.297-8.839-2.6-13.255-3.895Z"/>
    </g>
    <path d="m30.008 14.181-.303.422c-.88 1.232-1.746 2.732-3.104 3.324l-.568.246.482.393c.913.738 1.493 2.047 1.81 3.75.073.388.128.8.175 1.224-1.322.534-2.515 1.368-3.635 2.377.39.246.951.583 1.687.977 1.2.642 2.681.86 3.458.861.79.001 2.273-.218 3.472-.86.747-.4 1.28-.736 1.664-.98-1.117-1.008-2.308-1.84-3.627-2.375.047-.423.1-.836.172-1.224.318-1.703.896-3.012 1.81-3.75l.483-.393-.568-.246c-1.358-.592-2.225-2.092-3.106-3.324zm-10.026 2.211-.62.023c-.082 4.185.19 8.092 1.702 10.961a8 8 0 0 0 2.12 2.58c.39.142 1.18.421 2.333.764 1.506.447 3.341.885 4.48.885 1.144 0 2.984-.437 4.495-.885a42 42 0 0 0 2.31-.752 8 8 0 0 0 2.131-2.592c1.512-2.869 1.784-6.776 1.703-10.96l-.62-.024c-.32 4.498-1.059 7.262-2.56 8.967-.368.42-.806.762-1.284 1.068l.006.01s-.976.67-2.225 1.34-2.719.982-3.943.98a8.65 8.65 0 0 1-3.93-.982c-1.25-.67-2.258-1.336-2.258-1.336l.008-.012c-.48-.306-.92-.649-1.29-1.068-1.5-1.705-2.24-4.468-2.558-8.967m2.85 14.54c-2.324 4.953-6.477 10.71-8.36 13.315l-.195.268.17.291c.872 1.49 2.601 3.546 4.418 3.986l.29.07.134-.31c.34-.778 1.224-4.756 2.197-7.47q.005 0 .008.004l3.01-9.594c-.932-.296-1.417-.47-1.672-.56m14.34.005c-.263.092-.735.26-1.659.553l3.06 9.756c.948 2.641 1.804 6.545 2.136 7.306l.136.31.29-.07c1.816-.44 3.543-2.496 4.416-3.986l.171-.29-.195-.268c-1.882-2.606-6.032-8.36-8.355-13.31Zm-2.614.85c-1.5.436-3.235.863-4.56.863-1.32 0-3.046-.426-4.54-.86l-.609 1.942c.342.122.901.318 1.711.558 1.156.344 2.565.68 3.44.68.877 0 2.291-.336 3.45-.68a31 31 0 0 0 1.718-.558zm-9.949 2.71-2.19 6.983c2.074.887 5.395 2.16 7.58 2.164 2.177.003 5.487-1.24 7.608-2.135l-2.2-7.01a33 33 0 0 1-1.728.561c-1.188.352-2.61.711-3.68.711-1.065 0-2.482-.36-3.667-.713-.8-.237-1.36-.43-1.723-.56z" enable-background="accumulate" overflow="visible"/>
</svg>
