<svg xmlns="http://www.w3.org/2000/svg" viewBox="0 0 60 60">
    <defs>
        <filter id="0HI_svg__a" width="1.318" height="1.262" x="-.134" y="-.11">
            <feGaussianBlur in="SourceAlpha" result="blur" stdDeviation="2"/>
            <feOffset dx="2" dy="2" result="offsetBlur"/>
            <feBlend in="SourceGraphic" in2="offsetBlur"/>
        </filter>
    </defs>
    <g fill="#fdc9dd" filter="url(#0HI_svg__a)" transform="translate(41.426 -1.78)scale(1.05)">
        <path fill="#e9dbc9" stroke="#333" stroke-width=".952" d="m-11.137 6.414-12.838 3.608-7.051 44.45H8.908c-2.303-14.885-4.076-30.55-6.79-44.163z"/>
    </g>
    <path fill="#020101" d="M43.241 18.88v.002c-9.096.994-17.734.994-26.857.016-.067-.006-.045.09-.033.14.502 2.021.673 2.271 2.075 3.76l22.77-.007c1.454-1.427 1.579-1.716 2.085-3.75.011-.056.023-.17-.033-.17zm-24.846 4.954V41.14h1.44c.523-5.036 4.796-8.98 9.968-8.98s9.443 3.944 9.966 8.98h1.44V23.834Zm11.408 9.367a8.983 8.983 0 1 0 0 17.965 8.983 8.983 0 0 0 0-17.965m-.834 3.134v3.833l-2.708-2.71a5.85 5.85 0 0 1 2.708-1.123m1.67 0a5.86 5.86 0 0 1 2.708 1.123l-2.709 2.71zm-5.557 2.304 2.71 2.71H23.96a5.9 5.9 0 0 1 1.122-2.71m9.445 0c.599.79.984 1.727 1.123 2.71h-3.833zm-16.032 3.515c-.578.003-1.14.008-1.14.008l-.855 1.466v1.657h3.83c-.459-.802-.683-2.086-.609-3.123-.055-.012-.651-.011-1.225-.008zm22.616 0c-.577-.003-1.168-.004-1.226.008.066 1.037-.15 2.324-.61 3.123h3.832v-1.657l-.855-1.466s-.567-.005-1.14-.008zm-17.152.855h3.832l-2.708 2.71a5.86 5.86 0 0 1-1.124-2.71m7.859 0h3.831a5.85 5.85 0 0 1-1.124 2.71zm-2.85 1.18v3.831a5.85 5.85 0 0 1-2.705-1.122zm1.67 0 2.708 2.709a5.85 5.85 0 0 1-2.708 1.122z" opacity=".99"/>
</svg>
