<svg xmlns="http://www.w3.org/2000/svg" viewBox="0 0 60 60">
    <defs>
        <filter id="0KA_svg__a" width="1.29" height="1.241" x="-.12" y="-.1">
            <feGaussianBlur in="SourceAlpha" result="blur" stdDeviation="2"/>
            <feOffset dx="2" dy="2" result="offsetBlur"/>
            <feBlend in="SourceGraphic" in2="offsetBlur"/>
        </filter>
    </defs>
    <g fill="#fdc9dd" filter="url(#0KA_svg__a)" transform="translate(41.426 -1.78)scale(1.05)">
        <path fill="#dfc585" stroke="#333" stroke-width=".952" d="m-10.96 6.237-12.838 3.608-7.051 44.45H9.085l-6.79-44.163z"/>
    </g>
    <path d="M38.054 15.412a4.4 4.4 0 0 0-.975.08v.068h-.065c-2.56.724-4.484 2.931-5.27 5.832 0 0-.032.093-.032.136-.23 1.162-.45 2.732-.64 4.294a53 53 0 0 0-2.378-3.763l-.077-.157-.157-.077c-.682-.45-1.51-.65-2.383-.692h-.153c-2.296.241-4.432.388-6.612.692l-.619.077-.157.534c-3.505 11.367-3.148 20.634-4.229 26.68l-.157.85.765.23c1.858.524 3.864-.409 5.613-1.768 1.749-1.362 3.254-3.309 3.69-5.383h.077v-.078c.01-.19.033-.357.044-.546 7.775 2.361 14.332 1.841 20.84-.46.066-.026.157.024.22 0l.451-.148v-.178l-.189-.047a3 3 0 0 1-.304-.079c-6.547-1.612-12.972-1.896-20.375.462a1.7 1.7 0 0 1-.597.078c.032-.43.076-.86.115-1.288.055-.007.2-.026.189-.023 7.635-2.434 14.295-2.113 20.99-.462.022.007.066.017.088.023a9 9 0 0 0-.399-1.873c-.055.001-.105.01-.157.005-.189-.019-.336-.09-.535-.157-4.903-1.58-9.109-3.212-19.53-.85-.043.011-.156.048-.324.072.044-.44.105-.88.157-1.314 10.32-2.332 15-.713 19.732.818-.21-.346-.43-.703-.713-1.079a8.5 8.5 0 0 0-1.934-1.785c-.734-.503-1.2-1.017-2.876-2.008l-.146-.075-.147-.076c-1.184-.016-2.916-.199-4.542-.272-.242-.002-.493 0-.745 0-.283-.002-.566-.006-.86-.001-.178.003-.366.01-.555.017q-.879.017-1.804.056a22 22 0 0 1-.86.252c-.681.199-1.255.44-1.828.65-1.08-2.405-1.628-3.958-3.082-6.397l-.011-.025v.004a11 11 0 0 0-.231-.388l-.077-.077v-.077c-.745-.912-1.565-1.683-2.4-2.407 1.312-.125 2.664-.22 4.09-.356.567.03.902.126 1.23.304a60 60 0 0 1 2.372 3.784l-1.295.06.077 2.461 2.259-.105c-.066.608-.066.692-.115 1.089.21-.027.43-.045.639-.064h.002a25 25 0 0 1 1.898-.103c1.684-.028 3.486.105 5.985.388l.22-1.71 2.33-.105-.157-2.46-1.86.089.796-6.273v-.069c.251-1.515.251-2.807-.283-3.724a2.1 2.1 0 0 0-1.194-.986 3 3 0 0 0-.85-.146Zm-18.08 9.01.64.252c.796.682 1.561 1.407 2.23 2.23.502.828.88 1.534 1.22 2.208-.965 4.672-1.23 8.942-1.605 13.554-.304 1.423-1.52 3.154-2.998 4.305a5.17 5.17 0 0 1-2.438 1.075 7 7 0 0 1-.713.078c.912-6.019.902-13.911 3.668-23.705zm5.48 8.176h.001l.682 1.554a9 9 0 0 0-1.061 1.185c.115-.912.241-1.822.377-2.74z" color="#000" enable-background="accumulate" opacity=".99" overflow="visible" style="line-height:normal;font-variant-ligatures:normal;font-variant-position:normal;font-variant-caps:normal;font-variant-numeric:normal;font-variant-alternates:normal;font-variant-east-asian:normal;font-feature-settings:normal;font-variation-settings:normal;text-indent:0;text-align:start;text-decoration-line:none;text-decoration-style:solid;text-decoration-color:#000;text-transform:none;text-orientation:mixed;white-space:normal;shape-padding:0;shape-margin:0;inline-size:0;isolation:auto;mix-blend-mode:normal;solid-color:#000;solid-opacity:1"/>
</svg>
