<svg xmlns="http://www.w3.org/2000/svg" viewBox="0 0 60 60">
    <defs>
        <filter id="0KE_svg__a" width="1.32" height="1.263" x="-.135" y="-.111">
            <feGaussianBlur in="SourceAlpha" result="blur" stdDeviation="2"/>
            <feOffset dx="2" dy="2" result="offsetBlur"/>
            <feBlend in="SourceGraphic" in2="offsetBlur"/>
        </filter>
    </defs>
    <g filter="url(#0KE_svg__a)" transform="translate(40.406 1.058)scale(.95625)">
        <path fill="#dfc585" stroke="#333" d="m-23.798 12.511-7.051 44.162H9.085l-6.79-44.162c-4.418-1.298-8.761-2.6-13.177-3.896z"/>
    </g>
    <path fill-opacity=".992" d="m28.457 16.303-.253.224c-.673.6-.962 1.357-1.102 2.127-.123.674-.145 1.36-.214 2.023l-.535-.07-2.647-3.123-.2.377c-.766 1.443-.48 3.031-.474 4.467-1.142 2.358-1.94 4.254-1.812 6.464-1.516 1.7-2.864 3.52-3.741 5.634l-.01.021-.004.023c-.25 1.05-.49 2.167-.053 3.304l.038.098.579.321c.338.702.58 1.191.998 1.485.368.26.83.309 1.462.255l1.955-2.746.785.56-1.854 2.605.151.369.255-.082c1.291-.416 1.98-1.011 2.467-1.739.475-.708.789-1.523 1.39-2.47 1.912-.886 2.78-1.351 4.676-2.062l.023-.009-.057-.033c.27-.471.567-1.525.752-2.504.093-.49.162-.966.204-1.356s.05-.718.042-.809l.96-.092c.026.26.002.583-.044 1.003-.045.421-.119.919-.216 1.433-.181.963-.428 1.96-.79 2.662l.05.223c0 .02.015.3.023.635.008.348-.005.772-.019.838l-.004.019v.019c-.122 1.861-1.867 4.294-3.26 5.497-2.03 1.547-2.467 3.085-2.753 5.515l-.022.193.17.094c4.867 2.7 8.536 3.437 11.557 3.1 3.022-.338 5.37-1.744 7.604-3.238l.155-.104-.033-.186a33 33 0 0 0-.768-3.449l-.002-.003v-.003c-1.06-3.565-1.255-5.785-1.416-11.978v-.011c-.156-2.362-1.42-5.127-3.402-7.291-1.94-2.12-4.596-3.643-7.584-3.558zm4.812 7.124c.157.012.303.055.45.097.29.085.585.213.878.363.587.301 1.157.68 1.537 1 2.197 1.856 3.435 3.602 3.958 6.724l.002.013.003.014c.602 4.794.213 10.564 1.88 14.265l-1.16.523c-1.89-4.195-1.409-10.028-1.982-14.614-.486-2.888-1.434-4.189-3.522-5.953a8 8 0 0 0-1.297-.84 4 4 0 0 0-.653-.274c-.17-.05-.27-.007-.149-.054l-.465-1.184c.192-.075.362-.093.52-.08m-8.171 2.233q.138 0 .29.009l.544.033-.154.522c-.181.62-.217 1.139-.498 1.612-.14.236-.372.447-.665.554-.292.107-.626.13-1.039.097l-.54-.042.158-.518c.187-.607.232-1.121.513-1.589a1.33 1.33 0 0 1 .655-.555c.217-.084.457-.12.735-.122zm-5.494 8.788.557.59c-.47.443-.841.723-.978.89-.069.085-.076.116-.079.15-.002.034.006.109.085.255l-.715.382c-.122-.228-.194-.457-.177-.694s.128-.444.26-.605c.264-.323.618-.561 1.047-.968" color="#000" enable-background="accumulate" opacity=".99" overflow="visible" style="line-height:normal;font-variant-ligatures:normal;font-variant-position:normal;font-variant-caps:normal;font-variant-numeric:normal;font-variant-alternates:normal;font-variant-east-asian:normal;font-feature-settings:normal;font-variation-settings:normal;text-indent:0;text-align:start;text-decoration-line:none;text-decoration-style:solid;text-decoration-color:#000;text-transform:none;text-orientation:mixed;white-space:normal;shape-padding:0;shape-margin:0;inline-size:0;isolation:auto;mix-blend-mode:normal;solid-color:#000;solid-opacity:1"/>
</svg>
