<svg xmlns="http://www.w3.org/2000/svg" xml:space="preserve" viewBox="0 0 60 60">
    <defs>
        <filter id="0KE_svg__a" width="1.321" height="1.264" x="-.136" y="-.111">
            <feGaussianBlur in="SourceAlpha" result="blur" stdDeviation="2"/>
            <feOffset dx="2" dy="2" result="offsetBlur"/>
            <feBlend in="SourceGraphic" in2="offsetBlur"/>
        </filter>
    </defs>
    <g filter="url(#0KE_svg__a)" transform="translate(40.406 1.058)scale(.95625)">
        <path fill="#e9dbc9" stroke="#333" stroke-width="1.046" d="m-23.798 12.488-7.051 44.162H9.085l-6.79-44.162c-4.418-1.298-8.761-2.6-13.177-3.896z"/>
    </g>
    <path fill-opacity=".992" d="m28.457 16.303-.252.224c-.673.6-.963 1.357-1.103 2.127-.123.674-.144 1.36-.213 2.024l-.535-.073-2.649-3.12-.2.376c-.764 1.444-.479 3.031-.472 4.467-1.142 2.358-1.94 4.255-1.812 6.465-1.517 1.7-2.865 3.518-3.742 5.633l-.01.021-.004.022c-.25 1.05-.49 2.167-.053 3.304l.037.1.58.32c.339.702.58 1.19.998 1.485.368.26.831.31 1.463.256l.47-.663c.384 0 .762.025 1.136.067l-.721 1.014.152.369.254-.082c.832-.268 1.41-.612 1.85-1.016 1.672.433 3.207 1.22 4.539 2.09-.064.059-.13.127-.193.182-2.03 1.547-2.466 3.085-2.752 5.515l-.022.192.17.093c4.867 2.701 8.535 3.438 11.557 3.1 3.021-.338 5.37-1.743 7.603-3.236l.156-.106-.033-.185a32 32 0 0 0-.767-3.448l-.002-.004v-.004c-1.061-3.565-1.255-5.785-1.416-11.978v-.01c-.156-2.362-1.421-5.127-3.403-7.29-1.94-2.12-4.596-3.644-7.584-3.56zm4.81 7.123h.003c.157.012.303.055.449.097.291.085.585.213.879.364.586.3 1.156.678 1.537 1 2.197 1.855 3.433 3.602 3.957 6.724l.002.014.002.012c.602 4.794.213 10.564 1.88 14.265l-1.16.524a13.4 13.4 0 0 1-.707-2.006c-1.061-3.925-.788-8.715-1.275-12.608-.486-2.888-1.433-4.189-3.522-5.953a8 8 0 0 0-1.296-.84 4 4 0 0 0-.653-.275c-.17-.05-.27-.005-.148-.053l-.465-1.183a1.14 1.14 0 0 1 .518-.082m-8.17 2.234q.14 0 .292.01l.543.033-.153.522c-.181.62-.219 1.138-.5 1.61a1.3 1.3 0 0 1-.664.556c-.292.107-.626.127-1.039.095l-.54-.04.16-.518c.186-.608.23-1.123.511-1.59a1.33 1.33 0 0 1 .654-.555 2.1 2.1 0 0 1 .737-.123m7.141 3.904c.026.26.001.584-.045 1.004-.045.42-.117.918-.214 1.432-.182.963-.428 1.96-.79 2.662l.05.225c0 .02.015.298.023.634.007.348-.006.773-.02.838l-.004.02v.017c-.096 1.462-1.192 3.267-2.334 4.561 3.393-.35 6.745 1.017 7.807 7.703-4.218-1.29-7.352-2.279-8.598-7.594q.366-.063.733-.103c-1.31-.87-2.834-1.685-4.524-2.186.433-.68.748-1.452 1.317-2.347 1.91-.885 2.78-1.352 4.675-2.063l.024-.008-.059-.033c.27-.471.568-1.525.752-2.504.093-.49.164-.966.205-1.357.042-.391.05-.717.041-.809zM19.604 34.45l.556.588c-.469.444-.841.725-.978.893-.069.084-.076.114-.078.148s.007.11.085.256l-.714.38c-.123-.227-.195-.456-.178-.693s.127-.444.26-.605c.264-.323.617-.56 1.047-.967m2.84 2.739.785.558-.477.672q-.54-.088-1.096-.123zm6.449 4.501.642.83c3.608 2.129 4.447 3.324 5.309 4.618l.922.625-.248-.987c-.922-1.383-1.927-2.696-5.627-4.879z" color="#000" enable-background="accumulate" opacity=".99" overflow="visible" style="line-height:normal;font-variant-ligatures:normal;font-variant-position:normal;font-variant-caps:normal;font-variant-numeric:normal;font-variant-alternates:normal;font-variant-east-asian:normal;font-feature-settings:normal;font-variation-settings:normal;text-indent:0;text-align:start;text-decoration-line:none;text-decoration-style:solid;text-decoration-color:#000;text-transform:none;text-orientation:mixed;white-space:normal;shape-padding:0;shape-margin:0;inline-size:0;isolation:auto;mix-blend-mode:normal;solid-color:#000;solid-opacity:1"/>
</svg>
