<svg xmlns="http://www.w3.org/2000/svg" viewBox="0 0 60 60">
    <defs>
        <filter id="0KI_svg__a" width="1.32" height="1.263" x="-.135" y="-.111">
            <feGaussianBlur in="SourceAlpha" result="blur" stdDeviation="2"/>
            <feOffset dx="2" dy="2" result="offsetBlur"/>
            <feBlend in="SourceGraphic" in2="offsetBlur"/>
        </filter>
    </defs>
    <g fill="#f0c000" filter="url(#0KI_svg__a)" transform="translate(40.733 .148)scale(.98631)">
        <path fill="#dfc585" stroke="#333" stroke-width="1.014" d="m-10.96 7.789-12.838 3.608-7.051 44.45H9.085l-6.79-44.163z"/>
    </g>
    <path fill-opacity=".992" d="M19.41 15.38c-.455.136-1.954.427-1.066 1.013.37.352 1.023.867 1.411 1.513 1.757 2.925 1.244 6.427 1.37 8.609-1.074-.092-3.502-.253-3.88.656l-2.39 4.143c2.034-.295 4.59-.7 6.044 1.108.987.536 1.657 3.193 2.307 3.061l1.404-4.18c1.34.202 1.187.939.723 1.896.862.986 3.285 1.063 4.819 1.119 1.444-.165 3.856-.226 4.59-1.192-.43-.907-.635-1.644.674-1.825l1.53 4.367c1.01-1.53 1.695-3.472 3.482-4.255 1.512-.593 3.157-.318 4.717-.1l-2.724-4.722c-1.102-.484-3.16.04-3.608-.089.15-2.631-.197-5.466 1.217-7.838.53-1.003 1.287-1.852 2.022-2.706-.825-.547-1.873-.838-2.674-.022-1.09 1.04-2.274 1.287-3.651.882-1.479.184-2.21 1.615-2.536 2.912 1.255-.022 1.86 1.253 1.971 2.355.157 1.052.111 4.058-1.236 3.494.315-2.584-2.416-4.883-4.91-4.137-1.836.438-3.163 2.334-2.938 4.209-1.304.454-1.385-2.495-1.217-3.566.111-1.103.716-2.375 1.97-2.355-.328-1.392-1.217-2.94-2.836-2.931-1.89.992-2.875-1.037-4.584-1.42zm1.918 2.857c1.068 1.178 2.328-.226 3.39.412-.232.892-1.324 2.268-1.252 3.574-.416 2.966 1.389 6.186 4.38 6.943 3.261 1.127 7.452-.534 8.429-4 .621-2.108.401-4.685-1.14-6.353.977-1.103 2.288.702 3.386-.472-.223.954-1.123 3.31-.995 4.938-.03 1.67.257 3.532-.936 4.907-1.37 2.236-4.196 2.715-6.611 2.598-2.397.112-5.19-.385-6.546-2.598-1.194-1.375-.904-3.236-.935-4.907-.035-1.738-.402-3.477-1.17-5.042m8.672 4.5c2.015-.105 3.274 2.57 1.913 4.058-1.193 1.612-4.039.903-4.34-1.078-.347-1.487.9-3.02 2.427-2.98m9.477 10.74c-.562 1.338-1.997 2.503-1.896 4 .252.323.248 1.682.736 1.046.764-.723 1.556-1.418 2.294-2.168zm-18.848.176-1.074 2.723c.821.829 1.698 1.6 2.545 2.402.17-.7.706-1.395.279-2.109-.466-1.065-1.191-2-1.75-3.016m4.253.85-2.598 7.517c4.99 1.6 10.512 1.597 15.488-.06l-2.552-7.437c-3.337 1.194-7.018 1.291-10.338-.02m16.434 2.635c-.947.928-1.935 1.815-2.9 2.724.396 1.165.771 2.263 1.323 3.35 1.376-.44 2.584-1.247 3.59-2.278-.646-1.278-1.347-2.527-2.013-3.796m-22.467.02c-.663 1.261-1.36 2.505-2.005 3.776 1.01 1.025 2.21 1.844 3.59 2.278.545-1.084.932-2.18 1.3-3.344-.96-.905-1.944-1.786-2.885-2.71m6.876 7.134-.406 1.749c3.004.745 6.227.811 9.238.068l-.395-1.806c-2.758.664-5.676.604-8.437-.012zm-1.264 2.78-1.13 3.684c4.092 2.186 9.203 1.952 13.337 0l-1.2-3.683c-1.762.678-3.506.82-5.526.863-1.659-.018-3.93-.246-5.48-.863" color="#000" enable-background="accumulate" opacity=".99" overflow="visible" style="line-height:normal;font-variant-ligatures:normal;font-variant-position:normal;font-variant-caps:normal;font-variant-numeric:normal;font-variant-alternates:normal;font-variant-east-asian:normal;font-feature-settings:normal;font-variation-settings:normal;text-indent:0;text-align:start;text-decoration-line:none;text-decoration-style:solid;text-decoration-color:#000;text-transform:none;text-orientation:mixed;white-space:normal;shape-padding:0;shape-margin:0;inline-size:0;isolation:auto;mix-blend-mode:normal;solid-color:#000;solid-opacity:1"/>
</svg>
