<svg xmlns="http://www.w3.org/2000/svg" viewBox="0 0 60 60">
    <defs>
        <filter id="0KY_svg__a" width="1.35" height="1.287" x="-.147" y="-.121">
            <feGaussianBlur in="SourceAlpha" result="blur" stdDeviation="2"/>
            <feOffset dx="2" dy="2" result="offsetBlur"/>
            <feBlend in="SourceGraphic" in2="offsetBlur"/>
        </filter>
    </defs>
    <path fill="#dfc585" stroke="#333" stroke-width=".952" d="m26.007 8.117-11.691 3.286-6.422 40.48h36.369l-6.184-40.219Z" filter="url(#0KY_svg__a)" transform="translate(2.618 .833)scale(1.05)"/>
    <path d="m29.99 13.207-2.333 2.91-.305 9.525 1.827.957h.044v7.266c-5.108.4-9.048 4.564-9.048 9.573 0 5.303 4.398 9.6 9.824 9.601 5.427 0 9.826-4.298 9.826-9.601l-.001-.18c-.045-2.81-1.358-5.458-3.58-7.245-.044-.034-.083-.07-.147-.116a9.95 9.95 0 0 0-5.335-2.055v-7.266h.055l1.82-.957-.274-9.526zm-.61 3.327h1.244v7.995h-1.245zm-.169 19.424v5.639l-4.08-3.987a7.73 7.73 0 0 1 4.08-1.653zm1.555.002c1.495.158 2.912.715 4.077 1.652l-4.077 3.985zm-6.732 2.724 4.118 4.022h-5.81a7.36 7.36 0 0 1 1.692-4.022m11.908 0a7.33 7.33 0 0 1 1.69 4.014v.008h-5.806zM22.35 44.227h5.726l-4.04 3.949a7.4 7.4 0 0 1-1.685-3.95zm9.552 0h5.724a7.44 7.44 0 0 1-1.684 3.948zm-2.69 1.04v5.637a7 7 0 0 1-.6-.083 7.8 7.8 0 0 1-3.485-1.57zm1.554 0 4.078 3.986a7.7 7.7 0 0 1-4.078 1.651z"/>
</svg>
