<svg xmlns="http://www.w3.org/2000/svg" viewBox="0 0 60 60">
    <defs>
        <filter id="0NG_svg__a" width="1.32" height="1.263" x="-.135" y="-.111">
            <feGaussianBlur in="SourceAlpha" result="blur" stdDeviation="2"/>
            <feOffset dx="2" dy="2" result="offsetBlur"/>
            <feBlend in="SourceGraphic" in2="offsetBlur"/>
        </filter>
    </defs>
    <g fill="#dcdcdc" filter="url(#0NG_svg__a)" transform="translate(40.742 .122)scale(.98716)">
        <path fill="#eadcca" stroke="#333" stroke-width="1.013" d="m-10.96 7.767-12.838 3.608-7.051 44.45H9.085l-6.79-44.163z"/>
    </g>
    <path fill="#c30" d="m30.008 14.852-.303.421c-.88 1.232-1.745 2.733-3.103 3.325l-.569.246.483.392c.687.556 1.182 1.442 1.521 2.57a4.01 4.01 0 0 0-1.935 3.436l.002.074-.004.059q.001.1.007.197-.623.46-1.214.992a4 4 0 0 1-.627-.378c-.02-.016-.045-.031-.065-.047a4 4 0 0 1-.459-.467q-.15-.176-.299-.381l-.033-.045c-.518-.734-1.013-1.711-1.433-2.73v-.002a23 23 0 0 1-.301-.768v-.002a24 24 0 0 1-.27-.764v-.001l-.017-.055c-.418-1.209-.717-2.45-1-3.695l-.004-.022v-.002L18.9 16.193s-.043 2.037-.048 3.323a50 50 0 0 0 .04 2.396c.004.075.003.14.006.215.064 1.35.172 2.79.424 4.11a15 15 0 0 0 .198.884q.089.342.195.664c.199.602.444 1.154.756 1.62a6 6 0 0 0 .734.896 7 7 0 0 0 .537.5l.051.043.201.16.143.11.125.09q.285.203.584.386l.056.037-.07-.025c-2.324 4.953-5.476 3.353-7.36 5.959l-.195.267.17.291c2.277 3.89 4.572 6.332 5.54 3.633q.004 0 .007.004l3.426-9.363.072.029q.364.153.727.285c.048.018.096.04.144.057l-.513 1.638c.342.122.9.319 1.71.559 1.157.344 2.565.68 3.44.68.877 0 2.292-.336 3.451-.68a31 31 0 0 0 1.717-.559l-.516-1.646.055-.022q.423-.152.848-.334l.04-.015 3.48 9.531c.902 2.514 3.204.08 5.476-3.797l.172-.289-.196-.267c-1.882-2.606-5.032-1.004-7.355-5.954v-.002l-.106.038.038-.024a10 10 0 0 0 .746-.498l.158-.121q.087-.067.172-.137l.125-.107.18-.156.095-.092q.108-.101.211-.205l.004-.004.014-.014q.123-.127.24-.262l.008-.007.035-.043a6 6 0 0 0 .435-.57v-.003q.111-.163.211-.34v-.001q.1-.178.19-.368v-.002a7 7 0 0 0 .17-.388V28.3q.08-.2.154-.41v-.002l.008-.024q.136-.399.244-.828l.006-.023v-.002q.002-.015.006-.028.105-.428.187-.879l.006-.025v-.002q.086-.478.148-.973v-.001q.065-.494.11-.993v-.002q.045-.5.078-.998v-.002q.032-.496.055-.982v-.008c.03-.644.045-1.264.05-1.834v-.006c.018-1.718-.05-4.086-.05-4.086l-1.485 1.012v.004l-.002-.002s-.35 1.755-1.021 3.773q-.126.379-.268.764l-.002.002q-.142.385-.299.768-.09.215-.185.425-.071.166-.145.329v.002q-.17.37-.351.716v.002q-.18.348-.37.664v.002q-.188.316-.382.592l-.002.002q-.181.255-.365.467l-.028.033v.002a4 4 0 0 1-.197.209 3 3 0 0 1-.2.18l-.064.049a4.4 4.4 0 0 1-.597.388 16 16 0 0 0-1.246-1.02q.005-.09.005-.181l-.001-.02.003-.113c0-1.449-.772-2.73-1.921-3.426.34-1.133.833-2.022 1.523-2.58l.484-.392-.568-.246c-1.358-.592-2.224-2.093-3.105-3.325zm-9.543 7.794c.665 1.778 1.491 3.584 2.781 4.649 1.955 1.613 5.25 2.252 6.94 2.252 1.689 0 4.655-.673 6.568-2.252 1.29-1.065 2.116-2.871 2.781-4.649-.157 2.352-.56 4.886-1.254 5.92-.854 1.275-2.555 2.233-4.256 2.823-1.7.59-3.42.822-4.025.822-.604 0-2.325-.232-4.025-.822s-3.402-1.548-4.256-2.823c-.693-1.034-1.097-3.568-1.254-5.92m9.535.116c1.323 0 2.398 1.09 2.398 2.48S31.323 27.725 30 27.725s-2.398-1.093-2.398-2.483 1.075-2.48 2.398-2.48m-5.39 12.406-2.19 6.982c2.074.887 5.395 2.16 7.58 2.164 2.177.003 5.486-1.24 7.607-2.134l-2.199-7.012c-.362.129-.923.324-1.728.562-1.188.352-2.61.711-3.68.711-1.065 0-2.483-.36-3.668-.712a32 32 0 0 1-1.723-.561m.779 9.332-.942 4.469c3.407 2.651 7.663 2.368 11.106 0l-.998-4.469c-1.468.823-2.922.996-4.604 1.047-1.382-.021-3.27-.299-4.562-1.047"/>
</svg>
