<svg xmlns="http://www.w3.org/2000/svg" viewBox="0 0 60 60">
    <defs>
        <filter id="0NG_svg__a" width="1.29" height="1.241" x="-.12" y="-.1">
            <feGaussianBlur in="SourceAlpha" result="blur" stdDeviation="2"/>
            <feOffset dx="2" dy="2" result="offsetBlur"/>
            <feBlend in="SourceGraphic" in2="offsetBlur"/>
        </filter>
    </defs>
    <g fill="#dcdcdc" filter="url(#0NG_svg__a)" transform="translate(40.742 .122)scale(.98716)">
        <path fill="#dfc585" stroke="#333" stroke-width="1.013" d="m-10.96 7.767-12.838 3.608-7.051 44.45H9.085l-6.79-44.163z"/>
    </g>
    <path fill="#c30" d="m30.091 14.059-.299.418c-.871 1.219-1.728 2.703-3.072 3.288l-.563.244.478.386c.677.548 1.17 1.414 1.507 2.523a3.99 3.99 0 0 0-1.934 3.43q.002.104.01.207c-.582.434-1.2.945-1.87 1.543l-.217.19a5.9 5.9 0 0 1-1.315-1.111c-1.492-1.696-2.23-4.462-2.546-8.923l-.62.016v.027l.002.011c-.076 4.119.193 7.948 1.674 10.758a7.9 7.9 0 0 0 2.035 2.505l-2.358 4.908c.733.595 1.231.947 1.82 1.403l2.014-5.383q.37.178.773.326l-.592 1.584c3.276 1.518 7.126 1.538 10.3-.07l-.53-1.53a8 8 0 0 0 .77-.329l1.695 4.891c.42-.232.864-.476 1.743-.896l-2.259-4.701c.972-.714 1.726-1.631 2.294-2.708 1.48-2.81 1.75-6.64 1.673-10.758l.003-.012v-.026l-.618-.016c-.316 4.46-1.057 7.227-2.549 8.922a6 6 0 0 1-1.183 1.03l-.042-.039c-.863-.755-1.635-1.388-2.359-1.897a3.98 3.98 0 0 0-1.916-3.342c.336-1.115.829-1.984 1.508-2.534l.479-.386-.563-.244c-1.343-.585-2.2-2.07-3.072-3.288zm-.009 6.912c.664 0 1.282.203 1.799.552a3.36 3.36 0 0 1 1.13 1.295l.01.02a3 3 0 0 1 .131.31l.002.003.002.006q.06.163.103.334l.004.016c.028.109.05.228.067.341l.002.01c.022.158.039.325.039.491 0 1.874-1.474 3.38-3.288 3.38s-3.285-1.506-3.285-3.38c0-.069.007-.138.01-.211a3.43 3.43 0 0 1 .662-1.834l.007-.01c.228-.309.507-.572.823-.783l.002-.001a3.2 3.2 0 0 1 1.782-.54zm9.76.979-.002.007zc-.234 1.83-.647 3.481-1.358 4.83a9 9 0 0 1-.258.453l-.044.073c-.074.122-.152.236-.231.354l-.065.094a8 8 0 0 1-.295.39l-.046.053a6 6 0 0 1-.265.297l-.125.13c-.07.068-.142.142-.216.207a6 6 0 0 1-.467.395c-.21.162-.434.308-.67.45l-.015.008q-.24.14-.5.268l-.054.027a8 8 0 0 1-1.111.424l-.118.035a9 9 0 0 1-.517.13c-.054.011-.11.026-.164.036q-.25.05-.511.09-.104.017-.21.032-.249.032-.508.053-.128.014-.257.023-.254.017-.518.024c-.096.004-.188.01-.287.01q-.408.006-.84-.01l-.012-.002h-.002l-.012.002q-.418.015-.812.012a15 15 0 0 1-1.491-.093h-.002q-.35-.043-.679-.106h-.001a10 10 0 0 1-.637-.142h-.002a9 9 0 0 1-.596-.18c-1.927-.651-3.205-1.886-4.074-3.535-.71-1.348-1.124-2.998-1.358-4.826l.002.007-.001-.007c.43 1.512 1.018 2.704 1.835 3.632q.056.062.113.122.088.098.178.192l.142.133.171.159q.082.072.166.138l.168.134.174.13.177.121.191.127q.085.053.172.101l.21.122q.086.047.172.09.11.058.223.114l.138.062q.267.12.55.228.065.026.13.048.134.049.27.09l.202.065.273.08q.091.027.183.05a17 17 0 0 0 .508.125q.152.034.307.065l.213.041q.15.03.305.056l.078.012q.486.08 1.009.142.659.078 1.378.13h.043a28 28 0 0 0 1.13-.106h.005c1.679-.183 3.086-.499 4.257-1.024q.05-.02.099-.044.13-.058.256-.126l.166-.085.206-.115q.096-.054.188-.115l.187-.117.19-.13.158-.114q.11-.084.217-.175l.116-.097a6 6 0 0 0 .29-.269l.021-.019.003-.003a5 5 0 0 0 .315-.333c.818-.93 1.409-2.122 1.838-3.637zm-4.248 11.19c-3.38 1.67-7.417 1.64-10.87.056l-2.81 7.505c5.135 1.909 11.337 2.036 16.334.095zM20.16 34.803l-1.828 3.156 2.995 1.927 1.187-3.176c-.746-.653-1.69-1.28-2.354-1.907m19.68 0c-.939.658-.386.305-2.309 1.373l1.286 3.712 2.892-1.86zm-22.394 3.515-2.475 3.624.164.28c.88 1.504 2.511 2.957 4.24 3.375l.287.07.134-.31c.28-.645.929-2.409 1.652-4.4-1.255-1.027-2.84-1.627-4.002-2.64zm25.108 0c-1.11.994-2.637 1.859-3.936 2.695l-.107-.167c.742 2.042 1.407 3.854 1.694 4.513l.134.31.286-.07c1.729-.418 3.36-1.872 4.24-3.375l.164-.28zm-17.247 4.336-.647 2.204c2.619.575 8.355.474 10.767-.053l-.62-2.078.008.04c-2.645.588-6.77.54-9.507-.115zm-1.409 2.9-1.103 3.483.406.175c4.411 1.854 10.01 1.776 13.703 0l.407-.232-1.104-3.426c-3.21.468-8.268.822-12.31 0z" color="#000" enable-background="accumulate" overflow="visible" style="line-height:normal;font-variant-ligatures:normal;font-variant-position:normal;font-variant-caps:normal;font-variant-numeric:normal;font-variant-alternates:normal;font-variant-east-asian:normal;font-feature-settings:normal;font-variation-settings:normal;text-indent:0;text-align:start;text-decoration-line:none;text-decoration-style:solid;text-decoration-color:#000;text-transform:none;text-orientation:mixed;white-space:normal;shape-padding:0;shape-margin:0;inline-size:0;isolation:auto;mix-blend-mode:normal;solid-color:#000;solid-opacity:1"/>
</svg>
