<svg xmlns="http://www.w3.org/2000/svg" viewBox="0 0 60 60">
    <defs>
        <filter id="0NK_svg__a" width="1.321" height="1.264" x="-.136" y="-.111">
            <feGaussianBlur in="SourceAlpha" result="blur" stdDeviation="2"/>
            <feOffset dx="2" dy="2" result="offsetBlur"/>
            <feBlend in="SourceGraphic" in2="offsetBlur"/>
        </filter>
    </defs>
    <path fill="#e9dbc9" stroke="#333" stroke-width="1.046" d="m-23.798 12.511-7.051 44.162H9.085l-6.79-44.162c-4.418-1.298-8.761-2.6-13.177-3.896z" filter="url(#0NK_svg__a)" transform="translate(40.406 1.015)scale(.95625)"/>
    <path fill="#c30" d="m20.686 15.193.076.67s.06.553.236 1.164c.136.473.306 1.026.707 1.4-.283.604-.428 1.31-.428 2.083 0 .72.123 1.387.37 1.963v.002a1.3 1.3 0 0 0-.083.261 3 3 0 0 0-.035.274c-.032.402.003.902.12 1.427q.071.322.187.645c-.442 1.233-.69 2.419-.615 3.711-1.517 1.7-2.865 3.518-3.742 5.633l-.01.021-.004.022c-.25 1.05-.49 2.167-.053 3.304l.037.1.58.32c.339.702.58 1.19.998 1.485.368.26.831.31 1.463.256l1.953-2.746.786.558-1.854 2.606.152.369.254-.082c1.292-.416 1.98-1.01 2.467-1.739.475-.708.788-1.523 1.39-2.47 1.912-.885 2.781-1.352 4.676-2.063l.024-.008-.059-.033c.27-.471.568-1.525.752-2.504.093-.49.164-.966.205-1.357.042-.391.05-.717.041-.809l.961-.092c.026.26.001.584-.045 1.004-.045.42-.117.918-.214 1.432-.182.963-.428 1.96-.79 2.662l.05.225c0 .02.015.298.023.634.007.348-.006.773-.02.838l-.004.02v.017c-.078 1.189-.818 2.608-1.705 3.793 1.806 1.235 4.15 2.084 6.487 2.266 1.243.097 2.473.01 3.626-.285-.522-3.412-.415-7.183-.812-10.358-.486-2.887-1.433-4.189-3.522-5.953a8 8 0 0 0-1.296-.84 4 4 0 0 0-.653-.275c-.17-.05-.27-.005-.148-.053l-.465-1.183c.192-.075.36-.094.518-.082h.002c.157.012.303.055.449.097.291.085.585.213.879.364.586.3 1.156.678 1.537 1 2.197 1.855 3.433 3.602 3.957 6.724l.002.014.002.012c.407 3.239.365 6.922.806 10.113a7.9 7.9 0 0 0 2.17-1.35c-.37-2.146-.495-4.498-.601-8.566v-.01c-.156-2.362-1.421-5.127-3.403-7.29-1.94-2.12-4.596-3.644-7.584-3.56-.12-.937 2.243-.784 3.432-.954-.88-.678-2.93-1.659-4.213-1.999l.059-.132c.143-.329.24-.545.24-.545l.475-1.045-1.088.363a8 8 0 0 1-.83.225q-.158.031-.309.049-.176.019-.346.017-.149-.003-.293-.023l-.076-.012a2 2 0 0 1-.598-.209 2 2 0 0 1-.304-.2l-.043-.032-.049-.024a2.4 2.4 0 0 0-.406-.15l-.026-.008a2 2 0 0 0-.166-.035l-.023-.004-.014-.002a1.5 1.5 0 0 0-.396-.008l-.05.006a1.33 1.33 0 0 0-.714.344l-.002.002a2 2 0 0 0-.197.21q-.09.115-.162.237l-.15.254.15.256s.088.148.215.388a13 13 0 0 1 .45.946q.079.186.147.38l.047.13q.07.206.125.408c.083.304.139.591.152.822l-.167-.024-.684-.806a4.4 4.4 0 0 0-.43-1.477c-.205-.404-.52-.807-.947-1.043l.033-1.853-.678.234c-.544.19-.79.154-1.087.06-.298-.092-.663-.302-1.213-.404zm1.234 1.364c.115.045.207.074.344.117.265.083.676-.01 1.04-.041l-.007.455a1.72 1.72 0 0 0-.975.465 3.2 3.2 0 0 1-.363-.803c-.029-.1-.017-.1-.04-.193m4.725.677c.094-.007.232.018.439.112.824.601 1.74.596 2.64.435-.128.294-.162.355-.34.787-.37.9-.77 1.938-.92 2.66-.151.743-.198 1.564-.335 2.258-.137.69-.357 1.197-.72 1.444-.024.004-.285.129-.57.23a24 24 0 0 1-2.347.692c-.343.076-.67.087-.603.097-.317-.048-.561-.23-.782-.545-.22-.314-.386-.752-.482-1.183-.044-.197-.028-.335-.045-.516.188.128.365.27.582.356.668.265 1.511.32 2.192-.163a6.8 6.8 0 0 0 1.35-1.298c.38-.481.676-.958.782-1.45.19-.882-.17-1.841-.515-2.652-.263-.619-.434-.898-.553-1.11.046-.038.097-.122.14-.136a.4.4 0 0 1 .087-.018m-3.15.797a1.258 2.479 0 0 1 1.259 2.479 1.258 2.479 0 0 1-1.26 2.478 1.258 2.479 0 0 1-1.258-2.478 1.258 2.479 0 0 1 1.258-2.479m2.198 8.541c-.11.464-.19.887-.414 1.264-.14.237-.371.447-.664.555-.292.107-.626.127-1.039.095l-.54-.04.16-.518c.163-.532.38-.65.618-.983q.109.012.21.006h.01l.01-.002q.096-.005.19-.02l.012-.001c.022-.004.049-.012.07-.016a17 17 0 0 0 1.346-.332zm-6.09 7.877.557.588c-.469.444-.841.725-.978.893-.069.084-.076.114-.078.148s.007.11.085.256l-.714.38c-.123-.227-.195-.456-.178-.693s.127-.444.26-.605c.264-.323.617-.56 1.047-.967m8.952 6.893a9 9 0 0 1-.578.553c-2.03 1.547-2.466 3.085-2.752 5.515l-.022.192.17.093c4.867 2.701 8.535 3.438 11.557 3.1 3.021-.338 5.37-1.743 7.603-3.236l.156-.106-.033-.185a32 32 0 0 0-.767-3.448l-.002-.004v-.004a34 34 0 0 1-.475-1.771c-.7.51-1.457.91-2.252 1.213.199.957.458 1.852.817 2.648l-1.16.524c-.39-.867-.675-1.806-.893-2.787a12.7 12.7 0 0 1-4.022.31c-2.666-.208-5.29-1.151-7.347-2.607" color="#000" enable-background="accumulate" opacity=".99" overflow="visible" style="line-height:normal;font-variant-ligatures:normal;font-variant-position:normal;font-variant-caps:normal;font-variant-numeric:normal;font-variant-alternates:normal;font-variant-east-asian:normal;font-feature-settings:normal;font-variation-settings:normal;text-indent:0;text-align:start;text-decoration-line:none;text-decoration-style:solid;text-decoration-color:#000;text-transform:none;text-orientation:mixed;white-space:normal;shape-padding:0;shape-margin:0;inline-size:0;isolation:auto;mix-blend-mode:normal;solid-color:#000;solid-opacity:1"/>
</svg>
