<svg xmlns="http://www.w3.org/2000/svg" viewBox="0 0 60 60">
    <defs>
        <filter id="0NY_svg__a" width="1.321" height="1.264" x="-.136" y="-.111">
            <feGaussianBlur in="SourceAlpha" result="blur" stdDeviation="2"/>
            <feOffset dx="2" dy="2" result="offsetBlur"/>
            <feBlend in="SourceGraphic" in2="offsetBlur"/>
        </filter>
    </defs>
    <g filter="url(#0NY_svg__a)" transform="translate(40.406 1.058)scale(.95625)">
        <path fill="#e9dbc9" stroke="#333" stroke-width="1.046" d="M-10.96 8.592-23.798 12.2l-7.051 44.45H9.085l-6.79-44.163z"/>
    </g>
    <path fill="#c30" d="m30 20.898-.111.135-.866 1.047-.12 4.076.44.205v.76a8.04 8.04 0 0 0-4.165 1.576l-.838-.838.156-.474-2.973-2.805-1.54-.111.17 1.527 2.796 2.986.479-.173.767.767a8.04 8.04 0 0 0-2.19 4.87h-.85l-.227-.452-4.088.12-1.168 1.011 1.201.959 4.09.133.21-.453h.833a8.04 8.04 0 0 0 7.338 7.328v.6l-.442.203.121 4.076.977 1.183.977-1.183.119-4.076-.436-.198v-.603a8.04 8.04 0 0 0 7.354-7.33h.812l.211.453 4.09-.133 1.201-.959-1.168-1.012-4.088-.119-.226.451h-.832a8.04 8.04 0 0 0-2.17-4.851l.785-.785.473.156 2.804-2.975.112-1.539-1.528.17-2.984 2.797.174.477-.817.816a8.04 8.04 0 0 0-4.203-1.592v-.764l.436-.197-.12-4.078zm-.656 7.98v2.028a4.2 4.2 0 0 0-1.438.518l-1.465-1.463a6.3 6.3 0 0 1 2.903-1.082m1.316 0a6.3 6.3 0 0 1 2.938 1.1l-1.467 1.467a4.2 4.2 0 0 0-1.47-.537zm-5.215 1.948 1.436 1.436a4.2 4.2 0 0 0-1.026 2.183h-2.09a6.3 6.3 0 0 1 1.68-3.619m9.145.022a6.3 6.3 0 0 1 1.662 3.597h-2.107a4.2 4.2 0 0 0-1-2.154zM30 32.354a2.687 2.687 0 0 1 2.688 2.687A2.687 2.687 0 0 1 30 37.729a2.687 2.687 0 0 1-2.687-2.688A2.687 2.687 0 0 1 30 32.354m-6.236 3.41h2.113c.09.504.272.98.527 1.406l-1.525 1.525a6.3 6.3 0 0 1-1.115-2.931m10.359 0h2.113a6.3 6.3 0 0 1-1.093 2.898l-1.526-1.525c.245-.418.419-.882.506-1.373m-1.344 2.396 1.512 1.512a6.3 6.3 0 0 1-3.63 1.66v-2.158a4.2 4.2 0 0 0 2.118-1.014m-5.529.026c.581.51 1.302.862 2.094.99v2.156a6.3 6.3 0 0 1-3.608-1.633z" color="#000" style="-inkscape-stroke:none"/>
</svg>
