<svg xmlns="http://www.w3.org/2000/svg" xml:space="preserve" viewBox="0 0 60 60">
    <defs>
        <filter id="0RY_svg__a" width="1.318" height="1.262" x="-.134" y="-.11">
            <feGaussianBlur in="SourceAlpha" result="blur" stdDeviation="2"/>
            <feOffset dx="2" dy="2" result="offsetBlur"/>
            <feBlend in="SourceGraphic" in2="offsetBlur"/>
        </filter>
    </defs>
    <path fill="#e9dbc9" stroke="#333" stroke-width=".952" d="M29.922 5.97 17.084 9.578 10.033 54.03l39.934-.002-6.79-44.163z" filter="url(#0RY_svg__a)" transform="translate(-1.5 -1.5)scale(1.05)"/>
    <path fill="#c30" d="M24.686 10.102c.084.789 1.855 5.315-.383 4.779-.027-.007-.049-.008-.074-.014-.703-.508-.962-1.726-.995-1.851-.044-.17-.274-.368-.574-.547-.896-.534-2.562-.637-1.418.511.933 1.213 1.776 2.071 2.158 3.063l.008-.004c.167.87.604 2.147.83 2.97l.334 1.44c.12.412.346 1.11.664 1.723.162.311.348.6.53.803.18.198.336.3.486.341a.9.9 0 0 0 .19-.363c.1-.331.15-.84.17-1.348.019-.508.01-1.02.001-1.388q-.006-.274-.004-.428c-.813-1.095-1.12-2.043-1.52-3.297.041-.169.41-.157.651-.234 3.445-1.103.601-5.024-.629-5.942l.002-.004a1.6 1.6 0 0 0-.23-.142.6.6 0 0 0-.197-.068m10.628 0a.6.6 0 0 0-.197.068q-.121.061-.23.143l.002.003c-1.23.918-4.074 4.839-.63 5.942.19.06.485.452.6.39-.375 1.174-.69 2.094-1.468 3.141q.002.154-.004.428c-.008.367-.018.88.002 1.388.02.509.07 1.017.17 1.348a.9.9 0 0 0 .189.363c.15-.04.306-.143.486-.341a4 4 0 0 0 .53-.803c.318-.613.545-1.311.664-1.723l.334-1.44c.226-.823.663-2.1.83-2.97l.008.004c.382-.992 1.225-1.85 2.158-3.063 1.144-1.148-.522-1.045-1.418-.511-.3.18-.53.377-.574.547-.033.125-.292 1.343-.995 1.851-.025.006-.047.007-.074.014-2.238.536-.467-3.99-.383-4.78M30 20.057l-2.38.574c.003.308.005.648-.009 1.014-.02.539-.06 1.064-.209 1.57a1.9 1.9 0 0 1-.39.752l-.412.48-.612-.166c-.391-.106-.704-.353-.96-.635l-.005-.001-.002-.004a4.8 4.8 0 0 1-.673-1.008 9 9 0 0 1-.475-1.1l-.166.041v.002c-.494 1.31-.315 3.726-.096 5.428l.04.314-.294.12c-.379.155-.866.346-1.261.558-.394.21-.64.476-.653.52l-.486 1.773c-.057.212-.04.325-.02.387.023.062.058.098.137.148.127.082.363.141.604.207.393-.004.834-.024 1.295.018.565.053 1.17.22 1.607.71l.043.052.027.062c.171.402.277.836.38 1.254h-.667c-.314-.009-3.7-.075-5.728 2.592-.766 1.008-1.5 1.752-2.342 2.136-.367.168-.53.318-.838.358-.19.025-.527-.097-.809-.174l.264.686c.917.314 1.66.16 2.37-.303.737-.48 1.42-1.285 2.083-2.149.864-1.136 2.256-1.662 3.418-1.918.987-.218 1.571-.202 1.801-.203l.74-.029q.073.17.153.291a.6.6 0 0 0 .306.256 32 32 0 0 1 4.184-.647l.033-.003.035.003c1.09.09 2.665.306 4.182.647a.6.6 0 0 0 .306-.256q.088-.138.153-.289l.738.027c.23 0 .818-.015 1.805.203 1.162.256 2.554.782 3.418 1.918.663.864 1.345 1.67 2.082 2.149.71.462 1.454.617 2.37.303l.265-.686c-.282.077-.619.199-.809.174-.306-.04-.47-.19-.838-.358-.842-.384-1.576-1.128-2.342-2.136-2.029-2.667-5.414-2.6-5.728-2.592h-.668c.1-.418.207-.851.379-1.254l.027-.062.045-.051c.44-.496 1.063-.677 1.658-.752.55-.07 1.09-.055 1.53-.06q.166-.042.318-.122c.08-.05.113-.09.135-.15.022-.063.036-.175-.022-.387l-.482-1.773c-.011-.043-.26-.31-.655-.522-.394-.21-.882-.4-1.261-.555l-.293-.12.039-.315c.218-1.702.397-4.12-.098-5.43l-.162-.039a9 9 0 0 1-.473 1.098 4.8 4.8 0 0 1-.673 1.008l-.002.004-.004.001c-.257.282-.57.529-.961.635l-.612.166-.412-.48a1.9 1.9 0 0 1-.39-.752c-.149-.506-.188-1.031-.21-1.57a19 19 0 0 1-.007-1.014zm-10.129 1.398c-.714 1.578-1.015 2.435 1 4.762-1.33-.318-2.773-2.99-3.38-3.54-1.042 2.637.262 3.794 1.874 4.634-1.572.336-2.51-.419-4.086-.897.878 1.605 1.962 4.058 4.62 2.916-.988 1.356-2.706 1.982-4.176 2.854 1.51.286 3.086 1.036 4.375-.29-.67 1.223-1.76 2.267-2.828 3.317q.656-.087 1.302-.225c.684-.756 1.476-1.259 2.26-1.615.008-.418.122-.852.236-1.234.068-.228.086-.263.139-.41-.194-.05-.353-.063-.576-.204a1.15 1.15 0 0 1-.469-.568c-.093-.257-.09-.556-.002-.88l.486-1.776c.144-.53.601-.785 1.06-1.031.362-.194.728-.334 1.06-.47q-.08-.604-.139-1.21zm20.256 0-2.762 4.137a34 34 0 0 1-.135 1.207c.332.135.695.275 1.057.469.46.246.919.502 1.063 1.03l.482 1.776c.09.325.094.624 0 .881a1.15 1.15 0 0 1-.467.568c-.223.141-.384.155-.578.204.053.147.075.182.143.41.114.382.224.816.232 1.234.785.356 1.58.86 2.264 1.615q.639.138 1.304.225c-1.07-1.05-2.16-2.094-2.83-3.316 1.29 1.325 2.866.575 4.377.289-1.47-.872-3.191-1.498-4.177-2.854 2.657 1.142 3.74-1.31 4.619-2.916-1.578.478-2.512 1.232-4.084.897 1.612-.84 2.915-1.997 1.873-4.633-.607.548-2.053 3.22-3.381 3.539 2.014-2.328 1.713-3.184 1-4.762m-5.826 3.824q.082.003.162.018c.353.06.682.284.973.764.77 1.577-.452 2.339-1.71 2.79-1.34.218-2.097-.16-2.634-1.04 2.097-1.51 2.37-2.427 3.049-2.524a1 1 0 0 1 .16-.008m-8.444.008c.68.097.952 1.015 3.05 2.524-.538.882-1.297 1.258-2.637 1.04-1.257-.451-2.48-1.212-1.71-2.79.29-.48.62-.704.973-.764.12-.02.32.086.324-.008zm2.13 6.219c.66.145.95 1.093 1.406 1.678l-.838-.621-1.041-.112c.069-.45-.368-.81.472-.945m4.023 0c.84.136.404.494.474.945l-1.04.113-.839.62c.457-.585.745-1.533 1.405-1.678m5.928.277q-.381 0-.758.043c-.48.06-.856.207-1.102.461-.035.09-.062.203-.092.307a9 9 0 0 1 2.293.433 5 5 0 0 0-.14-.656c-.098-.328-.163-.487-.202-.588m-15.473.067a8 8 0 0 0-.43.004c-.047.124-.09.23-.176.517-.068.226-.095.44-.127.652a9 9 0 0 1 2.28-.43c-.03-.102-.058-.216-.092-.304-.246-.255-.58-.378-1.024-.42a8 8 0 0 0-.431-.02m12.857 2.795c-.038.076-.068.155-.115.226a1.5 1.5 0 0 1-.785.62c.038 3.945-.025 3.54-1.014 7.267l-.04.154-.136.086c-.89.572-2.051.854-3.218.854s-2.343-.284-3.244-.924l-.122-.086-.037-.145c-.987-3.745-1.104-3.332-1.017-7.2l-.012-.003c-.33-.11-.612-.33-.797-.625-.046-.07-.073-.149-.111-.223-.6.012-1.197.085-1.781.22q-.34.079-.672.187c.113.194.222.39.36.564-.008-.01.29.199.554.313.263.114.5.191.5.191l.238.08.04.25c.553 3.646 1.3 4.985 2.22 7.711q.166.251.388.455l.575 7.69.812-5.778 1.088 5.13L30 46.634l1 5.013 1.096-5.205.812 5.9.569-7.73a2.5 2.5 0 0 0 .384-.45c.92-2.726 1.665-4.064 2.219-7.71l.041-.25.238-.08s.24-.08.502-.193c.263-.114.56-.322.551-.313.137-.176.248-.372.361-.566a8.7 8.7 0 0 0-2.453-.406m-5.326.205a32 32 0 0 0-3.478.5l.586 3.134.81-1.57 1.09 1.203 1.006-1.142 1 1.136 1.095-1.246.813 1.64.578-3.15a32 32 0 0 0-3.5-.505m.014 5.277-1 .963-.948-.912-.425 2.26a5 5 0 0 0 2.377.59c.863 0 1.696-.215 2.367-.551l-.432-2.291-.94.904z"/>
</svg>
