<svg xmlns="http://www.w3.org/2000/svg" viewBox="0 0 60 60">
    <defs>
        <filter id="0UM_svg__a" width="1.29" height="1.241" x="-.12" y="-.1">
            <feGaussianBlur in="SourceAlpha" result="blur" stdDeviation="2"/>
            <feOffset dx="2" dy="2" result="offsetBlur"/>
            <feBlend in="SourceGraphic" in2="offsetBlur"/>
        </filter>
    </defs>
    <g fill="#fdc9dd" filter="url(#0UM_svg__a)" transform="translate(41.426 -1.827)scale(1.05)">
        <path fill="#dfc585" stroke="#333" stroke-width=".952" d="M-10.882 6.19-23.798 9.8l-7.051 44.54 39.934-.09-6.79-44.163z"/>
    </g>
    <path fill="#c30" d="m25.335 9.764-.854 1.227c-.464.68-.731.999-.978 1.35-.258.35-.464.73-.731 1.412l-.124.247.185.247c.865.968 2.29 1.781 3.743 2.515 1.454.731 2.925 1.4 3.866 1.841 1.565 1.01 2.746 2.252 3.889 3.565.086 1.255.617 2.157 1.94 3.43l-.68.73c-1.59-1.53-2.29-2.884-2.27-4.66h.114c-.381-.567-.762-1.105-1.16-1.535-.69-.751-1.395-.957-1.963-1.043-.567-.087-.989-.123-1.841-.556a7 7 0 0 0-.247-.061l-.31.061-1.288.556 1.105.556c.022.03.032.062.065.124.097.185.237.453.37.803.134.36.268.783.36 1.221-4.266.443-8.828 3.444-11.286 5.16-.525.412-.175 1.254.495 1.166 1.607-.237 2.863-.515 4.166-.989l.01-.006c.536-.185 1.146-.288 1.753-.36.803-.09 1.57-.103 2.107-.103a6.95 6.95 0 0 1 2.887-1.66c.268-.485.278-.824.185-1.298-.103-.505-.36-1.065-.309-1.78l.979.062c-.033.433.185.916.308 1.534.097.474-.085 1.062-.308 1.657.123.103.33.257.669.494.422.278.957.618 1.472.917.515.298 1.02.587 1.41.803.197.103.372.185.495.247.065.029.086.046.124.06l-.247.977h-.065c-.021-.01-.097-.051-.123-.061-.054-.025-.054-.028-.124-.061-.134-.068-.35-.196-.556-.31a46 46 0 0 1-1.412-.802c-.525-.31-1.089-.628-1.534-.917a6 6 0 0 1-.73-.545c-1.877.566-3.065 1.864-3.936 3.673-.906 1.885-1.427 4.317-1.719 6.871-.288 2.555-.412 5.215-.618 7.609s-.484 4.515-1.227 6.012c-.124.247-.237.412-.288.659.916.096 1.847.216 2.801.33 4.151.504 8.637.957 13.069-.495a.657.657 0 0 0 .37-.855c-1.393-2.857-1.98-6.089-6.38-10-.432-1.256-.38-2.45-.308-3.743.021-.308-.033-.638-.097-.967-.577-.865-1.11-2.174-1.601-4.282l.34-.576.607.308c.474 2.053 1.14 3.393 1.54 3.98.546.689.649.555.917.555.813-.018 1.465-.36 2.208-.618.525 2.547 1.108 4.76 1.227 7.302a.7.7 0 0 0 .064.37l1.657 2.454a.64.64 0 0 0 .73.247l1.228-.37a.657.657 0 0 0 .433-.855l-.033-.087 1.543-.793c.165.257.474.36.762.257.401-.144.865-.278 1.349-.494s1.009-.525 1.35-1.104a1 1 0 0 0 .064-.247c.002-.014.032-.097.309-.309.278-.206.762-.504 1.533-.854a.657.657 0 0 0 .124-1.105l-.793-.556c-2.054-2.992-3.668-5.312-4.05-8.892-.003-.02.001-.04 0-.062l.493-2.884a.65.65 0 0 0-.133-.473c-.087-.505-.412-.958-.783-1.425-.474-.587-1.086-1.173-1.717-1.779a25 25 0 0 1-1.718-1.84c-.463-.546-.72-1.02-.803-1.412l2.455-3.498-4.478 1.473c-.855-.165-2.69-.803-4.54-1.718-1.902-.937-3.85-2.145-4.848-3.13-.064-.067-.288-.422-.432-.73a3 3 0 0 1-.186-.68zm-.669 2.584c.165.37.391.762.67 1.036 1.166 1.15 3.137 2.287 5.092 3.252 1.955.967 3.81 1.72 4.909 1.901h.123l1.841-.556-.978 1.412v.185c.103.721.566 1.384 1.105 2.026.535.638 1.209 1.234 1.84 1.84.597.567 1.169 1.139 1.578 1.628l-2.682-1.382c-1.401-.577-1.545-.896-2.086-1.288a1.5 1.5 0 0 0-.32-.186c-1.384-1.617-2.799-3.233-4.838-4.537h-.064c-.978-.464-2.392-1.067-3.804-1.779-1.292-.648-2.469-1.443-3.19-2.147.144-.31.278-.65.433-.855.086-.124.247-.391.37-.546zm12.97 14.966h.68l.195.309c.237.37.288.69.38.999.098.308.238.7.65 1.388l.35.566-.577.34c-.34.206-.824.226-1.173.077-.34-.154-.577-.391-.824-.659l-.007-.009-.01-.009c-.174-.206-.318-.37-.442-.576a1.36 1.36 0 0 1-.206-.773c.043-.576.36-.895.783-1.416zm-12.659.226c-.38.014-.793.04-1.217.085-.546.063-1.092.165-1.514.31l.002.003c-3.301.926-5.45 1.222-7.34 4.41a.652.652 0 0 0 .556.979l.906.038.007-.002c.947-.267.72-.195 1.903-.68l.002.007c1.31-.556 2.475-.731 4.778-.968.247-.906.556-1.771.937-2.56a8.7 8.7 0 0 1 .989-1.616zm-2.148 5.08c-2.053.217-3.073.382-4.22.876l.004.007c-1.178.484-.968.443-1.908.71l-.033.017c-.957.576-1.968 1.43-3.054 2.782-.69.535-.096 1.254.793 1.044 2.666-.247 5.09-1.282 7.764-1.354l.032-.309c.144-1.286.34-2.562.618-3.774zm16.128 2.852 3.007 3.558-.144.742-2.74 1.156 2.288 1.196-.022.095a.6.6 0 0 0 .043.36l-2.253-.977-.607-1.479c-.196-1.252.043-1.987.309-2.822.144-.464.053-1.224.123-1.84zm-16.862 2.105h-.003c-.885.025-1.89.074-4.209.824-.566.278-1.169.566-1.44.813-1.608 1.48-3.11 3.24-3.68 4.11-.33.515.154 1.152.73.979 2.11-.556 3.006-.505 3.62-.31.443.064.34.145.824-.102 1.322-.37 2.281-.875 3.725-.72.134-1.775.247-3.687.432-5.6zm-.937 6.44h-.002v.002c-.896-.004-1.623.309-2.674.628-3.214 1.897-5.402 4.476-6.029 5.37-.032.04-.226.217-.247.248-.33.514.155 1.152.731.978 2.08-.783 4.525-.783 7.19-.546a3.6 3.6 0 0 1 .36-1.052c.619-1.229.907-3.225 1.106-5.584v-.018a4 4 0 0 0-.442-.026z" color="#000" enable-background="accumulate" overflow="visible" style="line-height:normal;font-variant-ligatures:normal;font-variant-position:normal;font-variant-caps:normal;font-variant-numeric:normal;font-variant-alternates:normal;font-variant-east-asian:normal;font-feature-settings:normal;font-variation-settings:normal;text-indent:0;text-align:start;text-decoration-line:none;text-decoration-style:solid;text-decoration-color:#000;text-transform:none;text-orientation:mixed;white-space:normal;shape-padding:0;shape-margin:0;inline-size:0;isolation:auto;mix-blend-mode:normal;solid-color:#000;solid-opacity:1"/>
</svg>
