<svg xmlns="http://www.w3.org/2000/svg" viewBox="0 0 60 60">
    <defs>
        <filter id="0UM_svg__a" width="1.318" height="1.261" x="-.134" y="-.11">
            <feGaussianBlur in="SourceAlpha" result="blur" stdDeviation="2"/>
            <feOffset dx="2" dy="2" result="offsetBlur"/>
            <feBlend in="SourceGraphic" in2="offsetBlur"/>
        </filter>
    </defs>
    <g fill="#fdc9dd" filter="url(#0UM_svg__a)" transform="translate(41.426 -1.827)scale(1.05)">
        <path fill="#e9dbc9" stroke="#333" stroke-width=".952" d="M-10.882 6.19-23.798 9.8l-7.051 44.54 39.934-.09-6.79-44.163z"/>
    </g>
    <path fill="#c30" d="M26.044 8.211a1.5 1.5 0 0 0-.469.084c-.073.026-.259.077-.459.15-.2.074-.428.166-.632.381a.99.99 0 0 0-.18.973c.134.334.394.604.807.922l.05.037.057.025c1.008.436 1.235.832 1.38 1.33.078 1.349.481 1.943 1.304 2.864.299.272.66.527 1.216.933l.159.114c-1.39-.707-2.323-1.27-3.143-2.078-.106-.088-.15-.328-.154-.338-.44-.986-.532-1.408-1.147-2.334-.36-.544-.906-1.024-1.488-1.364a3.5 3.5 0 0 0-.9-.394 1.57 1.57 0 0 0-.936.031c-.137.05-.618.077-.977.518-.179.22-.251.586-.158.898s.292.603.612.95l.072.077.097.043c1.008.436 1.235.832 1.381 1.33.172.585.148 1.553.569 2.106.828.927 1.396 1.144 2.789 1.848 1.392.7 2.458 1.622 3.36 2.045.098.084.175.145.269.224a7 7 0 0 0-.909-.299c-1.863-.54-3.152-.286-3.216-.273l-1.235.533c1.807 1.172 3.482 2.393 4.414 3.895-.647-.455-1.328-.967-1.965-1.291-.87-.443-1.514-.69-1.91-.73a2 2 0 0 0-.353-.003c-.378.025-.785.123-.787.213 0 .028.188.16.42.293.485.28 1.163.794 1.92 1.451.291.254.623.538.738.635s.212.194.215.215c.009.067-.58-.171-1.213-.488-1.233-.619-2.122-.82-3.104-.7-.807.1-1.402.423-1.863 1.012-.368.47-.355.553.05.316 1.125-.655 2.546-.503 3.098.33.403.609.192 1.452-.474 1.897-.448.3-1.233.443-2.684.492-1.517.052-3.052.481-4.006 1.12-.508.34-1.247 1.075-1.154 1.148.017.013.208-.076.424-.198 1.286-.724 2.567-.992 3.924-.816.41.053 1.103.245 1.064.295-.012.015-.283.093-.601.172-1.029.255-1.751.636-2.414 1.277-.606.585-1.016 1.298-1.46 2.531-.272.76-.581 1.883-.529 1.924.018.014.375-.426.795-.978.955-1.254 1.276-1.56 2.051-1.951a2 2 0 0 1 .748-.22c.23-.028.4-.029.377-.003s-.194.116-.379.2c-.73.326-.993.658-1.818 2.312-.843 1.687-1.128 2.018-1.823 2.105-.537.067-1.206-.208-1.543-.635-.108-.137-.212-.25-.23-.248-.057.005-.025.63.045.905.161.628.45 1.091.894 1.43.855.65 2.211.628 3.1-.052.482-.368.063.294-.652 1.032-.6.618-.651.678-.85.996-.373.596-.398.935-.172 2.396.224 1.444.193 1.766-.215 2.246a1.9 1.9 0 0 1-.785.567c-.122.047-.22.106-.217.13.011.086.493.274.819.32.593.085 1.29-.15 1.826-.61.147-.127.286-.226.309-.221.07.016-.152.697-.344 1.05-.277.512-.664.94-1.106 1.225-.21.137-.44.255-.51.264-.24.03-.237.139.012.377.455.433.996.883 1.606 1.297-1.852.716-3.479 1.49-4.045 4.597.681-.443 2.507-1.364 3.185-1.644 3.44-1.875 5.438-1.179 9.118-1.281 1.58-.062 5.507-.649 6.8-.885 1.338-.244 1.429-.496 3.545-1.012.012-3.434-8.073-5.62-6.652-12.46a2.4 2.4 0 0 0-.014-.372 20.3 20.3 0 0 0-3.398-.11c-.332.02-.624.053-.844.092-.22.04-.378.106-.361.096l-1.084.697.332-1.246c.36-1.357 1.058-2.1 1.847-2.476.454-.216.89-.296 1.338-.403-.428-.307-.798-.633-1.355-.875-.879-.38-1.814-.628-2.342-.658l-.85-.049.457-.718c.519-.817 1.368-1.147 2.17-1.286.474-.081.874-.096 1.309-.123-.18-.212-.288-.388-.502-.603-.443-.447-.887-.847-1.137-1.106l-.412-.423.488-.336c.628-.43 1.348-.655 2.077-.743a7.5 7.5 0 0 1 2.14.08 7.4 7.4 0 0 1 1.754.522c.24.109.446.224.621.354.176.129.333.259.43.503L31 26.656a6.5 6.5 0 0 0-1.512-.447 5.36 5.36 0 0 0-2.847.285c.2.192.334.317.57.555.466.47.937.972 1.211 1.48l.342.633-.711.1c-.731.103-1.52.087-2.19.203-.316.054-.465.276-.705.394.503.13.96.18 1.498.412.963.417 1.896.958 2.493 1.637l.492.56-.705.243c-.87.299-1.656.385-2.229.658-.382.182-.68.518-.941 1 .183-.021.35-.05.56-.062.717-.044 1.57-.04 2.393.01.822.047 1.606.135 2.209.277.301.07.555.147.781.28q.065.036.129.085c.31.157.658.471.867.918 1.495 2.203 1.078 4.87 4.125 7.873l1.42.086c.28-.08 1.18-.488 1.442-.818.037 1.608.671 3.46 2.236 5.054.227.231.276.382.295.537s-.013.339-.055.577c-.04.225-.369.663-.766 1.117-.396.454-.879.93-.925 1.635l1.68-.977c.39-.448.876-.92.995-1.604.037-.21.106-.508.063-.867s-.22-.76-.572-1.119c-1.58-1.608-2.052-3.46-1.938-4.92q.007-.083.018-.164a.6.6 0 0 0 .545.067c.384-.139.401-.2.865-.407s.968-.502 1.295-1.056c.03-.075.05-.16.06-.239.002-.013.032-.093.297-.297a7 7 0 0 1 1.047-.615c.12.064.206.148.277.252.158.23.249.634.245 1.166-.008 1.064-.372 2.538-.541 3.852-.1.78-.06 1.358.113 1.824s.478.782.762 1.023l2.345 1.497c-.413-1.34-1.235-1.864-1.699-2.258-.232-.197-.374-.35-.47-.61-.097-.26-.15-.665-.061-1.347.157-1.221.541-2.703.55-3.973.006-.635-.078-1.243-.42-1.74a1.7 1.7 0 0 0-.335-.358.62.62 0 0 0-.227-.59l-.758-.533c-1.494-2.176-2.432-3.107-2.61-4.756q.218-.252.42-.543c.36-.51.675-1.086.894-1.605q.165-.39.248-.728c.054-.226.1-.42.023-.688-.27-.94-.909-1.919-1.512-2.717a14 14 0 0 0-.834-1.01l-.101-.107a2.1 2.1 0 0 0-.159-.615 6 6 0 0 0-.341-.668c-.332-.568-.775-1.153-1.233-1.756a23 23 0 0 1-1.226-1.81 4.7 4.7 0 0 1-.375-.731 2.2 2.2 0 0 1-.153-.596l.32-2.324q.061-.077.116-.15a4.6 4.6 0 0 0 .387-.584c.102-.192.21-.389.154-.694-.052-.288-.17-.465-.324-.734a11.7 11.7 0 0 0-1.18-1.668 3 3 0 0 0-.299-.299c-.1-.086-.182-.176-.406-.223a1 1 0 0 0-.09-.01.75.75 0 0 0-.523.21 1.1 1.1 0 0 0-.23.369 5 5 0 0 0-.237.816c-.065.29-.126.59-.188.84a3 3 0 0 1-.16.486l-.029.047-.018.053c-.099.284-.285.59-.52.957a23 23 0 0 1-1.759-1.14c-.73-.523-1.275-.937-1.728-1.343a8.2 8.2 0 0 1-1.174-1.29 18 18 0 0 0-.18-.405l-.004-.01c-.13-.353-.153-.66-.197-1.03-.051-.424-.14-.937-.49-1.466-.361-.544-.907-1.023-1.489-1.361a3.5 3.5 0 0 0-.898-.395 1.8 1.8 0 0 0-.465-.056zm-.082 1.018c.159-.01.546.066.942.297.452.263.911.68 1.158 1.05.094.142.153.27.199.399l.004-.004.01.043c.02.061.035.13.049.193.069.278.186.733.295.99.12.288.2.564.297.817l.025-.012c.033.136.078.288.225.487a8.3 8.3 0 0 0 1.299 1.41c.479.416 1.04.824 1.79 1.361.6.43 1.179.814 1.727 1.156q-.13.212-.27.453a18 18 0 0 1-1.025-.336c-.869-.636-2.205-1.66-3.103-2.316-.496-.36-.776-.58-.998-.799a4 4 0 0 1-.342-.388l-.004-.004a1.5 1.5 0 0 1-.29-.377l-.011-.016v-.002h.002c-.312-.58-.364-1.375-.393-1.828-.21-.686-.733-1.398-1.865-1.906-.275-.219-.368-.36-.402-.42.042-.027.082-.057.181-.094.14-.052.296-.09.448-.145a.2.2 0 0 1 .052-.01zm-4.06 1.248c.157-.01.543.066.94.297.451.264.91.681 1.157 1.052.316.477.468.784.621 1.141.218.284.536 1.122.907 1.7 1.108 1.084 2.197 1.611 4.056 2.529 1.619.8 3.161 1.447 4.23 1.72l.055.045.334.084c.388-.864.885-1.632 1.43-2.383.161-.221.186-.386.236-.49.097-.2.117-.236.17-.455.126-.514.267-1.575.383-1.531.48.577.996 1.142 1.195 1.82 0 0-.078.164-.101.203s-1.883 2.563-1.883 2.563l-.396 1.281.002.002q.022.132.06.262c.037.201.115.395.242.566.197.368.456.724.748 1.072.513.612 1.16 1.183 1.764 1.764.48.456.923.905 1.291 1.318l-.05-.008c-.557-.08-1.214-.14-1.884-.175a29 29 0 0 0-.855-.032c-.56-.28-1.005-.75-1.393-1.03-.082-.063-.946-1.012-1.064-1.061-1.373-1.644-2.622-3.145-4.45-4.254-.936-.444-1.946-1.303-3.298-1.985-.639-.32-1.017-.556-1.33-.8-1.244-.611-1.472-1.684-1.455-2.293-.023-.107-.036-.205-.069-.317-.195-.666-.73-1.346-1.78-1.857-.247-.271-.352-.465-.376-.54.017.002.234-.099.51-.199a.2.2 0 0 1 .053-.01zm14.935 8.297-.047.593-.017.16c.009.321.094.641.222.958.129.316.303.63.493.941.345.568.787 1.12 1.21 1.672l-.015-.016a24 24 0 0 1-1.645-1.763c-.444-.523-.69-.974-.77-1.35l.444-1.01.002-.002zm-.344 7.056c.28 0 .572.006.866.022a21 21 0 0 1 1.79.168c.476.068.862.162 1.01.217a1 1 0 0 1 .079.06c.066.063.16.158.267.276.216.236.493.564.775.937.558.738 1.131 1.67 1.338 2.367-.005.004.001.092-.025.203a4 4 0 0 1-.197.575 8 8 0 0 1-.787 1.416c-.312.44-.67.786-.864.882-.097.049-.12.036-.115.037.003.001-.036-.05-.07-.095l-.004-.063c-.003-.11-.004-.272-.002-.463.003-.381.012-.883.004-1.396a11 11 0 0 0-.108-1.484 3 3 0 0 0-.158-.625c-.076-.194-.178-.396-.416-.538-.481-.286-1.121-.472-1.683-.613-.281-.07-.539-.125-.737-.162a6 6 0 0 0-.345-.053c-.033-.003-.02-.024-.176.008h-.002c.02-.004-.34-.046-.719-.228a7 7 0 0 1-1.178-.74c-.273-.214-.42-.395-.55-.555.423-.09 1.166-.152 2.007-.152zm1.473 2.858c.466.117 1 .293 1.307.449l.004.002q.043.042.084.088l.002.004c.034.086.072.235.101.416.058.362.086.853.094 1.344.006.388.002.763-.002 1.101l-.082.049a1.3 1.3 0 0 1-1.123.072c-.326-.148-.552-.374-.79-.63l-.01-.01-.007-.009c-.168-.197-.308-.355-.426-.552a1.3 1.3 0 0 1-.197-.74c.034-.464.196-.718.943-1.583.036-.003.067 0 .102-.002zM22.27 31.37l1.277.207c-1.339 1.67-1.988 3.24-2.072 4.409s.172 2.408.207 4.095c.084 4.106-.104 5.088-.895 8.551l-1.285.23c.788-3.453 1.03-4.7.947-8.76-.032-1.59-.302-2.833-.205-4.187.098-1.354.601-2.768 2.026-4.545m15.289 4.344c1.528.052 2.037 3.087 2.549 4.275.052.1.127.195.205.284-.329.578-.541 1.296-.604 2.1q-.015.205-.017.417c-.15-.027-.412-.018-.536-.12l-.07-.638-.646-.078a2.6 2.6 0 0 1-.512-.841c-.614-1.994-2.934-3.823-1.09-5.225a1.5 1.5 0 0 1 .72-.174m5.44 1.578q.048-.002.1.03c.698.41.741 1.087 1.022 1.628 0-.006-.074.538-.859.12-.317-.707-.098-.685-.65-1.342.08-.145.21-.431.386-.436" color="#000" enable-background="accumulate" overflow="visible" style="line-height:normal;font-variant-ligatures:normal;font-variant-position:normal;font-variant-caps:normal;font-variant-numeric:normal;font-variant-alternates:normal;font-variant-east-asian:normal;font-feature-settings:normal;font-variation-settings:normal;text-indent:0;text-align:start;text-decoration-line:none;text-decoration-style:solid;text-decoration-color:#000;text-transform:none;text-orientation:mixed;white-space:normal;shape-padding:0;shape-margin:0;inline-size:0;isolation:auto;mix-blend-mode:normal;solid-color:#000;solid-opacity:1"/>
</svg>
