<svg xmlns="http://www.w3.org/2000/svg" viewBox="0 0 60 60">
    <defs>
        <filter id="1FU_svg__a" width="1.322" height="1.263" x="-.136" y="-.111">
            <feGaussianBlur in="SourceAlpha" result="blur" stdDeviation="2"/>
            <feOffset dx="2" dy="2" result="offsetBlur"/>
            <feBlend in="SourceGraphic" in2="offsetBlur"/>
        </filter>
    </defs>
    <g stroke="#333" stroke-width="1.151" filter="url(#1FU_svg__a)" transform="translate(-81.778 -21.26)scale(.86914)">
        <path fill="#d5beaf" d="m141.865 74.375 6.837-44.334h-40.19l6.535 44.638 13.56 3.935z"/>
    </g>
    <path d="M29.826 10.99c-3.612-.016-7.227.373-10.289 1.194a.32.32 0 0 0-.236.347c.148 1.346.427 2.3.988 3.104s1.376 1.435 2.555 2.199l.008.004c2.246 1.368 3.447 2.874 4.12 4.562.647 1.62.792 3.437.839 5.444-1.376.19-2.722.523-3.967 1.066a.323.323 0 0 0-.076.547c3.989 3.297 4.912 6.075 5.86 10.988a.323.323 0 0 0 .634 0c.948-4.913 1.872-7.691 5.861-10.988a.323.323 0 0 0-.078-.547c-1.368-.585-2.784-.914-4.197-1.09.047-2 .193-3.814.84-5.43.674-1.684 1.876-3.187 4.119-4.552l.007-.004c1.179-.764 1.994-1.393 2.555-2.197.56-.804.84-1.76.988-3.106a.32.32 0 0 0-.236-.347c-3.062-.82-6.679-1.21-10.29-1.194z" color="#000" paint-order="stroke fill markers" style="-inkscape-stroke:none"/>
</svg>
