<svg xmlns="http://www.w3.org/2000/svg" viewBox="0 0 60 60">
    <defs>
        <filter id="1HI_svg__a" width="1.289" height="1.238" x="-.119" y="-.098">
            <feGaussianBlur in="SourceAlpha" result="blur" stdDeviation="2"/>
            <feOffset dx="2" dy="2" result="offsetBlur"/>
            <feBlend in="SourceGraphic" in2="offsetBlur"/>
        </filter>
    </defs>
    <g fill="#fdd3e3" filter="url(#1HI_svg__a)" transform="translate(-102.587 -25.906)scale(1.03094)">
        <path fill="#fdeb98" stroke="#333" stroke-width=".97" d="m141.866 74.375 6.836-44.558h-40.19l6.535 44.862 13.56 3.946z"/>
    </g>
    <path fill="#020101" d="M16.573 41.25c9.096-.994 17.734-.994 26.857-.017.067.007.045-.09.034-.139-.503-2.022-.674-2.272-2.076-3.76l-22.769.007c-1.455 1.427-1.58 1.715-2.086 3.749-.011.057-.022.171.033.171zm24.846-4.954V18.99h-1.44c-.523 5.036-4.796 8.98-9.968 8.98s-9.443-3.944-9.966-8.98h-1.44v17.306zM30.012 26.93a8.983 8.983 0 1 0 0-17.966 8.983 8.983 0 0 0 0 17.966m.833-3.135v-3.833l2.708 2.71a5.85 5.85 0 0 1-2.708 1.123m-1.67 0a5.86 5.86 0 0 1-2.707-1.122l2.708-2.71zm5.557-2.303-2.71-2.71h3.832a5.9 5.9 0 0 1-1.122 2.71m-9.445 0a5.85 5.85 0 0 1-1.123-2.71h3.833zm16.033-3.515c.577-.003 1.139-.009 1.139-.009l.855-1.466v-1.656h-3.83c.46.801.683 2.086.609 3.122.055.013.652.011 1.226.009zm-22.617 0c.577.002 1.168.003 1.226-.009-.066-1.036.15-2.324.61-3.122h-3.832v1.656l.855 1.466s.567.006 1.14.009zm17.152-.855h-3.832l2.708-2.71c.599.79.984 1.726 1.124 2.71m-7.859 0h-3.831a5.85 5.85 0 0 1 1.124-2.71zm2.85-1.181v-3.83a5.85 5.85 0 0 1 2.706 1.122zm-1.67 0-2.708-2.708a5.85 5.85 0 0 1 2.708-1.123z" opacity=".99"/>
</svg>
