<svg xmlns="http://www.w3.org/2000/svg" viewBox="0 0 60 60">
    <defs>
        <filter id="1KE_svg__a" width="1.286" height="1.238" x="-.118" y="-.098">
            <feGaussianBlur in="SourceAlpha" result="blur" stdDeviation="2"/>
            <feOffset dx="2" dy="2" result="offsetBlur"/>
            <feBlend in="SourceGraphic" in2="offsetBlur"/>
        </filter>
    </defs>
    <g filter="url(#1KE_svg__a)" transform="translate(-90.61 -23.205)scale(.9389)">
        <path fill="#feec99" stroke="#333" stroke-width="1.065" d="m128.456 78.635 13.41-4.26 6.836-44.558H108.15l6.898 44.862 13.138 3.935.271.021z"/>
    </g>
    <path fill-opacity=".992" d="m31.663 43.712.253-.224c.673-.599.962-1.356 1.102-2.126.123-.674.145-1.36.214-2.024l.535.071 2.647 3.123.2-.377c.766-1.444.48-3.032.473-4.468 1.143-2.358 1.94-4.254 1.813-6.464 1.516-1.7 2.864-3.519 3.741-5.634l.01-.02.004-.023c.25-1.05.49-2.167.053-3.304l-.038-.099-.579-.321c-.338-.701-.58-1.19-.998-1.485-.368-.26-.83-.308-1.463-.254l-1.954 2.746-.786-.56 1.855-2.606-.151-.368-.255.082c-1.291.416-1.98 1.01-2.467 1.738-.475.709-.789 1.523-1.391 2.471-1.911.885-2.78 1.35-4.675 2.062l-.023.008.057.033c-.27.472-.568 1.525-.752 2.504-.093.49-.162.966-.204 1.357-.042.39-.05.717-.042.808l-.96.093c-.026-.26-.002-.583.044-1.004.045-.42.119-.918.216-1.432.181-.963.427-1.96.79-2.662l-.05-.224c0-.02-.016-.299-.023-.635a8 8 0 0 1 .018-.837l.005-.02v-.018c.122-1.862 1.866-4.294 3.26-5.497 2.03-1.548 2.467-3.086 2.753-5.516l.022-.193-.17-.093c-4.867-2.701-8.536-3.438-11.557-3.1s-5.37 1.743-7.604 3.237l-.155.105.033.185c.194 1.11.35 1.916.768 3.449l.002.003v.004c1.06 3.565 1.255 5.784 1.416 11.978v.011c.156 2.362 1.42 5.127 3.402 7.29 1.94 2.12 4.596 3.643 7.584 3.558zm-4.812-7.123a2.2 2.2 0 0 1-.45-.098 5 5 0 0 1-.878-.363 8.6 8.6 0 0 1-1.537-1c-2.197-1.856-3.435-3.601-3.958-6.724l-.002-.013-.003-.013c-.602-4.794-.213-10.564-1.88-14.266l1.16-.522c1.89 4.194 1.409 10.027 1.982 14.613.486 2.888 1.434 4.19 3.522 5.953.267.225.806.588 1.297.84.245.126.483.225.653.274s.27.007.149.055l.465 1.183a1.15 1.15 0 0 1-.52.08zm8.171-2.234q-.139 0-.29-.009l-.544-.033.153-.521c.182-.62.218-1.14.499-1.612.14-.237.372-.448.664-.555s.627-.129 1.04-.097l.54.043-.159.518c-.186.607-.231 1.12-.512 1.588-.14.234-.367.444-.655.556a2.1 2.1 0 0 1-.735.122zm5.494-8.788-.557-.589c.47-.444.841-.723.978-.891.069-.084.076-.115.079-.15.002-.034-.006-.108-.085-.255l.714-.381c.123.227.194.456.178.693a1.1 1.1 0 0 1-.26.606c-.264.323-.618.56-1.047.967" color="#000" enable-background="accumulate" opacity=".99" overflow="visible" style="line-height:normal;font-variant-ligatures:normal;font-variant-position:normal;font-variant-caps:normal;font-variant-numeric:normal;font-variant-alternates:normal;font-variant-east-asian:normal;font-feature-settings:normal;font-variation-settings:normal;text-indent:0;text-align:start;text-decoration-line:none;text-decoration-style:solid;text-decoration-color:#000;text-transform:none;text-orientation:mixed;white-space:normal;shape-padding:0;shape-margin:0;inline-size:0;isolation:auto;mix-blend-mode:normal;solid-color:#000;solid-opacity:1"/>
</svg>
