<svg xmlns="http://www.w3.org/2000/svg" viewBox="0 0 60 60">
    <defs>
        <filter id="1KE_svg__a" width="1.317" height="1.259" x="-.134" y="-.109">
            <feGaussianBlur in="SourceAlpha" result="blur" stdDeviation="2"/>
            <feOffset dx="2" dy="2" result="offsetBlur"/>
            <feBlend in="SourceGraphic" in2="offsetBlur"/>
        </filter>
    </defs>
    <g filter="url(#1KE_svg__a)" transform="translate(-90.61 -23.205)scale(.9389)">
        <path fill="#d5beaf" stroke="#333" stroke-width="1.065" d="m128.456 78.635 13.41-4.26 6.836-44.558H108.15l6.898 44.862 13.138 3.935.271.021z"/>
    </g>
    <path fill-opacity=".992" d="m31.663 43.712.252-.225c.673-.599.963-1.356 1.103-2.127.123-.674.144-1.36.213-2.023l.535.072 2.649 3.121.2-.377c.764-1.443.479-3.03.472-4.466 1.142-2.358 1.94-4.255 1.812-6.465 1.517-1.7 2.865-3.518 3.742-5.633l.01-.022.004-.021c.25-1.05.49-2.168.053-3.305l-.037-.1-.58-.32c-.339-.7-.58-1.19-.998-1.484-.368-.26-.831-.31-1.463-.256l-.47.662q-.575-.002-1.136-.066l.721-1.014-.152-.369-.254.082c-.832.268-1.41.612-1.85 1.016-1.672-.434-3.207-1.22-4.539-2.09.064-.06.13-.128.193-.182 2.03-1.547 2.466-3.085 2.752-5.515l.022-.192-.17-.094c-4.867-2.7-8.535-3.437-11.557-3.1-3.021.339-5.37 1.743-7.603 3.237l-.156.106.033.185c.194 1.11.349 1.915.767 3.447l.002.004v.004c1.061 3.566 1.255 5.785 1.416 11.979v.01c.156 2.362 1.421 5.127 3.403 7.29 1.94 2.12 4.596 3.644 7.584 3.56zm-4.81-7.123h-.003a2.2 2.2 0 0 1-.449-.098 5 5 0 0 1-.879-.363 8.6 8.6 0 0 1-1.537-1c-2.197-1.855-3.433-3.602-3.957-6.725l-.002-.013-.002-.012c-.602-4.794-.213-10.564-1.88-14.266l1.16-.523c.286.635.517 1.306.707 2.006 1.061 3.924.788 8.715 1.275 12.607.486 2.888 1.433 4.19 3.522 5.953.266.226.805.588 1.296.84.245.126.482.226.653.276.17.05.27.005.148.052l.465 1.184a1.14 1.14 0 0 1-.518.082m8.17-2.234q-.14 0-.292-.01l-.543-.033.153-.522c.181-.62.219-1.139.5-1.611.14-.237.371-.448.664-.555.292-.107.626-.128 1.039-.096l.54.041-.16.518c-.186.607-.23 1.122-.511 1.59a1.33 1.33 0 0 1-.654.555 2.1 2.1 0 0 1-.737.123M27.88 30.45c-.026-.26-.001-.583.045-1.004.045-.42.117-.917.214-1.431.182-.963.428-1.96.79-2.662l-.05-.225c0-.02-.015-.299-.023-.635a8 8 0 0 1 .02-.838l.004-.02v-.017c.096-1.462 1.192-3.266 2.334-4.56-3.393.35-6.745-1.018-7.807-7.703 4.218 1.289 7.352 2.278 8.598 7.593q-.366.064-.733.104c1.31.87 2.834 1.685 4.524 2.185-.433.68-.748 1.453-1.317 2.348-1.911.885-2.78 1.352-4.675 2.063l-.024.007.059.034c-.27.47-.568 1.525-.752 2.503-.093.49-.164.967-.205 1.358a6 6 0 0 0-.041.808zm12.634-4.884-.556-.588c.469-.444.841-.725.978-.893.069-.084.076-.114.078-.148.003-.035-.007-.11-.085-.256l.714-.381c.123.227.195.456.178.693a1.1 1.1 0 0 1-.26.606c-.264.323-.617.56-1.047.967m-2.84-2.739-.785-.558.477-.672q.54.088 1.096.123zm-6.449-4.502-.642-.83c-3.608-2.128-4.447-3.324-5.309-4.617l-.922-.625.248.986c.922 1.383 1.927 2.697 5.627 4.88z" color="#000" enable-background="accumulate" opacity=".99" overflow="visible" style="line-height:normal;font-variant-ligatures:normal;font-variant-position:normal;font-variant-caps:normal;font-variant-numeric:normal;font-variant-alternates:normal;font-variant-east-asian:normal;font-feature-settings:normal;font-variation-settings:normal;text-indent:0;text-align:start;text-decoration-line:none;text-decoration-style:solid;text-decoration-color:#000;text-transform:none;text-orientation:mixed;white-space:normal;shape-padding:0;shape-margin:0;inline-size:0;isolation:auto;mix-blend-mode:normal;solid-color:#000;solid-opacity:1"/>
</svg>
