<svg xmlns="http://www.w3.org/2000/svg" viewBox="0 0 60 60">
    <defs>
        <filter id="1KI_svg__a" width="1.318" height="1.259" x="-.134" y="-.109">
            <feGaussianBlur in="SourceAlpha" result="blur" stdDeviation="2"/>
            <feOffset dx="2" dy="2" result="offsetBlur"/>
            <feBlend in="SourceGraphic" in2="offsetBlur"/>
        </filter>
    </defs>
    <g fill="#fdca00" filter="url(#1KI_svg__a)" transform="translate(-94.652 -24.039)scale(.96924)">
        <path fill="#d5beaf" stroke="#333" stroke-width="1.032" d="m128.456 78.635 13.41-4.26 6.836-44.558h-40.19l6.535 44.862 13.138 3.935.271.021"/>
    </g>
    <path fill-opacity=".992" d="M40.59 44.529c.455-.137 1.954-.428 1.066-1.014-.37-.352-1.023-.866-1.411-1.512-1.757-2.926-1.244-6.427-1.37-8.61 1.074.093 3.502.254 3.88-.656l2.39-4.142c-2.034.295-4.59.699-6.044-1.108-.987-.537-1.657-3.193-2.307-3.062l-1.404 4.18c-1.34-.201-1.187-.938-.723-1.895-.862-.986-3.285-1.063-4.819-1.12-1.444.165-3.856.226-4.59 1.192.43.907.635 1.644-.674 1.825l-1.53-4.366c-1.01 1.53-1.695 3.471-3.482 4.255-1.512.592-3.157.317-4.717.1l2.724 4.721c1.102.484 3.16-.04 3.608.09-.15 2.63.197 5.466-1.217 7.837-.53 1.003-1.287 1.853-2.022 2.706.825.547 1.873.839 2.674.022 1.09-1.04 2.274-1.286 3.651-.882 1.479-.183 2.21-1.614 2.536-2.912-1.255.023-1.86-1.253-1.971-2.354-.157-1.053-.111-4.059 1.236-3.494-.315 2.583 2.416 4.882 4.91 4.136 1.836-.437 3.163-2.333 2.938-4.208 1.304-.454 1.385 2.495 1.217 3.566-.111 1.103-.716 2.374-1.97 2.354.328 1.392 1.217 2.94 2.836 2.932 1.89-.993 2.875 1.036 4.584 1.419zm-1.918-2.857c-1.068-1.179-2.328.226-3.39-.412.232-.892 1.324-2.269 1.252-3.574.416-2.967-1.389-6.186-4.38-6.944-3.261-1.127-7.452.535-8.429 4-.621 2.108-.401 4.685 1.14 6.353-.977 1.104-2.288-.702-3.386.472.223-.954 1.123-3.31.995-4.937.03-1.671-.257-3.532.936-4.907 1.37-2.236 4.196-2.715 6.611-2.599 2.397-.111 5.19.385 6.546 2.599 1.194 1.375.904 3.235.935 4.906.035 1.738.402 3.478 1.17 5.043M30 37.172c-2.015.104-3.274-2.571-1.913-4.059 1.193-1.611 4.039-.903 4.34 1.078.347 1.487-.9 3.02-2.427 2.98zm-9.477-10.74c.562-1.339 1.997-2.504 1.896-4-.252-.323-.248-1.682-.736-1.047-.764.724-1.556 1.418-2.294 2.169zm18.848-.176 1.074-2.724c-.821-.828-1.698-1.6-2.545-2.402-.17.7-.706 1.396-.279 2.11.466 1.065 1.19 1.999 1.75 3.016m-4.253-.851 2.598-7.516c-4.99-1.6-10.512-1.598-15.488.059l2.552 7.437c3.337-1.193 7.018-1.29 10.338.02M18.684 22.77c.947-.928 1.935-1.814 2.9-2.724-.396-1.165-.771-2.262-1.323-3.35-1.376.44-2.584 1.247-3.59 2.278.646 1.279 1.347 2.528 2.013 3.796m22.467-.02c.663-1.26 1.36-2.505 2.005-3.776-1.01-1.025-2.21-1.844-3.59-2.278-.545 1.084-.932 2.181-1.3 3.344.96.905 1.944 1.787 2.885 2.71m-6.876-7.134.406-1.748c-3.004-.746-6.227-.812-9.238-.068l.395 1.805c2.758-.663 5.676-.603 8.437.012zm1.264-2.78 1.13-3.683c-4.092-2.186-9.203-1.953-13.337 0l1.2 3.683c1.762-.679 3.506-.821 5.526-.863 1.659.017 3.93.246 5.48.863" color="#000" enable-background="accumulate" opacity=".99" overflow="visible" style="line-height:normal;font-variant-ligatures:normal;font-variant-position:normal;font-variant-caps:normal;font-variant-numeric:normal;font-variant-alternates:normal;font-variant-east-asian:normal;font-feature-settings:normal;font-variation-settings:normal;text-indent:0;text-align:start;text-decoration-line:none;text-decoration-style:solid;text-decoration-color:#000;text-transform:none;text-orientation:mixed;white-space:normal;shape-padding:0;shape-margin:0;inline-size:0;isolation:auto;mix-blend-mode:normal;solid-color:#000;solid-opacity:1"/>
</svg>
