<svg xmlns="http://www.w3.org/2000/svg" viewBox="0 0 60 60">
    <defs>
        <filter id="1KY_svg__a" width="1.317" height="1.259" x="-.134" y="-.109">
            <feGaussianBlur in="SourceAlpha" result="blur" stdDeviation="2"/>
            <feOffset dx="2" dy="2" result="offsetBlur"/>
            <feBlend in="SourceGraphic" in2="offsetBlur"/>
        </filter>
    </defs>
    <g filter="url(#1KY_svg__a)" transform="translate(-90.59 -23.114)scale(.9389)">
        <path fill="#feec99" stroke="#333" stroke-width="1.065" d="m128.456 78.635 13.41-4.26 6.836-44.558h-40.527l6.872 44.862 13.138 3.935c.094.026.193.015.271.021"/>
    </g>
    <path d="m29.99 47.276-2.333-2.91-.305-9.525 1.827-.957h.044v-7.267c-5.108-.4-9.048-4.563-9.048-9.572 0-5.303 4.398-9.6 9.824-9.601 5.427 0 9.826 4.298 9.826 9.601v.179c-.045 2.81-1.359 5.459-3.58 7.246-.045.034-.084.07-.147.115a9.95 9.95 0 0 1-5.336 2.055v7.267h.055l1.82.957-.274 9.526zm-.61-3.327h1.244v-7.995h-1.245Zm-.169-19.425v-5.638l-4.08 3.987a7.73 7.73 0 0 0 4.08 1.653zm1.555-.001c1.495-.158 2.912-.715 4.077-1.652l-4.077-3.986zm-6.732-2.724 4.118-4.022h-5.81a7.36 7.36 0 0 0 1.692 4.022m11.908-.001a7.33 7.33 0 0 0 1.69-4.014v-.007h-5.806zm-13.592-5.54h5.726l-4.04-3.95a7.4 7.4 0 0 0-1.685 3.95zm9.552 0h5.724a7.44 7.44 0 0 0-1.684-3.95Zm-2.69-1.042V9.58a7 7 0 0 0-.6.083 7.8 7.8 0 0 0-3.485 1.57zm1.554 0 4.078-3.985a7.7 7.7 0 0 0-4.078-1.651Z"/>
</svg>
