<svg xmlns="http://www.w3.org/2000/svg" viewBox="0 0 60 60">
    <defs>
        <filter id="1NG_svg__a" width="1.289" height="1.238" x="-.119" y="-.098">
            <feGaussianBlur in="SourceAlpha" result="blur" stdDeviation="2"/>
            <feOffset dx="2" dy="2" result="offsetBlur"/>
            <feBlend in="SourceGraphic" in2="offsetBlur"/>
        </filter>
    </defs>
    <g fill="#ececec" filter="url(#1NG_svg__a)" transform="translate(-94.652 -23.94)scale(.96924)">
        <path fill="#fdeb98" stroke="#333" stroke-width="1.032" d="m128.456 78.635 13.41-4.26 6.836-44.558h-40.19l6.535 44.862 13.138 3.935.271.021"/>
    </g>
    <path fill="#c30" d="m29.909 46.538.299-.418c.871-1.22 1.728-2.703 3.072-3.289l.563-.244-.478-.386c-.677-.548-1.17-1.413-1.507-2.523a3.99 3.99 0 0 0 1.934-3.43c0-.069-.006-.138-.01-.207.582-.433 1.2-.944 1.87-1.542l.217-.191c.496.31.932.677 1.315 1.112 1.492 1.695 2.23 4.462 2.546 8.923l.62-.017V44.3l-.002-.012c.076-4.118-.193-7.948-1.674-10.757a7.9 7.9 0 0 0-2.035-2.505l2.358-4.908c-.733-.596-1.231-.947-1.82-1.404l-2.014 5.383a9 9 0 0 0-.773-.325l.592-1.584c-3.276-1.519-7.126-1.538-10.3.069l.53 1.53a8 8 0 0 0-.77.33l-1.695-4.892c-.42.232-.864.476-1.743.897l2.259 4.7c-.972.715-1.726 1.632-2.294 2.709-1.48 2.81-1.75 6.64-1.673 10.758l-.003.011v.027l.618.016c.316-4.461 1.057-7.228 2.549-8.923a6 6 0 0 1 1.183-1.029l.042.039c.863.754 1.635 1.387 2.359 1.896a3.98 3.98 0 0 0 1.916 3.343c-.336 1.114-.829 1.984-1.508 2.533l-.479.386.563.244c1.343.585 2.2 2.07 3.072 3.288zm.009-6.912a3.2 3.2 0 0 1-1.799-.552 3.36 3.36 0 0 1-1.13-1.296l-.01-.02a3 3 0 0 1-.131-.31l-.002-.002-.002-.007a3 3 0 0 1-.103-.333l-.004-.016a3 3 0 0 1-.067-.342l-.002-.01a4 4 0 0 1-.039-.49c0-1.875 1.474-3.38 3.288-3.38s3.285 1.505 3.285 3.38c0 .068-.007.137-.01.21a3.43 3.43 0 0 1-.662 1.835l-.007.01a3.3 3.3 0 0 1-.823.782l-.002.002a3.2 3.2 0 0 1-1.782.54zm-9.76-.98.002-.006zc.234-1.83.647-3.482 1.358-4.83q.122-.232.258-.453l.044-.074c.074-.122.152-.235.231-.353l.065-.094a8 8 0 0 1 .295-.39l.046-.054c.086-.101.174-.203.265-.296l.125-.13c.07-.069.142-.142.216-.207a6 6 0 0 1 .467-.395c.21-.162.434-.309.67-.45l.015-.008q.24-.14.5-.269l.054-.026a8 8 0 0 1 1.111-.424l.118-.035q.252-.072.517-.13c.054-.011.11-.026.164-.036q.25-.05.511-.09c.07-.01.139-.024.21-.032q.249-.033.508-.053.128-.013.257-.024.254-.017.518-.023c.096-.004.188-.01.287-.011q.408-.005.84.01l.012.003h.002l.012-.002q.418-.016.812-.012a15 15 0 0 1 1.491.093h.002q.35.042.679.105h.001q.33.063.637.143h.002q.308.081.596.179c1.927.652 3.205 1.887 4.074 3.536.71 1.348 1.124 2.997 1.358 4.826l-.002-.007.001.007c-.43-1.512-1.018-2.705-1.835-3.633l-.113-.122q-.087-.098-.178-.191l-.142-.134q-.084-.08-.171-.158a4 4 0 0 0-.166-.138q-.083-.068-.168-.134l-.174-.13-.177-.122c-.063-.04-.126-.085-.191-.126a4 4 0 0 0-.172-.101l-.21-.122a4 4 0 0 0-.172-.09q-.11-.058-.223-.115l-.138-.062a11 11 0 0 0-.55-.227l-.13-.049a6 6 0 0 0-.27-.09q-.1-.033-.202-.064l-.273-.081a17 17 0 0 0-.691-.175l-.307-.065-.213-.04q-.15-.03-.305-.057l-.078-.011q-.486-.08-1.009-.143-.659-.078-1.378-.13h-.043c-.392.029-.765.065-1.13.107h-.005c-1.679.183-3.086.499-4.257 1.023q-.05.02-.099.044-.13.059-.256.127-.083.041-.166.085l-.206.115a4 4 0 0 0-.188.114l-.187.118q-.096.064-.19.13l-.158.114a5 5 0 0 0-.217.175l-.116.097a6 6 0 0 0-.29.268l-.021.02-.003.002a5 5 0 0 0-.315.334c-.818.93-1.409 2.122-1.838 3.637zm4.248-11.19c3.38-1.67 7.417-1.64 10.87-.055l2.81-7.506c-5.135-1.908-11.337-2.035-16.334-.094Zm15.434-1.663 1.828-3.155-2.995-1.927-1.187 3.176c.746.653 1.69 1.28 2.354 1.906m-19.68 0c.939-.657.386-.305 2.309-1.373l-1.286-3.711-2.892 1.86zm22.394-3.515 2.475-3.623-.164-.28c-.88-1.504-2.511-2.957-4.24-3.376l-.287-.069-.134.309c-.28.645-.929 2.41-1.652 4.4 1.255 1.027 2.84 1.628 4.002 2.641zm-25.108 0c1.11-.993 2.637-1.858 3.936-2.694l.107.167c-.742-2.042-1.407-3.854-1.694-4.514l-.134-.309-.286.07c-1.729.418-3.36 1.871-4.24 3.375l-.164.28zm17.247-4.335.647-2.204c-2.619-.575-8.355-.474-10.767.053l.62 2.077-.008-.04c2.645-.588 6.77-.54 9.507.115zm1.409-2.9 1.103-3.483-.406-.175c-4.411-1.855-10.01-1.777-13.703 0l-.407.232 1.104 3.426c3.21-.468 8.268-.823 12.31 0z" color="#000" enable-background="accumulate" overflow="visible" style="line-height:normal;font-variant-ligatures:normal;font-variant-position:normal;font-variant-caps:normal;font-variant-numeric:normal;font-variant-alternates:normal;font-variant-east-asian:normal;font-feature-settings:normal;font-variation-settings:normal;text-indent:0;text-align:start;text-decoration-line:none;text-decoration-style:solid;text-decoration-color:#000;text-transform:none;text-orientation:mixed;white-space:normal;shape-padding:0;shape-margin:0;inline-size:0;isolation:auto;mix-blend-mode:normal;solid-color:#000;solid-opacity:1"/>
</svg>
