<svg xmlns="http://www.w3.org/2000/svg" viewBox="0 0 60 60">
    <defs>
        <filter id="1NG_svg__a" width="1.318" height="1.259" x="-.134" y="-.109">
            <feGaussianBlur in="SourceAlpha" result="blur" stdDeviation="2"/>
            <feOffset dx="2" dy="2" result="offsetBlur"/>
            <feBlend in="SourceGraphic" in2="offsetBlur"/>
        </filter>
    </defs>
    <g fill="#ececec" filter="url(#1NG_svg__a)" transform="translate(-94.652 -23.94)scale(.96924)">
        <path fill="#d4bdae" stroke="#333" stroke-width="1.032" d="m128.456 78.635 13.41-4.26 6.836-44.558h-40.19l6.535 44.862 13.138 3.935.271.021"/>
    </g>
    <path fill="#a82a00" d="m29.993 44.839.302-.422c.881-1.232 1.746-2.732 3.104-3.324l.568-.247-.482-.392c-.688-.556-1.182-1.442-1.522-2.57a4.01 4.01 0 0 0 1.936-3.436l-.002-.074.004-.059q-.001-.1-.008-.197.622-.46 1.215-.992.358.175.627.379l.064.047c.154.127.306.286.459.466q.15.176.299.381l.033.045c.518.734 1.013 1.711 1.434 2.73v.003q.157.381.3.767v.002q.144.385.27.764v.002l.017.055c.418 1.208.717 2.45 1 3.695l.004.021v.002l1.485 1.012s.043-2.037.049-3.322a45 45 0 0 0-.041-2.397c-.003-.074-.002-.14-.006-.214-.064-1.35-.172-2.79-.424-4.11a15 15 0 0 0-.133-.621q-.031-.134-.065-.264-.088-.341-.195-.664c-.199-.602-.444-1.154-.756-1.619a6 6 0 0 0-.734-.896 7 7 0 0 0-.537-.5l-.051-.043-.201-.16-.143-.11-.125-.09a10 10 0 0 0-.584-.386q-.028-.02-.056-.037l.07.025c2.324-4.953 5.476-3.353 7.36-5.96l.195-.267-.17-.29c-2.277-3.891-4.572-6.332-5.54-3.633l-.007-.004-3.426 9.363-.072-.03a16 16 0 0 0-.727-.285c-.048-.017-.096-.04-.144-.056l.513-1.639c-.342-.122-.9-.318-1.71-.558-1.157-.344-2.565-.68-3.44-.68-.877 0-2.292.336-3.451.68q-.867.254-1.717.558l.515 1.647-.054.021q-.423.153-.848.334l-.04.016-3.48-9.532c-.902-2.514-3.204-.08-5.476 3.797l-.172.29.196.267c1.882 2.606 5.032 1.003 7.355 5.953v.002l.106-.037-.038.023a10 10 0 0 0-.904.62q-.087.067-.172.136l-.125.107q-.09.077-.18.157l-.095.091a7 7 0 0 0-.211.206l-.004.004-.014.013a7 7 0 0 0-.24.262l-.008.008-.035.043a6 6 0 0 0-.436.57v.002a5 5 0 0 0-.21.34v.002q-.1.177-.19.367V31q-.09.19-.17.389v.002q-.082.2-.154.41v.002l-.008.024q-.136.399-.244.828l-.006.023v.002l-.006.027q-.106.43-.188.88l-.006.025v.002a20 20 0 0 0-.148.972v.002q-.065.494-.11.992v.002q-.045.501-.078.999v.002q-.032.496-.055.982v.008c-.03.644-.045 1.264-.05 1.834v.006c-.018 1.719.05 4.086.05 4.086l1.485-1.012v-.004l.002.002s.35-1.754 1.021-3.773q.126-.379.268-.764l.002-.002q.142-.385.299-.768.091-.214.185-.425.071-.166.145-.328v-.002q.17-.37.351-.717v-.002q.18-.349.37-.664v-.002q.188-.316.382-.592l.002-.002q.181-.255.365-.467l.028-.033v-.002a4 4 0 0 1 .197-.21q.1-.096.2-.179l.064-.049a4.4 4.4 0 0 1 .597-.388q.607.547 1.246 1.02-.005.09-.006.18l.002.02-.004.114c0 1.449.773 2.73 1.922 3.425-.34 1.134-.833 2.023-1.523 2.58l-.485.393.569.246c1.358.592 2.224 2.092 3.105 3.324zm9.542-7.795c-.665-1.777-1.491-3.584-2.78-4.649-1.955-1.613-5.251-2.252-6.94-2.252s-4.656.674-6.569 2.252c-1.29 1.065-2.115 2.872-2.78 4.649.156-2.351.56-4.886 1.253-5.92.854-1.275 2.556-2.233 4.256-2.822 1.7-.59 3.421-.823 4.025-.823s2.325.233 4.026.823 3.402 1.547 4.256 2.822c.692 1.034 1.097 3.569 1.253 5.92M30 36.929c-1.322 0-2.398-1.091-2.398-2.481s1.076-2.482 2.398-2.482 2.399 1.093 2.399 2.482-1.076 2.48-2.399 2.48m5.39-12.407 2.19-6.982c-2.074-.887-5.395-2.16-7.58-2.164-2.177-.003-5.486 1.24-7.607 2.135l2.2 7.011a32 32 0 0 1 1.728-.562c1.188-.352 2.61-.711 3.68-.711 1.064 0 2.482.36 3.667.713.8.237 1.36.431 1.723.56m-.778-9.332.941-4.469c-3.406-2.651-7.663-2.368-11.105 0l.998 4.47c1.467-.824 2.921-.996 4.603-1.048 1.382.022 3.27.299 4.563 1.047"/>
</svg>
