<svg xmlns="http://www.w3.org/2000/svg" viewBox="0 0 60 60">
    <defs>
        <filter id="1NK_svg__a" width="1.317" height="1.259" x="-.134" y="-.109">
            <feGaussianBlur in="SourceAlpha" result="blur" stdDeviation="2"/>
            <feOffset dx="2" dy="2" result="offsetBlur"/>
            <feBlend in="SourceGraphic" in2="offsetBlur"/>
        </filter>
    </defs>
    <g filter="url(#1NK_svg__a)" transform="translate(-90.578 -23.096)scale(.9389)">
        <path fill="#feec99" stroke="#333" stroke-width="1.065" d="m141.866 74.375 6.836-44.558H108.15l6.898 44.862 13.273 3.946c.094.025 13.545-4.25 13.545-4.25z"/>
    </g>
    <path fill="#c30" d="m39.678 44.909-.077-.67s-.06-.553-.236-1.164c-.136-.473-.306-1.026-.707-1.4.283-.603.428-1.31.428-2.082 0-.721-.123-1.387-.37-1.963v-.002q.057-.132.083-.262.024-.13.035-.273a5 5 0 0 0-.12-1.428 5 5 0 0 0-.187-.645c.442-1.233.69-2.418.615-3.71 1.517-1.7 2.865-3.518 3.743-5.634l.01-.021.004-.021c.25-1.05.49-2.168.052-3.305l-.037-.1-.58-.32c-.338-.701-.58-1.19-.998-1.484-.368-.26-.831-.31-1.463-.256l-1.953 2.746-.785-.559 1.853-2.605-.152-.37-.254.083c-1.291.415-1.979 1.01-2.467 1.738-.474.708-.788 1.523-1.39 2.47-1.912.886-2.78 1.352-4.676 2.063l-.024.008.06.033c-.27.471-.568 1.525-.753 2.504-.093.49-.163.967-.205 1.357-.042.391-.05.718-.04.809l-.962.092c-.026-.26 0-.583.045-1.004.045-.42.117-.917.215-1.432.181-.963.427-1.96.789-2.662l-.049-.224c0-.02-.016-.3-.023-.635a8 8 0 0 1 .02-.838l.003-.02v-.017c.078-1.189.818-2.608 1.705-3.793-1.805-1.235-4.149-2.084-6.486-2.266-1.243-.097-2.474-.01-3.627.285.522 3.413.416 7.184.813 10.358.486 2.888 1.433 4.19 3.521 5.953.267.225.806.588 1.297.84.245.126.482.226.652.275s.27.006.149.053l.465 1.184a1.15 1.15 0 0 1-.518.082h-.002c-.158-.013-.303-.056-.45-.098a5 5 0 0 1-.878-.363 8.6 8.6 0 0 1-1.537-1c-2.197-1.856-3.434-3.603-3.957-6.725l-.002-.014-.002-.011c-.407-3.24-.365-6.923-.807-10.114a7.9 7.9 0 0 0-2.17 1.35c.37 2.147.496 4.498.602 8.566v.01c.156 2.362 1.42 5.127 3.402 7.291 1.941 2.12 4.597 3.643 7.584 3.559.12.937-2.243.785-3.432.955.88.677 2.93 1.658 4.213 1.998l-.058.133-.24.545-.475 1.045 1.088-.364a8 8 0 0 1 .83-.224q.157-.031.308-.05.177-.018.346-.017.15.003.293.024l.076.011q.146.025.287.073.158.052.31.136.154.084.306.2l.043.033.048.023q.205.097.407.15l.025.008q.084.023.166.036.012 0 .023.003l.014.002q.095.015.188.018.105.002.209-.01l.048-.006a1.33 1.33 0 0 0 .715-.343l.002-.002q.108-.099.198-.211a2 2 0 0 0 .162-.237l.15-.254-.15-.255s-.088-.148-.215-.39q-.098-.181-.215-.423t-.236-.521a7 7 0 0 1-.147-.381l-.047-.13a7 7 0 0 1-.125-.407 4.3 4.3 0 0 1-.152-.823l.168.024.683.806c.066.54.208 1.04.43 1.477.206.405.52.807.947 1.043l-.033 1.854.678-.235c.544-.19.79-.153 1.088-.06.298.092.663.303 1.213.404zm-1.235-1.363a5 5 0 0 0-.344-.118c-.265-.082-.676.01-1.04.042l.007-.456a1.72 1.72 0 0 0 .975-.464c.128.197.273.49.363.802.03.1.017.1.04.194zm-4.724-.678c-.095.008-.233-.018-.44-.111-.824-.602-1.74-.596-2.64-.436.128-.294.162-.355.34-.787.37-.9.771-1.938.92-2.66.152-.743.198-1.564.335-2.258.137-.69.357-1.197.72-1.443.024-.005.285-.13.57-.23a23 23 0 0 1 2.347-.692c.343-.076.67-.088.603-.098.318.048.562.23.782.545.22.314.386.752.482 1.184.044.197.028.334.045.515-.188-.128-.365-.269-.582-.355-.668-.266-1.511-.32-2.191.162a6.8 6.8 0 0 0-1.35 1.299c-.381.48-.677.958-.783 1.449-.19.882.17 1.842.515 2.652.264.62.434.898.553 1.11-.046.039-.097.123-.14.136a.4.4 0 0 1-.086.018m3.15-.797a1.258 2.479 0 0 1-1.26-2.478 1.258 2.479 0 0 1 1.26-2.479 1.258 2.479 0 0 1 1.258 2.479 1.258 2.479 0 0 1-1.258 2.478m-2.2-8.54c.112-.465.19-.887.415-1.265a1.3 1.3 0 0 1 .664-.554c.292-.107.626-.128 1.039-.096l.54.041-.16.518c-.163.532-.379.65-.618.982a1.4 1.4 0 0 0-.21-.006h-.01l-.011.002a2 2 0 0 0-.201.022c-.022.003-.049.011-.07.015a18 18 0 0 0-1.346.332zm6.09-7.878-.556-.588c.469-.444.841-.724.978-.892.069-.084.076-.115.079-.149.002-.034-.007-.11-.086-.256l.714-.38c.123.227.195.456.178.693a1.1 1.1 0 0 1-.26.605c-.264.323-.617.56-1.046.967m-8.95-6.892c.195-.203.39-.391.577-.553 2.03-1.548 2.466-3.086 2.752-5.516l.022-.191-.17-.094c-4.867-2.7-8.535-3.437-11.557-3.1-3.021.338-5.369 1.743-7.603 3.237l-.156.105.033.186c.194 1.11.349 1.914.767 3.447l.002.004v.004c.186.624.338 1.201.475 1.771a9.6 9.6 0 0 1 2.252-1.213c-.199-.957-.458-1.852-.816-2.648l1.16-.523c.39.866.674 1.806.892 2.787a12.7 12.7 0 0 1 4.022-.31c2.666.207 5.29 1.15 7.347 2.607" color="#000" enable-background="accumulate" opacity=".99" overflow="visible" style="line-height:normal;font-variant-ligatures:normal;font-variant-position:normal;font-variant-caps:normal;font-variant-numeric:normal;font-variant-alternates:normal;font-variant-east-asian:normal;font-feature-settings:normal;font-variation-settings:normal;text-indent:0;text-align:start;text-decoration-line:none;text-decoration-style:solid;text-decoration-color:#000;text-transform:none;text-orientation:mixed;white-space:normal;shape-padding:0;shape-margin:0;inline-size:0;isolation:auto;mix-blend-mode:normal;solid-color:#000;solid-opacity:1"/>
</svg>
