<svg xmlns="http://www.w3.org/2000/svg" viewBox="0 0 60 60">
    <defs>
        <filter id="1NY_svg__a" width="1.317" height="1.26" x="-.134" y="-.109">
            <feGaussianBlur in="SourceAlpha" result="blur" stdDeviation="2"/>
            <feOffset dx="2" dy="2" result="offsetBlur"/>
            <feBlend in="SourceGraphic" in2="offsetBlur"/>
        </filter>
    </defs>
    <g filter="url(#1NY_svg__a)" transform="translate(-90.59 -23.212)scale(.9389)">
        <path fill="#feec99" stroke="#333" stroke-width="1.065" d="m141.866 74.375 6.836-44.558h-40.527l6.872 44.862 13.138 3.935c.094.026.193.015.271.021z"/>
    </g>
    <path fill="#c30" d="m30 39.127.111-.135.866-1.047.12-4.076-.44-.205v-.76a8.04 8.04 0 0 0 4.165-1.576l.838.838-.156.475 2.973 2.804 1.54.112-.17-1.528-2.796-2.986-.479.174-.767-.768a8.04 8.04 0 0 0 2.19-4.869h.85l.227.451 4.088-.119 1.168-1.012-1.201-.958-4.09-.133-.21.453h-.833a8.04 8.04 0 0 0-7.338-7.328v-.6l.442-.203-.121-4.076L30 10.87l-.977 1.184-.119 4.076.436.197v.604a8.04 8.04 0 0 0-7.354 7.33h-.812l-.211-.453-4.09.133-1.201.958 1.168 1.012 4.088.12.226-.452h.832a8.04 8.04 0 0 0 2.17 4.852l-.785.785-.473-.156-2.804 2.974-.112 1.54 1.528-.17 2.984-2.797-.174-.477.817-.816a8.04 8.04 0 0 0 4.203 1.591v.764l-.436.197.12 4.078zm.656-7.98v-2.028a4.2 4.2 0 0 0 1.438-.517l1.465 1.463a6.3 6.3 0 0 1-2.903 1.082m-1.316 0a6.3 6.3 0 0 1-2.938-1.1l1.467-1.467a4.2 4.2 0 0 0 1.47.537zm5.215-1.948-1.436-1.435c.537-.6.905-1.355 1.026-2.184h2.09a6.3 6.3 0 0 1-1.68 3.62m-9.145-.021a6.3 6.3 0 0 1-1.662-3.598h2.107a4.2 4.2 0 0 0 1 2.154zM30 27.672a2.687 2.687 0 0 1-2.687-2.688A2.687 2.687 0 0 1 30 22.297a2.687 2.687 0 0 1 2.688 2.687A2.687 2.687 0 0 1 30 27.672m6.236-3.41h-2.113a4.2 4.2 0 0 0-.527-1.406l1.525-1.526a6.3 6.3 0 0 1 1.115 2.932m-10.359 0h-2.113a6.3 6.3 0 0 1 1.093-2.899l1.526 1.526a4.2 4.2 0 0 0-.506 1.373m1.344-2.397-1.512-1.511a6.3 6.3 0 0 1 3.63-1.66v2.158a4.2 4.2 0 0 0-2.118 1.013m5.529-.025a4.2 4.2 0 0 0-2.094-.99v-2.157a6.3 6.3 0 0 1 3.608 1.633z" color="#000" style="-inkscape-stroke:none"/>
</svg>
