<svg xmlns="http://www.w3.org/2000/svg" viewBox="0 0 60 60">
    <defs>
        <filter id="1RY_svg__a" width="1.317" height="1.257" x="-.133" y="-.108">
            <feGaussianBlur in="SourceAlpha" result="blur" stdDeviation="2"/>
            <feOffset dx="2" dy="2" result="offsetBlur"/>
            <feBlend in="SourceGraphic" in2="offsetBlur"/>
        </filter>
    </defs>
    <g fill="#fdd3e3" filter="url(#1RY_svg__a)" transform="translate(-102.587 -25.906)scale(1.03094)">
        <path fill="#fdeb98" stroke="#333" stroke-width=".97" d="m141.866 74.375 6.836-44.558h-40.19l6.535 44.862 13.138 3.935c.09.017.18.032.271.021z"/>
    </g>
    <path fill="#c30" d="M35.313 50.03c-.084-.788-1.855-5.314.383-4.779.027.007.049.008.074.014.703.508.962 1.726.995 1.852.044.17.274.367.574.547.896.534 2.562.637 1.418-.512-.933-1.213-1.776-2.071-2.158-3.063l-.008.004c-.167-.87-.604-2.147-.83-2.97l-.334-1.44c-.12-.411-.346-1.11-.664-1.723a4 4 0 0 0-.53-.802c-.18-.199-.336-.301-.486-.342a.9.9 0 0 0-.19.363c-.1.332-.15.84-.17 1.348a23 23 0 0 0-.001 1.388q.005.275.004.428c.813 1.095 1.12 2.044 1.52 3.297-.042.17-.41.158-.651.234-3.445 1.104-.601 5.024.629 5.942l-.002.004q.109.08.23.142a.6.6 0 0 0 .197.069m-10.628 0a.6.6 0 0 0 .197-.068q.121-.061.23-.142l-.002-.004c1.23-.918 4.074-4.838.63-5.942-.19-.06-.485-.451-.6-.39.375-1.174.69-2.094 1.468-3.14q-.002-.155.004-.428c.008-.368.018-.88-.002-1.39-.02-.507-.07-1.015-.17-1.347a.9.9 0 0 0-.19-.363c-.15.04-.305.143-.485.342a4 4 0 0 0-.53.802c-.318.613-.545 1.312-.664 1.723l-.334 1.44c-.227.823-.664 2.1-.83 2.97l-.008-.004c-.382.992-1.225 1.85-2.158 3.063-1.145 1.149.522 1.046 1.418.512.3-.18.53-.377.574-.547.033-.126.292-1.344.994-1.852.026-.006.048-.007.075-.014 2.238-.535.467 3.99.382 4.78m5.314-9.954 2.38-.575c-.003-.308-.006-.647.009-1.013.02-.54.06-1.065.209-1.57.073-.277.204-.535.39-.752l.412-.481.612.166c.39.107.704.353.96.635l.005.002.002.004c.267.298.482.64.673 1.008.196.376.351.755.475 1.1l.166-.042v-.002c.494-1.309.315-3.726.096-5.428l-.04-.314.294-.12c.379-.154.866-.346 1.261-.558.394-.21.64-.475.653-.52l.486-1.773c.057-.212.04-.324.02-.386-.023-.062-.058-.099-.137-.149-.127-.082-.363-.141-.604-.207-.393.004-.834.024-1.295-.018-.565-.053-1.17-.22-1.607-.71l-.043-.051-.027-.063c-.171-.402-.277-.836-.38-1.254h.667c.314.01 3.7.076 5.728-2.591.766-1.008 1.5-1.753 2.342-2.137.367-.168.53-.318.838-.358.19-.025.527.097.809.174l-.264-.685c-.917-.314-1.66-.16-2.37.302-.737.48-1.42 1.285-2.083 2.149-.864 1.136-2.256 1.662-3.418 1.918-.987.218-1.571.202-1.801.203l-.74.03a2 2 0 0 0-.153-.292.6.6 0 0 0-.306-.256 32 32 0 0 1-4.184.647l-.033.004-.035-.004a32.5 32.5 0 0 1-4.182-.647.6.6 0 0 0-.306.256q-.088.139-.153.29l-.738-.028c-.23 0-.818.015-1.805-.203-1.162-.256-2.554-.782-3.418-1.918-.663-.864-1.345-1.67-2.082-2.149-.71-.462-1.454-.616-2.37-.302l-.265.685c.282-.077.62-.199.81-.174.305.04.47.19.837.358.842.384 1.576 1.129 2.342 2.137 2.029 2.667 5.414 2.6 5.728 2.591h.668c-.1.418-.207.851-.379 1.254l-.027.063-.045.05c-.44.497-1.063.677-1.658.752-.55.07-1.09.055-1.53.061q-.166.041-.318.121c-.08.05-.113.09-.135.15-.022.064-.036.175.022.387l.482 1.774c.011.043.26.31.655.521.394.21.882.4 1.261.555l.293.12-.039.315c-.218 1.702-.397 4.121.098 5.43l.162.04c.124-.344.278-.723.473-1.099a4.8 4.8 0 0 1 .673-1.007l.002-.004.004-.002c.257-.282.57-.528.961-.635l.612-.166.412.48c.186.218.317.476.39.752.149.506.188 1.031.21 1.57.014.366.011.706.007 1.014zm10.129-1.399c.714-1.578 1.015-2.435-1-4.761 1.33.318 2.773 2.99 3.38 3.539 1.042-2.636-.262-3.793-1.874-4.633 1.572-.336 2.51.418 4.086.896-.878-1.605-1.962-4.058-4.62-2.916.988-1.356 2.706-1.981 4.176-2.853-1.51-.286-3.086-1.036-4.375.289.67-1.222 1.76-2.267 2.828-3.317q-.655.087-1.302.225c-.684.756-1.476 1.26-2.26 1.615-.008.418-.122.853-.236 1.235-.068.228-.086.263-.139.41.194.05.353.062.576.203.214.132.38.333.469.568.093.257.09.556.002.881l-.486 1.775c-.144.53-.601.786-1.059 1.032-.363.194-.729.333-1.06.468q.08.605.138 1.211zm-20.256 0 2.762-4.136q.056-.606.135-1.208c-.332-.135-.695-.274-1.057-.468-.46-.246-.919-.503-1.063-1.032l-.482-1.775c-.09-.325-.094-.624 0-.88.093-.259.279-.45.467-.57.223-.14.384-.153.578-.202-.053-.147-.075-.182-.143-.41-.114-.382-.224-.817-.232-1.235-.785-.356-1.58-.859-2.264-1.615a16 16 0 0 0-1.304-.225c1.07 1.05 2.16 2.095 2.83 3.317-1.29-1.325-2.866-.575-4.377-.29 1.47.873 3.191 1.498 4.177 2.854-2.657-1.142-3.74 1.31-4.619 2.916 1.578-.478 2.512-1.231 4.084-.896-1.612.84-2.915 1.997-1.873 4.633.607-.548 2.053-3.22 3.381-3.54-2.014 2.328-1.713 3.184-1 4.762m5.826-3.824a1 1 0 0 1-.162-.018c-.353-.06-.682-.283-.973-.763-.77-1.577.452-2.34 1.71-2.791 1.34-.217 2.097.16 2.634 1.04-2.097 1.51-2.37 2.427-3.049 2.524a1 1 0 0 1-.16.008m8.444-.008c-.68-.097-.952-1.014-3.05-2.523.538-.882 1.297-1.258 2.637-1.041 1.257.452 2.48 1.213 1.71 2.79-.29.48-.62.704-.973.764-.12.02-.32-.086-.324.008zm-2.13-6.219c-.66-.145-.95-1.092-1.406-1.677l.838.62 1.041.112c-.069.45.368.81-.472.945m-4.023 0c-.84-.136-.404-.494-.474-.945l1.04-.113.839-.62c-.457.586-.745 1.533-1.405 1.678m-5.928-.277q.381 0 .758-.043c.48-.06.856-.207 1.102-.46.035-.09.062-.203.092-.307a9 9 0 0 1-2.293-.434q.048.333.14.656c.098.328.162.487.201.588m15.473-.066q.215.003.43-.004c.047-.124.09-.23.176-.518.068-.226.095-.44.127-.652a9 9 0 0 1-2.28.43c.03.103.058.216.092.304.246.255.58.378 1.024.42q.215.015.431.02M24.677 25.49c.038-.076.068-.156.115-.227.18-.27.44-.51.785-.619-.038-3.946.025-3.54 1.014-7.268l.04-.154.136-.086c.89-.572 2.051-.853 3.218-.853s2.343.284 3.244.924l.122.086.037.144c.987 3.745 1.104 3.332 1.017 7.201l.012.002c.33.11.611.331.797.625.046.07.073.149.111.223a8.7 8.7 0 0 0 1.781-.219q.34-.078.672-.187c-.113-.194-.222-.39-.36-.565.008.01-.29-.198-.554-.312-.263-.114-.5-.192-.5-.192l-.238-.08-.04-.25c-.553-3.646-1.3-4.985-2.22-7.71a2.5 2.5 0 0 0-.388-.456l-.575-7.69-.812 5.778-1.088-5.129-1.006 5.024-1-5.014-1.096 5.205-.812-5.9-.569 7.73a2.5 2.5 0 0 0-.384.451c-.92 2.725-1.665 4.063-2.219 7.71l-.041.25-.238.08s-.24.079-.502.193c-.263.114-.56.321-.551.312-.137.176-.248.373-.361.567q.331.107.671.185a8.7 8.7 0 0 0 1.782.22m5.326-.205a32 32 0 0 0 3.478-.5l-.586-3.135-.81 1.57-1.09-1.203-1.006 1.143-1-1.137-1.095 1.246-.813-1.64-.578 3.15a32 32 0 0 0 3.5.506m-.014-5.278 1-.963.947.913.426-2.26a5 5 0 0 0-2.377-.59c-.863 0-1.696.215-2.367.55l.432 2.292.94-.905z"/>
</svg>
