<svg xmlns="http://www.w3.org/2000/svg" viewBox="0 0 60 60">
    <defs>
        <filter id="1UM_svg__a" width="1.317" height="1.257" x="-.133" y="-.108">
            <feGaussianBlur in="SourceAlpha" result="blur" stdDeviation="2"/>
            <feOffset dx="2" dy="2" result="offsetBlur"/>
            <feBlend in="SourceGraphic" in2="offsetBlur"/>
        </filter>
    </defs>
    <g fill="#fdd3e3" filter="url(#1UM_svg__a)" transform="translate(-102.587 -25.906)scale(1.03094)">
        <path fill="#d4bdae" stroke="#333" stroke-width=".97" d="m141.866 74.375 6.836-44.558h-40.19l6.535 44.862 13.138 3.935c.09.017.18.032.271.021z"/>
    </g>
    <path fill="#a82a00" d="M33.946 51.64a1.5 1.5 0 0 0 .47-.084c.073-.026.259-.076.458-.15.2-.074.429-.166.633-.381a.99.99 0 0 0 .18-.973c-.134-.334-.395-.604-.807-.922l-.05-.037-.057-.025c-1.008-.436-1.235-.832-1.381-1.33-.078-1.349-.48-1.942-1.303-2.864-.299-.271-.66-.526-1.217-.933l-.158-.113c1.39.707 2.323 1.27 3.143 2.078.106.087.15.328.154.338.44.986.532 1.407 1.146 2.334.361.543.907 1.023 1.489 1.363.29.17.593.318.9.394s.622.082.936-.03c.137-.05.617-.078.976-.518.18-.22.252-.586.158-.899-.093-.312-.292-.602-.61-.949l-.073-.078-.098-.043c-1.008-.436-1.235-.832-1.38-1.33-.172-.585-.148-1.552-.569-2.106-.829-.927-1.396-1.144-2.79-1.847-1.392-.7-2.458-1.623-3.358-2.045-.1-.085-.176-.146-.27-.225a7 7 0 0 0 .908.299c1.864.541 3.153.287 3.217.273l1.234-.533c-1.807-1.172-3.482-2.393-4.414-3.894.648.454 1.329.967 1.965 1.29.87.444 1.515.69 1.91.731.104.01.228.01.354.002.378-.025.785-.122.787-.213 0-.027-.189-.16-.42-.293-.486-.28-1.164-.794-1.92-1.45a80 80 0 0 0-.738-.636c-.115-.096-.212-.194-.215-.215-.009-.066.58.171 1.213.489 1.233.618 2.122.82 3.103.699.808-.099 1.403-.423 1.864-1.012.368-.47.355-.553-.051-.316-1.124.655-2.546.503-3.098-.33-.403-.609-.192-1.452.475-1.897.448-.299 1.233-.442 2.683-.492 1.517-.051 3.053-.481 4.006-1.119.509-.34 1.248-1.076 1.155-1.148-.018-.014-.208.075-.424.197-1.286.725-2.567.992-3.924.816-.411-.053-1.103-.245-1.065-.295.012-.015.283-.093.602-.172 1.029-.254 1.75-.636 2.414-1.277.605-.585 1.016-1.298 1.46-2.531.272-.76.58-1.883.528-1.924-.017-.014-.375.427-.795.979-.954 1.253-1.275 1.56-2.05 1.95a2 2 0 0 1-.748.22c-.23.028-.4.03-.377.003.023-.026.193-.116.379-.199.73-.327.993-.659 1.818-2.312.842-1.688 1.128-2.019 1.822-2.106.538-.067 1.207.208 1.543.635.108.137.212.25.23.248.058-.005.026-.63-.044-.904-.161-.628-.45-1.092-.895-1.43-.854-.65-2.21-.629-3.1.05-.481.37-.063-.293.653-1.03.6-.619.65-.679.85-.996.372-.597.398-.936.171-2.397-.223-1.443-.192-1.766.215-2.246.227-.268.472-.445.785-.566.122-.048.22-.107.217-.131-.01-.086-.492-.274-.818-.32-.593-.085-1.29.15-1.826.61-.148.128-.287.226-.309.221-.071-.015.152-.696.344-1.05.277-.511.663-.94 1.105-1.225.212-.137.44-.255.51-.264.241-.03.238-.138-.012-.377a12.6 12.6 0 0 0-1.605-1.296c1.851-.716 3.479-1.49 4.045-4.598-.682.443-2.508 1.364-3.186 1.644-3.44 1.875-5.437 1.179-9.117 1.282-1.58.062-5.508.648-6.8.884-1.338.245-1.43.496-3.546 1.012-.011 3.434 8.074 5.62 6.653 12.461-.008.12.002.246.013.371a20.3 20.3 0 0 0 3.398.11c.333-.02.625-.053.845-.092s.377-.106.361-.096l1.084-.697-.332 1.246c-.36 1.357-1.058 2.1-1.848 2.477-.453.216-.89.295-1.338.402.429.308.798.634 1.356.875.879.38 1.814.628 2.342.658l.85.049-.458.719c-.518.816-1.367 1.147-2.17 1.285-.474.081-.873.096-1.308.123.18.212.288.388.502.603.443.447.886.848 1.136 1.106l.412.424-.488.336c-.627.43-1.347.654-2.076.742s-1.47.037-2.14-.08a7.4 7.4 0 0 1-1.755-.522 3.4 3.4 0 0 1-.62-.353c-.176-.13-.333-.26-.43-.504l1.465-.053c.384.175.92.344 1.511.447a5.36 5.36 0 0 0 2.848-.285c-.201-.192-.335-.317-.57-.554-.466-.47-.938-.973-1.211-1.48l-.342-.634.71-.1c.732-.102 1.52-.087 2.19-.202.316-.055.465-.277.705-.395-.502-.13-.96-.18-1.498-.412-.962-.417-1.896-.958-2.492-1.637l-.492-.56.705-.243c.869-.298 1.655-.384 2.229-.658.382-.182.68-.518.94-1-.182.022-.35.05-.56.063-.716.043-1.57.038-2.392-.01s-1.606-.136-2.21-.278c-.3-.07-.555-.147-.78-.279a1 1 0 0 1-.13-.086 2 2 0 0 1-.867-.918c-1.494-2.203-1.078-4.87-4.125-7.873l-1.42-.086c-.28.08-1.18.488-1.44.819-.039-1.608-.672-3.461-2.237-5.055-.227-.231-.276-.382-.295-.537s.013-.338.055-.576c.039-.226.369-.663.765-1.117.397-.454.88-.93.926-1.635l-1.68.976c-.391.448-.876.92-.996 1.604-.037.21-.105.508-.062.867s.219.76.572 1.12c1.579 1.607 2.051 3.459 1.937 4.92q-.007.082-.017.163a.6.6 0 0 0-.545-.066c-.385.138-.402.199-.865.406-.464.207-.969.502-1.295 1.057a1 1 0 0 0-.06.238c-.003.013-.033.094-.298.297a7 7 0 0 1-1.046.615.76.76 0 0 1-.278-.252c-.157-.229-.248-.634-.244-1.166.008-1.064.372-2.537.541-3.851.1-.78.06-1.36-.113-1.825s-.478-.782-.762-1.023l-2.346-1.496c.414 1.34 1.236 1.864 1.7 2.258.231.197.374.349.47.609.097.26.149.665.06 1.348-.156 1.22-.54 2.702-.55 3.972-.005.635.079 1.243.42 1.74q.14.202.336.358a.62.62 0 0 0 .226.59l.758.533c1.494 2.176 2.433 3.108 2.612 4.756a7 7 0 0 0-.422.543 8.8 8.8 0 0 0-.893 1.605q-.165.39-.248.729c-.054.225-.1.419-.023.687.27.94.908 1.92 1.511 2.717.302.399.594.747.834 1.01l.102.107c.018.207.074.412.158.616.091.22.213.442.342.667.331.569.775 1.153 1.232 1.756a23 23 0 0 1 1.227 1.81q.244.4.375.731.13.333.152.596l-.32 2.324-.115.15a4.6 4.6 0 0 0-.387.585c-.102.192-.21.388-.154.693.052.288.17.466.324.734a11.7 11.7 0 0 0 1.18 1.668q.148.17.298.3c.102.086.183.175.407.222q.045.009.09.01c.208.007.417-.1.523-.21.12-.123.178-.244.23-.368.105-.249.172-.526.237-.817s.126-.59.187-.84a3 3 0 0 1 .16-.486l.03-.047.017-.052c.1-.284.285-.59.52-.957.552.324 1.152.703 1.76 1.14.729.522 1.275.936 1.728 1.342s.813.802 1.174 1.29c.063.148.122.28.18.405l.004.01c.129.353.153.661.197 1.03.051.425.139.937.49 1.466.36.544.907 1.023 1.488 1.362.291.17.592.317.899.394q.23.06.465.057zm.082-1.017c-.158.009-.545-.067-.94-.297-.453-.264-.913-.68-1.16-1.051a1.8 1.8 0 0 1-.198-.399l-.004.004-.01-.043c-.02-.06-.035-.13-.05-.193-.068-.278-.186-.733-.294-.99-.121-.288-.2-.564-.297-.817l-.025.012a1.2 1.2 0 0 0-.225-.486 8.3 8.3 0 0 0-1.299-1.41c-.48-.416-1.04-.825-1.79-1.362-.6-.43-1.18-.814-1.727-1.156q.13-.212.27-.453.451.13 1.025.336c.869.636 2.205 1.661 3.103 2.316.495.36.776.581.998.8.122.12.23.246.342.388l.004.004q.171.16.289.377l.012.015v.002h-.002c.311.58.363 1.375.392 1.828.21.686.734 1.398 1.866 1.907.275.218.367.358.402.42-.043.027-.082.057-.182.093-.139.052-.295.091-.447.145a.2.2 0 0 1-.053.01m4.061-1.249c-.157.01-.544-.065-.94-.296-.452-.264-.911-.682-1.158-1.053a6.5 6.5 0 0 1-.62-1.14c-.218-.284-.536-1.122-.907-1.7-1.109-1.085-2.197-1.612-4.057-2.53-1.618-.8-3.16-1.447-4.23-1.72l-.055-.045-.334-.084c-.387.864-.885 1.632-1.43 2.383-.16.222-.185.386-.236.49-.097.2-.116.236-.17.455-.125.515-.266 1.575-.383 1.531-.48-.577-.995-1.142-1.195-1.82 0 0 .078-.164.102-.203s1.883-2.562 1.883-2.562l.396-1.282-.002-.002a2 2 0 0 0-.06-.261 1.35 1.35 0 0 0-.243-.567 6.4 6.4 0 0 0-.748-1.072c-.513-.612-1.159-1.183-1.763-1.764a22 22 0 0 1-1.291-1.318l.05.008c.557.08 1.214.14 1.883.176q.433.022.856.031c.56.28 1.005.75 1.392 1.031.083.062.946 1.011 1.065 1.06 1.373 1.644 2.622 3.145 4.449 4.255.937.444 1.946 1.302 3.299 1.984.638.32 1.017.556 1.33.8 1.244.612 1.472 1.684 1.455 2.294.023.106.036.204.068.316.196.666.73 1.347 1.782 1.858.246.27.351.464.375.539-.017-.001-.234.1-.51.199a.2.2 0 0 1-.053.01zm-14.936-8.296.047-.594.018-.16a2.8 2.8 0 0 0-.223-.957 7 7 0 0 0-.492-.942c-.345-.568-.787-1.119-1.21-1.672l.015.016a24 24 0 0 1 1.644 1.764c.444.522.69.973.77 1.35l-.443 1.009-.002.002zm.344-7.057c-.28 0-.571-.006-.865-.022a21 21 0 0 1-1.791-.168c-.475-.068-.861-.161-1.01-.216a1 1 0 0 1-.078-.06 6 6 0 0 1-.267-.276 14 14 0 0 1-.776-.938c-.558-.738-1.13-1.67-1.338-2.367.005-.004 0-.092.026-.203a4 4 0 0 1 .197-.574c.187-.446.476-.976.787-1.416.311-.441.669-.787.863-.883.098-.048.12-.036.116-.037s.036.05.07.096c0 .02.003.032.004.062.003.11.004.272.002.463-.003.382-.013.883-.004 1.396s.035 1.035.107 1.485c.036.225.082.432.158.625.077.193.179.395.417.537.48.286 1.121.473 1.683.613.281.07.539.125.736.162a6 6 0 0 0 .346.053c.032.003.019.024.176-.008h.002c-.02.004.34.046.719.229.38.182.816.458 1.177.74.274.213.42.395.551.554-.423.09-1.167.153-2.008.153m-1.472-2.857c-.466-.118-1-.293-1.307-.45l-.004-.002q-.043-.042-.084-.088l-.002-.004a2 2 0 0 1-.102-.416 10 10 0 0 1-.093-1.343 40 40 0 0 1 .002-1.102l.082-.049a1.3 1.3 0 0 1 1.123-.072c.325.148.552.374.789.63l.01.01.008.009c.167.197.307.355.426.553a1.3 1.3 0 0 1 .197.74c-.035.464-.196.717-.944 1.582-.035.003-.067 0-.101.002m15.697-2.684-1.277-.207c1.338-1.67 1.988-3.24 2.072-4.408.084-1.17-.173-2.408-.207-4.096-.084-4.105.104-5.088.894-8.55l1.285-.231c-.788 3.453-1.03 4.7-.947 8.76.033 1.59.303 2.833.205 4.187-.097 1.354-.6 2.769-2.025 4.545m-15.29-4.344c-1.528-.052-2.037-3.087-2.548-4.275a1.6 1.6 0 0 0-.205-.283c.328-.578.54-1.297.603-2.1q.016-.206.018-.418c.15.027.411.018.535.121l.07.637.647.078c.278.323.4.555.512.842.614 1.993 2.933 3.822 1.09 5.224a1.5 1.5 0 0 1-.721.174m-5.439-1.578a.2.2 0 0 1-.101-.03c-.697-.41-.74-1.086-1.022-1.628 0 .006.074-.538.86-.12.316.708.098.685.65 1.343-.08.144-.211.43-.387.435" color="#000" enable-background="accumulate" overflow="visible" style="line-height:normal;font-variant-ligatures:normal;font-variant-position:normal;font-variant-caps:normal;font-variant-numeric:normal;font-variant-alternates:normal;font-variant-east-asian:normal;font-feature-settings:normal;font-variation-settings:normal;text-indent:0;text-align:start;text-decoration-line:none;text-decoration-style:solid;text-decoration-color:#000;text-transform:none;text-orientation:mixed;white-space:normal;shape-padding:0;shape-margin:0;inline-size:0;isolation:auto;mix-blend-mode:normal;solid-color:#000;solid-opacity:1"/>
</svg>
