<svg xmlns="http://www.w3.org/2000/svg" viewBox="0 0 60 60">
    <defs>
        <filter id="1UM_svg__a" width="1.289" height="1.238" x="-.119" y="-.098">
            <feGaussianBlur in="SourceAlpha" result="blur" stdDeviation="2"/>
            <feOffset dx="2" dy="2" result="offsetBlur"/>
            <feBlend in="SourceGraphic" in2="offsetBlur"/>
        </filter>
    </defs>
    <g fill="#fdd3e3" filter="url(#1UM_svg__a)" transform="translate(-102.587 -25.906)scale(1.03094)">
        <path fill="#fdeb98" stroke="#333" stroke-width=".97" d="m141.866 74.375 6.836-44.558h-40.19l6.535 44.862 13.138 3.935c.09.017.18.032.271.021z"/>
    </g>
    <path fill="none" stroke="#fdeb98" stroke-width=".877" d="M34.599 33.522c1.06.003 2.642-.127 3.702-.737m-1.299-4.381c2.49-.263 3.195-.435 4.536-1.027m-3.916-4.013c.926-.023 2.014-.05 4.498-.853m-4.032-5.66c1.421.194 2.3-.296 3.721-.698"/>
    <path fill="#c30" d="m34.556 50.564.854-1.227c.464-.68.731-1 .979-1.35.257-.35.463-.731.73-1.412l.124-.247-.185-.247c-.865-.968-2.29-1.781-3.743-2.516-1.454-.73-2.925-1.4-3.865-1.84-1.566-1.01-2.747-2.253-3.89-3.565-.085-1.256-.617-2.157-1.94-3.43l.68-.731c1.591 1.53 2.29 2.885 2.27 4.661h-.114c.381.566.762 1.105 1.16 1.534.69.752 1.395.958 1.963 1.043.567.087.989.124 1.841.556.003.002.237.062.247.062l.31-.062 1.288-.556-1.105-.556c-.022-.03-.032-.061-.065-.123-.096-.186-.237-.453-.37-.803a9 9 0 0 1-.36-1.222c4.266-.442 8.828-3.444 11.286-5.16.525-.411.175-1.253-.494-1.165-1.608.237-2.864.515-4.167.989l-.01.006c-.536.184-1.145.287-1.753.36-.803.089-1.57.102-2.107.102a6.95 6.95 0 0 1-2.887 1.661c-.268.484-.278.824-.185 1.298.103.504.36 1.064.309 1.779l-.978-.061c.032-.433-.186-.917-.31-1.535-.096-.473.087-1.061.31-1.656-.124-.103-.33-.258-.67-.495a32 32 0 0 0-1.472-.916 84 84 0 0 0-1.41-.803c-.196-.103-.372-.185-.495-.247-.065-.03-.086-.046-.124-.06l.247-.978h.065c.021.01.097.052.124.062.053.024.053.028.123.061.134.068.35.196.556.309a46 46 0 0 1 1.412.803c.525.309 1.09.628 1.534.916.299.196.535.371.731.546 1.876-.566 3.064-1.865 3.935-3.674.907-1.884 1.428-4.316 1.719-6.87.288-2.555.412-5.215.618-7.609s.484-4.515 1.227-6.012c.124-.247.237-.412.288-.66-.916-.095-1.847-.215-2.801-.329-4.15-.504-8.637-.957-13.068.495a.657.657 0 0 0-.371.854c1.393 2.858 1.98 6.09 6.38 10 .432 1.257.38 2.451.309 3.743-.022.31.032.639.096.968.577.865 1.11 2.174 1.602 4.281l-.34.577-.608-.309c-.473-2.052-1.14-3.393-1.54-3.978-.546-.69-.649-.556-.917-.556-.813.018-1.465.36-2.208.617-.525-2.546-1.108-4.759-1.227-7.301a.7.7 0 0 0-.064-.37l-1.657-2.454a.64.64 0 0 0-.73-.248l-1.228.371a.657.657 0 0 0-.433.855l.033.087-1.543.793c-.164-.258-.473-.36-.762-.258-.401.144-.865.278-1.349.495s-1.009.525-1.35 1.103a1 1 0 0 0-.064.247c-.002.014-.032.097-.309.31-.278.205-.762.504-1.533.854a.657.657 0 0 0-.124 1.105l.793.556c2.054 2.992 3.668 5.312 4.05 8.892.003.02-.001.04 0 .061l-.493 2.884a.65.65 0 0 0 .134.474c.086.505.411.958.782 1.425.474.587 1.086 1.173 1.718 1.778a25 25 0 0 1 1.717 1.841c.463.546.72 1.02.803 1.412l-2.455 3.498 4.478-1.474c.855.165 2.691.804 4.54 1.719 1.902.937 3.85 2.145 4.848 3.13.065.067.288.421.432.73.134.31.186.67.186.68zm.669-2.584c-.165-.371-.391-.762-.67-1.036-1.166-1.15-3.137-2.287-5.092-3.252-1.955-.968-3.81-1.72-4.908-1.902h-.124l-1.841.556.978-1.411v-.186c-.103-.72-.566-1.384-1.105-2.025-.535-.638-1.209-1.235-1.84-1.841-.597-.566-1.168-1.138-1.578-1.627l2.682 1.382c1.401.576 1.546.896 2.086 1.288.086.064.196.134.32.185 1.384 1.618 2.799 3.233 4.838 4.538h.064c.979.463 2.392 1.067 3.804 1.778 1.292.649 2.47 1.444 3.19 2.148-.144.309-.278.649-.433.855-.086.123-.247.391-.37.545zm-12.97-14.966h-.679l-.196-.31c-.236-.37-.288-.689-.38-.998-.097-.309-.237-.7-.65-1.388l-.35-.566.577-.34c.34-.206.824-.227 1.173-.077.34.154.577.39.824.659l.007.009.01.008c.174.206.318.371.442.577.123.206.226.484.206.772-.043.577-.36.896-.783 1.417zm12.659-.227c.38-.014.793-.038 1.217-.085.546-.062 1.092-.164 1.514-.309l-.002-.003c3.301-.927 5.45-1.222 7.34-4.411a.652.652 0 0 0-.556-.978l-.906-.038-.007.001c-.947.268-.72.196-1.903.68l-.002-.006c-1.309.556-2.475.73-4.778.968a15 15 0 0 1-.937 2.56 8.7 8.7 0 0 1-.988 1.616zm2.148-5.08c2.053-.216 3.073-.381 4.22-.875l-.003-.007c1.177-.484.967-.443 1.907-.71l.033-.017c.957-.577 1.969-1.43 3.054-2.782.69-.536.097-1.254-.793-1.044-2.666.247-5.09 1.282-7.764 1.354l-.032.309a34 34 0 0 1-.618 3.773zm-16.128-2.851-3.007-3.559.144-.741 2.74-1.156-2.288-1.196.022-.096a.6.6 0 0 0-.043-.36l2.253.978.607 1.479c.196 1.252-.043 1.987-.308 2.822-.145.463-.054 1.223-.124 1.84zm16.863-2.105h.002c.885-.025 1.89-.075 4.21-.824.565-.278 1.168-.566 1.44-.814 1.607-1.48 3.11-3.239 3.68-4.11a.65.65 0 0 0-.731-.978c-2.11.556-3.006.504-3.62.309-.442-.064-.34-.144-.823.103-1.323.37-2.282.875-3.726.72-.134 1.775-.247 3.687-.432 5.599zm.937-6.44.001-.001c.896.003 1.623-.31 2.674-.629 3.214-1.898 5.402-4.476 6.029-5.37.032-.04.226-.217.247-.248.33-.515-.154-1.152-.731-.978-2.079.782-4.524.782-7.19.546a3.6 3.6 0 0 1-.36 1.052c-.618 1.228-.907 3.225-1.105 5.584l-.001.018c.154.017.298.026.442.026z" color="#000" enable-background="accumulate" overflow="visible" style="line-height:normal;font-variant-ligatures:normal;font-variant-position:normal;font-variant-caps:normal;font-variant-numeric:normal;font-variant-alternates:normal;font-variant-east-asian:normal;font-feature-settings:normal;font-variation-settings:normal;text-indent:0;text-align:start;text-decoration-line:none;text-decoration-style:solid;text-decoration-color:#000;text-transform:none;text-orientation:mixed;white-space:normal;shape-padding:0;shape-margin:0;inline-size:0;isolation:auto;mix-blend-mode:normal;solid-color:#000;solid-opacity:1"/>
</svg>
