<svg xmlns="http://www.w3.org/2000/svg" viewBox="-10 0 523 512"><path fill="currentColor" d="M193.882 445.445q-10.846 0-10.846-18.945 0-9.884 2.033-13.18 2.034-3.705 5.423-4.118 3.39-.411 7.231-.411 3.841-.412 7.231-2.883 3.615-2.883 6.327-11.12t3.39-25.122q1.807-40.772 3.163-81.132 1.355-40.771 2.26-81.543.225-7.413-2.26-11.12-2.26-3.706-6.101-3.706H193.43q-.678 35.006-2.712 72.483-2.033 37.065-7.005 72.895t-14.913 67.13q-1.808 5.353-5.197 14.414-3.163 9.06-7.231 16.062-3.841 7-8.134 7-9.265 0-9.265-17.297 0-4.941 1.808-9.472 2.034-4.53 3.615-7.825 9.717-20.18 15.818-46.537t9.264-55.598 4.52-58.07q1.355-29.24 1.58-55.185-3.163 0-7.456.824-4.293.412-8.586-.412-4.068-.824-7.005-4.53-2.712-4.12-2.712-13.18 0-9.472 2.712-13.59 2.937-4.119 7.909-4.119h15.59q.227-11.119.453-21.826.226-11.12.226-22.24 0-8.237-.226-16.473V80.146q0-8.238 2.26-13.18t7.004-4.942q4.971 0 7.005 5.354 2.034 4.942 2.034 13.18l-.452 76.6h22.596q9.49 0 15.365 7.413 6.101 7.413 6.101 26.358 0 21.415-.677 43.242-.679 21.416-1.13 43.243-.678 29.24-1.808 63.423-.904 33.77-4.52 62.599-2.033 16.474-7.456 25.534-5.423 9.472-12.88 12.767-7.457 3.707-16.043 3.707M41.81 432.678q-4.294.823-6.78-4.12-2.259-4.94-2.259-12.354 0-10.296 4.067-12.767 4.294-2.883 8.587-3.294l41.577-5.354v-32.124H48.137q-8.135 0-8.135-13.59t8.134-13.591h38.866v-24.71H60.79q-8.36 0-13.105-7.002-4.52-7-4.52-22.65v-64.247q0-30.476 17.174-30.476h26.663v-23.475h-45.87q-8.134 0-8.134-14.002 0-13.59 8.134-13.59h45.87v-25.946q-9.716 2.47-19.658 3.295t-19.885 2.059q-4.068.412-6.553-3.295-2.486-4.119-2.486-11.531 0-4.531 1.356-8.649 1.356-4.53 4.067-4.942 2.938-.824 5.65-.824 2.711-.412 5.649-.824 12.654-1.647 25.308-2.882 12.879-1.647 25.307-4.53 6.553-2.06 12.654-4.531 6.1-2.882 12.428-4.942l2.26-.823q1.355-.412 2.26-.412 9.037 0 9.037 16.473 0 8.237-4.519 11.531-4.293 2.884-7.682 4.119-7.457 2.471-15.14 4.53-7.456 1.648-14.913 3.706v28.417h40.899q8.36 0 8.36 14.003 0 7.413-2.26 10.707-2.26 2.884-6.1 2.884h-40.9v23.474h27.794q17.173 0 17.173 29.653v64.246q0 30.475-17.625 30.475h-27.341v24.71h38.413q3.841 0 6.101 3.296 2.26 2.883 2.26 10.295t-2.26 10.708q-2.26 2.883-6.1 2.883h-38.414v30.064l27.567-4.53 4.067-.823q2.26-.824 4.068-.824 6.779 0 6.779 13.179 0 11.12-6.328 13.178l-12.653 3.295q-6.101 2.06-12.428 3.295-17.851 3.706-35.702 6.589zm17.399-196.035h27.793v-26.358H65.31q-2.938 0-4.52 3.295t-1.581 8.649zm42.932 0h28.923V222.23q0-11.944-6.327-11.944h-22.595ZM65.31 286.888h21.692v-27.182H59.209v15.65q0 11.532 6.1 11.532m36.832 0h22.596q6.327 0 6.327-11.532v-15.65h-28.922Zm320.866 156.497q-5.649 0-10.62-4.118-4.746-4.119-4.746-16.473 0-10.296 3.616-13.591 3.841-3.707 9.264-4.53 5.65-.824 10.846-2.472 5.424-1.647 8.587-7.825 2.034-4.118 3.615-19.356 1.808-15.65 2.938-37.477 1.356-22.24 2.26-46.538 1.13-24.297 1.581-46.537.678-22.24 1.13-38.712.452-16.474.452-21.828.226-7.001-1.13-11.531t-6.1-4.53h-5.875q-3.164 43.654-8.813 81.543t-16.044 71.66-28.245 65.482q-2.485 4.118-6.779 11.531-4.293 7.413-9.49 14.826-4.971 7.002-9.942 11.943-4.745 5.354-8.361 5.354-4.745 0-6.779-4.942t-2.033-12.766q0-7.826 3.615-12.767 3.841-5.354 6.779-9.061 32.99-39.536 49.26-95.546 16.269-56.421 19.658-127.257h-15.14q-3.389 32.946-10.62 65.07-7.004 31.711-19.206 57.245-1.582 3.295-5.423 11.12-3.616 7.413-8.135 15.65t-8.812 14.414q-4.068 5.765-6.78 5.765-8.586 0-8.586-16.061 0-7.002 3.39-12.767 3.615-5.766 6.1-9.472 17.626-25.947 28.02-57.657 10.394-32.124 13.558-73.307h-18.981q-.904 4.118-2.938 13.178t-4.971 19.768-6.327 21.004q-3.163 9.884-6.553 16.474t-6.553 6.589q-8.812 0-8.812-16.473 0-2.884 1.356-7.414 1.581-4.941 3.163-9.472 1.582-4.942 2.26-7 9.49-27.182 14.461-56.834 4.972-30.065 9.265-60.54 1.13-8.238 3.389-16.474 2.26-8.649 7.909-8.649 9.716 0 9.716 16.474 0 3.707-1.13 11.532t-2.711 16.884q-1.356 8.65-2.938 16.474-1.355 7.825-2.033 11.532h69.822q10.168 0 16.495 8.237 6.327 7.824 6.327 28.004 0 48.597-1.356 98.43-1.355 49.42-4.745 98.016-1.808 26.358-5.197 43.243t-11.75 24.71q-8.134 7.825-24.178 7.825m-110.044 6.59q-4.97 0-6.778-5.766t-1.808-13.59V319.833q-1.582 1.235-5.875 4.12-4.067 2.47-9.264 5.764-4.972 2.883-9.265 5.354-4.067 2.06-5.423 2.06-9.49 0-9.49-17.71 0-9.472 4.067-13.178 4.067-4.119 8.135-6.178l27.115-14.414v-98.43h-17.4q-.225 3.707-.677 13.18-.452 9.06-1.356 20.591-.903 11.12-2.485 21.828-1.582 10.296-4.067 17.297-2.26 7-5.65 7-3.841 0-6.326-3.293-2.26-3.295-2.26-10.708 0-.824.226-4.119.452-3.706.678-4.53 2.485-21.416 4.067-38.3 1.582-17.298 2.486-34.595t1.355-39.536q.226-7.825 1.582-16.473 1.582-8.65 7.005-8.65 8.36 0 8.36 15.239 0 7.824-.451 16.473-.452 8.237-1.13 16.062h16.043V80.969q0-8.237 1.808-13.59 1.807-5.354 6.779-5.354t6.778 5.354q1.808 5.353 1.808 13.59v73.719h14.462q8.812 0 8.812 16.473 0 16.062-8.812 16.062H321.55v88.545q1.582-1.236 4.745-3.295 3.39-2.471 6.553-4.53 3.39-2.06 4.745-2.06 8.135 0 8.135 15.238 0 7.825-4.746 13.591-4.519 5.354-10.394 8.649-5.649 3.295-9.039 5.353v121.904q0 7.825-1.807 13.591t-6.779 5.765"/></svg>