<svg xmlns="http://www.w3.org/2000/svg" viewBox="-10 0 523 512"><path d="M565.336 270.186q-26.254 0-26.254-25.16 0-13.128 4.923-17.504 4.922-4.922 13.127-5.47 8.204-.546 17.503-.546 9.298-.547 17.503-3.829 8.751-3.829 15.315-14.768 6.563-10.94 8.204-33.365 4.376-54.15 7.658-107.752 3.281-54.149 5.47-108.298.546-9.846-5.47-14.768-5.47-4.923-14.769-4.923h-44.304q-1.64 46.492-6.563 96.266-4.923 49.226-16.956 96.812t-36.1 89.155q-4.375 7.11-12.58 19.144-7.657 12.033-17.503 21.332-9.298 9.298-19.69 9.298-22.426 0-22.426-22.973 0-6.563 4.376-12.58 4.923-6.016 8.751-10.392 23.52-26.801 38.288-61.807t22.425-73.84 10.94-77.122q3.281-38.834 3.828-73.293-7.657 0-18.05 1.094-10.392.547-20.784-.547-9.845-1.094-16.956-6.017-6.564-5.47-6.564-17.503 0-12.58 6.564-18.05 7.11-5.47 19.144-5.47h37.74q.547-14.767 1.094-28.988.547-14.768.547-29.536 0-10.94-.547-21.879v-21.878q0-10.94 5.47-17.503t16.956-6.564q12.033 0 16.956 7.11 4.922 6.564 4.922 17.504L566.43-112.69h54.697q22.972 0 37.193 9.845 14.768 9.846 14.768 35.006 0 28.442-1.64 57.431-1.642 28.442-2.735 57.431-1.641 38.835-4.376 84.233-2.188 44.85-10.94 83.138-4.922 21.879-18.05 33.912-13.126 12.58-31.176 16.956-18.05 4.923-38.835 4.923M197.23 253.23q-10.393 1.094-16.41-5.47-5.469-6.563-5.469-16.409 0-13.674 9.845-16.956 10.393-3.828 20.785-4.375l100.641-7.11v-42.664h-94.077q-19.691 0-19.691-18.05t19.69-18.05h94.078V91.328h-63.447q-20.238 0-31.724-9.298-10.94-9.298-10.94-30.083v-85.326q0-40.476 41.57-40.476h64.541v-31.177H195.59q-19.69 0-19.69-18.596 0-18.05 19.69-18.05h111.033v-34.459q-23.519 3.282-47.585 4.376t-48.133 2.735q-9.846.547-15.862-4.376-6.017-5.47-6.017-15.315 0-6.017 3.282-11.486 3.282-6.017 9.845-6.564 7.11-1.094 13.674-1.094 6.564-.547 13.675-1.094 30.63-2.188 61.26-3.828 31.176-2.188 61.26-6.017 15.861-2.735 30.63-6.017 14.767-3.828 30.082-6.563l5.47-1.094q3.282-.547 5.47-.547 21.878 0 21.878 21.878 0 10.94-10.939 15.315-10.392 3.83-18.597 5.47-18.05 3.282-36.646 6.017-18.05 2.188-36.1 4.922v37.74h99q20.238 0 20.238 18.598 0 9.845-5.47 14.22-5.47 3.83-14.768 3.83h-99v31.176h67.277q41.569 0 41.569 39.382v85.326q0 40.475-42.663 40.475h-66.183v32.818h92.984q9.298 0 14.768 4.376 5.47 3.829 5.47 13.674t-5.47 14.221q-5.47 3.829-14.768 3.829h-92.984v39.928l66.73-6.016 9.845-1.094q5.47-1.094 9.845-1.094 16.41 0 16.41 17.503 0 14.768-15.316 17.502l-30.63 4.376q-14.768 2.735-30.083 4.376-43.21 4.923-86.42 8.751zM239.346-7.125h67.276v-35.006h-52.508q-7.11 0-10.94 4.376-3.828 4.376-3.828 11.486zm103.923 0h70.011v-19.144q0-15.862-15.315-15.862H343.27Zm-89.155 66.73h52.508v-36.1h-67.276V44.29q0 15.315 14.768 15.315m89.155 0h54.696q15.315 0 15.315-15.315V23.505H343.27Zm776.689 207.846q-13.674 0-25.708-5.47-11.486-5.47-11.486-21.878 0-13.674 8.752-18.05 9.298-4.923 22.425-6.017 13.674-1.094 26.254-3.282 13.128-2.187 20.785-10.392 4.923-5.47 8.751-25.707 4.376-20.785 7.111-49.774 3.282-29.536 5.47-61.807 2.734-32.27 3.828-61.807 1.641-29.536 2.735-51.414 1.094-21.879 1.094-28.99.547-9.298-2.735-15.314-3.281-6.017-14.768-6.017h-14.22q-7.658 57.978-21.332 108.299-13.674 50.32-38.835 95.172-25.16 44.85-68.37 86.967-6.017 5.47-16.41 15.315-10.391 9.845-22.972 19.69-12.033 9.299-24.066 15.862-11.486 7.111-20.238 7.111-11.486 0-16.409-6.564-4.922-6.563-4.922-16.955 0-10.393 8.751-16.956 9.298-7.11 16.409-12.034 79.857-52.508 119.238-126.895 39.382-74.934 47.586-169.012h-36.647q-8.204 43.757-25.707 86.42-16.956 42.117-46.492 76.028-3.829 4.376-13.127 14.768-8.751 9.846-19.69 20.785t-21.332 19.144q-9.846 7.657-16.41 7.657-20.784 0-20.784-21.331 0-9.299 8.205-16.956 8.751-7.658 14.768-12.58 42.663-34.46 67.823-76.575 25.16-42.664 32.818-97.36h-45.945q-2.188 5.47-7.11 17.503t-12.034 26.254-15.315 27.895q-7.657 13.127-15.862 21.879-8.204 8.751-15.862 8.751-21.331 0-21.331-21.878 0-3.83 3.282-9.846 3.828-6.563 7.657-12.58 3.829-6.563 5.47-9.298 22.972-36.1 35.005-75.481 12.034-39.929 22.426-80.404 2.735-10.94 8.204-21.878 5.47-11.487 19.144-11.487 23.52 0 23.52 21.879 0 4.923-2.735 15.315t-6.564 22.425q-3.282 11.487-7.11 21.879-3.282 10.392-4.923 15.315h169.012q24.613 0 39.928 10.94 15.315 10.391 15.315 37.193 0 64.541-3.282 130.724-3.281 65.636-11.486 130.177-4.376 35.006-12.58 57.432-8.204 22.425-28.442 32.818-19.69 10.392-58.525 10.392m-266.372 8.751q-12.033 0-16.409-7.657-4.375-7.658-4.375-18.05V103.362q-3.83 1.64-14.221 5.47-9.846 3.281-22.426 7.657-12.033 3.829-22.425 7.11-9.846 2.735-13.128 2.735-22.972 0-22.972-23.52 0-12.58 9.845-17.502 9.846-5.47 19.691-8.205l65.636-19.143V-72.761h-42.117q-.546 4.923-1.64 17.503-1.094 12.033-3.282 27.348-2.188 14.768-6.017 28.99-3.829 13.674-9.845 22.972-5.47 9.298-13.674 9.298-9.299 0-15.315-4.375-5.47-4.376-5.47-14.221 0-1.094.547-5.47 1.094-4.923 1.641-6.017 6.017-28.442 9.845-50.867 3.83-22.973 6.017-45.945t3.282-52.509q.547-10.392 3.828-21.878 3.83-11.487 16.956-11.487 20.238 0 20.238 20.238 0 10.392-1.094 21.879-1.094 10.939-2.735 21.331h38.835v-97.906q0-10.94 4.375-18.05 4.376-7.11 16.41-7.11t16.408 7.11q4.376 7.11 4.376 18.05v97.906h35.006q21.331 0 21.331 21.879 0 21.331-21.331 21.331H874.37V44.837q3.829-1.641 11.486-4.376 8.205-3.282 15.862-6.017 8.205-2.735 11.486-2.735 19.691 0 19.691 20.238 0 10.392-11.486 18.05-10.94 7.11-25.16 11.486-13.675 4.376-21.88 7.11v161.902q0 10.392-4.375 18.05-4.375 7.657-16.409 7.657" aria-label="動物" style="font-size:560.091px;line-height:1.25;font-family:&quot;Kosugi Maru&quot;;-inkscape-font-specification:&quot;Kosugi Maru&quot;;font-variant-ligatures:none;text-align:center;white-space:pre" transform="matrix(.41312 0 0 .75295 -39.67 242.008)"/></svg>