<svg xmlns="http://www.w3.org/2000/svg" viewBox="-10 0 522 512"><path fill="currentColor" d="M228.15 24.775q22.45 0 35.919 16.276 13.47 16.275 12.347 35.918-1.122 19.643-14.592 30.868-11.224 10.102-7.857 24.132t17.96 20.766l140.305-37.041 26.94 97.653-5.613-17.96q4.49 19.082-2.806 29.184t-19.082 8.98-19.643-6.735q-6.734-5.612-16.836-6.173t-19.082 3.928q-8.98 4.49-14.03 16.837-5.052 12.347.56 32.551 6.735 24.694 21.888 34.796t28.062 6.735 16.275-12.347q5.612-15.714 21.888-21.888 16.275-6.173 27.5 6.174l31.428 114.49-120.102 32.55q1.123 0 3.367-1.122l-5.613 1.123q-13.469 3.367-17.959-5.613t-2.806-19.081 5.051-12.347q5.612-7.857 6.174-23.01.56-15.154-11.786-29.745t-32.551-14.592q-6.735 0-13.47 2.245-24.694 6.734-34.234 25.255-9.541 18.52-5.613 35.357t12.909 20.204q11.224 4.49 19.642 11.224 8.419 6.735 8.419 16.276 0 9.54-14.592 16.276l-115.612 30.306-28.062-105.51q-13.469-10.103-29.183-4.49t-16.837 12.347q-2.245 11.224-19.082 18.52-16.836 7.296-36.48.561-19.642-6.735-26.377-31.428-4.49-14.592-1.122-28.062 3.367-13.47 11.224-20.204t16.837-12.347 16.837-5.05q7.857.56 12.347 2.805 12.347 11.225 30.306 8.419t21.326-16.276L94.58 201l106.632-29.184q4.49-10.102 3.928-20.765-.56-10.663-3.928-19.082-3.368-8.418-5.612-8.418-13.47-2.245-22.45-22.45-8.979-20.203-.56-42.652t36.479-30.306q8.98-2.245 16.837-3.368zM367.335 434.47l-4.49 1.122 6.735-1.122zm63.98-245.817 2.245 6.735z" style="stroke-width:1.03931"/></svg>