<?xml version="1.0" encoding="UTF-8" standalone="no"?>
<svg
   viewBox="-10 0 522 512"
   version="1.1"
   id="svg1"
   sodipodi:docname="puzzle.svg"
   inkscape:version="1.4.3 (0d15f75042, 2025-12-25)"
   xmlns:inkscape="http://www.inkscape.org/namespaces/inkscape"
   xmlns:sodipodi="http://sodipodi.sourceforge.net/DTD/sodipodi-0.dtd"
   xmlns="http://www.w3.org/2000/svg"
   xmlns:svg="http://www.w3.org/2000/svg">
  <defs
     id="defs1" />
  <sodipodi:namedview
     id="namedview1"
     pagecolor="#ffffff"
     bordercolor="#666666"
     borderopacity="1.0"
     inkscape:showpageshadow="2"
     inkscape:pageopacity="0.0"
     inkscape:pagecheckerboard="0"
     inkscape:deskcolor="#d1d1d1"
     inkscape:zoom="0.40024352"
     inkscape:cx="232.35854"
     inkscape:cy="391.01195"
     inkscape:window-width="1366"
     inkscape:window-height="704"
     inkscape:window-x="0"
     inkscape:window-y="0"
     inkscape:window-maximized="1"
     inkscape:current-layer="svg1" />
  <path
     fill="currentColor"
     d="m 228.15065,24.775324 q 22.44899,0 35.91839,16.275523 13.4694,16.275523 12.34695,35.918396 -1.12245,19.642873 -14.59185,30.867377 -11.2245,10.10205 -7.85715,24.13267 3.36735,14.03063 17.9592,20.76532 l 140.30624,-37.04084 26.93879,97.65314 -5.61225,-17.9592 q 4.4898,19.08165 -2.80612,29.1837 -7.29592,10.10205 -19.08165,8.9796 -11.78572,-1.12245 -19.64287,-6.7347 -6.7347,-5.61225 -16.83675,-6.17348 -10.10205,-0.56122 -19.08165,3.92858 -8.9796,4.4898 -14.03062,16.83675 -5.05103,12.34694 0.56122,32.55104 6.7347,24.6939 21.88778,34.79595 15.15307,10.10205 28.06124,6.7347 12.90818,-3.36735 16.27553,-12.34695 5.61225,-15.7143 21.88777,-21.88777 16.27552,-6.17348 27.50002,6.17347 l 31.4286,114.48989 -120.10214,32.55105 q 1.12245,0 3.36631,-1.12245 l -5.61225,1.12245 q -13.4694,3.36735 -17.9592,-5.61225 -4.4898,-8.9796 -2.80612,-19.08165 1.68367,-10.10205 5.05102,-12.34695 5.61225,-7.85715 6.17348,-23.01022 0.56122,-15.15308 -11.78573,-29.74493 -12.34694,-14.59184 -32.55104,-14.59184 -6.7347,0 -13.4694,2.2449 -24.6939,6.7347 -34.23472,25.25512 -9.54083,18.52042 -5.61225,35.35717 3.92857,16.83675 12.90817,20.2041 11.2245,4.4898 19.64287,11.2245 8.41838,6.7347 8.41838,16.27552 0,9.54082 -14.59185,16.27552 L 170.90466,487.22468 142.84342,381.71439 q -13.4694,-10.10205 -29.1837,-4.4898 -15.714299,5.61225 -16.836749,12.34695 -2.2449,11.2245 -19.081648,18.52042 -16.836748,7.29593 -36.479621,0.56123 -19.642873,-6.7347 -26.377573,-31.4286 -4.489799,-14.59185 -1.12245,-28.06125 3.36735,-13.46939 11.224499,-20.20409 7.857149,-6.7347 16.836749,-12.34695 8.979599,-5.61225 16.836748,-5.05103 7.857149,0.56123 12.346949,2.80613 12.346948,11.2245 30.306146,8.41837 17.9592,-2.80612 21.32655,-16.27552 L 94.578071,200.99996 201.21081,171.81626 q 4.4898,-10.10205 3.92857,-20.76532 -0.56122,-10.66327 -3.92857,-19.08165 -3.36735,-8.41837 -5.61225,-8.41837 -13.4694,-2.2449 -22.449,-22.449 -8.9796,-20.204102 -0.56122,-42.6531 8.41837,-22.448998 36.47962,-30.306147 8.9796,-2.2449 16.83675,-3.367349 z m 139.18378,409.694216 -4.4898,1.12245 6.7347,-1.12245 z m 63.97964,-245.81653 2.2449,6.7347 z"
     id="path1"
     style="stroke-width:1.03931" />
</svg>
