<svg xmlns="http://www.w3.org/2000/svg" width="800" height="800" fill="currentColor" viewBox="0 0 32 32"><path d="M27 21.75a4.2 4.2 0 0 0-2.169.616l.018-.01-2.694-2.449a7.14 7.14 0 0 0 1.154-3.913 7.17 7.17 0 0 0-1.358-4.212l.015.021 3.062-3.062c.57.316 1.249.503 1.971.508h.002a4.25 4.25 0 1 0-4.25-4.25c.005.724.193 1.403.519 1.995l-.011-.022-3.062 3.062a7 7 0 0 0-4.144-1.344c-.868 0-1.699.157-2.467.443l.049-.016-.644-1.17a4.223 4.223 0 1 0-2.157 1.207l-.028.005.642 1.166a7.11 7.11 0 0 0-2.54 7.381l-.011-.049-.667.283a4.226 4.226 0 1 0 1.019 2.752v-.025.001a4 4 0 0 0-.046-.451l.003.024.667-.283c1.303 2.026 3.547 3.349 6.1 3.349a7.2 7.2 0 0 0 4.503-1.574l-.015.011 2.702 2.455a4.16 4.16 0 0 0-.414 1.797v.001a4.25 4.25 0 1 0 4.25-4.25zM8.19 5a1.75 1.75 0 1 1 1.75 1.75A1.75 1.75 0 0 1 8.19 5M5 22.42a1.749 1.749 0 1 1 1.75-1.75A1.75 1.75 0 0 1 5 22.42M27 3.25A1.75 1.75 0 1 1 25.25 5 1.75 1.75 0 0 1 27 3.25M11.19 16v-.003a4.807 4.807 0 0 1 8.207-3.398l.001.001.001.001A4.808 4.808 0 1 1 11.19 16M27 27.75A1.75 1.75 0 1 1 28.75 26 1.75 1.75 0 0 1 27 27.75"/></svg>