<?xml version="1.0" encoding="UTF-8" standalone="no"?>
<svg
   viewBox="-10 0 532 512"
   version="1.1"
   id="svg1"
   sodipodi:docname="television.svg"
   inkscape:version="1.4.3 (0d15f75042, 2025-12-25)"
   xmlns:inkscape="http://www.inkscape.org/namespaces/inkscape"
   xmlns:sodipodi="http://sodipodi.sourceforge.net/DTD/sodipodi-0.dtd"
   xmlns="http://www.w3.org/2000/svg"
   xmlns:svg="http://www.w3.org/2000/svg">
  <defs
     id="defs1" />
  <sodipodi:namedview
     id="namedview1"
     pagecolor="#ffffff"
     bordercolor="#666666"
     borderopacity="1.0"
     inkscape:showpageshadow="2"
     inkscape:pageopacity="0.0"
     inkscape:pagecheckerboard="0"
     inkscape:deskcolor="#d1d1d1"
     inkscape:zoom="0.37765211"
     inkscape:cx="275.38572"
     inkscape:cy="295.24527"
     inkscape:window-width="1366"
     inkscape:window-height="704"
     inkscape:window-x="0"
     inkscape:window-y="0"
     inkscape:window-maximized="1"
     inkscape:current-layer="svg1" />
  <path
     fill="currentColor"
     d="M 480,115.17737 H 303 l 40.75871,-42.354738 c 7.19118,-7.472775 7.33333,-14.666667 0,-22 -8,-8 -15.66667,-8 -23,0 L 258,115.17737 H 239 L 170.18895,54.944827 c -7.33333,-8.666668 -14.66666,-8.666668 -22,0 -7.33333,7.333332 -7.9623,15.354903 0,22 L 194,115.17737 H 32 c -9.333333,0 -17,3 -23,9 -6,6 -9,13.66667 -9,23 v 288 c 0,9.33333 3,17 9,23 6,6 13.666667,9 23,9 h 448 c 9.33333,0 17,-3 23,-9 6,-6 9,-13.66667 9,-23 v -288 c 0,-9.33333 -3,-17 -9,-23 -6,-6 -13.66667,-9 -23,-9 m -128,288 H 64 v -224 h 288 z m 96,-96 h -32 v -32 h 32 z m 0,-64 h -32 v -32 h 32 z"
     id="path1"
     sodipodi:nodetypes="ccsscccccscssssssssssscccccccccccccccc" />
</svg>
