<svg xmlns="http://www.w3.org/2000/svg" width="120" height="120" viewBox="0 0 120 120">
    <path fill="#ff4b4b" stroke="#000" stroke-width="3.516" d="M17.29 53.904c-5.074-11.017-3.902-22.037.509-30.51 3.73 13.043 11.017 19.122 14.24 21.865"/>
    <path fill="#ff4b4b" stroke="#000" stroke-width="4.395" d="M108.316 25.425v75.773c-.68 4.74-2.559 5.876-4.574 6.61H75.77c-1.352-9.247-7.993-12.33-8.564-21.357H36.613c-2.625-2.262-2.059-3.626-17.798-4.579l-7.118-11.697c.23-3.73 4.676-2.668 5.594-16.27 5.579.445 10.509-3.736 14.748-8.646 9.325 1.187 15.036.57 21.865.508 5.618-10.744 15.068-14.314 23.393-14.236-1.14-9.08-3.434-11.435 5.083-19.834 6.833 4.383 8.231 7.157 9.665 14.24l9.153.507c2.372-4.79 4.747-2.832 7.118-1.02Zm0 0"/>
    <path fill="none" stroke="#000" stroke-linecap="round" stroke-width="4.395" d="M31.53 82.38c5.86-1.317 9.65-2.508 12.205-5.59"/>
    <path fill="none" stroke="#000" stroke-linecap="round" stroke-width="3.516" d="M69.668 44.243c2.203 2.485 2.375 1.535 4.578 0"/>
</svg>
