<svg xmlns="http://www.w3.org/2000/svg" width="120" height="120" viewBox="0 0 120 120">
    <path fill="none" stroke="#000" stroke-width=".059" d="M33.054 107.808V78.313"/>
    <path fill="#5aad6d" stroke="#000" stroke-linecap="round" stroke-width="4.395" d="m29.495 108.316 3.872-27.858c.3-8.302-7.856-15.432-9.232-22.542l.336-18.4c14.576-13.017 28.078-12.56 42.653-3.918 18.522 11.677 20.085 16.26 27.464 31.526 5.079 9.841 11.693 25.257 14.236 41.192H29.495"/>
    <path stroke="#000" stroke-linecap="round" stroke-linejoin="round" stroke-width="5.079" d="M38.528 45.762a2.426 2.426 0 1 1-4.852 0 2.425 2.425 0 0 1 2.426-2.421 2.425 2.425 0 0 1 2.426 2.421m0 0"/>
    <path fill="#5aad6d" stroke="#000" stroke-linecap="round" stroke-width="3.468" d="M23.417 55.96c-3.75-2.68-7.224-6.029-14.799.51-.652-9.328 3.645-16.49 14.799-16.321"/>
</svg>
