<svg xmlns="http://www.w3.org/2000/svg" width="120" height="120" viewBox="0 0 120 120">
    <path fill="#5aad6d" stroke="#000" stroke-width="4.392" d="M19.019 105.676c3.192-21.316.696-33.535 11.34-66.78L23.422 27.45l19.543 10.612 34.644-.507 20.165-10.668-6.934 11.38c7.405 27.304 8.683 46.44 11.34 67.41Zm0 0"/>
    <path fill="#5aad6d" stroke="#000" stroke-width="4.392" d="M60 55.726c2.78-4.425 5.86-6.05 10.449-6.987 6.048-.77 8.352-.23 12.949 3.987 4.465 4.767 5.118 9.778 5.187 14.892-.16 4.574-2.827 9.113-7.41 12.777-3.91 2.558-7.233 3.43-13.375 1.734-3.073-2.328-5.25-5.554-7.199-9-1.898 3.156-4.668 5.736-8.262 7.763-5.875 3.147-10.26 2.558-14.01-.888-3.524-2.992-4.134-4.085-5.857-10.367-1.16-5.793.329-13.531 5.68-17.824 4.976-3.419 6.204-3.848 12.027-3.535 4.578 1.324 8.49 4.582 9.821 7.448Zm0 0"/>
    <path fill="#5aad6d" stroke="#000" stroke-width="4.392" d="M54.601 66.527a7.202 7.202 0 0 1-14.402 0 7.202 7.202 0 0 1 14.402 0Zm26.399 0a7.2 7.2 0 1 1-14.399 0 7.2 7.2 0 1 1 14.399 0Zm-20.399 6.602c1.317 2.766 3.082 5.712 7.2 9.597l-7.2 12.603-7.203-14.403c2.402-1.95 4.801-4.172 7.203-7.797Zm0 0"/>
</svg>
