<svg xmlns="http://www.w3.org/2000/svg" width="120" height="120" viewBox="0 0 120 120">
    <path fill="#f8f8f8" stroke="#000" stroke-width="4.395" d="M58.358 87.466c-12.748 3.813-26.421 6.31-30.003 20.596H91.92c-1.137-12.81-15.615-16.005-28.476-20.596"/>
    <path fill="#f8f8f8" stroke="#000" stroke-linecap="round" stroke-linejoin="round" stroke-width="4.395" d="M89.931 63.565c0-16.568-13.435-30.003-30.003-30.003-16.572 0-30.003 13.435-30.003 30.003 0 16.572 13.431 30.004 30.003 30.004 16.568 0 30.003-13.432 30.003-30.004m0 0"/>
    <path stroke="#000" stroke-linecap="round" stroke-linejoin="round" stroke-width="4.395" d="M64.068 54.768c0-2.386-1.824-4.324-4.07-4.324s-4.066 1.938-4.066 4.324 1.82 4.32 4.066 4.32 4.07-1.933 4.07-4.32M64.137 72c0-2.387-1.824-4.32-4.07-4.32S56 69.613 56 72s1.82 4.324 4.066 4.324c2.247 0 4.07-1.937 4.07-4.324m0 0"/>
</svg>
