<svg xmlns="http://www.w3.org/2000/svg" width="120" height="120" viewBox="0 0 120 120">
    <path fill="#5984bd" stroke="#000" stroke-linejoin="round" stroke-width="4.688" d="M49.326 26.444H75.77l16.275 60.007-.508 12.204H33.054l-.508-13.224Zm0 0"/>
    <path fill="none" stroke="#000" stroke-width="4.688" d="M32.039 86.45h59.498"/>
    <path fill="#5984bd" stroke="#000" stroke-linecap="round" stroke-linejoin="round" stroke-width="3.809" d="M42.208 98.655c0-6.462-5.122-11.697-11.443-11.697-6.317 0-11.443 5.235-11.443 11.697 0 6.457 5.126 11.696 11.443 11.696 6.321 0 11.443-5.239 11.443-11.696m60.762 0c0-6.462-5.122-11.697-11.439-11.697-6.321 0-11.443 5.235-11.443 11.697 0 6.457 5.122 11.696 11.443 11.696 6.317 0 11.439-5.239 11.439-11.696m0 0"/>
    <path fill="none" stroke="#000" stroke-linecap="round" stroke-width="4.395" d="M55.416 68.707 69.257 55.04m0 13.845L55.417 55.04"/>
</svg>
