<svg xmlns="http://www.w3.org/2000/svg" width="120" height="120" viewBox="0 0 120 120">
    <path fill="#5984bd" stroke="#000" stroke-width="4.395" d="M58.358 87.466c-12.748 3.813-26.421 6.31-30.003 20.596H91.92c-1.137-12.81-15.615-16.005-28.476-20.596"/>
    <path fill="#5984bd" stroke="#000" stroke-linecap="round" stroke-linejoin="round" stroke-width="4.395" d="M89.931 63.565c0-16.568-13.435-30.003-30.003-30.003-16.572 0-30.003 13.435-30.003 30.003 0 16.572 13.431 30.004 30.003 30.004 16.568 0 30.003-13.432 30.003-30.004m0 0"/>
    <path stroke="#000" stroke-linecap="round" stroke-linejoin="round" stroke-width="4.395" d="M95.057 33.566c0-2.387-1.824-4.325-4.07-4.325s-4.068 1.938-4.068 4.325 1.82 4.32 4.067 4.32 4.071-1.933 4.071-4.32m-31.062 74.418c0-2.387-1.82-4.32-4.067-4.32s-4.07 1.933-4.07 4.32 1.824 4.325 4.07 4.325 4.067-1.938 4.067-4.325m-30.55-74.418c0-2.387-1.824-4.325-4.07-4.325s-4.068 1.938-4.068 4.325 1.82 4.32 4.067 4.32 4.071-1.933 4.071-4.32m30.55-11.853c0-2.387-1.82-4.324-4.067-4.324s-4.07 1.937-4.07 4.324 1.824 4.321 4.07 4.321 4.067-1.934 4.067-4.32m34.93 65.745c0-2.387-1.825-4.325-4.071-4.325s-4.067 1.938-4.067 4.325 1.82 4.32 4.067 4.32 4.07-1.933 4.07-4.32m-69.698 0c0-2.387-1.825-4.325-4.071-4.325s-4.067 1.938-4.067 4.325 1.82 4.32 4.067 4.32 4.07-1.933 4.07-4.32m0 0"/>
    <path stroke="#000" stroke-width=".059" d="M45.392 65.245c2.996 14.603 20.404 16.037 26.952 6.102 6.594-11.134-3.493-21.666-10.931-21.928 8.087 6.462 7.997 12.978 3.766 18.229-5.493 4.891-13.69 4.024-19.787-2.403Zm0 0"/>
</svg>
