<svg xmlns="http://www.w3.org/2000/svg" width="120" height="120" viewBox="0 0 120 120">
    <path fill="#f9f9f9" d="m60.762 106.336-32.38-.383c4.454-9.023 4.052-16.668 1.845-25.476S24.574 62.89 18.87 54.14l-3.148-.903c-2.157-.613-2.645-.242-4.149-1.746s-1.367-2.168-1.367-4.277.754-2.899 2.258-4.403 1.527-1.746 3.637-1.746c2.109 0 2.52.496 4.023 2C21.629 44.57 22 44.598 22 46.707c0 .781.39 1.906.156 2.61-.156.546-.957 1.316-1.386 2.058l14.648 10.61 6.578-31.352c-2.5-1.211-4.445-3.223-4.758-6.035-.195-1.72 1.09-2.598 2.418-4.434s1.25-1.973 3.36-2.207c2.109-.195 2.726.371 4.367 1.7 1.64 1.327 2.398 2.148 2.633 4.257.273 2.656-1.344 3.805-3.414 5.602L60.18 57.25l13.218-27.555c-2.109-1.797-3.546-3.664-3.234-6.32.234-2.11 1.352-2.75 2.992-4.078s2.078-1.356 4.188-1.16c2.11.234 3.277.91 4.586 2.746 1.308 1.836 1.168 2.715 1.011 4.433-.351 2.813-1.757 3.207-4.218 4.418l6.218 31.891 14.36-10.48c-.469-.743-2.739-1.028-2.856-1.575-.234-.703.907-1.984.907-2.765 0-2.11.933-2.657 2.437-4.16s2.59-1.54 4.7-1.54c2.109 0 2.476.395 3.98 1.899s1.898 2.41 1.898 4.52-.215 2.656-1.719 4.16c-1.503 1.504-2.515 2.32-4.625 2.32-.273 0-2.168.34-2.636.262-5.742 8.75-9.328 18.164-11.516 26.972-2.187 8.809-2.324 16.2 2.129 25.223Zm0 0"/>
    <path d="M60 103.652h28.008q-3.105-7.617-2.52-16.406-5.859-2.283-12.48-3.957Q66.387 81.623 60 81.621c-4.297 0-8.652.559-13.066 1.668q-6.621 1.674-12.422 3.957.526 8.79-2.52 16.406Zm0-26.367c4.336 0 8.703.52 13.094 1.55a103 103 0 0 1 12.922 3.958c.664-4.102 1.843-8.254 3.546-12.45q2.545-6.301 6.18-12.452l-12.89 9.082-7.207-35.215L60 64.278l-15.645-32.52-7.207 35.215-12.89-9.082a98 98 0 0 1 6.125 12.453c1.695 4.195 2.898 8.347 3.601 12.449a103 103 0 0 1 12.922-3.957c4.39-1.031 8.758-1.55 13.094-1.55m0 30.703H25.84c4.453-9.023 5.574-17.941 3.37-26.746q-3.313-13.216-11.866-26.34-.703.118-1.114.118c-2.109 0-3.918-.754-5.417-2.254q-2.26-2.26-2.258-5.422c0-2.11.75-3.914 2.258-5.422 1.5-1.5 3.308-2.254 5.417-2.254s3.918.754 5.418 2.254c1.508 1.508 2.258 3.312 2.258 5.422q0 1.172-.351 2.226-.235.82-.88 1.934l11.485 8.144 5.86-28.476q-3.75-1.817-4.22-6.035-.292-2.578 1.7-5.332t5.156-3.106q3.165-.293 5.625 1.7t2.813 5.156q.41 3.984-2.696 6.68L60 54.374l11.602-24.14q-3.165-2.696-2.696-6.68.352-3.164 2.813-5.157 2.46-1.992 5.625-1.699 3.166.352 5.125 3.106 1.966 2.754 1.73 5.332-.527 4.218-4.219 6.035l5.86 28.476 11.484-8.144q-.703-1.113-.879-1.934a7 7 0 0 1-.351-2.226c0-2.11.75-3.914 2.258-5.422q2.252-2.252 5.418-2.254c2.109 0 3.918.754 5.418 2.254 1.507 1.508 2.257 3.312 2.257 5.422s-.75 3.914-2.257 5.422c-1.5 1.5-3.31 2.254-5.418 2.254q-.41 0-1.114-.118-8.613 13.123-11.894 26.34-3.282 13.21 3.398 26.746ZM16.172 43.711q-3.633 0-3.633 3.633t3.633 3.633q3.69 0 3.691-3.633t-3.691-3.633m27.305-23.086q-3.633 0-3.633 3.633t3.633 3.633 3.632-3.633-3.632-3.633M34.57 89.004l6.973 4.219-7.852 5.039q1.114-5.04.88-9.258m69.258-45.293q-3.69 0-3.691 3.633t3.691 3.633q3.633 0 3.633-3.633t-3.633-3.633M76.523 20.625q-3.632 0-3.632 3.633t3.632 3.633 3.633-3.633-3.633-3.633m8.907 68.379-6.973 4.219 7.852 5.039q-1.173-5.04-.88-9.258m-33.575 2.754L60 86.895l8.145 5.039L60 96.855Zm0 0"/>
    <path d="M35.402 93.496c0-2.457-.64-4.45-1.43-4.45-.788 0-1.429 1.993-1.429 4.45s.64 4.45 1.43 4.45 1.43-1.993 1.43-4.45m52.882-.371c0-2.523-.867-4.566-1.937-4.566-1.067 0-1.934 2.043-1.934 4.566 0 2.52.867 4.566 1.934 4.566 1.07 0 1.937-2.046 1.937-4.566m0 0"/>
</svg>
