<svg xmlns="http://www.w3.org/2000/svg" width="120" height="120" viewBox="0 0 120 120">
    <path fill="#ff4b4b" d="m28.695 22.648 1.25 17.313 7.97 6.394-2.806 40.395-9.062 7.422-2.336 12.61h71.941l-.937-12.61-9.063-7.422-3.183-40.648 7.078-4.872 2.27-18.582H78.694l-.254 8.868H66.598v-8.868H54.164l-.508 8.868H41.56v-8.868Zm0 0"/>
    <path d="M60 87.95H37.676l.293-4.337H82.03l.293 4.336Zm0-38.731H40.547l.293-4.336h38.32l.293 4.336Zm0 58.77H22.441l1.7-15.47 9.316-6.914 2.93-38.613-8.73-6.27-.997-19.98h16.934v8.613h8.027v-8.613H68.38v8.613h8.027v-8.613H93.34l-.996 19.98-8.73 6.27 2.929 38.613 9.316 6.915 1.7 15.468Zm0-4.337h32.637l-.88-8.73-9.433-6.973-3.164-43.066 8.906-6.387.762-13.476h-8.086v8.671H64.043V25.02h-8.086v8.671h-16.7V25.02h-8.085l.762 13.476 8.906 6.387-3.164 43.066-9.434 6.973-.879 8.73Zm0 0"/>
</svg>
