<svg xmlns="http://www.w3.org/2000/svg" width="120" height="120" viewBox="0 0 120 120">
    <path fill="#f9f9f9" stroke="#000" stroke-width=".059" d="M42.288 44.77 35.64 31.283l-15.462-.72-.18 12.764 6.829.18.543 10.79-7.013 1.617-.359 10.966 7.009 1.258.183 12.048-7.192.18-.18 12.224 15.28-.719 6.832-12.763Zm35.184-.087 6.653-13.485 15.462-.72.18 12.768-6.833.18-.539 10.786 7.013 1.617.36 10.966-7.013 1.262-.18 12.044 7.192.18.18 12.224-15.283-.719-6.833-12.763Zm0 0"/>
    <path d="m75.668 44.004 7.387-14.774 19.308-.996v16.934H94.04v8.027h8.324v16.758H94.04v8.027h8.324v16.934l-19.308-.996-7.211-14.32c.058-27.38-.082-20.446-.176-35.594m9.539 45.637 13.023.761v-8.086h-8.382V65.617h8.382v-8.086h-8.382V40.832h8.382v-8.086l-13.023.762L80 44.844c-.125 2.426.035 3.922 0 6.222-.035 2.297 0 12.38 0 12.38V78.18ZM44.41 44.004 37.027 29.23l-19.312-.996v16.934h8.324v8.027h-8.324v16.758h8.324v8.027h-8.324v16.934l19.312-.996 7.207-14.32c-.058-27.38.082-20.446.176-35.594M34.875 89.64l-13.027.761v-8.086h8.382V65.617h-8.382v-8.086h8.382V40.832h-8.382v-8.086l13.027.762 5.203 11.336c.125 2.426-.035 3.922 0 6.222.035 2.297 0 12.38 0 12.38V78.18Zm0 0"/>
    <path fill="#f9f9f9" stroke="#000" stroke-linecap="round" stroke-linejoin="round" stroke-width="3.714" d="M78.171 42.699v37.926H42.175V42.699Zm0 0"/>
    <path fill="none" stroke="#000" stroke-linecap="round" stroke-width="4.395" d="m60.204 52.22-.062 18.88m-9.376-9.438H69.58"/>
</svg>
