<svg xmlns="http://www.w3.org/2000/svg" width="120" height="120" viewBox="0 0 120 120">
    <path fill="#f9f9f9" d="M58.637 18.36v-5.028l3.086-.18.18 5.387 5.613.54v2.87l-5.614-.18-.18 11.122c-1.785-.625-1.554-.625-3.265 0l.36-11.301-6.333.36.36-3.41ZM50.047 61c-1.156-1.406.098-18.734-.61-19.477 3.461-5.468 7.282-10 10.743-10 3.422 0 7.422 6.329 11.64 10.72-.746.741-2.812 16.968-3.93 18.374-5.874-9.433-13.199-6.176-17.843.383m10.133 46.988H28.03l3.403-21.386Q13.298 70.195 13.238 55.254c-.035-6.211 2.649-11.031 7.336-15.543 4.692-4.512 8.938-5.512 14.184-5.512 2.902 0 5.851 1.098 8.847 2.934 2.997 1.836 6.008 2.183 8.313 4.996 9.355 14.785 7.191 12.922 16.523 0 2.27-2.813 5.989-3.7 9.004-5.535 3.012-1.836 6.332-2.395 9.235-2.395 5.207 0 8.36 1.54 13.047 6.051 4.691 4.512 7.394 8.793 7.394 15.004q-.112 14.94-18.195 31.348l3.402 21.386Zm0 0"/>
    <path d="M57.246 17.46v-5.565h5.508v5.566h6.27v5.566h-6.27v8.965q-2.812-.937-5.508 0v-8.965h-6.27v-5.566ZM60 35.86q-2.754 0-7.969 7.09-1.815-2.11-2.93-3.223 5.45-8.204 10.899-8.204 5.391 0 10.898 8.204-1.17 1.113-2.93 3.222-5.273-7.09-7.968-7.09M33.809 89.003l-1.524 9.14 8.496-4.921Zm24.023-12.07q-.06-8.616-2.137-16.082c-1.39-4.985-2.96-8.762-4.718-11.34-1.758-3.438-4.329-6.426-7.704-8.965q-5.071-3.81-9.875-3.809-6.035 0-12.187 5.45-6.152 5.448-6.152 13.417.002 6.387 5.066 13.829 5.073 7.44 11.867 13.066a72.6 72.6 0 0 1 25.84-5.566M60 107.988H26.25l3.574-21.386Q10.781 70.195 10.723 55.254q-.06-9.318 7.324-16.082c4.922-4.516 10.137-6.77 15.644-6.77q4.572 0 9.286 2.754a32.7 32.7 0 0 1 8.351 6.973c2.383 2.89 4.305 6.105 5.774 9.637 1.46 3.539 2.43 6.476 2.898 8.82.469-2.344 1.426-5.281 2.871-8.82a36.4 36.4 0 0 1 5.8-9.637 31.7 31.7 0 0 1 8.321-6.973q4.746-2.754 9.317-2.754 8.203-.002 15.586 6.77 7.382 6.764 7.382 16.082-.117 14.94-19.101 31.348l3.574 21.386Zm0-4.336h28.652l-2.93-17.46Q73.068 81.27 60 81.27q-13.065 0-25.723 4.921l-2.93 17.461Zm26.191-14.648 1.524 9.14-8.496-4.921Zm-24.023-12.07a72.6 72.6 0 0 1 25.84 5.566q6.738-5.625 11.836-13.066t5.097-13.829c0-5.312-2.058-9.785-6.183-13.417-4.117-3.633-8.172-5.45-12.156-5.45q-4.866 0-9.93 3.809-5.073 3.808-7.649 8.965c-1.796 2.578-3.39 6.355-4.773 11.34-1.39 4.976-2.082 10.34-2.082 16.082M51.855 90.586l8.262-4.922 8.028 5.04-8.262 4.921Zm0 0"/>
</svg>
