<svg xmlns="http://www.w3.org/2000/svg" width="120" height="120" viewBox="0 0 120 120">
    <path fill="#5984bd" stroke="#000" stroke-width=".059" d="M43.235 79.321 29.75 85.974l-.719 15.463 12.767.18.18-6.833 10.786-.54 1.618 7.013 10.97.36 1.258-7.013 12.044-.18.18 7.192 12.227.18-.718-15.283-12.767-6.833Zm-.086-35.18-13.482-6.653-.719-15.462 12.763-.18.18 6.833 10.786.539 1.622-7.013 10.966-.359 1.258 7.013 12.048.18.18-7.193 12.224-.18-.72 15.283-12.766 6.833Zm0 0"/>
    <path d="M42.473 45.941 27.695 38.56 26.7 19.246h16.934v8.324h8.027v-8.324h16.758v8.324h8.027v-8.324H93.38l-.996 19.313-14.317 7.207c-27.379-.055-20.445.082-35.593.175m45.632-9.535.762-13.023h-8.086v8.379h-16.7v-8.38h-8.086v8.38h-16.7v-8.38h-8.085l.762 13.024 11.336 5.207c2.43.121 3.925-.035 6.222 0 2.301.035 12.38 0 12.38 0h14.737ZM42.473 77.203l-14.778 7.383-.996 19.312h16.934v-8.324h8.027v8.324h16.758v-8.324h8.027v8.324H93.38l-.996-19.312-14.317-7.207c-27.379.055-20.445-.082-35.593-.176m45.632 9.535.762 13.028h-8.086v-8.383h-16.7v8.383h-8.086v-8.383h-16.7v8.383h-8.085l.762-13.028 11.336-5.207c2.43-.12 3.925.04 6.222 0 2.301-.035 12.38 0 12.38 0h14.737Zm0 0"/>
    <path fill="#5984bd" stroke="#000" stroke-linecap="round" stroke-linejoin="round" stroke-width="3.714" d="M41.165 43.442H79.09v35.992H41.165Zm0 0"/>
    <path fill="none" stroke="#000" stroke-linecap="round" stroke-width="4.395" d="m50.689 61.405 18.88.066m-9.441 9.376V52.03"/>
</svg>
