<svg xmlns="http://www.w3.org/2000/svg" width="120" height="120" viewBox="0 0 120 120">
    <path fill="#ff4b4b" d="M60 90.18q0 6.426-5.695 11.195-5.697 4.765-12.578 4.766H13.809c0-4.403 1.222-5.305 3.668-7.637 2.441-2.332 5.113-3.027 8.007-3.027h14.098q2.878-.001 4.965-.395c1.39-.262 5.496-5.187 6.773-7.18 3.707.246-8.734-.347-12.441-.574 2.52-4.363 2.973-9.207 3.16-13.457-4.285-4.473-7.871-7.598-9.676-11.527-1.804-3.926-1.918-8.13-.336-12.602q1.859-5.419 6.653-10.691c3.199-3.512 9.062-8.149 17.597-13.899 1.52-.414.653-2.172-.437-3.109-1.09-.941-2.535-1.887-2.535-3.918 0-2.18.414-3.625 1.953-5.055C56.8 11.64 57.78 11.105 60 11.105q3.27 0 5.613 2.145c1.559 1.43 1.262 1.797 1.262 3.977 0 2.03-.914 2.796-2.023 3.734-1.11.941-2.325 3.059-2.926 3.469 8.496 5.754 16.14 11.11 19.336 14.62q4.793 5.273 6.71 10.692 2.374 6.711-.335 12.602c-1.805 3.93-5.39 7.234-9.676 11.707.148 4.25.965 9.273 3.52 13.636l-18.153.18c15.43-2.512 16.246 29.895 3.27 0h3.386c-.074-.152.293 1.945.746 2.7 1.239 1.992 3.274 4.253 4.668 4.515q2.086.394 5.02.395h14.098c2.859 0 5.52.695 7.98 3.027 2.465 2.332 3.695 3.234 3.695 7.637H78.273q-6.939-.001-12.605-4.766Q60.001 96.606 60 90.18m0 0"/>
    <path d="M60 20.86q3.867 0 3.75-3.868.06-3.222-3.75-3.222-3.867 0-3.75 3.222-.175 3.867 3.75 3.867m0 70.546q0 6.678-5.918 11.633c-3.945 3.297-8.3 4.95-13.066 4.95H12.012q0-6.856 3.808-10.489 3.81-3.633 8.32-3.633h14.65q2.987 0 5.155-.41t4.16-3.516q.705-1.17.586-.937h4.454q-.411 1.23-.176.762c-1.758 4.101-3.887 6.53-6.387 7.296q-3.75 1.139-8.555 1.141H23.965q-3.046 0-5.04 2.344-1.99 2.344-1.991 3.105h24.843c2.578 0 5.676-1.27 9.285-3.808 3.618-2.54 5.442-6.153 5.481-10.84h-19.98q3.925-6.797 4.218-13.418c-4.453-4.648-7.617-9.016-9.492-13.094-1.875-4.086-1.992-8.449-.352-13.097q1.934-5.623 6.915-11.106c3.32-3.648 9.414-8.465 18.28-14.441q-.995-.645-2.694-2.11-1.7-1.465-1.7-4.629 0-3.398 2.403-5.625Q56.542 9.258 60 9.258q3.4 0 5.828 2.226 2.436 2.227 2.434 5.625.001 3.165-1.73 4.63-1.726 1.464-2.665 2.109Q77.11 32.814 82.09 38.289q4.98 5.483 6.972 11.106 2.462 6.97-.351 13.097c-1.875 4.078-5.04 8.446-9.492 13.094q.234 6.621 4.219 13.418H63.457q0 7.03 5.45 10.84 5.448 3.808 9.316 3.808h24.843q-.001-.761-2.02-3.105-2.024-2.344-5.01-2.344H81.972c-3.243 0-6.106-.383-8.582-1.14-2.485-.766-4.602-3.196-6.36-7.297q.234.468-.176-.762h4.454q-.118-.234.586.937 1.934 3.106 4.101 3.516 2.168.41 5.215.41h14.648q4.456 0 8.29 3.633 3.841 3.633 3.84 10.488H78.983q-7.208-.002-13.093-4.949-5.892-4.956-5.89-11.633m0-6.68h16.582q-1.64-4.92-1.7-9.023-7.03-2.402-14.882-2.226-7.91-.176-14.883 2.226-.117 4.101-1.699 9.024Zm0-15.644q9.315-.059 16.7 2.461 11.073-10.548 8.32-20.273Q81.504 39.96 60 26.016 38.438 39.96 34.98 51.27q-2.812 9.726 8.32 20.273 7.326-2.52 16.7-2.461M57.246 47.93v-6.094h5.508v6.094h5.566v5.215h-5.566v9.667h-5.508v-9.667H51.68V47.93Zm0 0"/>
</svg>
