<svg xmlns="http://www.w3.org/2000/svg" width="120" height="120" viewBox="0 0 120 120">
    <path fill="#f9f9f9" stroke="#000" stroke-linecap="round" stroke-linejoin="round" stroke-width="4.395" d="m55.889 33.539-.461 83.294h8.696V33.082Zm0 0"/>
    <path fill="#f9f9f9" stroke="#000" stroke-linecap="round" stroke-linejoin="round" stroke-width="4.395" d="m54.97 33.539-5.031-6.407L60.006 4.704l9.154 22.885-5.493 6.407Zm0 0"/>
    <path fill="#f9f9f9" stroke="#000" stroke-linecap="square" stroke-linejoin="round" stroke-width="62.648" d="M1483.947 702.894c.061 206.146-200.071 373.25-446.93 373.25-246.858 0-446.99-167.104-446.93-373.25-.06-206.096 200.072-373.2 446.93-373.2 246.859 0 446.991 167.104 446.93 373.2Zm0 0" transform="matrix(.06437 0 0 .07644 -6.754 20.372)"/>
    <path fill="none" stroke="#000" stroke-linecap="round" stroke-linejoin="round" stroke-width="4.394" d="M68.69 75.124c0 4.547-3.894 8.234-8.694 8.234s-8.695-3.687-8.695-8.234c0-4.55 3.895-8.237 8.695-8.237s8.695 3.687 8.695 8.237m0 0"/>
</svg>
