<svg xmlns="http://www.w3.org/2000/svg" width="120" height="120" viewBox="0 0 120 120">
    <path fill="#5984bd" d="m60.719 106.191-35.043-.539.8-12.054 9.317-6.914 3.36-39.395-9.34-7.824-.637-16.567h12.082l.539 8.254 11.8-.359.18-7.715 12.805-.18.36 7.715 11.44.18.72-7.895 12.261-.18-.996 16.747-8.191 6.09 2.75 41.488 9.316 7.633 1.52 11.695Zm0 0"/>
    <path d="M60 87.95H37.676l.293-4.337H82.03l.293 4.336Zm0-38.731H40.547l.293-4.336h38.32l.293 4.336Zm0 58.77H22.441l1.7-15.47 9.316-6.914 2.93-38.613-8.73-6.27-.997-19.98h16.934v8.613h8.027v-8.613H68.38v8.613h8.027v-8.613H93.34l-.996 19.98-8.73 6.27 2.929 38.613 9.316 6.915 1.7 15.468Zm0-4.337h32.637l-.88-8.73-9.433-6.973-3.164-43.066 8.906-6.387.762-13.476h-8.086v8.671H64.043V25.02h-8.086v8.671h-16.7V25.02h-8.085l.762 13.476 8.906 6.387-3.164 43.066-9.434 6.973-.879 8.73Zm0 0"/>
    <path fill="none" stroke="#000" stroke-width="4.395" d="m39.157 47.294 42.715 38.649m-43.223 0 42.207-38.649"/>
</svg>
