<svg xmlns="http://www.w3.org/2000/svg" width="120" height="120" viewBox="0 0 120 120">
    <path fill="#5984bd" d="M60.18 87.992c0 4.453-3.77 10.485-7.715 13.785s-6.684 4.168-11.45 4.235l-26.308.36c0-4.571-.348-4.294 2.191-6.716 2.54-2.422 4.594-3.77 7.602-3.812l13.21-.18c1.993-.027 4.071.043 5.517-.23 1.445-.274 4.988-1.985 6.316-4.055.469-.781-.773-2.531-.852-2.375 0 0-4.21-2.149-9.074-1.797 2.617-4.531 2.586-8.105 2.781-12.52-4.453-4.648-7.257-8.835-9.132-12.917-1.875-4.083-1.934-7.727-.293-12.375 1.289-3.75 4.101-6.688 7.422-10.34S51.133 29.875 60 23.898c-.664-.43-4.172-2.62-5.305-3.597s-.62-1.801-.62-3.91c0-2.266 1.16-2.703 2.76-4.188 1.602-1.484 1.58-1.148 3.884-1.148 2.265 0 2.05.383 3.672 1.867 1.62 1.484 2.254 1.922 2.254 4.187 0 2.11-.399 2.934-1.551 3.91-1.153.977-4.469 2.45-5.094 2.88 8.828 5.976 17.332 12.539 20.652 16.19 3.32 3.653 5.106 6.454 6.434 10.204 1.64 4.648 1.344 7.395-.531 11.477s-4.5 7.37-8.953 12.02c.156 4.413-.235 8.706 2.421 13.237l-16.566 1.977c-1.25-4.156 1.918-2.567 5.227-3.18 3.968.84 2.629-3.344 1.355 1.781-.078-.156.129 3.352.598 4.133 1.289 2.07 2.117 2.344 3.562 2.617 1.446.274 4.442 1.696 6.473 1.668l13.39-.18c2.97-.038 4.833-.226 7.391 2.196 2.559 2.422 4.2 3.402 4.2 7.973l-25.231.18c-4.805.035-8.809-1.833-12.734-5.133-3.926-3.301-7.508-8.614-7.508-13.067m0 0"/>
    <path d="M60 20.86q3.867 0 3.75-3.868.06-3.222-3.75-3.222-3.867 0-3.75 3.222-.175 3.867 3.75 3.867m0 70.546q0 6.68-5.918 11.633c-3.945 3.297-8.3 4.95-13.066 4.95H12.012q0-6.856 3.808-10.489 3.81-3.633 8.32-3.633h14.65q2.987 0 5.155-.41t4.16-3.516q.705-1.17.586-.937h4.454q-.411 1.23-.176.762c-1.758 4.101-3.887 6.53-6.387 7.296q-3.75 1.139-8.555 1.141H23.965q-3.046 0-5.04 2.344-1.99 2.344-1.991 3.105h24.843q3.866 0 9.285-3.808c3.618-2.54 5.442-6.153 5.481-10.84h-19.98q3.925-6.797 4.218-13.418-6.68-6.971-9.492-13.094c-1.875-4.086-1.992-8.449-.352-13.097q1.934-5.626 6.915-11.106c3.32-3.648 9.414-8.465 18.28-14.441q-.995-.645-2.694-2.11-1.7-1.465-1.7-4.629 0-3.398 2.403-5.625Q56.542 9.258 60 9.258q3.398 0 5.828 2.226 2.436 2.227 2.434 5.625.001 3.165-1.73 4.63-1.728 1.464-2.665 2.109Q77.11 32.814 82.09 38.289q4.98 5.48 6.972 11.106 2.462 6.97-.351 13.097-2.813 6.123-9.492 13.094.234 6.621 4.219 13.418H63.457q0 7.03 5.45 10.84 5.448 3.808 9.316 3.808h24.843q-.001-.761-2.02-3.105-2.024-2.344-5.01-2.344H81.972c-3.243 0-6.106-.383-8.582-1.14q-3.722-1.147-6.36-7.297.234.468-.176-.762h4.454q-.118-.234.586.937 1.934 3.106 4.101 3.516 2.168.41 5.215.41h14.648c2.97 0 5.73 1.211 8.29 3.633q3.841 3.633 3.84 10.488H78.983q-7.208-.002-13.093-4.949-5.892-4.952-5.89-11.633m0-6.68h16.582q-1.64-4.92-1.7-9.023-7.03-2.402-14.882-2.226-7.91-.176-14.883 2.226-.117 4.101-1.699 9.024Zm0-15.644q9.315-.059 16.7 2.461 11.073-10.548 8.32-20.273Q81.504 39.96 60 26.016 38.438 39.96 34.98 51.27q-2.812 9.726 8.32 20.273 7.326-2.52 16.7-2.461m0 0"/>
    <path fill="none" stroke="#000" stroke-width="4.395" d="M60.006 23.901v46.274M31.531 54.412c55.935 0 55.576-.238 55.576-.238"/>
</svg>
