<svg xmlns="http://www.w3.org/2000/svg" width="120" height="120" viewBox="0 0 120 120">
    <path stroke="#000" stroke-linecap="round" stroke-linejoin="round" stroke-width="2.94" d="M20.729 58.037c0-.546-.328-.988-.735-.988-.402 0-.73.442-.73.988 0 .543.328.985.73.985.407 0 .735-.442.735-.985m0 0"/>
    <path fill="#5aad6d" stroke="#000" stroke-linecap="round" stroke-width="4.395" d="M32.348 69.011c3.559.32 9.204 3.829 9.552 7.532.293 8.161-6.462 12.88-13.767 13.146 1.934 2.579 2.2 6.083 7.395 6.188 4.961.102 16.138-4.363 19.174-7.192.406 3.372.46 9.048 1.973 12.33 1.125 2.434 2.754 5.086 7.81 7.063 7.59 1.809 11.997 2.004 15.278 1.59-1.348-8.208-1.64-12.56-.543-17.553 2.372 5.192 5.134 9.783 7.145 11.74 1.208 1.578 6.2 3.29 9.029 3.965-3.786-8.544-4.56-15.087-4.239-20.483 1.856 3.427 3.012 4.38 6.536 7.368 3.164 2.434 9.52 5.106 13.665 5.403-3.668-5.926-4.645-7.56-6.254-11.282-.801-2.051-1.993-5.891-2.653-9.189-.394-1.965-.449-4.676-.469-8.012 2.997 2.371 4.25 2.922 10.212 5.684-1.789-6.583-3.078-10.735-4.54-15.662-1.738-4.54-4.953-13.43-5.984-15.529-1.23-2.508-4.618-8.993-6.72-11.798-2.64-3.52-7.149-8.434-13.759-11.736-3.457-1.691-7.442-2.402-12.583-2.472-5.145-.075-11.35 1.367-14.935 2.402-4.755 1.473-17.795 7.481-17.373 12.642.285 4.75-18.073 13.521-24.948 21.006-1.333 2.31.277 7.403 1.887 8.9 2.543 12.024 4.89 8.454 6.828 12.896 2.364-5.99 5.103-8.552 12.412-8.947"/>
    <path fill="#5aad6d" stroke="#000" stroke-linecap="round" stroke-width="3.516" d="M77.138 109.809c-4.231-3.528-7.872-6.732-9.325-9.662-.809-2.125-1.262-5.106-1.196-7.825.082-3.418.68-7.606 1.067-10.512 1.512-7.47 1.777-11.85 2.105-15.81.504-7.04-1.586-18.112-4.113-22.245-3.618-7.09-11.798-9.013-26.8-10.236m35.426 10.439c2.629 1.039 4.934 2.281 7.528 2.457 2.477.164 5.973-.3 8.184-.46-.156-3.642-2.164-6.67-5.793-7.853-.996-.532-2.461-1.079-4.36-1.297-1.801-.203-4.051-.91-5.532-.84"/>
    <path fill="#f9f9f9" stroke="#000" stroke-linecap="round" stroke-width="3.516" d="M36.548 46.544c-1.583 4.13 3.711 2.274 3.711 2.274"/>
    <path stroke="#000" stroke-linecap="square" stroke-width="3.909" d="M38.59 47.556c0-.676-.59-1.223-1.313-1.223s-1.312.547-1.312 1.223.59 1.223 1.312 1.223 1.313-.547 1.313-1.223Zm0 0"/>
    <path fill="none" stroke="#000" stroke-width="3.516" d="m11.396 57.623 8.239 1.5c2.696-.019-3.282 4.395-6.4 5.939"/>
</svg>
