<svg xmlns="http://www.w3.org/2000/svg" width="120" height="120" viewBox="0 0 120 120">
    <path fill="#5aad6d" stroke="#000" stroke-linecap="round" stroke-width="4.395" d="m105.328 107.988.058-62.73c-23.932-7.45-23.205-12.243-34.07-15.763-17.365-4.524-21.596 5.724-35.09 1.524L17.92 37.12c-3.586 4.044-3.25 10.994-1.664 19.701 9.508 5.372.777 10.826.101 24.042.664 3.622 3.31 7.821 9.392 9.388 4.332.582 14.076-5.759 28.03-7.161 18.217 6.747 20.795 10.58 21.83 24.944l29.719-.047"/>
    <path fill="#5aad6d" stroke="#000" stroke-linecap="round" stroke-width="4.395" d="M58.092 59.499c3.868 13.528.074 19.1-8.973 23.783m11.516-33.445c8.056 1.399 9.462-.273 12.205-1.527-1.16-3.77-.739-8.485-11.755-12.38-6.06 5.465-19.354 6.606-28.925 4.242-9.286-5.16-13.228-8.798-14.748-20.85C30.695 32.164 38.414 31 47.806 31.36"/>
    <path fill="#f9f9f9" stroke="#000" stroke-linecap="round" stroke-width="4.395" d="M34.703 58.479c2.145-.149 6.036-1.043 7.22-1.399 2.992-.902-.645-1.992 1.421-2.16"/>
</svg>
