<svg xmlns="http://www.w3.org/2000/svg" width="120" height="px" viewBox="0 0 120 120">
    <path fill="#f9f9f9" stroke="#000" stroke-linejoin="round" stroke-width="4.395" d="M50.345 105.773s36.485 1.332 48.31 0c4.047-.453 8.583-4.57 8.646-8.645.476-32.508.507-56.956.507-56.956-3.86-7.32-9.34-6.766-19.834-16.779-1.844-1.281-7.743-5.555-13.22-5.594-11.294.957-17.217 4.047-25.428 5.594-9.208 4.165-11.95 7.352-15.256 13.22-5.489 7.005-7.387 9.95-10.169 18.815-1.004 4.578-3.48 10.173-.508 14.747 1.25 10.744 7.54 17.885 8.138 24.413-.657 8.282-3.262 11.685-6.614 13.22l3.559 3.051c3.488-1.406 8.516-3.273 10.68-8.645 2.286-4.833 3.114-11.126 0-21.358l3.727-19.385c1.81 10.209 3.278 20.772 6.189 25.741.87 7.841-1.114 13.428 1.273 18.561Zm0 0"/>
    <path fill="none" stroke="#000" stroke-linecap="round" stroke-width="3.516" d="M60.006 68.144c1.27 3.75 4.157 6.29 10.681 6.102 8.677-.312 17.006-4.703 17.795-7.122 6.778-8.551 17.666-6.543 18.31-17.798"/>
    <path fill="#f9f9f9" stroke="#000" stroke-linecap="round" stroke-width="3.516" d="M45.677 62.608C36.855 74.766 25.104 75.531 9.66 75.77c14.26 8.56 38.223 2.04 41.192-5.083"/>
    <path fill="none" stroke="#000" stroke-linecap="round" stroke-width="4.395" d="M50.853 40.172c-5.04.36-3.215-.805-3.215-.805"/>
    <path d="M51.238 38.871c0-1.918-1.472-3.469-3.285-3.469-1.812 0-3.281 1.551-3.281 3.47 0 1.913 1.469 3.468 3.281 3.468s3.285-1.555 3.285-3.469M47.605 61.59c0-1.93-1.636-3.496-3.652-3.496-2.02 0-3.656 1.566-3.656 3.496s1.637 3.496 3.656 3.496c2.016 0 3.652-1.566 3.652-3.496m0 0"/>
    <path fill="none" stroke="#000" stroke-linecap="round" stroke-width="4.395" d="m78.243 87.416 18.728.03m-9.259 9.287-.152-18.186"/>
</svg>
