<svg xmlns="http://www.w3.org/2000/svg" width="120" height="120" viewBox="0 0 120 120">
    <path fill="#ff4b4b" stroke="#000" stroke-width="4.395" d="M58.358 87.466c-12.748 3.813-26.421 6.31-30.003 20.596H91.92c-1.137-12.81-15.615-16.005-28.476-20.596"/>
    <path fill="#ff4b4b" stroke="#000" stroke-linecap="round" stroke-linejoin="round" stroke-width="4.395" d="M89.931 63.565c0-16.568-13.435-30.003-30.003-30.003-16.572 0-30.003 13.435-30.003 30.003 0 16.572 13.431 30.004 30.003 30.004 16.568 0 30.003-13.432 30.003-30.004m0 0"/>
    <path stroke="#000" stroke-linecap="round" stroke-linejoin="round" stroke-width="4.395" d="M95.057 33.566c0-2.387-1.824-4.325-4.07-4.325s-4.068 1.938-4.068 4.325 1.82 4.32 4.067 4.32 4.071-1.933 4.071-4.32m11.263 30c0-2.388-1.824-4.321-4.07-4.321s-4.068 1.933-4.068 4.32 1.82 4.325 4.067 4.325 4.07-1.938 4.07-4.325m-84.649 0c0-2.387-1.82-4.32-4.067-4.32s-4.066 1.933-4.066 4.32 1.82 4.325 4.066 4.325 4.067-1.938 4.067-4.325m11.775-29.999c0-2.387-1.824-4.325-4.07-4.325s-4.068 1.938-4.068 4.325 1.82 4.32 4.067 4.32 4.071-1.933 4.071-4.32m30.55-11.853c0-2.387-1.82-4.324-4.067-4.324s-4.07 1.937-4.07 4.324 1.824 4.321 4.07 4.321 4.067-1.934 4.067-4.32m0 86.29c0-2.387-1.82-4.325-4.067-4.325s-4.07 1.938-4.07 4.325 1.824 4.32 4.07 4.32 4.067-1.933 4.067-4.32m0-44.439c0-2.387-1.82-4.32-4.067-4.32s-4.07 1.933-4.07 4.32 1.824 4.325 4.07 4.325 4.067-1.938 4.067-4.325m0 0"/>
</svg>
