<svg xmlns="http://www.w3.org/2000/svg" width="120" height="120" viewBox="0 0 120 120">
    <path fill="#f9f9f9" stroke="#000" stroke-width="4.395" d="M58.358 87.466c-12.748 3.813-26.421 6.31-30.003 20.596H91.92c-1.137-12.81-15.615-16.005-28.476-20.596"/>
    <path fill="#f9f9f9" stroke="#000" stroke-linecap="round" stroke-linejoin="round" stroke-width="4.395" d="M89.931 63.565c0-16.568-13.435-30.003-30.003-30.003-16.572 0-30.003 13.435-30.003 30.003 0 16.572 13.431 30.004 30.003 30.004 16.568 0 30.003-13.432 30.003-30.004m0 0"/>
    <path stroke="#000" stroke-linecap="round" stroke-linejoin="round" stroke-width="4.395" d="M95.057 33.566c0-2.387-1.824-4.325-4.07-4.325s-4.068 1.938-4.068 4.325 1.82 4.32 4.067 4.32 4.071-1.933 4.071-4.32m3.868 53.908c0-2.387-1.825-4.32-4.071-4.32s-4.067 1.933-4.067 4.32 1.82 4.325 4.067 4.325 4.07-1.938 4.07-4.325m-69.698 0c0-2.387-1.825-4.32-4.071-4.32s-4.067 1.933-4.067 4.32 1.82 4.325 4.067 4.325 4.07-1.938 4.07-4.325m4.22-53.908c0-2.387-1.824-4.325-4.07-4.325s-4.068 1.938-4.068 4.325 1.82 4.32 4.067 4.32 4.071-1.933 4.071-4.32m30.55-11.853c0-2.387-1.82-4.324-4.067-4.324s-4.07 1.937-4.07 4.324 1.824 4.321 4.07 4.321 4.067-1.934 4.067-4.32m0 0"/>
    <path fill="none" stroke="#000" stroke-linecap="round" stroke-linejoin="round" stroke-width="4.395" d="M70.465 35.71c8.344 8.564 13.446 24.933 4.07 38.65-8.419 11.481-22.307 16.325-35.597 10.68"/>
</svg>
