<svg xmlns="http://www.w3.org/2000/svg" width="120" height="120" viewBox="0 0 120 120">
    <path d="M59.898 65.918h3.5v2.52h-3.5Zm0 0"/>
    <path fill="#ff4b4b" d="M42.293 38.95c.234-1.524 5.797-5.532 10.074-8.208s7.059-4.332 11.395-7.262l4.449-5.718 5.246 9.41c13.36 6.719 20.145 14.988 23.656 24.035 3.735 9.617 4.215 13.39 3.703 28.543-4.261 5.508-4.613 8.652-10.851 14.418-6.5 5.887-7.106 7.102-16.34 9.203-12.555-.344-12.172-4.836-17.418-11.691-3.14-4.114-1.668-2.727-7.582-10.23 4.066-3.169 5.293-4.173 6.738-6.321 1.446-2.149 3.832-5.52 4.535-6.692-9.218-1.64-19.41-.917-21.597 3.067l-3.281 4.195-6.997-4.676 4.579-4.039-5.278-5.218-4.734 2.367-.828-11.555 24.472-17.316c20.883-5.09-7.082 23.832-3.941 3.687m0 0"/>
    <path d="M60.234 65.977a12.3 12.3 0 0 1 3.164 2.46c.82-.585 1.536-.851 2.141-.789a7.7 7.7 0 0 0 1.961-.09q4.569-.645 7.531-4.98 2.958-4.335 3.074-9.668l-1.113-3.926Q73.77 62.988 65.977 64.043q-1.23.174-2.637.324-1.407.146-3.106 1.61M45.117 39.668l-2.695-3.516c.234-1.523 2.492-3.62 6.766-6.3a433 433 0 0 0 12.921-8.407l6.739-9.023 5.625 12.715c13.359 6.718 22.34 14.691 25.34 24.465 3.085 10.039 3.835 15.3 2.785 30.273-3.453 8.207-5.426 10.105-10.743 15.805-5.058 5.71-9.894 8.52-18.23 9.722-12.555-.34-14.035-5.004-19.281-11.859-3.14-4.113-2.473-3.512-8.387-12.094 4.063-3.168 5.8-5.062 7.246-7.21q2.168-3.225 3.223-4.981-13.828-2.46-17.11 3.515l-3.28 5.977-12.716-7.09 6.739-4.805-2.989-2.93-7.148 5.04-.703-17.403 23.203-15.41q.703 1.055 1.348 1.817.644.762 1.347 1.699L23.672 53.789l.234 7.324 3.75-2.402 8.086 8.437-4.57 3.809 2.754 1.64 8.613-6.913q3.164-1.055 9.668-1.582t11.191 4.335c-2.187 2.461-4.082 4.7-5.449 7.415-1.367 2.71-1.949 3.128-5.633 6.324 6.715 9.926 10.313 17.726 20.27 18.816 5.047-.414 10.742-3.816 15.332-8.383 4.594-4.566 7.809-9.27 10.059-13.535.73-4.617.742-7.789.078-11.742-.864-5.098-1.09-8.586-3.543-13.894a58.3 58.3 0 0 0-7.852-13.711q-4.864-6.33-15.351-11.016l-3.457-7.793-2.872 4.043q-5.801 3.633-12.187 7.676t-7.676 7.031m17.11 1.758-12.422-.117 6.797-5.86q1.757-1.462 4.687 2.254 2.93 3.721.938 3.723M30.82 52.852l2.168 1.816-2.695 3.223-3.34-1.524 1.934-3.281Zm0 0"/>
    <path fill="none" stroke="#000" stroke-width="4.395" d="M97.295 52.294 56.103 92.466m44.677-28.881L62.13 100.71"/>
    <path d="M45.613 37.754c0-1.145-.82-2.07-1.832-2.07-1.008 0-1.828.925-1.828 2.07s.82 2.074 1.828 2.074c1.012 0 1.832-.93 1.832-2.074M63.887 67.29c0-.83-1.082-1.497-2.414-1.497-1.336 0-2.418.668-2.418 1.496 0 .824 1.082 1.492 2.418 1.492 1.332 0 2.414-.668 2.414-1.492m0 0"/>
</svg>
