<svg xmlns="http://www.w3.org/2000/svg" width="120" height="120" viewBox="0 0 120 136">
    <path fill="red" stroke="red" stroke-width=".004" d="M-79-42.239h-1.455v3.76l-.012.313-.039.263-.072.218-.112.178-.156.142-.05.027-.156.084-.242.083-.282.058-.165.02-.142.017-.017.002-.02.002-.346.02-.409.01-.27.003h-.182l-.035-.201-.051-.219-.062-.229-.073-.227-.079-.215-.08-.19-.003-.005.308.013.258.007h.05l.29.005h.255l.093-.002h.111l.136-.008.086-.003h.003l.065-.013.052-.023.035-.037.02-.053.007-.07v-3.73h-3.14v-1.209h5.88v1.21m-.267-2.944h-5.168v-1.209h5.168v1.21m-6.4-.804-.348.384-.114.126-.417.419-.079.08-.517.475-.523.437-.398.297-.02.014-.048.036-.024.02-.014.008-.011.009-.09-.156-.11-.182-.122-.193-.13-.191-.126-.174-.094-.116-.024-.028.448-.311.032-.025.42-.337.439-.395.41-.41.36-.41.295-.392.036.016.42.175.761.317-.412.507m-.12 3.14-.21.267V-37h-1.264v-4.176l-.149.144-.076.072-.071.067-.146.134-.145.13-.143.125-.129.11-.008.008-.006.003v.001l-.11-.152-.138-.189-.156-.207-.023-.03-.14-.178-.1-.123-.056-.068-.042-.046-.065-.07-.035-.039.547-.415.545-.483.526-.534.079-.092.412-.48.44-.596.376-.605.057.022.002.001.018.006 1.14.441-.166.275-.177.276-.187.275-.196.275-.203.272m6.787-6.62-.016.313-.052.262-.09.216-.138.177-.186.142-.239.112-.292.082-.338.058-.387.038-.438.022-.491.01-.253.002h-.293l-.05-.188-.076-.21-.091-.219-.102-.216-.106-.202-.05-.085-.05-.084-.004-.008.415.018.407.01h.01l.391.004h.623l.185-.002.109-.008.086-.021.064-.034.043-.05.025-.07.008-.092v-.839h-5.822l-.173.437-.221.424-.21.315-.061.091-.326.383-.384.355-.29.21-.069.05-.035.026-.027.02-.013.01-.011.007-.117-.138-.157-.16-.18-.17-.188-.162-.181-.141-.16-.107.344-.274.372-.297.5-.632.325-.67.186-.689.083-.686.02-.66v-1.58l-.098.08-.1.075-.102.075-.103.074-.02.014-.084.058-.048.034-.028.02-.019.012-.011.008-.124-.156-.156-.17-.176-.175-.183-.164-.18-.142-.162-.109.679-.464.023-.016.622-.516.543-.539.368-.436.096-.114.301-.427.021-.03.065-.092.31-.534 1.485.237-.037.065-.038.066-.078.132-.04.064-.042.062h2.307l.22-.046.04.024.088.052.819.48-.038.061-.098.151-.147.216-.157.221-.164.223-.17.223-.133.167-.04.052H-79v6.084m-6.903-2.115-.027.169h2.098v-1.008h-2.005l-.01.165-.01.168-.011.168-.015.169-.02.17m10.95 3.58-.047-.291-1.382-8.48v-.032h-.007L-79-58.587l-5-3.416-5 3.416-2.61 1.784h-.008v.031L-93-48.292l-2.003 12.294h22.006L-73.16-37l-1.791-11M-97-34l3.8-22.803L-93-58l7.52-5.014L-84-64l7.225 4.817L-75-58l.2 1.197L-71-34h-26m11.25-21.677-.12.127h2.4l.092-.122.095-.129.094-.134.092-.137.088-.136.083-.136H-85.2l-.105.135-.108.134-.11.134-.112.133-.116.13m3.236 2.197h2.14v-.962h-2.14v.962m2.14 2.069v-1.008h-2.14v1.008h2.14m-5.454-3.031v.962h1.997v-.962Zm0 0" transform="matrix(4.29492 0 0 4.26451 420.902 277.193)"/>
    <path fill="#f9f9f9" d="M13.094 122.91c.058-.347 3.324-20.25 7.261-44.234 3.934-23.985 7.184-43.633 7.22-43.668.292-.27 32.394-21.969 32.523-21.98.218-.024 32.562 21.91 32.644 22.136.09.262 14.434 87.8 14.434 88.106 0 .246-3.953.27-47.094.27H12.988Zm38.465-15.242V95.824l1.5-1.992c1.55-2.059 3.402-4.867 3.402-5.152 0-.16-4.793-2.075-5.18-2.07-.105 0-.558.59-1.004 1.304-2.48 3.98-6.476 8.316-10.43 11.32l-1.316 1 .52.618c.285.335 1.136 1.425 1.894 2.418.758.996 1.426 1.804 1.48 1.804s.88-.722 1.829-1.605l1.726-1.61v17.653h5.579Zm19.289 11.273c2.343-.445 3.437-1.117 4.066-2.5l.398-.875.047-9.191.051-9.187h6.242v-5.372H56.293v5.371h13.535l-.047 8.047c-.039 6.356-.094 8.094-.27 8.27-.167.164-1.077.215-3.761.21-1.945 0-3.54.009-3.54.02s.298.918.661 2.016c.363 1.102.715 2.367.781 2.82l.125.825 2.895-.106c1.59-.055 3.469-.21 4.176-.348M43.242 90.266c2.031-1.493 4.098-3.305 6.555-5.743 2.445-2.425 4.976-5.261 4.973-5.57 0-.125-4.977-2.254-5.258-2.246-.055 0-.528.555-1.051 1.23-1.371 1.778-5.309 5.528-7.492 7.137l-1.887 1.39.93 1.294c.515.707 1.129 1.629 1.367 2.043.48.836.719 1.176.828 1.176.04 0 .504-.32 1.035-.711m37.227-8.352v-2.687H58.152v5.37H80.47ZM44.074 71.766c2.778-2.008 5.168-5.137 6.387-8.36l.3-.797h24.813l-.094 4.282-.59.21c-.449.165-1.66.192-5.03.118l-4.438-.102.758 1.48c.418.817.945 2.008 1.168 2.657.5 1.426.172 1.351 4.984 1.101 5.836-.3 7.621-.894 8.742-2.906l.492-.883.047-14.136.047-14.14-6.277-.044-6.274-.047.676-.84c.93-1.16 3.246-4.457 3.246-4.62 0-.075-.879-.641-1.953-1.262l-1.953-1.125-5.426.03-5.422.032.461-.777c.254-.43.434-.801.403-.825-.032-.027-1.391-.253-3.016-.503-1.629-.25-3.082-.493-3.234-.532-.2-.054-.438.203-.825.891-2.367 4.195-6.144 8.21-10.785 11.457-.957.672-1.718 1.238-1.691 1.262.027.023.508.398 1.066.832.559.437 1.52 1.328 2.137 1.988l1.125 1.195 1.203-.875c.664-.48 1.254-.87 1.313-.87.168 0-.079 9.327-.286 10.827-.656 4.703-2.617 8.25-6.093 11l-1.559 1.235.566.43c1.133.851 2.829 2.347 3.22 2.84.222.277.484.507.581.515.098.004.64-.328 1.211-.738m0 0"/>
    <path fill="#f9f9f9" d="M52.016 57.531c.039-.207.12-1.133.187-2.054l.117-1.68 4.184-.047 4.184-.043v4.203h-8.743Zm14.589-1.718v-2.098h8.961v4.195h-8.96Zm0-8.731v-1.93h8.961v3.86h-8.96Zm-14.199 0v-1.93h8.282v3.86h-8.282Zm.199-7.098c.125-.164.743-.922 1.38-1.68l1.156-1.378h4.726c3.738 0 4.703.047 4.606.21a71 71 0 0 1-1.125 1.68l-1.004 1.47h-4.98c-4.755 0-4.97-.016-4.759-.302m0 0"/>
</svg>
