<svg xmlns="http://www.w3.org/2000/svg" width="120" height="120" viewBox="0 0 120 136">
    <path fill="red" stroke="red" stroke-width=".004" d="m-24.154-12.645.003.001 1.143.389.008.003-.008.015-.208.397-.231.404-.244.395-.257.386-.268.375-.276.364h1.484v1.11h-2.46l-.133.14-.135.136-.137.133-.14.13-.083.075-.059.053-.145.127h2.746V-3h-1.254v-.401h-2.215V-3h-1.192v-3.593l-.138.084-.136.083-.136.08-.047.028-.09.052-.14.077-.088.045-.056.029-.02-.029-.056-.08-.092-.126-.105-.14-.113-.147-.116-.147-.09-.11-.024-.03-.02.683-.007.097-.037.56-.073.615-.108.55-.104.323-.046.144-.197.366-.079.105-.092.092-.102.08-.113.063-.08.033-.042.016-.13.035-.197.043-.206.03-.215.016-.223.006h-.233l-.057-.004-.08-.002-.055-.002-.033-.001-.017-.001-.012-.21-.03-.211-.044-.21-.062-.205-.072-.183-.007-.017-.068-.134-.025-.051-.003-.005.225.016.205.01.185.005.163-.001h.009l.133-.005.12-.01.065-.014.06-.02.053-.026.049-.034.042-.04.037-.05.097-.198.077-.304.021-.146.038-.248.042-.47.016-.306.01-.223.013-.468v-.057l.002-.034v-.014l-.219.271-.223.262-.227.25-.013.013-.217.221-.232.216-.196.164-.016.014-.012.01-.007.006-.086-.168-.107-.186-.122-.194-.056-.083-.074-.109-.012-.017-.08-.11-.038-.051-.125-.154.163-.117.203-.147.366-.32.356-.368.334-.404.177-.25.126-.179.26-.443-.029-.196-.033-.193-.002-.014-.035-.178-.042-.19-.046-.189-.032-.118-.006-.021-.007-.022-.003-.017-.004-.011-.182.195-.185.183-.186.174-.185.164-.035.03-.147.125-.175.143-.005.004-.09-.18-.052-.092-.057-.105-.12-.205-.13-.201-.034-.048-.099-.14-.126-.155-.007-.008.21-.143.022-.015.005-.004.19-.141.216-.174.219-.186.217-.196.213-.205-.132-.203-.145-.201-.155-.199-.168-.198-.179-.197-.142-.148-.048-.049.885-.663.168.159.158.16.149.161.14.163.056.069.075.094.123.165.113-.142.089-.117.02-.026.103-.14.097-.143.089-.14.081-.14.933.589.021.013-.13.211-.083.128-.057.088-.15.218-.16.221-.164.22-.123.155-.048.062.231.597.037.135.09.324.041.148.115.615.07.626.02.335.017.302.01.649v.024l.431-.22.425-.238.133-.083.284-.176.115-.078.266-.18.025-.017.394-.29.211-.171.17-.136h-2.262v-1.11h2.092v-.91h-1.569v-1.11h1.569v-1.056h1.223v1.056h1.34v.463l.12-.194.117-.194.001-.002.112-.193.108-.196.103-.197.1-.196m.795-10.02v1.16h-2.422l.383.35.422.324.4.259.057.037.101.055.383.208.508.225.282.098.23.081.014.005-.148.143-.096.105-.06.065-.154.187-.145.194-.127.189-.1.176-.274-.106-.265-.119-.207-.103-.052-.026-.252-.141-.247-.151-.242-.16v.552h-2.07v1.167h-1.205v-1.167h-2.178v-.445l-.216.14-.224.138-.23.134-.238.129-.246.124-.122.056-.056.026-.036.017-.026.012-.015.007-.085-.168-.114-.183-.134-.185-.145-.177-.059-.063-.089-.095-.143-.127.232-.104.322-.145.512-.272.39-.24.082-.052.433-.31.309-.255.086-.07.361-.34h-2.438v-1.16h3.359l.079-.137.046-.08.116-.22.107-.221.097-.222.087-.226.077-.228.07.012 1.263.203-.074.19-.08.191-.082.188-.088.186-.094.184-.024.043-.076.138h4.57m.114 5.142v1.175H-25.4v2.333h-1.272v-2.333h-2.902l-.136.435-.206.426-.291.41-.39.39-.124.089-.381.272-.602.31-.021.01-.012.006-.102-.15-.132-.167-.015-.017-.137-.154-.052-.053-.109-.112-.053-.048-.106-.097-.017-.014-.088-.068-.042-.033.445-.208.371-.222.305-.236.244-.247.19-.257.144-.265h-1.942v-1.175h2.163v-1.097h1.211v1.097h2.787v-1.112h1.272v1.112h2.155m-4.196-3.561v.937h1.41l-.221-.204-.127-.129-.084-.084-.162-.179-.039-.043-.191-.23-.05-.068-.131-.173-.17-.249h-1.46l-.007.008-.185.231-.199.235-.208.228-.22.224-.104.1-.124.12-.242.213h1.31v-.937h1.204M-18.952-14l-.048-.291-1.382-8.48v-.032h-.007L-23-24.587l-5-3.416-5 3.416-2.61 1.784h-.008v.031L-37-14.292l-2.003 12.294h22.006L-17.16-3l-1.791-11M-41 0l3.8-22.803L-37-24l7.52-5.014L-28-30l7.225 4.817L-19-24l.2 1.197L-15 0h-26m15.366-10.362.124-.152.12-.155.113-.157h-.877v.91h.123l.137-.147.132-.149.024-.028.104-.122m.826 4.139v-.755h-2.215v.755h2.215m-2.215 1.797h2.215v-.795h-2.215Zm0 0" transform="matrix(4.29492 0 0 4.26451 180.387 132.2)"/>
    <path fill="#f9f9f9" d="M13.094 122.91c.058-.347 3.324-20.25 7.261-44.234 3.934-23.985 7.184-43.633 7.22-43.668.292-.27 32.394-21.969 32.523-21.98.218-.024 32.562 21.91 32.644 22.136.09.262 14.434 87.8 14.434 88.106 0 .246-3.953.27-47.094.27H12.988Zm51.312-4.238v-.84h9.301v1.68h5.578V98.027h-5.789l-5.793-.004 1.727-1.675 1.726-1.68h10.496v-4.867H78.61c-1.675 0-3.043-.031-3.043-.07 0-.036.606-.907 1.344-1.934 2.34-3.246 4.922-7.637 4.637-7.887-.16-.137-4.563-1.691-4.797-1.691-.074 0-.613.863-1.195 1.914-.586 1.05-1.2 2.09-1.368 2.308l-.304.395-.008-1.594H68.13v-4.535h-5.41v4.535h-6.762v4.867h6.762v3.692h-8.961v4.863l4.773.043 4.774.047-1.602 1.195c-2.14 1.594-4.605 3.18-6.726 4.324-.957.52-1.774.942-1.817.942s-.078-.594-.078-1.317c0-4.59-.863-9.785-2.191-13.207l-.48-1.246 1.077-1.422c1.188-1.562 2.778-3.925 2.778-4.128 0-.075-.926-.715-2.059-1.43-1.758-1.106-2.082-1.258-2.238-1.04-.102.145-.672.954-1.274 1.802L47.61 80.77l-.347-.477c-.594-.82-3.004-3.441-3.25-3.535-.13-.047-1.106.566-2.196 1.375l-1.96 1.465.921.945c1.047 1.082 2.035 2.281 2.785 3.383l.516.758L42.598 86a49 49 0 0 1-2.727 2.242c-.684.504-1.226.985-1.203 1.067.023.078.336.535.7 1.007.362.477 1.023 1.516 1.468 2.317.445.797.832 1.476.86 1.515.074.094 1.757-1.347 3.382-2.886l1.379-1.309.262 1.14c.144.63.347 1.673.457 2.325l.195 1.184-.738 1.226c-1.617 2.692-4.79 6.168-6.938 7.613-.445.301-.78.621-.746.715s.496.774 1.031 1.512c.536.734 1.168 1.734 1.41 2.223.239.484.512.855.606.828.48-.16 3.606-3.274 5.344-5.32l.355-.422-.093 2.53c-.196 5.223-.782 7.645-1.973 8.134-.367.152-1.254.214-2.797.195-1.242-.016-2.262.008-2.262.05 0 .04.153.364.336.716.43.812 1.02 3.09 1.02 3.93v.644h1.926c3.246 0 5.293-.555 6.261-1.696 1.633-1.93 2.426-5.156 2.864-11.636l.191-2.84 1.227 1.625 1.23 1.625.523-.266c.29-.148 1.086-.601 1.77-1.004l1.25-.73v15.258h5.238ZM45.52 71.902c1.453-.722 3.683-2.293 4.539-3.195 1.406-1.48 2.52-3.39 3.183-5.469l.203-.629h12.317v9.903h5.578v-9.903h9.297v-5.203H71.34v-4.699h-5.578v4.7H53.926v-4.7h-5.41v4.7h-9.297v5.202h8.304l-.378.676c-.965 1.695-3.446 3.746-5.786 4.774-.527.23-.957.46-.957.511s.485.543 1.078 1.094c.594.55 1.403 1.418 1.797 1.926.395.508.785.922.871.922.082 0 .7-.274 1.372-.61m17.027-18.355v-2.52h8.96v-1.09c0-.601.036-1.093.079-1.093s.559.308 1.14.687c1.301.84 4.317 2.305 4.977 2.418.442.078.543-.011 1.23-1.082.41-.64 1.2-1.664 1.75-2.273.555-.61.981-1.133.946-1.164-.035-.032-.633-.258-1.332-.504-3.152-1.121-6.965-3.328-9.262-5.364l-1.062-.94h10.156v-5.204H70.41c-5.347 0-9.722-.027-9.722-.063 0-.035.187-.394.41-.796.597-1.07 1.66-3.692 1.543-3.805-.086-.086-5.743-1.05-5.766-.984-.395 1.14-1.426 3.511-1.906 4.386l-.645 1.176-7.297.043-7.3.047v5.2h10.347l-.89.796c-2.559 2.289-4.891 3.852-8.23 5.504l-2.407 1.195.531.488c.66.618 2.45 2.977 2.594 3.426.058.188.219.34.351.34.332 0 2.528-1.105 4.297-2.164l1.438-.86.101 1.68h9.45v5.035h5.238Zm0 0"/>
    <path fill="#f9f9f9" d="M53.629 44.691c.832-.808 2.008-2.054 2.613-2.77l1.094-1.3h6.148l.95 1.3c.523.716 1.574 1.962 2.336 2.77l1.386 1.47h-5.61v-4.028H57.31v4.027h-5.2Zm14.5 43.262V86.11h1.687c.93 0 1.692.055 1.692.125-.004.266-2.906 3.567-3.137 3.567-.2 0-.242-.356-.242-1.848m-3.723 16.116v-1.511h9.301v3.02h-9.3Zm0 7.551v-1.676h9.301v3.356h-9.3Zm0 0"/>
</svg>
