<svg xmlns="http://www.w3.org/2000/svg" width="120" height="120" viewBox="0 0 120 136">
    <path stroke="red" stroke-width=".004" d="M-79.317 55.018h-4.076v.524h3.251v4.292h-3.251v.577H-79v1.148h-4.393V63h-1.341v-1.44H-89v-1.15h4.266v-.577h-3.172v-4.292h3.172v-.524h-4.004V53.87h4.004V53h1.34v.87h4.077v1.147m-1.54-10.147.113.05.799.342-.234.855-.286.79-.333.729-.38.67-.425.613-.194.232-.123.148-.15.18.15.096.286.18.468.253.498.226.527.2.27.083.286.089.418.104.056.014.04.009.03.007.024.007.017.004-.152.165-.16.2-.16.222-.153.231-.136.224-.11.202-.003.004-.634-.186-.597-.214-.56-.242-.255-.131-.272-.141-.494-.299-.432-.306-.032-.023-.457.32-.361.22-.12.074-.504.267-.525.243-.546.22-.353.124-.015.005-.084.03-.05.017-.03.01-.021.008-.012.004-.09-.2-.111-.22-.13-.227-.138-.22-.14-.202-.118-.145-.02-.026.51-.147.449-.158.044-.016.476-.2.457-.226.439-.253.419-.28-.266-.328-.106-.13-.345-.493-.319-.527-.292-.56-.152-.338-.114-.254-.241-.625h-.417l-.062.973-.117 1.013-.17.941-.014.077-.267.99-.363.926-.466.82-.006.011-.145-.133-.02-.017-.16-.128-.202-.149-.172-.117-.035-.024-.197-.125-.013-.008-.158-.091.51-.913.353-1.008.023-.111.201-.947.124-1.065.053-1.027.012-.948V42h8.29v1.33h-6.975v1.59h5.3l.251-.05m5.906 7.13-.048-.291-1.382-8.48v-.032h-.007L-79 41.413l-5-3.416-5 3.416-2.61 1.784h-.008v.031L-93 51.708l-2.003 12.294h22.006L-73.16 63l-1.791-11M-97 66l3.8-22.803L-93 42l7.52-5.014L-84 36l7.225 4.817L-75 42l.2 1.197L-71 66h-26m15.323-19.775h-2.96l.195.44.217.42.01.019.228.384.26.383.28.362.305.341.3-.34.28-.36.26-.383.225-.387.008-.014.15-.301.06-.121.182-.443m.21 10.327h-1.926v.654h1.927v-.654m-4.55 0h-.637v.654h1.919v-.654h-1.282m4.55 2.265v-.655h-1.927v.655h1.927m-3.268 0v-.655h-1.919v.655Zm0 0" transform="matrix(4.29492 0 0 4.26451 420.902 -149.258)"/>
    <path fill="#f9f9f9" d="M13.094 122.91c.058-.347 3.324-20.25 7.261-44.234 3.934-23.985 7.184-43.633 7.22-43.668.292-.27 32.394-21.969 32.523-21.98.218-.024 32.562 21.91 32.644 22.136.094.262 14.434 87.797 14.434 88.106 0 .246-3.864.27-47.094.27H12.988Zm49.793-6.504v-3.105h18.765v-5.035H62.887v-2.352H76.75v-18.46H62.887v-2.016h17.41v-5.036h-17.41v-3.695h-5.918v3.695H39.727v5.035h17.242v2.016H43.277v18.461H56.97v2.352H38.543v5.035h18.426v6.21h5.918ZM44.55 70.582c2.746-4.812 4.605-12.363 5.086-20.613l.113-1.98.84.05.836.05.715 1.763c1.574 3.89 3.382 7.125 5.652 10.117l1.371 1.808-1.223.79c-2.527 1.624-6.117 3.23-9.34 4.171-.558.164-1.074.348-1.148.407-.07.062.309.753.848 1.539.535.785 1.238 1.968 1.558 2.629.32.66.684 1.199.805 1.199s1.078-.309 2.121-.688c2.695-.972 6.996-3.097 9.137-4.508 1.004-.664 1.879-1.18 1.945-1.152.067.031.88.555 1.809 1.168 3.148 2.07 7.164 3.867 11.058 4.941 1.258.348.942.579 2.528-1.859.543-.832 1.3-1.887 1.683-2.344.387-.457.645-.879.578-.937-.07-.059-.812-.278-1.648-.488-3.344-.844-7.8-2.7-10.316-4.297-1.059-.672-1.079-.48.191-2.004 2.484-2.989 4.746-7.016 6.242-11.11.528-1.441 1.602-5.066 1.602-5.402 0-.082-.899-.535-1.992-1-1.801-.77-2.059-.836-2.665-.695-.37.086-5.675.156-11.867.156l-11.199.008v-6.715h29.922V29.71H44.121l-.004 6.168c-.004 7.789-.246 15.078-.597 18-.633 5.297-1.938 9.719-3.887 13.176-.61 1.082-1.086 1.984-1.059 2.004 1.844 1.187 3.59 2.398 4.11 2.847.375.317.73.528.793.469.066-.062.546-.871 1.074-1.793m0 0"/>
    <path fill="#f9f9f9" d="M62.434 56.11c-1.59-1.965-3.043-4.239-4.055-6.36-.402-.844-.734-1.578-.734-1.637s2.777-.105 6.167-.105h6.165l-.594 1.3c-1.34 2.926-2.899 5.364-4.906 7.669l-.696.796ZM48.855 93.328v-1.344h8.114v2.684h-8.114Zm14.032 0v-1.344H71v2.684h-8.113Zm0 6.879v-1.34H71v2.684h-8.113Zm-14.032 0v-1.34h8.114v2.684h-8.114Zm0 0"/>
</svg>
