<svg xmlns="http://www.w3.org/2000/svg" width="120" height="120" viewBox="0 0 120 136">
    <path stroke="red" stroke-width=".004" d="M23-37v-1.403h4.277v-3.065h-3.236v-1.41h3.236v-2.702h-3.752V-47h8.91v1.42H28.66v2.701h3.346v1.41H28.66v3.066H33V-37H23m4.285-18.87-.26.574-.125.272h1.046v1.042H23v-1.042h.992l-.034-.147-.04-.147-.044-.148-.046-.145-.046-.14-.044-.133.838-.197.07-.016h-1.477v-1.043h1.777l-.03-.1-.03-.101-.027-.083-.006-.018-.034-.098-.033-.096-.032-.09L25.892-58l.06.137.06.143.055.147.052.147.027.082.02.064.042.14h1.6v1.043h-1.562l.378.083.661.145m-2.28.51.017.063.03.113.033.159h.738l.059-.177.03-.095.03-.088.059-.185.054-.184.047-.178.036-.166h-1.384l.07.177.065.187.062.189.055.186m3.363 1.262h2.769v-.586h-2.769v-3.242h1.254v.708h3.154v1.012h-3.154v.594h2.739v2.45h-2.74v.419h2.747v.723h-2.746v.44h2.692v.717h-2.692v.433h2.8v.731l.1.037.103.034.1.031.042.012.055.016.092.024.085.021-.061.37-.018.103-.128.362-.025.035-.003.004-.16.222-.26.172-.341.095-.435.03h-1.615l-.537-.028-.411-.094-.297-.173-.037-.05-.018-.025-.136-.185-.006-.009-.065-.226-.044-.153-.005-.066v-.014l-.029-.423v-4.521m-.8.556v4.23l-.006.158-.002.084-.03.207-.052.176-.083.148-.117.124-.156.101-.179.082-.2.058-.12.02-.103.018-.244.022-.265.01-.134.001-.054.001h-.101l-.037-.179-.054-.192-.068-.196-.075-.191-.08-.179-.076-.154-.002-.004.17.01.099.003.07.003.159.002h.146l.104-.004.075-.006.055-.003.043-.01.033-.017.022-.027.012-.037.004-.051v-.86l-.028.016-.233.131-.258.143-.204.111-.051.028-.25.137-.245.133-.24.13-.238-.66-.013-.034-.026-.074-.014-.038-.043.388-.063.386-.053.243-.03.133-.108.362-.133.34-.098.191-.03.059-.016.031-.008.017-.006.012-.004.007-.118-.098-.153-.114-.172-.118-.177-.113-.167-.096-.077-.037L23-48.61l.21-.434.033-.11.111-.361.092-.49.051-.496.022-.483.004-.457v-2.1h4.046m-2.304 1.312.01.004.217.086.108.045.123.05.223.099.204.096.173.088v-.875h-1.746v.891l.407-.48.07-.083.211.079m-.688.811-.001.156-.002.164-.004.171-.006.175-.008.18-.01.181h.002l.028-.01.219-.073.273-.096.295-.107.31-.115.32-.121.128-.049.202-.076v-.692l-.422.53-.07.086-.165-.087-.066-.034-.128-.065-.216-.106-.228-.107-.23-.105-.22-.097h-.001v.297M37.047-48 37-48.291l-1.382-8.48v-.032h-.007L33-58.587l-5-3.416-5 3.416-2.61 1.784h-.008v.031L19-48.292l-2.003 12.294h22.006L38.84-37l-1.791-11M15-34l3.8-22.803L19-58l7.52-5.014L28-64l7.225 4.817L37-58l.2 1.197L41-34H15m15.123-15.126h1.339l.133-.01.043-.016.061-.02.078-.068.058-.106.042-.15.031-.2h-2.285v.121l.008.168.028.12.055.082.091.049.023.004.111.019Zm0 0" transform="matrix(4.29492 0 0 4.26451 -60.129 277.193)"/>
    <path fill="#f9f9f9" d="M13.094 122.91c.058-.347 3.324-20.25 7.261-44.234 3.934-23.985 7.184-43.633 7.22-43.668.292-.27 32.394-21.969 32.523-21.98.218-.024 32.562 21.91 32.644 22.136.094.262 14.434 87.797 14.434 88.106 0 .246-3.864.27-47.094.27H12.988Zm68.558-6.504v-3.105H63.055v-12.926h14.37v-6.21h-14.37V82.917h16.23v-6.211H40.742v6.211H56.97v11.246H43.11v6.211h13.86V113.3H38.543v6.21h43.11ZM43.391 71.223c.683-1.465 1.492-4.461 1.699-6.293l.14-1.23.57 1.562c.329.894.65 1.527.759 1.484.101-.043 1.554-.824 3.226-1.742l3.043-1.664.05 1.605c.075 2.528.231 2.364-2.233 2.364H48.55l.57 1.3c.316.715.703 1.813.867 2.434l.293 1.133 1.106-.004c2.59-.008 4.648-.524 5.726-1.438 1.215-1.035 1.207-.96 1.207-12.101v-9.79H40.742v6.423c-.004 3.625-.082 7.078-.187 7.93-.25 2.023-.887 4.41-1.504 5.628-.281.547-.508 1.031-.508 1.078s.363.27.805.493c.441.226 1.336.789 1.984 1.253.652.465 1.246.848 1.32.856.078.004.41-.57.739-1.281m34.238.601c1.137-.234 2.156-.812 2.719-1.547.566-.734 1.105-2.336 1.168-3.46l.05-.891-2.28-.68v-3.14H67.112v-1.68h11.664v-3.188H67.113v-1.847h11.832v-3.188H67.113v-1.68h11.832V39.95H67.113v-2.351h13.692v-4.532H67.113v-3.02h-5.41v14.099h11.832v2.351H61.703v10.64c0 10.11.016 10.696.332 11.708.535 1.71 1.45 2.48 3.45 2.914 1.328.289 10.82.34 12.144.066m-17.617-27.09v-2.27h-2.196c-1.21 0-2.199-.03-2.199-.07 0-.039.344-.804.762-1.699.418-.894.762-1.68.762-1.742s-.707-.262-1.567-.441l-1.562-.325 2.664-.046 2.66-.047v-4.692H55.87c-2.98 0-3.465-.035-3.465-.254 0-.503-1.238-3.453-1.422-3.386-.101.039-1.23.312-2.507.61-1.282.3-2.325.6-2.325.667 0 .07.149.566.336 1.106.188.535.34 1.039.34 1.117s-1.715.14-3.805.14H39.22v4.7l5.156.03-1.266.333c-.695.183-1.293.36-1.324.39-.031.032.18.782.465 1.668.285.887.52 1.688.52 1.778 0 .101-.836.164-2.114.164h-2.113V47h21.469Zm0 0"/>
    <path fill="#f9f9f9" d="M47.438 41.383a25 25 0 0 0-.676-2.18l-.399-1.101h5.688l-.258.882a70 70 0 0 1-.68 2.18l-.425 1.3h-2.973Zm-1.961 13.211-.004-1.719h7.441v1.695c0 1.293-.05 1.676-.21 1.602-1.388-.61-5.087-2.125-5.192-2.125-.117 0-.696.633-1.739 1.91-.28.344-.293.293-.296-1.363m-.004 4.91c0-1.7.062-2.602.18-2.602.097 0 1.32.543 2.714 1.207 1.543.73 2.586 1.141 2.656 1.036.258-.383 1.774-2.243 1.829-2.243.035 0 .062.567.062 1.258v1.254l-.617.258c-.809.336-6.613 2.433-6.73 2.433-.051 0-.094-1.171-.094-2.601m22.539 7.956c-.563-.163-.633-.288-.817-1.452l-.113-.715h9.711l-.11.68c-.136.84-.39 1.257-.906 1.492-.488.222-6.992.219-7.765-.004m0 0"/>
</svg>
