<svg xmlns="http://www.w3.org/2000/svg" width="120" height="120" viewBox="0 0 120 136">
    <path fill="red" stroke="red" stroke-width=".004" d="m32.935 56.372-.096.325-.071.123-.063.108-.178.15-.228.078-.286.024H31.2l-.383-.023-.094-.024h-.003l-.187-.05-.198-.131-.124-.198-.05-.204-.015-.067-.006-.107-.003-.056-.01-.189v-.26l-.164.312-.093.137-.102.149-.23.262-.273.236-.317.214-.276.144-.038.019-.054.028-.013-.028-.013-.028-.03-.061-.034-.063-.039-.066-.043-.068-.049-.069v.001l-.003.005-.194.349-.032.058h3.33v2.205h-5.69v.276h7.096v.605H25.77v.298h6.638v.018l-.001.048-.001.066-.003.074-.003.052v.02l-.008.06-.033.316-.013.13-.052.364-.061.291-.072.226-.085.17-.102.125-.098.076-.11.06-.022.009-.099.037-.125.032-.094.013-.035.005-.127.006-.134.009-.162.006-.185.001h-.063l-.139-.003-.215-.008-.145-.008-.027-.002-.023-.001h-.012l-.01-.002h-.006l-.008-.07-.015-.08-.022-.083-.027-.087-.033-.087-.037-.083-.305.068-.31.069-.009.001-.035-.149-.01-.036-.039-.132-.06-.177-.069-.18-.076-.175-.082-.162.69-.123.21-.038.076.145.075.154.073.158.067.156.057.148.047.135.071.007.066.004.053.003h.005l.052.001.045.001h.04l.054-.002.033-.003.015-.002.042-.011.039-.016.038-.025.04-.033.04-.06.038-.09.035-.123.032-.159.03-.2.024-.2.005-.041H24.5v-3.997h2.367l.023-.058.005-.011.08-.21.026-.068.024-.066-.11-.104-.061-.053-.065-.056-.137-.11-.028-.02-.113-.082-.138-.094-.13-.078.38-.229.205-.123h-.789v1.186h-.916V56.04h-1.057l.51.157.287.088-.165.199-.122.137-.06.066-.19.2-.194.194-.19.18-.093.083-.065.058-.018.016-.089-.074-.012-.01-.123-.092-.136-.095-.137-.092-.131-.083-.041-.024-.03-.017-.02-.012-.015-.01-.008-.004.174-.13.174-.14.169-.146.16-.15.15-.151.136-.148h-.419v-1.463h4.05v1.463h-.561l.136.08.14.09.133.096.018.014.108.081.056.047.057.047.094.088-.151.098-.3.193.3.025.68.06-.06-.08-.04-.047-.023-.028-.063-.072-.063-.066-.062-.06-.015-.013-.045-.04.368-.192.057-.041.247-.177.043-.043.203-.203.196-.277.152-.312.004-.012.02-.06.09-.276h-1.183v-.842h1.326l.014-.164.011-.17.008-.175.008-.181.007-.18v-.005l.007-.189h1.026l-.004.186v.008l-.007.175-.008.18-.002.03-.007.146-.013.172-.014.167h.86l-.1-.102-.108-.105-.114-.105-.116-.1-.115-.095-.093-.07-.017-.013.017-.011.419-.269.29-.187.168.111.106.076.063.046.164.13.152.13.135.125.112.117-.45.322h.845v.842h-2.313l-.012.046-.01.048-.013.047-.012.046-.012.045-.012.044h.805v.88l.003.098.012.068.022.038.003.005.04.024.06.01.081.002h.513l.078-.01.05-.031.01-.007.045-.08.032-.135.023-.203.01-.201.002-.025.001-.026.001-.019v-.013l.114.068.138.066.153.062.16.054.072.02.085.026.147.033-.065.432m-8.128-3.127 1.09-.245.052.095.055.102.026.051.027.053.051.107.044.107.037.105h1.878v.674H23.08v-.674h1.902l-.028-.065-.027-.064-.03-.064-.028-.063-.03-.06-.03-.056-.001-.003m3.892 9.318-.027.006-.981.191-.011.002-.024-.157-.008-.036-.01-.048-.022-.092-.05-.188-.06-.193-.066-.191-.067-.182h.005l.27-.046.687-.115.08.168.074.18.066.185.058.182.048.175.011.046.027.113m-1.832.069-.243.035-.794.115-.025.004-.021.003-.013.002-.01.001v-.163l-.011-.185-.02-.198-.027-.203-.034-.198-.041-.186h.01l.986-.13.062-.008.048.181.043.192.035.197.028.193.018.183.009.165m-2.242-.235-.05.05-.146.152-.203.188-.208.166-.831-.431-.06-.03-.05-.027-.032-.016-.03-.016-.015-.008.216-.16.217-.183.21-.198.198-.203.177-.2.15-.19.332.168.076.039.58.291-.166.196-.177.205-.188.207M32.87 45.97l-.101.229-.049.11-.19.245-.229.151-.267.062-.304-.023-.667-.188-.087-.024-.255-.172-.329-.222-.44-.55-.25-.532-.067-.141-.19-.664-.032-.108-.149-.841h-5.507V42.12h6.521l.009.15.01.149.013.146.028.29.015.143.25.08.118-.119.048-.05.168-.18.165-.19.158-.188.146-.182.128-.169 1.058.542.001.001-.054.045-.135.11-.188.157-.185.153v.001l-.184.15-.045.038-.133.11-.12.095-.024.02-.018.015-.008.007-.003.002.23.1.22.1.209.098.194.099.176.097.15.092.008.005-.495.685-.1.139-.013.019-.015.02-.005.007-.181-.112-.216-.122-.242-.128-.262-.133-.276-.135-.157-.076-.125-.06.125.334.02.053.175.34.136.188.073.1.247.224.288.151.335.07.057-.018.052-.071.047-.117.042-.16.035-.18.004-.02.003-.017.002-.018.003-.02.003-.015.003-.02v-.007l.02-.125v-.01l.106.135.101.118.016.019.122.134.126.124.032.028.092.081.117.088-.108.44m-1.223.886.483.248.591.303-.189.14-.188.133-.185.131-.183.125-.179.119-.113.073-.014.008-.022.015-.012.007-.008.006-.004.002.218.105.21.106.203.106.188.103.172.1.152.095-.278.371-.336.45-.006.009-.014.018-.01.013-.007.01-.181-.127-.212-.132-.238-.137-.193-.104-.064-.034-.271-.14-.236-.12-.042-.021.042.192.027.123.045.206.15.46.191.384.236.3.288.2.345.092.06-.025.054-.093.047-.155.042-.208.02-.137.017-.118.03-.268.002-.02v-.006l.11.146.12.149.102.117.022.026.127.132.013.012.11.102.122.09-.11.52-.122.323-.029.077-.19.288-.234.179-.275.075-.318-.024-.793-.263-.209-.18-.382-.327-.42-.715-.285-.886-.079-.453-.05-.29-.048-.276-.102-1.115h-1.127v4.361H27.01v-4.36h-1.256l-.068.773-.135.779-.037.128-.184.641-.328.745-.425.662-.03.047-.58.635-.013.014-.007.008-.12-.146-.15-.162-.163-.16-.006-.005-.176-.16-.056-.044-.117-.096-.06-.043-.098-.07.512-.536.39-.57.284-.596.052-.164.142-.447.104-.532.017-.086.05-.47.015-.146h-1.34v-1.198h1.37v-1.078l-.02.005-.13.03-.148.03-.147.031-.147.026-.146.024-.134.02-.013.002-.041-.149-.058-.158-.001-.003-.073-.168-.082-.165-.088-.158-.088-.142.476-.104.062-.014.533-.136.225-.066.294-.085.495-.163.462-.173.418-.177.379.423.385.43v-.75h1.218v2.668h2.239l.007.246.005.186.002.056.01.24.004.103.006.135.014.236.02.236.174.064.012-.01.154-.14.17-.158.167-.16.16-.16.042-.043.105-.108.055-.06.073-.08m-4.835-2.225-.187.06-.016.004-.205.062-.21.06-.21.058-.214.056v1.342h1.24v-1.71l-.198.068M37.048 52 37 51.709l-1.382-8.48v-.032h-.007L33 41.413l-5-3.416-5 3.416-2.61 1.784h-.008v.031L19 51.708l-2.003 12.294h22.006L38.84 63l-1.791-11M15 66l3.8-22.803L19 42l7.52-5.014L28 36l7.225 4.817L37 42l.2 1.197L41 66H15m9.576-10.887h-.013v.391h2.012v-.39h-2m5.615 2.855h-4.42v.298h4.42v-.298m0 1.072v-.291h-4.42v.291Zm0 0" transform="matrix(4.29492 0 0 4.26451 -60.129 -149.258)"/>
    <path fill="#f9f9f9" d="M13.094 122.91c.058-.347 3.324-20.25 7.261-44.234 3.934-23.985 7.184-43.633 7.22-43.668.292-.27 32.394-21.969 32.523-21.98.218-.024 32.562 21.91 32.644 22.136.094.262 14.434 87.797 14.434 88.106 0 .246-3.864.27-47.094.27H12.988Zm63.195-3.95c1.117-.507 1.672-1.241 2.059-2.722.312-1.187.765-4.484.765-5.547v-.746H50.715v-1.175h30.43v-2.688h-30.43v-1.008h24.344v-9.562l-6.09-.043-6.086-.043 1.3-.758c1.7-.988 3.137-2.313 4.122-3.809l.793-1.207.117 1.32c.16 1.801.601 2.637 1.695 3.188.793.403 1.02.43 3.945.485 3.293.058 4.325-.075 5.079-.665.816-.632 1.433-2.085 1.64-3.851l.11-.934-.84-.191c-.656-.152-2.196-.766-2.93-1.172-.055-.031-.148.516-.21 1.215-.165 1.937-.153 1.93-2.126 1.93-1.363 0-1.687-.047-1.77-.266-.058-.145-.101-1.203-.101-2.352v-2.082h-1.691c-.93 0-1.692-.058-1.688-.125 0-.07.047-.297.102-.504l.101-.378h9.938v-3.86l-1.649-.012c-1.605-.007-1.636-.015-1.23-.293.226-.156.61-.457.844-.664l.43-.382-.848-.766a25 25 0 0 0-2-1.586l-1.157-.812-1.464.93c-.805.51-1.536 1-1.622 1.077-.09.086.047.301.34.524.27.21.875.738 1.34 1.176l.844.8-1.633.004-1.637.004.098-2.265.094-2.27h-4.614v.984c0 .54-.05 1.559-.109 2.266l-.11 1.285h-5.698v3.86h5.058l-.242.683c-.79 2.219-2.649 4.36-4.668 5.371l-1.035.516.496.535c1.125 1.21 1.156 1.164-.633 1.027-.875-.062-1.66-.156-1.738-.203-.082-.043.203-.308.633-.586.425-.277.777-.558.777-.625 0-.07-.606-.57-1.352-1.113l-1.347-.988.925-.051.93-.05v-6.364H41.078V89.8h1.594l-.84.851c-.46.47-1.36 1.278-2 1.797-1.078.88-1.137.965-.844 1.172l1.637 1.145 1.32.921.625-.496c1.125-.898 4.086-4.066 4.086-4.375 0-.086-.59-.343-1.308-.57l-1.309-.41 1.816-.02 1.817-.015v5.035h4.058V89.8l1.477.004 1.48.004-.93.582c-.51.316-.987.578-1.054.582-.383.011-.004.492.766.98.484.305 1.21.836 1.617 1.184l.738.625-.312.875-.313.87H44.97v17.13l-.5-.254c-.274-.14-.602-.258-.723-.258-.125 0-.664.512-1.2 1.14-.847.993-2.76 2.762-3.73 3.446-.296.21-.265.254.422.652.41.239 1.438.774 2.285 1.196l1.543.765.907-.765c.945-.797 4.023-4.075 4.03-4.29.005-.07-.66-.46-1.472-.874l-1.48-.75 28.344-.016-.09.46c-.047.255-.14.802-.203 1.22-.278 1.851-.91 2.484-2.286 2.3-.379-.05-.707-.117-.726-.148s-.367-.836-.77-1.79c-.406-.956-.843-1.776-.972-1.827-.285-.11-3.754.46-3.864.636-.039.067.106.524.325 1.02.218.496.578 1.445.793 2.117.437 1.352.39 1.328 1.93.965.605-.144 1.073-.18 1.167-.09.082.086.242.516.356.957.156.61.304.832.613.926.223.07 1.59.102 3.043.07 2.402-.05 2.723-.093 3.578-.484m-23.164-.722 2.152-.289v-.855c-.004-.73-.554-3.903-.707-4.047-.074-.074-4.52.52-4.613.617-.047.043.031.715.168 1.496.137.778.25 1.89.25 2.473 0 .93.04 1.05.297.98.164-.047 1.266-.215 2.453-.375m8.207-.25 1.91-.375-.117-.515c-.168-.758-.727-2.418-1.125-3.348-.29-.668-.41-.793-.703-.727-.195.047-1.176.215-2.18.375-1.539.247-1.808.332-1.715.559.352.86.743 2.11 1.012 3.258.277 1.168.352 1.3.66 1.226.192-.043 1.207-.25 2.258-.453m-.812-37.082v-1.511h-8.032l-.574-1.274c-.32-.703-.672-1.312-.781-1.355-.196-.075-4.621.87-4.766 1.015-.039.04.086.375.278.75.195.375.351.723.351.774 0 .05-1.824.09-4.059.09h-4.054v3.02H60.52Zm18.632-8.957c1.067-.808 1.864-2.402 2.352-4.703l.21-.98-.769-.696c-.425-.382-1.132-1.132-1.578-1.664-.445-.535-.844-.933-.89-.886-.043.042-.184.757-.305 1.585-.125.832-.336 1.774-.473 2.094l-.246.582-.73-.183c-1.532-.38-2.621-1.446-3.614-3.524-.511-1.074-1.254-3.504-1.261-4.125 0-.254 3.37 1.45 4.972 2.508.547.367 1.051.605 1.114.531.468-.531 2.703-3.582 2.703-3.691 0-.188-.465-.465-2.77-1.656-1.918-.993-1.992-1.051-1.61-1.25.661-.34 4.212-2.868 4.212-2.993 0-.066-1.059-.636-2.348-1.273l-2.348-1.156-2 1.957c-1.101 1.078-2.046 1.957-2.101 1.957s-.223-.094-.375-.207c-.23-.176-.297-.723-.395-3.192l-.117-2.976h-9.59V36.594h-5.41v3.02l-1.535-1.68c-.848-.922-1.613-1.676-1.707-1.676s-1.016.332-2.055.738c-2.394.938-5.172 1.793-7.972 2.457-1.207.285-2.325.555-2.48.598-.24.066-.173.281.452 1.457.403.758.825 1.699.942 2.094.238.808.03.789 2.61.277.648-.133 1.237-.238 1.308-.238s.125.984.125 2.183v2.184H39.56v5.203h5.757l-.101.879c-.676 5.719-2.403 9.773-5.547 13.008-.648.672-1.148 1.238-1.11 1.265.852.59 2.704 2.219 3.329 2.926l.816.934.938-.989c1.394-1.46 1.84-2.023 2.8-3.504 2.164-3.34 3.606-8.074 4.028-13.218l.105-1.301h5.211V71.84h5.41V53.21h4.68l.21 2.392c.657 7.441 2.38 12.265 5.243 14.66.965.804 1.512 1.11 2.922 1.62 1.54.555 1.887.622 3.02.575 1.085-.047 1.375-.125 1.882-.508m-.445-22.031c1.246-.586 2.207-2.047 2.664-4.055l.211-.91-1.586-1.594c-.875-.875-1.601-1.566-1.621-1.535s-.16.684-.312 1.453c-.336 1.676-.485 1.895-1.204 1.766-1.37-.246-2.703-1.129-3.718-2.465-.524-.687-1.707-3.117-1.579-3.242.079-.078 3.665 1.684 5.227 2.566.441.25.832.422.867.383.031-.039.653-.894 1.38-1.898 1.558-2.157 1.702-1.825-1.493-3.371l-2.16-1.043 2.199-1.801c1.211-.988 2.246-1.867 2.297-1.95.055-.085-.965-.679-2.262-1.324l-2.355-1.175-.61.777a77 77 0 0 1-1.91 2.258c-1.27 1.445-1.664 1.687-2.203 1.347-.176-.109-.539-2.492-.55-3.597 0-.278-.79-.293-14.118-.293H41.754v5.203h11.824c11.113 0 11.828.016 11.91.293.047.16.203.973.348 1.805.89 5.168 2.852 8.922 5.68 10.875 2.101 1.453 5.718 2.222 7.191 1.527m0 0"/>
    <path fill="#f9f9f9" d="m50.754 45.207.047-2.8 2.113-.61c1.16-.34 2.281-.668 2.492-.738l.38-.125v7.074h-5.079Zm-5.281 41.406v-.672h8.453v1.344h-8.453Zm5.242 12v-.586H69.48V99.2H50.715Zm0 3.274v-.504H69.48v1.008H50.715Zm10.098-6.527c.046-.087.261-.465.472-.848l.387-.692.105.145c.196.27.453.707.641 1.082.105.21.195.379.207.379.008 0 .352-.176.762-.387.414-.215.754-.383.761-.375.008.004-.273.176-.62.379l-.637.367 1.242.024c.68.011 2.82.035 4.75.046l3.512.024-5.836.008-5.836.004Zm0 0"/>
</svg>
