<svg xmlns="http://www.w3.org/2000/svg" width="120" height="120" viewBox="0 0 120 136">
    <path fill="red" stroke="red" stroke-width=".004" d="m57.866-45.618-.112.165-.12.17-.127.172-.043.055-.09.118-.03.038-.109.135h2.588v2.619h-3.78l-.094.054-.006.004-.04.023-.047.027-.03.017-.017.009-.016.009-.021.013-.01.005.216.162.202.164.188.167.174.17.16.173.144.178.407-.174.091-.041.322-.147.406-.197.391-.2.364-.2.326-.193.01.008 1.026.776-.23.115-.24.116-.245.114-.075.034-.174.078-.25.108-.251.103.25.431.3.425.354.404.406.37.186.13.271.188.352.177.102.051.026.014.018.008.01.006-.144.142-.157.173-.159.192-.152.2-.135.195-.11.181-.557-.35-.497-.43-.437-.487-.186-.26-.19-.267-.316-.544-.223-.471-.033-.07-.226.074-.117.04.203.58.077.56-.008.097-.034.418-.154.457-.1.148-.159.233-.355.287-.208.123-.2.092-.203.068-.212.045-.23.028-.256.013h-.138l-.087-.004h-.06l-.157-.007-.15-.006-.011-.001-.165-.01h-.005l-.076-.005-.044-.003-.03-.002h-.013l-.02-.176-.036-.192-.053-.2-.068-.2-.083-.189-.053-.093-.045-.079.045.004.153.013.195.014.189.01.18.007.168.004.14.001h.013l.138-.002.13-.009.125-.02.115-.031.106-.048.095-.066.151-.12.116-.158.034-.084.044-.108.026-.152.012-.071-.005-.252-.04-.217-.01-.06-.675.428-.32.172-.056.03-.363.195-.661.306-.12.055-.803.32-.101.033-.702.238-.68.19-.04.013-.02.005-.022.006-.011.003-.009.003-.091-.145-.112-.16-.125-.167-.132-.164-.129-.153-.012-.012-.072-.08-.036-.04.88-.208.897-.264.011-.004.405-.143.464-.165.831-.35.75-.379.003-.002.629-.397h.001l-.02-.027-.015-.02-.034-.048-.034-.047-.036-.046-.038-.046-.04-.043-.413.22-.163.088-.622.286-.651.26-.612.213-.054.018-.663.197-.49.124-.106.026-.024.007-.022.005-.09-.143-.104-.154-.117-.158-.125-.155-.126-.142-.003-.003-.096-.096-.025-.025.669-.125.467-.108.01-.003.02-.005.187-.043.68-.188.012-.004.642-.21.563-.217.047-.018.544-.254h.001l-.056-.043-.058-.043-.059-.045-.06-.044-.032-.02-.046-.033-.03-.021-.017-.012-.433.177-.443.163-.445.148-.118.035-.032.01-.291.087-.427.117-.395.098-.01.001-.002.001L52-40.79l-.105-.15-.015-.02-.101-.137-.12-.153-.121-.14-.107-.108-.01-.01.423-.073.387-.078.051-.01.446-.1.448-.114.072-.02.37-.106.43-.137h-1.817v-1.605l-.058.038-.06.037-.042.026-.017.01-.061.037-.023.013-.04.024-.005.003-.032.018-.017.01-.01.007-.11-.153-.136-.165-.152-.168-.161-.16-.158-.138-.095-.068-.054-.04.666-.385.364-.252.237-.164.534-.438.447-.431.018-.018.162-.186.23-.265.32-.442 1.318.257.022.004-.036.048-.019.025-.054.073-.035.047-.02.027-.054.074-.055.075-.054.077h1.91l.194-.054.25.162.623.406-.102.161m-3.889.467-.098.095-.002.002-.1.097-.105.096-.108.096h2.198l.07-.093.073-.094.072-.096.006-.008.066-.09.071-.1.071-.103h-2.02l-.096.1-.098.098m6.214-10.215.078.07.025.022.122.086.005.004.143.084.15.076.147.064.139.05-.01.225-.013.224-.016.19-.002.024-.023.193-.027.162-.032.121-.038.093-.044.083-.051.074-.057.065-.064.056-.07.048-.074.04-.063.025-.02.007-.087.025-.034.007-.06.012-.092.011-.094.004h-.47l-.122-.006-.124-.02h-.003l-.12-.035-.114-.05-.105-.064-.09-.08-.069-.087-.057-.109-.043-.138-.03-.18-.018-.235-.001-.047-.005-.25v-1.2h-.663l-.088.426-.045.222-.19.585-.108.217-.152.307-.068.092-.273.371-.272.254-.161.151-.502.325-.015.01-.013.009-.008.005-.063-.123-.08-.134-.095-.14-.077-.103-.026-.036-.023-.029-.087-.107-.066-.075-.045-.05v5.398h-1.009v-.55h-2.443V-48h-.963v-7.452h1.148v-1.084H51v-1.061h4.553v1.06h-1.21v1.085h1.195v1.681l.35-.24.286-.271.229-.305.178-.34.133-.369.003-.01.1-.417H55.8v-1.131h1.14l.006-.179.005-.183.003-.128.001-.06.004-.192.005-.199.007-.205h1.178l-.007.202-.006.197-.007.192-.003.065-.004.123-.008.185-.011.182h1.626v2.406l.003.076.004.063.004.037v.013l.009.037.01.025.01.017.01.013.014.008.016.005.017.003h.167l.023-.002.021-.005.018-.007.015-.01.013-.014.015-.016.014-.026.013-.035.001-.006.011-.04.012-.057.011-.068v-.003l.003-.074v-.018l.005-.12.002-.055.003-.09.005-.168.006-.19.004-.141.003-.07m-1.379 1.975v1.503h2.034v1.208h-2.034V-48H57.58v-2.68h-1.864v-1.208h1.864v-1.503h1.233m-5.693-.248-.01.313-.008.078-.027.251-.069.334-.11.33-.058.11-.105.202-.197.254-.007.01-.007.01-.003.003-.006.007-.002.003-.054-.058-.066-.064-.075-.066-.078-.066-.078-.062-.073-.055v.79h2.443v-.93h-.393l-.225-.014-.17-.047-.12-.092-.078-.144-.042-.207-.007-.139v-.023l-.006-.116v-1.371h-.37v.759M65.049-48 65-48.291l-1.382-8.48v-.032h-.007L61-58.587l-5-3.416-5 3.416-2.61 1.784h-.008v.031L47-48.292l-2.003 12.294h22.006L66.84-37l-1.791-11M43-34l3.8-22.803L47-58l7.52-5.014L56-64l7.225 4.817L65-58l.2 1.197L69-34H43m13.48-9.06h2.065v-.79h-2.066v.79m-3.984-11.338h-.409v2.153l.159-.226.112-.234.072-.239.042-.24.005-.064.014-.174.005-.233v-.743m.682-1.054h.327v-1.084h-.385v1.084h.058m1.352 2.541v-1.487h-.417v1.348l.003.065.006.046.012.028.017.016.024.006.03.001h.224l.03-.002.024-.003.02-.005.014-.006.013-.007m.767 9.06h-1.849v.79h1.88v-.79h-.03m-.768-5.83v-.674h-2.443v.674Zm0 0" transform="matrix(4.29492 0 0 4.26451 -180.387 277.193)"/>
    <path fill="#f9f9f9" d="M13.094 122.91c.058-.347 3.324-20.25 7.261-44.234 3.934-23.985 7.184-43.633 7.22-43.668.292-.27 32.394-21.969 32.523-21.98.218-.024 32.562 21.91 32.644 22.136.09.262 14.434 87.8 14.434 88.106 0 .246-3.953.27-47.094.27H12.988Zm48.101-3.824c5.133-1.57 7.235-6.254 5.317-11.852-.29-.847-.344-1.187-.196-1.238.114-.039.407-.144.653-.234.43-.153.465-.121.91.879 1.832 4.093 5.523 8.52 8.691 10.418.754.453 1.395.793 1.426.754.027-.036.383-.551.785-1.149.403-.598 1.223-1.64 1.82-2.32.594-.68 1.055-1.258 1.024-1.285-.031-.032-.555-.301-1.156-.602-3.004-1.492-5.946-4.344-7.938-7.703-.293-.492-.508-.914-.48-.942.027-.027 1-.46 2.16-.964 1.164-.5 2.562-1.137 3.11-1.414l.995-.5-2.242-1.707-2.242-1.704h2.746V86.277H65.586l.82-1.05c1.012-1.293 2.23-3.082 2.223-3.262-.004-.074-.856-.676-1.887-1.332-1.703-1.086-1.933-1.184-2.402-1.051-.29.082-2.293.148-4.457.148h-3.938l.703-.93c.391-.507.676-.952.641-.984-.113-.097-5.906-1.156-5.957-1.09-2.309 3.087-3.184 4.055-5.266 5.844-1.879 1.61-4.203 3.254-6.21 4.39-.72.411-1.31.782-1.31.825 0 .047.259.262.579.477.613.414 1.86 1.687 2.734 2.785l.524.66.594-.367c.324-.2.64-.363.699-.363s.11 1.472.11 3.273v3.273l3.589.012 3.594.012-.93.328c-1.23.438-5.926 1.578-7.945 1.93-.883.156-1.633.304-1.668.336-.035.027.312.488.773 1.023s1.121 1.371 1.469 1.856c.352.484.695.882.762.882.691 0 6.87-1.902 9.36-2.879l1.651-.648.68.45c.375.241.617.495.547.554-.406.34-3.383 1.516-5.969 2.363-3.074 1.008-6.074 1.785-8.738 2.266l-1.555.281 1.016 1.2c.558.656 1.219 1.515 1.469 1.91.25.39.57.71.71.71.493 0 4.676-1.164 6.856-1.906 2.676-.914 5.691-2.183 7.824-3.3l1.582-.829.317.375c.172.207.316.461.32.567.012.418-4.29 2.754-7.816 4.242-2.364.996-7.227 2.57-10.184 3.297-1.395.34-2.562.648-2.602.68-.035.03.157.331.426.667 1.09 1.36 2.414 3.121 2.469 3.285.066.196 1.238-.113 4.695-1.234 4.66-1.508 9.766-3.8 13.188-5.918 2.062-1.277 2.094-1.265 2.004.735-.051 1.054-.145 1.418-.504 1.957-1.07 1.609-2.434 1.988-6.32 1.761-1.301-.078-2.395-.113-2.43-.082s.066.258.226.504c.403.61 1.075 2.621 1.207 3.606l.11.812.867.07c1.836.153 5.418-.023 6.36-.312m-17.75-48V69.66h10.313v2.348h4.394v-22.88l.36.321c.195.176.738.903 1.207 1.614.496.757.93 1.253 1.035 1.187 1.844-1.066 3.71-2.7 4.957-4.328 1.098-1.434 2.316-4.402 2.754-6.715.328-1.715.2-1.594 1.703-1.594h1.34v3.602c0 3.95.152 5.047.797 5.808.75.887 1.625 1.211 3.515 1.297 2.996.137 4.453-.445 5.172-2.062.32-.723.66-2.969.66-4.39v-.88l-1.058-.468c-.578-.262-1.371-.711-1.754-1l-.7-.532-.1.614c-.06.336-.106 1.261-.106 2.058 0 .793-.086 1.684-.192 1.98-.172.489-.246.532-.8.485l-.618-.05-.043-5.747-.043-5.75h-6.98l.234-4.867H64.29l-.11 1.535a46 46 0 0 0-.109 2.434v.898h-4.902v5.035h4.375l-.332 1.219c-.559 2.055-1.566 3.875-2.836 5.137-.617.613-1.371 1.25-1.672 1.418l-.55.3v-7.066h-5.071v-4.363h5.238v-4.703H38.543v4.703h5.41v4.363h-4.902v31.89h4.394Zm28.907-4.281v-5.707h8.625v-5.203h-8.625v-6.547h-5.579v6.547h-7.945v5.203h7.945v11.414h5.579Zm0 0"/>
    <path fill="#f9f9f9" d="M47.84 38.438v-2.18h1.523v4.363H47.84Zm-4.395 11.164V45.32h1.524v2.328c0 1.278-.078 2.73-.176 3.23-.164.864-1.059 3-1.254 3-.05 0-.094-1.925-.094-4.276m0 7.121v-1.52l1.727 1.445.504-.586c1.437-1.687 1.996-3.73 2.12-7.761l.09-2.98h1.266l.067 3.738c.093 5.02.203 5.21 3.078 5.43l1.46.113v3.644H43.446Zm0 0"/>
    <path fill="#f9f9f9" d="M52.18 51.418c-.063-.063-.114-1.457-.114-3.105V45.32h1.692v6.211h-.735c-.402 0-.78-.05-.843-.113m-8.735 12.535V62.61h10.313v2.684H43.445Zm7.684 21.145 1.223-1.176 4.164.043 4.16.047-.836 1.133-.84 1.132h-9.094Zm-1.934 6.8v-1.593h7.946v3.187h-7.946Zm13.015 0v-1.593H71v3.187h-8.79Zm.59 9.34a28 28 0 0 0-2.25-2.097l-1.234-1.012.559-.297c.508-.266 1.176-.297 7.07-.297l6.508-.004-.676.43c-.808.508-6.91 3.535-8.117 4.027l-.844.34Zm0 0"/>
</svg>
