<svg xmlns="http://www.w3.org/2000/svg" width="120" height="120" viewBox="0 0 120 136">
    <path fill="red" stroke="red" stroke-width=".004" d="M60.878-12.211v.97h-2.189l.049.077.047.074.044.073.013.024.027.049.035.072.03.072h1.553v.478h-1.645v.266h1.393v.394h-1.393v.243h1.393v.417h-1.393v.221h1.73v.47h-4.155v.068l.353.051.574.083.022.003-.022.021-.032.032-.107.103-.054.05-.053.046-.054.044h2.923v1.828h-5.172v.289H61v.508h-6.205v.25h5.86v.017l-.002.043-.002.062-.003.072-.004.073-.004.067-.024.197-.017.142-.028.166-.019.116-.056.232-.065.185-.077.144-.09.108-.087.075-.096.061-.103.046-.109.034-.114.022-.117.012-.115.003-.131.002h-.012l-.167-.002-.184-.004-.196-.009-.017-.001-.128-.008h-.023l-.014-.002h-.019l-.004-.001-.007-.068-.012-.074-.018-.078-.022-.08-.026-.083-.03-.08-.145.06-.299.122-.104.042-.017.008-.008.003-.062-.128-.08-.143-.096-.15-.105-.151-.112-.143-.062-.07-.05-.057.658-.251H53.7l.55.236-.102.207-.118.21-.135.207-.153.197-.171.184-.193.163-.131-.066-.671-.339-.052-.026-.064-.032.186-.146.173-.169.158-.186.094-.132.046-.063.119-.2.097-.196.344.144V-7.81h2.211l.043-.058.043-.06.044-.059.044-.058.044-.055.042-.052h-.688v-1.176l-.015.012-.038.034-.051.047-.05.047-.01.011-.04.035-.05.044-.046.038-.006.005-.06-.07-.072-.078-.013-.013-.068-.071-.087-.087-.09-.088-.092-.086v1.442h-.903v-1.161l-.042.037-.017.014-.025.02-.043.033-.042.032-.042.031-.04.029h-.002l-.048-.103-.02-.042-.043-.087-.076-.145-.082-.146-.002-.004-.087-.143-.074-.108-.012-.017v.811l-.013.863-.001.068-.055 1.02-.112 1.063-.188 1.057-.25.888-.031.114-.331.764-.027.063-.014.03-.008.02-.006.013-.004.009-.14-.1-.17-.11-.189-.11-.193-.104-.183-.09L51-3.66l.192-.436.171-.385.254-.905.164-.95.093-.952.041-.904.001-.016.01-.847v-3.156h3.971l-.036-.077-.003-.006-.04-.083-.04-.082-.042-.081-.042-.079-.042-.078 1.14-.303.08.122.077.13.075.134.072.136.068.135.027.055.037.077h3.65M56.76-11.05l-.023.039-.025.041-.025.042-.026.043-.027.043-.027.042h1.255l-.027-.05-.028-.05-.014-.024-.015-.026-.03-.048-.027-.047-.027-.043.474-.152h-2.05l.641.19h.001m-1.976.727-.067.083-.045.055v.34l.235-.199.203-.196.021-.021.164-.182.045-.05.194-.243.175-.25.156-.254h-1.232l.628.213-.084.138-.09.14-.095.143-.1.142-.108.14m4.203 6.634.046-.002.042-.005.037-.01.034-.013.032-.02.03-.026.038-.05.034-.068.032-.09.03-.114v-.008l.026-.135.023-.166.001-.007h-1.24l.105.113.103.118.064.077.036.043.092.122.083.121.068.118v.002h.057l.054.001.05.001h.015l.033.001h.041l.034-.003m-2.115-.493.054.087.043.07.091.16.081.16.068.155.049.14-.854.286-.011.004-.041-.144-.033-.09-.026-.07-.034-.078-.04-.092-.086-.17-.093-.167-.098-.153.01-.003.028-.008.796-.232.096.145m-1.442.027.029.06.05.107.07.172.06.17.045.158.028.14-.417.117-.43.121-.027.007-.02.006-.015.005-.01.002-.03-.156-.042-.17-.054-.177-.062-.178-.068-.173-.01-.025-.057-.126-.005-.012.83-.194.05-.01.085.156m-4.196-16.676.702-.48.622-.516.543-.539.146-.173.222-.263.096-.114.387-.549.31-.534 1.033.165.452.072-.037.065-.038.066-.078.132-.04.064-.042.062h2.307l.22-.046.947.557-.038.06-.098.151-.147.216-.157.221-.164.223-.17.223-.174.22H61v6.083l-.015.313-.052.262-.09.216-.138.177-.186.142-.042.02-.197.092-.292.082-.338.058-.257.025-.13.013-.438.022-.491.01-.53.003h-.016l-.05-.189-.043-.116-.033-.094-.091-.219-.102-.216-.106-.202-.003-.006-.015-.024-.086-.147.086.004.329.014.416.01.392.004h.623l.185-.002.103-.007.006-.001.086-.021.064-.034.043-.05.025-.07.008-.092v-.839h-5.822l-.173.437-.221.424-.036.054-.124.185-.111.167-.326.383-.384.355-.394.286-.027.02-.013.01-.011.007-.117-.138-.157-.16-.18-.17-.064-.056-.124-.106-.17-.132-.011-.01-.16-.106.716-.571.5-.632.147-.303.178-.368.186-.688.083-.686.02-.66v-1.58l-.098.08-.1.075-.102.076-.103.073-.152.106-.028.02-.019.012-.011.008-.124-.156-.156-.17-.176-.175-.07-.063-.103-.091-.01-.01-.153-.12-.026-.022-.095-.064-.068-.045m2.862 3.251-.027.169h2.098v-1.008h-2.005l-.01.165-.01.168-.011.168-.015.169-.02.17M65.047-14 65-14.291l-1.382-8.48v-.032h-.007L61-24.587l-5-3.416-5 3.416-2.61 1.784h-.008v.031L47-14.292 44.997-1.997h22.006L66.84-3l-1.791-11M43 0l3.8-22.803L47-24l7.52-5.014L56-30l7.225 4.817L65-24l.2 1.197L69 0H43m13.417-10.208v.152h1.392v-.266h-1.392v.114m-2.168-11.47-.12.128h2.4l.093-.122.095-.129.094-.134.092-.137.088-.136.083-.136H54.8l-.105.135-.108.134-.11.134-.112.133-.116.13m3.095 12.676h-.927v.221h1.392V-9h-.465m0-.418h.465v-.243h-1.392v.243h.927m-3.016-1.821h-1.255v1.245l.014-.01.16-.119.063-.045.086-.071.147-.122.224-.207.21-.218.188-.225.163-.228m4.499 3.877h-4.032v.258h4.032v-.258m0 .934v-.266h-4.032v.266h4.032m-1.342-10.983h2.14v-1.008h-2.14v1.008m2.14-2.07v-.961h-2.14v.962h2.14m-3.457-.962h-1.997v.962h1.997Zm0 0" transform="matrix(4.29492 0 0 4.26451 -180.387 132.2)"/>
    <path fill="#f9f9f9" d="M13.094 122.91c.058-.347 3.324-20.25 7.261-44.234 3.934-23.985 7.184-43.633 7.22-43.668.292-.27 32.394-21.969 32.523-21.98.218-.024 32.562 21.91 32.644 22.136.094.262 14.434 87.797 14.434 88.106 0 .246-3.864.27-47.094.27H12.988Zm36.902-4.39c.84-.856 2.36-3.079 2.664-3.891.07-.195-.152-.375-.883-.695l-.976-.434 8.664-.016c4.762-.007 8.664.012 8.664.047s-.477.239-1.059.45a23 23 0 0 0-1.105.417c-.031.02.34.551.82 1.18s1.031 1.469 1.227 1.867c.191.399.402.723.465.723.062 0 .546-.188 1.07-.418.527-.23 1.062-.422 1.191-.422.153 0 .317.344.446.926l.21.922h2.532c1.406 0 2.816-.086 3.176-.192 1.007-.3 1.777-1.039 2.171-2.086.438-1.164.856-3.5.856-4.793v-.988h-25.02v-1.004h26.543v-2.351H55.11v-1.008h22.145v-7.887H64.848l1.28-1.305-1.495-.207c-.82-.113-1.758-.261-2.086-.335-.324-.075 3.422-.141 8.328-.153l8.918-.015v-2.184h-7.441v-.84h6.085v-1.844h-6.085v-.84h6.085v-1.847h-6.085v-1.008h7.101v-2.18h-6.562l-.438-.777c-.242-.426-.437-.805-.437-.84s2.054-.062 4.562-.062h4.567v-4.364l-7.82-.004h-7.817l-.73-1.382c-1.192-2.266-.805-2.121-3.704-1.38-1.375.352-2.523.657-2.55.68-.032.02.18.45.464.95s.516.96.516 1.023-3.8.113-8.45.113h-8.452l-.004 7.09c-.004 7.367-.192 13.442-.504 16.324-.477 4.375-1.453 8.41-2.707 11.192-.387.863-.742 1.652-.785 1.754-.043.105.41.418 1.027.703a24 24 0 0 1 2.289 1.277l1.187.762.235-.457c2.781-5.387 4.324-14.383 4.332-25.207 0-1.813.058-2.871.156-2.77.09.086.496.782.902 1.547l.747 1.387.898-.703v4.726h4.227l.015-5.96 1.86 1.96.586-.441.582-.445v4.718h2.87l-.46.665-.465.664-4.778.007-4.773.004V106c0 4.867-.059 7.133-.18 7.133-.097 0-.406-.117-.691-.266-.281-.144-.531-.238-.559-.207-.023.028-.3.543-.613 1.145-.36.68-1.066 1.582-1.879 2.394l-1.304 1.301 1.98.996c1.086.55 2.035 1 2.105 1.008.067.004.563-.438 1.098-.984m8.957-.586c.121-.121-.453-1.938-.976-3.079-.563-1.234-.512-1.222-2.868-.64-1.12.277-1.59.465-1.554.62.03.126.234.68.453 1.235.222.555.488 1.383.597 1.848.11.46.223.926.254 1.031.04.13.692.012 2.04-.375 1.09-.312 2.015-.601 2.054-.64m4.906.39c.953-.308 1.73-.652 1.73-.761 0-.266-1.433-3.067-1.816-3.555l-.304-.383-1.77.523c-.972.29-1.793.543-1.82.57-.024.028.293.692.707 1.477s.848 1.743.965 2.13c.113.382.293.667.39.628.102-.035.965-.32 1.918-.629M44.074 71.766c2.778-2.008 5.168-5.137 6.387-8.36l.3-.797h24.813l-.094 4.282-.59.21c-.449.165-1.66.192-5.03.118l-4.438-.102.758 1.48c.418.817.945 2.008 1.168 2.657.5 1.426.172 1.351 4.984 1.101 5.836-.3 7.621-.894 8.742-2.906l.492-.883.047-14.136.047-14.14-6.277-.044-6.274-.047.676-.84c.93-1.16 3.246-4.457 3.246-4.62 0-.075-.879-.641-1.953-1.262l-1.953-1.125-5.426.03-5.422.032.461-.777c.254-.43.434-.801.403-.825-.032-.027-1.391-.253-3.016-.503-1.629-.25-3.082-.493-3.234-.532-.2-.054-.438.203-.825.891-2.367 4.195-6.144 8.21-10.785 11.457-.957.672-1.718 1.238-1.691 1.262.027.023.508.398 1.066.832.559.437 1.52 1.328 2.137 1.988l1.125 1.195 1.203-.875c.664-.48 1.254-.87 1.313-.87.168 0-.079 9.327-.286 10.827-.656 4.703-2.617 8.25-6.093 11l-1.559 1.235.566.43c1.133.851 2.829 2.347 3.22 2.84.222.277.484.507.581.515.098.004.64-.328 1.211-.738m0 0"/>
    <path fill="#f9f9f9" d="M52.605 39.984c.125-.164.743-.922 1.38-1.68l1.156-1.378h4.726c3.738 0 4.703.047 4.606.21a71 71 0 0 1-1.125 1.68l-1.004 1.47h-4.98c-4.755 0-4.97-.016-4.759-.302m-.199 7.098v-1.93h8.282v3.86h-8.282Zm-.39 10.449c.039-.207.12-1.133.187-2.054l.117-1.68 4.184-.047 4.184-.043v4.203h-8.743Zm14.589-10.449v-1.93h8.961v3.86h-8.96Zm0 8.731v-2.098h8.961v4.195h-8.96ZM47.586 86.91v-2.605h2.648c2.11 0 2.637.011 2.606.05l-.309.43c-.968 1.36-2.832 3.192-4.414 4.344-.234.168-.449.324-.476.348-.043.03-.055-.485-.055-2.567m6.891 2.54v-.692l.203-.246c.3-.364.797-1.02 1.18-1.57.41-.587 1.109-1.692 1.109-1.75 0-.047-.25-.137-1.543-.57l-.93-.31 2.484-.003c1.368-.004 2.485.007 2.485.02 0 .124-1.2 1.874-1.75 2.554-.774.96-1.852 2.074-2.7 2.797l-.538.46Zm8.644-3.852c.297-.485.332-.578.219-.582-.028 0-.586-.16-1.235-.352l-1.183-.355 4.121.004h4.121l-.902.292-.899.293.094.149c.203.328.586 1 .586 1.031 0 .016-1.18.031-2.617.031h-2.617Zm-1.164 3.156v-.547h5.918v1.09h-5.918Zm0 2.769v-.503h5.918v1.003h-5.918Zm0 2.747v-.442h5.918v.883h-5.918Zm-6.973 7.093v-.527h17.243v1.05H54.984Zm0 2.852v-.524h17.243v1.047H54.984Zm16.571 11.859c-.38-.629-1.188-1.656-1.903-2.406l-.226-.242h5.25l-.02.117c-.008.062-.047.312-.086.555-.097.617-.285 1.328-.422 1.597-.183.364-.308.504-.566.621-.223.102-.281.11-1.02.125l-.78.016Zm0 0"/>
</svg>
