<svg xmlns="http://www.w3.org/2000/svg" width="120" height="120" viewBox="0 0 120 136">
    <path stroke="red" stroke-width=".004" d="M-.861-13H.587l-.008.238-.008.257-.01.275-.014.289-.016.304-.02.315.128.92.282 1.213.368.997.137.372.801 1.385 1.167 1.264 1.353.845.099.062.065.04.043.028.03.018.016.01-.192.161-.183.177-.17.188-.15.193-.128.193-.099.186-1.08-.639-.899-.767-.74-.86-.594-.921-.398-.805-.07-.142L0-7.983l-.012-.032-.049-.128-.337.948-.44.937-.562.907-.696.858-.847.79-.57.395-.368.256-.037.025-.024.017-.014.01-.125-.178-.15-.183-.173-.183-.089-.083-.1-.094-.2-.166L-5-4.036l1.793-1.35 1.177-1.608.482-1.198.21-.52.337-1.675.115-1.48L-.86-13M5-16.838H3.716v-.565H2.281V-14H.987v-3.403h-1.41v.642h-1.215v-5.12H.987v-2.01H2.28v2.01H5v5.043m-9.086-2.048-.01.011-.096.11-.01.012-.042.047-.022.025-.013.015-.01.01-.006.008-.077-.184-.107-.226-.127-.25-.136-.25-.135-.231-.123-.189.452-.502.022-.025.43-.567.028-.037.434-.666.398-.713.148-.315.204-.432.298-.765.055.016.109.035.374.116.684.212-.154.388-.163.389-.018.041-.155.347-.182.386-.012.025-.177.358-.197.378V-14h-1.23v-5.406l-.11.137-.109.132-.108.127-.107.124M9.048-14 9-14.291l-1.382-8.48v-.032h-.007L5-24.587l-5-3.416-5 3.416-2.61 1.784h-.008v.031L-9-14.292l-2.003 12.294h22.006L10.84-3 9.048-14M-13 0l3.8-22.803L-9-24l7.52-5.014L0-30l7.225 4.817L9-24l.2 1.197L13 0h-26M0-20.69h-.423v2.112h1.41v-2.112H0m2.281.21v1.902h1.434v-2.112H2.281Zm0 0" transform="matrix(4.29492 0 0 4.26451 60.129 132.2)"/>
    <path fill="#f9f9f9" d="M13.094 122.91c.058-.347 3.324-20.25 7.261-44.234 3.934-23.985 7.184-43.633 7.22-43.668.292-.27 32.394-21.969 32.523-21.98.218-.024 32.562 21.91 32.644 22.136.094.262 14.434 87.797 14.434 88.106 0 .246-3.864.27-47.094.27H12.988Zm32.304-4.922c6.176-4.25 11.036-10.652 13.684-18.031.332-.926.645-1.793.695-1.93.051-.14.489.766.977 2.012 3.117 7.95 8.11 14.059 14.582 17.84 1.223.71 2.262 1.297 2.309 1.297.046 0 .328-.426.62-.946.297-.515 1.18-1.59 1.965-2.378.786-.79 1.368-1.493 1.297-1.559-.07-.066-1.629-1.055-3.46-2.195l-3.329-2.07-2.504-2.7c-2.32-2.508-2.62-2.91-4.191-5.613-2.676-4.606-4.477-9.918-5.32-15.692-.27-1.832-.297-2.558-.172-4.53.082-1.294.152-2.9.16-3.567l.008-1.219h-6.426v2.14c0 3.942-.469 8.512-1.29 12.548-.702 3.468-.835 3.914-2.218 7.304l-1.469 3.606-2.27 3.105c-1.25 1.711-2.487 3.332-2.745 3.61-.262.277-2.11 1.714-4.11 3.19-2 1.478-3.636 2.724-3.632 2.77 0 .043.46.422 1.023.84 1.07.785 2.676 2.43 3.156 3.235.153.254.36.433.457.394.102-.039 1.09-.695 2.203-1.46m4.473-61.07V41.324l1.434-2.91c1.402-2.848 3.16-6.883 3.047-6.996-.079-.074-5.395-1.703-5.414-1.66l-.497 1.297c-2.023 5.32-5.18 10.593-8.754 14.633l-1.14 1.289.781 1.312a46 46 0 0 1 1.527 2.82c.41.832.805 1.512.883 1.512s.684-.625 1.348-1.387l1.203-1.39v22.668h5.582Zm20.117 8.375v-7.215h6.086v2.348h5.578V38.773H69.988v-8.558h-5.75v8.558H53.082v21.989h5.238v-2.684h5.918v14.434h5.75Zm0 0"/>
    <path fill="#f9f9f9" d="M58.32 48.426v-4.45h5.918v8.899H58.32Zm11.668 0v-4.45h6.086v8.899h-6.086Zm0 0"/>
</svg>
