<svg xmlns="http://www.w3.org/2000/svg" width="120" height="120" viewBox="0 0 120 136">
    <path stroke="red" stroke-width=".004" d="M4.21-47v1.134H.935v.7h2.89v1.045H.935v.7h2.89v1.021H.935v.708H5l-.001.027v.038l-.001.033-.003.101-.003.116-.004.115-.004.1-.014.202-.058.856-.077.854-.088.67-.101.507-.121.363-.144.24-.118.126-.122.1-.045.025-.084.05-.136.056-.148.04-.16.03-.168.018-.194.013-.132.006h-.002l-.082.003-.235.003-.25-.003-.102-.003-.068-.002-.048-.002H2.26l-.015-.001-.022-.199-.04-.211-.054-.217-.07-.213-.01-.025-.072-.176-.067-.131-.026-.05.162.013h.003l.048.004.203.014.187.01.094.002.073.002h.14l.108-.006.084-.001.071-.005.016-.003.047-.009.056-.02.052-.034.05-.048.072-.129.067-.209.054-.26.009-.043.059-.407.055-.525.052-.655H-3.59V-47h7.8m-1.168 8.26-.994.37-.078-.232-.103-.262-.022-.048-.103-.232-.14-.285-.15-.28-.156-.262.752-.26.18-.062.165.253.16.268.153.274.136.27.114.255.023.061.063.172m-2.89 1.02-.046-.287-.073-.332L0-38.464l-.062-.233-.065-.215-.047-.155-.126-.366-.135-.345.015-.004.42-.107.568-.146.14.333.134.355.124.362.023.073.085.282.085.333v.002l.059.294-1.023.27-.027.008-.015.004m-2.1.281-.017-.335-.039-.376-.045-.321-.011-.079-.062-.363-.008-.048-.084-.404-.093-.382.013-.002.245-.04.83-.135.108.378.096.399.047.234.034.17.065.397.047.372.026.334-1.11.194-.025.004-.016.003m-2.012.354-.138-.088-.645-.413-.118-.076-.089-.056-.052-.034.289-.32.248-.372.21-.412.157-.412.013-.034.135-.47.099-.489.26.074.883.255-.115.545-.127.474-.015.057-.175.508-.219.472-.27.425-.331.366m8.32-16.076h-2.74v.419H4.37v.723H1.623v.44h2.692v.717H1.623v.433h2.8v.731l.1.037.103.034.1.031.097.028.092.024.085.021-.061.37-.018.103-.128.362-.188.26-.26.173-.249.07-.092.025-.435.03H1.954l-.537-.028-.411-.094-.297-.173-.197-.269-.11-.379-.005-.08-.016-.249-.012-.174v-4.521h2.769v-.586H.369v-3.242h1.254v.708h3.154v1.012H1.623v.594h2.739v2.45m-5.077-2.71-.26.574-.125.272h1.046v1.042H-5v-1.042h.992l-.034-.147-.034-.125-.006-.022-.014-.047-.03-.101-.046-.145-.046-.14-.044-.133.166-.039.742-.174h-1.477v-1.043h1.777l-.03-.1-.03-.101-.027-.083-.006-.018-.034-.098-.033-.096-.032-.09L-2.108-58l.06.137.06.143.055.147.052.147.027.082.02.064.042.14h1.6v1.043h-1.562l1.04.228m-2.28.51.016.063.03.113.033.159h.738l.059-.177.03-.095.03-.088.01-.031.049-.154.054-.184.047-.178.036-.166h-1.384l.07.177.065.187.062.189.055.186m2.563 1.818v4.23l-.006.158-.002.084-.03.207-.052.176-.083.148-.117.124-.156.101-.179.082-.2.058-.223.038-.244.022-.265.01h-.06l-.074.001-.054.001h-.101l-.037-.179-.054-.192-.068-.196-.075-.191-.08-.179-.057-.115-.012-.025-.003-.007-.004-.007-.002-.004.17.01.17.006.158.002h.146l.104-.004.075-.006.055-.003.043-.01.033-.017.022-.027.012-.037.004-.051v-.86l-.028.016-.233.131-.14.077-.118.066-.255.139-.25.137-.245.133-.24.13-.251-.694-.026-.074-.014-.038-.043.388-.063.386-.053.243-.03.133-.108.362-.133.34-.162.317-.027-.022-.091-.076-.153-.114-.172-.118-.177-.113-.167-.096-.077-.037L-5-48.61l.21-.434.033-.11.111-.361.092-.49.051-.496.022-.483.004-.457v-2.1H-.43m-2.304 1.312.01.004.217.086.23.096.224.098.006.003.198.093.173.088v-.875h-1.746v.891l.407-.48.07-.083.211.079m-.69.967v.061l-.001.103-.004.171-.006.175-.008.18-.01.181.249-.083.273-.096.294-.107.31-.115.28-.106.042-.015.329-.125v-.692l-.371.464-.051.065-.07.087-.165-.087-.194-.099-.216-.106-.228-.107-.23-.105-.217-.095-.003-.002h-.001v.297l-.001.156m12.472 3.26L9-48.29l-1.382-8.48v-.032h-.007L5-58.587l-5-3.416-5 3.416-2.61 1.784h-.008v.031L-9-48.292l-2.003 12.294h22.006L10.84-37 9.048-48M-13-34l3.8-22.803L-9-58l7.52-5.014L0-64l7.225 4.817L9-58l.2 1.197L13-34h-26M2.123-49.126h1.339l.133-.01.043-.016.061-.02.078-.068.058-.106.042-.15.031-.2H1.623v.121l.008.168.028.12.055.082.091.049.023.004.111.019.184.007m-4.437 3.26v.7h1.966v-.7h-1.966m0 2.445h1.966v-.7h-1.966v.7M-.348-42.4h-1.966v.708h1.966Zm0 0" transform="matrix(4.29492 0 0 4.26451 60.129 277.193)"/>
    <path fill="#f9f9f9" d="M13.031 123.328c.035-.16 3.305-20.082 7.266-44.27 3.965-24.187 7.254-44.023 7.316-44.078.262-.242 32.168-21.824 32.383-21.906.145-.054 6.899 4.426 16.473 10.922C90.14 33.27 92.715 35.078 92.797 35.461c.09.43 14.465 87.977 14.465 88.105 0 .032-21.215.059-47.149.059-44.816 0-47.144-.016-47.082-.297m63.719-4.293c2.473-.789 3.484-2.86 4.129-8.422.312-2.703.855-9.715.855-11.031 0-.281-.492-.297-8.703-.297h-8.707V96.43h12.34v-4.532h-12.34v-2.851h12.34v-4.531h-12.34V81.66h14.031v-5.035H44.543v27.695h31.148l-.117 1.47c-.289 3.702-.758 6.593-1.21 7.46-.489.938-.833 1.027-3.622.938-1.39-.043-2.531-.032-2.531.023 0 .059.223.629.492 1.273.27.645.578 1.625.684 2.18a72 72 0 0 0 .277 1.402l.086.399 3.074-.078c2.18-.059 3.324-.16 3.926-.352m-32.758-.77c2.024-2.331 3.516-5.921 4.524-10.867l.105-.535-1.402-.422c-2.407-.722-3.516-1.004-3.61-.914-.05.051-.273.836-.496 1.75-.847 3.48-2.492 6.844-4.043 8.278-.246.222-.441.488-.441.586 0 .183 4.172 2.925 4.48 2.941.09.004.489-.363.883-.816m10.086-1.027c2.98-.5 2.703-.281 2.582-2.011-.191-2.645-1.469-8.399-1.863-8.38a83 83 0 0 0-2.39.387c-1.665.286-2.192.438-2.177.621.016.133.223 1.188.461 2.34.473 2.29.954 5.672.954 6.723 0 .383.082.664.19.664.106 0 1.114-.156 2.243-.344m9.117-1.43c1.22-.328 2.235-.613 2.262-.64.117-.117-.855-3.613-1.523-5.477-1.106-3.066-1.262-3.39-1.602-3.289-.16.047-1.09.29-2.066.54-.977.25-1.836.507-1.91.57-.075.066.175 1.015.562 2.113.785 2.254 1.684 5.625 1.687 6.32 0 .254.083.461.188.461.102 0 1.184-.27 2.402-.597m8.989-3.343c.847-.32 1.007-.442.972-.75-.113-.988-3.094-6.387-3.527-6.387-.266 0-3.652 1.188-3.832 1.34-.074.066.32.98.875 2.031.848 1.606 1.629 3.356 2.101 4.723.11.312-.105.371 3.41-.957M43.176 71.789c.61-1.187 1.394-3.824 1.734-5.82.188-1.11.36-2.035.383-2.059.02-.023.25.563.512 1.305.258.738.535 1.383.62 1.433.083.051 1.536-.66 3.235-1.582l3.082-1.68.051 1.864c.035 1.379-.012 1.898-.172 2-.117.078-1.078.14-2.137.14-1.468 0-1.898.051-1.828.212.91 2.097 1.164 2.75 1.36 3.507l.234.899 2.176-.016c1.816-.015 2.34-.078 3.152-.39 1.25-.48 1.945-1.067 2.39-2.02.344-.742.356-1.016.403-10.793l.05-10.027H40.864l-.086 6.922c-.047 3.87-.168 7.445-.273 8.101-.3 1.86-.836 3.766-1.402 4.996-.29.621-.497 1.156-.457 1.188.035.031.484.289.996.574.511.289 1.386.86 1.941 1.273.559.414 1.07.715 1.145.672.074-.047.273-.36.449-.699m34.957-.062c1.219-.391 2.16-1.176 2.652-2.211.367-.766 1.05-3.45.906-3.555-.023-.02-.593-.195-1.265-.395l-1.227-.367v-3.176H67.195v-1.68h11.496v-3.19H67.195v-1.676h11.836v-3.36H67.195V50.61h11.836V40.031H67.195v-2.515h13.528v-4.364H67.195V30.13h-5.578v13.933h11.836v2.348H61.602l.058 10.871c.067 11.742.05 11.547.996 12.864.793 1.101 2.207 1.664 4.625 1.847 2.078.153 10.16-.043 10.852-.265M59.93 44.734v-2.351h-2.114c-1.164 0-2.113-.047-2.113-.106 0-.054.305-.773.676-1.593s.676-1.563.676-1.657c0-.172-.133-.21-2.2-.687l-1.265-.29 2.914-.015 2.918-.015v-4.532h-6.875l-.473-1.386c-.554-1.641-.879-2.309-1.12-2.309-.153 0-2.376.535-4.235 1.02l-.617.16.39 1.215.387 1.214-3.785.047-3.79.043v4.528l2.747.015 2.746.02-1.352.32c-.742.176-1.441.352-1.55.39-.137.051-.047.532.296 1.594.274.836.493 1.633.493 1.774 0 .207-.336.25-2.028.25H38.63v4.699h21.3Zm0 0"/>
    <path fill="#f9f9f9" d="M47.586 42.059c0-.18-.266-1.137-.59-2.121-.324-.989-.594-1.82-.594-1.856 0-.035 1.266-.062 2.809-.062h2.809l-.106.46c-.059.254-.348 1.235-.64 2.184l-.532 1.719h-1.578c-1.45 0-1.578-.028-1.578-.324m4.652 13.964c-.281-.152-1.46-.68-2.62-1.168l-2.114-.89-.422.465a31 31 0 0 0-.973 1.129l-.55.664v-3.434h7.27v1.762c0 .972-.02 1.761-.044 1.758a8 8 0 0 1-.547-.286m-6.742 3.52c.059-1.453.121-2.66.14-2.68.016-.02 1.192.528 2.61 1.219 1.422.688 2.598 1.254 2.613 1.254.02 0 .45-.531.957-1.18l.926-1.183.051 1.203c.027.66.016 1.234-.027 1.277-.098.098-2.621 1.047-5.309 1.996l-2.07.735Zm22.051 7.574c-.215-.273-.352-.687-.352-1.09v-.648h9.645l-.113.46c-.204.833-.41 1.27-.704 1.493-.218.164-1.261.219-4.207.223l-3.918.007ZM50.293 83.086V81.66h8.281v2.856h-8.281Zm0 7.387v-1.426h8.281v2.851h-8.281Zm0 7.387v-1.43h8.281v2.855h-8.281Zm0 0"/>
</svg>
