<svg xmlns="http://www.w3.org/2000/svg" width="120" height="120" viewBox="0 0 120 136">
    <path fill="red" stroke="red" stroke-width=".004" d="M4.21-47v1.134H.935v.7h2.89v1.045H.935v.7h2.89v1.021H.935v.708H5l-.001.027v.038l-.001.033-.003.101-.003.116-.004.115-.004.1-.014.202-.058.856-.077.854-.088.67-.101.507-.121.363-.144.24-.118.126-.122.1-.045.025-.084.05-.136.056-.148.04-.16.03-.168.018-.194.013-.132.006h-.002l-.082.003-.235.003-.25-.003-.102-.003-.068-.002-.048-.002H2.26l-.015-.001-.022-.199-.04-.211-.054-.217-.07-.213-.01-.025-.072-.176-.067-.131-.026-.05.162.013h.003l.048.004.203.014.187.01.094.002.073.002h.14l.108-.006.084-.001.071-.005.016-.003.047-.009.056-.02.052-.034.05-.048.072-.129.067-.209.054-.26.009-.043.059-.407.055-.525.052-.655H-3.59V-47h7.8m-1.168 8.26-.994.37-.078-.232-.103-.262-.022-.048-.103-.232-.14-.285-.15-.28-.156-.262.752-.26.18-.062.165.253.16.268.153.274.136.27.114.255.023.061.063.172m-2.89 1.02-.046-.287-.073-.332L0-38.464l-.062-.233-.065-.215-.047-.155-.126-.366-.135-.345.015-.004.42-.107.568-.146.14.333.134.355.124.362.023.073.085.282.085.333v.002l.059.294-1.023.27-.027.008-.015.004m-2.1.281-.017-.335-.039-.376-.045-.321-.011-.079-.062-.363-.008-.048-.084-.404-.093-.382.013-.002.245-.04.83-.135.108.378.096.399.047.234.034.17.065.397.047.372.026.334-1.11.194-.025.004-.016.003m-2.012.354-.138-.088-.645-.413-.118-.076-.089-.056-.052-.034.289-.32.248-.372.21-.412.157-.412.013-.034.135-.47.099-.489.26.074.883.255-.115.545-.127.474-.015.057-.175.508-.219.472-.27.425-.331.366m8.32-16.076h-2.74v.419H4.37v.723H1.623v.44h2.692v.717H1.623v.433h2.8v.731l.1.037.103.034.1.031.097.028.092.024.085.021-.061.37-.018.103-.128.362-.188.26-.26.173-.249.07-.092.025-.435.03H1.954l-.537-.028-.411-.094-.297-.173-.197-.269-.11-.379-.005-.08-.016-.249-.012-.174v-4.521h2.769v-.586H.369v-3.242h1.254v.708h3.154v1.012H1.623v.594h2.739v2.45m-5.077-2.71-.26.574-.125.272h1.046v1.042H-5v-1.042h.992l-.034-.147-.034-.125-.006-.022-.014-.047-.03-.101-.046-.145-.046-.14-.044-.133.166-.039.742-.174h-1.477v-1.043h1.777l-.03-.1-.03-.101-.027-.083-.006-.018-.034-.098-.033-.096-.032-.09L-2.108-58l.06.137.06.143.055.147.052.147.027.082.02.064.042.14h1.6v1.043h-1.562l1.04.228m-2.28.51.016.063.03.113.033.159h.738l.059-.177.03-.095.03-.088.01-.031.049-.154.054-.184.047-.178.036-.166h-1.384l.07.177.065.187.062.189.055.186m2.563 1.818v4.23l-.006.158-.002.084-.03.207-.052.176-.083.148-.117.124-.156.101-.179.082-.2.058-.223.038-.244.022-.265.01h-.06l-.074.001-.054.001h-.101l-.037-.179-.054-.192-.068-.196-.075-.191-.08-.179-.057-.115-.012-.025-.003-.007-.004-.007-.002-.004.17.01.17.006.158.002h.146l.104-.004.075-.006.055-.003.043-.01.033-.017.022-.027.012-.037.004-.051v-.86l-.028.016-.233.131-.14.077-.118.066-.255.139-.25.137-.245.133-.24.13-.251-.694-.026-.074-.014-.038-.043.388-.063.386-.053.243-.03.133-.108.362-.133.34-.162.317-.027-.022-.091-.076-.153-.114-.172-.118-.177-.113-.167-.096-.077-.037L-5-48.61l.21-.434.033-.11.111-.361.092-.49.051-.496.022-.483.004-.457v-2.1H-.43m-2.304 1.312.01.004.217.086.23.096.224.098.006.003.198.093.173.088v-.875h-1.746v.891l.407-.48.07-.083.211.079m-.69.967v.061l-.001.103-.004.171-.006.175-.008.18-.01.181.249-.083.273-.096.294-.107.31-.115.28-.106.042-.015.329-.125v-.692l-.371.464-.051.065-.07.087-.165-.087-.194-.099-.216-.106-.228-.107-.23-.105-.217-.095-.003-.002h-.001v.297l-.001.156m12.472 3.26L9-48.29l-1.382-8.48v-.032h-.007L5-58.587l-5-3.416-5 3.416-2.61 1.784h-.008v.031L-9-48.292l-2.003 12.294h22.006L10.84-37 9.048-48M-13-34l3.8-22.803L-9-58l7.52-5.014L0-64l7.225 4.817L9-58l.2 1.197L13-34h-26M2.123-49.126h1.339l.133-.01.043-.016.061-.02.078-.068.058-.106.042-.15.031-.2H1.623v.121l.008.168.028.12.055.082.091.049.023.004.111.019.184.007m-4.437 3.26v.7h1.966v-.7h-1.966m0 2.445h1.966v-.7h-1.966v.7M-.348-42.4h-1.966v.708h1.966Zm0 0" transform="matrix(4.29492 0 0 4.26451 60.129 277.193)"/>
    <path fill="#f9f9f9" d="M13.02 123.414c.011-.344 14.5-88.355 14.554-88.406.293-.27 32.395-21.969 32.524-21.98.218-.024 32.562 21.91 32.644 22.136.094.262 14.434 87.797 14.434 88.106 0 .246-3.864.27-47.078.27-25.895 0-47.078-.056-47.078-.126m62.035-4.078c3.086-.387 4.425-1.613 5.148-4.707.582-2.496 1.16-7.832 1.39-12.828l.11-2.434H64.238v-2.851h12.34v-4.532h-12.34V89.13h12.34v-4.7h-12.34v-2.683H78.27v-5.039H44.629v27.7H75.69l-.058.71c-.465 5.461-.945 7.957-1.668 8.676-.438.43-.438.43-3.121.39l-2.684-.038.488 1.144c.266.633.618 1.84.786 2.684l.3 1.539h1.946c1.074 0 2.59-.082 3.375-.176m-31.078-1.043c.976-1.125 2.015-2.844 2.675-4.422.586-1.39 1.633-5.05 1.793-6.262l.11-.793-2.492-.71c-1.368-.391-2.504-.688-2.528-.66-.02.027-.137.542-.258 1.14-.71 3.527-2.316 6.988-4.113 8.852-.375.39-.633.761-.57.824.16.156 4.406 2.879 4.523 2.898.051.008.438-.383.86-.867m10.601-1.152 2.262-.38-.117-1.183c-.262-2.7-1.403-8.18-1.782-8.555-.14-.14-4.507.457-4.695.645-.047.047.11.977.352 2.062.394 1.766.75 4.141 1.054 6.977.086.8.153.957.387.895.156-.043 1.297-.25 2.54-.461m10.844-2.168c0-1.176-2.496-8.555-2.895-8.555-.191 0-4.265 1.012-4.328 1.074-.023.024.192.68.48 1.457.708 1.89 1.454 4.465 1.786 6.133l.27 1.367 2.343-.605c1.774-.457 2.344-.668 2.344-.871m5.695-2.114c1.543-.578 2.082-.851 2.082-1.062 0-.77-3.254-6.633-3.61-6.508-.109.04-1.03.36-2.054.711-1.023.355-1.883.66-1.91.68s.363.77.871 1.664 1.25 2.453 1.652 3.46c.399 1.008.762 1.833.809 1.833.043 0 1.016-.352 2.16-.778M43.391 71.223c.695-1.493 1.527-4.606 1.687-6.297.125-1.336.203-1.281.832.59.27.793.52 1.28.637 1.234.11-.043 1.566-.828 3.238-1.746l3.043-1.664.05 1.605c.075 2.528.231 2.364-2.233 2.364H48.55l.57 1.3c.316.715.703 1.813.867 2.434l.293 1.133 1.106-.004c2.59-.008 4.648-.524 5.726-1.438 1.215-1.035 1.207-.96 1.207-12.101v-9.79H40.742v6.423c-.004 3.625-.082 7.078-.187 7.93-.25 2.023-.887 4.41-1.504 5.628-.281.547-.508 1.031-.508 1.078s.363.27.805.493c.441.226 1.336.789 1.984 1.253.652.465 1.246.848 1.32.856.078.004.41-.57.739-1.281m34.238.601c1.137-.234 2.156-.812 2.719-1.547.566-.734 1.105-2.336 1.168-3.46l.05-.891-2.28-.68v-3.14H67.112v-1.68h11.664v-3.188H67.113v-1.847h11.832v-3.188H67.113v-1.68h11.832V39.95H67.113v-2.351h13.692v-4.532H67.113v-3.02h-5.41v14.099h11.832v2.351H61.703v10.64c0 10.11.016 10.696.332 11.708.535 1.71 1.45 2.48 3.45 2.914 1.328.289 10.82.34 12.144.066m-17.617-27.09v-2.27h-2.196c-1.21 0-2.199-.03-2.199-.07 0-.039.344-.804.762-1.699.418-.894.762-1.68.762-1.742s-.707-.262-1.567-.441l-1.562-.325 2.664-.046 2.66-.047v-4.692H55.87c-2.98 0-3.465-.035-3.465-.254 0-.503-1.238-3.453-1.422-3.386-.101.039-1.23.312-2.507.61-1.282.3-2.325.6-2.325.667 0 .07.149.566.336 1.106.188.535.34 1.039.34 1.117s-1.715.14-3.805.14H39.22v4.7l5.156.03-1.266.333c-.695.183-1.293.36-1.324.39-.031.032.18.782.465 1.668.285.887.52 1.688.52 1.778 0 .101-.836.164-2.114.164h-2.113V47h21.469Zm0 0"/>
    <path fill="#f9f9f9" d="M47.438 41.383a25 25 0 0 0-.676-2.18l-.399-1.101h5.688l-.258.882a70 70 0 0 1-.68 2.18l-.425 1.3h-2.973Zm-1.961 13.211-.004-1.719h7.441v1.695c0 1.293-.05 1.676-.21 1.602-1.388-.61-5.087-2.125-5.192-2.125-.117 0-.696.633-1.739 1.91-.28.344-.293.293-.296-1.363m-.004 4.922c0-1.707.062-2.614.18-2.614.097 0 1.32.543 2.714 1.207 1.543.73 2.586 1.141 2.656 1.036a54 54 0 0 1 .961-1.23l.844-1.06.05 1.223c.028.676-.01 1.281-.085 1.348-.121.113-6.04 2.32-6.938 2.59l-.382.113Zm22.539 7.944c-.563-.163-.633-.288-.817-1.452l-.113-.715h9.711l-.11.68c-.136.84-.39 1.257-.906 1.492-.488.222-6.992.219-7.765-.004M50.207 83.086v-1.34h8.285v2.684h-8.285Zm0 7.469v-1.426h8.285v2.855h-8.285Zm0 7.386v-1.425h8.285v2.851h-8.285Zm0 0"/>
</svg>
