<svg xmlns="http://www.w3.org/2000/svg" width="120" height="120" viewBox="0 0 120 136">
    <path stroke="red" stroke-width=".004" d="m-79.338 19.573-.035.058-.101.166-.132.219-.126.21-.12.202-.033.052-.085.136-.11.173h.727v.994h-1.75v.688l.076.057.11.082.218.174.24.196.245.207.236.207.106.096.106.097h-.788v.887h-1.051v.917h.158l-.024.209-.017.153-.046.374-.051.375-.018.122-.038.24-.059.34-.063.305h1.21v1.437h.877v-1.437h.563v-.971h-.563V25.39h.488v-.917h-.488v-.803l.098.1.39-.609.188-.293-.176-.116-.012-.007-.249-.156-.103-.062-.204-.124-.313-.184-.278-.16-.204-.109-.563.52v1.33h-1.014v-2.018h-1.771v-.994h.645l-.062-.181-.052-.128-.027-.065-.093-.201-.105-.203-.113-.197-.118-.187.803-.344.137.2.13.214.12.22.106.213.088.202.053.148.012.034-.64.275h.887v-1.751h1.014v1.751h.893l-.668-.291.01-.018.094-.17.108-.214.105-.23.1-.231.088-.224.073-.205.958.366h.003m-2.34 4.902-.013.102-.123.877-.036.147-.07.29-.122.504-.085.23-.22.589-.217.395-.01.018-.012.022-.144.263-.459.578-.213.183-.302.258-.01.01-.008.006-.057-.116-.076-.13-.019-.028-.07-.108-.024-.033-.072-.1-.1-.122-.075-.084-.018-.02.205-.136.06-.05.133-.11.18-.186.06-.075.109-.133.155-.23.142-.25-.077-.084-.086-.09-.093-.097-.1-.099-.043-.041-.06-.057-.101-.095-.003-.003-.053.09-.04.065-.015.023-.056.084-.052.07-.007.01-.06.076-.055.063-.004.004-.002.003-.002.002-.036-.074-.046-.088-.054-.098-.043-.075-.016-.028-.063-.104-.064-.099h-.533v1.11l.606-.212.008-.004.01.131.013.141.01.089.007.055.019.138.022.124.024.097.001.005-.474.193-.285.119-.07.03-.256.113-.178.088-.105.062-.017.01-.086.066-.036-.076-.008-.017-.062-.105-.073-.11-.079-.109-.054-.068-.026-.033-.075-.086-.383.163-.288.128-.209.1-.043.023-.106.057-.087.057-.017.011-.076.065-.036-.076-.013-.028-.07-.115-.081-.12-.087-.115-.075-.09-.01-.014-.04-.041-.026-.03-.012-.013.085-.08.087-.11.08-.142.05-.126.018-.048.046-.208.017-.242v-2.561h.818v.902h.601v.902h-.6v1.131l.558-.19h.002l.002-.001.006.084.008.09.01.093.008.048.006.047.015.095.015.094.047-.091.043-.103.013-.042.023-.074.029-.13.018-.14.007-.154v-2.554h.81v.895h.586v.451l.167-.313.15-.339.083-.228.049-.134.107-.352.01-.028.1-.395.085-.405-.073-.103-.072-.093-.01-.014-.09-.107-.04-.045-.052-.058-.014-.014-.078-.084-.089-.086v1.307h-3.454l-.002.125-.007.62-.036.796-.056.632-.016.18-.117.792-.012.052-.161.692-.048.131-.02.057-.051.144-.102.281-.008.02-.005.017-.004.01-.097-.09-.125-.101-.14-.1-.059-.037-.088-.057-.081-.046-.057-.033-.047-.022-.072-.034.21-.604.146-.666.093-.703.05-.717.022-.706.003-.508.002-.163v-4.396h1.801l-.046-.128-.048-.13-.05-.129-.05-.128-.053-.124-.053-.118.957-.257.01-.003.09.156.085.167.081.174.075.176.068.175.06.169h1.472v1.001h-3.514v.696h.413v-.55h.714v.55h.427v-.55h.699v.55h1.201v1.3l.167-.083.088-.044.243-.155.226-.175.031-.03.173-.159.176-.197.142-.197.75.245-.12.244-.037.065-.103.177-.16.233-.179.222-.196.205-.21.184.014.003.186.04.153.033-.044.222-.023.111-.024.111-.028.111-.031.11h.615l.158-.015.052.012.018.004.178.041.255.058-.012.084m.84 1.106.028-.189h.255v1.147h-.435l.03-.189.031-.191.062-.386.026-.172.003-.02m1.753-15.093h-.601v3.87H-79v1.08h-4.772v-1.08h.64v-3.87h-.609V9.43h.609V8.054h1.035v1.377h1.347V8.054h1.065v1.377h.6v1.056m-2.122 5.463.01-.005.918-.485.232.311.237.335.188.278.045.066.215.338.186.317.146.283-.873.496-.033.02-.034.018-.025.015-.017.009-.13-.29-.173-.326-.203-.348-.224-.355-.162-.243-.071-.106-.232-.328m-.665.35-.047.084v.003l-.152.265-.255.384-.272.36-.28.323-.242.239-.017.016-.014.013-.007.008-.005.005-.112-.114-.14-.13-.156-.138-.162-.133-.156-.12-.067-.048-.012-.008-.062-.044.062-.053.204-.173.256-.261.24-.289.075-.105.144-.204.191-.323.159-.328.03.009.75.223.271.08-.195.41-.029.05m-3.011-2.647v.834h.716v.911h-.716v.987l.007-.002.811-.242h.004l.003.141.004.101.003.052.011.157.015.153.019.14.02.114v.005l-.579.19-.427.144-.008.003-.182.066-.13.047-.215.089-.143.074-.08.057-.016.01-.018-.072-.024-.082-.03-.089-.013-.034-.022-.058-.039-.096-.004-.009-.04-.087-.049.016-.011.003-.367.116-.325.109-.24.089-.092.04-.079.034-.118.063-.063.045-.011.008-.007.005-.008-.06-.032-.123-.033-.095-.014-.043-.017-.043-.042-.1-.061-.134-.003-.006-.062-.124-.002-.003-.034-.057-.02-.035-.007-.01.073-.05.07-.062.063-.085.052-.11.034-.142.001-.02.011-.16v-2.608h.822v.864h.64v.92h-.64v1.039l.228-.055.283-.069.059-.013V16.3l-.001.073v.01l-.001.068.002.082.004.084.005.084.007.081.056-.055.052-.066.046-.08.035-.095.022-.103.002-.008.008-.128v-2.594h.837m0-.206h-2.686l-.014.73-.009.158-.031.613-.076.781-.105.654-.016.104-.177.706-.067.172-.126.324-.02.052-.013.033-.006.017-.007.015-.003.009-.095-.088-.124-.1-.142-.1-.145-.095-.138-.08-.045-.022-.072-.035.214-.592.072-.32.075-.333.094-.69.051-.704.01-.321.012-.376.005-.665V9.002h1.765l-.033-.11-.005-.018-.041-.13-.041-.13-.044-.127-.046-.124-.048-.118.247-.053.894-.192.078.16.015.032.059.134.069.172.064.173.058.169.053.162h1.446v1.026h-1.279v.658h1.226v2.762h-.853m9.93 4.552-.047-.291-1.382-8.48v-.032h-.007L-79 7.413l-5-3.416-5 3.416-2.61 1.784h-.008v.031L-93 17.708l-2.003 12.294h22.006L-73.16 29l-1.791-11M-97 32l3.8-22.803L-93 8l7.52-5.014L-84 2l7.225 4.817L-75 8l.2 1.197L-71 32h-26m13.676-6.449-.02.049-.01.028.063.049.03.023h.001l.095.077.095.081.094.083.032.029.06.056.093.084.044-.154.043-.157.041-.16.01-.04.03-.123.037-.167.035-.17h-.631l-.027.087-.027.084-.03.082-.03.081-.028.078m-4.228-13.022h.417v-.918h-.434v.918h.017m2.373 11.005h.256v-.903h-.413v.903h.157m-.856-.903h-.427v.903h.427v-.903m-1.141.903v-.903h-.413v.903h.413m5.256-11.456h-.177v.627h1.347v-.627h-1.17m0-.972h1.17v-.62h-1.347v.62h.177m1.17 2.594h-1.347v.658h1.347V13.7m-5.213-3.672h-.457v.658h.457v-.658m1.14 1.583h-.433v.918h.434v-.918m-1.194 0h-.404v.918h.457v-.918h-.053m-1.12-1.371v-.212h-.433v.658h.434Zm0 0" transform="matrix(4.29492 0 0 4.26451 420.902 -4.265)"/>
    <path fill="#f9f9f9" d="M13.02 123.414c.011-.344 14.5-88.355 14.554-88.406.293-.27 32.395-21.969 32.524-21.98.218-.024 32.562 21.91 32.644 22.136.094.262 14.434 87.797 14.434 88.106 0 .246-3.864.27-47.078.27-25.895 0-47.078-.056-47.078-.126m29.546-5.457c1.344-3.937 1.954-8.012 2.172-14.562l.114-3.356h14.824v-5.254l.363.32c.2.176.648.676.996 1.114l.637.789-.32 1.476c-.442 2.024-1.418 4.914-2.102 6.243l-.574 1.105-.008-.715-.008-.71h-2.535v-3.864h-3.719v6.012c0 5.172-.039 6.14-.285 6.925l-.285.91-.152-1.046c-.094-.653-.235-1.051-.368-1.051-.113 0-.64.148-1.168.328l-.953.324v-4.511h2.535v-4.028h-2.535v-3.863h-3.703l-.05 6.254c-.051 6.117-.06 6.27-.442 7.09-.215.465-.57 1.031-.79 1.261l-.401.418.832 1.09c.46.602.875 1.227.93 1.387.128.39.3.371 1.046-.117.348-.227 1.485-.79 2.528-1.25l1.894-.836.586.789c.32.437.68.996.793 1.25.246.535.355.555.945.172.242-.16 1.63-.793 3.082-1.406 2.371-1.008 2.637-1.16 2.617-1.52-.035-.746-.28-3.168-.32-3.168-.023 0-.547.191-1.164.422s-1.2.418-1.289.418c-.098 0-.164-.875-.164-2.192v-2.187l1.133.05 1.129.048.601 1.132c.332.622.68 1.106.77 1.079.094-.028.472-.48.84-1.008l.668-.961 2.21 2.195-.394.738c-.61 1.137-1.871 2.614-3.012 3.516l-1.03.816.823 1.082c.457.594.942 1.305 1.086 1.579.14.27.324.492.406.492.333 0 2.387-1.922 3.32-3.106 2.641-3.343 4.34-7.84 5.216-13.804l.375-2.563-.606-.187c-.332-.106-1.535-.227-2.676-.27-1.402-.055-2.066-.14-2.062-.273.004-.106.113-.684.246-1.282.133-.601.246-1.14.25-1.203 0-.062-.305-.164-.68-.226l-.68-.114 1.165-1.218c.64-.672 1.558-1.852 2.035-2.621l.87-1.403v6.45h4.556l.046-2.786.047-2.78 2.184 1.815c1.203 1 2.379 1.985 2.621 2.192l.434.371-1.563.004-1.562.008v3.86h-4.567v2.015c0 1.922.016 2.015.348 2.015.312 0 .34.075.254.711-.051.395-.211 1.582-.352 2.645-.258 1.937-.695 4.625-.87 5.328l-.09.379h5.277v6.21h3.886v-6.21h2.368v-4.363h-2.368v-4.7h2.028v-4.03h-2.028v-1.505c0-1.137.051-1.484.211-1.426.13.047.711-.695 1.473-1.87l1.258-1.954-.38-.305c-.491-.398-4.991-3.062-5.82-3.449l-.64-.3-2.188 2.156v-2.594h7.438v-4.531H78.69c-.789 0-1.437-.028-1.437-.063s.687-1.18 1.527-2.543c.836-1.363 1.504-2.496 1.477-2.515-.137-.106-4.235-1.602-4.27-1.559-.027.027-.285.648-.582 1.383a44 44 0 0 1-1.226 2.738c-.395.805-.625 1.465-.54 1.547.083.078.606.336 1.165.57l1.015.43-1.566.004-1.563.008v-7.387h-4.56v7.387l-2.961-.024 1.055-.484 1.05-.48-.23-.649c-.395-1.105-2.047-4.148-2.563-4.719-.082-.09-3.453 1.352-3.558 1.52-.047.078.074.36.27.633.359.504 2.027 3.847 2.03 4.078 0 .07-.605.125-1.35.125H60.52v4.531h7.609v.758c0 .414-.063.754-.14.754-.075 0-.81-.227-1.634-.5L64.86 89.3l-.25.375c-.574.87-2.894 2.93-3.879 3.449l-1.054.559v-5.395h-5.242V85.94h-3.211v2.348H49.7V85.94h-3.38v2.348h-1.523v-2.852h15.047v-4.355l-6.305-.094-.234-.672c-.395-1.152-1.625-3.609-1.801-3.609-.207 0-4.063 1.023-4.145 1.098-.047.047.274.93 1.114 3.058.062.164-.766.211-3.813.211h-3.894l-.07 13.637c-.06 11.652-.11 13.894-.352 15.402-.39 2.457-.758 4.043-1.32 5.703-.29.848-.419 1.45-.317 1.485.352.113 2.633 1.656 2.86 1.93.124.156.285.28.351.28s.36-.698.648-1.554M65.11 71.199c1.637-1.73 3.301-4.074 4.395-6.191.488-.945.851-1.746.812-1.778-.117-.093-4.316-1.292-4.53-1.292-.106 0-.45.511-.77 1.132-.887 1.739-2.22 3.516-3.75 5l-1.395 1.352.535.367c.297.203 1.145.895 1.887 1.535.746.645 1.402 1.176 1.465 1.18.058.004.668-.582 1.351-1.305m14.258-.011c1.586-.903 2.028-1.231 2.02-1.5-.02-.45-1.73-3.258-3.602-5.903l-1.484-2.097 5.351-.094v-4.692h-2.875v-16.28h2.535v-4.7h-2.535v-5.875h-4.734v5.875h-5.578v-5.875H63.73v5.875h-2.535v4.7h2.535v16.28h-2.703v4.7l14.961.007-1.945 1.016a85 85 0 0 0-1.992 1.066c-.024.028.59.98 1.363 2.125 1.48 2.184 3.227 5.16 3.527 6.02.098.281.227.508.29.508.058 0 1.023-.52 2.136-1.156m-36.812-.817c1.375-3.707 2.242-9.418 2.242-14.738 0-1.04.047-2.012.105-2.156.09-.239.918-.266 7.606-.266h7.504V41.293h-5.239v-2.688h5.579v-4.53H54.14l-.477-1.302c-.723-1.984-1.273-3.093-1.488-3.011-.106.039-1.219.285-2.477.543-1.254.258-2.304.484-2.332.508-.031.019.18.695.465 1.496.281.8.516 1.527.516 1.609 0 .09-1.567.156-3.72.156H40.91l-.004 10.028c-.004 15.593-.324 19.73-1.867 24.027-.277.773-.484 1.422-.457 1.441.023.02.465.27.977.555.511.285 1.234.785 1.605 1.11.371.328.715.593.762.597s.328-.656.629-1.46m4.136.445c.832-.421 1.598-.707 3.547-1.324l1.465-.46.379 1.027c.211.562.406 1.058.434 1.097.03.035.418-.125.859-.363.445-.238 2.18-.898 3.863-1.465l3.055-1.035-.129-.785c-.074-.434-.137-1.297-.14-1.918-.008-.625-.036-1.133-.067-1.133-.047 0-2.453.703-3.2.938-.269.082-.296-.082-.296-1.934v-2.027h3.043v-4.028H56.46V53.88h-3.887v6.055c0 5.347-.031 6.113-.285 6.586l-.285.539-.133-.59c-.074-.32-.098-.758-.05-.965.097-.445.093-.445-1.106-.125-1.438.383-1.352.5-1.352-1.848v-2.097h2.703v-4.028h-2.703v-3.691h-3.718l-.004 6c-.004 5.535-.032 6.055-.328 6.703-.176.387-.473.8-.657.914-.332.207-.332.223.133 1.14.258.516.602 1.333.762 1.817.156.484.324.879.367.879s.39-.156.773-.352m0 0"/>
    <path fill="#f9f9f9" d="M44.84 39.906v-1.383h1.777v2.77H44.84Zm4.902 0v-1.383h1.946v2.77h-1.946Zm-4.902 7.301v-1.93h1.777v3.864H44.84Zm4.902 0v-1.93h1.946v3.864h-1.946Zm5.031 0v-1.93h1.817v3.864h-1.817Zm13.567-5.434v-1.277h5.703v2.559H68.34Zm0 6.801V47.25h5.703v2.645H68.34Zm0 6.985v-1.383h5.703v2.77H68.34ZM44.758 94.164v-1.887h1.687v3.778h-1.687Zm4.816 0v-1.887h1.774v3.778h-1.774Zm4.86 0v-1.887h1.691v3.778h-1.691Zm10.195 12.254c-.356-.32-.879-.77-1.164-.996l-.516-.414.16-.418c.086-.227.25-.684.36-1.016l.199-.597h1.32c.727 0 1.32.011 1.32.023 0 .234-.953 4.012-1.011 4.004a20 20 0 0 1-.668-.586m8.484 2.406c0-.039.114-.773.254-1.629.14-.855.309-1.914.371-2.351l.121-.797 1.032-.024v4.872H74c-.8 0-.887-.008-.887-.07m0 0"/>
</svg>
