<svg xmlns="http://www.w3.org/2000/svg" width="120" height="120" viewBox="0 0 120 136">
    <path stroke="red" stroke-width=".004" d="M-51.317 21.018h-4.076v.524h3.251v4.292h-3.251v.577H-51v1.148h-4.393V29h-1.341v-1.44H-61v-1.15h4.266v-.577h-3.172v-4.292h3.172v-.524h-4.004V19.87h4.004V19h1.34v.87h4.077v1.147m.118-9.463h-2.553l.504.288.022.012.517.308.199.125.294.185.458.302.41.289.348.268-.703.92-.028.037-.018.025-.436-.366-.375-.282-.156-.117-.532-.37-.07-.048-.647-.42-.666-.407-.027-.016-.63-.362v1.53h-1.316v-1.53l-.35.343-.021.019-.352.308-.017.013-.377.295-.413.289-.429.266-.397.218-.045.026h6.445v4.282h-1.33v-.317h-3.998V18h-1.269v-4.227l-.164.08-.071.032-.091.042-.162.07-.163.067-.166.062-.026.008-.068.023-.036.011-.022.009-.01.002-.008.003-.11-.166-.136-.19-.15-.2-.158-.195-.156-.18-.065-.066-.053-.056L-61 13.1l.566-.178.56-.215.482-.22.063-.029.321-.17.203-.107.493-.303.454-.323h-2.813v-1.144h4.067v-.75l-.485.04-.255.018-.228.017-.48.03-.477.024-.473.02-.35.01-.036.002h-.054l-.017.002h-.012l-.025-.17-.041-.188-.052-.196-.023-.073-.038-.12-.064-.182-.031-.079-.022-.056-.01-.026 1.183-.056 1.197-.084.053-.005 1.122-.106.933-.114.181-.022.97-.155.044-.007.877-.185.168.192.726.828-.453.107-.342.07-.13.027h-.002l-.49.089-.505.08-.517.072-.527.065v.88h4.09v1.145M-46.952 18l-.048-.291-1.382-8.48v-.032h-.007L-51 7.413l-5-3.416-5 3.416-2.61 1.784h-.008v.031L-65 17.708l-2.003 12.294h22.006L-45.16 29l-1.791-11M-69 32l3.8-22.803L-65 8l7.52-5.014L-56 2l7.225 4.817L-47 8l.2 1.197L-43 32h-26m11.656-7.838h-1.309v.655h1.919v-.655h-.61m3.878 0h-1.927v.655h1.927v-.655m-3.268-1.61h-1.919v.654h1.919v-.654m3.268 0h-1.927v.654h1.927v-.654m-.424-7.89h-3.998v.587h3.998v-.587m0 1.452h-3.998v.595h3.998Zm0 0" transform="matrix(4.29492 0 0 4.26451 300.644 -4.265)"/>
    <path fill="#f9f9f9" d="M13.094 122.91c.058-.347 3.324-20.25 7.261-44.234 3.934-23.985 7.184-43.633 7.22-43.668.292-.27 32.394-21.969 32.523-21.98.218-.024 32.562 21.91 32.644 22.136.094.262 14.434 87.797 14.434 88.106 0 .246-3.864.27-47.094.27H12.988Zm49.793-6.504v-3.105h18.765v-5.035H62.887v-2.352H76.75v-18.46H62.887v-2.016h17.41v-5.036h-17.41v-3.695h-5.918v3.695H39.727v5.035h17.242v2.016H43.277v18.461H56.97v2.352H38.543v5.035h18.426v6.21h5.918ZM52.067 71.84v-.672H69.14v1.344h5.918v-9.063c0-4.984.046-9.066.109-9.066.059 0 .644.437 1.305.965.656.53 1.363 1.101 1.566 1.261.371.297.383.286 1.992-1.793.89-1.148 1.617-2.152 1.617-2.226-.003-.367-5.093-3.785-9.085-6.102l-2.301-1.336h10.543v-5.035H63.223v-3.644l2.242-.29c4.5-.581 10.363-1.703 10.433-1.995.02-.075-.828-1.114-1.878-2.31-1.239-1.405-2-2.14-2.168-2.093-.145.04-.993.227-1.887.414-5.594 1.176-13.953 2.082-24.207 2.63-1.766.093-1.985.136-1.883.382.395.96.938 2.707 1.105 3.559l.2.992 1.797-.09c3.648-.184 7.75-.414 9.105-.52l1.395-.105v3.07h-17.59l.093 4.953 5.829.082 5.824.086-.899.637c-2.488 1.777-7.023 3.988-10.535 5.14l-1.64.54 1.355 1.625c.746.894 1.559 1.945 1.809 2.336.25.394.582.714.738.714.223 0 1.82-.609 3.816-1.457.168-.07.211 1.758.211 8.825v8.914h5.578Zm0 0"/>
    <path fill="#f9f9f9" d="M52.066 59.504v-1.09h17.075v2.18H52.066Zm0 6.293v-1.172h17.075v2.348H52.066Zm-3.211 27.531v-1.344h8.114v2.684h-8.114Zm14.032 0v-1.344H71v2.684h-8.113Zm0 6.879v-1.34H71v2.684h-8.113Zm-14.032 0v-1.34h8.114v2.684h-8.114Zm.34-47.012c2.844-1.683 5.012-3.297 7.055-5.25l1.227-1.172v6.438h5.746v-3.207c0-2.574.047-3.191.222-3.125.89.34 9.438 5.707 10.918 6.855.395.309.11.313-13.101.313H47.758Zm0 0"/>
</svg>
