<svg xmlns="http://www.w3.org/2000/svg" width="120" height="120" viewBox="0 0 120 136">
    <path stroke="red" stroke-width=".004" d="m89-45.101-.001.034v.032l-.001.055-.002.12-.001.076v.057l-.002.125v.098l-.018.597-.044 1.5-.061 1.447-.009.199-.086 1.247-.074.602-.037.299-.143.61-.182.368-.15.179-.125.11-.032.028-.163.104-.174.077-.189.056-.207.043-.218.022-.041.002-.214.01-.283.004-.301-.002-.226-.004h-.057l-.027-.001-.12-.003-.09-.003h-.05l-.034-.002h-.016l-.023-.187-.043-.207-.063-.215-.08-.213-.097-.2-.1-.161-.006-.01-.005-.008.328.023.31.015.173.006.113.003.253.005.214.002h.168l.095-.004.084-.013.075-.024.022-.012.046-.023.064-.048.063-.062.138-.266.067-.298.045-.198.089-.753.013-.19.06-.843.002-.064.055-1.276.05-1.67h-2.669l-.129.27-.133.26-.137.249-.07.119-.07.118-.143.224-.14.202-.005.007-.134-.104-.134-.093-.039-.028-.056-.037-.139-.092-.2-.126-.12-.071-.073-.044-.11-.062-.058-.033.359-.5.218-.385.11-.195.1-.216.008-.02.187-.407.07-.186.188-.502.22-.716.178-.726 1.205.244.023.004-.023.091-.047.185-.075.278-.081.278-.085.276-.087.274-.09.269H89m-2.513 3.781.306.36.01.01.244.346-.976.837-.055-.084-.174-.266-.297-.381-.347-.396-.064-.066-.317-.329-.397-.379-.396-.347.378-.313.015-.013.504-.418.4.326.407.358.288.274.107.102.364.38m-3.841-5.665.028.03.696.745-.516.29-.584.268-.35.134-.282.108-.661.215-.497.138-.173.048-.202.047-.233.055-.22.051-.006.002-.078-.143-.035-.06-.061-.1-.109-.168-.116-.165-.016-.02-.087-.113-.014-.018-.05-.056-.042-.047-.022-.024.656-.142.665-.174.65-.2.616-.221.317-.133.243-.102.483-.245m-.517 1.902.017.026.078.115.093.142.089.14.082.132.097-.074.092-.075.088-.076.083-.075.079-.075.073-.075.003.002.761.696-.195.192-.06.055-.146.133-.217.182-.228.178-.238.172-.247.166.112.193.452.784.04.127.31.958.025.18.131.919-.018 1.017-.023.111-.148.73-.306.571-.164.18-.177.142-.192.106-.208.073-.226.045-.084.006-.037.003-.125.01h-.387l-.142-.004-.146-.005-.116-.005h-.019l-.01-.001-.015-.173-.027-.187-.038-.193-.051-.194-.064-.185-.078-.167v-.002l.152.014.042.003.11.01.146.008.136.006.124.004.108.002.114-.004.102-.016.092-.032.084-.053.008-.008.072-.07.079-.112.078-.122.067-.169.056-.21.042-.247.028-.279.01-.274.002-.032-.421.352-.013.01-.432.33-.198.14-.263.183-.131.084-.336.216-.464.27-.224.117-.09.047-.058.031-.04.021-.019.01-.013.007-.006.003-.084-.15-.098-.163-.109-.164-.116-.16-.12-.15-.12-.127.176-.076.397-.172.3-.156.289-.149.584-.352.556-.382.505-.4.114-.109.316-.298-.005-.03-.008-.051-.017-.08-.019-.083-.02-.08-.02-.083-.02-.08-.207.152-.174.13-.256.175-.152.104-.424.269-.428.253-.422.229-.192.095-.094.046-.069.035-.023.01-.015.008-.01.005-.071-.144-.091-.156-.105-.161-.113-.157-.115-.146-.111-.128.428-.162.034-.013.355-.158.133-.06.493-.249.476-.273.416-.27.02-.015.377-.288-.036-.068-.04-.066-.04-.063-.084-.126-.003-.004-.018-.026-.009-.014-.009-.014-.005-.007-.302.16-.307.153-.312.146-.314.141-.213.09-.102.043-.121.049-.03.013-.08.032-.035.014-.028.011-.015.006-.007.003-.078-.134-.096-.147-.109-.151-.118-.146-.12-.133-.098-.093-.008-.007-.007-.007-.004-.004.18-.07.178-.073.178-.074.177-.077.12-.054.056-.025h.002l.18-.085-.095-.188-.112-.205-.031-.054-.091-.158-.128-.214-.131-.206-.128-.192.436-.207.019-.009.023-.01.404-.192.121.165.012.015.136.195.135.204.074.117.055.088.119.199.103.187.104-.06.105-.061.105-.063.105-.064.103-.066.101-.066-.048-.094-.03-.062-.093-.164-.1-.167-.105-.167-.105-.162-.102-.153.292-.15.557-.283.017-.01.096.13.096.138m6.787-9.289h-2.557v.698l-.01.261-.028.164-.008.052-.065.176-.1.144-.132.109-.011.01-.188.1-.21.069-.23.05-.25.031-.272.018-.296.008-.254.002h-.068l-.055-.175-.075-.187-.089-.19-.05-.098-.047-.09-.016-.029-.084-.146-.096-.155.243.006h.001l.243.004.23.002h.201l.163-.001.11-.004.065-.005.051-.011.038-.019.025-.028.015-.042.005-.057v-.667h-2.65v-1.086h2.65v-.558l.146-.08.148-.09.148-.096.15-.102.147-.108.146-.113h-2.81v-1.07h4.039l.267-.055.458.385.252.212-.27.245-.1.084-.192.161-.307.24-.32.234-.25.17-.077.053-.242.153-.089.056v.279h2.557v1.086m-6.777.909.012.214.023.415.009.641-.01.748-.012.244-.023.482-.068.68-.108.609-.027.09-.015.048-.042.139-.072.238-.21.397-.078.102-.092.09-.104.078-.114.064-.121.05-.125.034-.194.043-.198.03-.205.018-.209.008h-.216l-.068-.002h-.054l-.053-.002h-.047l-.01-.209-.025-.21-.041-.208-.057-.203-.076-.196-.064-.122-.025-.049-.008-.014.21.013.193.008.057.001.118.002h.154l.134-.007.111-.01.062-.014.056-.02.051-.026.047-.034.042-.042.04-.05.096-.2.076-.314.038-.268.02-.14.04-.486.018-.398.007-.148.008-.505.001-.046v-.026l.001-.012-.193.245-.197.238-.198.226-.027.028-.173.185-.2.196-.132.12-.03.026-.016.015-.01.01-.007.006-.107-.156-.126-.168-.14-.172-.054-.062-.092-.105-.058-.059-.086-.09-.004-.003-.065-.06-.048-.045-.03-.026.346-.265.35-.322.343-.365.325-.396.225-.312.072-.1.256-.418-.022-.179-.028-.18-.033-.178-.037-.178-.042-.175-.025-.095-.005-.022-.01-.038-.003-.011v-.007l-.14.148-.14.142-.144.137-.145.131-.146.126-.124.102-.006.005-.012.01-.007.006-.11-.137-.133-.149-.149-.153-.156-.149-.154-.135-.122-.097-.014-.012-.01-.006.207-.165.205-.178.1-.093.104-.097.2-.2.057-.062.14-.152.194-.224-.137-.22-.153-.221-.044-.057-.125-.162-.095-.112-.089-.105-.2-.214-.218-.211.015-.011.87-.656.174.167.162.166.152.167.134.156.01.01.137.168.132.166.108-.157.103-.16.017-.027.08-.135.094-.163.088-.164.083-.163.003.002.413.21.161.083.514.263-.037.067-.092.163-.02.034-.156.264-.164.263-.172.26-.034.05-.145.207-.187.251.207.556.009.023.116.432.043.16.109.603.067.616m6.86 5.24h-6.892v-1.117h.664v-2.908h5.656v2.908H89v1.116m4.048.223L93-48.291l-1.382-8.48v-.032h-.007L89-58.587l-5-3.416-5 3.416-2.61 1.784h-.008v.031L75-48.292l-2.003 12.294h22.006L94.84-37l-1.791-11M71-34l3.8-22.803L75-58l7.52-5.014L84-64l7.225 4.817L93-58l.2 1.197L97-34H71m13.397-17.2v-.04h-.573v1.9h.573v-1.86m2.924-.04h-.58v1.9h.58v-1.9m-1.474 0h-.572v1.9h.572Zm0 0" transform="matrix(4.29492 0 0 4.26451 -300.644 277.193)"/>
    <path fill="#f9f9f9" d="M13.02 123.414c.011-.344 14.5-88.355 14.554-88.406.293-.27 32.395-21.969 32.524-21.98.218-.024 32.562 21.91 32.644 22.136.094.262 14.434 87.797 14.434 88.106 0 .246-3.864.27-47.078.27-25.895 0-47.078-.056-47.078-.126m62.293-4.277c2.53-.73 3.867-2.254 4.62-5.266.801-3.207 1.36-11.344 1.653-24.113l.117-4.992h-7.379c-4.058 0-7.379-.024-7.379-.055s.192-.613.426-1.3c.59-1.72 1.649-5.536 1.563-5.622-.133-.133-5.11-1.086-5.297-1.016-.098.04-.282.512-.403 1.051-1.168 5.254-3.668 11.145-6.113 14.438-.754 1.008-.762.968.27 1.511.28.149 1.218.75 2.09 1.34.87.586 1.632 1.067 1.695 1.067.183 0 2.129-3.172 2.922-4.766l.722-1.445h11.254l-.004.379c0 .207-.074 2.492-.164 5.078-.484 13.918-1.113 18.066-2.84 18.738-.296.113-1.777.152-4.14.106-2.024-.04-3.66-.028-3.633.027.023.05.285.586.582 1.187.566 1.157 1.07 2.852 1.07 3.61v.457l3.758-.086c2.543-.059 4.04-.164 4.61-.328m-23.415.031c2.204-.348 3.547-1.352 4.707-3.516.868-1.625 1.215-3.273 1.38-6.547.117-2.304.085-2.902-.266-5.203-.5-3.297-1.512-6.37-2.824-8.597a97 97 0 0 1-1.114-1.922c-.176-.336-.09-.438 1.035-1.246 1.77-1.27 4.371-3.54 4.317-3.762-.028-.102-.766-.84-1.645-1.637l-1.593-1.449-.829.703c-1.492 1.27-1.32 1.278-2.203-.094-.43-.668-.968-1.441-1.191-1.714l-.41-.5-1.754.898c-.961.496-1.82.965-1.906 1.04-.086.077.21.694.695 1.444 1.332 2.055 1.605 2.551 1.492 2.727-.055.09-.605.465-1.223.832l-1.12.664-.977-1.59c-1.246-2.027-2.153-3.254-2.403-3.254-.18.004-3.648 1.606-3.8 1.758-.036.031.238.5.605 1.04.777 1.14 2.469 4.085 2.379 4.152-.066.05-2.926 1.273-3.926 1.68l-.656.269.781.824A16 16 0 0 1 40.88 98l.652 1 1.957-.8a84 84 0 0 0 4.008-1.813l2.047-1.012.418.61c.23.335.414.69.414.788 0 .207-1.555 1.352-3.262 2.407-1.703 1.05-4.718 2.558-6.586 3.293-.906.355-1.644.695-1.644.754 0 .062.351.558.781 1.105a20 20 0 0 1 1.281 1.875c.278.488.535.883.578.883.04 0 .696-.313 1.461-.692 1.993-.996 5.34-3.015 7.34-4.437l1.727-1.223.203.91c.246 1.086.297 1.012-2.016 2.93-2.808 2.336-6.855 4.832-10.183 6.285-.785.34-1.457.649-1.489.684-.035.031.254.422.645.863.39.442 1.031 1.313 1.418 1.934.387.625.762 1.136.836 1.136.25.004 2.195-1.03 3.984-2.12 2.094-1.27 4.535-2.981 6.203-4.34l1.176-.961.055.714c.027.391-.074 1.317-.223 2.059-.379 1.848-1.027 3.016-1.933 3.477-.426.218-3.73.257-4.543.054-.371-.093-.41-.066-.286.215.477 1.086.926 2.645 1.024 3.54.094.882.164 1.05.473 1.109.738.144 3.44.109 4.503-.059m20.82-14.594.653-.59-.95-1.234c-.523-.676-1.698-2.004-2.612-2.945-1.688-1.743-5.235-4.844-5.641-4.934-.258-.058-4.023 2.969-3.95 3.176.028.074.817.84 1.755 1.695 2.699 2.465 5.539 5.63 6.644 7.403l.383.617 1.531-1.301a154 154 0 0 0 2.188-1.887M44.126 85.371c4.988-1.254 9.578-2.973 12.57-4.715.43-.25.778-.504.774-.562-.004-.063-.711-.856-1.57-1.766l-1.567-1.652-1.512.754c-2.937 1.457-6.949 2.824-11.488 3.906-1.395.332-2.562.633-2.594.664-.035.031.274.5.688 1.035.41.535 1.008 1.406 1.328 1.938.316.527.695.96.836.965.14 0 1.281-.254 2.535-.567M47.38 72.09c2.36-.719 3.715-3.035 4.414-7.55.812-5.204.812-13.813.004-18.716-.313-1.91-.934-4.261-1.5-5.695l-.41-1.043 1.105-1.586c1.422-2.04 3.106-4.777 3.106-5.055 0-.117-1.063-.742-2.356-1.386l-2.355-1.172-.633 1.129c-1.047 1.863-1.785 2.933-1.91 2.78-1.399-1.671-3.145-3.597-3.434-3.788-.355-.235-.476-.176-2.285 1.176-1.047.78-1.906 1.457-1.906 1.503 0 .047.59.704 1.312 1.458 1.239 1.304 3.082 3.746 3.082 4.085 0 .262-2.566 2.903-3.843 3.961l-1.192.985 1.867 1.828c1.028 1.004 1.918 1.828 1.985 1.828.062 0 .886-.723 1.824-1.602l1.71-1.601.173.637c.093.347.285 1.297.425 2.105l.258 1.473-.78 1.215c-1.911 2.96-4.352 5.66-6.954 7.683l-.535.414 1.05 1.114c.583.609 1.36 1.535 1.731 2.05.371.516.762.942.867.942.242.004 2.93-2.774 4.028-4.164.453-.57.851-1.008.89-.97.14.138-.3 6.49-.547 7.9-.14.804-.41 1.753-.593 2.117-.516 1.003-.993 1.164-3.47 1.164-1.976 0-2.132.023-2.015.293.606 1.41.95 2.625 1.04 3.687l.109 1.258 2.382-.078c1.59-.055 2.704-.18 3.356-.38m34.273-2.934v-2.52h-2.367V54.216H54.773v12.422h-2.875v5.035h29.754ZM64.324 53.38c3.184-.25 4.73-.883 5.516-2.254.351-.613.398-.945.457-3.16l.066-2.477h10.95v-4.867H70.324v-.496c0-.434.184-.613 1.563-1.535 2.48-1.653 6.383-4.727 6.383-5.028 0-.062-.704-.69-1.563-1.398-1.094-.898-1.64-1.246-1.816-1.156-.141.07-4.305.152-9.258.18l-9 .046v4.688l5.875.004 5.87.004-.421.336c-.23.187-1.05.722-1.816 1.195l-1.395.863v2.297H53.418v4.867h11.328v3.172l-.605.113c-.332.063-1.664.082-2.957.04-1.297-.04-2.356-.063-2.356-.047 0 .015.367.675.817 1.464.445.793.957 1.864 1.132 2.38.371 1.085.137 1.035 3.547.769m0 0"/>
    <path fill="#f9f9f9" d="M59.504 62.691V58.75h2.2v7.887h-2.2Zm6.258 0V58.75h2.195v7.887h-2.195Zm6.254 0V58.75h2.367v7.887h-2.367Zm0 0"/>
</svg>
