<svg xmlns="http://www.w3.org/2000/svg" width="120" height="120" viewBox="0 0 120 136">
    <path fill="red" stroke="red" stroke-width=".004" d="m-24.251 20.267-.325.286-.224.196-.589.47-.617.452-.632.418-.636.377v.858H-23v1.357h-4.274v2.738l-.015.346-.048.289-.085.238-.128.193-.177.154-.23.121-.287.095-.324.068-.07.008-.034.005-.26.031-.4.024-.442.009-.466-.003h-.016l-.054-.212-.037-.113-.041-.123-.01-.026-.086-.221-.102-.234-.006-.014-.106-.217-.008-.018-.073-.138-.013-.023-.01-.02-.008-.014-.005-.009-.004-.008.388.02.384.014.358.008.313.003.25-.001.162-.003.11-.012.084-.021.06-.034.038-.042.004-.005.023-.064.007-.084v-2.705H-33v-1.357h4.362v-1.578l.352-.181.363-.206.365-.225.284-.186.078-.05.35-.246.233-.172.1-.074h-5.4v-1.34h6.867l.301-.066.17.134.822.651-.498.482m1.068-4.442-.034.151-.053.131-.077.113-.103.094-.102.065-.007.005-.006.004-.124.054-.134.036-.147.023-.16.011-.168.003h-.007l-.022-.125-.001-.006-.031-.134-.043-.148-.05-.15-.032-.08-.026-.065-.063-.135V18h-1.015v-6.28h-.465v4.834h-.916v-5.901h1.381V9.539h-1.496V8.456H-23v1.091h-1.573v1.106h1.413v4.81l-.005.191-.018.171m-4.168-5.172v2.103h-1.603v.712h1.679v3.619h-1.68v.735h-.992V9.384h.497l.051-.187.013-.045.06-.236.06-.237.05-.234.048-.225.005-.028.033-.184 1.035.184.086.015.007.002H-28l-.062.181-.007.02-.068.2-.067.198-.066.196-.065.192v.001l-.062.187h1.046v1.269m-2.963 1.197.04.438.017.18.003.065.025.57.008.651-.006.582-.002.156-.028.726-.057.685-.073.481-.02.134-.137.515-.176.36-.013.027-.07.092-.082.082-.09.07-.102.057-.11.043-.118.027-.154.034-.163.026-.122.013-.049.005-.178.012-.184.004h-.189l-.01-.202-.025-.2-.015-.075-.024-.124-.053-.194-.028-.078-.04-.109-.01-.023-.03-.067-.003-.009-.01-.02-.01-.023-.007-.017-.006-.013-.003-.007.16.015.145.007h.131l.116-.003.072-.005.029-.003.087-.011.06-.007.055-.012.019-.008.029-.012.042-.027.037-.036.033-.045.085-.176.004-.017.063-.275.05-.387.028-.362.007-.099.02-.516.006-.348.002-.061.002-.141-.092.14-.059.092-.153.222-.156.213-.157.201-.157.188-.098.109-.06.065-.036-.065-.05-.09-.106-.176-.118-.182-.125-.178-.065-.086-.059-.077-.12-.136.18-.172.113-.11.291-.345.28-.393.261-.423.231-.437.12-.267.074-.166-.023-.176-.025-.174-.026-.172-.028-.169-.028-.166v-.001l-.03-.163-.161.163-.053.053-.108.105-.108.103-.11.1-.074.065-.016.013-.012.011-.007.006-.105-.128-.126-.138-.14-.14-.054-.05-.092-.085-.045-.039-.098-.084-.126-.096-.008-.006.178-.156.054-.052.121-.115.172-.175.168-.184.028-.032.135-.158.159-.195-.105-.215-.118-.213-.131-.211-.022-.032-.013-.019-.107-.158-.155-.207-.132-.164-.034-.042.034-.024.584-.41.23-.16.125.143.014.017.104.129.111.148.105.148.1.148.097.148.091-.152.087-.154.084-.154.08-.153.055-.108.02-.043.072-.149.003.002.309.19.665.41-.13.252-.139.25-.055.093-.092.155-.155.245-.16.241-.157.217-.013.018.013.04.042.127.134.414.137.591.093.605M-18.952 18l-.048-.291-1.382-8.48v-.032h-.007L-23 7.413l-5-3.416-5 3.416-2.61 1.784h-.008v.031L-37 17.708l-2.003 12.294h22.006L-17.16 29l-1.791-11M-41 32l3.8-22.803L-37 8l7.52-5.014L-28 2l7.225 4.817L-19 8l.2 1.197L-15 32h-26m16.893-16.552V11.72h-.466v3.821l.082.006.075.004.062.002.007.001.061.001.052.001h.043l.028-.002.021-.007.016-.013.011-.02.006-.03.002-.036m-4.847-3.767h.61V10.46h-.61v1.222m.68 2.862h-.68v1.477h.68Zm0 0" transform="matrix(4.29492 0 0 4.26451 180.387 -4.265)"/>
    <path fill="#f9f9f9" d="M13.094 122.91c.058-.347 3.324-20.25 7.261-44.234 3.934-23.985 7.184-43.633 7.22-43.668.292-.27 32.394-21.969 32.523-21.98.218-.024 32.562 21.91 32.644 22.136.09.262 14.434 87.8 14.434 88.106 0 .246-3.953.27-47.094.27H12.988Zm42.945-3.57c5.055-.473 6.79-1.727 7.188-5.2.09-.785.164-4.05.164-7.261l.004-5.832h18.257v-5.875H63.395v-3.61l.718-.402c3.02-1.695 7.606-4.96 10.692-7.617 1.968-1.691 3.75-3.426 3.625-3.531-.043-.035-.989-.774-2.106-1.64l-2.027-1.579-15.512.047-15.508.047v6.031h11.336c7.871 0 11.301.055 11.227.176-.195.316-5.555 3.75-7.063 4.527l-1.465.754-.003 3.398v3.399H38.543v5.875h18.766v5.95c0 5.058-.04 5.98-.254 6.194-.399.399-1.758.477-5.54.329-1.925-.075-3.507-.09-3.507-.032.004.055.34.813.754 1.68.414.863.957 2.195 1.21 2.957l.458 1.387h1.875c1.03 0 2.71-.078 3.734-.172m18.863-51.57c.016-5.13.063-5.29.782-2.582l.304 1.148 1.012-.11c1.445-.16 2.18-.406 2.863-.964 1.114-.914 1.114-.88 1.114-13.176V41.125H74.89v-4.531h6.761v-4.871h-17.75v4.703h6.422v4.699h-5.918v25.344h4.227V45.824h1.691v26.688h4.567ZM45.56 71.777c1.73-.37 2.562-.988 3.296-2.445.98-1.937 1.454-4.844 1.723-10.637.352-7.465-.144-13.523-1.469-18.05l-.558-1.91 1.226-1.868c.676-1.027 1.547-2.453 1.934-3.164l.71-1.293-.667-.418a194 194 0 0 0-1.828-1.125 134 134 0 0 1-1.52-.937c-.351-.23-.398-.18-1.336 1.617-.535 1.02-1.023 1.855-1.086 1.855-.062 0-.464-.507-.898-1.132-.434-.622-1.043-1.43-1.356-1.79l-.566-.66-1.762 1.23c-.968.677-1.824 1.282-1.898 1.348-.078.067.316.715.879 1.446a29 29 0 0 1 1.777 2.652l.758 1.332-.535.684c-.293.375-1.278 1.425-2.188 2.336L38.543 42.5l.465.344c.254.191 1.062.949 1.793 1.683l1.328 1.336 1.316-1.297 1.317-1.3.101.48c.055.266.215 1.195.352 2.066l.254 1.583-.91 1.859c-1.188 2.418-2.97 5.066-4.508 6.703-.88.938-1.188 1.375-1.074 1.527.89 1.196 1.937 2.72 2.336 3.383l.484.817.754-.836c.41-.461 1.215-1.48 1.781-2.266.566-.785 1.102-1.504 1.191-1.598.25-.254.012 5.45-.3 7.192-.293 1.66-.594 2.36-1.13 2.644-.21.114-1.116.196-2.124.196-1.551 0-1.742.03-1.649.273.453 1.164.79 2.383.95 3.457l.187 1.262L43 72.004c.852-.004 2-.106 2.559-.227m10.566-1.53v-1.595h7.27V53.043h-7.27v-2.855h6.93V35.585h-2.196c-1.21 0-2.199-.066-2.199-.148 0-.083.348-1.149.77-2.376s.707-2.285.633-2.351c-.141-.125-4.04-.832-4.594-.832-.242 0-.344.168-.43.71-.062.395-.348 1.68-.637 2.856l-.523 2.14H51.73V71.84h4.395Zm0 0"/>
    <path fill="#f9f9f9" d="M56.125 42.969v-2.516h2.367v5.035h-2.367Zm0 17.961v-3.02h2.703v6.043h-2.703Zm18.765-7.051v-8.055h1.86v16.114h-1.86Zm0 0"/>
</svg>
