<svg xmlns="http://www.w3.org/2000/svg" width="120" height="120" viewBox="0 0 120 136">
    <path fill="red" stroke="red" stroke-width=".004" d="M-79.615-9.947h-3.486v2.144h4.1v1.264h-4.1V-3h-1.362v-3.54h-4.366v-1.263h4.366v-2.144h-2.288l-.158.306-.16.294-.166.279-.17.264-.173.247-.174.224-.003.005-.166-.098-.143-.08-.064-.034-.23-.119-.233-.117-.22-.106-.01-.005-.111-.05-.068-.03.405-.483.371-.565.12-.225.214-.406.24-.558.053-.124.25-.715.066-.245.133-.488 1.132.218.19.036-.058.226-.061.224-.064.22-.007.024-.06.195-.07.216-.076.213h1.76V-13h1.36v1.796h3.487v1.257m.297-12.016-.495.685-.009.013-.02.029-.025.034-.005.007-.054.075-.015.02-.005.007-.181-.112-.216-.122-.242-.128-.096-.049-.166-.084-.276-.135-.282-.136.133.355.012.032.175.34.21.288.246.224.267.14.021.011.335.07.057-.018.046-.063.006-.008.025-.062.022-.055.042-.16.039-.2.008-.055.012-.076.006-.042.006-.034.002-.015v-.01l.106.135.117.137.122.134.126.124.123.11.104.077.014.01-.108.44-.15.34-.19.244-.229.151-.172.04-.095.022-.304-.023-.667-.188-.044-.012-.043-.012-.584-.394v-.001l-.31-.388-.13-.16-.032-.069-.285-.605-.222-.772-.149-.841h-5.507v-1.182h6.521l.009.15.01.149.013.146.028.29.015.143.25.08.166-.168.168-.182.165-.19.003-.002.155-.185.146-.182.128-.169.595.305.463.237.001.001-.054.045-.135.11-.188.157-.087.072-.099.082-.183.15-.045.038-.133.11-.173.14.06.025.17.074.22.1.183.086.026.012.194.099.176.097.158.097m-.15 3.51-.032.021-.157.112-.185.131-.03.02-.153.105-.179.119-.16.103-.009.006-.004.002.218.105.21.106.077.04.126.066.188.103.172.1.15.095-.622.835-.01.013-.004.006-.013.017-.051-.036-.13-.091-.212-.132-.238-.137-.257-.138-.271-.14-.278-.141.114.521.084.258.066.201.191.385.236.3.288.2.345.092.06-.025.054-.093.012-.04.035-.115.042-.208.037-.255.008-.078.011-.1.006-.053.004-.037.003-.02v-.006l.11.146.12.149.124.143.127.132.124.114.12.09-.109.52-.15.4-.138.206-.054.082-.233.179-.187.051-.088.024-.318-.024-.302-.1-.491-.163-.37-.318-.22-.19-.259-.437-.163-.277-.28-.875-.004-.011-.177-1.019-.102-1.115h-1.127v4.361h-1.218v-4.36h-1.256l-.068.773-.135.779-.17.592-.051.177-.328.745-.455.709-.531.582-.03.033-.019.02-.013.014-.007.008-.12-.146-.15-.162-.169-.165-.176-.16-.056-.044-.117-.096-.06-.043-.098-.07.512-.536.39-.57.14-.296.144-.3.194-.611.121-.618.065-.616h-1.34v-1.198h1.37v-1.078l-.15.035-.148.03-.147.031-.147.026-.068.01-.078.014-.006.001-.046.007-.035.005-.027.004-.02.003-.013.002-.041-.149-.06-.161-.072-.168-.082-.165-.088-.158-.077-.125-.011-.017.538-.118.118-.03.415-.106.52-.15.494-.164.462-.173.157-.067.018-.007.243-.103.092.103.672.75v-.75h1.218v2.668h2.239l.007.246v.025l.007.217.01.24.01.238.014.236.008.093v.007l.004.035.002.029.006.072.174.064.036-.033.016-.014.02-.019.094-.084.061-.057.11-.101.166-.16.16-.16.147-.151.128-.14.482.247.592.304-.189.14m-6.337-2.73-.21.057-.001.001-.214.056v1.342h1.24v-1.71l-.198.068-.203.064-.205.062-.21.06M-74.951-14l-.048-.291-1.382-8.48v-.032h-.007L-79-24.587l-5-3.416-5 3.416-2.61 1.784h-.008v.031L-93-14.292l-2.003 12.294h22.006L-73.16-3l-1.791-11M-97 0l3.8-22.803L-93-24l7.52-5.014L-84-30l7.225 4.817L-75-24l.2 1.197L-71 0Zm0 0" transform="matrix(4.29492 0 0 4.26451 420.902 132.2)"/>
    <path fill="#f9f9f9" d="M13.094 122.91c.058-.347 3.324-20.25 7.261-44.234 3.934-23.985 7.184-43.633 7.22-43.668.292-.27 32.394-21.969 32.523-21.98.218-.024 32.562 21.91 32.644 22.136.094.262 14.434 87.797 14.434 88.106 0 .246-3.864.27-47.094.27H12.988Zm50.976-10.953v-7.55h17.582v-5.54H64.07v-9.066h15.043v-5.54H64.07v-7.554h-6.086v7.555h-7.25l.336-.965c.477-1.363 1.348-4.45 1.274-4.524-.098-.093-5.051-1.05-5.469-1.054-.297-.004-.41.14-.559.71-1.488 5.75-4.199 11.344-7.195 14.84l-.598.7 2.672 1.355c1.47.746 2.75 1.356 2.844 1.356.258-.008 1.777-2.211 3.11-4.524.66-1.144 1.199-2.14 1.199-2.219 0-.074 2.168-.136 4.82-.136h4.816v9.066H39.22v5.54h18.765v15.105h6.086Zm15.082-40.008c1.067-.808 1.864-2.402 2.352-4.703l.21-.98-.769-.696c-.425-.382-1.132-1.132-1.578-1.664-.445-.535-.844-.933-.89-.886-.043.042-.184.757-.305 1.585-.125.832-.336 1.774-.473 2.094l-.246.582-.73-.183c-1.532-.38-2.621-1.446-3.614-3.524-.511-1.074-1.254-3.504-1.261-4.125 0-.254 3.37 1.45 4.972 2.508.547.367 1.051.605 1.114.531.492-.558 2.703-3.586 2.703-3.703 0-.16-1.856-1.234-3.575-2.066l-1.12-.543 2.21-1.54c1.22-.847 2.235-1.609 2.266-1.699.027-.085-1.004-.675-2.297-1.312l-2.348-1.156-2 1.957c-1.101 1.078-2.046 1.957-2.101 1.957s-.223-.094-.375-.207c-.23-.176-.297-.723-.395-3.192l-.117-2.976h-9.59V36.594h-5.41v3.02l-1.535-1.68c-.848-.922-1.613-1.676-1.707-1.676s-1.016.332-2.055.738c-2.394.938-5.172 1.793-7.972 2.457-1.207.285-2.325.555-2.48.598-.24.066-.173.281.452 1.457.403.758.825 1.699.942 2.094.238.808.03.789 2.61.277.648-.133 1.237-.238 1.308-.238s.125.984.125 2.183v2.184h-5.914v5.203h5.757l-.101.879c-.676 5.719-2.403 9.773-5.547 13.008-.648.672-1.148 1.238-1.11 1.265.852.59 2.704 2.219 3.329 2.926l.816.934.938-.989c1.394-1.46 1.84-2.023 2.8-3.504 2.164-3.34 3.606-8.074 4.028-13.218l.105-1.301h5.211V71.84h5.41V53.21h4.68l.21 2.392c.657 7.441 2.38 12.265 5.243 14.66.965.804 1.512 1.11 2.922 1.62 1.54.555 1.887.622 3.02.575 1.085-.047 1.375-.125 1.882-.508m-.445-22.031c1.246-.586 2.207-2.047 2.664-4.055l.211-.91-1.586-1.594c-.875-.875-1.601-1.566-1.621-1.535s-.16.684-.312 1.453c-.336 1.676-.485 1.895-1.204 1.766-1.37-.246-2.703-1.129-3.718-2.465-.524-.687-1.707-3.117-1.579-3.242.079-.078 3.665 1.684 5.227 2.566.441.25.832.422.867.383.031-.039.653-.894 1.38-1.898 1.558-2.157 1.702-1.825-1.493-3.371l-2.16-1.043 2.199-1.801c1.211-.988 2.246-1.867 2.297-1.95.055-.085-.965-.679-2.262-1.324l-2.355-1.175-.61.777a77 77 0 0 1-1.91 2.258c-1.27 1.445-1.664 1.687-2.203 1.347-.176-.109-.539-2.492-.55-3.597 0-.278-.79-.293-14.118-.293H41.754v5.203h11.824c11.113 0 11.828.016 11.91.293.047.16.203.973.348 1.805.89 5.168 2.852 8.922 5.68 10.875 2.101 1.453 5.718 2.222 7.191 1.527m0 0"/>
    <path fill="#f9f9f9" d="m50.754 45.207.047-2.8 2.113-.61c1.16-.34 2.281-.668 2.492-.738l.38-.125v7.074h-5.079Zm0 0"/>
</svg>
