<svg xmlns="http://www.w3.org/2000/svg" width="120" height="120" viewBox="0 0 120 136">
    <path stroke="red" stroke-width=".004" d="m3.937 20.18-.867.138-.928.121-.972.103-.997.088-.173.012-.832.06-.995.057v1.104h6.22v1.188H2.655v1.89H5v1.204H-5V24.94h1.843v-5.293l1.132-.057.198-.014.951-.064.876-.076.26-.023 1.088-.119 1.013-.138.907-.157.67 1.18m1.038 7.817-.88.81-.144.133-.015.014-.403-.274-.012-.008-.485-.302-.557-.33-.586-.332-.582-.321-.548-.293.006-.006.954-.835.535.254.583.29.597.308.577.313.08.046.444.256.436.277m-6.826-1.775.03.02 1.119.798-.483.353-.54.358-.577.35-.594.333-.464.238-.127.065-.569.263-.041-.048-.084-.096-.147-.164-.161-.172-.167-.172-.163-.159-.122-.111-.029-.027.56-.238.313-.155.267-.133.57-.32.537-.334.478-.333.394-.316m6.594-11.78.256.361-.904.575-.163.104-.048.03-.01.006-.01.008-.01.006-.008.005-.083-.139-.097-.144-.108-.149-.117-.153-.096-.12-.029-.038-.13-.161-.759.946-.38.31-.552.45-.084.045-1.017.552-1.263.461-1.421.346-1.35.22-.088.015-.06.01-.038.005-.026.005-.012.002-.075-.208-.093-.219-.108-.22-.12-.216-.126-.2-.035-.05-.067-.09-.028-.04.96-.1.908-.138.648-.135.202-.042.79-.222.276-.103.45-.169.281-.14.374-.187H-.731v-3.166h-4.237V11.15h1.486V8.718h1.336v2.433h1.478V8H.684v1.012h3.179v1.142H.684v.997h4.26v1.204H.58v3.043l.263-.183.246-.195.23-.207.213-.222.196-.237.013-.018.167-.236.642.236.558.205-.18-.205-.033-.038-.222-.239-.228-.235-.23-.228-.228-.22-.222-.21 1.073-.65.398.35.41.383.401.4.05.053.323.349.324.39m-7.685-1.84.04.013 1.327.398-.311.478-.352.47-.318.376-.063.075-.4.422-.405.381-.393.324-.008.006-.155-.128-.117-.087-.077-.058-.215-.151-.22-.146-.21-.13-.08-.046-.067-.037-.003-.002-.032-.018.032-.023.367-.26.39-.324.115-.112.254-.246.341-.38.303-.395.257-.4M9.048 18 9 17.709l-1.382-8.48v-.032h-.007L5 7.413 0 3.997l-5 3.416-2.61 1.784h-.008v.031L-9 17.708l-2.003 12.294h22.006L10.84 29 9.048 18M-13 32l3.8-22.803L-9 8l7.52-5.014L0 2l7.225 4.817L9 8l.2 1.197L13 32h-26m14.315-7.424V23.05h-3.142v1.89h3.142Zm0 0" transform="matrix(4.29492 0 0 4.26451 60.129 -4.265)"/>
    <path fill="#f9f9f9" d="M13.094 122.91c.058-.347 3.324-20.25 7.261-44.234 3.934-23.985 7.184-43.633 7.22-43.668.292-.27 32.394-21.969 32.523-21.98.218-.024 32.562 21.91 32.644 22.136.09.262 14.434 87.8 14.434 88.106 0 .246-3.953.27-47.094.27H12.988Zm31.484-4.246c3.363-1.559 7.848-4.164 11.121-6.453.793-.555 1.434-1.082 1.43-1.176s-1.121-.941-2.477-1.883l-2.465-1.715-1.03.81c-2.989 2.343-7.41 4.89-11.66 6.714l-.821.352 2.004 2.09c1.101 1.152 2.02 2.097 2.039 2.1.02.005.86-.374 1.86-.839m35.008-1.652 2.078-1.918-1.062-.668c-3.286-2.07-12.836-6.938-13.196-6.727-.394.239-4.011 3.453-4.011 3.57 0 .063.55.407 1.226.766 3.906 2.074 10.027 5.637 11.79 6.863.702.489.425.653 3.175-1.886m2.066-12.356v-2.601h-9.976v-7.89h7.437V88.96H52.406v-4.648l2.407-.118c4.746-.226 11.804-.851 16.44-1.457 3.04-.394 5.704-.812 5.802-.906.054-.055-2.528-4.797-2.778-5.102-.027-.035-1.25.133-2.718.375-6.079 1-14.211 1.793-22.746 2.22l-2.325.116v22.614h-7.945v5.203h43.11Zm-34.05-32.722c12.164-2.07 19.843-5.696 24.605-11.618.84-1.046 1.578-1.902 1.64-1.902.09 0 1.731 2.137 2.614 3.402.191.278.406.176 2.656-1.238 1.348-.848 2.485-1.57 2.528-1.61.402-.35-4.465-5.745-7.985-8.847l-1.312-1.156-2.32 1.394a257 257 0 0 0-2.387 1.446c-.036.027 1.164 1.273 2.664 2.77 1.5 1.491 2.703 2.741 2.668 2.773-.063.062-1.028-.262-3.282-1.094l-1.39-.516-.7.938a20 20 0 0 1-1.652 1.883c-.906.902-2.93 2.539-3.133 2.539-.054 0-.097-2.832-.097-6.293v-6.297h18.76v-5.371H63.223v-4.028H76.75v-5.035H63.223v-4.363H57.14v13.426h-6.086V32.898h-5.918v10.239H38.71v5.37h18.258v13.43l2.242.008 2.238.008-1.129.578c-3.937 2.008-10.691 3.692-17.465 4.352a43 43 0 0 0-1.64.191l-.63.094.673.977c.578.835 1.75 3.136 2.074 4.074.14.394.352.383 4.27-.285m-2.075-11.297c2.035-1.758 4.575-4.567 6.29-6.95 1.312-1.824 1.706-2.457 1.59-2.546-.118-.09-5.958-1.797-5.993-1.75-.016.023-.297.457-.621.964-1.523 2.395-4.64 5.63-7.035 7.301-.66.461-1.2.88-1.203.926 0 .043.562.414 1.25.824a27 27 0 0 1 2.488 1.707c.68.532 1.305.973 1.383.98.082.005.914-.648 1.851-1.456m0 0"/>
    <path fill="#f9f9f9" d="M52.406 98.11v-3.946h13.356v7.89H52.406Zm0 0"/>
</svg>
