<svg xmlns="http://www.w3.org/2000/svg" width="120" height="120" viewBox="0 0 120 136">
    <path stroke="red" stroke-width=".004" d="m31.784 19-.015 1.123-.005.357-.008.575-.007 1.972.016 1.177.006.372.003.21.04.806.029.61.056.422.07.524.19.344.043-.053.037-.152.031-.24.025-.314.005-.11.013-.267.01-.368v-.059l.11.191.113.193.116.187.106.16.01.015.114.157.108.13-.067.602-.092.489-.073.216-.055.162-.134.208-.02.033-.018.027-.224.16-.285.053-.447-.24-.062-.033-.113-.061-.047-.106-.366-.825-.137-.784-.041-.24-.07-.395-.044-.636-.071-1.016-.01-.147-.005-.225-.039-1.846-.004-1.878-.001-.357h-2.958l1.055.135h.011l-.01.03-.077.192-.138.348h1.697v3.376H25.68v-3.376h1.524l.03-.121.027-.122.022-.105.004-.016.023-.12.02-.113.017-.108h-2.065v2.149l-.004.256-.014.79-.067 1.15-.012.108-.006.054-.12 1.04-.085.443-.098.51-.046.24-.222.734-.032.103-.088.29-.462.983-.008.018-.004.009-.129-.12-.164-.137-.137-.102-.049-.038-.187-.129-.005-.003-.183-.113-.022-.011-.138-.069.433-.914.302-1.006.193-1.055.075-.727.034-.333.048-1.022.011-.94V19h7.688m-1.382 6.59h-1.907v.522h1.72v.938h-1.72v.546h2.365v1.042h-5.916v-1.042h2.373v-.546h-1.689v-.938h1.689v-.521h-1.9v-.962h4.985v.962m-.074-15.329h-1.946l-.034.076-.034.074-.034.072-.035.07-.036.068-.037.066h1.827v2.72h-3.197v.345h3.661v.707h-3.66v.353h3.802v.07l-.001.074-.001.084-.003.084-.003.073-.009.161-.009.16-.019.367-.037.497-.004.058-.047.435-.06.33-.073.236-.093.156-.093.098-.098.078-.103.06-.11.045-.117.03-.029.005-.094.013-.12.006-.146.005-.166.002h-.184l-.194-.002-.12-.001-.03-.001h-.026l-.016-.001h-.009l-.016-.14-.027-.149-.036-.153-.025-.086-.019-.064-.052-.141-.054-.12-.002-.004v-.002l.154.015.147.012h.011l.125.01.12.006.103.004.08.001.059-.002.05-.007.046-.013.04-.02.038-.027.037-.035.045-.082.012-.043.015-.056.011-.04.033-.2.021-.216.006-.061.024-.357.02-.446H25.71v-4.83h1.444l.017-.074.01-.05.004-.022.012-.07.01-.072.01-.07.012-.069h-1.736v-.778h4.835v.778m-5.053.995-.018 1.03v.018l-.068 1.155-.034.293-.067.582-.038.329-.162.849-.067.348-.157.522-.088.292-.095.316-.293.626-.178.382-.112-.107-.015-.015-.163-.135-.184-.136-.19-.13-.184-.11-.162-.08.427-.903.008-.016.303-1.008.194-1.056.109-1.06.048-1.025.011-.945V8h7.672l-.002.192-.011.924v.081l-.01.875-.002.191-.004 1.796.003.229.024 1.543.024.505.045.922.124.951.097.175.094.171.046-.053.03-.118.01-.033.032-.237.027-.312.02-.376.013-.362v-.034l.002-.022v-.01l.102.189.11.192.115.188.107.163.009.014.114.158.109.132-.039.35-.028.26-.095.493-.07.204-.06.175-.172.268-.222.16-.28.056-.194-.105-.431-.233-.073-.165-.344-.777-.059-.336-.192-1.1-.02-.3-.038-.523-.008-.125-.061-.87-.026-1.178-.02-.915-.004-1.11-.004-1.066v-.081h-5.285v2.142m3.94 5.058.028.068.04.088.05.14-.644.28-.017-.056-.029-.096-.06-.166-.073-.174-.007-.016-.075-.16-.089-.172-.092-.163.425-.167.166-.065.104.156.1.166.091.17.081.167m-1.94-.37.008-.003.636-.166.076.21.07.224.048.173.015.055.053.222.041.208.026.184-.034.01-.013.003-.02.006-.532.154-.02.006-.03.009-.022.006-.015.004-.01.003-.02-.191-.032-.215-.044-.227-.054-.233-.001-.004-.06-.224-.066-.215m-.202.426.001.013.021.266.015.27.008.255v.223l-.493.054-.166.018-.03.004-.02.002-.013.002h-.004l.005-.225v-.252l-.005-.269-.014-.277-.006-.07-.016-.206-.032-.266h.01l.29-.032.381-.04.038.257.03.273m-.955-.006-.007.02-.113.301-.143.31-.169.291-.085.112-.114.15-.233.226-.553-.39-.069-.05-.052-.036-.003-.002-.027-.019.027-.026.185-.174.19-.232.168-.257.108-.205.036-.069.118-.284.089-.286.24.095.51.202-.103.323M37.047 18 37 17.709l-1.382-8.48v-.032h-.007L33 7.413l-5-3.416-5 3.416-2.61 1.784h-.008v.031L19 17.708l-2.003 12.294h22.006L38.84 29l-1.791-11M15 32l3.8-22.803L19 8l7.52-5.014L28 2l7.225 4.817L37 8l.2 1.197L41 32H15m11.928-9.864h2.108v-.482h-2.282v.482h.174m-.174 1.259h2.282v-.506h-2.282v.506m2.152-12.016h-2.104v.361h2.104v-.36m0 1.34v-.37h-2.104v.37Zm0 0" transform="matrix(4.29492 0 0 4.26451 -60.129 -4.265)"/>
    <path fill="#f9f9f9" d="M13.02 123.414c.011-.344 14.5-88.355 14.554-88.406.293-.27 32.395-21.969 32.524-21.98.218-.024 32.562 21.91 32.644 22.136.094.262 14.434 87.797 14.434 88.106 0 .246-3.864.27-47.078.27-25.895 0-47.078-.056-47.078-.126m31.136-6.168c2.262-4.824 3.653-11.406 4.192-19.805.093-1.476.168-5.648.168-9.273v-6.59h8.668l-.106.777c-.058.43-.187 1.07-.285 1.43l-.176.645H50.04v14.6h19.44v-14.6h-7.25l.485-1.168.484-1.172-.535-.086c-.297-.05-.996-.156-1.55-.238-.727-.106.566-.157 4.5-.168l5.511-.02.094 9.524c.101 10.746.344 14.89 1.144 19.511.442 2.567.617 3.188 1.367 4.907.477 1.078.989 2.07 1.137 2.199.153.129.785.5 1.41.824.977.504 1.235.57 1.817.465 1.926-.348 3.054-2.66 3.476-7.098.114-1.238.114-1.25-.472-2.012a22 22 0 0 1-1.223-1.828c-1.293-2.164-1.148-2.265-1.371.95-.106 1.57-.25 3.066-.32 3.328l-.125.472-.391-.648c-.969-1.61-1.277-7.274-1.266-23.168l.008-12.297H43.316l-.09 10.953c-.081 9.488-.136 11.324-.43 13.723-.679 5.652-1.667 9.504-3.323 12.988-.52 1.094-.922 2.008-.895 2.027s.469.274.98.559c.512.29 1.5.977 2.196 1.531.7.555 1.312.953 1.363.89.055-.066.524-1.026 1.04-2.132m28.367-1.594v-2.351H62.38v-2.184h7.27v-4.027h-7.27v-2.184h8.113v-4.195h-21.47v4.195h8.118v2.184h-7.27v4.027h7.27v2.184H46.996V118h25.527ZM44.133 70.32c2.293-4.925 3.66-11.515 4.207-20.242.097-1.582.176-5.68.176-9.105v-6.227h22.433l.121 8.602c.145 10.414.52 16.449 1.29 20.773.456 2.555.636 3.195 1.41 4.95l.882 2.011 1.258.719c1.438.82 2.207.875 3.27.219 1.117-.684 2.093-3.434 2.386-6.727.114-1.246.11-1.266-.464-2.012a26 26 0 0 1-1.274-1.93c-1.207-2.042-1.203-2.042-1.21-.566-.013 1.54-.305 4.535-.5 5.055-.13.347-.165.324-.5-.328-.958-1.867-1.27-7.621-1.263-23.34l.004-12.461H43.316l-.093 11.121c-.078 9.695-.133 11.461-.422 13.805-.696 5.59-1.735 9.597-3.34 12.883-.805 1.656-.887 1.91-.648 2.054 1.226.758 2.648 1.746 3.28 2.281.419.356.829.625.915.602.082-.027.59-.984 1.125-2.137m24.246 1.63c.973-.423 1.558-1.048 1.95-2.087.44-1.168.816-4.37.952-8.136l.11-2.977H55.109v-1.176h15.723v-3.191H55.109v-1.34h13.696v-11.75H61.02l.859-1.68h8.277V36.09h-20.96v3.523h3.718c4.137 0 3.863-.086 3.613 1.153l-.105.527h-6.215v20.645h16.586l-.09.964c-.05.532-.133 1.61-.191 2.391-.227 3.238-.434 3.457-3.11 3.305l-1.832-.106.313.817c.172.449.406 1.324.52 1.945l.21 1.125 2.547-.07c1.93-.051 2.707-.137 3.219-.36m-19.324-.91a14 14 0 0 0 2.039-2.978c.625-1.226 1.511-3.812 1.36-3.957-.153-.144-3.134-1.347-3.188-1.285-.02.024-.278.66-.57 1.418-.602 1.547-1.852 3.535-2.778 4.407-.336.316-.61.656-.61.753.005.16 2.817 2.243 3.063 2.266.059.004.367-.277.684-.625m6.879-.993.57-.098-.117-2.117c-.114-2.11-.375-4.383-.512-4.52-.04-.039-.734-.019-1.543.047l-1.465.121.106 1.27c.058.695.109 2.246.109 3.441v2.18l1.14-.113a31 31 0 0 0 1.712-.211m3.867-1.094c1.355-.367 1.394-.394 1.394-.887-.008-.902-1.011-4.636-1.347-5.004-.114-.124-2.63.418-2.82.61-.048.043.152 1.004.437 2.133.285 1.125.52 2.257.52 2.52 0 .523.148.995.312 1.003.062 0 .738-.168 1.504-.375m5.023-1.808c1.012-.454 1.117-.543 1.012-.883-.14-.461-1.512-3.137-1.824-3.563-.242-.324-.172-.34-2.504.555l-.446.172.723 1.433c.399.786.824 1.778.953 2.2.262.89.274.89 2.086.086m0 0"/>
    <path fill="#f9f9f9" d="M55.105 44.984v-.714h8.848v1.425h-8.848Zm0 4.211v-.77h8.848v1.544h-8.848Zm-.238 39.942v-.95h9.684v1.899h-9.684Zm0 5.281V93.41h9.684v2.016h-9.684Zm0 0"/>
</svg>
