<svg xmlns="http://www.w3.org/2000/svg" width="120" height="120" viewBox="0 0 120 136">
    <path fill="red" stroke="red" stroke-width=".004" d="m59.2 20.749-.589.47-.617.452-.632.418-.018.01-.618.367v.858H61v1.357h-4.274v2.738l-.015.346-.048.289-.085.238-.128.193-.177.154-.063.033-.166.088-.288.095-.324.068-.363.044-.401.024-.442.009-.466-.003h-.016l-.054-.212-.037-.113-.041-.123-.01-.026-.086-.221-.102-.234-.006-.014-.106-.217-.008-.018-.046-.087-.067-.125.067.003.32.018.385.013.358.008.313.003.25-.001.162-.003.11-.012.084-.021.06-.034.006-.005.036-.042.023-.064.007-.084v-2.705H51v-1.357h4.362v-1.578l.352-.181.363-.206.365-.225.284-.186.078-.05.35-.246.19-.14.143-.106h-5.4v-1.34h6.867l.301-.066.992.785-.498.482-.158.14-.391.342m1.512-10.087v1.312H57.04l.119.314.186.493.092.244.5.975.603.883.71.774.821.651.138.076.602.33.07.04.046.024.036.02.022.012.016.01-.167.153-.176.189-.176.21-.164.22-.144.213-.114.195-.91-.544-.796-.663-.367-.409-.328-.366-.314-.46-.288-.42-.424-.802-.092-.175-.379-.918-.032-.076-.02-.05-.01-.024-.129.405-.145.4-.164.392-.022.046-.162.339-.208.378-.045.07-.188.3.296-.201.013.012.317.289.346.328.343.34.182.193.14.147.281.322.222.291-1.01.741-.02.015-.027.02-.025.02-.025.018-.016.01-.181-.264-.23-.295-.266-.314-.29-.323-.303-.321-.064-.067-.236-.244-.232.244-.104.11-.369.336-.405.32-.125.087-.317.217-.479.284-.307.155-.087.044-.06.03-.03.016-.024.012-.011.005-.113-.176-.137-.19-.157-.193-.169-.189-.178-.174-.18-.15 1.01-.544.158-.085.932-.731.149-.169.573-.647.254-.416.284-.468.382-.93.169-.65.081-.314h-3.68v-1.312h3.862l.031-.422.003-.043.02-.458.013-.451.001-.09.001-.046.005-.306.004-.43.002-.224.003-.192h1.38l-.002.192-.004.227-.008.431-.01.347-.002.094-.018.45-.025.457-.003.042-.033.422h4.181M65.048 18 65 17.709l-1.382-8.48v-.032h-.007L61 7.413l-5-3.416-5 3.416-2.61 1.784h-.008v.031L47 17.708l-2.003 12.294h22.006L66.84 29l-1.791-11M43 32l3.8-22.803L47 8l7.52-5.014L56 2l7.225 4.817L65 8l.2 1.197L69 32Zm0 0" transform="matrix(4.29492 0 0 4.26451 -180.387 -4.265)"/>
    <path fill="#f9f9f9" d="M13.094 122.91c.058-.347 3.324-20.25 7.261-44.234 3.934-23.985 7.184-43.633 7.22-43.668.292-.27 32.394-21.969 32.523-21.98.218-.024 32.562 21.91 32.644 22.136.094.262 14.434 87.797 14.434 88.106 0 .246-3.864.27-47.094.27H12.988Zm42.945-3.57c5.055-.473 6.79-1.727 7.188-5.2.09-.785.164-4.05.164-7.261l.004-5.832h18.257v-5.875H63.395v-3.61l.718-.402c3.02-1.695 7.606-4.96 10.692-7.617 1.968-1.691 3.75-3.426 3.625-3.531-.043-.035-.989-.774-2.106-1.64l-2.027-1.579-15.512.047-15.508.047v6.031h11.336c7.871 0 11.301.055 11.227.176-.195.316-5.555 3.75-7.063 4.527l-1.465.754-.003 3.398v3.399H38.543v5.875h18.766v5.95c0 5.058-.04 5.98-.254 6.194-.399.399-1.758.477-5.54.329-1.925-.075-3.507-.09-3.507-.032.004.055.34.813.754 1.68.414.863.957 2.195 1.21 2.957l.458 1.387h1.875c1.03 0 2.71-.078 3.734-.172M45.121 71.332c2.613-1.45 5.23-3.367 7.063-5.176.761-.75 1.421-1.363 1.472-1.363.2 0 4.446 4.723 5.535 6.16l1.176 1.55 2.063-1.519c1.133-.832 2.25-1.652 2.476-1.82l.418-.305-.71-.933c-.88-1.156-4.192-4.578-5.989-6.188-1.18-1.054-1.387-1.18-1.668-1.008-.496.31-.547.243-.2-.261.95-1.367 2.27-4.16 3.18-6.73.305-.86.59-1.598.63-1.637.038-.043.437.816.882 1.902 2.5 6.101 6.207 11.375 10.434 14.84 1.535 1.261 5.262 3.676 5.652 3.664.078-.004.485-.54.903-1.192.417-.648 1.32-1.785 2.007-2.52.688-.734 1.22-1.362 1.184-1.398-.04-.039-.965-.562-2.055-1.171-4.996-2.774-8.93-6.946-12.02-12.75-.613-1.153-1.452-2.985-1.863-4.075-.41-1.09-.8-2.117-.863-2.277-.113-.277.324-.293 7.762-.293h7.879v-5.707H62.5l.11-1.219c.062-.668.16-3.238.222-5.707l.11-4.488h-6.09l-.114 5.16c-.062 2.84-.16 5.406-.215 5.707l-.097.547H39.895v5.707h7.863c4.32 0 7.86.043 7.86.094 0 .05-.227.976-.505 2.054-1.984 7.696-6.8 13.7-14.086 17.547l-2.492 1.317 1.492 1.55c.82.852 1.715 1.903 1.989 2.333.277.433.609.785.738.785.133 0 1.2-.532 2.367-1.18m0 0"/>
</svg>
