<svg xmlns="http://www.w3.org/2000/svg" width="120" height="120" viewBox="0 0 120 136">
    <path fill="red" stroke="red" stroke-width=".004" d="m58.18 45.403-.522.256-.314.158-.266.134-.609.32-.605.338-.569.348-.21.147-.258.181-.404.336-.331.35-.248.363-.155.382-.054.403.006.033.063.362.207.327.344.257.48.186.62.112.753.038.642-.016.594-.039.084-.005.691-.068.676-.088.636-.103.569-.113-.017 1.704-.527.082-.57.07-.614.06-.658.044-.27.01-.434.018-.75.01-1.131-.058-1-.188-.781-.315-.057-.023-.639-.508-.408-.698-.144-.909.015-.149.052-.484.191-.581.3-.534.395-.495.295-.287.18-.175.544-.435-.047-.09-.23-.44-.28-.563-.007-.012-.274-.578-.28-.61-.277-.623-.021-.048-.253-.583 1.318-.538.052-.021.05-.02.038-.016.03-.012.017-.007.235.614.243.583.003.01.253.567.254.54.253.51.122.232.124.24.424-.24.067-.038.485-.266.421-.228.043-.023.43-.23.18-.096.201-.108.318-.173.216-.129.201-.122.187-.118.175-.117.164-.118.118-.093.037-.03.004.008.014.022.804 1.355-.18.107-.187.107-.192.106-.2.106-.15.078-.055.03-.212.106-.429.21M61 56.29l-.146.157-.157.184-.158.2-.151.204-.135.198-.068.112-.041.068-.177-.068-.057-.022-.236-.096-.237-.103-.044-.02-.193-.088-.235-.112-.235-.115v.64h-2.105v1.13h3.331v1.153h-1.647l1.045.397-.186.304-.19.305-.19.3-.185.29-.087.133-.091.138-.168.245h2.248V63h-9.038v-1.177h2.06l-.098-.262-.052-.12-.072-.17-.056-.118-.09-.186-.16-.31-.166-.302-.17-.286.381-.167.13-.057.075-.032.233-.102H51.97v-1.154h3.323v-1.13h-2.12v-.53l-.222.107-.222.104-.223.1-.225.094-.103.042-.123.05-.228.088-.069-.138-.03-.06-.124-.208-.14-.211-.15-.206-.114-.14-.044-.054-.091-.102-.065-.074.97-.334.935-.42.343-.198.072-.041.46-.266.796-.59.692-.677.028-.037.317-.426.038-.052.184-.248.536.248.644.298-.096.146-.096.144-.05.073-.05.073.562.47.06.04.593.41.674.394.046.027.734.363.031.015.788.326.641.213.062.02.036.013.022.007.018.006.01.003m-3.52-.26-.136-.098-.179-.127-.308-.23-.297-.239-.045-.04-.241-.205-.261-.24-.013-.01-.257.262-.208.194-.06.056-.279.24-.287.226-.296.217-.305.207h3.497l-.324-.214M66.839 63 65 51.709l-1.381-8.48v-.032h-.007L60 40.73l-4-2.733-4 2.733-3.61 2.467h-.008v.031L47 51.708l-2.003 12.294h22.006L66.84 63M43 66l3.8-22.803L47 42l7.52-5.014L56 36l7.225 4.817L65 42l.2 1.197L69 66H43m15.15-6.29h-1.526v2.113h1.308l-.588-.25-.11-.046.053-.087.057-.09.055-.089.169-.297.166-.316.157-.323.14-.316.12-.298m-2.858 1.418V59.71h-1.579l.185.28.181.3.171.304.152.3.127.283.094.255-.016.007-.84.383h1.525Zm0 0" transform="matrix(4.29492 0 0 4.26451 -180.387 -149.258)"/>
    <path fill="#f9f9f9" d="M13.02 123.414c.011-.344 14.5-88.355 14.554-88.406.293-.27 32.395-21.969 32.524-21.98.218-.024 32.562 21.91 32.644 22.136.094.262 14.434 87.797 14.434 88.106 0 .246-3.864.27-47.078.27-25.895 0-47.078-.056-47.078-.126m66.601-6.504v-2.601h-9.594l1.133-1.723c1.797-2.73 3.39-5.297 3.39-5.461 0-.082-.894-.496-1.984-.922l-1.988-.77 3.34-.011 3.336-.012v-5.035H62.887v-4.7h9.129v-1.257c0-.691.039-1.258.09-1.258.046 0 .605.258 1.238.574 1.16.579 4.367 1.942 4.566 1.942.059 0 .281-.309.496-.684.219-.375 1.04-1.476 1.828-2.453.79-.973 1.407-1.797 1.375-1.828-.03-.031-.754-.285-1.605-.559-5.527-1.793-11.695-5.093-15.512-8.297a58 58 0 0 0-1.07-.886c-.027-.016.23-.457.578-.973.344-.52.598-.965.559-.992-.164-.117-5-2.297-5.098-2.297-.063 0-.68.738-1.371 1.637-3.906 5.086-9.707 8.969-17.348 11.62-1.164.403-2.144.755-2.18.782-.035.031.192.34.512.688.727.8 1.98 2.562 2.602 3.656.261.46.492.86.511.887.02.03 1.204-.45 2.633-1.063s2.692-1.152 2.809-1.2c.156-.066.21.18.21.938v1.024h9.13v4.699h-14.2v5.035l6.172.008-1.609.695c-.883.387-1.625.715-1.652.73-.028.02.308.63.746 1.356.824 1.375 2.418 4.614 2.734 5.563l.184.547H40.57v5.203h39.051Zm-8.2-44.812c3.013-.32 5.665-.703 5.798-.836.054-.051.129-1.719.172-3.703.09-4.059.191-3.778-1.235-3.438-1.246.293-7.582 1.156-9.89 1.344-3.555.289-8.098.246-9.961-.094-4.22-.77-6.2-2.492-6.153-5.355.04-2.118 1.094-4.016 3.434-6.176 2.535-2.34 5.906-4.363 13.95-8.375 6.112-3.047 8.874-4.528 8.874-4.754 0-.117-3.144-5.5-3.465-5.926-.02-.023-.976.578-2.132 1.344a63 63 0 0 1-4.293 2.55 711 711 0 0 0-5.704 3.063c-1.93 1.043-3.574 1.899-3.652 1.899-.312 0-4.156-8.207-5.695-12.168-.36-.922-.664-1.696-.676-1.72-.023-.046-6.04 2.388-6.402 2.59-.2.114-.168.305.187 1.145 1.059 2.504 3.727 8.223 5.133 11.016l1.547 3.066-.649.512c-1.722 1.363-3.191 2.738-4.117 3.863-3.004 3.649-3.996 7.008-3.304 11.168.253 1.528.406 1.957 1.14 3.239.723 1.265 1.05 1.644 2.281 2.628 1.196.954 1.774 1.278 3.407 1.899 1.886.719 4.804 1.367 6.87 1.527 2.083.164 12.13-.05 14.536-.308m0 0"/>
    <path fill="#f9f9f9" d="M53.512 90.332c.09-.074.914-.695 1.84-1.375a41 41 0 0 0 3.234-2.719l1.562-1.48.903.808c1.691 1.508 2.761 2.352 4.605 3.63l1.836 1.277h-7.07c-3.887 0-6.996-.063-6.91-.141m-.809 23.211c.86-.402 1.563-.832 1.563-.95-.004-.421-1.473-3.433-2.528-5.167-.586-.969-1.101-1.82-1.14-1.887-.04-.07 1.379-.129 3.148-.129h3.223v8.899l-2.914-.016-2.918-.012Zm10.184-3.683v-4.45h3.129c2 0 3.125.063 3.125.172 0 .363-1.676 3.863-2.672 5.578-.574.992-1.047 1.867-1.047 1.945s.531.356 1.183.614c.653.261 1.184.5 1.184.531s-1.102.059-2.453.059h-2.45Zm0 0"/>
</svg>
