<svg xmlns="http://www.w3.org/2000/svg" width="120" height="120" viewBox="0 0 120 136">
    <path stroke="red" stroke-width=".004" d="M79 29v-1.403h4.277v-3.065h-3.236v-1.41h3.236V20.42h-3.752V19h8.91v1.42H84.66v2.701h3.346v1.41H84.66v3.066H89V29H79m10-16.863-.148.143-.007.008-.148.162-.155.187-.145.194-.075.11-.052.079-.1.176-.274-.106-.265-.119-.058-.03-.201-.1-.252-.14-.247-.151-.242-.16v.552h-2.07v1.167h-1.205v-1.167h-2.178v-.445l-.216.14-.224.138-.23.134-.238.129-.246.124-.152.07-.026.012-.036.017-.026.012-.015.007-.085-.168-.114-.183-.134-.185-.145-.177-.148-.158-.136-.121-.007-.006.289-.13.265-.119.512-.272.472-.292.433-.31.395-.326.361-.339H79.29v-1.16h3.359l.079-.137.046-.08.116-.22.107-.221.097-.222.087-.226.012-.036.065-.192 1.19.192.143.023-.074.19-.08.191-.082.188-.088.186-.094.184-.024.043-.076.138h4.57v1.16H86.22l.383.35.422.324.457.296.484.263.508.225.513.179.013.005m-2.4 1.228v1.112h2.155v1.175H86.6v2.333h-1.27v-2.333h-2.902l-.136.435-.144.297-.062.13-.165.232-.126.178-.39.389-.505.36-.527.272-.048.024-.027.014-.021.011-.012.006-.102-.15-.132-.167-.152-.171-.16-.165-.054-.048-.106-.097-.017-.014-.088-.068-.042-.033.445-.208.371-.222.305-.236.036-.037.208-.21.19-.257.144-.265h-1.942v-1.175h2.163V13.38h1.211v1.097h2.787v-1.112h1.27M93.048 18 93 17.709l-1.382-8.48v-.032h-.007L89 7.413l-5-3.416-5 3.416-2.61 1.784h-.008v.031L75 17.708l-2.003 12.294h22.006L94.84 29l-1.791-11M71 32l3.8-22.803L75 8l7.52-5.014L84 2l7.225 4.817L93 8l.2 1.197L97 32H71m13.965-21.257-.17-.249h-1.46l-.192.24-.155.182-.044.052-.208.228-.22.224-.228.22-.242.213h1.31v-.937h1.204v.937h1.41l-.221-.204-.211-.213-.201-.222-.191-.23-.05-.068Zm0 0" transform="matrix(4.29492 0 0 4.26451 -300.644 -4.265)"/>
    <path fill="#f9f9f9" d="M13.094 122.91c.058-.347 3.324-20.25 7.261-44.234 3.934-23.985 7.184-43.633 7.22-43.668.292-.27 32.394-21.969 32.523-21.98.218-.024 32.562 21.91 32.644 22.136.094.262 14.434 87.797 14.434 88.106 0 .246-3.864.27-47.094.27H12.988Zm68.558-6.504v-3.105H63.055v-12.926h14.37v-6.21h-14.37V82.917h16.23v-6.211H40.742v6.211H56.97v11.246H43.11v6.211h13.86V113.3H38.543v6.21h43.11ZM45.52 71.902c1.453-.722 3.683-2.293 4.539-3.195 1.406-1.48 2.52-3.39 3.183-5.469l.203-.629h12.317v9.903h5.578v-9.903h9.297v-5.203H71.34v-4.699h-5.578v4.7H53.926v-4.7h-5.41v4.7h-9.297v5.202h8.304l-.378.676c-.965 1.695-3.446 3.746-5.786 4.774-.527.23-.957.46-.957.511s.485.543 1.078 1.094c.594.55 1.403 1.418 1.797 1.926.395.508.785.922.871.922.082 0 .7-.274 1.372-.61m17.027-18.355v-2.52h8.96v-1.09c0-.601.036-1.093.079-1.093s.559.308 1.14.687c1.301.84 4.317 2.305 4.977 2.418.442.078.543-.011 1.23-1.082.41-.64 1.2-1.664 1.75-2.273.555-.61.981-1.133.946-1.164-.035-.032-.633-.258-1.332-.504-3.059-1.074-6.992-3.356-9.262-5.364l-1.062-.94h10.156v-5.204H70.41c-5.347 0-9.722-.027-9.722-.063 0-.035.187-.394.41-.796.597-1.07 1.66-3.692 1.543-3.805-.086-.086-5.743-1.05-5.766-.984-.395 1.14-1.426 3.511-1.906 4.386l-.645 1.176-7.297.043-7.3.047v5.2h10.34l-.97.878c-2.324 2.113-4.827 3.781-8.144 5.422l-2.406 1.195.531.488c.66.618 2.45 2.977 2.594 3.426.058.188.219.34.351.34.332 0 2.528-1.105 4.297-2.164l1.438-.86.101 1.68h9.45v5.035h5.238Zm0 0"/>
    <path fill="#f9f9f9" d="M53.629 44.691c.832-.808 2.008-2.054 2.613-2.77l1.094-1.3h6.148l.95 1.3c.523.716 1.574 1.962 2.336 2.77l1.386 1.47h-5.61v-4.028H57.31v4.027h-5.2Zm0 0"/>
</svg>
