<svg xmlns="http://www.w3.org/2000/svg" width="120" height="120" viewBox="0 0 120 136">
    <path stroke="red" stroke-width=".004" d="M-51.317 55.018h-4.076v.524h3.251v4.292h-3.251v.577H-51v1.148h-4.393V63h-1.341v-1.44H-61v-1.15h4.266v-.577h-3.172v-4.292h3.172v-.524h-4.004V53.87h4.004V53h1.34v.87h4.077v1.147m0-10.98-.496.684-.1.139-.013.019-.015.02-.005.007-.181-.112-.216-.122-.242-.128-.262-.133-.276-.135-.125-.06-.157-.076.145.387.012.023.163.318.136.187.073.1.247.224.288.151.335.07.057-.018.052-.071.047-.117.042-.16.035-.18.004-.02.003-.017.002-.018.003-.02.003-.015.003-.02v-.007l.02-.125v-.01l.106.135.101.118.016.019.122.134.126.124.064.057.059.052.118.088-.108.44-.069.157-.08.183-.19.244-.23.151-.267.062-.304-.023-.667-.188-.087-.024-.223-.15-.36-.244-.44-.55-.251-.532-.067-.141-.19-.664-.032-.108-.149-.841h-5.507V42.12h6.521l.009.15.01.149.013.146.028.29.015.143.25.08.15-.152.016-.016.168-.182.165-.19.158-.187.146-.182.128-.169 1.058.542.001.001-.054.045-.135.11-.188.157-.185.153v.001l-.184.15-.045.038-.133.11-.12.095-.024.02-.018.015-.008.007-.003.002.23.1.22.1.209.098.194.099.176.097.15.092.008.005m-5.87.594-.156.05-.048.014-.205.062-.21.06-.21.058-.214.056v1.342h1.24v-1.71l-.198.068m1.416-1.026v2.668h2.239l.007.246.005.186.002.056.01.24.004.103.006.135.014.236.02.236.174.064.044-.04.122-.11.17-.158.167-.16.16-.16.042-.043.105-.108.055-.06.073-.08.483.248.591.303-.189.14-.188.133-.185.131-.183.125-.179.119-.113.073-.014.008-.022.015-.012.007-.008.006-.004.002.218.105.21.106.203.106.188.103.172.1.152.095-.278.371-.336.45-.006.009-.014.018-.01.013-.007.01-.181-.127-.212-.132-.238-.137-.193-.104-.064-.034-.271-.14-.278-.141.069.315.005.023.04.183.15.46.191.384.236.3.288.2.345.092.06-.025.054-.093.047-.155.042-.208.02-.137.017-.118.03-.268.002-.02v-.006l.11.146.12.149.102.117.022.026.127.132.045.042.079.072.12.09-.109.52-.054.142-.097.258-.19.288-.234.179-.275.075-.318-.024-.793-.263-.177-.152-.414-.355-.42-.715-.285-.886-.079-.453-.05-.29-.048-.276-.102-1.115h-1.127v4.361h-1.218v-4.36h-1.256l-.068.773-.135.779-.037.128-.184.641-.328.745-.455.709-.58.635-.013.014-.007.008-.12-.146-.15-.162-.163-.16-.006-.005-.176-.16-.056-.044-.117-.096-.06-.043-.098-.07.512-.536.39-.57.284-.596.052-.164.142-.447.121-.618.065-.616h-1.34v-1.198h1.37v-1.078l-.15.035-.148.03-.147.031-.147.026-.146.024-.134.02-.013.002-.041-.149-.058-.158-.001-.003-.073-.168-.082-.165-.088-.158-.088-.142.476-.104.062-.014.533-.136.257-.075.262-.076.495-.163.462-.173.418-.177.41.46.354.394v-.751h1.218m8.82 8.395-.047-.291-1.382-8.48v-.032h-.007L-51 41.413l-5-3.416-5 3.416-2.61 1.784h-.008v.031L-65 51.708l-2.003 12.294h22.006L-45.16 63l-1.791-11M-69 66l3.8-22.803L-65 42l7.52-5.014L-56 36l7.225 4.817L-47 42l.2 1.197L-43 66h-26m11.656-9.448h-1.309v.654h1.919v-.654h-.61m3.878 0h-1.927v.654h1.927v-.654m0 2.265v-.655h-1.927v.655h1.927m-3.268 0v-.655h-1.919v.655Zm0 0" transform="matrix(4.29492 0 0 4.26451 300.644 -149.258)"/>
    <path fill="#f9f9f9" d="M13.094 122.91c.058-.347 3.324-20.25 7.261-44.234 3.934-23.985 7.184-43.633 7.22-43.668.292-.27 32.394-21.969 32.523-21.98.218-.024 32.562 21.91 32.644 22.136.094.262 14.434 87.797 14.434 88.106 0 .246-3.864.27-47.094.27H12.988Zm49.793-6.504v-3.105h18.765v-5.035H62.887v-2.352H76.75v-18.46H62.887v-2.016h17.41v-5.036h-17.41v-3.695h-5.918v3.695H39.727v5.035h17.242v2.016H43.277v18.461H56.97v2.352H38.543v5.035h18.426v6.21h5.918ZM79.152 71.95c1.067-.808 1.864-2.402 2.352-4.703l.21-.98-.769-.696c-.425-.382-1.132-1.132-1.578-1.664-.445-.535-.844-.933-.89-.886-.043.042-.184.757-.305 1.585-.125.832-.336 1.774-.473 2.094l-.246.582-.73-.18c-1.547-.382-2.61-1.421-3.614-3.527-.511-1.07-1.254-3.5-1.261-4.125 0-.254 3.37 1.45 4.972 2.508.547.367 1.051.605 1.114.531.468-.531 2.703-3.582 2.703-3.691 0-.188-.465-.465-2.77-1.656-1.918-.993-1.992-1.051-1.61-1.25.661-.34 4.212-2.868 4.212-2.993 0-.066-1.059-.636-2.348-1.273l-2.348-1.156-2 1.957c-1.101 1.078-2.046 1.957-2.101 1.957s-.223-.094-.375-.207c-.23-.176-.297-.723-.395-3.192l-.117-2.976h-9.59V36.594h-5.41v3.02l-1.535-1.68c-.848-.922-1.613-1.676-1.707-1.676s-1.016.332-2.055.738c-2.394.938-5.172 1.793-7.972 2.457-1.207.285-2.325.555-2.48.598-.24.066-.173.281.452 1.457.403.758.825 1.699.942 2.094.238.808.03.789 2.61.277.648-.133 1.237-.238 1.308-.238s.125.984.125 2.183v2.184h-5.914v5.203h5.757l-.101.879c-.676 5.719-2.403 9.773-5.547 13.008-.648.672-1.148 1.238-1.11 1.265.852.59 2.704 2.219 3.329 2.926l.816.934.938-.989c1.394-1.46 1.84-2.023 2.8-3.504 2.164-3.34 3.606-8.074 4.028-13.218l.105-1.301h5.211V71.84h5.41V53.21h4.68l.21 2.392c.657 7.441 2.38 12.265 5.243 14.66.965.804 1.512 1.11 2.922 1.62 1.54.555 1.887.622 3.02.575 1.085-.047 1.375-.125 1.882-.508m-.445-22.031c1.246-.586 2.207-2.047 2.664-4.055l.211-.91-1.586-1.594c-.875-.875-1.601-1.566-1.621-1.535s-.16.684-.312 1.453c-.336 1.676-.485 1.895-1.204 1.766-1.37-.246-2.703-1.129-3.718-2.465-.524-.687-1.707-3.117-1.579-3.242.079-.078 3.665 1.684 5.227 2.566.441.25.832.422.867.383.031-.039.653-.894 1.38-1.898 1.558-2.157 1.702-1.825-1.493-3.371l-2.16-1.043 2.199-1.801c1.211-.988 2.246-1.867 2.297-1.95.055-.085-.965-.679-2.262-1.324l-2.355-1.175-.61.777a77 77 0 0 1-1.91 2.258c-1.27 1.445-1.664 1.687-2.203 1.347-.176-.109-.539-2.492-.55-3.597 0-.278-.79-.293-14.118-.293H41.754v5.203h11.824c11.113 0 11.828.016 11.91.293.047.16.203.973.348 1.805.89 5.168 2.852 8.922 5.68 10.875 2.101 1.453 5.718 2.222 7.191 1.527m0 0"/>
    <path fill="#f9f9f9" d="m50.754 45.207.047-2.8 2.113-.61c1.16-.34 2.281-.668 2.492-.738l.38-.125v7.074h-5.079Zm-1.899 48.121v-1.344h8.114v2.684h-8.114Zm14.032 0v-1.344H71v2.684h-8.113Zm0 6.879v-1.34H71v2.684h-8.113Zm-14.032 0v-1.34h8.114v2.684h-8.114Zm0 0"/>
</svg>
