<svg xmlns="http://www.w3.org/2000/svg" width="120" height="120" viewBox="0 0 120 136">
    <path stroke="red" stroke-width=".004" d="M-23.159 45.687h-2.545v.485h2.115v3.665h-1.322l.335.223.025.016.357.25.343.253.32.247.287.232.244.21-.882.706-.02.016-.012.01-.243-.24-.29-.261-.129-.108-.195-.164-.344-.273-.351-.267-.344-.25.65-.6h-2.243l.78.542.005.004-.006.006-.332.302-.385.301-.416.289-.434.27-.436.24-.045.023-.31.153h-.001l-.02.01-.047.023-.017-.023-.079-.109-.11-.146-.121-.15-.125-.151-.125-.142-.067-.072-.033-.034-.018-.02.363-.166.37-.199.03-.018.31-.19.025-.016.347-.239.315-.245.272-.243h-1.27v-3.665h2.146v-.485h-2.606v-1.03h1.473v-.748h-1.186v-1.001h1.186v-.9h1.148v.9h1.307v-.9h1.163v.9h.914v1h-.914v.748h1.193v1.03m-6.45-1.03v.508h-.838v.4l.195.26.242.342.26.382.248.372.059.09.061.094.088.133.138.213-.645.88-.009.011-.006.009-.005.006-.005.007-.002.003-.076-.178-.089-.2-.102-.218-.111-.231-.118-.24-.1-.195-.023-.046v4.919h-1.156V47.82l-.126.374-.13.357-.137.338-.119.263-.023.051-.148.286-.142.235-.009.013-.004.007-.068-.186-.085-.21-.085-.196-.013-.028-.076-.162-.028-.06-.105-.205-.1-.177.233-.364.042-.065.26-.51.2-.477.04-.094.215-.608.184-.623.149-.615h-1.005v-1.178h1.08V42h1.156v1.986h.838v.67m6.341 8.953v1.21h-5.168v-1.21h5.168m-6.807 1.702.057.022 1.16.448-.166.275-.177.276-.187.275-.196.275-.203.272-.15.19-.061.078V63h-1.264v-4.176l-.149.144-.147.139-.146.134-.145.13-.024.02-.119.106-.143.12v.001l-.11-.152-.054-.074-.084-.115-.156-.207-.162-.208-.067-.081-.09-.11-.142-.155.232-.176.315-.239.545-.482.27-.275.026-.026.024-.025.06-.06.051-.052.085-.087.01-.01.49-.572.172-.23.27-.366.375-.605m-2.106 1.009-.09-.156-.11-.182-.122-.193-.13-.191-.126-.174-.009-.011-.109-.133.11-.076.338-.235.452-.362.439-.395.41-.41.36-.41.109-.144.186-.248.594.248.623.26-.412.507-.462.51-.496.499-.296.272-.221.203-.523.437-.418.311-.048.036-.024.02-.014.008-.011.009m9.18 1.441h-1.454v3.76l-.012.313-.039.263-.07.212-.002.006-.112.178-.156.142-.206.111-.242.083-.282.058-.024.003-.14.017-.143.017-.017.002-.366.022h-.005l-.353.01h-.05l-.29.003h-.163l-.035-.201-.051-.219-.062-.229-.073-.227-.079-.215-.077-.183-.004-.007-.002-.005.308.013.307.008.271.004h.275l.093-.002h.111l.136-.008.086-.003.068-.013.052-.023.035-.037.02-.053.007-.07v-3.73h-3.14v-1.209h5.88v1.21M-17.16 63-19 51.709l-1.381-8.48v-.032h-.007L-23 41.413l-5-3.416-5 3.416-2.61 1.784h-.008v.031L-37 51.708l-2.003 12.294h22.006L-17.16 63M-41 66l3.801-22.803L-37 42l7.52-5.014L-28 36l7.225 4.817L-19 42l.2 1.197L-15 66h-26m14.178-21.344h1.307v-.747h-1.307v.747m-1.012 2.386v.585h.997v-.585h-.997m3.052 0h-.922v.585h.922v-.585m-2.055 1.355h-.997v.57h.997v-.57m2.055.57v-.57h-.922v.57Zm0 0" transform="matrix(4.29492 0 0 4.26451 180.387 -149.258)"/>
    <path fill="#f9f9f9" d="M13.094 122.91c.058-.347 3.324-20.25 7.261-44.234 3.934-23.985 7.184-43.633 7.22-43.668.292-.27 32.394-21.969 32.523-21.98.218-.024 32.562 21.91 32.644 22.136.094.262 14.434 87.797 14.434 88.106 0 .246-3.864.27-47.094.27H12.988Zm38.465-15.242V95.824l1.5-1.992c1.55-2.059 3.402-4.867 3.402-5.152 0-.16-4.793-2.075-5.18-2.07-.105 0-.558.59-1.004 1.304-2.48 3.98-6.476 8.316-10.43 11.32l-1.316 1 .52.618c.285.335 1.133 1.425 1.886 2.418.754.996 1.418 1.804 1.481 1.804.059 0 .887-.722 1.836-1.605l1.726-1.61v17.653h5.579Zm19.289 11.273c2.343-.445 3.437-1.117 4.066-2.5l.398-.875.047-9.191.051-9.187h6.242v-5.372H56.293v5.371h13.535l-.047 8.047c-.039 6.356-.094 8.094-.27 8.27-.167.164-1.077.215-3.761.21-1.945 0-3.54.009-3.54.02s.298.918.661 2.016c.363 1.102.715 2.367.781 2.82l.125.825 2.895-.106c1.59-.055 3.469-.21 4.176-.348M43.242 90.266c2.031-1.493 4.098-3.305 6.555-5.743 2.445-2.425 4.976-5.261 4.973-5.57 0-.125-4.977-2.254-5.258-2.246-.055 0-.528.555-1.051 1.23-1.371 1.778-5.309 5.528-7.492 7.137l-1.887 1.39.93 1.294c.515.707 1.129 1.629 1.367 2.043.48.836.719 1.176.828 1.176.04 0 .504-.32 1.035-.711m37.227-8.352v-2.687H58.152v5.37H80.47ZM49.715 62.23l.015-10.28 1.215 2.464c.664 1.356 1.258 2.512 1.317 2.566.082.086 2.363-2.84 2.894-3.71.133-.215-2.52-4.329-4.554-7.067-.774-1.047-.903-1.32-.903-1.973v-.757h3.551V38.27H49.7v-8.56h-5.071v8.56h-4.734v5.203h2.113c1.648 0 2.113.05 2.113.226 0 .52-1.398 5.215-2.086 6.992-1.05 2.727-1.5 3.684-2.555 5.438l-.925 1.539.734 1.422c.406.781.95 1.969 1.211 2.637.262.671.531 1.218.602 1.218.226 0 2.086-3.86 2.78-5.765l.661-1.825.047 8.579.043 8.578h5.066Zm7.902 9.364c.996-.504 2.676-1.489 3.735-2.184 1.957-1.289 4.746-3.508 4.746-3.773 0-.082-.625-.578-1.395-1.106-.766-.527-1.465-1.027-1.555-1.105-.09-.082 1.82-.14 4.395-.137l4.559.008-1.313 1.215c-.719.668-1.309 1.265-1.309 1.328 0 .058.352.351.782.644 1.336.914 4.879 3.77 6.148 4.957 1.125 1.055 1.235 1.121 1.578.91.766-.476 3.68-2.898 3.63-3.019-.141-.36-3.688-3.113-6.462-5.016l-1.504-1.035h5.461V47.504h-8.957v-1.848h10.82v-4.531h-5.074v-3.023h3.891V33.57h-3.89v-3.69h-5.239v3.691h-5.41V29.88h-5.07v3.691h-5.075v4.532h5.075v3.023h-6.426v4.531h11.328v1.848h-9.3V63.28l2.663.008 2.664.004-.828.754c-1.16 1.058-4.082 2.969-6.047 3.945-.914.457-1.664.89-1.664.965s.235.356.52.629c.285.27.945 1.039 1.46 1.71.516.669 1.012 1.216 1.102 1.216.086 0 .969-.41 1.961-.918m0 0"/>
    <path fill="#f9f9f9" d="M65.254 39.613v-1.511h5.41v3.023h-5.41ZM60.86 52.54v-1.177h4.226v2.352h-4.227Zm9.296 0v-1.177h3.719v2.352h-3.719Zm0 5.788v-1.09h3.719v2.18h-3.719Zm-9.296 0v-1.09h4.226v2.18h-4.227Zm0 0"/>
</svg>
