<svg xmlns="http://www.w3.org/2000/svg" width="120" height="120" viewBox="0 0 120 136">
    <path fill="red" stroke="red" stroke-width=".004" d="M-51.199-11.03h-7.637v.775h1.223v-.623h1.17v.623h1.322v-.623h1.193v.623h2.47v2.882h-7.44l-.069.747-.068.482-.038.27-.148.743-.194.716-.118.319-.129.353-.229.459-.035.07-.019.037-.011.025-.007.013-.005.01-.136-.117-.17-.13-.19-.133-.194-.124-.183-.105-.16-.076.134-.282.246-.52.263-.883.118-.645.05-.277.095-.927.039-.844.002-.05.01-.826v-3.057h3.845l-.038-.1-.024-.063-.014-.038-.038-.1-.039-.097-.038-.093-.038-.087L-55.16-13h.001l.062.14.064.142.063.147.062.148.054.135.006.014.056.149h3.593v1.095m-7.638 2.302-.002.116-.005.236h1.23v-.875h-1.222v.523m6.796 3.834.137.087.165.085.184.078.19.071.164.052.025.008.175.045-.064.372-.018.107-.122.364-.171.262-.23.172-.297.094-.375.03h-1.238l-.499-.032-.368-.097-.256-.174-.14-.228-.01-.014-.011-.02-.006-.024-.078-.332-.006-.108-.012-.253-.006-.103v-2.685h1.208v.753h2.393v.996h-2.393v.928l.006.137.02.098.041.063.068.038.1.017.14.004h.91l.122-.012.09-.044.064-.088.044-.144.03-.212.016-.189.003-.034.001-.025.003-.027.001-.016m-3.22.484v.314l.003.106.006.168.01.153.008.08.004.038.001.01-1.114.144-.81.112-.192.03-.371.059-.372.073-.202.054-.033.01-.055.02-.044.018-.028.01-.018.007-.01.004-.038-.152-.057-.174-.071-.183-.08-.176-.084-.157-.045-.068-.027-.04-.011-.016.102-.054.095-.072.004-.004.079-.091.066-.121.044-.151.015-.184v-2.555h1.2v.814h1.965v.996h-1.964v1.095l1.988-.194.027-.002h.008l.003-.001-.002.08m3.526-16.786.105.134.117.137.122.134.126.124.064.057.059.052.104.078.014.01-.108.44-.069.157-.08.183-.183.234-.008.01-.229.151-.267.062-.304-.023-.667-.188-.044-.012-.043-.012-.223-.15-.36-.244-.44-.55-.033-.068-.285-.605-.19-.664-.032-.108-.149-.841h-5.507v-1.182h6.521l.009.15.01.149.013.146.028.29.015.143.25.08.15-.152.016-.016.168-.182.165-.19.158-.187.146-.182.128-.169 1.058.542.001.001-.054.045-.135.11-.188.157-.186.154-.183.15-.045.038-.133.11-.173.14.06.025.17.074.22.1.209.098.194.099.176.097.158.097-.33.46-.157.215-.008.01-.009.013-.02.029-.025.034-.074.102-.005.007-.181-.112-.097-.054-.119-.068-.242-.128-.096-.049-.166-.084-.276-.135-.125-.06-.157-.076.145.387.012.023.163.318.21.287.246.224.267.14.021.011.335.07.057-.018.046-.063.006-.008.047-.117.042-.16.039-.2.003-.017.002-.018.015-.096.006-.042.006-.034.002-.015v-.01m-5.454-.172-.155.05-.048.014-.205.062-.21.06-.21.058-.214.056v1.342h1.24v-1.71l-.198.068m1.416-1.026v2.668h2.239l.007.246.005.186.002.056.01.24.01.238.014.236.008.093.012.143.174.064.044-.04.008-.007.02-.019.024-.02.036-.034.034-.03.061-.057.11-.101.166-.16.16-.16.147-.151.128-.14 1.074.551-.189.14-.03.021-.158.112-.185.131-.183.125-.179.119-.127.081-.022.015-.012.007-.008.006-.004.002.218.105.21.106.203.106.188.103.01.006.162.094.152.095-.601.804-.02.026-.003.005-.01.013-.017.023-.05-.035h-.001l-.13-.092-.212-.132-.238-.137-.257-.138-.271-.14-.278-.141.074.338.04.183.084.258.066.201.191.385.236.3.198.138.09.063.345.091.06-.025.054-.093.011-.036.036-.119.042-.208.037-.255.019-.178.006-.053.004-.037.003-.02v-.006l.11.146.12.149.124.143.127.132.045.042.079.072.12.09-.109.52-.09.238-.06.162-.138.206-.054.082-.233.179-.275.075-.318-.024-.793-.263-.057-.05-.12-.102-.414-.355-.42-.715-.282-.875-.003-.011-.129-.742-.048-.277-.094-1.018-.008-.097h-1.127v4.361h-1.218v-4.36h-1.256l-.068.773-.135.779-.17.592-.051.177-.328.745-.455.709-.531.582-.03.033-.019.02-.013.014-.007.008-.12-.146-.15-.162-.169-.165-.176-.16-.056-.044-.117-.096-.06-.043-.098-.07.512-.536.39-.57.14-.296.144-.3.194-.611.121-.618.065-.616h-1.34v-1.198h1.37v-1.078l-.15.035-.148.03-.147.031-.147.026-.146.024-.006.001-.046.007-.035.005-.027.004-.02.003-.013.002-.041-.149-.06-.161-.072-.168-.082-.165-.088-.158-.041-.066-.016-.027-.02-.032-.011-.017.538-.118.533-.136.257-.075.262-.076.495-.163.462-.173.418-.177.41.46.354.394v-.751h1.218m8.82 8.395-.047-.291-1.382-8.48v-.032h-.007L-51-24.587l-5-3.416-5 3.416-2.61 1.784h-.008v.031L-65-14.292l-2.003 12.294h22.006L-45.16-3l-1.791-11M-69 0l3.8-22.803L-65-24l7.52-5.014L-56-30l7.225 4.817L-47-24l.2 1.197L-43 0h-26m16.34-9.25h-1.268v.874h1.269v-.875m-2.462.875v-.875h-1.322v.875Zm0 0" transform="matrix(4.29492 0 0 4.26451 300.644 132.2)"/>
    <path fill="#f9f9f9" d="M13.02 123.414c.011-.344 14.5-88.355 14.554-88.406.293-.27 32.395-21.969 32.524-21.98.218-.024 32.562 21.91 32.644 22.136.094.262 14.434 87.797 14.434 88.106 0 .246-3.864.27-47.078.27-25.895 0-47.078-.056-47.078-.126m37.203-4.16c1.007-.352 3.754-.82 8.351-1.418 2.14-.277 4.121-.547 4.406-.594l.516-.082-.07-2.055c-.04-1.132-.09-2.078-.114-2.101-.039-.047-6.546.555-7.82.726l-.719.094v-4.547l4.184-.043 4.184-.046v-4.196l-4.184-.047-4.184-.043v-3.52h-5.41v5.75c-.004 3.419-.074 6-.175 6.372-.11.383-.434.84-.856 1.2l-.68.577.512.953c.281.524.68 1.477.887 2.118.207.636.39 1.16.41 1.16.016 0 .36-.117.762-.258m27.949-.317c1.992-.597 3.039-2.132 3.394-4.988l.11-.898-1.051-.305c-.832-.238-2.41-.898-3.402-1.418-.118-.062-.196.32-.391 1.82-.176 1.407-.379 1.497-3.348 1.497-3.511 0-3.328.16-3.328-2.95v-2.422h10.14v-4.367h-10.14v-3.187h-5.41l.004 6.59c0 7.129.082 7.953.89 9.168.477.71 1.489 1.285 2.676 1.52 1.325.257 8.95.21 9.856-.06m-34.328-1.398c1.855-3.687 3.18-8.879 3.699-14.52l.2-2.14h32.05V88.457H69.141v-2.684h-5.41v2.684h-5.41v-2.684h-5.239v2.684h-5.07V85.27h32.793v-4.864l-7.703-.047-7.707-.043-.743-1.742c-.406-.957-.777-1.777-.824-1.824-.16-.16-5.687 1.195-5.61 1.375.044.098.27.652.5 1.227l.423 1.05H42.629l-.074 10.45c-.078 10.976-.145 12.14-.961 16.375-.434 2.25-1.414 5.351-2.149 6.804-1.015 1.996-1.02 1.856.078 2.473 1.122.625 2.942 1.89 3.247 2.254.117.137.238.25.273.25s.395-.66.8-1.469m35.308-45.59c1.067-.808 1.864-2.402 2.352-4.703l.21-.98-.769-.696c-.425-.382-1.132-1.132-1.578-1.664-.445-.535-.844-.933-.89-.886-.043.042-.184.757-.305 1.585-.125.832-.336 1.774-.473 2.094l-.246.582-.73-.18c-1.547-.382-2.61-1.421-3.614-3.527-.511-1.07-1.254-3.5-1.261-4.125 0-.254 3.37 1.45 4.972 2.508.547.367 1.051.605 1.114.531.468-.531 2.703-3.582 2.703-3.691 0-.188-.465-.465-2.77-1.656-1.918-.993-1.992-1.051-1.61-1.25.661-.34 4.212-2.868 4.212-2.993 0-.066-1.059-.636-2.348-1.273l-2.348-1.156-2 1.957c-1.101 1.078-2.046 1.957-2.101 1.957s-.223-.094-.375-.207c-.23-.176-.297-.723-.395-3.192l-.117-2.976h-9.59V36.594h-5.41v3.02l-1.535-1.68c-.848-.922-1.613-1.676-1.707-1.676s-1.016.332-2.055.738c-2.394.938-5.172 1.793-7.972 2.457-1.207.285-2.325.555-2.48.598-.24.066-.173.281.452 1.457.403.758.825 1.699.942 2.094.238.808.03.789 2.61.277.648-.133 1.237-.238 1.308-.238s.125.984.125 2.183v2.184h-5.914v5.203h5.757l-.101.879c-.676 5.719-2.403 9.773-5.547 13.008-.648.672-1.148 1.238-1.11 1.265.852.59 2.704 2.219 3.329 2.926l.816.934.938-.989c1.394-1.46 1.84-2.023 2.8-3.504 2.164-3.34 3.606-8.074 4.028-13.218l.105-1.301h5.211V71.84h5.41V53.21h4.68l.21 2.392c.657 7.441 2.38 12.265 5.243 14.66.965.804 1.512 1.11 2.922 1.62 1.54.555 1.887.622 3.02.575 1.085-.047 1.375-.125 1.882-.508m-.445-22.031c1.246-.586 2.207-2.047 2.664-4.055l.211-.91-1.586-1.594c-.875-.875-1.601-1.566-1.621-1.535s-.16.684-.312 1.453c-.336 1.676-.485 1.895-1.204 1.766-1.37-.246-2.703-1.129-3.718-2.465-.524-.687-1.707-3.117-1.579-3.242.079-.078 3.665 1.684 5.227 2.566.441.25.832.422.867.383.031-.039.653-.894 1.38-1.898 1.558-2.157 1.702-1.825-1.493-3.371l-2.16-1.043 2.199-1.801c1.211-.988 2.246-1.867 2.297-1.95.055-.085-.965-.679-2.262-1.324l-2.355-1.175-.61.777a77 77 0 0 1-1.91 2.258c-1.27 1.445-1.664 1.687-2.203 1.347-.176-.109-.539-2.492-.55-3.597 0-.278-.79-.293-14.118-.293H41.754v5.203h11.824c11.113 0 11.828.016 11.91.293.047.16.203.973.348 1.805.89 5.168 2.852 8.922 5.68 10.875 2.101 1.453 5.718 2.222 7.191 1.527m0 0"/>
    <path fill="#f9f9f9" d="m50.754 45.207.047-2.8 2.113-.61c1.16-.34 2.281-.668 2.492-.738l.38-.125v7.074h-5.079Zm-2.742 49.379v-1.762h5.07v3.524h-5.07Zm10.308 0v-1.762h5.41v3.524h-5.41Zm10.82 0v-1.762h5.243v3.524H69.14Zm0 0"/>
</svg>
