<svg xmlns="http://www.w3.org/2000/svg" width="120" height="120" viewBox="0 0 120 136">
    <path stroke="red" stroke-width=".004" d="M-52.17-45.335h-3.792v.446h3.51l.191-.03.866.19-.104.322-.112.33-.017.045-.05.14-.051.14-.12.315-.117.294-.058.135-.055.13-.234-.059h-.003l-.011-.003-.02-.005h-.001l-.254-.063-.475-.117-.01-.002-.01-.003h-.002l-.005-.002h-.001l.042-.111.044-.118.043-.125.044-.13.043-.136.042-.14h-3.001v.637l2.44-.215.047.462.051.49-1.986.18-.552.05v.031l.007.142.027.113.051.085.084.06.121.034.166.011h1.976l.168-.002.027-.001.219-.007.226-.013.217-.018.192-.023.142-.026.009-.002.006.05.016.124.017.147.003.033.018.18.018.177.018.166.008.067.01.084-.145.033-.185.023-.213.015-.23.01-.24.003h-2.33l-.054-.002-.49-.03-.063-.016-.166-.04-.186-.046-.057-.034-.244-.145-.2-.263-.116-.353-.043-.452-.28.026-1.05.097-.09-.967 1.42-.13v-.745h-1.672v2.019l-.019.77-.013.143-.044.514-.015.173-.145.851-.147.51-.093.324-.18.396-.175.386-.381.536-.053.074-.024.036-.017.023-.016.022-.117-.116-.152-.134-.173-.138-.18-.13-.171-.11-.026-.014-.123-.064.427-.61.216-.48.085-.188.196-.704.101-.643.012-.073.033-.44.02-.263.012-.667v-3h2.69V-47h1.246v.682h3.792v.982m.12 5.75.14.086.167.083.187.078.195.07.189.058.172.046-.029.252-.049.429-.12.51-.175.357-.242.23-.32.12-.287.025-.123.011h-1.201l-.49-.03-.365-.09-.255-.163-.162-.245-.086-.335-.021-.368-.004-.066v-1.919h1.186v1.896l.005.13.02.092.042.063.069.037.102.018.142.005h.904l.139-.019.1-.071.072-.149.047-.249.018-.219.013-.154.015-.38.002-.04.001-.027.001-.032.001-.023v-.018m-5.017 1.979-.277.143-.409.212-.529.137-.404.104-.026.007-.016.004-.058-.15-.084-.164-.059-.096-.044-.073-.115-.163-.115-.144-.003-.003-.115-.12.784-.167.537-.234.336-.327.11-.27.07-.177.074-.593.012-.765h1.17l-.022.962-.114.781-.256.62-.447.476m5.34-17.538.022.192.024.197.025.197.028.19.015.097.013.082.028.159-.217.033-.301.023-.225.009-.134.006-.394.009-.405.004h-4.255l-.744-.032-.573-.104-.419-.19-.28-.288-.158-.398-.006-.072-.008-.074-.017-.191-.017-.185v-.527H-61v-1.068h4.28l-.044-.096-.047-.096-.038-.076-.009-.02-.047-.091-.046-.088-.046-.083 1.43-.374.082.148.082.153.08.155.079.157.02.043.054.113.069.155h4.1v1.068h-7.368v.542l.012.144.01.026.036.086.088.082.142.056.206.03.282.01h3.823l.343-.001.18-.005.196-.004.382-.014.365-.022.322-.03.233-.034.007-.001.012-.002h.003m-.588 1.748v5.344h-1.381v-.275h-4.494V-48h-1.299v-5.397h7.174M-46.952-48l-.048-.291-1.382-8.48v-.032h-.007L-51-58.587l-5-3.416-5 3.416-2.61 1.784h-.008v.031L-65-48.292l-2.003 12.294h22.006L-45.16-37l-1.791-11M-69-34l3.8-22.803L-65-58l7.52-5.014L-56-64l7.225 4.817L-47-58l.2 1.197L-43-34h-26m15.304-18.496h-4.494v.542h4.494v-.542m0 3.267v-.557h-4.494v.557h4.494m0-1.908h-4.494v.519h4.494Zm0 0" transform="matrix(4.29492 0 0 4.26451 300.644 277.193)"/>
    <path fill="#f9f9f9" d="M13.094 122.91c.058-.347 3.324-20.25 7.261-44.234 3.934-23.985 7.184-43.633 7.22-43.668.292-.27 32.394-21.969 32.523-21.98.218-.024 32.562 21.91 32.644 22.136.094.262 14.434 87.797 14.434 88.106 0 .246-3.864.27-47.094.27H12.988Zm37.597-3.984a18 18 0 0 0 3.399-1.258c1.355-.676 1.816-1.012 2.582-1.883 1.726-1.957 2.496-4.765 2.496-9.113v-2.098h-2.535c-2.301 0-2.54.024-2.54.293a164 164 0 0 1-.167 2.801c-.266 4.09-.957 5.328-3.633 6.55-.652.294-1.867.673-2.707.833-.836.164-1.574.332-1.645.375-.07.039.246.554.7 1.14.449.586 1.03 1.489 1.285 2.008.34.688.543.922.742.867a82 82 0 0 1 2.023-.515m-6.914-1.34c3.493-4.797 4.73-10.832 4.739-23.043v-4.406h6.933v2.968l-2.992.282c-1.645.156-3.016.308-3.043.336-.031.03.035 1.007.148 2.172.192 2.007.22 2.117.551 2.05.715-.148 5.18-.465 5.27-.375.05.051.156.578.23 1.172.215 1.738.867 2.89 2.032 3.598 1.316.797 2.265.91 8.199 1.004 4.93.078 10.785-.106 11.027-.348.106-.105-.3-4.21-.437-4.43q-.107-.168-1.121.008c-.575.102-3.747.184-7.31.192-6.136.015-6.3.007-6.64-.329-.191-.19-.39-.609-.441-.925l-.094-.582 5.465-.477c3.008-.262 5.477-.488 5.484-.5.012-.016-.082-.894-.203-1.957a96 96 0 0 1-.226-2.105c-.008-.149-4.168.14-9.52.664l-.969.093v-2.511h6.34c3.485 0 6.336.031 6.336.07s-.23.727-.515 1.527c-.286.801-.48 1.496-.438 1.54.047.046 1.074.331 2.281.632l2.2.551.84-2.117c.968-2.434 2.058-5.5 2.058-5.79 0-.112-.742-.355-1.738-.57-1.664-.359-2.086-.375-9.805-.375h-8.066v-1.68H76.75v-4.362H60.352v-2.856h-5.579v8.898H43.31l-.082 9.188c-.075 8.258-.118 9.379-.422 11.039-.692 3.754-1.617 6.234-3.168 8.477a57 57 0 0 0-.977 1.445c-.066.11.293.437.86.785.53.332 1.46 1.016 2.066 1.527.605.508 1.113.93 1.129.934.02.004.496-.633 1.062-1.414m34.66.477c1.477-.688 2.258-1.934 2.782-4.426.144-.692.281-1.77.304-2.395l.043-1.137-1.52-.511c-.839-.281-1.847-.7-2.241-.926-.532-.309-.743-.363-.793-.203-.035.12-.106 1.09-.153 2.148-.093 2.012-.308 2.961-.757 3.317-.332.265-5.301.297-5.79.035-.308-.164-.324-.399-.324-4.781v-4.614h-5.453l.09 5.164c.09 5.391.168 6.012.887 7.059.988 1.45 2.23 1.71 7.855 1.66 3.992-.035 4.367-.062 5.07-.39M50.884 71.84v-.672h19.105v1.176h6.086V49.348H45.137v23.164h5.746ZM77.97 47.023c.625-.066 1.164-.16 1.199-.199.031-.043-.094-1.16-.281-2.484l-.34-2.406-.703.105c-2.856.426-24.48.629-26.274.246-1.265-.27-1.53-.691-1.53-2.441v-1.407h31.612v-4.699H64.094l-.446-.965a33 33 0 0 0-1.023-2l-.582-1.035-3.031.785c-1.668.43-3.078.832-3.14.891-.06.059.124.566.41 1.129.284.559.519 1.059.519 1.105 0 .051-4.11.09-9.13.09h-9.128v4.7h5.578v1.937c0 4.082 1.23 5.676 4.988 6.473 1.207.254 2.77.285 14.54.293 7.25.004 13.695-.047 14.32-.118m0 0"/>
    <path fill="#f9f9f9" d="M50.883 66.05v-1.09h19.105v2.18H50.883Zm0-5.792v-1.004h19.105v2.012H50.883Zm0-5.789v-1.09h19.105v2.18H50.883Zm0 0"/>
</svg>
