<svg xmlns="http://www.w3.org/2000/svg" width="120" height="120" viewBox="0 0 120 136">
    <path stroke="red" stroke-width=".004" d="M84.197 43.3v-1.177h3.48l.23-.032.09.032.696.247-.16.638-.005.019-.056.17-.147.442-.237.57-.272.527-.199.32-.104.167-.332.448.12.085.078.054.069.048.282.174.296.159.038.018.272.127.325.128.274.09.025.009.024.008.016.005-.135.139-.14.17-.138.187-.021.032-.11.163-.117.19-.016.029-.08.144-.36-.141-.345-.158-.327-.176-.082-.051-.229-.141-.293-.21-.26-.213-.016-.013-.27.214-.045.032-.234.166-.261.165-.03.018-.299.169-.31.155-.309.136-.005.002-.006.003h-.003v.001l.028.08.027.076.026.077.025.075.023.074.021.071h3.614v1.194h-2.417l.11.024.764.165-.084.238-.084.235-.079.221-.004.011-.084.226-.082.221-.08.214h2.473V52H79v-1.21h2.496l-.048-.207-.062-.22-.077-.23-.088-.232-.099-.227-.106-.217.78-.222H79.52v-1.194h3.866l-.028-.086-.06-.172-.062-.169-.03-.083h-3.954V42h4.512v.98h-1.221v.584h1.15v2.37h-1.15v.617h1.26v.585l.122-.032.043-.011.245-.064-.058-.09-.061-.087-.05-.065-.013-.017-.055-.068-.007-.01v-.001l-.06-.069-.06-.062.12-.046.177-.069.288-.13.28-.146.27-.163.258-.179.229-.183.017-.014-.221-.318-.157-.256-.05-.08-.193-.356-.18-.371-.165-.388-.152-.404.591-.157h-.764m4.535 10.31v1.208h-5.168V53.61h5.168m-6.52 3.545-.148.19-.062.078V63h-1.264v-4.176l-.149.144-.147.139-.146.134-.145.13-.143.126-.062.052-.049.042-.018.015-.008.008-.006.003v.001l-.11-.152-.138-.189-.156-.207-.162-.208-.157-.191-.04-.044-.067-.073-.035-.038.547-.415.545-.482.27-.275.026-.026.024-.025.06-.06.051-.052.085-.087.01-.01.49-.572.442-.596.37-.597.005-.008 1.217.47-.166.275-.177.276-.187.275-.196.275-.203.272m.119-3.139-.412.454-.05.056-.496.499-.296.272-.221.203-.523.437-.418.311-.048.036-.024.02-.014.008-.011.009-.09-.156-.11-.182-.122-.193-.13-.191-.126-.174-.105-.128-.013-.016.448-.311.452-.362.439-.395.41-.41.36-.41.109-.144.186-.248.393.164.201.084.623.26-.412.507M89 57.761h-1.455v3.76l-.012.313-.039.263-.072.218-.112.178-.156.142-.114.062-.092.05-.242.082-.282.058-.165.02-.142.017-.017.002-.084.005-.282.017-.409.01-.333.003h-.119l-.035-.201-.051-.219-.062-.229-.073-.227-.079-.215-.08-.19-.003-.005.308.013.194.005.113.003.29.004h.256l.093-.002h.111l.136-.008h.025l.061-.003.068-.013.052-.023.035-.037.02-.053.007-.07v-3.73h-3.14v-1.209h5.88v1.21M94.84 63 93 51.709l-1.381-8.48v-.032h-.007L89 41.413l-5-3.416-5 3.416-2.61 1.784h-.008v.031L75 51.708l-2.003 12.294h22.006L94.84 63M71 66l3.8-22.803L75 42l7.52-5.014L84 36l7.225 4.817L93 42l.2 1.197L97 66H71m15.128-21.42.171.227.17-.227.16-.235.151-.245.14-.255.129-.267.116-.278h-1.708l.11.278.12.267.135.255.147.245.047.07.112.165m-3.333 5.963-.819.247H85l.086-.256.083-.262.079-.266.074-.264.067-.258.06-.249h-3.142l.114.22.104.225.09.227.078.224.061.214.04.198m-.251-5.49v-.61h-2.11v.61h2.11m-1.126.881h-.984v.617h.984v-.617m0-2.37v-.585h-.984v.585Zm0 0" transform="matrix(4.29492 0 0 4.26451 -300.644 -149.258)"/>
    <path fill="#f9f9f9" d="M13.094 122.91c.058-.347 3.324-20.25 7.261-44.234 3.934-23.985 7.184-43.633 7.22-43.668.292-.27 32.394-21.969 32.523-21.98.218-.024 32.562 21.91 32.644 22.136.094.262 14.434 87.797 14.434 88.106 0 .246-3.864.27-47.094.27H12.988Zm38.465-15.242V95.824l1.5-1.992c1.55-2.059 3.402-4.867 3.402-5.152 0-.16-4.793-2.075-5.18-2.07-.105 0-.558.59-1.004 1.304-2.48 3.98-6.476 8.316-10.43 11.32l-1.316 1 .52.618c.285.335 1.136 1.425 1.894 2.418.758.996 1.426 1.804 1.48 1.804s.88-.722 1.829-1.605l1.726-1.61v17.653h5.579Zm19.289 11.273c2.343-.445 3.437-1.117 4.066-2.5l.398-.875.047-9.191.051-9.187h6.242v-5.372H56.293v5.371h13.535l-.047 8.047c-.039 6.356-.094 8.094-.27 8.27-.167.164-1.077.215-3.761.21-1.945 0-3.54.009-3.54.02s.298.918.661 2.016c.363 1.102.715 2.367.781 2.82l.125.825 2.895-.106c1.59-.055 3.469-.21 4.176-.348M43.242 90.266c3.043-2.239 7.301-6.215 9.863-9.207.872-1.016 1.602-1.942 1.63-2.051.035-.164-4.82-2.301-5.223-2.301-.055 0-.528.555-1.051 1.23-1.371 1.778-5.309 5.528-7.492 7.137l-1.887 1.39.93 1.294c.515.707 1.129 1.629 1.367 2.043.48.836.719 1.176.828 1.176.04 0 .504-.32 1.035-.711m37.227-8.352v-2.687H58.152v5.37H80.47Zm.168-12.004v-2.6h-5.242c-2.88 0-5.239-.059-5.239-.13 0-.07.457-1.367 1.016-2.882.672-1.82.953-2.793.832-2.867-.098-.063-.727-.22-1.395-.348-1.175-.227-1.07-.238 3.477-.281l4.691-.043v-5.2H63.262l-.27-.828c-.152-.457-.273-.863-.273-.906 0-.039.777-.453 1.73-.918 1.84-.894 3.367-1.824 4.82-2.926l.887-.671.719.582c1.793 1.46 6.117 3.797 7.156 3.875.39.027.547-.125 1.125-1.059a27 27 0 0 1 1.602-2.238c.508-.63.898-1.164.867-1.188-.031-.023-.668-.254-1.41-.511-1.965-.68-4.18-1.829-6.067-3.141-.09-.059.418-.969 1.122-2.016 2.09-3.11 3.597-6.414 4.523-9.898.277-1.047.504-2.02.504-2.16 0-.164-.531-.434-1.578-.797l-1.574-.543H60.859v5.203l2.618.039-.887.254c-.488.144-.887.352-.887.465 0 .758 2.504 5.933 3.797 7.847.422.625.766 1.2.766 1.274 0 .293-2.555 1.953-4.395 2.851l-1.941.95-3.004.05-3 .055v-2.539h4.902V36.426h-4.902v-2.352h5.242v-4.363H39.727v23.832l16.937.086.324.84c.176.46.32.894.32.965s-3.726.125-8.285.125h-8.28v5.203l4.605.015c2.535.008 4.53.04 4.437.075-.094.03-.715.214-1.383.406l-1.21.351.558 1.215c.57 1.23 1.445 3.797 1.445 4.242 0 .207-.789.243-5.328.243h-5.324v5.203h42.094Zm0 0"/>
    <path fill="#f9f9f9" d="M44.969 35.25v-1.176h4.054v2.352H44.97Zm0 6.293v-1.258h8.789v2.516h-8.79Zm0 6.379v-1.258h4.054v2.516H44.97Zm24.633-6.828c-1.118-1.473-2.997-4.922-2.997-5.492 0-.13 1.055-.184 3.477-.184h3.477l-.114.375c-.238.77-1.636 3.312-2.515 4.566l-.907 1.293ZM53.59 66.824c1.398-.445 1.433-.469 1.379-.941-.078-.645-.977-3.153-1.485-4.149-.222-.437-.402-.832-.402-.882 0-.047 2.961-.09 6.578-.09h6.582l-.5 1.89a76 76 0 0 1-.949 3.274l-.453 1.383-12.188-.032Zm5.703-16.344v-1.238h-5.41v-2.601l2.48.007 2.477.004-2.457.004-2.457.008v2.54h.27c.148 0 .734-.013 1.304-.024.57-.008 1.645-.028 2.39-.04.743-.011 1.508-.027 1.7-.03l.347-.012-.222.09a2 2 0 0 0-.242.101c-.008.008.062.094.152.191.355.375.82.961 1.16 1.461.125.188.223.34.219.344-.012.012-1.66.434-1.688.434-.015 0-.023-.344-.023-1.239m0 0"/>
</svg>
