<svg xmlns="http://www.w3.org/2000/svg" width="120" height="120" viewBox="0 0 120 136">
    <path fill="red" stroke="red" stroke-width=".004" d="M-60.443 85.408h3.768v1.033h-1.122v.709h.965v.94h-.965v.64h.996v.925h-.996v.678h1.224v.079l-.002.079-.003.09-.004.087-.007.074-.032 1.15-.011.268-.026.639-.047.694-.063.506-.05.209-.032.137-.108.21-.078.109-.085.084-.093.064-.101.046-.03.008-.081.025-.12.02-.123.02-.138.014-.15.01-.16.004h-.194l-.138-.002-.004-.046-.008-.107-.025-.164-.039-.167-.049-.164-.039-.101-.02-.053-.062-.127-.005-.01.133.012.123.01.076.003h.036l.098.004.082.001h.12l.05-.006.046-.012.043-.02.04-.032.04-.046.029-.067.027-.095.013-.074.011-.055.023-.166.01-.082.013-.125.008-.084.015-.169-.334.12-.02.008-.017.006-.009.003-.005.002-.05-.204-.062-.228-.07-.241-.08-.245-.026-.076-.031-.088-.026-.075-.086-.223.447-.154.071.168.07.178.067.183.004.011.061.173.062.18.055.165.002.006.006-.181.006-.197.006-.146.002-.065.008-.226.007-.24.005-.255h-2.842v-5.966m0 6.365.443.148.091.03v.01l-.024.2-.02.17-.047.372-.005.04-.062.419-.004.022-.066.387-.078.38-.068.257-.018.071-.207-.071-.45-.153-.024-.009-.018-.006.099-.333.09-.377.03-.146.052-.259.071-.412.059-.403.046-.374.11.037m9.38-2.335-.021.674-.032 1.048-.052 1-.015.298-.017.174-.054.552-.02.207-.122.623-.084.194-.077.18-.126.167-.13.13-.135.098-.144.071-.157.05-.172.038-.182.031-.207.018-.226.009h-.24l-.253-.005-.163-.004-.048-.002h-.047l-.018-.188-.037-.208-.056-.218-.056-.167-.017-.05-.089-.208-.086-.155-.007-.013-.003-.006-.005-.009-.002-.004.25.016.233.011.214.006.19.004h.028l.134.001h.128l.082-.003.072-.01.066-.02.06-.033.057-.047.056-.064.113-.27.03-.17.06-.334.043-.459.022-.23.008-.085.058-1.077.03-.887.018-.525.04-1.782h-2.636l-.099.19-.038.07-.064.113-.102.177-.103.172-.083.133-.02.033-.103.16h2.574v3.538h-1.93v.578h-1.005v-3.715l-.13-.124-.157-.143-.17-.15-.175-.145-.168-.129-.15-.103.322-.396.042-.052.335-.519.302-.575.108-.253.097-.224.06-.14.1-.285.125-.36.181-.656 1.209.277-.068.235-.071.235-.074.233-.012.036-.065.195-.081.228-.001.002-.084.224H-51v.032l-.001.085-.001.116-.003.127-.004.12-.007.09-.012.57-.035 1.633m-7.49 2.643.017.08.048.224.059.305.05.298.01.073.02.123.012.083.029.25-.06.011-.467.094-.006.002-.03-.255-.027-.185-.014-.101-.05-.305-.055-.31-.06-.307-.063-.287.518-.084.069.29m-.704-.167.02.247.005.07.02.339.018.344.01.27.003.068.007.318.003.286-.221.027-.319.04h-.01l-.007.002.004-.29-.003-.322-.004-.128-.005-.214-.015-.349-.018-.344-.008-.117-.014-.208.399-.029.135-.01M-52 83.992h-1.34v-.67h-5.374V84H-60v-8.408h2.672l.087-.266.04-.129.045-.142.08-.273.073-.27.062-.262.049-.25 1.596.209.05.006-.05.12-.05.121-.102.238-.102.233-.104.228-.02.042-.085.18-.107.215H-52v8.4m5.048.008-.048-.291-1.382-8.48v-.032h-.007L-52 72.73l-4-2.733-4 2.733-3.61 2.467h-.008v.031L-65 83.708l-2.003 12.294h22.006L-45.16 95l-1.791-11M-69 98l3.8-22.803L-65 74l7.52-5.014L-56 68l7.225 4.817L-47 74l.2 1.197L-43 98h-26m15.16-6.65v-1.456h-.936v1.456h.935m-4.922-4.909h-.675v.709h.675v-.709m-.675 3.671v.221h.675v-.678h-.675v.457m.675-2.022h-.675v.64h.675v-.64m5.423-11.198h-5.374v1.9h5.374v-1.9m0 3.162h-5.374v1.977h5.374Zm0 0" transform="matrix(4.29492 0 0 4.26451 300.644 -285.722)"/>
    <path fill="#f9f9f9" d="M13.02 123.414c.011-.344 14.5-88.355 14.554-88.406.293-.27 32.395-21.969 32.524-21.98.218-.024 32.562 21.91 32.644 22.136.094.262 14.434 87.797 14.434 88.106 0 .246-3.864.27-47.078.27-25.895 0-47.078-.056-47.078-.126m62.253-4.148c4.461-.79 5.317-3.02 5.864-15.282.175-3.894.511-16.273.511-18.925l.004-1.301h-7.035c-5.816 0-7.02-.04-6.945-.223.437-1.137 1.797-5.55 1.726-5.617-.093-.094-4.761-1.191-5.105-1.203-.11-.004-.32.43-.465.96-1.445 5.22-3.73 9.954-6.242 12.938-.34.403-.617.79-.617.864 0 .07.418.445.93.828a32 32 0 0 1 2.027 1.715l1.101 1.023v15.738h4.395v-2.347h8.285V93.16h-5.426c-2.98 0-5.398-.058-5.367-.129.031-.07.59-1.05 1.238-2.176l1.184-2.05 5.566-.004 5.563-.008-.117 5.414c-.243 11.363-.727 17.356-1.524 18.89-.547 1.048-.629 1.071-3.89 1.012-1.637-.03-2.977.008-2.977.079 0 .074.113.304.254.515.414.629 1.102 2.809 1.215 3.844l.101.965 2.215-.008c1.219 0 2.809-.11 3.531-.238m-22.14-.094c1.562-.223 2.37-.664 2.914-1.59.883-1.492 1.168-3.469 1.426-9.922.09-2.3.203-5.105.25-6.234l.086-2.059h-5.235v-2.683h4.227v-4.028h-4.227V89.97h4.059v-4.196h-4.059v-2.855h4.735v-4.531H40.91v25.683h12.172l-.008 2.473-.004 2.477-.754-1.997c-.414-1.097-.785-2.03-.828-2.074-.082-.082-1.804.442-1.988.61-.066.058.105.738.383 1.507.273.774.699 2.098.941 2.938.242.844.457 1.555.477 1.578s.367-.07.765-.21c.403-.142.75-.235.778-.212.086.086-.278 2.723-.453 3.258-.246.766-.852.96-2.54.812-1.566-.14-1.468-.304-.859 1.434.18.508.383 1.32.45 1.805l.12.875 1.211-.004a21 21 0 0 0 2.36-.168m-10.79-5.438c.407-1.984 1.173-7.308 1.071-7.394-.129-.106-2.867-.957-2.91-.903-.024.032-.14.813-.254 1.739-.262 2.117-.934 5.523-1.383 7.023-.187.633-.32 1.172-.293 1.196.031.023.739.265 1.574.543 1.801.593 1.586.812 2.196-2.204m4.278.829c.063-.06-.312-8.196-.383-8.31-.031-.046-.597-.062-1.261-.03l-1.211.054.105 2.211c.055 1.215.129 3.157.156 4.309.032 1.152.067 2.105.075 2.11.046.027 2.476-.305 2.52-.344m2.234-1.098c1.66-.363 1.5-.11 1.247-1.965a66 66 0 0 0-.68-3.785c-.371-1.754-.5-2.13-.719-2.063-.148.04-.71.125-1.246.188-.797.094-.965.164-.895.39.235.774.883 4.375 1.192 6.61.059.437.16.793.223.793.066-.004.46-.078.878-.168m-.34-42.38V69.66H71.51v2.852h5.918V36.594H60.875l.805-1.723c1.25-2.676 1.777-3.98 1.652-4.101-.16-.16-6.934-1.036-7.05-.91-.055.054-.192.519-.302 1.027s-.515 1.996-.898 3.312l-.7 2.395H42.939v35.918h5.578Zm0 0"/>
    <path fill="#f9f9f9" d="M48.516 46.242v-3.941h22.992v7.886H48.516Zm0 13.598v-4.113h22.992v8.226H48.516Zm-3.043 24.508v-1.43h2.707v2.855h-2.707Zm0 6.965v-1.344h2.707v2.687h-2.707Zm0 6.714v-1.343h2.707v2.683h-2.707Zm19.949 2.683v-3.019h3.887v6.043h-3.887Zm0 0"/>
</svg>
