<svg xmlns="http://www.w3.org/2000/svg" width="120" height="120" viewBox="0 0 120 136">
    <path fill="red" stroke="red" stroke-width=".004" d="m-81.899 85.86-.02.012-.171.098-.082.046-.113.063-.196.107-.2.104-.2.1-.199.099v1.22h.954v.982h-.954v1.067h2.49v-1.036h-1.143v-.974h1.143v-.967h-1.135v-1.006h2.24v4.996h-1.143v2.702l.002.13.007.09.016.061.027.035.041.017.06.004h.309l.07-.017.051-.066.037-.135.027-.225.01-.183.01-.152.015-.465.074.057.05.037.151.088.17.081.175.072.17.06.156.05-.058.621-.095.47-.044.105-.095.229-.191.218-.248.118-.314.035h-.636l-.377-.029-.277-.093-.192-.168-.12-.25-.01-.06-.051-.283-.017-.445v-2.71h-.507l-.073.915-.08.475-.06.359-.235.752-.359.667-.24.27-.273.307-.53.37-.064.045-.039.027-.027.02-.022.015-.012.008-.073-.144-.098-.156-.118-.159-.128-.152-.131-.137-.05-.044-.076-.068.564-.383.304-.34.084-.095.02-.023.278-.53.176-.6.002-.009.097-.657.05-.732h-.893v-4.72l.062-.035.209-.12.273-.172.266-.18.252-.186.23-.183.2-.175.826.838.021.022m-3.876-.04.269.196.367.266-.097.234-.105.24-.114.241-.121.24-.124.237-.128.227h1.022v4.321h-3.634v-3.384l-.093-.085-.096-.085-.096-.08-.094-.074-.09-.064-.083-.05.093-.136.245-.355.29-.529.244-.548.056-.154.144-.399.055-.19.102-.352.118-.514.992.138-.024.12-.027.12-.029.122-.031.122-.034.122-.037.123h.871l.189-.07m.182 6.663.009-.004.687-.265.1.22.096.235.092.243.08.239.01.033.058.193.048.203-.68.31-.023.01-.014.006-.009.004-.044-.208-.061-.234-.074-.249-.012-.035-.073-.22-.093-.248-.097-.233m.18 1.742-.603.142-.145.034-.024-.193-.007-.063-.044-.294-.057-.317-.066-.327-.005-.023-.068-.3-.077-.309.007-.001.486-.115.226-.053.077.303.076.317.036.158.037.163.064.314.052.296.034.25.002.018m-1.998-1.627h.005l.73-.092.028.353.024.325.003.045.023.372.019.364.008.243.003.1.005.308-.772.114h-.008l.006-.312-.001-.21v-.137l-.01-.369-.017-.377-.008-.141-.013-.231-.025-.355m-.207.41-.035.176-.046.236-.094.414-.097.374-.008.029-.118.374-.13.328-.836-.353-.02-.008.134-.32.018-.05.108-.31.115-.39.102-.399.085-.396.067-.376.308.106.517.178-.07.388m8.15-16.095v3.277h-1.569v2.53l-.009.253-.03.216-.056.183-.087.152-.123.126-.163.102-.182.08-.206.052-.028.004-.205.03-.26.018-.288.008h-.316l-.026-.16-.04-.17-.044-.16-.005-.017-.057-.175-.063-.17-.064-.15-.003-.007-.004.008-.026.048-.009.017-.003.007-.041.079-.04.077-.04.075-.036.073-.022.045-.006.012-.004.007-.003.007-.107-.086-.129-.093-.143-.097-.064-.041-.037-.023-.048-.031-.125-.076-.022-.013-.14-.08-.082.036-.047.02-.033.014-.054.023-.485.208-.037-.208-.005-.029-.064-.263-.08-.28-.098-.288-.062-.164-.045-.118-.114-.269.716-.27.09.206.005.01.093.23.078.21.01.027.08.24.07.231.057.218.163-.3.163-.327.04-.088.013-.028.104-.228.147-.355.132-.357.113-.352 1.04.308-.113.32-.127.327-.137.33-.015.035-.12.274-.008.018-.144.316-.142.3.184.003.11.001h.07l.165.003h.338l.057-.002.043-.01.03-.017.02-.027.012-.039.004-.05v-2.5h-1.818v-3.277h4.555m-1.35 4.01.007-.002.966-.322.164.396.163.415.155.42.03.089.112.323.123.388.098.351-.872.304-.169.059-.047-.206-.034-.146-.025-.089-.087-.307-.019-.06-.114-.362-.03-.086-.057-.17-.06-.176-.153-.423-.15-.396m-8.175-3.686.347-.497.297-.533.195-.432.055-.12.169-.459.036-.098.057-.19.107-.354.124-.516.996.138-.025.12-.026.112-.003.01-.032.122-.034.122-.035.123-.034.124h.898l.188-.07.449.324.045.033.147.106-.099.235-.107.238v.003l-.116.243-.122.242-.127.237-.13.228h1.033v4.34h-3.695v-3.391l-.094-.09-.096-.084-.098-.08-.096-.074-.036-.025-.055-.037-.03-.019-.053-.031m3.34 4.546.033.136.05.202.076.343.066.334.025.145.029.168.038.279-.681.175-.043.01-.016.004-.014.004-.03-.281-.048-.318-.008-.041-.054-.299-.074-.349-.08-.345-.008-.031-.075-.295.45-.101.274-.061.09.321m-.944.127.001.009.03.362.025.375.016.287.004.078.012.344.004.31-.784.121-.01.002-.005.001v-.318l-.005-.352-.005-.186-.006-.185-.017-.38-.023-.374-.006-.085-.021-.272.754-.092.036.355m-.926-.239-.047.248-.027.142-.086.412-.097.417-.015.053-.093.35-.118.377-.059.152-.069.177-.724-.302-.044-.019-.043-.018-.033-.014-.023-.009.139-.32.128-.363.117-.391.103-.402.054-.242.025-.111.01-.045.073-.378.287.1.542.186M-74.952 84l-.048-.291-1.382-8.48v-.032h-.007L-79 73.413l-5-3.416-5 3.416-2.61 1.784h-.008v.031L-93 83.708l-2.003 12.294h22.006L-73.16 95l-1.791-11M-97 98l3.8-22.803L-93 74l7.52-5.014L-84 68l7.225 4.817L-75 74l.2 1.197L-71 98h-26m17.879-22.836v1.11h-5.301v-1.11h2.164l-.047-.145-.05-.147-.052-.147-.053-.145-.054-.14-.053-.132.647-.18.453-.128.08.184.085.195.086.2.084.201.079.197.07.187h1.862m-8.094 11.823-.021.053-.036.09-.061.142-.064.142-.07.143-.072.144h.719l.067-.127.065-.135.063-.14.062-.15.045-.109.016-.042.06-.156h-.718l-.055.145m.16 2.418v-.714h-.461v.714h.461m.803 0h.492v-.714h-.492v.714m-1.189-12.818-.073.142h.73l.071-.127.067-.136.065-.142.064-.15.063-.152.063-.156h-.731l-.061.146-.061.145-.063.144-.065.143-.069.143m1.681 14.438v-.7h-.492v.7h.492m-1.295-.7h-.461v.7h.461v-.7m6.02-12.293h-1.902v1.04h2.308v-1.04h-.407m-4.661-.308h-.52v.717h.52v-.717m-1.817 0v.717h.497v-.717h-.497m1.498 1.642h-.201v.702h.52v-.702h-.32m-1 0h-.497v.702h.497Zm0 0" transform="matrix(4.29492 0 0 4.26451 420.902 -285.722)"/>
    <path fill="#f9f9f9" d="M13.02 123.414c.011-.344 14.5-88.355 14.554-88.406.293-.27 32.395-21.969 32.524-21.98.218-.024 32.562 21.91 32.644 22.136.094.262 14.434 87.797 14.434 88.106 0 .246-3.864.27-47.078.27-25.895 0-47.078-.056-47.078-.126m48.023-5.234c1.379-.95 3.078-2.868 4-4.516 1.367-2.445 2.352-6.441 2.668-10.812l.11-1.47h1.995l.004 6.673c.004 6.996.082 7.925.778 9.129.199.351.644.722 1.168.984.796.398.992.422 3.629.422 1.535 0 3-.059 3.253-.13.707-.198 1.657-1.12 2.02-1.96.418-.965.754-2.574.906-4.309l.117-1.363-.484-.117c-.7-.176-3.207-1.36-3.348-1.586-.28-.457-.433-.102-.441 1.027-.012 2.063-.262 3.692-.602 3.938-.379.273-1.62.285-1.894.015-.149-.148-.203-1.816-.203-6.46v-6.262h4.902V79.898h-9.805v4.532h4.903v4.027h-4.903v4.2h4.903v4.363h-10.48v-4.364h4.058V88.29h-4.059v-5.148l.465-.204c.258-.113 1.39-.707 2.524-1.316l2.058-1.11-1.789-1.902c-.98-1.043-1.848-1.902-1.926-1.902s-.73.477-1.453 1.055c-1.363 1.09-3.926 2.824-4.683 3.168l-.434.195v20.258h3.867l-.086 1.219c-.457 6.433-1.976 9.851-5.43 12.226-.675.465-1.226.86-1.226.883 0 .02.383.441.848.934a15 15 0 0 1 1.465 1.882l.609.985.457-.293c.254-.164.945-.63 1.539-1.04m-18.348.367c.594-1.402 2.274-8.168 2.274-9.156-.004-.11-.742-.461-1.649-.774-.906-.316-1.734-.601-1.836-.64-.113-.04-.328.652-.562 1.812-.465 2.313-1.23 4.996-1.879 6.578-.27.656-.45 1.238-.398 1.29.136.14 3.335 1.488 3.574 1.503.113.008.328-.27.476-.613m4.47-.383a48 48 0 0 0 1.589-.27l.488-.097-.117-2.879c-.14-3.387-.348-5.945-.488-6.086-.125-.125-2.7.094-2.957.25-.258.16-.063 9.254.203 9.254.101 0 .676-.078 1.281-.172m5.41-1.61c.78-.167 1.425-.398 1.476-.527.047-.125-.004-.797-.117-1.492-.215-1.328-1.309-6.105-1.422-6.219-.035-.035-.785.098-1.664.297l-1.598.367.387 1.614c.441 1.875 1.078 5.414 1.078 6.02 0 .288.074.386.234.323.133-.046.864-.222 1.625-.382m4.327-2.429c.828-.379 1.524-.707 1.543-.727.157-.144-1.738-5.543-2.086-5.953-.062-.074-2.789.985-2.996 1.16-.078.07.133.848.465 1.73.332.88.77 2.25.969 3.04.203.79.422 1.438.484 1.438.067 0 .797-.313 1.621-.688m-.101-16.687V88.12h-2.13c-1.167 0-2.097-.055-2.066-.125.036-.07.606-1.219 1.27-2.558.664-1.34 1.258-2.63 1.316-2.868.098-.386-.02-.527-1.125-1.336l-1.238-.902-2.324.05c-1.277.028-2.324.009-2.324-.038 0-.051.148-.711.332-1.477.183-.762.304-1.41.273-1.445-.066-.067-2.847-.488-3.8-.574l-.57-.055-.47 1.848c-1.054 4.156-2.5 7.507-4.57 10.582l-.797 1.183 1.164.906 1.168.907v14.535H56.8ZM42.75 71.8c.57-1.32 1.73-5.809 2.273-8.79l.094-.523-1.797-.613c-.988-.34-1.843-.555-1.902-.484-.063.07-.32 1.101-.574 2.289-.45 2.082-1.45 5.383-2.032 6.699l-.277.637.637.261a142 142 0 0 1 1.738.739c.606.257 1.195.476 1.317.484.117.008.355-.309.523-.7m27.273.07c1.399-.488 1.973-.96 2.473-2.027l.438-.942.066-6.25.066-6.254h6.555V42.133h-19.61v14.265h7.778v5.352c0 4.367-.043 5.387-.234 5.543-.157.129-.875.18-2.11.148l-1.87-.046.816-1.766c1.062-2.29 2.363-5.524 2.421-6.024.043-.363-.105-.433-2.14-1.042-1.2-.36-2.238-.653-2.3-.653-.067 0-.165.223-.22.492-.164.82-1.617 4.344-2.562 6.223l-.89 1.762-.36-1.176c-.492-1.598-1.531-4.254-1.707-4.363-.145-.09-2.86.847-3.078 1.058-.067.067.18.907.543 1.867.367.961.859 2.5 1.093 3.426.235.922.45 1.7.473 1.723s.645-.215 1.379-.531c.734-.32 1.46-.579 1.61-.579.152 0 1.011.489 1.91 1.086l1.632 1.082.461-.835c.25-.461.516-.778.582-.707.125.132.89 2.578 1.082 3.468l.106.489 2.316-.094c1.703-.067 2.57-.18 3.281-.43m-22.03-.445c.78-.137 1.444-.274 1.476-.305.144-.144-.422-8.719-.594-8.969-.062-.097-.73-.086-1.71.028l-1.606.183.027.586c.016.32.082 2.414.152 4.653.149 4.699-.125 4.238 2.254 3.824m4.327-.906c2.157-.532 2.114-.512 2.114-.993 0-.57-1.047-5.656-1.43-6.96-.156-.532-.336-.962-.399-.962-.32.012-2.945.653-3.03.739-.055.054.109.988.366 2.07a72 72 0 0 1 .829 4.195c.292 1.805.41 2.207.617 2.149.14-.04.562-.149.933-.238m29.332-2.493c0-.757-3.422-10.117-3.699-10.117-.156 0-4.11 1.317-4.187 1.395-.036.03.39 1.3.941 2.82 1.035 2.855 2.211 6.676 2.211 7.188 0 .16.043.335.098.39.187.184 4.636-1.422 4.636-1.676M56.97 50.777v-9.316h-2.125c-1.172 0-2.098-.059-2.063-.129.848-1.64 2.836-5.754 2.836-5.863 0-.082-.578-.559-1.289-1.063l-1.289-.914-2.344.055c-1.613.039-2.347 0-2.347-.125 0-.102.16-.758.351-1.457.196-.703.317-1.313.27-1.36-.149-.144-4.25-.695-4.36-.585-.054.062-.23.64-.382 1.285-.664 2.765-2.16 6.691-3.36 8.812-.285.508-.93 1.52-1.43 2.246-.496.727-.882 1.336-.859 1.356.027.015.317.207.64.422.329.218.84.625 1.141.902l.551.512v7.156c0 3.937.05 7.207.113 7.27.063.058 3.676.109 8.028.109h7.918Zm24.176-13.593V34.75l-3.98-.043-3.981-.047-1.032-2.433c-.57-1.336-1.047-2.446-1.054-2.465-.035-.055-4.692 1.265-4.782 1.355-.046.043.192.848.528 1.781.332.934.605 1.73.605 1.774 0 .039-2.09.074-4.648.074h-4.649v4.867h22.993Zm0 0"/>
    <path fill="#f9f9f9" d="M45.594 40.578a59 59 0 0 0 .82-1.762l.395-.882h2.882l-.152.406a50 50 0 0 1-.781 1.762l-.625 1.359h-2.965Zm-.457 6.672v-1.426h1.86v2.852h-1.86Zm5.578 0v-1.426h2.027v2.852h-2.027Zm0 6.965v-1.34h2.027v2.684h-2.027Zm-5.578 0v-1.34h1.86v2.684h-1.86Zm19.609-4.949v-2.098h9.805v4.195h-9.805ZM45.89 86.492l.727-1.644 1.375-.047c1.035-.035 1.367.004 1.36.168-.004.117-.29.86-.633 1.644l-.625 1.426-1.465.047-1.465.05Zm-.753 7.59v-1.426h1.86v2.852h-1.86Zm5.41 0v-1.426h1.86v2.852h-1.86Zm-5.41 6.883v-1.43h1.86v2.856h-1.86Zm5.41 0v-1.43h1.86v2.856h-1.86Zm0 0"/>
</svg>
