<svg xmlns="http://www.w3.org/2000/svg" width="120" height="120" viewBox="0 0 120 136">
    <path stroke="red" stroke-width=".004" d="M87.262 71v4.176l.149-.144.147-.139.146-.134.145-.13.143-.125.062-.052.049-.043.018-.015.008-.007.006-.004v-.001l.11.152.138.189.156.207.162.208.157.191.142.155-.385.292-.162.123-.545.483-.296.3-.23.234-.49.572-.25.336-.192.26-.375.605-.057-.022-.002-.001-1.158-.447.166-.275.077-.12.1-.156.187-.275.196-.275.203-.272.211-.268V71h1.264m-4.135.039.035.201.051.219.06.22.002.009.073.227.044.117.035.098.045.105.01.024.018.04.004.014.004.007.002.005-.308-.013-.307-.008-.29-.004h-.256l-.093.002h-.111l-.136.008-.086.003h-.003l-.065.013-.052.023-.035.037-.02.053-.007.07v3.73h3.14v1.209H79v-1.21h1.455V72.48l.012-.313.039-.263.072-.218.003-.005.11-.173.155-.142.206-.111.242-.083.282-.058.324-.039.02-.002.346-.02.409-.01.425-.002.015-.001h.012m5.054 6.641.082.144.007.012.11.182.123.193.13.191.126.174.094.115.024.03-.448.31-.365.293-.087.07-.439.394-.084.084-.325.326-.361.41-.295.392-.036-.016-.42-.175-.761-.317.412-.507.348-.384.114-.126.496-.5.517-.474.523-.437.322-.24.193-.144m-3.745 2.71h-5.168v-1.208h5.168v1.209M88.018 82l.117.137.157.16.18.17.188.162.17.132.011.009.159.107-.715.571-.411.519-.09.113-.324.67-.186.689-.07.576-.013.11-.02.66v1.58l.098-.08.1-.075.102-.075.1-.072.003-.002.21-.146.118.148.006.008.156.17.176.175.183.164.153.12.026.022.095.063.068.046-.702.48-.622.516-.286.284-.257.255-.368.436-.096.114-.387.55-.03.052-.28.481-1.485-.237.037-.065.038-.066.078-.132.04-.064.042-.062H82.18l-.22.046-.04-.024-.907-.533.038-.06.098-.151.147-.216.157-.221.076-.103.088-.12.17-.223.133-.167.04-.052H79v-6.084l.016-.313.052-.262.09-.216.138-.177.186-.142.239-.112.15-.042.142-.04.338-.058.025-.002.122-.012.24-.024.123-.006.035-.002.28-.014.491-.01.253-.002h.293l.05.188.076.21.091.219.102.216.106.202.1.169.004.008-.415-.018-.407-.01h-.01l-.391-.004h-.346l-.277.001h-.185l-.109.01-.086.02-.064.034-.043.05-.025.07-.008.092v.839h5.822l.142-.36.031-.077.221-.424.271-.406.326-.383.384-.355.359-.26.035-.026.027-.02.013-.01.011-.007m-2.162 4.087.005-.071.007-.097.015-.169.02-.17.027-.168h-2.098v1.008h2.005l.01-.165.01-.168M97 68l-3.8 22.803L93 92l-7.52 5.013L84 98l-7.225-4.816L75 92l-.2-1.197L71 68h26M82.515 87.48h-2.14v.963h2.14v-.962m-.595-1.061h.595v-1.008h-2.14v1.008h1.545m3.83 3.257.12-.127h-2.4l-.092.122-.095.129-.094.134-.092.137-.026.04-.062.096-.083.136H85.2l.105-.135.078-.097.03-.037.11-.134.112-.133.116-.13m-12.754-19.68L75 82.291l1.382 8.48v.032h.007L79 92.587l5 3.416L89.859 92l1.752-1.197h.007v-.031L93 82.29l2.003-12.293H72.997M85.829 87.48h-1.997v.962h1.997Zm0 0" transform="matrix(4.29492 0 0 4.26451 -300.644 -285.722)"/>
    <path fill="#f9f9f9" d="M44.207 112.75c-8.742-5.93-16.07-10.906-16.293-11.062-.387-.27-.691-2.04-7.559-43.895a107244 107244 0 0 0-7.261-44.238l-.106-.63h47.094c43.43 0 47.094.02 47.094.274 0 .309-14.34 87.84-14.438 88.106-.047.136-32.172 22.039-32.543 22.191-.054.02-7.25-4.812-15.988-10.746m23.715-6.523c.754-1.375 2.91-4.387 4.219-5.895 1.648-1.902 4.62-4.5 6.925-6.043.856-.578 1.563-1.098 1.563-1.16.004-.059-.36-.379-.809-.703-.449-.328-1.41-1.211-2.132-1.965l-1.32-1.371-1.247.86-1.246.862.004-4.578c.008-4.867.195-6.945.84-9.191.914-3.172 2.773-5.93 5.418-8.035.832-.66 1.511-1.258 1.511-1.324-.003-.067-.37-.368-.816-.668-.45-.301-1.379-1.114-2.066-1.801-.692-.692-1.32-1.258-1.395-1.258-.078-.004-.617.332-1.2.746-1.3.922-3.35 3.031-4.304 4.422-.695 1.016-1.84 3.227-2.191 4.223l-.18.507H44.63v-1.988c0-2.84-.426-2.637 5.43-2.59 2.593.02 4.714.016 4.714-.007 0-.024-.336-.688-.742-1.477-.406-.785-.918-1.969-1.133-2.633l-.39-1.207-1.024.004c-2.336.008-7.062.336-8.168.563-2.402.496-3.77 1.418-4.386 2.957-.282.703-.305 1.753-.348 14.73l-.05 13.973h12.656l-1.657 2.207c-.91 1.21-1.812 2.48-2.004 2.82l-.347.613 1.957 1.14 1.96 1.142 5.387-.024c2.965-.016 5.387.02 5.387.074 0 .055-.168.395-.375.754-.21.36-.344.688-.297.73.059.055 4.317.798 6.301 1.098.074.012.266-.214.422-.507m4.172-48.055c2.05-2.527 6.851-6.86 8.824-7.953.293-.164.285-.203-.113-.73-.618-.817-2.504-3.657-2.582-3.887-.188-.559-6.141 4.445-9.22 7.753-2.058 2.211-3.605 4.079-3.483 4.208.132.14 4.855 2.16 5.09 2.175.113.012.78-.695 1.484-1.566M62.043 54.55v-2.684H39.727v5.371h22.316Zm8.516-6.848c2.504-3.734 6.601-8.101 9.761-10.402.727-.528 1.32-1.02 1.325-1.09.003-.066-.43-.645-.965-1.277a42 42 0 0 1-1.817-2.34c-.465-.657-.898-1.196-.96-1.2-.063-.003-.919.715-1.903 1.598l-1.79 1.602v-17.64h-5.577v23.784l-1.07 1.41c-1.747 2.297-3.954 5.645-3.801 5.762.18.145 4.836 1.91 5.07 1.926.184.012.79-.742 1.727-2.133m-6.489-5.738v-2.688H50.547V22.988l.465-.183c.3-.117 1.64-.153 3.812-.106 3.016.07 3.332.051 3.227-.191-.438-.996-1.086-2.988-1.336-4.11l-.297-1.328-2.727.098c-4.64.168-6.718.707-7.82 2.031-.976 1.18-.965 1.082-1.031 10.973l-.059 9.105h-6.238v5.371H64.07Zm0 0"/>
    <path fill="#f9f9f9" d="M59.504 80.652v-2.097h8.828l-.098.547c-.054.3-.148 1.242-.21 2.097l-.114 1.551h-8.406Zm-14.875 0v-2.097h8.96v4.195h-8.96Zm0 8.731v-1.93h8.96v3.86h-8.96Zm14.875 0v-1.93h8.453v3.86h-8.453Zm-3.719 10.015c0-.152 1.567-2.453 1.988-2.925.239-.266.711-.293 5.22-.293h4.956l-2.781 3.343-4.691.008c-2.579.004-4.692-.054-4.692-.133m0 0"/>
</svg>
