<svg xmlns="http://www.w3.org/2000/svg" width="120" height="120" viewBox="0 0 120 136">
    <path fill="red" stroke="red" stroke-width=".004" d="m32.531 38.303-.225-.016-.205-.01-.185-.005-.163.001h-.009l-.133.005-.12.01-.065.014-.06.02-.053.026-.049.034-.042.04-.037.051-.097.197-.061.242-.016.062-.059.394-.042.47-.005.098-.022.431-.012.468v.057l-.001.034-.001.014.219-.271.223-.262.227-.25.217-.221.013-.013.232-.216.212-.178.012-.01.007-.006.086.168.107.186.044.069.078.125.13.192.092.126.038.052.125.154-.163.118-.203.146-.127.111-.239.21-.356.367-.17.204-.164.2-.303.429-.26.443.029.195v.001l.033.193.037.192.042.19.046.189.038.14.007.021.003.017.004.01.182-.194.185-.183.186-.174.006-.005.179-.159.182-.155.101-.083.079-.064.032.064.059.115.108.198.12.205.13.201.034.048.099.14.126.154.007.009-.211.143-.021.015-.194.145-.217.174-.219.186-.217.196-.124.12-.053.05-.036.035.036.055.096.148.145.201.155.2.168.197.179.197.19.197-.885.663-.048-.046-.12-.113-.158-.16-.149-.161-.14-.163-.131-.163-.123-.165-.113.142-.09.118-.019.025-.103.141-.097.142-.089.14-.08.14-.955-.602.13-.211.083-.128.057-.088.15-.218.16-.221.164-.219.105-.134.018-.022.048-.062-.231-.597-.127-.46-.041-.147-.115-.615-.016-.145-.055-.48-.036-.638-.01-.649v-.024l-.192.097-.24.122-.424.24-.133.082-.284.176-.406.275-.394.29-.38.307h2.26v1.11h-2.091v.91h1.569v1.11h-1.569v1.056h-1.223v-1.056h-1.34v-.463l-.12.194-.117.194-.001.001-.112.194-.108.196-.103.197-.1.196-.002-.001-.597-.204-.546-.186-.008-.002.008-.015.208-.397.231-.404.107-.174.137-.221.257-.386.268-.375.276-.364h-1.484v-1.11h2.46l.133-.141.135-.135.137-.133.14-.13.142-.128.145-.127h-2.746V37h1.254v.401h2.215v-.4h1.192v3.592l.138-.084.136-.083.136-.08.047-.028.09-.052.14-.077.126-.064.005-.003.007-.005.004-.002h.002l.076.108.092.127.105.141.113.146.031.04.085.107.03.038.084.102.02-.683.044-.658.073-.614.01-.057.098-.493.15-.467.197-.366.079-.105.092-.092.102-.08.113-.063.08-.032.042-.017.13-.035.197-.043.206-.03.215-.016.223-.006h.234l.056.003.08.003.055.002.033.001.017.001.012.21.03.211.044.21.062.205.079.2.067.134.012.022.01.019.004.01.003.005m.058 10.61-.445.208-.052.03-.32.192-.304.236-.244.247-.19.257-.144.265h1.942v1.175H30.67v1.097h-1.211v-1.097h-2.787v1.112H25.4v-1.112h-2.155v-1.175H25.4v-2.333h1.272v2.333h2.902l.136-.435.206-.426.237-.335.054-.076.39-.389.505-.36.445-.23.082-.042.048-.025.028-.013.02-.011.012-.006.102.15.132.167.152.17.16.166.16.145.105.082.042.033m-.358 3.807.085.168.114.183.128.177.006.008.145.177.011.012.048.051.089.095.143.127-.232.104-.322.145-.512.272-.472.292-.433.31-.309.255-.086.071-.137.13-.224.209h2.438v1.159h-3.359l-.079.138-.046.08-.116.22-.107.221-.009.02-.088.202-.087.226-.077.228-1.333-.215.074-.19.08-.191.026-.06.056-.128.088-.186.094-.184.024-.043.076-.138h-4.57v-1.16h2.422l-.23-.209-.153-.14-.028-.022-.394-.303-.4-.259-.057-.037-.484-.263-.508-.225-.46-.16-.032-.013-.02-.006-.014-.005.148-.143.155-.17.155-.187.086-.115.059-.079.127-.19.1-.175.274.106.265.119.207.104.052.025.16.09.092.051.247.151.242.16v-.552h2.07v-1.167h1.205v1.167h2.178v.445l.216-.141.186-.114.038-.023.23-.134.238-.129.246-.124.213-.098.027-.013.015-.007m-2.748 1.86.229-.22.242-.213h-1.31v.937H27.44v-.937h-1.41l.221.204.211.213.162.179.039.043.191.23.051.068.13.173.026.04.143.209h1.462l.006-.007.162-.203.023-.03.199-.234.208-.228.22-.224M41 34l-3.8 22.803L37 58l-7.52 5.013L28 64l-7.225-4.816L19 58l-.2-1.197L15 34h26m-24.003 1.998L19 48.291l1.382 8.48v.032h.007L23 58.587l5 3.416L33.859 58l1.752-1.197h.007v-.031L37 48.29l2.003-12.293H16.997m10.026 2.428h-2.215v.795h2.215v-.795m-2.215 1.797v.755h2.215v-.755h-2.215m1.346 3.693h-.123l-.137.147-.132.149-.128.15-.124.152-.12.155-.113.157h.877Zm0 0" transform="matrix(4.29492 0 0 4.26451 -60.129 -140.729)"/>
    <path fill="#f9f9f9" d="M43.867 112.523c-8.926-6.054-16.258-11.035-16.293-11.07-.035-.031-3.285-19.68-7.219-43.664-3.937-23.984-7.203-43.89-7.261-44.234l-.106-.63h47.094c43.23 0 47.094.02 47.094.27 0 .309-14.34 87.844-14.434 88.106-.05.136-32.176 22.043-32.547 22.195-.054.02-7.402-4.914-16.328-10.973m19.871-6.816c.215-.578.793-1.863 1.293-2.855l.903-1.805h14.535v-5.203H70.266l.41-.442c1.531-1.648 5.5-4.336 8.625-5.847 1.215-.59 2.246-1.106 2.293-1.149.043-.047-.309-.488-.785-.98-.746-.77-1.641-1.973-2.293-3.082-.172-.293-.211-.29-.993.008-.449.168-1.77.859-2.933 1.535-1.168.675-2.149 1.23-2.18 1.23s-.058-.379-.058-.84v-.84h-9.286l-.093-4.953-2.664-.046-2.664-.043v5.043h-8.942l-.101 2.164-.93-.598c-1.063-.68-4.438-2.336-5.074-2.488-.383-.094-.512.02-1.184 1.035a20.5 20.5 0 0 1-1.84 2.277c-.594.629-1.05 1.164-1.011 1.192.035.03.675.261 1.417.515 2.926 1.008 6.415 3.012 9.122 5.254l1.175.973-10.21.086v5.199h9.718c5.348 0 9.719.027 9.719.058 0 .036-.367.844-.82 1.805-.739 1.574-1.246 2.82-1.157 2.848l2.825.484a500 500 0 0 1 2.894.492c.059.012.281-.453.492-1.027M54.434 81.41v-2.35h11.832v4.699h5.41v-4.7h9.3v-5.203h-4.058c-2.23 0-4.059-.058-4.059-.125.004-.214.672-1.234 1.325-2.007.855-1.024 2.175-1.977 4.129-2.993l1.656-.863-.977-.847a16.4 16.4 0 0 1-1.82-1.95c-.465-.605-.938-1.101-1.047-1.11-.312-.015-3.066 1.517-4.11 2.282-1.242.914-2.992 2.797-3.706 3.988-.32.536-.786 1.547-1.036 2.254l-.457 1.286-6.191.046-6.191.043v-9.906h-5.579v9.902H39.56v5.204h9.296v4.699h5.579Zm3.043-23.922v-2.265h6.761v-4.868h-6.761v-3.69h9.128v-4.868h-9.668l.903-.727c2.164-1.73 5.87-4.125 8.191-5.285l1.035-.52.11 1.024c.058.563.105 1.637.105 2.387 0 3.312.86 7.914 2.059 11.039L69.836 51l-1.168 1.566c-1.441 1.926-2.797 3.996-2.691 4.102.156.156 4.085 2.582 4.175 2.578.047-.004.387-.488.754-1.078s.914-1.363 1.215-1.715l.55-.64.552.671c.761.922 3.05 3.27 3.191 3.27.082 0 3.117-2.188 3.863-2.785.032-.028-.504-.68-1.191-1.45s-1.621-1.91-2.07-2.535l-.82-1.14.574-.594c.507-.527 2.824-2.43 4.363-3.59l.566-.426-.789-1.066a26 26 0 0 1-1.558-2.469c-.563-1.015-.836-1.367-1-1.273-.47.258-3.989 3.453-4.16 3.773-.098.184-.243.27-.325.188-.078-.078-.34-1.11-.578-2.285l-.437-2.145.457-.793c1.714-2.977 5.054-6.707 7.355-8.219.36-.234.648-.488.648-.562s-.414-.711-.921-1.41c-.508-.703-1.172-1.727-1.477-2.278s-.602-1-.66-1c-.242 0-3.277 2.985-4.465 4.387l-1.266 1.5v-.637c.004-.347.079-1.765.172-3.152.285-4.27.801-6.266 1.785-6.906.36-.23.844-.278 2.805-.258 2.184.02 2.36 0 2.246-.266-.574-1.332-.969-2.66-1.129-3.781l-.191-1.332-2.465.082c-3.832.133-5.105.668-6.258 2.629-.718 1.223-1.21 2.73-1.597 4.883-.329 1.804-.61 4.879-.61 6.656 0 2.055-.058 2.09-1.16.672-.523-.672-1.074-1.402-1.219-1.621l-.261-.395-1.63.953c-.894.524-1.671.95-1.722.95s-.094-3.399-.094-7.551v-7.555h-5.41v1.68h-9.297v-1.68H40.91v21.485h11.668l-1.734 1.671-1.735 1.676-5.285.004-5.281.008v4.86l3.105.046 3.106.043-1.344 1.844c-2.183 2.996-5.058 7.847-4.746 8.023.285.16 4.973 1.664 5.016 1.606.027-.032.406-.727.843-1.54a56 56 0 0 1 1.293-2.269l.496-.781.008 1.594h5.746v4.53h5.41Zm0 0"/>
    <path fill="#f9f9f9" d="M55.871 94.629c-.465-.656-1.52-1.899-2.344-2.762l-1.5-1.562h5.618v4.027h5.41v-4.027h5.039l-1.887 1.894c-1.035 1.043-2.184 2.293-2.55 2.77l-.673.875-3.132-.008-3.137-.008Zm-7.183-44.348c0-.281 2.96-3.617 3.214-3.617.098 0 .164.754.164 1.844v1.847h-1.691c-.93 0-1.687-.03-1.687-.074m-2.2-17.886v-1.508h9.297v3.02h-9.297Zm0-7.551v-1.68h9.297v3.356h-9.297Zm0 0"/>
</svg>
