<svg xmlns="http://www.w3.org/2000/svg" width="120" height="120" viewBox="0 0 120 136">
    <path stroke="red" stroke-width=".004" d="M89-26.411h-4.266v.577h3.172v4.292h-3.172v.524h4.004v1.147h-4.004V-19h-1.34v-.871h-4.077v-1.147h4.076v-.524h-3.251v-4.292h3.251v-.577H79v-1.148h4.393v-1.44h1.341v1.44H89v1.148m-1.102 8.435.145.133.02.016.16.129.202.149.207.141.197.125.17.1-.446.8-.063.112-.353 1.008-.224 1.058-.124 1.065-.044.852-.009.175-.012.948V-8h-8.29v-1.33h6.975v-1.59h-5.3l-.251.05-.114-.05-.799-.343.234-.855.038-.107.023-.063.225-.62.333-.729.38-.67.425-.613.317-.38.151-.18-.151-.096-.286-.181-.468-.252-.498-.226-.392-.149-.135-.051-.556-.172-.418-.104-.056-.014-.04-.009-.03-.008-.024-.006-.017-.004.152-.165.16-.2.16-.222.153-.231.136-.224.113-.206.634.186.597.214.56.242.255.131.272.141.494.299.027.02.14.097.115.083.087.062.063.044.032.023.457-.32.481-.294.504-.267.525-.243.546-.22.353-.124.015-.005.085-.03.049-.017.03-.01.021-.008.012-.004.09.2.111.22.13.227.138.22.14.202.118.145.02.026-.51.147-.449.159-.044.015-.131.055-.345.145-.457.226-.439.253-.318.212-.101.068.372.458.345.493.117.193.202.334.292.56.266.592.217.562.024.063h.417l.004-.063.058-.91.117-1.013.184-1.018.267-.99.065-.165.298-.761.466-.819.006-.012M97-32 93.2-9.197 93-8l-7.52 5.013L84-2l-7.225-4.816L75-8l-.2-1.197L71-32h26m-10.984 7.838h.637v-.655h-1.919v.655h1.282m-3.175 9.928-.28.36-.258.383-.234.401-.149.3-.06.122-.157.38-.026.063h2.96l-.027-.063-.168-.377-.217-.421-.238-.402-.26-.383-.28-.362-.093-.103-.212-.238-.21.238-.09.102m-9.845-15.768L75-17.709l1.382 8.48v.032h.007L79-7.413l5 3.416L89.859-8l1.752-1.197h.007v-.031L93-17.71l2.003-12.293H72.997m8.923 5.185h-.454v.655h1.927v-.655H81.92m4.733 2.265v-.654h-1.919v.654h1.919m-3.26 0v-.654h-1.927v.654Zm0 0" transform="matrix(4.29492 0 0 4.26451 -300.644 140.729)"/>
    <path fill="#f9f9f9" d="M43.867 112.523c-8.926-6.054-16.258-11.035-16.293-11.07-.035-.031-3.285-19.68-7.219-43.664-3.937-23.984-7.203-43.89-7.261-44.234l-.106-.63h47.094c43.43 0 47.094.02 47.094.274 0 .309-14.34 87.84-14.438 88.106-.047.132-32.164 22.035-32.543 22.191-.054.02-7.402-4.914-16.328-10.973M76.293 95.97c.074-9.516.125-11.09.426-13.387.73-5.555 1.96-9.742 3.851-13.078.598-1.059 1.067-1.977 1.043-2.043-.027-.07-.73-.57-1.566-1.117-.84-.543-1.895-1.309-2.348-1.7-.953-.82-.742-.964-2.097 1.415-2.68 4.687-4.368 11.718-5.032 20.93l-.105 1.468H68.87l-.73-1.805c-1.711-4.222-4.106-8.375-6.38-11.062l-.734-.863 1.227-.786c2.016-1.296 5.805-3.054 8.348-3.879l2.39-.773-1.05-1.535c-.575-.848-1.301-2.047-1.61-2.668-.309-.625-.652-1.133-.766-1.133-.324 0-3.53 1.215-5.464 2.07a44 44 0 0 0-6.23 3.422l-1.38.918-1.8-1.183c-3.141-2.059-7.012-3.817-10.657-4.84-1.597-.45-1.664-.453-1.84-.149-.738 1.246-2.297 3.516-2.925 4.25-.512.602-.68.907-.528.957.121.043.719.2 1.324.344 3.371.82 7.27 2.383 10.047 4.028l1.617.957-.902 1.035c-2.648 3.031-5.062 7.289-6.652 11.734-.57 1.59-1.61 5.18-1.524 5.266.024.023.922.414 1.996.87 1.782.759 2.024.821 2.7.692.41-.078 5.75-.148 11.863-.152l11.113-.008v6.715H40.402v5.875h35.805ZM63.395 57.91v-1.847h17.242v-5.036H63.395v-2.015h13.523V30.55H63.395v-2.352h18.257v-5.035H63.395v-6.21h-5.918v6.21H38.543V28.2h18.934v2.352H43.445v18.46h14.032v2.016H39.895v5.035h17.582v3.692h5.918Zm0 0"/>
    <path fill="#f9f9f9" d="M50.375 88.32c0-.074.527-1.187 1.168-2.476 1.191-2.383 2.75-4.715 4.145-6.207l.777-.828.691.754c1.672 1.82 3.809 5.093 4.961 7.609l.59 1.285h-6.164c-3.39 0-6.168-.059-6.168-.137m13.02-45.183v-1.34h8.113v2.683h-8.113Zm0-6.879v-1.344h8.113v2.684h-8.113Zm-14.032 0v-1.344h8.114v2.684h-8.114Zm0 6.879v-1.34h8.114v2.683h-8.114Zm0 0"/>
</svg>
