<svg xmlns="http://www.w3.org/2000/svg" width="120" height="120" viewBox="0 0 120 136">
    <path stroke="red" stroke-width=".004" d="m-32.205-34.514-.23.034-.243.038-.09.015-.168.028-.269.044-.28.047-.288.046v2.652h1.41v1.067h-1.41v.778h.812v.465l.086-.086.085-.08.022-.02.063-.057.085-.074.085-.07.05-.042.016-.013.008-.007.008-.006.004-.003.048.173.068.219.082.246.087.248.074.2.012.03.062.149.016.04-.397.312-.371.343-.023.021-.38.404-.145.176-.212.261-.32.46-.272.476-.045-.02-.651-.296-.226-.102v-.001l.031-.065.031-.064.03-.065.006-.01.027-.053.01-.02.024-.042.001-.001.018-.031.013-.02.006-.01-.32-.193-.312-.202-.003-.002-.293-.203-.273-.203-.245-.195-.209-.184.344-.69.066-.134.098-.195.007-.015.004-.007v-.003l.038.036.038.038h.001l.042.04.043.04.045.039.047.036v-.968h.914v-.778h-1.277v-1.067h1.277v-2.469h-.003l-.007.002-.031.005-.754.135-.482.086-.07-.965-.001-.025.65-.144.654-.14.04-.01.604-.127.623-.132.592-.127.23-.051.32-.07.242 1.122v.006m-2.678.823-.075.265-.074.296-.07.315-.009.047-.054.272-.054.31-.042.287-.897-.244h-.002l.099-.32.092-.305.005-.017.095-.315.092-.3.087-.275.082-.244.682.215.02.006.015.005.008.002m-3.278-.335v3.826h-2.199v-3.285h1.434v-.54h.765m-1.411-.839-.237-.01h-.126l-.106-.002h-.216l-.19.001-.154.002h-.106l-.07.005-.051.014-.036.024-.01.014-.014.023-.012.052-.004.067v7.081h3.28v-8.384h1.07v9.512H-42v-8.232l.01-.262.031-.225.058-.191.085-.161.12-.133.153-.11.191-.08.22-.06.172-.027.08-.012.284-.025.323-.013.165-.002.172-.002h.024l.025.17.04.196.054.208.066.206.074.192.077.158.003.006m7.55-8.684-.001.001-.05.035-.203.142-.005.004-.282.202-.204.151-.006.005-.101.075-.245.185-.086.065-.134.104-.161.124-.02.015-.026.02-.002.002-.352.274v1.731l.553-.452.008-.007.005-.005.154.253.198.285.215.285.014.02.248.309.255.3.008.009.243.269-.002.002-.766.602-.116.092-.168-.173-.174-.183-.098-.105-.016-.018-.062-.068-.174-.195-.168-.194-.024-.03-.133-.162V-37h-1.233v-10h1.233v3.39l.216-.184.213-.182.132-.112.007-.006.001-.001.003-.002.068-.057.208-.173.205-.166.08-.063.108-.085.01-.007.005-.005.405.719.19.337.002.006.005.008.002.003.007.012.004.007.005.009.002.004m-3.46.208v1.167h-4.08v1.041h-.672l.112.038.006.002.188.06.106.032.085.026h.002l.033.01.008.002.14.04.124.035.007.002.016.005.008.002-.004.004-.008.007-.012.01-.018.016-.251.22-.03.025-.001.002-.13.146-.007.008-.075.084-.079.089-.236.33-.001.001-.025.034v.001l-.002.002-.153.264-.031.053-.041.071-.001.002-.044.093-.147.315-.068.19-.053.145-.03.082-.042-.004-.071-.007-.5-.047-.469-.044.045-.13.046-.126.048-.127.05-.124.055-.123.058-.122.179-.351.232-.371.124-.177.004-.005.122-.165.006-.008.124-.154.134-.153.036-.038.038-.04.063-.066.012-.012.057-.054h-.34v-1.04H-42v-1.168h1.164v-2.316l.01-.279.037-.238.067-.2.093-.149.01-.015.147-.134.04-.022.155-.083.233-.076.108-.022.156-.033.297-.036.075-.005.255-.016.241-.007.122-.003.33-.003h.068l.008.045.025.14.052.202.002.006.02.062.03.095.015.047.006.017.024.065.047.126.04.092.003.008.042.098.001.001.047.093.033.07.003.004.004.008.001.003H-38l-.272-.007-.111-.002h-.016l-.149-.002-.14-.002-.06-.001h-.163l-.12-.001h-.307l-.07.003h-.008l-.056.01-.042.023-.019.022-.009.01-.015.048-.006.06v2.294h2.436l-.015-.017-.135-.155-.01-.01-.09-.103-.007-.01-.085-.103-.158-.195-.075-.1-.117-.153-.041-.054-.01-.012-.159-.228-.04-.056-.022-.032-.19-.303-.1-.185-.002-.004-.047-.087.047-.026.496-.274.098-.054.058-.031.049-.028.08-.044.093-.052.035-.02.005-.002.009-.005.056-.03.04-.023.002-.002h.003l.025-.015.02-.011.028.06.068.144.038.082.176.316.067.106.074.117.07.11.2.293.033.046.007.01.218.29.02.028h.002l.249.305-.015.008-.026.013-.004.003-.042.02-.184.096-.398.205-.13.067-.203.105h1.584m-.678 2.04v.004l.002.006.043.21.036.12.038.126.097.266.054.128.06.144.004.008.003.007.122.254.049.091.085.161.001.001-.013.002-.05.01-.21.037-.496.09-.196.035-.142-.242-.002-.004-.002-.003-.002-.004-.044-.083-.006-.01-.086-.162-.048-.1-.07-.145-.008-.017-.03-.07-.05-.114-.03-.07-.088-.242-.026-.094-.034-.12.255-.055.081-.017.26-.055.268-.057.03-.006h.002l.007-.001.052-.011.037-.008h.001l.027-.006h.001l.018-.004m-1.842.297.019-.002v.006l.004.04.021.176.052.253.02.07.003.015.05.188.09.28.004.01.012.031.087.233.002.006.04.093.073.171-.014.001-.021.002h-.007l-.01.002h-.021l-.01.002-.019.002-.26.024-.614.056-.037-.077-.084-.178-.005-.01-.003-.006-.039-.092-.07-.168-.024-.06-.08-.211-.063-.191-.005-.016-.019-.057-.01-.035v-.003l-.057-.21-.01-.05-.03-.157-.001-.013.127-.015.289-.035.189-.022.082-.01.22-.027.01-.001.008-.001.005-.001.04-.005.035-.004h.002l.008-.001.02-.003m2.604 3.014h-.166l-.274.002-.211.002-.065.001-.22.022-.521.053h-.007l-.017.002-.01.001-.31.055-.086.016-.338.06-.08.014h-.004l-.179.045-.496.12-.007.002-.152.038-.257.078-.112.034-.25.076-.206.062-.011.004h-.005l-.016.007-.536.194-.114.042-.163.059-.2-.368-.019-.038-.114-.211-.254-.472.007-.003.247-.09.114-.042.139-.051.156-.055.096-.034.105-.035.146-.05.25-.08.14-.041.112-.033.376-.105.112-.032.245-.07h.004l.167-.037.292-.065.204-.045.137-.03.353-.067.04-.007.07-.012.088-.014.225-.038.076-.01.035-.005.26-.036.268-.03.092-.01.345-.026.03-.002.029-.001.264-.01h.008l.001.018.009.158.017.167.003.036v.005l.002.014.028.227.035.236v.002l.007.04.028.163.002.015.003.015.002.01.005.026.016.083.01.05M-24-50l-2.872 17.232-.928 5.57L-28-26l-7.52 5.013-.001.001L-37-20l-9-6-.2-1.197-.928-5.571L-50-50h26m-8.433 17.78-.008.002-.327.097-.438.13-.085-.305-.082-.322-.034-.15-.04-.175-.065-.316-.051-.297-.037-.264.828-.229.004.038.024.23.042.298.055.317.064.325.017.073.056.246.077.302m-5.651 3.827h-2.356v-1.022h2.356v1.022m-6.534 1.165v.03h.007l2.61 1.785L-37-21.997l5-3.416.859-.587 1.752-1.197h.007v-.031l.903-5.54.479-2.941.21-1.291 1.793-11.002h-22.006L-46-35.709l.479 2.94.903 5.54m10.975-1.331.096-.112.042-.05h-2.15l.057.05.143.122.215.171.228.17.196.139.04.028.244.165.203.133.015.01.01.007.013.008.006.004.118-.177.124-.172.13-.168.134-.166.136-.162m-5.922-2.608h.638v-1.356h-.638Zm0 0" transform="matrix(4.29492 0 0 4.26451 219.04 217.49)"/>
    <path fill="#f9f9f9" d="M43.914 112.555c-8.91-6.047-16.254-11.047-16.316-11.114-.149-.16-14.61-88.363-14.504-88.468.047-.047 21.25-.063 47.125-.04l47.043.04-7.235 44.086c-3.98 24.246-7.265 44.164-7.304 44.257-.047.13-29.7 20.364-32.176 21.957l-.43.278Zm29.121-6.676c1.754-3.082 4.813-6.64 7.59-8.828.547-.43 1.012-.797 1.035-.817.024-.015-.25-.82-.61-1.785-.359-.96-.78-2.195-.933-2.738-.156-.547-.347-1.031-.433-1.082-.082-.055-.594.285-1.133.754l-.985.847v-1.828h-3.472v-3.12h6.12v-4.598H74.09l.086-11.243 3.144-.511c1.73-.282 3.223-.54 3.32-.578.172-.067-.714-4.602-.945-4.825-.12-.12-15.707 3.164-15.906 3.352-.156.148.043 3.836.219 4.121.094.148.363.156 1.062.04.832-.145.926-.134.832.1-.183.473-2.226 7.106-2.226 7.231 0 .145 3.812 1.207 3.926 1.098.039-.043.222-.914.398-1.938.18-1.02.543-2.719.809-3.777.27-1.055.488-1.95.488-1.988 0-.04-.598-.239-1.332-.446-.73-.207-1.27-.43-1.2-.496.122-.11 2.055-.488 2.505-.488.144 0 .195 1.34.195 5.176v5.172h-5.461v4.597h5.46v3.121h-3.96l-.047 1.985-.047 1.988-.46-.363c-.259-.2-.49-.336-.52-.305-.032.035-.543 1.023-1.14 2.195l-1.087 2.137-.016-34.078h-4.796v35.8H43.496l.043-15.394.04-15.394 2.788-.047c2.567-.043 2.778-.067 2.664-.328-.43-1-1.07-3.098-1.168-3.82l-.113-.856-2.5.09c-4.074.148-5.332.683-6.25 2.664l-.383.816-.043 18.598-.047 18.597h23.66v-6.425l1.262 1.027c1.223.988 5.11 3.648 5.551 3.797.164.05.117.277-.184.918-.222.465-.37.871-.332.898.235.164 3.743 1.73 3.907 1.743.109.007.402-.336.644-.766M55.57 94.262v-2.219H45.316v4.434H55.57Zm-.332-13.715v-8.211h-3.472v2.3h-6.118v14.122h9.59Zm24.559-.66c-.277-.871-.945-4.125-1.176-5.742-.152-1.04-.285-1.907-.3-1.926-.028-.035-3.618.937-3.676.996-.153.148 1.414 7.394 1.69 7.84.04.062.853-.118 1.81-.395 1.41-.41 1.722-.558 1.652-.773M52.016 57.89c5.02-1.496 9.738-2.305 13.488-2.305 1.383 0 1.664-.04 1.59-.23-.086-.22-.465-2.723-.7-4.594l-.101-.801-1.68.11c-5.3.347-12.265 1.87-18.343 4.003l-2.606.914 1.012 1.899A90 90 0 0 0 46 59.305l.313.511 1.773-.64c.98-.356 2.746-.934 3.93-1.285m21.582-3.403v-5.37l.863.976a75 75 0 0 0 2.113 2.261l1.254 1.286 1.73-1.348a81 81 0 0 0 1.958-1.555c.191-.175.023-.441-1.024-1.61-1.355-1.51-3.547-4.37-4.133-5.386-.199-.347-.414-.633-.48-.633-.063 0-.563.368-1.11.82-.542.45-1.03.821-1.082.821-.05 0-.09-1.57-.09-3.492V37.77l2.606-1.98a169 169 0 0 1 3.969-2.946c.75-.528 1.36-1.04 1.355-1.137-.02-.285-2.539-4.582-2.718-4.633-.094-.027-1.282.875-2.649 2.008l-2.48 2.063-.086-14.149h-5.621v21.32c0 11.727.05 21.371.113 21.43.059.063 1.324.11 2.809.11h2.703Zm-29.512-2.957c1.039-2.761 2.555-5.14 4.496-7.054l1.36-1.348-1.528-.488-1.527-.485 1.199-.015 1.2-.02v-4.434h17.366v-5.09l-6.367-.007 1.942-1.016c1.07-.558 1.945-1.062 1.945-1.12 0-.063-.434-.657-.965-1.325-1.332-1.68-2.887-4.008-3.687-5.524-.372-.699-.7-1.296-.727-1.328-.059-.058-4.531 2.38-4.766 2.598-.18.168.203.898 1.426 2.715 1.125 1.664 2.527 3.476 3.402 4.39l.586.618h-10.16l.086-10.266 3.266-.043c1.797-.023 3.27-.098 3.27-.164 0-.07-.258-.715-.575-1.434-.316-.722-.703-1.843-.855-2.492l-.282-1.176-2.164.075c-4.343.152-6.136.59-7.304 1.785-.403.41-.762.984-.887 1.414-.145.496-.238 2.527-.293 6.512l-.082 5.789h-4.926v5.09h4.961v4.433h1.34l-1.027 1.184c-1.25 1.441-2.516 3.355-3.457 5.222-.82 1.621-1.54 3.45-1.41 3.578.101.098 3.953.5 4.449.465.218-.015.422-.316.695-1.039m11.941-1.949c.938-.062 1.743-.18 1.79-.258.05-.078-.11-.64-.352-1.246-.63-1.562-1.223-3.594-1.34-4.601-.121-.997-.035-.973-2.379-.7-2.629.309-2.504.258-2.375.953.184 1.004 1 3.368 1.652 4.793.532 1.145.668 1.329.961 1.258.192-.047 1.11-.133 2.043-.199m8.598-1.316c.934-.16 1.695-.352 1.695-.43s-.261-.652-.578-1.281c-.758-1.492-1.476-3.317-1.73-4.39-.114-.477-.254-.864-.313-.864-.191-.004-4.406.879-4.48.933-.223.176 1.136 3.473 2.25 5.446.527.941.629 1.035 1.023.96.242-.046 1.2-.214 2.133-.374m0 0"/>
    <path fill="#f9f9f9" d="M69.984 97.957c-.941-.644-2.148-1.516-2.683-1.941l-.973-.77 2.055-.047a129 129 0 0 1 4.222 0l2.168.047-1.125 1.402c-.62.77-1.312 1.645-1.539 1.942l-.414.539ZM49.121 81.7v-2.794h2.645v5.582H49.12Zm0 0"/>
</svg>
