<svg xmlns="http://www.w3.org/2000/svg" width="120" height="120" viewBox="0 0 120 136">
    <path stroke="red" stroke-width=".004" d="M-23 72.403h-4.277v3.065h3.236v1.411h-3.236v2.701h3.752V81h-8.91v-1.42h3.775v-2.7h-3.346v-1.41h3.346v-3.066H-33V71h10v1.403m0 10.206-.21.434-.144.471-.085.454-.007.036-.051.496-.022.483-.004.457v2.1h-4.046v-4.23l.008-.242.03-.207.052-.176.083-.148.117-.124.156-.101.179-.082.2-.058.12-.02.103-.018.244-.022.265-.01.251-.003h.038l.037.18.054.192.032.093.036.103.075.19.08.18.076.154.002.004-.17-.01-.099-.003-.07-.003-.159-.002h-.146l-.104.004-.075.006-.055.003-.043.01-.033.017-.022.027-.012.037-.004.051v.86l.261-.147.14-.077.118-.066.204-.111.051-.028.25-.137.245-.133.24-.13.218.605.02.055.053.146.022-.201.02-.187.064-.386.083-.376.108-.362.133-.34.128-.25.016-.031.008-.017.007-.011.003-.008.118.098.153.114.172.118.177.113.142.082.025.014.076.037.068.033m0 6.415h-.992l.034.147.04.147.044.148.046.145.046.14.044.133-.838.196-.07.017h1.477v1.043h-1.777l.03.1.03.1.027.084.006.018.034.098.033.096.032.09-1.138.274-.06-.137-.06-.143-.055-.147-.052-.147-.047-.146-.042-.14h-1.6v-1.043h1.562l-.378-.083-.661-.145.385-.845h-1.046v-1.042H-23v1.042m-1.577-3.607.001-.156.002-.164.004-.171.006-.175.008-.18.01-.18h-.002l-.028.01-.219.072-.273.096-.295.107-.31.115-.32.121-.212.08-.118.045v.692l.49-.614.002-.002.165.087.066.034.128.065.216.106.228.107.229.105.22.096h.002v-.296m-1.146.625-.06-.026-.163-.072-.204-.096-.173-.088v.875h1.746v-.891l-.23.272-.247.291-.211-.08-.227-.09-.23-.095m.67 3.141-.02-.095-.013-.064h-.738l-.021.064-.038.113-.06.183-.059.185-.054.184-.047.178-.036.166h1.384l-.07-.177-.065-.187-.062-.189-.055-.186-.045-.175m-3.318-1.087h-2.769v.586h2.769v3.242h-1.254v-.708h-3.154v-1.012h3.154v-.594h-2.739v-2.45h2.739v-.419h-2.746v-.723h2.746v-.44h-2.692v-.717h2.692v-.433h-2.8v-.731l-.1-.037-.103-.034-.1-.031-.042-.012-.055-.016-.092-.024-.085-.021.079-.473.128-.362.025-.035.163-.226.26-.172.341-.095.26-.018.175-.012h1.615l.537.028.411.094.297.173.037.05.018.025.136.185.006.009.065.226.044.153.005.066.029.43v4.528M-15 68l-3.8 22.803L-19 92l-7.52 5.013L-28 98l-7.225-4.816L-37 92l-.2-1.197L-41 68h26m-15.123 15.126h-1.339l-.133.011-.104.036-.045.04-.033.027-.058.106-.042.15-.031.2h2.285v-.121l-.008-.168-.028-.12-.055-.082-.091-.049-.134-.023-.184-.007m-8.88-13.128L-37 82.291l1.382 8.48v.032h.007l2.61 1.784L-28 96.003-22.141 92l1.752-1.197h.007v-.031L-19 82.29l2.003-12.293Zm0 0" transform="matrix(4.29492 0 0 4.26451 180.387 -285.722)"/>
    <path fill="#f9f9f9" d="M43.867 112.523c-8.926-6.054-16.258-11.035-16.293-11.07-.035-.031-3.285-19.68-7.219-43.664-3.937-23.984-7.203-43.89-7.261-44.234l-.106-.63h47.094c43.43 0 47.094.02 47.094.274 0 .309-14.34 87.84-14.438 88.106-.047.132-32.164 22.035-32.543 22.191-.054.02-7.402-4.914-16.328-10.973m27.98-6.453c1.255-.293 2.298-.547 2.317-.562.023-.016-.144-.555-.371-1.195l-.41-1.168 3.797-.043 3.797-.047v-4.692l-2.579-.02-2.578-.015 1.23-.297c.677-.164 1.278-.344 1.337-.402.086-.086-.203-1.195-.887-3.422-.05-.16.434-.21 2.043-.21h2.11v-4.532H60.351v4.531h4.378l-.84 1.79c-.464.98-.82 1.8-.796 1.82.027.019.77.19 1.652.378l1.606.348-5.493.031v4.7h6.903l.379 1.132c.605 1.817.964 2.563 1.203 2.48a96 96 0 0 1 2.504-.605M58.66 99.367V92.32H46.656v-2.35h12.028l-.067-10.785c-.074-11.786-.062-11.657-1.078-12.977-.55-.723-1.383-1.164-2.805-1.496-1.543-.363-10.964-.363-12.363-.004-1.68.434-2.586 1.27-3.195 2.938-.36.992-.668 2.722-.508 2.863.07.058.508.207.973.328 1.476.379 1.437.328 1.437 2.02v1.503h12.004v1.68H41.586v3.188h11.496v1.847H41.25v3.188h11.832v1.68H41.25v10.574h11.832v2.351H39.559v4.531h13.523v3.02h5.578Zm20.844-18.84c.066-5.605.144-7.39.363-8.52.34-1.757.766-3.132 1.375-4.437.438-.945.445-1.007.16-1.175-1.007-.582-3.28-2.102-3.375-2.258-.265-.426-.59-.11-1.168 1.144-.71 1.543-1.359 3.89-1.652 5.989L75 72.734l-.55-1.496c-.356-.972-.626-1.476-.774-1.441-.121.027-1.531.766-3.133 1.637-1.598.87-2.95 1.582-3.004 1.582-.055 0-.078-.848-.05-1.887l.046-1.89 2.07-.048c1.141-.023 2.07-.07 2.07-.101s-.214-.54-.484-1.13c-.476-1.058-.902-2.296-1.113-3.237l-.11-.485-1.808.098c-2.344.129-3.344.355-4.453 1.012-.691.41-1.004.73-1.328 1.375l-.422.84-.05 10.027-.052 10.031h17.563Zm-.05-23.879v-3.101h-16.06V42.3h13.86v-6.21h-13.86V23.164h18.258v-6.21H38.543v6.21h18.598V36.09H42.76l.094 6.125 7.141.043 7.145.043v11.246H40.91v6.207h38.542Zm0 0"/>
    <path fill="#f9f9f9" d="M68.367 97.898c.059-.253.344-1.234.637-2.18l.531-1.722h1.5c1.055 0 1.516.063 1.555.211.187.7 1.09 3.617 1.195 3.86.117.273-.074.296-2.7.296h-2.827Zm-.917-15.984c0-.926.042-1.68.09-1.68.05 0 .526.215 1.058.48.53.266 1.687.766 2.566 1.114l1.602.633.976-1.07.973-1.075.004 1.637v1.637h-7.27Zm5.398-3.117c-.875-.418-1.996-.965-2.493-1.215l-.894-.453-.371.43c-.203.234-.653.765-.996 1.175l-.63.743-.007-1.27-.008-1.273.551-.18c.3-.098 1.941-.688 3.64-1.309 1.7-.62 3.118-1.101 3.15-1.066.108.121-.118 5.183-.231 5.183-.067 0-.832-.343-1.711-.765m-29.313-8.172c.184-.867.469-1.36.926-1.59.55-.277 6.973-.3 7.762-.027.601.207.859.687.859 1.586v.574h-9.664Zm0 0"/>
</svg>
