<svg xmlns="http://www.w3.org/2000/svg" width="120" height="120" viewBox="0 0 120 136">
    <path fill="red" stroke="red" stroke-width=".004" d="M-24.5-27.399v3.997h-2.367l-.028.07-.08.21-.026.067-.024.066.11.104.061.053.065.056.137.11.028.02.113.082.053.036.085.058.13.078-.38.23-.205.122h.789v-1.186h.916v1.186h1.057l-.51-.157-.287-.088.165-.2.04-.043.082-.093.06-.066.19-.201.194-.193.19-.18.124-.111.02-.017.014-.012.006-.006.007-.006.005-.005.1.084.124.092.136.095.137.092.131.083.091.053.015.01.008.004-.174.13-.174.14-.124.107-.045.039-.027.025-.134.125-.15.151-.135.148h.419v1.463h-4.05v-1.463h.561l-.136-.08-.14-.09-.133-.096-.126-.095-.113-.094-.035-.033-.059-.055.151-.097.3-.194-.3-.025-.68-.059.06.079.063.075.063.072.063.066.062.06.06.054-.047.024-.15.078-.17.09-.305.217-.043.043-.203.203-.196.277-.057.116-.095.196-.024.072-.09.276h1.183v.842h-1.326l-.014.164-.011.17-.008.175-.008.181-.007.185-.007.189h-1.026l.004-.186.007-.183.008-.18.002-.03.007-.146.013-.172.014-.167h-.86l.1.102.108.105.114.105.116.1.115.095.093.07.017.013-.017.011-.709.456-.168-.111-.147-.106-.022-.016-.164-.13-.152-.13-.135-.125-.112-.117.45-.322h-.845v-.842h2.313l.012-.046.01-.048.013-.047.012-.046.012-.045.012-.044h-.805v-.88l-.003-.098-.012-.068-.025-.043-.04-.024-.06-.01-.081-.002h-.513l-.078.01-.06.038-.045.08-.032.135-.023.203-.01.2-.002.026-.001.026-.001.019v.013l-.114-.068-.138-.066-.153-.062-.16-.054-.072-.02-.085-.026-.147-.033.065-.432.096-.325.071-.123.063-.108.178-.15.228-.078.286-.024h.813l.383.023.097.025.187.048.198.132.124.198.05.204.005.022.01.045.019.352v.26l.164-.312.195-.286.052-.06.179-.202.272-.236.317-.214.276-.143.054-.029.018-.009.008-.004.004-.002.008-.004.026.056.03.061.034.063.039.066.043.068.012.018.037.05.003-.005.025-.045.201-.362h-3.33v-2.205h5.69v-.276h-7.096v-.605h7.096v-.298h-6.638v-.066l.002-.066.003-.074.003-.053v-.02l.008-.058.028-.276.018-.17.011-.079.041-.286.061-.29.072-.227.085-.17.041-.05.061-.075.098-.076.11-.06.12-.046.126-.032.094-.013.035-.005.127-.006.134-.009.162-.006h.248l.139.002.215.008.195.011.012.001h.016l.008.07.015.08.022.084.022.071.005.016.033.087.037.083.305-.068.31-.068.009-.002.035.149.01.036.039.132.06.177.069.18.076.175.064.127.018.035-.9.161-.076-.145-.025-.05-.05-.104-.073-.158-.067-.156-.037-.095-.02-.053-.047-.135-.071-.007-.066-.004-.053-.002-.005-.001-.052-.001-.045-.001h-.04l-.054.002-.033.003-.015.002-.042.011-.039.016-.038.025-.04.033-.04.06-.038.09-.035.123-.032.159-.03.192v.007l-.029.242h6.598m1.5-1.026-.216.16-.217.183-.21.198-.198.203-.177.2-.15.19-.332-.168-.076-.039-.58-.29.166-.197.177-.205.188-.207.05-.05.146-.152.203-.188.208-.166.831.431.06.03.05.027.032.017.03.014.015.01m-2.628.765-.01.001-.986.13-.062.007-.033-.127-.015-.054-.043-.192-.035-.197-.028-.193-.018-.183-.009-.165.243-.035.033-.005.83-.12v.163l.011.185.02.198.027.203.034.198.041.186m-1.745-.016h-.005l-.156.027-.8.134-.065-.134-.016-.034-.074-.18-.066-.185-.058-.182-.048-.175-.011-.046-.027-.113.027-.005.531-.104.461-.09.014.09.01.067.008.036.01.048.022.092.05.188.06.193.066.191.067.182m4.294 7.38v.675h-1.902l.028.065.027.064.03.064.028.063.03.06.031.06-1.09.244-.052-.095-.055-.102-.053-.104-.051-.107-.044-.107-.037-.105h-1.878v-.674h4.988m.079 3.276-.512.536-.067.098-.323.472-.284.596-.194.611-.121.618-.065.616h1.34v1.198h-1.37v1.078l.02-.004.13-.03.148-.032.014-.003.133-.027.147-.026.146-.024.147-.022.028.1.013.049.06.161.072.168.082.165.088.158.077.126.011.016-.538.118-.243.062-.29.074-.225.066-.294.085-.495.163-.462.173-.175.074-.243.103-.092-.103-.568-.635-.104-.116v.751h-1.218v-2.668h-2.239v-.015l-.007-.231-.007-.242-.01-.24-.01-.238-.014-.236-.02-.236-.174-.064-.012.01-.024.023-.016.014-.114.103-.17.158-.162.155-.005.005-.16.16-.147.151-.055.06-.073.08-.889-.456-.185-.095.189-.14.188-.133.185-.13.183-.126.179-.119.169-.109.004-.002-.218-.105-.21-.106-.203-.106-.188-.103-.172-.1-.152-.095.433-.579.181-.243.006-.008.014-.02.017-.021.05.035.131.092.182.114.03.018.058.033.18.104.257.138.271.141.236.12.042.02-.042-.192-.072-.329-.001-.002-.15-.457-.19-.385-.144-.182-.092-.117-.288-.202-.345-.091-.06.025-.054.093-.047.155-.028.137-.014.07-.037.256-.019.178-.006.053-.004.037-.003.02v.006l-.11-.146-.12-.149-.124-.143-.127-.132-.013-.012-.041-.038-.07-.064-.121-.09.11-.52.122-.323.029-.077.19-.288.234-.179.275-.075.173.013.145.011.302.1.491.163.37.318.22.19.422.714.034.107.25.779.177 1.02.023.25.079.864h1.127v-4.361h1.218v4.36h1.256l.068-.773.135-.779.221-.77.26-.59.068-.154.425-.662.03-.047.484-.53.047-.052.03-.033.019-.02.013-.014.007-.008.12.146.15.162.169.165.176.159.173.14.06.045.098.07m-.756 7.715v1.182h-6.521l-.004-.072-.005-.078-.01-.15-.013-.145-.028-.29-.015-.143-.25-.08-.118.12-.048.048-.168.182-.165.189-.158.188-.128.159-.018.023-.128.17-.374-.193-.684-.351h-.001l.054-.045.135-.11.188-.157.186-.154.183-.151.045-.037.023-.02.11-.09.12-.095.024-.02.018-.015.008-.006.003-.003-.23-.1-.22-.099-.209-.099-.194-.099-.176-.097-.158-.097.146-.203.341-.472.008-.01.009-.013.02-.028.099-.137.005-.007.181.112.129.073.087.05.242.127.262.133.276.135.077.037.08.039.125.06-.037-.1-.088-.234-.02-.053-.175-.34-.21-.288-.118-.108-.128-.116-.288-.151-.335-.07-.057.018-.052.071-.047.117-.035.131-.007.03-.039.198-.003.018-.002.017-.021.14-.006.033-.002.014v.01l-.106-.134-.117-.137-.122-.134-.056-.055-.07-.07-.032-.028-.092-.08-.117-.088.108-.44.101-.229.04-.089.009-.022.19-.244.229-.151.267-.062.304.023.667.187.087.025.255.172.107.072.222.15.44.55.317.673.194.675.028.097.149.84h5.507M-15-32l-3.8 22.803L-19-8l-7.52 5.013L-28-2l-7.225-4.816L-37-8l-.2-1.197L-41-32h26m-11.624 7.733h-3.566v.298h4.42v-.298h-.854m.79 3.154h1.271v-.391h-2.012v.39h.74m.066 10.183v-1.342h-1.24v1.71l.198-.068.203-.064.205-.062.21-.06.123-.034.087-.024.214-.056m-13.234-19.071L-37-17.709l1.382 8.48v.032h.007L-33-7.413l5 3.416L-22.141-8l1.752-1.197h.007v-.031L-19-17.71l2.003-12.293h-22.006m13.233 4.961h-4.42v.291h4.42Zm0 0" transform="matrix(4.29492 0 0 4.26451 180.387 140.729)"/>
    <path fill="#f9f9f9" d="M44.207 112.75c-8.742-5.93-16.07-10.906-16.293-11.062-.387-.27-.691-2.04-7.559-43.895a107244 107244 0 0 0-7.261-44.238l-.106-.63h47.094c43.43 0 47.094.02 47.094.274 0 .309-14.34 87.836-14.434 88.102-.05.136-32.18 22.047-32.547 22.195-.054.02-7.25-4.812-15.988-10.746m2.164-7.715c.79-.95 1.707-1.98 2.043-2.3.535-.508.668-.56 1.074-.415.457.157.469.196.621 2.047l.153 1.883h28.176v-5.203H54.805l-.285-1.637c-.965-5.605-2.907-9.383-5.817-11.332-1.984-1.332-4.902-2.066-6.75-1.7-1.242.247-2.566 2.071-3.07 4.231l-.211.895 1.5 1.539c.824.848 1.543 1.562 1.598 1.59.054.023.222-.574.37-1.332.352-1.77.598-2.028 1.657-1.754 1.851.484 3.266 1.812 4.324 4.078.313.66.566 1.281.566 1.375 0 .273-.734-.047-3.453-1.496-1.379-.734-2.53-1.34-2.558-1.34-.047 0-2.473 3.305-2.668 3.64-.137.235 1.156.997 3.363 1.985l1.547.691-2.262 1.829c-1.242 1.004-2.238 1.89-2.21 1.968.034.102 4.226 2.422 4.464 2.473.016 0 .676-.77 1.461-1.715m23.848-5.734a64 64 0 0 1 8.39-2.512c.977-.215 1.774-.46 1.77-.543 0-.082-.313-.754-.695-1.492-.38-.738-.786-1.629-.899-1.977-.23-.715-.05-.703-2.597-.187-.633.129-1.184.234-1.227.234-.04 0-.07-.984-.07-2.183v-2.184h5.746v-5.203h-5.625l.117-1.285c.336-3.703 1.68-7.656 3.433-10.114a32 32 0 0 1 1.977-2.421l1.188-1.317-.5-.351c-.278-.192-1.227-1.059-2.114-1.926l-1.605-1.578-1.153 1.23c-3.636 3.88-5.945 9.43-6.449 15.496-.058.739-.148 1.551-.195 1.805l-.09.46h-5.215V64.626H59v18.629h-4.547l-.094-.711a92 92 0 0 1-.273-2.563c-.45-4.703-1.492-8.605-2.98-11.117-.72-1.222-1.2-1.797-2.239-2.687-1.234-1.055-1.449-1.172-3.191-1.7-1.492-.453-2.067-.55-2.88-.496-2.062.149-3.19 1.583-4 5.06l-.265 1.144.824.734a15.5 15.5 0 0 1 1.547 1.668c.399.516.782.934.848.934.07 0 .172-.434.227-.97.16-1.515.457-2.69.765-3.034.262-.293.336-.297 1.113-.067 1.153.34 2.465 1.668 3.23 3.274.524 1.093 1.49 4.312 1.34 4.465-.085.09-3.523-1.754-4.85-2.598l-1.145-.727-1.461 1.93c-.801 1.062-1.43 1.953-1.395 1.98.266.204 1.61.954 3.024 1.688l1.68.871-2.27 1.57c-1.25.864-2.242 1.614-2.203 1.672.035.055 1.09.63 2.343 1.278l2.282 1.171 2.02-1.96c2.464-2.399 2.64-2.43 2.804-.516.059.7.11 2.09.11 3.09v1.82H59v11.414h5.395l.05-1.527.047-1.528 1.5 1.696c.824.933 1.574 1.695 1.668 1.695s1.246-.406 2.559-.906m1.36-40.04c1.19-.273 2.198-.53 2.245-.574.043-.042-.074-.425-.265-.847l-.34-.77h8.094v-3.023H59.676v3.023h8.082l.633 1.344c.347.738.722 1.34.828 1.34.11 0 1.172-.219 2.36-.492m-24.442-.8c.773-.492 1.383-.957 1.351-1.035-.031-.078-.605-.61-1.281-1.188-.676-.574-1.227-1.074-1.227-1.113 0-.04.735-.07 1.63-.07h1.624l-.12 2.265-.126 2.266h4.57l.102-1.383c.059-.762.121-1.762.145-2.223l.039-.84 2.832-.046 2.828-.047v-3.852h-2.45c-1.902 0-2.452-.05-2.452-.218 0-.122.308-.852.687-1.625.82-1.688 2.383-3.313 4.008-4.168.578-.305 1.055-.606 1.055-.664 0-.06-.325-.442-.72-.852l-.718-.738 1.082.101c.594.059 1.375.106 1.73.106.36 0 .653.07.653.152 0 .086-.348.356-.774.602-.761.445-.77.457-.464.793.172.191.836.71 1.476 1.164l1.168.816h-2.082v6.379h17.582v-6.379h-1.754l.496-.527c.274-.29 1.145-1.063 1.934-1.723.789-.656 1.437-1.27 1.437-1.36 0-.093-.535-.523-1.183-.96a63 63 0 0 1-1.574-1.078c-.391-.282-.41-.266-2.254 1.55-1.938 1.907-2.946 3.051-2.813 3.184.043.043.68.262 1.414.484l1.336.407-1.898.011-1.903.012V41.63h-4.058v5.035h-1.48l-1.477-.004 1.14-.68c.63-.37 1.141-.703 1.141-.73s-.426-.332-.95-.676a16 16 0 0 1-1.671-1.289l-.723-.66.301-.793.305-.793 5.086-.043 5.09-.043V23.836h-28.23l.003-.461c0-.254.113-.992.25-1.637.305-1.449.762-1.933 1.824-1.93.39.005.793.06.899.126.101.07.5.843.89 1.718 1.028 2.328.711 2.137 2.926 1.778 1.055-.172 1.969-.344 2.04-.383.066-.04-.04-.387-.243-.774-.2-.386-.57-1.343-.828-2.125-.254-.78-.535-1.449-.63-1.476-.089-.031-.679.062-1.312.207-.921.215-1.171.223-1.285.05-.16-.25-.476-1.296-.476-1.59-.004-.32-1.426-.44-3.95-.335-2.054.09-2.464.156-3.218.523-1.043.512-1.563 1.227-1.98 2.723-.278.988-.829 4.91-.829 5.895v.375h28.57v1.175h-30.43v2.688h30.43v1.004H45.137v9.57h6.21l6.215.004-1.148.629c-2.14 1.168-3.57 2.52-4.785 4.523l-.574.95v-1.094c0-2.399-.817-3.617-2.664-3.985-1.192-.238-6.172-.246-7.02-.011-.93.257-1.746 1.047-2.121 2.058-.3.801-.79 3.137-.672 3.203.027.016.43.125.895.243.465.113 1.316.425 1.89.691l1.047.48.106-.949c.16-1.453.254-1.836.5-2.039.14-.113.828-.168 1.808-.137l1.578.047.047 2.309.051 2.309h1.684c1.754 0 1.851.046 1.582.742-.09.234-.696.265-5.07.265h-4.97v3.848l1.649.047 1.648.05-.82.563-.816.567.648.671c.953.993 3.27 2.668 3.496 2.532.11-.063.828-.52 1.606-1.012M78.19 22.688c.871-.91 2.004-1.977 2.52-2.372.52-.394.941-.765.937-.824 0-.078-3.093-1.715-4.406-2.332-.281-.133-4.89 4.594-4.89 5.016 0 .137 3.816 2.137 4.117 2.152.078.008.855-.734 1.722-1.64m-16.996.382c.883-.144 1.63-.293 1.66-.324.036-.031-.144-.648-.394-1.371-.254-.723-.555-1.77-.668-2.324-.246-1.164.02-1.113-2.902-.57-2.157.398-2.02.144-1.29 2.417.235.739.575 1.63.754 1.985.282.555.383.629.778.547.254-.047 1.18-.211 2.062-.36m6.973.075c1-.118 1.898-.262 1.996-.325.129-.074.102-.64-.082-1.875-.144-.972-.266-2.09-.266-2.48 0-.512-.058-.684-.218-.625-.121.047-1.227.219-2.453.387l-2.23.3v.528c0 .652.495 3.55.698 4.078.098.262.242.363.442.305.164-.043 1.113-.176 2.113-.293m0 0"/>
    <path fill="#f9f9f9" d="M64.406 91.996v-3.539h5.25l-.047 2.79-.046 2.784-2.196.63a148 148 0 0 0-2.578.75l-.383.12Zm1.86-42.144v-.672h8.453v1.343h-8.453Zm-15.383-12v-.59h18.765v1.175H50.883Zm0-3.274v-.504h18.765v1.008H50.883Zm.817 11.445c0-.039.577-.89.777-1.144a11.7 11.7 0 0 1 2.43-2.34c.476-.344.96-.64 1.902-1.156l.789-.438.96.008.965.008-.937 1.68-.059-.078c-.172-.223-.488-.758-.664-1.118a5 5 0 0 0-.218-.406c-.012 0-.375.18-.81.402-2.034 1.047-3.57 2.36-4.718 4.032-.219.316-.402.578-.406.578q-.012-.002-.012-.028m0 0"/>
</svg>
