<svg xmlns="http://www.w3.org/2000/svg" width="120" height="120" viewBox="0 0 120 136">
    <path fill="red" stroke="red" stroke-width=".004" d="m-52.51 85.734.054.058.066.064.075.066.078.066.035.028.043.034.073.055v-.79h-2.443v.93h.393l.225.014.17.047.12.092.078.144.042.207.007.139v.023l.006.116v1.371h.37v-.759l.01-.313.03-.286.004-.043.069-.334.111-.33.162-.312.004-.005.2-.26.007-.008.004-.004.004-.007.003-.003M-51.123 82v7.452h-1.148v1.084h1.27v1.061h-4.552v-1.06h1.21v-1.085h-1.195V87.77l-.35.24-.056.053-.23.218-.229.305-.178.34-.136.378-.1.418h1.017v1.131h-1.14l-.001.042-.005.137-.005.183-.004.188-.004.192-.005.199-.007.205h-1.178l.007-.202.006-.197.007-.192.007-.188.008-.185.011-.182h-1.626v-2.406l-.003-.076-.004-.063-.005-.05-.008-.037-.01-.025-.01-.017-.01-.013-.014-.008-.016-.005-.017-.003h-.167l-.023.002-.021.005-.018.007-.015.01-.013.014-.015.016-.014.026-.013.035-.012.046-.012.057-.011.068-.004.095-.002.044-.002.076-.002.054-.003.09-.005.17-.004.122-.002.068-.004.136-.001.028-.001.027-.001.019-.103-.092-.127-.09-.143-.084-.024-.012-.125-.064-.148-.064-.14-.051.01-.224.014-.224.018-.214.022-.183.001-.01.027-.162.032-.121.038-.093.044-.083.051-.074.057-.065.064-.056.07-.048.074-.039.082-.033.088-.025.093-.019.093-.01.094-.005h.47l.122.006.045.007.079.013.122.035.115.05.105.064.09.08.069.087v.001l.057.108.043.138.03.18.005.074.013.161.006.297v1.201h.663l.133-.649.19-.585.21-.425.05-.099.068-.092.273-.371.433-.405.448-.29.029-.02.025-.015.015-.01.013-.009.008-.005.063.123.08.134.095.14.103.139.11.136.111.126v-5.4h1.009v.551h2.443V82h.963m-4.592 3.888h-1.864v1.503h-1.233v-1.503h-2.034V84.68h2.034V82h1.233v2.68h1.864v1.208m3.95-14.373.092.145.014.02.098.14.125.167.132.164.104.123.025.03.12.132-.145.034-.735.174-.204.06-.04.012-.03.009-.036.01-.048.015-.54.158-.415.148-.464.164-.831.35-.312.158-.437.22-.004.003-.628.397-.001.001h-.001l.02.027.015.019.034.048.034.047.002.003.024.03.01.013.038.046.041.043.412-.221.163-.087.622-.286.651-.26.124-.043.488-.17.054-.018.663-.197.596-.15.024-.006.022-.006.09.143.104.154.117.158.075.092.05.063.126.142.1.1.024.024-.669.125-.467.108-.217.05-.68.19-.012.003-.642.21-.024.009-.586.226-.544.254h-.001l.056.043.058.043.059.045.06.044.032.021.045.032.031.021.017.012.433-.177.443-.163.445-.148.118-.035.323-.097.427-.117.016-.004.391-.096.066.096.025.038.105.15.116.157.12.153.121.14.064.064.025.026.018.018.01.01-.423.073-.438.088-.446.1-.024.007-.306.077-.118.03-.05.014-.022.006-.37.106-.43.137h1.817v1.605l.058-.038.04-.025.02-.012.06-.036.06-.037.063-.037.054-.031.01-.007.11.153.136.165.152.168.161.16.023.02.13.113.005.005.095.068.054.039-.666.385-.601.416-.534.438-.447.431-.018.018-.162.186-.23.265-.32.442-1.318-.256-.022-.005.055-.073.054-.073.035-.047.02-.027.054-.074.055-.075.054-.077h-1.91l-.194.054-.25-.162-.623-.406.102-.161.112-.165.12-.17.127-.172.133-.173.03-.037.109-.136h-2.588v-2.619h3.78l.094-.054.046-.027.047-.027.047-.026.037-.022.01-.005-.216-.162-.057-.047-.145-.117-.188-.167-.174-.17-.155-.167-.005-.006-.144-.178-.407.174-.091.041-.322.147-.406.197-.39.2-.085.046-.28.154-.326.193-.01-.008-.449-.339-.577-.437.23-.115.24-.116.245-.114.082-.037.167-.075.25-.108.251-.103-.03-.055-.22-.376-.3-.425-.077-.087-.041-.048-.236-.269-.406-.37-.457-.318-.352-.177-.066-.033-.036-.019-.026-.013-.018-.009-.011-.005.145-.142.157-.173.159-.192.152-.2.135-.195.11-.181.557.35.193.167.304.262.437.488.376.527.026.044.256.443.034.057.003.006.253.536.343-.115-.147-.421-.056-.16-.077-.558.042-.516.154-.457.1-.147.143-.21.016-.024.355-.287.208-.123.2-.092.203-.068.212-.045.23-.028.256-.013.138.001.087.003h.06l.157.007.15.007h.011l.165.01.08.005.045.003h.03l.013.002.02.176.036.192.053.2.025.074.043.125.083.19.072.126.008.016.008.01.009.017v.003l-.197-.017-.195-.014-.19-.01-.179-.007-.168-.004-.139-.001h-.014l-.138.002-.13.009-.125.02-.115.031-.106.048-.095.066-.151.12-.116.158-.078.192-.038.223.005.252.04.217.01.06.675-.428.376-.202.331-.178.032-.017.781-.361.803-.32.101-.033.702-.238.196-.055.577-.162.009-.003m-1.908 7.346.108-.096h-2.198l-.07.093-.073.094-.072.096-.072.098-.071.1-.071.103h2.02l.096-.1.098-.098.1-.097.1-.097.105-.096M-43 68.001l-3.8 22.802L-47 92l-7.52 5.013L-56 98l-7.225-4.816L-65 92l-.2-1.197L-69 68h26m-9.495 19.655v.743h.409v-2.153l-.159.226-.112.234-.072.239-.017.096-.025.144-.02.238-.004.233m-2.034-.744v1.487h.417V87.04l-.003-.055-.006-.046-.012-.028-.017-.016-.024-.006-.03-.001h-.224l-.03.002-.024.003-.02.005-.014.006-.013.007m-12.474-16.913L-65 82.291l1.382 8.48v.032h.007l2.61 1.784L-56 96.003-50.141 92l1.752-1.197h.007v-.031L-47 82.29l.21-1.291 1.793-11.002h-22.006m13.755 13.683h-1.281v.674h2.443v-.674h-1.162m.13 5.77h-.386v1.085h.385v-1.084m-.328-12.392h-1.879v.79h1.879v-.79m-3.032 0h-2.066v.79h2.066Zm0 0" transform="matrix(4.29492 0 0 4.26451 300.644 -285.722)"/>
    <path fill="#f9f9f9" d="M44.207 112.75c-8.742-5.93-16.07-10.906-16.293-11.062-.387-.27-.691-2.04-7.559-43.895a107244 107244 0 0 0-7.261-44.238l-.106-.63h47.094c43.14 0 47.094.024 47.094.27 0 .305-14.344 87.844-14.434 88.106-.05.136-32.18 22.047-32.547 22.195-.054.02-7.25-4.812-15.988-10.746m11.918-8.43v-2.433h4.902v-5.035h-2.113c-1.73 0-2.113-.043-2.113-.243 0-.136.199-.87.441-1.636.785-2.477 2.133-4.36 4.082-5.7l.719-.496v7.067h5.07v4.363h-5.07v4.7h19.61v-4.7h-5.41v-4.363h4.902v-31.89h-4.227v2.85H66.605v-2.347h-4.562l-.008 11.453-.008 11.457-.422-.504c-.515-.613-1.707-2.351-1.796-2.625-.086-.246-2.438 1.305-3.563 2.352-2.16 2.004-3.89 5.46-4.523 9.043l-.215 1.219h-2.61l-.09-3.82c-.117-4.954-.328-5.66-1.94-6.446-.72-.356-1.036-.395-3.083-.395-2.043 0-2.36.04-2.992.38a3.6 3.6 0 0 0-1.719 2.054c-.156.5-.531 3.7-.531 4.559 0 .175.457.488 1.285.879.707.335 1.527.808 1.82 1.05l.532.446.09-2.356c.101-2.633.218-2.95 1.078-2.863l.52.05.171 11.415 3.465.043 3.465.047-.117 4.859h5.273Zm-2.707-20.476V80.57h7.945v-5.203h-7.945V63.953h-5.406v11.414h-8.793v5.203h8.793v6.547h5.406Zm16.32-25.223c1.055-1.43 3.504-3.96 5.153-5.32 1.53-1.266 4.062-3.004 5.62-3.86.626-.343 1.141-.68 1.141-.746 0-.07-.332-.367-.734-.668-.73-.547-2.215-2.125-2.66-2.832-.297-.472-.352-.472-1.176.043l-.672.422v-6.719l-3.594-.011c-2.593-.008-3.472-.055-3.168-.18.77-.309 6.137-1.633 8.114-2 1.07-.2 1.972-.39 2.008-.422.035-.031-.239-.422-.606-.863a45 45 0 0 1-1.398-1.809l-.77-1.058c-.187-.25-7.883 2.101-10.41 3.18l-.816.347-.68-.496-.68-.5 1.14-.516c3.544-1.61 8.536-3.136 13.313-4.07 1.02-.2 1.887-.395 1.926-.43.04-.035-.27-.422-.684-.863a21 21 0 0 1-1.503-1.863c-.899-1.266-.625-1.258-4.633-.117-3.461.988-7.043 2.359-10.11 3.87l-2.492 1.227-.34-.43c-.187-.234-.34-.472-.34-.53.004-.169 2.684-1.774 4.333-2.59 4.101-2.036 9.878-4.055 14.773-5.16.883-.204 1.629-.387 1.66-.415s-.414-.601-.988-1.281c-.57-.676-1.278-1.59-1.563-2.031-.343-.528-.613-.774-.789-.723l-1.535.43c-5.93 1.668-12.27 4.402-16.598 7.156-.652.414-1.234.707-1.296.648-.059-.062-.11-.726-.11-1.48 0-1.145.07-1.488.41-2.082.418-.723 1.207-1.367 2.13-1.742.534-.215 4.835-.254 6.066-.051.52.086.64.059.558-.121-.68-1.555-1.027-2.55-1.238-3.55-.14-.661-.273-1.224-.3-1.25-.028-.028-1.106-.09-2.4-.145-2.82-.114-4.6.152-6.187.93-2.09 1.019-3.383 2.456-4.14 4.59-.399 1.116-.422 1.366-.34 3.226.074 1.558.191 2.297.527 3.261.238.684.438 1.293.438 1.356 0 .058-.266.191-.59.289l-.586.18-1.102-2.094c-.605-1.153-1.53-2.711-2.062-3.465-1.356-1.926-4.383-4.871-6.055-5.883-1.277-.777-1.355-.8-1.566-.504-.918 1.301-2.239 2.961-2.883 3.625-.426.438-.742.824-.7.86.04.039.567.316 1.173.617 3.078 1.527 5.652 3.96 7.738 7.305l.844 1.347-.786.309c-1.304.52-5.43 2.492-5.43 2.601 0 .055.962.817 2.134 1.696l2.132 1.593-1.37.047-1.376.051v11.23h11.02l-.36.461c-.437.57-2.449 3.41-2.605 3.688-.078.129.57.644 1.828 1.46 1.754 1.134 1.992 1.243 2.418 1.095.27-.094 2.16-.145 4.414-.118l3.938.043-.606.79c-.332.433-.605.855-.605.937 0 .137 4.652 1.145 5.504 1.191.246.016.593-.312 1.18-1.113m0 0"/>
    <path fill="#f9f9f9" d="M71 98.027v-2.183h1.352v4.363H71Zm4.227-8.718c0-3.114.484-5.465 1.351-6.559l.332-.418.008 8.813h-1.691Zm-4.258-1.985c-.043-2.738-.121-3.941-.281-4.25-.356-.695-1.036-.98-2.626-1.101l-1.457-.11V78.22h10.313v1.515c0 1.7-.07 1.743-1.09.68-.273-.281-.574-.516-.676-.516-.277 0-1.09 1.09-1.543 2.079-.77 1.668-1.086 3.351-1.203 6.355l-.105 2.813h-1.278Zm0 0"/>
    <path fill="#f9f9f9" d="M66.605 88.04v-3.106h1.524v6.21h-1.524Zm0-15.528v-1.344h10.313v2.687H66.605Zm-6.218-21.149.886-1.175h9.137l-1.27 1.167-1.265 1.168-8.375.016Zm2.668-6.797V42.97H71v3.191h-7.945Zm-13.692 0V42.97h8.621v3.191h-8.62Zm-2.113-5.933c1.273-.77 4.113-2.219 6.508-3.32l2.62-1.208L57.5 35.31c.621.66 1.625 1.578 2.23 2.039.61.46 1.114.879 1.118.93.004.046-.211.218-.48.374-.442.262-1.157.29-7.06.29-6.433 0-6.554-.008-6.058-.31m0 0"/>
</svg>
