<svg xmlns="http://www.w3.org/2000/svg" width="120" height="120" viewBox="0 0 120 136">
    <path fill="red" stroke="red" stroke-width=".004" d="m-52.033 37.083.14.1.17.11.189.11.193.104.141.068.042.021.158.064-.2.452-.163.37-.121.43-.133.474-.164.95-.06.624-.033.328-.042.92-.01.847v3.156h-3.971l.039.083.04.083.082.163.042.079.042.078-.668.178-.472.125-.08-.122-.077-.13-.075-.134-.072-.136-.068-.135-.064-.132h-3.65v-.97h2.189l-.049-.077-.047-.074-.02-.034-.024-.04-.013-.023-.027-.05-.035-.07-.03-.073h-1.553v-.478h1.645v-.266h-1.393v-.394h1.393v-.243h-1.393v-.417h1.393v-.221h-1.73v-.47h4.155v-.068l-.63-.091-.297-.042-.022-.004.022-.021.032-.032.053-.052.018-.017.036-.034.054-.05.053-.046.054-.044h-2.923v-1.828h5.172v-.289H-61v-.508h6.205v-.25h-5.86v-.023l.002-.037.002-.062.003-.072.004-.073.004-.067.024-.197.017-.142.047-.282.022-.092.034-.14.065-.185.077-.144.09-.108.087-.075.096-.06.103-.047.109-.034.114-.022.117-.012.115-.003.13-.002h.013l.167.002.184.004.04.002.109.005.047.002.145.009h.023l.014.002h.023l.007.07.012.073.018.078.022.08.026.083.03.08.145-.06.299-.122.05-.02.036-.016.018-.006.025-.011.062.128.08.143.096.15.105.151.112.143.112.127-.658.251h4.33l-.55-.236.102-.207.118-.21.135-.207.153-.197.065-.07.106-.114.193-.163.131.066.52.263.08.04.071.036.052.026.064.032-.186.146-.173.169-.158.186-.14.195-.119.2-.01.022-.087.174-.344-.144v3.399h-2.211l-.043.058-.043.06-.041.056-.003.003-.044.058-.044.055-.042.052h.688v1.176l.015-.013.038-.033.051-.047.05-.047.011-.011.038-.035.051-.044.028-.023.01-.008.004-.003.004-.004.006-.005.06.07.072.078.08.084.088.087.09.088.092.086v-1.442h.903v1.161l.042-.037.042-.034.043-.033.042-.032.042-.031.025-.018.009-.006.006-.005h.002l.048.103.063.13.076.144.082.146.002.004.087.143.012.017.062.091.012.017v-.811l.014-.93.055-1.021.015-.144.097-.919.188-1.057.02-.072.261-.93.2-.459.158-.368.014-.03.008-.02.006-.013.004-.01m-2.433 1.026-.007.001-.823.193-.05.01-.085-.156-.08-.167-.07-.172-.059-.17-.045-.158-.028-.14.417-.117.43-.121.027-.007.02-.006.015-.004.01-.003.03.156.042.17.054.177.062.178.068.173.072.163m-1.477-.023-.01.003-.367.107-.457.133-.096-.145-.097-.156-.091-.161-.081-.16-.068-.155-.049-.141.854-.285.011-.004.041.144.033.09.026.07.034.078.04.092.086.17.093.167.098.153m-.795 6.926.025-.04.025-.043.026-.043.027-.043.027-.042h-1.255l.027.05.028.05.014.024.015.026.03.048.027.047.007.011.02.032-.474.152h2.05l-.201-.06-.42-.124-.02-.006h-.001l.023-.039m4.756 2.99.117.137.157.16.18.17.188.162.181.14.159.108-.343.274-.372.297-.501.632-.324.67-.186.689-.083.686-.02.66v1.58l.098-.08.1-.075.102-.075.103-.074.02-.013.084-.06.048-.033.028-.02.019-.012.01-.008.125.156.156.17.176.175.183.164.18.142.162.109-.679.464-.023.016-.622.516-.543.539-.146.173-.222.263-.096.114-.301.427-.021.03-.065.092-.31.534-1.485-.237.037-.065.038-.066.078-.132.04-.064.042-.062h-2.307l-.22.046-.128-.076-.819-.48.038-.061.098-.151.147-.216.157-.221.164-.223.17-.223.174-.22H-61v-6.083l.016-.313v-.001l.052-.261.09-.216.138-.177.186-.142.239-.112.292-.082.338-.058.257-.025.13-.013.438-.022.491-.01.363-.003h.183l.05.19.076.209.091.219.102.216.106.202.018.03.032.055.054.092-.086-.003-.329-.015-.416-.01-.392-.004h-.346l-.277.001h-.185l-.103.008-.006.001-.086.021-.064.034-.043.05-.025.07-.008.092v.839h5.822l.173-.437.221-.424.036-.054.124-.185.05-.076.061-.091.326-.383.384-.355.29-.21.069-.05.035-.026.027-.02.013-.01.011-.007M-43 34l-3.8 22.803L-47 58l-7.52 5.013L-56 64l-7.225-4.816L-65 58l-.2-1.197L-69 34h26m-15.361 4.173-.007-.009-.093-.111-.092-.122-.03-.043-.053-.078-.068-.12h-.057l-.054-.001-.044-.001h-.095l-.034.002-.046.002-.042.005-.037.01-.034.013-.032.02-.03.026-.038.05-.035.072-.031.086-.03.114-.026.143-.023.166-.001.007h1.24l-.105-.113-.103-.118m3.065 2.932h-3.53v.258h4.031v-.258h-.501m.388 2.94-.224.216-.164.182-.045.05-.194.243-.175.25-.043.07-.113.184h1.232l-.543-.184-.085-.029.084-.138.09-.141.095-.142.1-.142.108-.141.112-.138v-.34l-.221.187-.014.012m-1.51-.625h-1.391v.243h1.392v-.243m2.32 8.162.027-.169h-2.098v1.008h2.005l.01-.165.01-.168.011-.168.015-.169.02-.17m-.152 4.097.12-.127h-2.4l-.093.122-.095.129-.094.134-.092.137-.088.136-.083.136h2.274l.105-.135.108-.134.11-.134.112-.133.116-.13m-12.754-19.68L-65 48.291l1.382 8.48v.032h.007l2.61 1.784L-56 62.003-50.141 58l1.752-1.197h.007v-.031L-47 48.29l2.003-12.293h-22.006m11.707 4.43h-3.53v.267h4.031v-.266h-.501m2.07 4.811h.153v-1.245l-.014.01-.076.056-.085.063-.062.045-.233.193-.224.207-.21.218-.188.225-.031.044-.132.184h1.101m-4.117-2.46h-.465v.222h1.392v-.221h-.927m.927 1.275h-1.392v.266h1.392v-.266m2.246 10.387v-.962h-1.997v.962h1.997m-3.314-3.03h-2.14v1.007h2.14v-1.008m-2.14 2.069v.962h2.14v-.962Zm0 0" transform="matrix(4.29492 0 0 4.26451 300.644 -140.729)"/>
    <path fill="#f9f9f9" d="M44.207 112.75c-8.742-5.93-16.07-10.906-16.293-11.062-.387-.27-.691-2.04-7.559-43.895a107244 107244 0 0 0-7.261-44.238l-.106-.63h47.094c43.43 0 47.094.02 47.094.274 0 .309-14.34 87.84-14.438 88.106-.047.136-32.172 22.039-32.543 22.191-.054.02-7.25-4.812-15.988-10.746m23.715-6.523c.754-1.375 2.91-4.387 4.219-5.895 1.648-1.902 4.62-4.5 6.925-6.043.856-.578 1.563-1.098 1.563-1.16.004-.059-.36-.379-.809-.703-.449-.328-1.41-1.211-2.132-1.965l-1.32-1.371-1.247.86-1.246.862.004-4.578c.008-4.867.195-6.945.84-9.191.914-3.172 2.773-5.93 5.418-8.035.832-.66 1.511-1.258 1.511-1.324-.003-.067-.37-.368-.816-.668-.45-.301-1.379-1.114-2.066-1.801-.692-.692-1.32-1.258-1.395-1.258-.078-.004-.617.332-1.2.746-1.3.922-3.35 3.031-4.304 4.422-.695 1.016-1.84 3.227-2.191 4.223l-.18.507H44.63v-1.988c0-2.84-.426-2.637 5.43-2.59 2.593.02 4.714.016 4.714-.007 0-.024-.336-.688-.742-1.477-.406-.785-.918-1.969-1.133-2.633l-.39-1.207-1.024.004c-2.336.008-7.062.336-8.168.563-2.402.496-3.77 1.418-4.386 2.957-.282.703-.305 1.753-.348 14.73l-.05 13.973h12.656l-1.657 2.207c-.91 1.21-1.812 2.48-2.004 2.82l-.347.613 1.957 1.14 1.96 1.142 5.387-.024c2.965-.016 5.387.02 5.387.074 0 .055-.168.395-.375.754-.21.36-.344.688-.297.73.059.055 4.317.798 6.301 1.098.074.012.266-.214.422-.507M59.25 59.145c1.305-.34 2.395-.637 2.422-.66.031-.02-.18-.5-.469-1.063l-.52-1.024H77.73l.086-10.699c.063-8.078.149-11.215.34-12.8.574-4.692 1.43-8.196 2.727-11.153.422-.965.77-1.793.77-1.84s-.626-.394-1.387-.777c-.762-.383-1.704-.91-2.09-1.176-.387-.265-.793-.504-.903-.531-.296-.074-1.812 3.539-2.472 5.91-1.387 4.961-1.918 9.352-2.055 17.023-.113 6.348-.027 6.083-1.242 3.762l-.692-1.324-.5.352-.496.351v-4.723h-4.054v5.95l-1.016-.996-1.012-.993-1.187 1.141v-4.934h-1.352c-.742 0-1.351-.043-1.351-.093 0-.055.199-.356.441-.672l.445-.578h9.426V23.18l1.422.633.492-.872a12.8 12.8 0 0 1 2.532-3.16l.855-.781-2.102-1.043-2.097-1.047-1.102 1.172c-1.097 1.164-2.625 3.559-2.504 3.918.035.105.48.367.989.586l.921.394h-8.789l-8.789-.003 1.141-.454c.625-.246 1.14-.492 1.14-.546s-.35-.543-.78-1.09c-.426-.547-.962-1.356-1.184-1.793-.227-.438-.45-.797-.5-.797-.051 0-.617.223-1.262.492l-1.168.496-.16-.62c-.09-.34-.188-.77-.219-.958-.054-.312-.207-.336-2.59-.387-1.523-.03-2.793.024-3.18.137-.964.281-1.902 1.215-2.312 2.309-.379 1-.844 3.683-.844 4.867v.715h25.188v1.004H38.543v2.351h26.71v1.008H42.939v7.887h12.41l-1.282 1.304 1.493.207c.824.114 1.8.266 2.171.336.372.075-3.375.14-8.324.149l-9.004.02v2.183h7.438v.836h-5.914v1.847h5.914v.84h-5.914v1.848h5.914v1.004h-7.098v2.183h3.336l3.34.004.445.836.45.84H39.05v4.363h15.715l.53 1.043c.665 1.305 1.302 2.313 1.466 2.317.066.004 1.187-.274 2.488-.613m-.406-36.907 1.62-.465-.901-1.761c-.497-.969-.903-1.899-.903-2.067 0-.164-.066-.34-.144-.39-.114-.07-3.668.996-3.875 1.164-.121.093.73 1.953 1.37 2.984.47.758.79 1.117.958 1.067.14-.04.984-.278 1.875-.532m6.101.067c.868-.196 1.637-.41 1.707-.477.075-.066-.027-.492-.222-.945-.2-.453-.524-1.434-.727-2.18l-.367-1.36-2 .552c-1.102.3-2.027.57-2.05.601-.114.121.437 1.856.937 2.969.379.836.629 1.195.843 1.195.164 0 1.012-.16 1.88-.355m0 0"/>
    <path fill="#f9f9f9" d="M55.785 99.398c0-.152 1.567-2.453 1.988-2.925.239-.266.711-.293 5.22-.293h4.956l-2.781 3.343-4.691.008c-2.579.004-4.692-.054-4.692-.133m3.719-10.015v-1.93h8.453v3.86h-8.453Zm-14.875 0v-1.93h8.96v3.86h-8.96Zm0-8.731v-2.097h8.96v4.195h-8.96Zm14.875 0v-2.097h8.828l-.098.547c-.054.3-.148 1.242-.21 2.097l-.114 1.551h-8.406Zm8.266-28.91c.468-.867 4.347-4.574 4.777-4.574.078 0 .144 1.094.144 2.434v2.433h-2.543c-2.367 0-2.53-.02-2.378-.293m-6.743.196c0-.333 2-2.876 3.211-4.09l1.438-1.438.054.555c.043.441-.113.773-.78 1.676-1.16 1.57-1.77 2.566-1.641 2.695.058.062.464.238.898.39l.793.282-1.988.012c-1.09.007-1.985-.032-1.985-.083m-8.707-.105c.688-.242.68-.21.282-.883l-.356-.594h5.07l-.27.52c-.148.285-.245.543-.214.57.027.032.434.168.898.309.82.25.75.258-2.535.254-2.586 0-3.261-.043-2.875-.176m.086-4.16v-.504h5.914v1.004h-5.914Zm0-2.77v-.422h5.914v.84h-5.914Zm0-2.687v-.418h5.914v.836h-5.914Zm-4.394-7.133v-.504h17.242v1.008H48.012Zm0-2.855v-.504h17.242v1.007H48.012Zm-2.367-9.356c.003-.07.109-.562.234-1.098.32-1.347.617-1.632 1.719-1.632.87 0 .89.011 1.41.816.289.45.687.957.879 1.133.195.172.425.45.511.61.149.277-.003.296-2.296.296-1.352 0-2.457-.058-2.457-.125m0 0"/>
</svg>
