<svg xmlns="http://www.w3.org/2000/svg" width="120" height="120" viewBox="0 0 120 136">
    <path stroke="red" stroke-width=".004" d="m3.956 37 .125.178.15.183.173.183.089.084.1.093.2.166.207.15-1.793 1.348-1.152 1.575-.025.034-.691 1.718L1 44.387l-.115 1.48L.86 47H-.587l.008-.238.008-.257.01-.275.014-.289.016-.304.02-.315-.128-.92-.282-1.213-.505-1.369-.498-.86-.303-.525-1.167-1.264-1.353-.845-.099-.062-.065-.04-.043-.028-.03-.018-.016-.01.192-.161.183-.177.17-.188.15-.193.128-.193.099-.186 1.08.64.899.766.74.86.594.921.348.703.12.244.297.78.012.031.049.128.337-.948.11-.235.33-.702.562-.907.696-.858.847-.79.938-.652.036-.024.025-.018.014-.009M-.987 48v3.403h1.41v-.642h1.215v5.12H-.987v2.011H-2.28v-2.01H-5v-5.044h1.286v.565h1.434V48h1.294m4.639 0v5.406l.11-.137.017-.021.092-.11.108-.128.107-.124.01-.012.096-.109.087-.099.01-.01.006-.008.077.184.107.226.097.19.03.059.136.25.135.232.089.136.034.053-.474.527-.43.567-.028.037-.122.187-.312.48-.398.712-.148.315-.204.432-.043.11-.255.655-1.222-.38.11-.276.044-.11.163-.39.018-.041.155-.347.182-.386.189-.383.197-.378V48h1.23M13 34 9.2 56.803 9 58l-7.52 5.013L0 64l-7.225-4.816L-9 58l-.2-1.197L-13 34h26m-24.003 1.998L-9 48.291l1.382 8.48v.032h.007L-5 58.587l5 3.416L5.859 58l1.752-1.197h.007v-.031L9 48.29l2.003-12.293h-22.006M.423 52.579h-1.41v2.11h1.41v-2.11m-2.704.669v-.669h-1.434v2.11h1.434Zm0 0" transform="matrix(4.29492 0 0 4.26451 60.129 -140.729)"/>
    <path fill="#f9f9f9" d="M43.867 112.523c-8.926-6.054-16.258-11.035-16.293-11.07-.035-.031-3.285-19.68-7.219-43.664-3.937-23.984-7.203-43.89-7.261-44.234l-.106-.63h47.094c43.43 0 47.094.02 47.094.274 0 .309-14.34 87.84-14.438 88.106-.047.132-32.164 22.035-32.543 22.191-.054.02-7.402-4.914-16.328-10.973m28.219-7.78c2.05-5.13 5.402-10.63 8.578-14.083.543-.594.988-1.129.988-1.191 0-.067-.363-.719-.804-1.45a37 37 0 0 1-1.48-2.789c-.372-.8-.731-1.46-.798-1.464-.066-.004-.672.632-1.351 1.418l-1.23 1.421-.044-11.328-.043-11.324h-5.41v30.984l-1.25 2.508c-1.472 2.953-3.351 7.262-3.273 7.5.043.125 4.511 1.66 5.215 1.79.05.011.457-.887.902-1.993m-16.129-2.774V97.69h11.324V75.703h-5.41v2.684h-5.914V63.953h-5.75v14.434h-5.918v-2.348h-5.746v21.652h11.664v8.559h5.75Zm8.016-45.11c.23-5.562.539-8.39 1.336-12.125.68-3.207.879-3.843 2.191-7.05l1.445-3.528 2.496-3.398 2.5-3.403 3.813-2.867c2.098-1.574 3.832-2.922 3.86-2.992.027-.07-.25-.332-.614-.582-.715-.488-2.953-2.734-3.516-3.527l-.347-.489-2.266 1.57c-6.351 4.415-10.832 10.317-13.683 18.04-.782 2.117-.813 2.168-.997 1.68-.109-.278-.421-1.094-.699-1.81-.793-2.058-2.699-5.75-3.969-7.675-2.683-4.078-6.34-7.586-10.421-10.004-1.313-.773-2.43-1.41-2.489-1.41-.054 0-.289.356-.52.793-.234.438-1.124 1.52-1.984 2.41l-1.558 1.613 6.922 4.282 2.492 2.687c2.312 2.488 2.625 2.903 4.219 5.63 2.074 3.546 3.57 7.331 4.52 11.456 1.144 4.953 1.241 6.395.839 12.211l-.098 1.383h6.41Zm0 0"/>
    <path fill="#f9f9f9" d="M55.957 88.04v-4.45h5.914v8.898h-5.914Zm-11.667 0v-4.45h5.917v8.898h-5.918Zm0 0"/>
</svg>
