<svg xmlns="http://www.w3.org/2000/svg" width="120" height="120" viewBox="0 0 120 136">
    <path fill="red" stroke="red" stroke-width=".004" d="m5 71.751-.289.32-.248.372-.21.412-.157.412-.013.034-.122.427-.013.044-.099.488-.26-.075-.883-.254.043-.203.072-.342.142-.531.175-.508.219-.472.27-.425.331-.366.138.088.645.413.119.076.088.056.052.034m-3.054-.313.018.335.039.376.045.321.011.08.07.41.084.404.055.226.034.138.004.018-1.088.177-.056-.195-.052-.183-.096-.399-.08-.405-.066-.396-.047-.372-.026-.334 1.11-.194.025-.004.016-.003m-2.099.281.047.288.073.332.095.358.112.37.126.366.116.295.019.05L0 73.89l-.568.146-.116-.276-.013-.031-.01-.026-.135-.355-.124-.362-.085-.281-.023-.074-.085-.333v-.002l-.059-.294 1.023-.27.027-.008.015-.004m-1.73.515-.163-.014h-.002l-.048-.004-.203-.014-.187-.01-.094-.002-.073-.002h-.14l-.108.006h-.084l-.07.006-.017.003-.047.009-.056.021-.052.033-.05.048-.072.129-.067.209-.011.052-.052.25-.059.408-.038.366-.017.16-.052.654H3.59V81h-7.8v-1.134h3.274v-.7h-2.89v-1.045h2.89v-.7h-2.89V76.4h2.89v-.708H-5l.001-.027v-.038l.001-.033.003-.1.003-.117.004-.115.004-.101.072-1.057.034-.376.043-.478.088-.67.101-.507.121-.363.144-.24.118-.126.122-.1.045-.026.084-.05.136-.055.148-.041.16-.029.168-.018.194-.013.216-.01.235-.002.25.003.17.005.048.001.028.001.015.001.022.199.04.21.054.218.013.042.057.171.01.025.072.176.067.132.026.05m-.67 1.538-.025-.044-.128-.23-.136-.27-.114-.255-.086-.233.097-.036.897-.334.078.232.04.102.063.16.125.28.14.285.15.28.011.019.145.243-.932.322-.165-.253-.16-.268M5 82.609l-.21.434-.144.471-.092.49-.051.496-.022.483-.004.457v2.1H.43v-4.23l.008-.242.03-.207.052-.176.083-.148.117-.124.156-.101.147-.067.032-.015.2-.058.223-.038.198-.017.046-.005.05-.002.215-.008.06-.001h.165l.026-.002h.038l.037.18.054.192.068.196.075.19.08.18.07.14.002.006.004.008.002.004-.17-.01-.17-.006-.158-.002h-.146l-.104.004-.075.006-.055.003-.043.01-.033.017-.022.027-.012.037-.004.051v.86l.261-.147.11-.06.03-.017.118-.066.255-.14.25-.136.245-.133.126-.07.113-.06.076.212.075.205.056.156.012.032.073.201.022-.201.02-.187.064-.386.083-.376.108-.362.133-.34L4.07 82l.027.022.091.076.153.114.137.094.035.024.087.056.09.057.142.082.025.014.076.037.068.033m-2.83 2.504.164.087.194.099.216.106.228.107.229.105.21.092.008.003h.002l.002.002v-.297l.001-.156.002-.164.003-.105v-.066l.007-.175.008-.18.01-.18h-.002l-.247.082-.273.096-.294.107-.31.115-.28.106-.042.015-.329.125v.692l.371-.464.103-.13.005-.006.008-.009.003-.005.002-.002M5 89.024h-.99l.014.064.019.083.04.147.014.047.03.1.046.146.046.14.044.133-.166.039-.742.174h1.477v1.043H3.054l.03.1.03.1.027.084.006.018.034.098.033.096.032.09L2.108 92l-.06-.135v-.002l-.06-.143-.055-.147-.052-.147-.047-.146-.042-.14h-1.6v-1.043h1.562l-1.04-.228.386-.845H.054v-1.042H5v1.042m-2.723-2.982-.06-.026-.163-.072-.006-.003-.198-.093-.173-.088v.875h1.746v-.891l-.23.272-.247.291-.211-.08-.227-.09-.23-.095m.67 3.141-.02-.095-.013-.064h-.738l-.021.064-.038.113-.06.183-.01.031L2 89.57l-.054.184-.047.178-.036.166h1.384l-.07-.177-.065-.187-.062-.189-.055-.186-.045-.175m-3.32-5.609v4.521h-2.769v.586H-.37v3.242h-1.254v-.708h-3.154v-1.012h3.154v-.594h-2.739v-2.45h2.739v-.419H-4.37v-.723h2.746v-.44h-2.692v-.717h2.692v-.433h-2.8v-.731l-.1-.037-.103-.034-.1-.031-.097-.028-.092-.024-.085-.021.079-.473.128-.362.188-.26.26-.173.249-.07.092-.025.337-.023.098-.007h1.615l.537.028.411.094.297.173.197.269.11.379.02.329.013.174M13 68 9.2 90.803 9 92l-7.52 5.013L0 98l-7.225-4.816L-9 92l-.2-1.197L-13 68h26m-24.003 1.998L-9 82.291l1.382 8.48v.032h.007L-5 92.587l5 3.416L5.859 92l1.752-1.197h.007v-.031L9 82.29l2.003-12.293h-22.006M.348 75.692v.708h1.966v-.708H.348m0 1.73v.699h1.966v-.7H.348m0 2.445h1.966v-.7H.348v.7m-2.396 3.263-.075-.003h-1.339l-.133.011-.104.036-.078.067-.058.106-.042.15-.031.2h2.285v-.121l-.008-.168-.028-.12-.055-.082-.091-.049-.134-.023Zm0 0" transform="matrix(4.29492 0 0 4.26451 60.129 -285.722)"/>
    <path fill="#f9f9f9" d="M43.867 112.523a8566 8566 0 0 1-16.293-11.066c-.054-.055-14.543-88.062-14.554-88.406 0-.07 21.183-.125 47.078-.125 43.414 0 47.078.02 47.078.273 0 .309-14.34 87.84-14.438 88.106-.047.132-32.164 22.035-32.543 22.191-.054.02-7.402-4.914-16.328-10.973m27.98-6.453c1.255-.293 2.298-.547 2.317-.562.023-.016-.144-.555-.371-1.195l-.41-1.168 3.797-.043 3.797-.047v-4.692l-2.579-.02-2.578-.015 1.23-.297c.677-.164 1.278-.344 1.337-.402.086-.086-.203-1.195-.887-3.422-.05-.16.434-.21 2.043-.21h2.11v-4.532H60.351v4.531h4.378l-.84 1.79c-.464.98-.82 1.8-.796 1.82.027.019.77.19 1.652.378l1.606.348-5.493.031v4.7h6.903l.379 1.132c.605 1.817.964 2.563 1.203 2.48a96 96 0 0 1 2.504-.605M58.66 99.367V92.32H46.656v-2.35h12.028l-.067-10.785c-.074-11.786-.062-11.657-1.078-12.977-.55-.723-1.383-1.164-2.805-1.496-1.543-.363-10.964-.363-12.363-.004-1.68.434-2.586 1.27-3.195 2.938-.36.992-.668 2.722-.508 2.863.07.058.508.207.973.328 1.476.379 1.437.328 1.437 2.02v1.503h12.004v1.68H41.586v3.188h11.496v1.847H41.25v3.188h11.832v1.68H41.25v10.574h11.832v2.351H39.559v4.531h13.523v3.02h5.578Zm20.844-18.84c.066-5.605.144-7.39.363-8.52.34-1.757.766-3.132 1.375-4.437.438-.945.445-1.007.16-1.175-1.007-.582-3.28-2.102-3.375-2.258-.265-.426-.59-.11-1.168 1.144-.71 1.543-1.359 3.89-1.652 5.989L75 72.734l-.55-1.496c-.356-.972-.626-1.476-.774-1.441-.121.027-1.531.766-3.133 1.637-1.598.87-2.95 1.582-3.004 1.582-.055 0-.078-.848-.05-1.887l.046-1.89 2.07-.048c1.141-.023 2.07-.07 2.07-.101s-.214-.54-.484-1.13c-.476-1.054-.906-2.3-1.109-3.21-.098-.445-.14-.46-1.184-.46-2.574 0-5.14.67-5.992 1.57-.187.199-.476.663-.644 1.03-.282.618-.309 1.47-.356 10.7l-.05 10.031h17.562Zm-3.938-34.62V32.058h-30.98l.117-1.551c.332-4.367.938-7.324 1.633-7.945.328-.293.598-.32 3.047-.282 1.476.024 2.683.012 2.683-.023 0-.031-.187-.485-.421-1.004-.407-.914-.801-2.344-1.02-3.695l-.105-.653-2.82.086c-7.298.23-7.903 1.344-8.99 16.496-.089 1.29-.167 2.633-.167 2.977v.629h17.414v2.855H43.613v4.531h12.344v2.856H43.613v4.7h12.344v2.683H41.926v5.035h33.64Zm-22.863-15.43c1.043-.344 1.899-.684 1.899-.75 0-.07-.34-.723-.762-1.454-.738-1.289-2.281-4.722-2.281-5.082a.35.35 0 0 0-.153-.27c-.203-.124-4.41 1.423-4.41 1.618 0 .738 3.293 6.75 3.629 6.625a210 210 0 0 1 2.078-.687m24.215-.391c.7-3.52 2.348-7.11 4.2-9.148.343-.375.523-.704.433-.786-.086-.082-1.106-.754-2.266-1.5l-2.113-1.351-.649.625c-1.128 1.078-2.351 3.16-3.261 5.558-.399 1.051-1.278 4.293-1.504 5.559l-.106.594 2.336.687c1.285.375 2.426.696 2.535.707.114.012.286-.394.395-.945m-16.973-.563c1.106-.285 2.032-.539 2.059-.562s-.367-1.281-.875-2.793c-.504-1.516-1.07-3.496-1.258-4.406-.187-.907-.367-1.672-.394-1.696-.032-.027-1.082.23-2.336.567l-2.286.61.06.581c.16 1.598 2.44 8.223 2.831 8.223.102 0 1.094-.235 2.2-.524m8.012-.316c1.07-.184 2.012-.336 2.09-.336s.098-.125.039-.277c-.434-1.117-1.453-7.438-1.453-9.004 0-.774-.024-.82-.38-.735-.21.051-1.37.258-2.577.457-1.207.204-2.211.38-2.23.391-.016.016.077.938.206 2.055.243 2.066.883 5.347 1.352 6.91.308 1.031.195 1.012 2.953.539m0 0"/>
    <path fill="#f9f9f9" d="M68.367 97.898c.059-.253.344-1.234.637-2.18l.531-1.722h1.5c1.055 0 1.516.063 1.555.211.187.7 1.09 3.617 1.195 3.86.117.273-.074.296-2.7.296h-2.827Zm4.481-19.101c-.875-.418-1.996-.965-2.493-1.215l-.894-.453-.371.43c-.203.234-.653.765-.996 1.175l-.63.743-.007-1.27-.008-1.273.551-.18c.3-.098 1.941-.688 3.64-1.309 1.7-.62 3.118-1.101 3.15-1.066.108.121-.118 5.183-.231 5.183-.067 0-.832-.343-1.711-.765m-5.398 3.117c0-.926.042-1.68.09-1.68.05 0 .526.215 1.058.48.53.266 1.687.766 2.566 1.114l1.602.633.976-1.07.973-1.075.004 1.637v1.637h-7.27ZM43.535 70.625c.184-.867.469-1.36.926-1.59.55-.277 6.973-.3 7.762-.027.601.207.859.687.859 1.586v.574h-9.664Zm18.168-17.246v-1.344h8.285v2.684h-8.285Zm0-7.473V44.48h8.285v2.856h-8.285Zm0-7.383v-1.43h8.285v2.856h-8.285Zm0 0"/>
</svg>
