<svg xmlns="http://www.w3.org/2000/svg" width="120" height="120" viewBox="0 0 120 136">
    <path stroke="red" stroke-width=".004" d="m89 5.52-.211.604-.004.02-.141.646-.093.703-.049.7v.017l-.023.706-.005.671v4.396h-1.801l.046.128.048.13.05.129.05.128.053.124.053.118-.957.257-.011.003-.089-.156-.085-.167-.081-.174-.075-.176-.068-.175-.06-.169h-1.472v-1h3.514v-.697h-.413v.55h-.714v-.55h-.427v.55h-.699v-.55h-1.201v-1.3l-.167.083-.088.044-.237.15-.006.005-.226.175-.204.189-.176.197-.142.197-.75-.245.12-.244.14-.242.021-.031.14-.202.126-.157.052-.065.196-.205.21-.184-.353-.076.027-.135.017-.087.023-.111.024-.111.028-.11.031-.112h-.615l-.158.016-.052-.012-.018-.004-.178-.041-.255-.058.012-.084.137-.98.086-.354.02-.082.122-.504.164-.438.141-.38.24-.438.007-.013.007-.013.098-.18.031-.055.459-.578.5-.428.015-.013.01-.01.008-.006.057.116.076.13.089.136.024.033.072.1.1.122.075.084.018.02-.205.136-.06.05-.133.111-.05.052-.13.133-.169.208-.155.23-.142.25.077.084.086.09.027.03.066.067.1.099.102.098.087.082.011.01.007.006.053-.09.055-.088.056-.084.052-.07.007-.01.017-.02.043-.056.061-.07.002-.002.036.074.028.053.018.035.054.098.059.103.063.104.064.099h.533v-1.11l-.577.202-.02.008-.009.002-.008.004-.01-.131-.013-.141-.017-.144-.019-.138-.003-.015-.019-.109-.024-.097-.001-.005.474-.193.285-.119.07-.03.256-.113.178-.088.122-.072.041-.031.016-.013.012-.01.01-.006.007-.006.044.093.062.105.073.11.079.109.08.1.075.087.383-.163.288-.128.209-.1.043-.023.106-.057.102-.067h.002l.024-.022.018-.015.014-.012.011-.01.01-.007.048.104.07.115.081.12.087.115.086.104.038.041.027.03.012.013-.085.08-.087.11-.034.06-.047.082-.067.174-.046.208-.017.242v2.56h-.818v-.9h-.601v-.903h.6V6.476l-.558.19h-.002l-.002.001-.006-.084-.008-.09-.01-.093-.014-.095-.015-.095-.01-.066-.005-.028-.014.028-.033.063-.043.103-.036.116-.029.129-.018.14-.007.155v2.554h-.81V8.51h-.586v-.451l-.071.134-.096.179-.15.339-.083.228-.049.134-.044.144-.072.236-.065.257-.035.138-.083.393-.003.012.073.103.083.107.089.107.04.045.052.059.014.015.078.082.089.086V9.55h3.454l.009-.746.014-.294.013-.317.01-.184.071-.811.117-.793.06-.26.113-.484.048-.131.02-.057.12-.335.022-.059.011-.031.008-.02.005-.017.004-.01.097.09.125.1.14.101.147.094.138.079.047.023.072.033M82.976 8.06l-.093-.085-.092-.084-.044.154-.04.148-.003.009-.041.16-.04.163-.037.167-.035.17h.631l.027-.087.027-.084.03-.082.03-.081.028-.078.027-.068.001-.005.002-.004-.094-.072-.095-.077-.036-.03-.06-.051-.09-.08-.003-.003m-2.422-3.005v1.437h1.209l-.063.304-.06.34-.055.363-.05.375-.04.32-.007.054-.041.362h.158v.917h-1.051v.887h-.788l.106.097.106.096.236.207.245.207.24.196.219.174.184.14-.563.519-.204-.11-.278-.159-.185-.109-.128-.075-.068-.041-.239-.145-.261-.163-.176-.116.57-.891.008-.011.01.01.088.09v-.803h-.488V8.61h.488V7.462h-.563v-.97h.563V5.053h.878m1.809 8.432.405-.174.234-.1h-.886v1.75h-1.014v-1.75h-.893l.566.245.035.016.044.02.015.006.008.003-.104.188-.108.214-.105.229-.1.232-.088.224-.073.205-.427-.163-.531-.203h-.003v-.001l.035-.058.101-.166.132-.219.126-.211.12-.201.02-.03.098-.158.111-.173h-.728v-.994h1.75V10.2h1.013v2.018h1.771v.994h-.645l.035.1.027.081.08.193.092.201.105.203.113.197.095.15.023.037-.803.344-.137-.2-.13-.214-.12-.219-.106-.214-.088-.202-.065-.182m-1.497-5.258.006-.036.056-.35.03-.191.03-.189h-.434V8.61h.255l.028-.189.029-.192m7.373 7.956.095.088.124.1.019.012.123.088.145.095.076.044.062.036.044.022.073.035-.214.592-.147.653-.066.483-.028.207-.051.704-.022.697-.004.44-.001.225v4.293h-1.765l.033.11.005.018.082.259.044.128.046.124.048.118-.944.203-.197.042-.078-.16-.074-.166-.069-.172-.064-.173-.058-.169-.053-.162h-1.446v-1.026h1.279v-.658H84.03v-2.762h3.539l.002-.072.012-.658.04-.77.06-.62.016-.162.12-.758.027-.104.151-.602.067-.172.097-.25.068-.176.007-.014.003-.01m-.921.13.008.06.003.01.029.113.047.138.06.144.063.14.062.122.002.004.034.057.02.034.007.012-.073.048-.07.063-.063.085-.03.064-.022.046-.034.142-.012.18v2.608h-.822v-.864h-.64v-.92h.64v-1.039l-.51.124-.049.01-.005.003h-.006v.001l.001-.073.001-.078-.002-.082-.002-.058-.002-.026-.005-.084-.007-.081-.056.055-.052.066-.04.07-.006.01-.035.095-.024.111-.008.128v2.594h-.837v-.834h-.716v-.911h.716v-.987l-.811.242-.011.003-.003-.142-.007-.153-.011-.156-.015-.153-.019-.14-.02-.114-.001-.006.58-.19.427-.144.008-.003.312-.113.215-.089.14-.072.003-.002.096-.068.018.07v.003l.024.082.03.09.035.09.039.097.044.096.06-.02.367-.115.325-.109.24-.09.092-.039.079-.034.095-.05.023-.013.075-.053.006-.005M83.163 16l.112.114.14.13.156.138.002.002.16.131.06.047.096.073.001.001.066.047.012.008.062.044-.062.053-.204.173-.256.261-.24.289-.22.31-.19.322-.14.29-.019.038-.13-.039-.649-.193-.272-.08.195-.41.028-.05.049-.086.151-.265.255-.384.272-.36.191-.22.09-.103.258-.255.02-.021.006-.005m-3.151.054.13.29.022.04.15.286.204.348.224.355.233.35.232.327-.01.005-.713.377-.205.108-.08-.108-.152-.203-.175-.247-.062-.088-.233-.344-.215-.338-.186-.317-.146-.283.402-.228.563-.32.017-.01m3.76 3.588h-.64v3.871h.609v1.056h-.609v1.377h-1.035V24.57H80.75v1.377h-1.065V24.57h-.6v-1.056h.6v-3.87H79v-1.08h4.772v1.08M97 2l-3.8 22.803L93 26l-7.52 5.013L84 32l-7.225-4.816L75 26l-.2-1.197L71 2h26M86.42 21.47h-.457v.92h.457v-.92M72.997 3.999 75 16.291l1.382 8.48v.032h.007L79 26.587l5 3.416L89.859 26l1.752-1.197h.007v-.031L93 16.29l2.003-12.293H72.997m13.465 6.468h-.427v.903h.427v-.903m.714 0v.903h.413v-.903h-.413m-1.997 0h-.256v.903h.413v-.903h-.157M82.097 20.3v-.658H80.75v.658h1.347m5.038 2.09h.434v-.92h-.434v.92m-.715.924h-.457v.658h.457v-.658m.715 0v.658h.434v-.658h-.434m-5.038-1.392v-.627H80.75v.627h1.347m2.725.467h.434v-.918h-.434v.918m-2.725.505H80.75v.62h1.347Zm0 0" transform="matrix(4.29492 0 0 4.26451 -300.644 -4.265)"/>
    <path fill="#f9f9f9" d="M43.867 112.523a8566 8566 0 0 1-16.293-11.066c-.054-.055-14.543-88.062-14.554-88.406 0-.07 21.183-.125 47.078-.125 43.215 0 47.078.02 47.078.27 0 .308-14.344 87.843-14.438 88.109-.047.132-32.164 22.035-32.543 22.191-.054.02-7.402-4.914-16.328-10.973m26.668-6.367c1.278-.265 2.324-.547 2.324-.625 0-.082-.226-.789-.507-1.574-.278-.785-.504-1.457-.504-1.496 0-.04 1.703-.07 3.789-.07h3.793l.07-13.137c.059-11.168.113-13.418.352-15.027.355-2.36.843-4.473 1.382-5.961.23-.63.418-1.2.418-1.266 0-.062-.285-.27-.632-.45-.348-.183-1.11-.69-1.696-1.128-.914-.68-1.082-.754-1.172-.504-.054.16-.285.746-.504 1.3-1.199 2.989-1.972 7.887-2.191 13.9l-.113 3.136h-15.16v11.918h5.238v2.687h-5.41v4.524l3.058.047 3.063.043.55 1.43c.946 2.456 1.145 2.87 1.34 2.804.102-.039 1.235-.285 2.512-.55M46.32 103.48v-2.937h5.578v5.875h4.563v-5.875h2.707v-4.7h-2.707v-16.28h2.707v-4.696l-7.387-.047-7.386-.043 1.894-.976c1.04-.535 1.89-1.028 1.89-1.094s-.425-.723-.94-1.457c-1.274-1.812-3.009-4.68-3.641-6.023-.29-.61-.555-1.106-.598-1.106-.164 0-4.29 2.375-4.29 2.469 0 .441 2.942 5.09 4.509 7.125.402.527.734.996.734 1.05s-1.219.098-2.703.098h-2.707v4.7h3.043v16.28h-2.703v4.7h2.703v5.875h4.734Zm28.262-26.906c.05-5.699.078-6.215.371-6.672.172-.273.465-.613.645-.754.316-.253.312-.289-.274-1.503-.332-.684-.648-1.493-.707-1.797-.12-.645-.195-.664-.945-.227-.305.176-1.57.664-2.805 1.086l-2.25.762-.328-.766c-.184-.422-.332-.867-.332-.992 0-.438-.309-.406-1.543.152-.684.309-2.348.922-3.695 1.36-1.348.441-2.512.851-2.578.914-.106.09.156 3.699.273 3.824.02.02.602-.14 1.297-.352a47 47 0 0 1 1.727-.5l.464-.113v4.035h-3.215v4.028h3.215v3.523h3.72V76.68c0-5.79.007-5.922.378-6.676l.379-.766.05 1.051c.028.578.067 1.047.087 1.047s.453-.113.964-.25c1.438-.383 1.352-.5 1.352 1.848v2.097h-2.703v4.028h2.703v3.691h3.7Zm-19.68-2.594c.426-1.156 2.313-3.761 3.856-5.312.875-.879 1.531-1.645 1.465-1.7-.07-.058-.621-.488-1.223-.956-.605-.473-1.363-1.125-1.684-1.457s-.675-.602-.789-.602c-.3 0-2.5 2.453-3.715 4.14-1.374 1.915-3.046 5.063-2.746 5.173.891.324 4.012 1.23 4.293 1.242.243.015.403-.14.543-.528m16.059-14.77c1.14-.3 2.039-.62 1.996-.714-.039-.09-.34-.828-.664-1.637l-.594-1.468h7.754V43.77c.004-15.418.227-18.383 1.719-22.926.281-.86.488-1.582.453-1.606a49 49 0 0 0-.988-.597 17 17 0 0 1-1.649-1.133l-.718-.578-.188.472c-1.598 4.043-2.281 8.364-2.617 16.547l-.106 2.477H60.688v2.71c0 3.094.058 3.048-1.376 1.2l-.707-.906.297-1.38c.387-1.796 1.336-4.718 1.996-6.128l.528-1.121.097.586.094.59 1.227.046 1.226.051v3.848h3.7l.058-6.254c.047-5.156.102-6.367.32-6.918l.262-.66.113.558c.059.305.11.774.11 1.04 0 .578.137.593 1.437.148.543-.184 1.008-.336 1.043-.336.032 0 .055 1.02.055 2.266v2.265h-2.703v4.028h2.703v3.863h3.523l.07-6.086c.052-4.05.141-6.293.278-6.707.11-.34.465-1.008.785-1.484l.59-.868-.5-.562c-.273-.309-.7-.91-.95-1.332s-.503-.746-.562-.719c-.058.031-1.054.52-2.218 1.09-3.004 1.473-2.868 1.46-3.778.234-.418-.562-.789-1.113-.828-1.226-.047-.14-.441-.012-1.238.402-.645.336-2.047.965-3.117 1.398-1.067.43-1.993.833-2.055.895-.063.059-.047.523.035 1.031.078.508.192 1.278.246 1.707l.102.785 1.203-.406c.664-.222 1.23-.406 1.262-.406.03 0 .054.98.054 2.18v2.183h-2.14l-.66-1.172c-.368-.644-.715-1.172-.77-1.175-.059 0-.395.414-.75.921-.352.508-.684.922-.742.922-.059 0-.586-.48-1.172-1.07l-1.07-1.07.632-.989c1.106-1.718 2.22-2.855 3.778-3.863.031-.023-.301-.515-.742-1.098-.442-.582-.922-1.304-1.067-1.601-.144-.3-.336-.547-.422-.547-.347 0-2.445 1.953-3.425 3.195-2 2.52-3.48 5.844-4.45 9.98-.593 2.524-1.113 6.118-.914 6.302.285.261 1.992.496 3.621.496 1.535 0 1.684.027 1.602.297-.05.16-.2.8-.328 1.418l-.235 1.125.696.101.699.098-1.184 1.226c-.652.676-1.586 1.895-2.074 2.707l-.887 1.485v-6.61h-4.394v2.77c0 1.523-.043 2.77-.094 2.77-.144 0-3.289-2.555-4.32-3.508l-.91-.844 1.562-.004 1.563-.008v-3.86h4.398V34.41c0-1.828-.031-2.015-.305-2.015-.289 0-.293-.098-.082-1.887.121-1.04.41-3.024.641-4.406.23-1.387.422-2.575.422-2.645s-1.14-.125-2.531-.125H45.48l-.042-3.062-.047-3.067-1.989-.047-1.984-.047v6.223h-2.367v4.363h2.367v4.7h-2.031v4.03h2.031v1.52c0 .946-.063 1.48-.164 1.418-.094-.054-.746.785-1.457 1.871-1.211 1.856-1.27 1.98-.973 2.2.446.336 5.59 3.382 6.082 3.605.36.164.485.117 1.04-.39.343-.317.874-.797 1.175-1.067l.55-.492v2.582h-7.605v4.531h3.016l-1.508 2.453c-.832 1.348-1.508 2.508-1.508 2.574 0 .192 4.102 1.708 4.227 1.563.062-.07.25-.508.418-.969.238-.644 1.723-3.844 2.07-4.46.032-.055-.46-.333-1.09-.618l-1.148-.516 1.566-.015 1.563-.012v7.383h4.394v-7.383l1.567.008 1.562.012-.91.41c-.5.222-.976.41-1.055.41-.343 0-.09.777.864 2.637.558 1.09 1.187 2.191 1.394 2.449l.383.469 1.73-.723c.954-.395 1.731-.785 1.735-.867 0-.078-.266-.578-.586-1.106-.594-.972-1.61-3.195-1.61-3.523 0-.11.489-.176 1.266-.176h1.27v-4.531h-7.61v-.758c0-.414.059-.754.13-.754.07.004.82.219 1.671.485l1.547.476.633-.824a12 12 0 0 1 1.504-1.563c.855-.726 2.73-1.933 3-1.933.078 0 .136 1.21.136 2.687v2.688h5.075v2.347h3.21v-2.351h1.692v2.351h3.211v-2.351h1.52v2.855H60.352v4.364h6.37l.188.629c.258.855 1.68 3.734 1.844 3.738.074 0 1.066-.242 2.207-.547m0 0"/>
    <path fill="#f9f9f9" d="M46.32 80.906v-1.344h5.578v2.684H46.32Zm0 6.965v-1.258h5.578v2.516H46.32Zm0 6.797v-1.176h5.578v2.352H46.32Zm27.387-5.371v-1.844h1.688v3.692h-1.688Zm0 7.219v-1.344h1.688v2.687h-1.688Zm-5.074 0v-1.344h1.86v2.687h-1.86Zm0-7.219v-1.844h1.86v3.692h-1.86Zm-4.903 0v-1.844h1.692v3.692H63.73ZM73.875 42.3v-1.847h1.52v3.692h-1.52Zm-4.902 0v-1.847h1.691v3.692h-1.691Zm-4.735 0v-1.847h1.524v3.692h-1.524Zm-10.066-9.527c.062-.347.27-1.218.46-1.933l.348-1.309.868.79c.476.433.968.878 1.093.988.192.171.18.363-.07 1.148l-.3.945h-2.512Zm-8.699-2.726v-2.352h.761c.887 0 .86-.12.504 2.14-.41 2.602-.394 2.56-.855 2.56h-.41Zm0 0"/>
</svg>
