<svg xmlns="http://www.w3.org/2000/svg" width="120" height="120" viewBox="0 0 120 136">
    <path stroke="red" stroke-width=".004" d="M53.89 16.015v.317h3.998V16h1.269v4.227l.164-.08.162-.074.162-.07.163-.067.166-.062.13-.043.022-.007.01-.004.008-.002.11.166.136.19.15.2.087.106.044.055.027.034.156.18.146.15-.329.104-.237.075-.56.215-.545.249-.524.277-.493.303-.454.323h2.813v1.144h-4.067v.749l.485-.039.255-.018.228-.017.48-.03.477-.024.473-.02.44-.013h.029l.025.17.041.187.011.042.04.154.024.073.038.12.064.182.031.079.021.056.011.026-1.183.056-1.197.084-.053.005-1.122.106-1.114.136-1.014.162-.877.185-.894-1.02.453-.107.342-.07.132-.027.49-.09.505-.08.222-.03.295-.04.527-.066v-.88h-4.09v-1.145h2.553l-.504-.287-.022-.013-.517-.308-.493-.31-.458-.302-.41-.29-.348-.267.143-.188.56-.732.028-.038.018-.024.436.366.375.282.156.117.042.03.56.388.647.42.666.407.658.378v-1.53h1.315v1.53l.35-.343.373-.327.017-.013.377-.295.413-.289.429-.266.11-.06.287-.16.045-.024H52.56v-4.282h1.33M51 6.44h4.393V5h1.341v1.44H61v1.148h-4.266v.577h3.172v4.292h-3.172v.524h4.004v1.147h-4.004V15h-1.34v-.871h-4.077v-1.147h4.076v-.524h-3.251V8.166h3.251v-.577H51V6.44M69 2l-3.8 22.802L65 26l-7.52 5.013L56 32l-7.225-4.816L47 26l-.2-1.197L43 2h26m-12.266 9.448h1.919v-.654h-1.919v.654m-11.737-7.45L47 16.291l1.382 8.48v.032h.007L51 26.587l5 3.416L61.859 26l1.752-1.197h.007v-.031L65 16.29l.21-1.29 1.793-11.002H44.997m12.891 13.293H53.89v.595h3.998v-.595m0 2.047v-.587H53.89v.587h3.998m.765-10.155h-1.919v.655h1.919v-.655m-5.187 0v.655h1.927v-.655h-1.927m0 2.265h1.927v-.654h-1.927Zm0 0" transform="matrix(4.29492 0 0 4.26451 -180.387 -4.265)"/>
    <path fill="#f9f9f9" d="M44.207 112.75c-8.742-5.93-16.07-10.906-16.293-11.062-.387-.27-.691-2.04-7.559-43.895a107244 107244 0 0 0-7.261-44.238l-.106-.63h47.094c43.23 0 47.094.02 47.094.27 0 .309-14.344 87.844-14.438 88.11-.047.136-32.172 22.039-32.543 22.191-.054.02-7.25-4.812-15.988-10.746m5.691-6.406c5.329-1.18 13.477-2.07 24.696-2.707 1-.059 1.816-.14 1.816-.188s-.191-.625-.426-1.285a21 21 0 0 1-.652-2.293l-.223-1.09-2.011.051c-2.032.05-6.246.277-8.817.477l-1.394.105v-3.066h17.41v-5.032l-5.867-.043-5.871-.046 1.601-1.055c2.738-1.813 7.469-4.043 10.235-4.824.55-.157 1.07-.348 1.156-.426s-.227-.547-.727-1.09a32 32 0 0 1-1.84-2.277c-.53-.727-1.058-1.32-1.171-1.32-.313 0-2.215.73-3.227 1.238l-.879.445V63.953h-5.578v1.34H51.223v-1.34h-5.914l-.086 18.305-1.414-1.137a63 63 0 0 0-1.7-1.348c-.261-.187-.48.032-1.93 1.93l-1.636 2.14.633.552c.937.816 5.523 3.832 8.324 5.476l2.453 1.442H39.387v5.035h17.582v3.629l-3.27.457c-3.55.496-9.066 1.55-9.293 1.773-.074.078.723 1.125 1.774 2.324 1.46 1.672 1.996 2.172 2.254 2.125.183-.035.843-.176 1.464-.312M63.395 57.91v-1.847h17.242v-5.036H63.395v-2.015h13.523V30.55H63.395v-2.352h18.257v-5.035H63.395v-6.21h-5.918v6.21H38.543V28.2h18.934v2.352H43.445v18.46h14.032v2.016H39.895v5.035h17.582v3.692h5.918Zm0 0"/>
    <path fill="#f9f9f9" d="M49.363 43.137v-1.34h8.114v2.683h-8.114Zm14.032 0v-1.34h8.113v2.683h-8.113Zm0-6.879v-1.344h8.113v2.684h-8.113Zm-14.032 0v-1.344h8.114v2.684h-8.114Zm1.86 34.41v-1.176h16.906v2.348H51.223Zm0 6.292v-1.089h16.906v2.18H51.223Zm3.55 11.454a113 113 0 0 1-7.355-4.64l-1.86-1.274 6.72-.043c3.695-.027 9.745-.027 13.44 0l6.72.043-1.153.645c-2.367 1.324-4.531 2.894-6.918 5.027l-1.48 1.324v-6.242h-5.91l-.047 3.195-.043 3.196Zm0 0"/>
</svg>
