<svg xmlns="http://www.w3.org/2000/svg" width="120" height="120" viewBox="0 0 120 136">
    <path stroke="red" stroke-width=".004" d="m-79 72.836-.572.248-.3.156-.289.149-.562.339-.022.013-.556.382-.505.4-.114.109-.316.298.013.081.017.08.008.034.01.05.02.08.022.082.02.08.206-.152.174-.13.408-.279.424-.269.428-.253.422-.229.192-.095.094-.046.07-.035.022-.01.015-.008.01-.005.071.144.091.156.105.161.113.157.115.146.091.105.02.023-.462.175-.355.158-.133.06-.493.249-.476.273-.096.063-.34.222-.377.288.036.068.04.066.04.063.072.108.012.018.003.004.018.026.018.027.005.008.302-.16.307-.153.312-.146.314-.141.315-.133.121-.049.03-.012.08-.032.035-.015.028-.011.015-.006.007-.003.078.134.096.147.109.151.118.146.12.133.098.093.008.007.007.007.004.004-.18.07-.178.073-.178.074-.177.077-.12.054-.058.026-.18.084.095.188.112.205.031.054.091.158.076.126.052.088.131.206.128.192-.436.207-.019.008-.023.012-.404.191-.133-.18-.136-.195-.135-.204-.13-.205-.07-.12-.048-.08-.103-.186-.104.06-.105.06-.105.064-.105.064-.028.018-.075.048-.101.066.079.156.092.164.1.167.105.167.105.162.063.094.039.059-.849.433-.017.01-.096-.13-.096-.138-.095-.141-.06-.093-.033-.05-.089-.14-.082-.131-.097.074-.092.075-.088.076-.083.075-.022.021-.057.054-.073.075-.003-.003-.138-.126-.623-.57.195-.19.206-.188.09-.076.127-.107.228-.178.238-.172.042-.028.205-.138-.564-.977-.144-.448-.206-.637-.156-1.099.006-.312.012-.705.17-.841.27-.502.037-.069.164-.18.177-.142.192-.106.208-.073.226-.045.121-.009.125-.01h.387l.142.004.146.005.079.003.037.002h.029l.015.174.027.187.038.193.017.066.034.128.064.185.078.167v.002l-.152-.014-.042-.003-.11-.009-.146-.01-.136-.005-.124-.004-.108-.002-.114.004-.102.016-.092.032-.084.053-.008.008-.072.071-.079.11-.078.123-.067.17-.056.209-.042.247-.028.279-.01.274-.002.017v.015l.017-.015.404-.337.013-.01.432-.33.461-.323.037-.024.094-.06.336-.216.464-.27.224-.117.09-.047.059-.031.039-.021.019-.01.013-.007.006-.003.084.15.098.163.109.164.116.161.12.148.089.096.03.032m-6.205-.62-.328-.023-.31-.015-.173-.005-.113-.004-.253-.005-.214-.002h-.168l-.095.004-.084.013-.075.024-.068.035-.064.048-.063.062-.138.266-.112.496-.073.618-.016.135-.013.19-.06.843-.057 1.34-.048 1.588-.002.083h2.669l.04-.083.089-.188.133-.26.137-.249.015-.025.03-.052.018-.03.077-.13.143-.224.14-.202.005-.007.134.104.134.094.039.027.195.13.2.125.193.115.11.062.058.033-.359.5-.1.177-.228.403-.069.15-.028.063-.011.023-.187.407-.258.688-.22.716-.178.726-1.205-.244-.023-.004.023-.09.047-.186.075-.278.081-.278.085-.276.087-.274.09-.269H-89l.001-.026.001-.008v-.032l.001-.055.002-.12.001-.076v-.057l.002-.125v-.098l.018-.597.003-.083.04-1.418.07-1.645.073-1.033.014-.214.111-.9.143-.61.182-.37.15-.178.125-.11.032-.028.163-.104.174-.077.189-.056.207-.043.218-.022.255-.012.283-.004.301.002.226.004h.057l.027.001.12.003.09.002.05.002h.05l.023.188.043.207.063.215.08.213.097.2.1.16.006.011.005.008m5.559 6.637.078.143.096.161.109.167.116.165.117.15.114.128-.485.105-.17.037-.666.174-.65.2-.616.221-.317.133-.243.102-.483.246-.029-.03-.695-.746.516-.29.1-.047.484-.221.005-.002.345-.132.282-.108.661-.215.67-.186.435-.102.068-.016.079-.019.038-.008.02-.005.014-.003.007-.002m-6.082-2.778-.288-.274-.107-.102-.364-.38-.315-.37-.245-.345.976-.837.055.084.174.266.297.381.347.396.381.395.397.379.124.108.272.24-.378.312-.015.013-.504.418-.4-.326-.407-.358m6.316 7.14-.21-.013-.193-.008-.057-.001-.118-.002-.154.001-.134.006-.111.009-.062.015-.056.02-.051.026-.047.034-.042.042-.04.049-.096.202-.076.313-.009.06-.049.348-.04.486-.025.546-.006.358-.002.083v.064l-.001.046-.001.026v.012l.193-.245.197-.238.198-.226.2-.213.199-.196.133-.12.03-.027.016-.014.01-.01.007-.006.107.156.126.168.14.172.146.167.148.152.113.105.029.026-.345.265-.177.163-.173.16-.343.364-.325.396-.168.234-.13.179-.255.417.022.179.018.12.01.06.033.178.037.178.042.175.024.095.006.022.01.039.003.01v.007l.14-.148.14-.142.144-.137.145-.13.146-.127.098-.08.05-.043.034.042.077.095.133.149.149.153.156.149.154.136.068.054.03.023.024.019.014.012.009.006-.206.165-.205.178-.204.19-.2.2-.057.062-.14.152-.194.224.05.081.087.139.153.221.044.057.125.162.095.112.089.105.2.214.218.211-.727.547-.159.12-.173-.167-.162-.166-.152-.167-.144-.167-.137-.167-.097-.122-.035-.044-.108.157-.103.16-.098.162-.093.163-.088.164-.083.163-.004-.002-.412-.21-.16-.083-.515-.263.148-.264.157-.264.05-.08.114-.183.172-.26.034-.049.138-.199.007-.009.142-.191.045-.06-.216-.579-.05-.185-.066-.247-.043-.16-.109-.603-.002-.014-.051-.475-.014-.127-.035-.628-.009-.642.002-.176.008-.572.035-.726.068-.68.108-.609.028-.09.014-.049.114-.376.21-.397.078-.102.092-.091.104-.077.114-.064.121-.05.125-.034.066-.014.128-.029.198-.03.205-.018.209-.008h.216l.068.001.054.002h.053l.034.002h.013l.01.208.025.209.041.21.057.202.076.196.09.171.005.01.002.004m-2.695.124h-.664v2.908h-5.656v-2.908H-89v-1.116h6.893v1.116m-2.13 3.14.055.175.075.187.089.19.004.009.004.007.042.081.047.09.1.176.096.155-.243-.006h-.001l-.243-.004-.23-.002h-.201l-.163.001-.11.004-.065.005-.051.01-.038.02-.025.028-.015.042-.005.057v.667h2.65v1.086h-2.65v.558l-.146.08-.027.017-.12.073-.15.096-.148.102-.148.108-.146.113h2.809v1.07h-4.038l-.267.055-.71-.597.27-.245.1-.084.192-.161.307-.24.32-.234.081-.056.17-.115.076-.052.242-.152.089-.057v-.279h-2.557v-1.086h2.557v-.698l.01-.261.036-.216.065-.176.1-.144.132-.109.01-.01.189-.099.21-.07.23-.049.25-.032.272-.018.296-.008.254-.002h.068M-71 68l-3.8 22.803L-75 92l-7.52 5.013L-84 98l-7.225-4.816L-93 92l-.2-1.197L-97 68h26m-13.397 17.24h.573v-1.9h-.573v1.9m-10.606-15.242L-93 82.291l1.382 8.48v.032h.007l2.61 1.784L-84 96.003-78.141 92l1.752-1.197h.007v-.031L-75 82.29l2.003-12.293h-22.006m9.156 15.241h.572v-1.9h-.572v1.9m-1.474 0h.58v-1.9h-.58Zm0 0" transform="matrix(4.29492 0 0 4.26451 420.902 -285.722)"/>
    <path fill="#f9f9f9" d="M44.207 112.75c-8.742-5.93-16.07-10.906-16.293-11.062-.387-.27-.695-2.07-7.644-44.395a36280 36280 0 0 1-7.25-44.242c0-.07 21.183-.125 47.078-.125 43.414 0 47.078.02 47.078.273 0 .309-14.34 87.836-14.434 88.102-.05.136-32.18 22.047-32.547 22.195-.054.02-7.25-4.812-15.988-10.746m35.035-7.57c.953-.711 1.735-1.332 1.735-1.383 0-.055-.579-.711-1.282-1.465-.703-.75-1.703-1.984-2.222-2.742l-.942-1.375 1.055-1.145a39 39 0 0 1 2.348-2.289c.71-.629 1.398-1.246 1.527-1.367.2-.191.133-.312-.422-.773-.36-.301-1.2-1.11-1.863-1.797-.93-.965-1.266-1.215-1.473-1.098-.148.082-.984.8-1.855 1.602L74.262 92.8l-.278-1.242a26 26 0 0 1-.382-2.153c-.106-.886-.09-.93.875-2.383 1.703-2.566 4.425-5.558 6.585-7.23l.672-.52-1.195-1.253c-.66-.688-1.441-1.606-1.742-2.04-.297-.43-.617-.78-.707-.78-.227 0-2.813 2.624-3.91 3.968l-.899 1.098-.05-1.485c-.067-1.832.234-5.465.582-6.976.285-1.25.789-2.118 1.417-2.434.27-.137 1.192-.21 2.579-.215h2.16l-.324-.629c-.465-.91-.817-2.183-.957-3.46l-.118-1.114h-1.882c-3.028.008-4.97.559-5.93 1.695-2 2.36-2.848 7.09-2.856 15.93-.004 6.856.485 10.496 1.934 14.395l.516 1.39-1.223 1.785c-1.215 1.77-3.031 4.723-3.031 4.926 0 .121 4.734 2.574 4.8 2.489.024-.036.336-.59.696-1.235.355-.648.89-1.535 1.187-1.976l.54-.801.648.8c1.258 1.547 3.168 3.403 3.355 3.258.102-.074.965-.718 1.918-1.43m-24.512.105 9-.05v-4.688l-11.843-.086 3.562-2.336v-2.281h11.324v-4.867H55.45V89.46c0-1.496.004-1.516.465-1.691.281-.11 1.453-.157 2.957-.122 1.371.032 2.492.04 2.492.02 0-.023-.37-.742-.824-1.598-.453-.855-.96-1.922-1.129-2.367l-.3-.812-2.126.113c-4.218.23-5.773.82-6.648 2.516-.29.554-.363 1.09-.43 3.066l-.082 2.39H38.883v4.868H49.87v.547c0 .488-.105.613-.965 1.12-1.351.805-4.664 3.305-5.93 4.481l-1.062.985 1.57 1.296c1.215 1.008 1.645 1.274 1.907 1.184.183-.062 4.386-.14 9.34-.172M65.422 76.04v-6.21h2.875v-5.036H38.543v5.035h2.535v12.418h24.344Zm-8.375-17.586c1.238-5.266 3.598-10.836 5.945-14.039.406-.555.738-1.059.738-1.121 0-.066-.55-.441-1.222-.836a37 37 0 0 1-2.262-1.445c-.57-.399-1.086-.727-1.144-.727-.204 0-1.75 2.492-2.715 4.363l-.953 1.848H44.19l.047-1.555c.543-17.488 1.063-21.664 2.793-22.55.473-.243 1.032-.27 4.297-.2l3.754.079-.48-.852c-.555-.992-1.11-2.602-1.278-3.723l-.117-.78-3.738.081c-2.899.063-3.95.149-4.672.375-2.488.777-3.832 2.313-4.465 5.102-.832 3.664-1.203 9.218-1.719 25.66l-.113 3.566h7.375c4.059 0 7.375.047 7.375.11 0 .058-.234.832-.523 1.718a86 86 0 0 0-.997 3.399l-.472 1.785 1.715.355c.941.196 2.02.422 2.39.504 1.364.305 1.344.317 1.684-1.117m10.758.399c3.273-1.532 7.539-2.938 11.816-3.891 1.067-.238 1.961-.453 1.988-.48.032-.028-.21-.364-.53-.747-.325-.382-.95-1.261-1.391-1.953-.442-.691-.907-1.258-1.04-1.258-.308 0-3.742.86-5.683 1.422-2.367.688-5.422 1.867-7.63 2.942-3.022 1.476-2.913 1.156-1.07 3.144a196 196 0 0 0 1.598 1.715c.008.004.883-.398 1.942-.894m3.207-7.075c1.265-.632 1.824-.992 1.742-1.132a44 44 0 0 0-.738-1.13c-.34-.507-.86-1.347-1.157-1.87l-.539-.95 1.059-.656c.582-.363 1.152-.71 1.262-.777.129-.075.308.086.488.43.574 1.117 2.812 4.328 3.02 4.328.269 0 3.812-1.653 3.812-1.782 0-.05-.438-.785-.973-1.633a48 48 0 0 1-1.48-2.507c-.598-1.145-.758-.977 1.945-2.078a86 86 0 0 0 1.996-.825c.031-.02-.441-.648-1.05-1.394-.606-.746-1.22-1.582-1.364-1.86-.219-.421-.32-.476-.64-.355-1.336.516-4.344 1.852-5.883 2.621l-1.813.902-.453-.68c-.441-.66-.445-.687-.144-1.019 1.003-1.101 7.054-4.472 10.027-5.582.7-.262 1.293-.496 1.324-.52.027-.023-.328-.511-.797-1.085-.465-.578-1.062-1.453-1.32-1.95-.262-.492-.543-.898-.625-.898-.527 0-6.832 3.695-9.14 5.36-.65.468-1.227.85-1.282.85-.059 0-.191-.382-.3-.85l-.2-.848.973-.89c2.949-2.712 6.562-5.087 10.656-7.013 1.18-.554 2.172-1.035 2.203-1.062s-.277-.457-.683-.957a20 20 0 0 1-1.38-1.942c-.351-.574-.73-1.043-.847-1.043-.34 0-4.254 2.278-6.273 3.653a68 68 0 0 0-3.532 2.597l-1.672 1.332.121-1.23c.325-3.328 1.223-5.066 2.75-5.328.352-.059 1.442-.063 2.418-.008.977.059 1.786.098 1.801.09.016-.008-.152-.543-.37-1.188a17 17 0 0 1-.599-2.375c-.187-1.14-.222-1.207-.707-1.3-.277-.055-1.085-.102-1.796-.098-2.836.008-4.653.566-5.915 1.82-3.855 3.828-3.605 15.09.5 22.305.641 1.129 1.168 2.113 1.165 2.18-.004.07-.403.39-.883.715-1.04.695-3.563 2.77-4.23 3.476l-.473.496 1.707 1.563 1.707 1.566.707-.66c1.547-1.441 1.285-1.484 2.57.43.621.93 1.2 1.691 1.285 1.691.086 0 .992-.418 2.02-.93m-12.73-11.754 1.863-1.52-2.442-2.32c-2.5-2.374-4.855-5.035-5.86-6.617l-.562-.89-2.101 1.785c-1.157.984-2.125 1.855-2.157 1.941-.097.274 1.774 2.575 3.555 4.368 2.149 2.164 5.332 4.894 5.621 4.824.121-.028 1.059-.735 2.082-1.57m0 0"/>
    <path fill="#f9f9f9" d="M58.492 73.77v-3.942h2.367v7.887h-2.367Zm-6.254 0v-3.942h2.364v7.887h-2.364Zm-6.258 0v-3.942h2.368v7.887H45.98Zm0 0"/>
</svg>
