<svg xmlns="http://www.w3.org/2000/svg" width="120" height="120" viewBox="0 0 120 136">
    <path stroke="red" stroke-width=".004" d="m30.819 6.393-.099-.005-.289-.016-.384-.013-.358-.008-.313-.003-.25.001-.162.003-.11.012-.084.021-.06.034-.038.042-.004.005-.023.064-.007.084V9.32H33v1.357h-4.362v1.578l-.066.034-.286.147-.363.206-.365.225-.362.237-.35.245-.333.246h5.4v1.341h-6.867l-.301.065-.17-.134-.822-.651.498-.482.325-.286.224-.196.589-.471.617-.451.062-.041.57-.377.636-.377v-.858H23V9.319h4.274V6.581l.015-.346.048-.289.085-.238.128-.193.177-.154.23-.12.287-.096.324-.068.07-.008.034-.005.26-.03.4-.025.442-.009.36.002h.122l.054.213.078.236.096.247.108.248.096.198.01.019.008.018.014.026.099.186m1.525 9.723.01.201.008.067.017.134.04.198.052.194.028.079.04.108.01.024.03.066.003.009.01.02.01.023.007.017.006.013.003.007-.16-.015-.145-.007h-.131l-.116.003-.072.005-.03.003-.086.011-.06.007-.055.012-.019.008-.029.012-.042.027-.037.036-.022.03-.011.015-.085.176-.067.292-.05.387-.011.154-.024.307-.02.516-.004.201-.006.336v.013l.151-.232.081-.117.072-.105.156-.213.157-.201.157-.188.108-.12.021-.024.016-.016.009-.01.003-.004.088.156.105.175.118.182.125.178.065.086.059.077.12.136-.18.172-.113.11-.291.345-.206.288-.074.105-.261.423-.231.437-.025.055-.027.062-.142.316.023.176.025.174.026.172.022.128.006.04.028.167.028.153.001.004.001.007.214-.216.108-.105.053-.05.055-.053.11-.1.102-.09.007-.005.105.128.11.12.016.018.14.14.146.135.045.04.098.083.126.096.008.006-.178.156-.054.052-.121.115-.172.175-.007.008-.16.176-.164.19-.16.195.106.215.118.213.022.035.11.176.034.05.107.16.155.206.132.163.034.043-.034.024-.814.571-.125-.144-.085-.105-.033-.041-.111-.148-.105-.148-.1-.148-.097-.148-.091.152-.087.154-.084.154-.08.153-.076.15-.071.15-.003-.002-.086-.053-.888-.548.13-.25.139-.252.055-.092.092-.155.02-.032.026-.04.109-.173.16-.241.05-.068.08-.11.027-.04.013-.017-.013-.04-.176-.541-.137-.591-.035-.227-.058-.378-.057-.618-.028-.634-.005-.418-.003-.234.008-.738.028-.726.03-.35.027-.335.093-.615.137-.515.176-.36.013-.027.07-.092.082-.082.028-.022.063-.048.1-.057.11-.043.12-.027.153-.034.163-.026.17-.018.179-.012.184-.004h.189m-3.39.063h.993v8.438h-.497l-.051.187-.013.045-.06.236-.059.237-.052.234-.047.225-.038.212-.458-.082-.663-.118H28l.062-.182.007-.02.068-.2.067-.198.066-.196.065-.192v-.001l.062-.187H27.35v-3.372h1.603v-.712h-1.679v-3.62h1.68v-.734m-1.986 1.268v5.901h-1.381v1.114h1.496v1.083H23v-1.091h1.573v-1.106H23.16v-4.81l.002-.105.003-.086.018-.171.034-.151.053-.131.077-.113.103-.094.102-.065.013-.009.124-.054.134-.036.147-.023.16-.011.051-.001.048-.001h.076l.022.124.032.14.043.148.05.149.058.146.063.135V16h1.015v6.28h.465v-4.834h.916M40.999 2l-3.8 22.803L37 26l-7.52 5.013L28 32l-7.225-4.816L19 26l-.2-1.197L15 2h26M24.286 18.445h-.123l-.021.008-.016.013-.011.02-.006.029-.002.037v3.728h.466v-3.82l-.082-.006-.075-.004-.062-.003h-.007l-.061-.001m-7.29-14.447L19 16.291l1.382 8.48v.032h.007L23 26.587l5 3.416L33.859 26l1.752-1.197h.007v-.031L37 16.29l2.003-12.293H16.997M28.954 17.98h-.68v1.477h.68V17.98m-.282 4.339h-.328v1.222h.61v-1.222Zm0 0" transform="matrix(4.29492 0 0 4.26451 -60.129 -4.265)"/>
    <path fill="#f9f9f9" d="M44.207 112.75c-8.742-5.93-16.07-10.906-16.293-11.062-.387-.27-.691-2.04-7.559-43.895a107244 107244 0 0 0-7.261-44.238l-.106-.63h47.094c43.43 0 47.094.02 47.094.274 0 .309-14.34 87.84-14.438 88.106-.047.136-32.172 22.039-32.543 22.191-.054.02-7.25-4.812-15.988-10.746m29.05-7.922.993-1.918.953 1.313c1.395 1.922 1.848 2.406 2.094 2.257.703-.43 3.508-2.453 3.508-2.53 0-.052-.414-.638-.926-1.298-.977-1.261-2.453-3.718-2.453-4.07 0-.117.96-1.195 2.133-2.398l2.136-2.188-.824-.703a29 29 0 0 1-1.777-1.703l-.95-.996-1.351 1.285-1.356 1.281-.273-1.75c-.152-.965-.273-1.937-.273-2.16 0-1.187 3.273-6.578 5.37-8.844l1.165-1.254-.977-1.308c-.535-.719-1.183-1.684-1.437-2.145-.25-.46-.504-.836-.559-.836-.168 0-1.453 1.551-2.707 3.266l-1.195 1.64V78.7c.004-1.64.32-5.648.535-6.773.41-2.153.816-2.469 3.184-2.477.93-.004 1.69-.031 1.69-.062 0-.032-.194-.633-.433-1.34-.238-.707-.48-1.817-.535-2.461l-.097-1.172-2.047.086c-3.383.148-4.422.652-5.41 2.621-.848 1.692-1.305 3.871-1.633 7.824-.274 3.313-.118 13.516.246 15.864.324 2.117.82 4.27 1.285 5.613.187.543.34 1.07.34 1.176s-.551 1.023-1.223 2.039c-.676 1.02-1.531 2.433-1.902 3.148-.574 1.098-.637 1.32-.422 1.45.137.085 1.09.68 2.11 1.32 1.023.644 1.898 1.175 1.945 1.183.046.008.53-.851 1.074-1.91m-8 .793a89 89 0 0 1 .653-2.812l.461-1.844 1.133-.05 1.129-.052V64.625H64.07v3.188h-7.1v15.609h7.101v2.855H57.31v14.602h4.37l-.82 2.433c-.453 1.34-.808 2.442-.793 2.454.118.07 4.18.789 4.54.804.421.016.468-.054.652-.949m-8.964-3.23v-2.352h-6.422v-4.7h5.914V69.997H51.73v20.645h-1.859V63.953h-4.566L45.3 68.61c-.008 4.918-.067 5.172-.664 2.856l-.313-1.219-1.16.043c-1.676.063-2.848.68-3.426 1.8l-.433.833-.051 11.21-.047 11.208h6.098v4.531h-6.762v4.867h17.75ZM62.17 59.59l14.918-.004v-6.04l-22.883-.085 1.336-.922c1.879-1.297 4.89-3.168 6.219-3.863l1.125-.586.004-3.399v-3.398h18.765v-5.875H62.887l.004-5.75c0-4.262.054-5.855.21-6.164.32-.629 1.208-.719 5.419-.555 2.062.078 3.773.13 3.8.113.032-.019-.215-.566-.547-1.222-.785-1.547-1.562-3.492-1.714-4.297l-.121-.64-3.231.109c-4.984.168-7.297.781-8.59 2.281-1.035 1.2-1.039 1.246-1.105 9.031l-.059 7.094h-18.41v5.875H56.98l-.046 1.781-.047 1.785-1.992 1.196c-2.348 1.414-4.465 2.879-6.797 4.707-1.899 1.492-4.95 4.125-5.809 5.015l-.562.586 2.168 1.711c2.023 1.594 2.21 1.703 2.761 1.614.328-.051 7.305-.098 15.512-.098m0 0"/>
    <path fill="#f9f9f9" d="M61.363 75.535v-3.023h2.707v6.043h-2.707Zm.34 17.957v-2.515h2.367v5.035h-2.367ZM43.488 82.625l.043-8.016 1.774-.101V90.64H43.44Zm0 0"/>
</svg>
