<svg xmlns="http://www.w3.org/2000/svg" width="120" height="120" viewBox="0 0 120 136">
    <path fill="red" stroke="red" stroke-width=".004" d="M84.463 37v3.539h4.366v1.264h-4.366v2.144h2.288l.158-.306.16-.294.166-.28.038-.059.132-.204.173-.247.135-.175.017-.021.008-.011.007-.009.007-.008.003-.005.166.098.207.114.23.12.233.116.22.106.189.086-.033.04-.372.442-.371.565-.334.63-.176.411-.064.148-.053.124-.25.715-.2.733-1.13-.218-.192-.036.059-.226.061-.224.064-.22.007-.024.06-.195.07-.216.076-.213h-1.759V47h-1.362v-1.796h-3.486v-1.257h3.486v-2.144H79v-1.264h4.1V37h1.362m3.59 11.096.122.146.15.162.168.165.176.159.173.14.158.114-.162.17-.065.067-.285.299-.39.57-.284.596-.194.611-.121.618-.065.616h1.34v1.198h-1.37v1.078l.15-.035.148-.03.147-.031.147-.026.068-.012.078-.012.052-.008.035-.005.027-.004.02-.003.013-.002.041.149.06.161.072.168.082.165.009.016.08.142.087.142-.476.104-.062.014-.533.136-.52.15-.494.164-.462.173-.157.066-.018.008-.243.103-.092-.103-.672-.75v.75h-1.218v-2.668h-2.239l-.007-.246-.006-.233-.001-.01-.01-.24-.01-.237-.014-.236-.02-.236-.174-.064-.166.15-.17.158-.167.16-.16.16-.147.151-.128.14-.482-.247-.592-.304.189-.14.188-.133.185-.13.03-.021.153-.105.179-.119.16-.103.009-.006.004-.002-.218-.105-.21-.106-.077-.04-.126-.066-.188-.103-.172-.1-.15-.095.013-.02.6-.802.005-.008.014-.02.004-.004.006-.007.007-.01.181.127.212.132.238.137.257.138.271.141.278.14-.114-.521-.15-.459-.191-.385-.236-.3-.288-.2-.345-.092-.06.025-.054.093-.012.04-.035.115-.042.208-.037.255-.008.077-.011.1-.006.054-.004.037-.003.02v.006l-.11-.146-.12-.149-.124-.143-.127-.132-.124-.114-.121-.09.066-.31.044-.21.15-.4.192-.288.233-.179.275-.075.318.024.793.263.59.507.212.358.047.08.163.277.284.886.177 1.02.102 1.114h1.127v-4.361h1.218v4.36h1.256l.068-.773.135-.779.221-.77.328-.744.199-.31.256-.399.484-.53.047-.052.03-.033.019-.02.013-.014.007-.008m.19 8.602v1.182h-6.521l-.009-.15-.01-.15-.013-.145-.008-.09-.02-.2-.003-.03-.005-.04-.002-.022-.005-.051-.25-.08-.046.047-.12.12-.168.183-.063.072-.102.117-.158.188-.146.182-.128.17-1.06-.544.138-.113.052-.043.188-.156.087-.072.099-.082.183-.151.045-.037.133-.11.162-.13.008-.006.003-.003-.23-.1-.22-.099-.074-.035-.11-.052-.025-.012-.194-.099-.176-.097-.158-.097.482-.667.005-.008.008-.01.009-.013.02-.028.025-.035.005-.007.069-.095.005-.007.181.112.161.091.055.031.242.128.262.133.276.135.282.136-.145-.387-.09-.176-.085-.165-.21-.287-.246-.224-.288-.151-.335-.07-.057.018-.052.071-.025.062-.022.055-.042.16-.039.199-.008.056-.012.076-.006.043-.006.033-.002.014v.01l-.106-.134-.117-.137-.122-.134-.126-.124-.123-.11-.118-.087.108-.44.15-.34.19-.244.229-.151.172-.04.03-.007.065-.015.199.015.105.008.754.212.584.394.311.389.128.16.318.674.06.211.162.56.149.842h5.507m-2.438-1.515.21-.058h.001l.214-.056v-1.342h-1.24v1.71l.198-.068.203-.064.03-.009.175-.053.21-.06M97 34l-3.8 22.803L93 58l-7.52 5.013L84 64l-7.225-4.816L75 58l-.2-1.197L71 34h26m-24.003 1.998L75 48.291l1.382 8.48v.032h.007L79 58.587l5 3.416L89.859 58l1.752-1.197h.007v-.031L93 48.29l2.003-12.293Zm0 0" transform="matrix(4.29492 0 0 4.26451 -300.644 -140.729)"/>
    <path fill="#f9f9f9" d="M44.207 112.75c-8.742-5.93-16.07-10.906-16.293-11.062-.387-.27-.691-2.04-7.559-43.895a107244 107244 0 0 0-7.261-44.238l-.106-.63h47.094c43.43 0 47.094.02 47.094.274 0 .309-14.34 87.84-14.438 88.106-.047.136-32.172 22.039-32.543 22.191-.054.02-7.25-4.812-15.988-10.746m2.164-7.715c.79-.95 1.707-1.98 2.043-2.3.535-.508.668-.56 1.074-.415.457.157.469.196.621 2.047l.153 1.883h28.176v-5.203H54.805l-.285-1.637c-.965-5.605-2.907-9.383-5.817-11.332-1.984-1.332-4.902-2.066-6.75-1.7-1.242.247-2.566 2.071-3.07 4.231l-.211.895 1.5 1.539c.824.848 1.543 1.562 1.598 1.59.054.023.222-.574.37-1.332.352-1.77.598-2.028 1.657-1.754 1.851.484 3.266 1.812 4.324 4.078.313.66.566 1.281.566 1.375 0 .273-.734-.047-3.453-1.496-1.379-.734-2.53-1.34-2.558-1.34-.047 0-2.473 3.305-2.668 3.64-.137.235 1.156.997 3.363 1.985l1.547.691-2.262 1.829c-1.242 1.004-2.238 1.89-2.21 1.968.034.102 4.226 2.422 4.464 2.473.016 0 .676-.77 1.461-1.715m23.848-5.734a64 64 0 0 1 8.39-2.512c.977-.215 1.774-.46 1.77-.543 0-.082-.313-.754-.695-1.492-.38-.738-.786-1.629-.899-1.977-.23-.715-.05-.703-2.597-.187-.633.129-1.184.234-1.227.234-.04 0-.07-.984-.07-2.183v-2.184h5.746v-5.203h-5.625l.117-1.285c.336-3.703 1.68-7.656 3.433-10.114a32 32 0 0 1 1.977-2.421l1.188-1.317-.5-.351c-.278-.192-1.227-1.059-2.114-1.926l-1.605-1.578-1.153 1.23c-3.636 3.88-5.945 9.43-6.449 15.496-.058.739-.148 1.551-.195 1.805l-.09.46h-5.215V64.626H59v18.629h-4.547l-.094-.711a92 92 0 0 1-.273-2.563c-.45-4.703-1.492-8.605-2.98-11.117-.72-1.222-1.2-1.797-2.239-2.687-1.234-1.055-1.449-1.172-3.191-1.7-1.492-.453-2.067-.55-2.88-.496-2.062.149-3.19 1.583-4 5.06l-.265 1.144.824.734a15.5 15.5 0 0 1 1.547 1.668c.399.516.782.934.848.934.07 0 .172-.434.227-.97.16-1.515.457-2.69.765-3.034.262-.293.336-.297 1.113-.067 1.153.34 2.465 1.668 3.23 3.274.524 1.093 1.49 4.312 1.34 4.465-.085.09-3.523-1.754-4.85-2.598l-1.145-.727-1.461 1.93c-.801 1.062-1.43 1.953-1.395 1.98.266.204 1.61.954 3.024 1.688l1.68.871-2.27 1.57c-1.25.864-2.242 1.614-2.203 1.672.035.055 1.09.63 2.343 1.278l2.282 1.171 2.02-1.96c2.464-2.399 2.64-2.43 2.804-.516.059.7.11 2.09.11 3.09v1.82H59v11.414h5.395l.05-1.527.047-1.528 1.5 1.696c.824.933 1.574 1.695 1.668 1.695s1.246-.406 2.559-.906M62.21 55.98v-3.778h3.652c3.41 0 3.645.02 3.54.293-.255.652-1.255 4.031-1.36 4.602-.098.507-.063.625.195.703.852.25 5.157.972 5.352.898.125-.047.402-.754.617-1.57 1.344-5.098 3.95-10.418 6.621-13.516.453-.523.817-1.015.809-1.09-.028-.23-5.348-2.793-5.543-2.671-.309.191-2.504 3.546-3.41 5.218l-.868 1.594H62.21v-9.066h18.766v-5.54H62.21V16.954h-6.086V32.06H38.543v5.539h17.582v9.066H41.25v5.54h14.875v7.55h6.086Zm0 0"/>
    <path fill="#f9f9f9" d="M64.406 91.996v-3.539h5.25l-.047 2.79-.046 2.784-2.196.63a148 148 0 0 0-2.578.75l-.383.12Zm0 0"/>
</svg>
