<svg xmlns="http://www.w3.org/2000/svg" width="120" height="120" viewBox="0 0 120 136">
    <path stroke="red" stroke-width=".004" d="m4.969 5.95-.56.237-.313.155-.267.133-.57.319-.537.335-.478.333-.394.316-.03-.02L.702 6.96l.483-.353.54-.358.577-.35.594-.333.591-.303L4.055 5l.041.047.084.097.147.164.161.172.167.172.163.159.122.112.029.026m-5.733.957-.006.006-.954.835-.535-.254-.583-.289-.597-.309-.577-.313-.524-.302-.436-.277.958-.883.023-.022.023-.02.02-.018.015-.014.403.274.497.31.557.33.586.332.582.321.548.293m3.92 7.446-1.131.057-.198.013-.951.065-.876.076-.26.023-1.088.119-1.013.138-.907.157-.67-1.18.868-.138.928-.121.972-.103.997-.088.173-.012.832-.06.995-.057v-1.104h-6.22v-1.188h1.74v-1.89H-5V7.855H5V9.06H3.157v5.293M3.863 16l.075.208.075.176.018.043.065.133.043.088.12.215.126.2.13.18-.419.044-.54.057-.91.137-.849.177-.79.222-.725.272-.282.141-.28.14-.094.046H.731v3.166h4.237v1.204H3.482v2.433H2.146v-2.433H.668V26H-.684v-1.012h-3.179v-1.142h3.18v-.997h-4.261v-1.204H-.58v-3.043l-.263.183-.246.195-.23.207-.213.222-.196.237-.18.254-.14-.052-1.06-.389.213.243.222.239.228.235.23.228.079.076.149.144.222.21-1.073.65-.398-.351-.41-.382-.271-.27-.13-.13-.05-.053-.323-.349-.324-.39-.256-.362.904-.575.02-.013.03-.02.039-.024.035-.023.04-.025.042-.026.005-.004.01-.006.01-.007.01-.006.008-.005.083.139.097.144.108.149.117.153.125.158.13.161.75-.935.009-.01.932-.76 1.101-.598L0 16.92l.868-.317.9-.219.521-.127 1.562-.255.012-.002M5 19.26l-.399.282-.39.324-.115.112-.254.246-.23.256-.111.125-.303.394-.257.4-.04-.013-1.327-.398.311-.478.022-.03.33-.44.38-.45.4-.423.406-.381.393-.324.008-.006.155.128.117.087.077.058.215.151.22.146.21.13.08.046.067.037.035.02M13 2 9.2 24.803 9 26l-7.52 5.013L0 32l-7.225-4.816L-9 26l-.2-1.197L-13 2h26m-24.003 1.998L-9 16.291l1.382 8.48v.032h.007L-5 26.587l5 3.416L5.859 26l1.752-1.197h.007v-.031L9 16.29l2.003-12.293h-22.006m12.83 6.95v-1.89h-3.142v1.89Zm0 0" transform="matrix(4.29492 0 0 4.26451 60.129 -4.265)"/>
    <path fill="#f9f9f9" d="M43.867 112.523c-8.926-6.054-16.258-11.035-16.293-11.07-.035-.031-3.285-19.68-7.219-43.664-3.937-23.984-7.203-43.89-7.261-44.234l-.106-.63h47.094c43.43 0 47.094.02 47.094.274 0 .309-14.34 87.84-14.438 88.106-.047.132-32.164 22.035-32.543 22.191-.054.02-7.402-4.914-16.328-10.973m19.188-12.484v-6.71h6.254v10.237h5.918V93.328h6.253v-5.375H63.395V74.527l-2.243-.007-2.238-.008 1.305-.664c3.992-2.028 10.945-3.735 17.46-4.29 2.02-.171 2.024-.175 1.41-1.074-.612-.89-2.171-3.984-2.171-4.308 0-.309-.227-.293-3.797.285-12.25 1.973-20.445 5.805-25.11 11.746-.792 1.004-1.495 1.832-1.566 1.836-.14.008-2.582-3.195-2.695-3.54-.047-.14-.887.298-2.43 1.27-1.293.817-2.453 1.57-2.57 1.68-.367.34 1.594 2.75 4.934 6.059 1.683 1.668 3.336 3.238 3.68 3.492l.616.465 2.254-1.367c1.243-.754 2.29-1.403 2.328-1.438.04-.039-1.132-1.277-2.601-2.758-1.473-1.476-2.64-2.722-2.594-2.77.043-.042 1.098.298 2.34.759 1.238.457 2.266.816 2.277.796.172-.336 1.387-1.789 2.184-2.613.89-.922 2.43-2.219 3.098-2.61.168-.097.21 1.184.21 6.184v6.301H38.884v5.375H57.14v4.027H43.445v5.036h13.696v4.363h5.914Zm10.332-13.805c1.539-2.418 4.402-5.46 6.742-7.168.789-.578 1.46-1.105 1.484-1.175.028-.067-.43-.403-1.015-.743-.586-.34-1.735-1.109-2.555-1.714l-1.492-1.094-.621.465c-1.184.882-4.637 4.347-5.953 5.968-1.364 1.68-2.989 3.973-3.07 4.336-.032.133.984.524 2.827 1.09 1.579.485 2.922.887 2.98.899.063.011.364-.38.673-.864m-25.11-26.808c5.082-.906 14.965-1.883 23.106-2.285l2.324-.118V34.41h7.945v-5.203H38.543v5.203h10.145v7.89H41.25v5.204h26.719l-.047 2.305-.047 2.308-2.113.121c-5.582.313-13.032.985-17.414 1.57-2.125.282-5.13.762-5.203.825-.125.11 2.882 5.12 3.07 5.12.117 0 1.047-.148 2.062-.327m20.864-31.223c2.25-1.805 5.515-3.777 9.214-5.57 1.489-.723 2.801-1.313 2.915-1.313.117-.004.21-.058.207-.129 0-.07-.899-1.054-1.993-2.191l-1.988-2.066-2.867 1.414c-1.578.777-3.742 1.925-4.813 2.55-2.093 1.23-6.296 4.012-6.59 4.364-.14.164.395.62 2.317 1.98 1.375.973 2.574 1.723 2.668 1.668s.512-.37.93-.707m-14.309-1.121c1.129-.984 2.07-1.832 2.094-1.887.023-.054-.586-.422-1.352-.808-2.226-1.133-7.742-4.293-10.062-5.766-1.176-.746-2.188-1.371-2.246-1.387-.145-.039-4.555 3.922-4.555 4.09 0 .164 1.902 1.332 4.648 2.856 1.914 1.062 9.145 4.691 9.344 4.691.04 0 .996-.805 2.129-1.789m0 0"/>
    <path fill="#f9f9f9" d="M54.602 38.355V34.41h13.355v7.89H54.602Zm0 0"/>
</svg>
