<svg xmlns="http://www.w3.org/2000/svg" width="120" height="120" viewBox="0 0 120 136">
    <path stroke="red" stroke-width=".004" d="m-23 5.722-.433.914-.302 1.006-.1.55-.093.505-.11 1.06-.047 1.022-.011.94V15h-7.688l.015-1.123.013-.932.002-.657.005-1.315-.025-1.76-.04-.805-.01-.216-.019-.395-.083-.629-.042-.316-.191-.344-.043.053-.037.152-.031.24-.017.215-.008.1-.018.376-.01.368v.059l-.11-.191-.113-.193-.116-.187-.106-.16-.01-.015-.114-.157-.108-.13.067-.602.092-.489.073-.216.055-.162.134-.208.038-.06.224-.16.285-.053.509.273.113.061.32.722.093.209.137.784.005.031.106.604.029.418v.002l.015.216.081 1.163.044 2.071.002.646.003 1.589h2.958l-1.055-.135h-.011l.01-.029.215-.541h-1.697V9.796h4.475v3.376h-1.524l-.03.12-.027.123-.026.121-.023.12-.02.113-.017.108h2.065v-2.149l.018-1.046.026-.442.041-.71.018-.16.12-1.04.027-.138.058-.305.144-.749.222-.735.032-.103.088-.291.45-.958.012-.024.008-.019.004-.008.129.12.164.137.186.14.187.129.005.003.183.113.022.011.138.069m-1.944.681h-2.373v.546h1.689v.938h-1.689v.52h1.9v.963h-4.985v-.962h1.907v-.52h-1.72v-.939h1.72v-.546h-2.365V5.361h5.916v1.042M-24.01 16l.127.122.163.135.172.127.012.01.187.126.004.002.183.11.024.012.138.07-.435.918-.303 1.008-.194 1.056-.109 1.061-.048 1.024-.011.945V26h-7.672l.013-1.116v-.081l.004-.227.007-.648v-.191l.004-1.21.001-.586-.02-1.35-.002-.11-.005-.312-.006-.134-.004-.078-.004-.091-.006-.104-.049-1.02-.04-.31-.084-.641-.19-.346-.047.053-.04.151-.032.237-.027.312-.012.234-.008.142-.013.361v.035l-.002.022v.01l-.102-.189-.11-.192-.115-.188h-.001l-.106-.163-.009-.014-.114-.158-.11-.132.068-.61.095-.493.07-.204.06-.175.064-.1.108-.168.222-.16.28-.056.625.338.02.046.053.118.344.778.202 1.152.049.283.02.3.038.524.065.941.004.054.001.057.043 1.937.002.1.004 1.109.003.839v.308h5.286v-2.142l.004-.214.014-.834.068-1.155.007-.059.027-.234.082-.707.023-.204.172-.903.057-.294.22-.73.025-.084.095-.316.292-.624.164-.353.01-.019.005-.012m-4.581.064.016.14.027.149.007.031.029.122.044.15.052.141.054.118.002.006v.002l-.154-.015-.147-.012h-.011l-.125-.01-.12-.006-.103-.004-.08-.001-.059.002-.05.007-.042.012-.004.001-.04.02-.038.027-.037.035-.045.082-.038.138-.033.202-.001.007-.026.27-.024.356-.018.398-.002.048h3.847v4.83h-1.444l-.017.074-.014.072-.012.07-.004.026-.007.046-.01.07-.01.069h1.735v.778h-4.835v-.778h1.946l.034-.076.034-.074.017-.035.017-.037.035-.07.036-.068.037-.066h-1.827v-2.72h3.197v-.345h-3.66v-.707h3.66v-.353h-3.803v-.071l.001-.073.001-.084.003-.084.003-.073.018-.321.001-.048.018-.319.04-.555.017-.15.031-.285.06-.33.073-.236.093-.156.016-.017.077-.08.098-.08.103-.059.11-.045.117-.03.123-.018.12-.006.146-.005.166-.002h.184l.194.002.12.002h.072l.009.001m3.338.16.225.16.397.28.052.036.003.003.027.02-.027.025-.185.174-.19.232-.166.254-.002.003-.144.274-.118.284-.089.286-.75-.297.103-.323.085-.227.035-.094.143-.31.169-.291.199-.262.069-.067.164-.16m-1.138.298-.005.225-.001.252.006.269.007.14.007.137.022.276.032.266h-.01l-.29.032-.381.04-.038-.257-.03-.273-.018-.22-.004-.059-.015-.27-.008-.255v-.223l.493-.054.196-.022.02-.002.013-.002h.004m-1.16.224.02.191.032.215.044.227.007.03.047.203.061.228.066.215-.007.002-.367.096-.27.07-.076-.21-.07-.224-.063-.228-.037-.153-.016-.069-.041-.208-.026-.184.034-.01.012-.003.02-.006.533-.154.05-.014.022-.007.015-.004.01-.003m-.696 1.365-.425.167-.166.066-.104-.157-.1-.166-.091-.17-.081-.167-.068-.156-.043-.12-.007-.02.643-.28.017.056.029.096.055.148.006.018.072.174.082.176.089.172.092.163M-15 2l-3.8 22.802L-19 26l-7.52 5.013L-28 32l-7.225-4.816L-37 26l-.2-1.197L-41 2h26m-11.754 8.605h-2.282v.506h2.282v-.506m-12.25-6.607L-37 16.291l1.382 8.48v.032h.007l2.61 1.784L-28 30.003-22.141 26l1.752-1.197h.007v-.031L-19 16.29l2.003-12.293h-22.006m10.33 7.866h-.363v.482h2.282v-.482h-1.918m1.87 9.417h-2.104v.37h2.104v-.37m-1.87.98h-.234v.36h2.104v-.36Zm0 0" transform="matrix(4.29492 0 0 4.26451 180.387 -4.265)"/>
    <path fill="#f9f9f9" d="M43.867 112.523a8566 8566 0 0 1-16.293-11.066c-.054-.055-14.543-88.062-14.554-88.406 0-.07 21.183-.125 47.078-.125 43.414 0 47.078.02 47.078.273 0 .309-14.34 87.84-14.438 88.106-.047.132-32.164 22.035-32.543 22.191-.054.02-7.402-4.914-16.328-10.973m33.051-13.53c.008-17.114.86-23.747 3.871-30.055.473-.997.863-1.864.863-1.93-.004-.067-.406-.328-.898-.582-.492-.258-1.461-.918-2.156-1.469-.692-.55-1.301-1-1.352-1.004-.055 0-.562 1-1.129 2.223-3.164 6.84-4.433 15.777-4.437 31.304l-.004 4.239h-22.43l-.11-9.192c-.128-10.578-.468-16.03-1.277-20.453-.418-2.293-.629-3.008-1.386-4.726l-.895-2.024-1.336-.707c-1.105-.582-1.449-.691-1.988-.617-1.95.258-2.953 2.215-3.54 6.895l-.183 1.468.496.625c.274.34.883 1.262 1.356 2.043.472.785.933 1.54 1.023 1.676.117.188.164.078.176-.418.02-1.09.328-4.828.438-5.328.14-.64.304-.582.718.25.883 1.777 1.285 10.297 1.192 25.348l-.063 10.195h33.051ZM71 98.612v-1.761h-7.469l.121-.715c.067-.39.153-.77.196-.84.039-.067 1.437-.125 3.105-.125h3.035V74.527H53.59v-.988c0-1.562.332-4.383.59-4.992.3-.715.707-.809 2.828-.672 1.32.086 1.664.063 1.594-.102-.22-.511-.774-2.449-.868-3.023l-.105-.629-2.145.004c-2.496.004-3.418.176-4.332.8-.886.606-1.39 1.747-1.695 3.829-.246 1.668-.602 6.437-.602 8.082v.879h16.399v1.176H49.53v3.187h15.723v1.344H51.39v11.75h3.886c2.141 0 3.891.035 3.891.078 0 .047-.168.422-.371.84l-.375.762h-8.383v3.523H71ZM57.738 73.605c.61-.226 1.18-.457 1.27-.511.086-.051-.137-.676-.492-1.387-.356-.71-.79-1.687-.961-2.176-.172-.484-.371-.879-.442-.879-.07 0-.722.262-1.445.578-1.465.645-1.45.606-.816 2.028.398.898 1.539 2.765 1.691 2.765.043 0 .582-.187 1.195-.418m13.43-.18c0-.464 1.02-2.714 1.71-3.773a15.6 15.6 0 0 1 1.427-1.832l.765-.808-3.14-2.235-.957 1.02c-1.078 1.152-2.059 2.918-2.825 5.082l-.523 1.476.379.16c.933.391 2.926 1.157 3.039 1.165.07.004.125-.11.125-.254m-9.195-.265c1.183-.293 1.418-.406 1.328-.629-.262-.656-.91-3.426-1.016-4.363-.086-.734-.187-1.027-.363-1.027-.543 0-2.793.746-2.875.953-.152.398 1.144 5.426 1.402 5.426.047 0 .73-.16 1.524-.36m5.433-.21c.02-.02-.035-.677-.129-1.454-.09-.781-.164-2.312-.164-3.41v-1.992l-1.14.113c-.63.059-1.364.152-1.633.203l-.488.098.105 2.625c.059 1.441.156 2.953.219 3.355l.113.735 1.54-.118c.847-.066 1.554-.136 1.577-.156m9.516-20.118c.012-17.742.785-23.996 3.766-30.496.585-1.27.957-2.281.855-2.313-.398-.132-2.734-1.738-3.492-2.402-.446-.39-.836-.68-.864-.648-.03.035-.515 1.047-1.078 2.246-3.156 6.742-4.433 15.484-4.433 30.37v5.298H63.02l.113-.63c.066-.343.195-.987.289-1.425l.168-.797h6.566V37.43H50.715v14.605h3.633c2 0 3.636.024 3.636.055s-.195.527-.433 1.11c-.235.581-.387 1.1-.328 1.155.054.055.761.188 1.57.293 1.332.18.945.2-4.035.22l-5.512.019-.117-8.824c-.14-10.422-.496-16.094-1.281-20.465-.446-2.473-.63-3.118-1.395-4.832l-.883-1.977-1.363-.742c-1.281-.692-1.414-.727-2.09-.578-1.902.426-2.758 2.054-3.324 6.332l-.25 1.89.91 1.297a33 33 0 0 1 1.457 2.27c.3.535.586.933.633.887s.145-1.204.215-2.567c.137-2.543.289-3.742.48-3.742.059 0 .25.246.422.547.93 1.605 1.399 11.535 1.235 26.097l-.106 9.274h33.129ZM71.34 33.656v-2.101h-8.117v-2.18h7.101v-4.027h-7.101v-2.184h10.144v-4.703l-25.61.086v4.531l5.114.047 5.113.043v2.18h-7.437v4.027h7.437v2.18H49.7v4.199h21.64Zm0 0"/>
    <path fill="#f9f9f9" d="M56.293 87.285v-.672h8.96v1.34h-8.96Zm0 4.195v-.671h8.96v1.343h-8.96Zm-.508-49.433v-.922h9.637v1.844h-9.637Zm0 5.371v-.922h9.637v1.844h-9.637Zm0 0"/>
</svg>
