<svg xmlns="http://www.w3.org/2000/svg" width="120" height="120" viewBox="0 0 120 136">
    <path fill="red" stroke="red" stroke-width=".004" d="m-53.744 5.003.054.212.078.236.096.247.108.248.096.198.01.019.008.018.046.086.067.126-.067-.003-.32-.018-.385-.013-.358-.008-.313-.003-.25.001-.162.003-.11.012-.084.021-.06.034-.006.005-.036.042-.023.064-.007.084V9.32H-51v1.357h-4.362v1.578l-.066.034-.286.147-.363.206-.365.225-.362.237-.35.245-.19.14-.143.106h5.4v1.341h-6.867l-.301.065-.992-.785.498-.482.158-.14.391-.342.589-.471.617-.451.632-.418.018-.01.618-.367v-.858H-61V9.319h4.274V6.581l.015-.346.048-.289.085-.238.128-.193.177-.154.23-.12.287-.096.324-.068.07-.008.066-.008.227-.028.401-.024.442-.009.36.002h.122M-51.933 16l.113.176.137.19.015.018.142.175.043.048.126.14.178.175.002.002.177.149-1.167.628-.932.731-.149.169-.573.647-.538.884-.143.348-.24.583-.25.963h3.681v1.312h-3.862l-.034.465-.02.458-.009.315-.004.136-.001.09-.001.046-.005.306-.004.43-.005.416h-1.38l.006-.42.008-.43.009-.347.003-.094.005-.133.013-.316.025-.458.036-.464h-4.181v-1.312h3.673l-.305-.807-.092-.244-.253-.495-.246-.48-.604-.883-.71-.774-.821-.65-.81-.446-.046-.025-.036-.02-.022-.013-.016-.008.167-.154.176-.189.176-.21.164-.22.017-.024.127-.189.114-.195.642.384.267.16.797.663.695.775.314.46.288.42.516.977.264.641.168.403.009.024.129-.405.008-.022.137-.377.164-.393.184-.385.208-.378.038-.061.007-.01.188-.3-.296.202-.33-.3-.048-.046-.298-.283-.343-.34-.322-.34-.281-.322-.222-.291.642-.472.465-.342.016-.01.181.264.068.088.161.207.267.314.291.323.302.321.155.16.073.077.048.05.024.024.336-.353.369-.337.405-.32.125-.087.317-.217.273-.162.206-.122.485-.245.023-.012.011-.005M-43 2l-3.8 22.803L-47 26l-7.52 5.013L-56 32l-7.225-4.816L-65 26l-.2-1.197L-69 2h26m-24.003 1.998L-65 16.291l1.382 8.48v.032h.007l2.61 1.784L-56 30.003-50.141 26l1.752-1.197h.007v-.031L-47 16.29l2.003-12.293Zm0 0" transform="matrix(4.29492 0 0 4.26451 300.644 -4.265)"/>
    <path fill="#f9f9f9" d="M43.867 112.523c-8.926-6.054-16.258-11.035-16.293-11.07-.035-.031-3.285-19.68-7.219-43.664-3.937-23.984-7.203-43.89-7.261-44.234l-.106-.63h47.094c43.43 0 47.094.02 47.094.274 0 .309-14.34 87.84-14.438 88.106-.047.132-32.164 22.035-32.543 22.191-.054.02-7.402-4.914-16.328-10.973m19.59-10.175c.063-2.422.164-4.993.219-5.707l.105-1.301h16.516v-5.707h-7.86c-4.324 0-7.859-.02-7.859-.043 0-.02.258-.985.57-2.137 2.125-7.824 6.743-13.601 13.922-17.43 1.282-.68 2.395-1.3 2.477-1.378.086-.082-.262-.52-.8-1.008-.528-.477-1.423-1.48-1.993-2.235-.567-.75-1.094-1.39-1.168-1.418-.195-.074-2.356 1.036-4.086 2.098a31.3 31.3 0 0 0-5.492 4.297l-1.383 1.351-1.574-1.648c-1.864-1.957-4.125-4.617-4.676-5.5-.238-.387-.469-.586-.59-.512-.105.067-1.242.887-2.523 1.825l-2.332 1.707.715.902c1.226 1.555 3.363 3.8 5.351 5.625 1.527 1.406 1.98 1.734 2.258 1.648.41-.129.437-.207-.57 1.602-.95 1.71-1.684 3.39-2.418 5.531-.625 1.82-.496 1.89-1.657-.914-3.097-7.473-8.093-13.57-13.914-16.976-1.004-.586-1.886-1.067-1.957-1.067-.074 0-.336.32-.586.711-.687 1.094-1.84 2.543-2.777 3.5-.469.473-.824.883-.797.902.027.024.926.52 1.992 1.102 5.059 2.758 9.368 7.352 12.246 13.059 1.008 2 2.633 5.859 2.633 6.253 0 .09-3.308.153-7.863.153h-7.86v5.707h18.008l-.113 1.637c-.062.902-.168 3.468-.238 5.707l-.125 4.07h6.086ZM62.168 59.59l14.918-.004v-6.04l-22.883-.085 1.336-.922c1.879-1.297 4.89-3.168 6.219-3.863l1.125-.586.004-3.399v-3.398h18.765v-5.875H62.887l.004-5.75c0-4.262.054-5.855.21-6.164.32-.629 1.208-.719 5.419-.555 2.062.078 3.773.13 3.8.113.032-.019-.215-.566-.547-1.222-.785-1.547-1.562-3.492-1.714-4.297l-.121-.64-3.231.109c-4.984.168-7.297.781-8.59 2.281-1.035 1.2-1.039 1.246-1.105 9.031l-.059 7.094h-18.41v5.875H56.98l-.046 1.781-.047 1.785-1.992 1.196c-2.348 1.414-4.465 2.879-6.797 4.707-1.899 1.492-4.95 4.125-5.809 5.015l-.562.586 2.168 1.711c2.023 1.594 2.21 1.703 2.761 1.614.328-.051 7.305-.098 15.512-.098m0 0"/>
</svg>
