<svg xmlns="http://www.w3.org/2000/svg" width="120" height="120" viewBox="0 0 120 136">
    <path fill="red" stroke="red" stroke-width=".004" d="m-59.456-17.788.57-.07.614-.06.658-.044.704-.028.75-.01 1.131.058 1 .188.838.338.639.508.123.21.099.17.084.144.102.174.144.909-.067.633-.191.581-.3.534-.395.495-.295.287-.18.175-.386.308-.158.127.047.09.013.025.008.014.006.012v.002l.204.387.28.563.166.35.114.24.28.61.277.623.02.048.254.583-.945.385-.089.037-.471.192-.074-.192-.16-.422-.244-.583-.003-.01-.253-.567-.22-.466-.034-.074-.253-.509-.236-.453v-.001l-.004-.007-.002-.005-.004-.007-.491.278-.485.266-.421.228-.043.023-.43.23-.058.03-.121.066-.202.108-.318.173-.216.129-.201.122-.187.118-.175.117-.164.118-.118.093-.037.03-.005-.008-.013-.022-.619-1.043-.185-.312.18-.107.187-.107.153-.084.039-.022.2-.106.205-.107.212-.107.429-.21.521-.257.314-.158.266-.134.609-.32.032-.017.573-.321.569-.348.468-.328.404-.336.331-.35.248-.363.155-.382.054-.403-.07-.395-.206-.327-.344-.257-.48-.186-.553-.1-.066-.012-.754-.038-.642.016-.524.034-.07.005-.084.005-.691.068-.676.088-.636.103-.569.113.004-.382.013-1.322.527-.082M-51.466-29v1.177h-2.06l.098.262.124.29.056.118.09.186.16.31.166.302.17.286-.586.256-.233.102h1.511v1.154h-3.323v1.13h2.12v.53l.222-.107.222-.104.223-.1.225-.094.226-.092.112-.043.047-.018.032-.012.022-.01.015-.005.1.199.123.207.14.211.15.206.107.13.007.01.044.054.091.102.065.074-.97.334-.935.42-.343.197-.533.308-.741.55-.054.04-.692.677-.345.463-.111.15-.111.15-1.18-.546.096-.146.096-.144.05-.073.05-.073-.562-.47-.041-.028-.018-.013-.594-.409-.72-.421-.765-.378-.788-.326-.779-.259-.01-.003.147-.157.07-.082.087-.102.158-.2.15-.204.136-.198.11-.18.233.09.236.096.237.103.237.108.235.112.235.115v-.639h2.105v-1.13h-3.331v-1.154h1.647l-1.045-.397.186-.304.132-.212.058-.093.19-.3.185-.29.178-.271.168-.245h-2.248V-29h9.038m-3.158 1.567.857-.39h-1.526v2.112h1.579l-.185-.28-.181-.3-.171-.304-.015-.029-.137-.27-.127-.284-.094-.255m-2.61-.094-.11.178-.055.088-.169.297-.166.316-.011.024-.146.299-.14.316-.12.298h1.527v-2.112h-1.308l.588.25.11.046M-43-32l-3.8 22.803L-47-8l-7.52 5.013L-56-2l-7.225-4.816L-65-8l-.2-1.197L-69-32h26m-11.331 9.758h-3.474l.324.214.137.097.179.127.308.231.297.238.286.245.166.152.04.036.033.03.022.022.013.01.257-.262.268-.25.279-.24.287-.226.296-.217.305-.207h-.023m-12.672-7.76L-65-17.709l1.382 8.48v.032h.007L-60-6.73l4 2.733L-50.141-8l1.752-1.197h.007v-.031L-47-17.71l.21-1.291 1.793-11.002Zm0 0" transform="matrix(4.29492 0 0 4.26451 300.644 140.729)"/>
    <path fill="#f9f9f9" d="M43.867 112.523a8566 8566 0 0 1-16.293-11.066c-.054-.055-14.543-88.062-14.554-88.406 0-.07 21.183-.125 47.078-.125 43.215 0 47.078.02 47.078.27 0 .308-14.344 87.843-14.438 88.109-.047.132-32.164 22.035-32.543 22.191-.054.02-7.402-4.914-16.328-10.973m29.164-7.195c1.531-.617 2.852-1.183 2.934-1.262.187-.175-2.254-5.656-4.852-10.906-1.117-2.262-2.039-4.16-2.047-4.219-.004-.058.446-.464 1.004-.906 4.348-3.441 6.723-7.125 7.184-11.137.133-1.164.101-1.773-.168-3.414-.3-1.843-.395-2.105-1.219-3.484-1.71-2.852-4.597-4.543-9.347-5.477-4.625-.91-15.926-.683-22.524.457l-1.059.18v3.676c0 3.082.04 3.676.243 3.676.136 0 .77-.11 1.414-.242 5.902-1.235 15.96-1.852 19.39-1.192 2.868.55 4.727 1.57 5.614 3.07.422.711.472.954.46 2.223-.015 2.09-.675 3.457-2.722 5.645-2.3 2.464-7.676 5.707-16.25 9.812-3.133 1.5-7.055 3.59-7.211 3.84-.047.074.715 1.469 1.695 3.098 1.22 2.027 1.844 2.918 1.985 2.832.11-.075 1.078-.707 2.144-1.407 1.07-.703 3.961-2.355 6.426-3.671 2.465-1.32 4.988-2.692 5.61-3.047.617-.36 1.203-.649 1.296-.649.434 0 4.98 9.785 6.332 13.633.082.23.188.262.492.145.211-.086 1.641-.657 3.176-1.274M62.035 58.285c3.656-4.988 10.278-9.422 17.715-11.863 1.047-.344 1.902-.66 1.902-.7 0-.038-.465-.652-1.03-1.359a26 26 0 0 1-1.794-2.59l-.762-1.3-.816.316c-1.582.621-2.965 1.219-3.926 1.7l-.972.488v-2.188h-9.13v-4.7h14.372v-5.03l-3.086-.043-3.086-.047 1.566-.653c.86-.359 1.563-.683 1.563-.722 0-.04-.457-.88-1.012-1.867-1.059-1.875-2.535-5-2.539-5.36 0-.164.977-.21 4.313-.21h4.308v-5.204H40.742v5.2l4.719.042 4.723.047-.672 1.004c-1.422 2.125-3.91 6.14-3.848 6.207.04.035.98.406 2.094.824l2.027.758-3.34.008-3.336.008v5.039h14.2v4.7h-8.961v1.257c0 .691-.032 1.258-.067 1.258-.039 0-.742-.309-1.566-.688a76 76 0 0 0-2.93-1.265l-1.437-.582-.254.382c-.637.961-2.285 3.094-2.91 3.766-.38.41-.66.77-.621.8.035.036.71.27 1.503.524 3.707 1.196 8.672 3.547 11.946 5.656 1.765 1.137 4.789 3.442 4.789 3.649 0 .055-.27.5-.598.984l-.601.883 1.488.684c.816.375 1.941.894 2.5 1.156.558.258 1.094.48 1.191.488.098.008.66-.648 1.254-1.457m0 0"/>
    <path fill="#f9f9f9" d="M59.938 51.543c-.211-.336-3.434-2.93-5.083-4.086-.93-.656-1.761-1.25-1.851-1.328-.086-.074 3.027-.137 6.918-.137H67l-1 .703a48 48 0 0 0-4.746 3.88c-.668.624-1.258 1.062-1.316.968m3.285-24.938v-4.449l3.004.012 3 .008-.93.426c-.512.234-1.258.57-1.66.746-.63.273-.715.37-.617.695.242.809 1.953 4.145 2.84 5.543l.933 1.469h-6.57Zm-12.168 4.379c0-.46 2.59-5.64 3.515-7.027.23-.348.39-.656.352-.684-.035-.03-.578-.265-1.207-.527-.625-.258-1.14-.5-1.14-.531s1.066-.059 2.366-.059h2.368v8.899h-3.13c-1.718 0-3.124-.032-3.124-.07m0 0"/>
</svg>
