<svg xmlns="http://www.w3.org/2000/svg" width="120" height="120" viewBox="0 0 120 136">
    <path stroke="red" stroke-width=".004" d="m-80.264 16 .102.15.132.167.06.067.092.104.052.054.109.111.053.048.106.097.017.014.088.068.042.033-.445.208-.371.222-.305.236-.244.247-.19.257-.144.265h1.942v1.175h-2.163v1.097h-1.211v-1.097h-2.787v1.112H-86.6v-1.112h-2.155v-1.175h2.155v-2.333h1.272v2.333h2.902l.136-.435.206-.426.165-.233.126-.178.39-.389.424-.303.081-.058.603-.31.02-.01.012-.006M-79 21.718l-.554.249-.318.169-.194.103-.467.289-.005.003-.433.31-.395.326-.361.339h2.438v1.159h-3.359l-.079.138-.046.08-.116.22-.107.221-.097.222-.087.226-.077.228-1.333-.215.074-.19.08-.191.082-.188.088-.186.094-.184.024-.043.076-.138h-4.57v-1.16h2.422l-.383-.349-.422-.325-.457-.296-.013-.007-.471-.256-.098-.043-.41-.182-.335-.118-.08-.027-.044-.016-.033-.012-.02-.006-.014-.005.148-.143.155-.17.155-.187.145-.194.127-.19.1-.175.106.04.168.066.265.119.058.03.2.1.253.14.247.151.242.16v-.552h2.07v-1.167h1.205v1.167h2.178v.445l.216-.141.224-.137.23-.134.238-.129.246-.124.152-.07.026-.013.035-.015.027-.013.015-.007.085.168.114.183.134.185.145.177.148.158.11.098.033.029m-6.749.633.176.177.035.036.201.222.191.23.051.068.13.173.17.249h1.46l.192-.24.155-.182.044-.052.208-.228.22-.224.053-.052.175-.167.242-.214h-1.31v.937h-1.204v-.937h-1.41l.221.204M-79 6.403h-4.277v3.065h3.236v1.411h-3.236v2.701h3.752V15h-8.91v-1.42h3.775v-2.7h-3.346V9.47h3.346V6.402H-89V5h10v1.403M-71 2l-3.8 22.803L-75 26l-7.52 5.013L-84 32l-7.225-4.816L-93 26l-.2-1.197L-97 2h26m-24.003 1.998L-93 16.291l1.382 8.48v.032h.007l2.61 1.784L-84 30.003-78.141 26l1.752-1.197h.007v-.031L-75 16.29l.21-1.291 1.793-11.002Zm0 0" transform="matrix(4.29492 0 0 4.26451 420.902 -4.265)"/>
    <path fill="#f9f9f9" d="M43.867 112.523c-8.926-6.054-16.258-11.035-16.293-11.07-.035-.031-3.285-19.68-7.219-43.664-3.937-23.984-7.203-43.89-7.261-44.234l-.106-.63h47.094c43.23 0 47.094.02 47.094.27 0 .309-14.34 87.844-14.434 88.106-.05.136-32.176 22.043-32.547 22.195-.054.02-7.402-4.914-16.328-10.973m19.871-6.816c.215-.578.793-1.863 1.293-2.855l.903-1.805h14.535v-5.203H70.266l.41-.442c1.531-1.648 5.5-4.336 8.625-5.847 1.215-.59 2.246-1.106 2.293-1.149.043-.047-.309-.488-.785-.98-.746-.774-1.637-1.965-2.297-3.09-.176-.297-.215-.297-.95-.02-.421.16-1.738.856-2.93 1.543-1.19.692-2.19 1.258-2.222 1.258-.031 0-.058-.379-.058-.84v-.84h-9.286l-.093-4.953-2.664-.046-2.664-.043v5.043h-8.942l-.101 2.164-.93-.598c-1.063-.68-4.438-2.336-5.074-2.488-.383-.094-.512.02-1.184 1.035a20.5 20.5 0 0 1-1.84 2.277c-.594.629-1.05 1.164-1.011 1.192.035.03.675.261 1.417.515 2.926 1.008 6.415 3.012 9.122 5.254l1.175.973-10.21.086v5.199h9.718c5.348 0 9.719.027 9.719.058 0 .036-.367.844-.82 1.805-.739 1.574-1.246 2.82-1.157 2.848l2.825.484a500 500 0 0 1 2.894.492c.059.012.281-.453.492-1.027M54.434 81.41v-2.35h11.832v4.699h5.41v-4.7h9.3v-5.203h-4.058c-2.23 0-4.059-.058-4.059-.125.004-.214.672-1.234 1.325-2.007.855-1.024 2.175-1.977 4.129-2.993l1.656-.863-.977-.847a16.4 16.4 0 0 1-1.82-1.95c-.465-.605-.918-1.101-1.008-1.11-.293-.015-2.852 1.368-3.914 2.114-1.32.93-3.195 2.906-3.941 4.156-.32.536-.786 1.547-1.036 2.254l-.457 1.286-6.191.046-6.191.043v-9.906h-5.579v9.902H39.56v5.204h9.296v4.699h5.579Zm25.02-24.762v-3.101h-16.06V42.3h13.86v-6.21h-13.86V23.164h18.258v-6.21H38.543v6.21h18.598V36.09H42.76l.094 6.125 7.141.043 7.145.043v11.246H40.91v6.207h38.542Zm0 0"/>
    <path fill="#f9f9f9" d="M55.871 94.629c-.465-.656-1.52-1.899-2.344-2.762l-1.5-1.562h5.618v4.027h5.41v-4.027h5.039l-1.887 1.894c-1.035 1.043-2.184 2.293-2.55 2.77l-.673.875-3.132-.008-3.137-.008Zm0 0"/>
</svg>
