<svg xmlns="http://www.w3.org/2000/svg" width="120" height="120" viewBox="0 0 120 136">
    <path fill="red" stroke="red" stroke-width=".004" d="M61-26.411h-4.266v.577h3.172v4.292h-3.172v.524h4.004v1.147h-4.004V-19h-1.34v-.871h-4.077v-1.147h4.076v-.524h-3.251v-4.292h3.251v-.577H51v-1.148h4.393v-1.44h1.341v1.44H61v1.148m0 9.393-.512.536-.067.098-.323.472-.284.596-.194.611-.121.618-.065.616h1.34v1.198h-1.37v1.078l.15-.035.148-.03.014-.004.133-.027.147-.026.146-.024.147-.022.028.1.013.049.06.161.072.168.082.165.088.158.077.126.011.016-.538.118-.243.062-.29.074-.52.15-.494.164-.462.173-.418.177-.41-.459-.25-.28-.104-.115v.751h-1.218v-2.668h-2.239v-.015l-.007-.231-.007-.242-.01-.24-.01-.238-.014-.236-.02-.236-.174-.064-.044.04-.008.007-.114.103-.17.158-.162.155-.005.005-.16.16-.147.151-.055.06-.073.08-.889-.456-.185-.095.189-.14.188-.133.185-.13.183-.126.179-.119.169-.109.004-.002-.218-.105-.21-.106-.203-.106-.188-.103-.172-.1-.152-.095.433-.579.181-.243.006-.008.014-.02.017-.021.05.035.131.092.182.114.03.018.058.033.18.104.257.138.271.141.278.14-.074-.338-.04-.183-.001-.002-.15-.457-.19-.385-.144-.182-.092-.117-.288-.202-.345-.091-.06.025-.054.093-.047.155-.028.137-.014.07-.037.256-.019.178-.006.053-.004.037-.003.02v.006l-.11-.146-.12-.149-.124-.143-.127-.132-.045-.042-.01-.008-.069-.064-.121-.09.11-.52.09-.238.06-.162.192-.288.233-.179.275-.075.173.013.145.011.302.1.491.163.177.152.414.355.42.715.035.107.25.779.177 1.02.023.25.079.864h1.127v-4.361h1.218v4.36h1.256l.068-.773.135-.779.221-.77.26-.59.068-.154.455-.709.484-.53.047-.052.03-.033.019-.02.013-.014.007-.008.12.146.15.162.169.165.176.159.173.14.06.045.098.07m-.756 7.715v1.182h-6.521l-.004-.072-.005-.078-.01-.15-.013-.145-.028-.29-.015-.143-.25-.08-.15.152-.016.016-.168.182-.165.189-.158.188-.128.159-.018.023-.128.17-.374-.193-.684-.351h-.001l.054-.045.135-.11.188-.157.186-.154.183-.151.045-.037.023-.02.11-.09.12-.095.024-.02.018-.015.008-.006.003-.003-.23-.1-.22-.099-.209-.099-.194-.099-.176-.097-.158-.097.146-.203.341-.472.008-.01.009-.013.02-.028.099-.137.005-.007.181.112.097.054.119.068.242.128.262.133.276.135.077.037.048.023.157.076-.037-.1-.108-.287-.012-.024-.163-.317-.21-.287-.118-.108-.128-.116-.288-.151-.335-.07-.057.018-.052.071-.047.117-.035.131-.007.03-.039.198-.003.018-.002.017-.021.14-.006.033-.002.014v.01l-.106-.134-.117-.137-.122-.134-.056-.055-.07-.07-.064-.056-.059-.052-.118-.088.108-.44.069-.156.071-.162.01-.022.19-.244.229-.151.267-.062.304.023.667.187.087.025.223.15.139.094.222.15.44.55.317.673.194.675.028.097.149.84h5.507m-3.055-1.328.155-.05.048-.014.205-.062.21-.06.21-.058.214-.056v-1.342h-1.24v1.71l.198-.068M68.999-32 65.2-9.197 65-8l-7.52 5.013L56-2l-7.225-4.816L47-8l-.2-1.197L43-32h26m-11.656 7.838h1.309v-.655h-1.919v.655h.61m-12.347-5.84L47-17.709l1.382 8.48v.032h.007L51-7.413l5 3.416L61.859-8l1.752-1.197h.007v-.031L65-17.71l2.003-12.293H44.997m8.47 5.185v.655h1.926v-.655h-1.927m5.187 2.265v-.654h-1.919v.654h1.919m-5.187 0h1.927v-.654h-1.927Zm0 0" transform="matrix(4.29492 0 0 4.26451 -180.387 140.729)"/>
    <path fill="#f9f9f9" d="M44.207 112.75c-8.742-5.93-16.07-10.906-16.293-11.062-.387-.27-.691-2.04-7.559-43.895a107244 107244 0 0 0-7.261-44.238l-.106-.63h47.094c43.43 0 47.094.02 47.094.274 0 .309-14.34 87.84-14.438 88.106-.047.136-32.172 22.039-32.543 22.191-.054.02-7.25-4.812-15.988-10.746m2.164-7.715c.79-.95 1.707-1.98 2.043-2.3.535-.508.668-.56 1.074-.415.457.157.469.196.621 2.047l.153 1.883h28.176v-5.203H54.805l-.285-1.637c-.965-5.605-2.907-9.383-5.817-11.332-1.984-1.332-4.902-2.066-6.75-1.7-1.242.247-2.566 2.071-3.07 4.231l-.211.895 1.5 1.539c.824.848 1.543 1.562 1.598 1.59.054.023.222-.574.37-1.332.352-1.77.598-2.028 1.657-1.754 1.851.484 3.266 1.812 4.324 4.078.313.66.566 1.281.566 1.375 0 .273-.734-.047-3.453-1.496-1.379-.734-2.53-1.34-2.558-1.34-.047 0-2.473 3.305-2.668 3.64-.137.235 1.156.997 3.363 1.985l1.547.691-2.262 1.829c-1.242 1.004-2.238 1.89-2.21 1.968.034.102 4.226 2.422 4.464 2.473.016 0 .676-.77 1.461-1.715m23.848-5.734a64 64 0 0 1 8.39-2.512c.977-.215 1.774-.46 1.77-.543 0-.082-.313-.754-.695-1.492-.38-.738-.786-1.629-.899-1.977-.23-.715-.05-.703-2.597-.187-.633.129-1.184.234-1.227.234-.04 0-.07-.984-.07-2.183v-2.184h5.746v-5.203h-5.625l.117-1.285c.336-3.703 1.68-7.656 3.433-10.114a32 32 0 0 1 1.977-2.421l1.188-1.317-.5-.351c-.278-.192-1.227-1.059-2.114-1.926l-1.605-1.578-1.153 1.23c-3.636 3.88-5.945 9.43-6.449 15.496-.058.739-.148 1.551-.195 1.805l-.09.46h-5.215V64.626H59v18.629h-4.547l-.094-.711a92 92 0 0 1-.273-2.563c-.45-4.703-1.492-8.605-2.98-11.117-.72-1.222-1.2-1.797-2.239-2.687-1.234-1.055-1.449-1.172-3.191-1.7-1.492-.453-2.067-.55-2.88-.496-2.062.149-3.19 1.583-4 5.06l-.265 1.144.824.734a15.5 15.5 0 0 1 1.547 1.668c.399.516.782.934.848.934.07 0 .172-.434.227-.97.16-1.515.457-2.69.765-3.034.262-.293.336-.297 1.113-.067 1.153.34 2.465 1.668 3.23 3.274.524 1.093 1.49 4.312 1.34 4.465-.085.09-3.523-1.754-4.85-2.598l-1.145-.727-1.461 1.93c-.801 1.062-1.43 1.953-1.395 1.98.266.204 1.61.954 3.024 1.688l1.68.871-2.27 1.57c-1.25.864-2.242 1.614-2.203 1.672.035.055 1.09.63 2.343 1.278l2.282 1.171 2.02-1.96c2.464-2.399 2.64-2.43 2.804-.516.059.7.11 2.09.11 3.09v1.82H59v11.414h5.395l.05-1.527.047-1.528 1.5 1.696c.824.933 1.574 1.695 1.668 1.695s1.246-.406 2.559-.906m-6.824-41.39v-1.849h17.242v-5.035H63.395v-2.015h13.523V30.55H63.395v-2.352h18.257v-5.035H63.395v-6.21h-5.918v6.21H38.543V28.2h18.934v2.352H43.445v18.46h14.032v2.016H39.895v5.035h17.582v3.692h5.918Zm0 0"/>
    <path fill="#f9f9f9" d="M64.406 91.996v-3.539h5.25l-.047 2.79-.046 2.784-2.196.63a148 148 0 0 0-2.578.75l-.383.12Zm-1.011-48.859v-1.34h8.113v2.683h-8.113Zm0-6.879v-1.344h8.113v2.684h-8.113Zm-14.032 0v-1.344h8.114v2.684h-8.114Zm0 6.879v-1.34h8.114v2.683h-8.114Zm0 0"/>
</svg>
