<svg xmlns="http://www.w3.org/2000/svg" width="120" height="120" viewBox="0 0 120 136">
    <path fill="red" stroke="red" stroke-width=".004" d="m29.745-17.153-.363.166-.37.2-.34.208-.025.015-.261.18-.086.059-.315.245-.272.243h1.27v3.665h-2.146v.485h2.606v1.03H27.97v.748h1.186v1.001H27.97v.9h-1.148v-.9h-1.307v.9h-1.163v-.9h-.914v-1h.914v-.748h-1.193v-1.03h2.545v-.486H23.59v-3.665h1.322l-.335-.223-.025-.016-.357-.25-.078-.058-.265-.195-.32-.247-.287-.232-.244-.21.882-.706.02-.016.012-.01.243.24.29.261.129.108.195.164.344.273.351.267.344.25-.057.053-.593.547h2.243l-.78-.541-.005-.005h.001l.337-.308.385-.301.416-.289.434-.269.436-.242.045-.022.311-.153.02-.01.047-.023.017.023.079.11.11.145.121.15.125.151.125.142.067.073.033.033.018.02m.702-.824h1.156v4.157l.126-.374.052-.142.079-.215.136-.338.142-.314.148-.286.132-.217.01-.018.009-.013.004-.007.068.186.085.211.098.223.076.162.028.06.105.205.099.177-.232.363-.042.066-.26.51-.24.57-.215.609-.034.114-.15.509-.149.615h1.005v1.178h-1.08V-8h-1.156v-1.986h-.838v-1.178h.838v-.4l-.195-.26-.242-.342-.083-.122-.177-.26-.248-.372-.208-.317-.138-.213.645-.88.005-.006.022-.03.013.03.063.148.089.2.102.218.11.231.119.24.123.241v-4.919M31.262-29v4.176l.149-.144.147-.139.146-.134.145-.13.143-.125.11-.095.019-.015.008-.007.006-.004v-.001l.11.152.138.189.156.207.162.208.067.081.09.11.142.155-.232.176-.315.239-.545.482-.526.535-.477.556-.014.016-.17.23-.27.366-.376.605-.057-.022-1.16-.448.166-.275.177-.276.133-.196.054-.08.196-.274.203-.272.211-.268V-29h1.264m-4.135.039.035.201.02.088.031.131.062.229.073.227.079.215.077.183.004.007.002.005-.308-.013-.307-.008-.271-.004h-.275l-.093.002h-.111l-.136.008-.086.003-.068.013-.052.023-.035.037-.02.053-.007.07v3.73h3.14v1.209H23v-1.21h1.455v-3.759l.012-.313.039-.263.07-.212.002-.006.112-.178.156-.142.069-.037.137-.074.242-.083.282-.058.324-.039.366-.022.409-.01.44-.003h.012m5.054 6.641.09.156.11.182.122.193.13.191.126.174.009.011.109.133-.11.076-.338.235-.452.362-.14.127-.299.268-.41.41-.36.41-.295.392-.036-.016-1.181-.492.412-.507.421-.465.041-.045.496-.5.057-.052.037-.033.423-.389.523-.437.418-.312.048-.035.024-.02.014-.008.007-.007.004-.002m-3.745 2.71h-5.168v-1.208h5.168v1.209M41-32 37.2-9.198 37-8l-7.52 5.013L28-2l-7.225-4.816L19-8l-.2-1.197L15-32h26M25.704-14.967h-.922v.57h.922v-.57m-8.707-15.035L19-17.709l1.382 8.48v.032h.007L23-7.413l5 3.416L33.859-8l1.752-1.197h.007v-.031L37-17.71l.21-1.29 1.793-11.002H16.997m10.837 15.605v-.57h-.997v.57h.997m0 1.355v-.585h-.997v.585h.997m-3.052 0h.922v-.585h-.922v.585m.733 2.386v.747h1.307v-.747Zm0 0" transform="matrix(4.29492 0 0 4.26451 -60.129 140.729)"/>
    <path fill="#f9f9f9" d="M43.867 112.523c-8.926-6.054-16.258-11.035-16.293-11.07-.035-.031-3.285-19.68-7.219-43.664-3.937-23.984-7.203-43.89-7.261-44.234l-.106-.63h47.094c43.14 0 47.094.024 47.094.27 0 .305-14.344 87.844-14.438 88.11-.047.132-32.164 22.035-32.543 22.191-.054.02-7.402-4.914-16.328-10.973m31.867-10.05v-4.278h4.563v-5.203h-2.121c-1.946 0-2.117-.027-2.035-.297.046-.16.168-.672.27-1.132.097-.461.526-1.934.952-3.274 1.125-3.55 2.469-6.605 3.739-8.504l.597-.898-1.023-2.137c-.567-1.176-1.078-2.348-1.145-2.602-.062-.253-.18-.503-.254-.55-.312-.192-1.879 2.914-2.968 5.879l-.559 1.511-.008-8.52-.008-8.515h-5.238l-.086 20.54-1.18-2.552c-.652-1.398-1.222-2.546-1.27-2.543-.151.004-2.874 3.805-2.874 4.008s2.305 3.692 4.25 6.426c1.023 1.438 1.156 1.715 1.156 2.39v.77h-3.547v5.203h3.547v8.559h5.242Zm-26.203 2.265v-1.843h5.41v3.69h5.07v-3.69h5.243v-4.532h-5.242V95.34h6.426v-4.531h-11.16V88.96h9.128V73.19l-2.66-.046-2.664-.043 1.184-.95c1.797-1.437 3.879-2.765 5.695-3.636.898-.434 1.64-.844 1.648-.91.008-.106-.937-1.293-2.636-3.305l-.368-.434-1.296.637c-1.649.808-4.016 2.234-5.73 3.453-1.45 1.027-3.4 2.695-3.4 2.902 0 .07.72.625 1.598 1.227l1.598 1.098h-9.277l1.394-1.274 1.39-1.27-1.816-1.355c-2.136-1.594-3.18-2.441-5.054-4.11-.758-.671-1.422-1.222-1.48-1.222-.06 0-.989.7-2.063 1.55l-1.957 1.556.82.734c.938.844 4.73 3.687 6.211 4.652l1 .657-2.73.043-2.735.046v15.77h9.129v1.848H39.219v4.53h5.07v3.024h-3.887v4.532h3.887v3.69h5.242Zm22.563-46.566c2.05-2.527 6.851-6.86 8.824-7.953.293-.164.285-.203-.113-.73-.618-.817-2.504-3.657-2.582-3.887-.188-.559-6.141 4.445-9.22 7.753-2.058 2.211-3.605 4.079-3.483 4.208.132.136 4.851 2.156 5.09 2.175.113.008.78-.695 1.484-1.566M62.043 54.55v-2.684H39.727v5.371h22.316Zm8.516-6.848c2.504-3.734 6.601-8.101 9.761-10.402.727-.528 1.32-1.02 1.325-1.09.003-.066-.43-.645-.965-1.277a42 42 0 0 1-1.817-2.34c-.465-.657-.898-1.196-.96-1.2-.063-.003-.919.715-1.903 1.598l-1.79 1.602v-17.64h-5.577v23.773l-.692.914c-2.02 2.66-4.343 6.132-4.191 6.257.176.149 4.836 1.922 5.082 1.938.184.012.79-.742 1.727-2.133m-6.489-5.738v-2.688H50.547V22.988l.465-.183c.3-.117 1.64-.153 3.812-.106 3.016.07 3.332.051 3.227-.191-.438-.996-1.086-2.988-1.336-4.11l-.297-1.328-2.727.098c-4.64.168-6.718.707-7.82 2.031-.976 1.18-.965 1.082-1.031 10.973l-.059 9.105h-6.238v5.371H64.07Zm0 0"/>
    <path fill="#f9f9f9" d="M49.531 96.852V95.34h5.41v3.023h-5.41Zm5.746-12.926V82.75h4.059v2.352h-4.059Zm-8.957 0V82.75h3.887v2.352H46.32Zm0-5.789v-1.094h3.887v2.184H46.32Zm8.957 0v-1.094h4.059v2.184h-4.059Zm0 0"/>
</svg>
