<svg xmlns="http://www.w3.org/2000/svg" width="120" height="120" viewBox="0 0 120 136">
    <path fill="red" stroke="red" stroke-width=".004" d="m61 37.814-.379.803-.088.295-.175.587-.168.922-.055.539-.04.388-.041.894-.001.134-.008.632-.001.06v3.057h-3.845l.038.1.038.1.038.1.039.098.038.093.038.087L55.16 47h-.001l-.062-.14-.064-.142-.063-.147-.062-.148-.06-.15-.056-.148H51.2V45.03h7.637v-.775h-1.223v.623h-1.17v-.623H55.12v.623h-1.193v-.623h-2.47v-2.882h7.44l.016-.175.022-.238.03-.334.107-.752.148-.743.06-.22.11-.411.024-.085.247-.672.229-.459.035-.071.019-.036.011-.025.007-.014.005-.009.136.117.17.13.19.133.194.124.183.105.037.018.122.058m-2.11.152-.102.054-.095.072-.083.095-.066.121-.044.151-.015.184v2.555h-1.2v-.814H55.32v-.996h1.964v-1.095l-1.988.193h-.002l-.019.003h-.014l-.003.001.003-.157v-.17l-.004-.173-.006-.168-.01-.153-.013-.13.068-.008 1.046-.134.81-.112.192-.03.371-.059.372-.073.235-.063.046-.018.109-.042.008.032.03.12.057.174.016.043.055.14.08.176.002.003.077.146.005.008.045.068.028.04.01.016m-4.508-.77.256.174.14.227.02.034.085.357.024.464v2.685h-1.208v-.753h-2.393v-.996H53.7v-.928l-.006-.137-.02-.098-.041-.063-.068-.038-.1-.017-.14-.004h-.91l-.122.012-.068.033-.022.01-.064.089-.044.144-.03.212-.016.189-.003.035-.001.024-.003.027-.001.016-.137-.087-.165-.085-.184-.078-.19-.071-.164-.052-.025-.008-.175-.045.082-.479.118-.352.004-.012.171-.262.23-.172.297-.094.288-.023.034-.002.053-.004h1.238l.499.031.258.068.11.03m4.455 5.53.002-.115.005-.236h-1.231v.875h1.223v-.523m1.218 5.368.12.146.15.162.169.165.176.159.173.14.158.114-.162.17-.065.067-.285.299-.39.57-.284.596-.194.611-.121.618-.065.616h1.34v1.198h-1.37v1.078l.15-.035.148-.03.147-.031.147-.026.146-.024.052-.008.035-.005.027-.004.02-.003.013-.002.041.149.06.161.072.168.082.165.009.016.08.142.087.142-.476.104-.062.014-.533.136-.52.15-.494.164-.462.173-.418.177-.41-.459-.354-.395v.751h-1.218v-2.668h-2.239l-.007-.246-.005-.185-.001-.048-.001-.01-.01-.24-.01-.237-.014-.236-.02-.236-.174-.064-.044.04-.122.11-.17.158-.167.16-.16.16-.147.151-.128.14-1.074-.551.189-.14.188-.133.136-.096.049-.035.183-.125.179-.119.127-.081.022-.015.012-.007.008-.006.004-.002-.218-.105-.21-.106-.203-.106-.188-.103-.172-.1-.152-.095.014-.02.6-.802.006-.008.014-.018.01-.013.007-.01.181.127.212.132.238.137.257.138.271.141.278.14-.074-.338-.04-.183-.15-.459-.191-.385-.236-.3-.288-.2-.345-.092-.06.025-.054.093-.047.155-.042.208-.037.255-.019.178-.006.053v.003l-.007.06-.045-.06-.066-.086-.119-.149-.124-.143-.127-.132-.045-.042-.079-.072-.121-.09.066-.31.044-.21.15-.4.192-.288.112-.086.121-.093.275-.075.318.024.434.144.36.119.59.507.21.358.21.357.285.886.14.805.037.214.102 1.115h1.127v-4.361h1.218v4.36h1.256l.068-.773.135-.779.221-.77.328-.744.199-.31.256-.399.484-.53.047-.052.03-.033.019-.02.013-.014.007-.008m.19 8.602v1.182h-6.521l-.009-.15-.01-.15-.013-.145-.008-.09-.02-.2-.015-.143-.25-.08-.15.152-.016.016-.168.182-.063.072-.102.117-.158.188-.146.182-.128.17-1.06-.544.138-.113.052-.043.188-.156.186-.154.183-.151.045-.037.133-.11.162-.13.008-.006.003-.003-.23-.1-.22-.099-.074-.035-.135-.064-.194-.099-.176-.097-.158-.097.482-.667.005-.008.008-.01.009-.013.02-.028.025-.035.074-.102.005-.007.181.112.097.054.064.037.055.031.242.128.262.133.276.135.125.06.157.076-.145-.387-.012-.024-.078-.152-.085-.165-.21-.287-.246-.224-.288-.151-.117-.025-.218-.046-.057.019-.052.071-.047.117-.042.16-.039.199-.003.018-.002.017-.015.097-.006.043-.006.033-.002.014v.01l-.106-.134-.117-.137-.122-.134-.126-.124-.064-.057-.059-.052-.118-.088.108-.44.069-.156.08-.184.19-.244.23-.151.203-.047.064-.015.199.015.105.008.754.212.223.15.36.244.44.55.318.673.06.211.13.454.032.107.149.84h5.507m-3.055-1.328.155-.05.048-.014.03-.009.175-.053.21-.06.21-.058.214-.056v-1.342h-1.24v1.71l.198-.068M68.999 34l-3.8 22.803L65 58l-7.52 5.013L56 64l-7.225-4.816L47 58l-.2-1.197L43 34h26m-24.003 1.998L47 48.291l1.382 8.48v.032h.007L51 58.587l5 3.416L61.859 58l1.752-1.197h.007v-.031L65 48.29l2.003-12.293H44.997m8.931 6.378H52.66v.875h1.27v-.875m1.192.632v.243h1.322v-.875H55.12Zm0 0" transform="matrix(4.29492 0 0 4.26451 -180.387 -140.729)"/>
    <path fill="#f9f9f9" d="M44.207 112.75c-8.742-5.93-16.07-10.906-16.293-11.062-.387-.27-.695-2.07-7.644-44.395a36280 36280 0 0 1-7.25-44.242c0-.07 21.183-.125 47.078-.125 43.414 0 47.078.02 47.078.273 0 .309-14.34 87.84-14.438 88.106-.047.136-32.172 22.039-32.543 22.191-.054.02-7.25-4.812-15.988-10.746m2.164-7.715c.79-.95 1.707-1.98 2.043-2.3.535-.508.668-.56 1.074-.415.457.157.469.196.621 2.047l.153 1.883h28.176v-5.203H54.805l-.285-1.637c-.965-5.605-2.907-9.383-5.817-11.332-1.984-1.332-4.902-2.066-6.75-1.7-1.242.247-2.566 2.071-3.07 4.231l-.211.895 1.5 1.539c.824.848 1.543 1.562 1.598 1.59.054.023.222-.574.37-1.332.352-1.77.598-2.028 1.657-1.754 1.851.484 3.266 1.812 4.324 4.078.313.66.566 1.281.566 1.375 0 .273-.734-.047-3.453-1.496-1.379-.734-2.53-1.34-2.558-1.34-.047 0-2.473 3.305-2.668 3.64-.137.235 1.156.997 3.363 1.985l1.547.691-2.262 1.829c-1.242 1.004-2.238 1.89-2.21 1.968.034.102 4.226 2.422 4.464 2.473.016 0 .676-.77 1.461-1.715m23.848-5.734a64 64 0 0 1 8.39-2.512c.977-.215 1.774-.46 1.77-.543 0-.082-.313-.754-.695-1.492-.38-.738-.786-1.629-.899-1.977-.23-.715-.05-.703-2.597-.187-.633.129-1.184.234-1.227.234-.04 0-.07-.984-.07-2.183v-2.184h5.746v-5.203h-5.625l.117-1.285c.336-3.703 1.68-7.656 3.433-10.114a32 32 0 0 1 1.977-2.421l1.188-1.317-.5-.351c-.278-.192-1.227-1.059-2.114-1.926l-1.605-1.578-1.153 1.23c-3.636 3.88-5.945 9.43-6.449 15.496-.058.739-.148 1.551-.195 1.805l-.09.46h-5.215V64.626H59v18.629h-4.547l-.094-.711a92 92 0 0 1-.273-2.563c-.45-4.703-1.492-8.605-2.98-11.117-.72-1.222-1.2-1.797-2.239-2.687-1.234-1.055-1.449-1.172-3.191-1.7-1.492-.453-2.067-.55-2.88-.496-2.062.149-3.19 1.583-4 5.06l-.265 1.144.824.734a15.5 15.5 0 0 1 1.547 1.668c.399.516.782.934.848.934.07 0 .172-.434.227-.97.16-1.515.457-2.69.765-3.034.262-.293.336-.297 1.113-.067 1.153.34 2.465 1.668 3.23 3.274.524 1.093 1.49 4.312 1.34 4.465-.085.09-3.523-1.754-4.85-2.598l-1.145-.727-1.461 1.93c-.801 1.062-1.43 1.953-1.395 1.98.266.204 1.61.954 3.024 1.688l1.68.871-2.27 1.57c-1.25.864-2.242 1.614-2.203 1.672.035.055 1.09.63 2.343 1.278l2.282 1.171 2.02-1.96c2.464-2.399 2.64-2.43 2.804-.516.059.7.11 2.09.11 3.09v1.82H59v11.414h5.395l.05-1.527.047-1.528 1.5 1.696c.824.933 1.574 1.695 1.668 1.695s1.246-.406 2.559-.906M59.37 59.148c1.422-.336 2.613-.632 2.645-.66.03-.027-.141-.543-.38-1.14-.241-.602-.44-1.133-.44-1.188s3.683-.097 8.179-.097h8.18l.093-10.196c.094-10.66.188-12.285.95-16.27.496-2.613 1.363-5.39 2.277-7.312.816-1.723.895-1.976.586-1.976-.277 0-2.074-1.114-3.285-2.032l-1.051-.8-.793 1.625c-1.844 3.785-3.21 9.363-3.723 15.183l-.117 1.3H40.57v12.423h10.653v2.683h5.238v-2.683h5.41v2.683h5.242v-2.683h5.07v3.187H39.388v4.868h15.488l.227.628c.457 1.262 1.347 3.063 1.511 3.063.094 0 1.336-.274 2.758-.606m11.492-30.066c.051-5.7.07-6.031.399-6.59.191-.32.582-.742.863-.93l.516-.347-.48-.828c-.266-.457-.68-1.422-.923-2.145-.36-1.066-.492-1.289-.718-1.195-1.102.45-4.258 1.008-9.493 1.668-1.906.242-3.636.473-3.847.515-.367.079-.38.137-.38 2.176 0 1.153.067 2.094.15 2.094.245 0 6.984-.66 7.84-.77l.8-.101v4.562h-8.45v4.364h8.45v3.527h5.219Zm-15.457-1.43c-.043-5.199-.113-7.261-.273-7.738-.121-.355-.543-.969-.942-1.363-1.093-1.09-2.09-1.262-7.242-1.262-4.867 0-5.488.117-6.625 1.242-.52.52-.816 1.016-1.07 1.793-.426 1.317-.742 2.82-.629 3 .043.074.445.223.887.332.445.11 1.43.496 2.191.86.762.363 1.426.664 1.48.664.051 0 .094-.262.094-.582 0-1.114.348-2.274.766-2.543.52-.34 5.508-.282 5.86.066.156.152.238.942.277 2.645l.054 2.425h-10.34v4.364h10.313v3.191h5.254Zm0 0"/>
    <path fill="#f9f9f9" d="M64.406 91.996v-3.539h5.25l-.047 2.79-.046 2.784-2.196.63a148 148 0 0 0-2.578.75l-.383.12Zm2.707-50.117v-1.762h5.07v3.524h-5.07Zm-10.653 0v-1.762h5.411v3.524h-5.41Zm-10.647 0v-1.762h5.41v3.524h-5.41Zm0 0"/>
</svg>
