<svg xmlns="http://www.w3.org/2000/svg" width="120" height="120" viewBox="0 0 120 136">
    <path stroke="red" stroke-width=".004" d="m61 71.82-.427.61-.301.669-.175.629-.02.075-.102.643-.012.073-.052.703-.013.667v3h-2.69V81h-1.246v-.683H52.17v-.982h3.792v-.446h-3.51l-.191.03-.866-.19.104-.322.112-.329.067-.186.025-.068.026-.072.12-.315.117-.294.113-.264.998.246.01.002.01.003h.002l.005.002h.001l-.042.11-.044.119-.043.125-.044.13-.043.136-.021.072-.021.068h3.001v-.637l-.552.049-1.887.166-.1-.952 1.987-.18.552-.05v-.031l-.007-.142-.027-.113-.051-.085-.084-.06-.121-.034-.166-.011h-1.976l-.168.003h-.027l-.219.007-.226.013-.217.018-.192.023-.151.028-.016-.128-.006-.046-.017-.147-.003-.033-.018-.18-.018-.177-.018-.166-.018-.151.145-.033.185-.023.213-.015.23-.009.24-.004h2.33l.543.032.23.056.186.046.3.179.202.263.115.353.005.055.038.397.28-.026 1.05-.097.09.967-1.42.13v.745h1.672v-2.019l.019-.77.057-.657.015-.173.093-.545.052-.306.24-.834.18-.396.175-.386.434-.61.024-.036.017-.022.01-.015.006-.008.117.116.152.134.173.138.18.13.171.11.026.014.123.064M58.728 71l.058.148.084.165.103.169.115.163.027.034.088.11.003.003.115.12-.784.167-.537.234-.336.327-.18.447-.074.593-.001.047-.011.718h-1.17l.017-.718.005-.244.114-.781.256-.62.447-.476.277-.143.409-.212.844-.218.05-.013.039-.01.026-.007.016-.004m-7.355.616.242-.23.32-.12.41-.036h1.201l.49.03.365.09.255.163.11.167.052.078.086.335.021.367.004.067v1.92h-1.186V72.55l-.005-.13-.02-.092-.042-.063-.069-.037-.102-.018-.142-.005h-.904l-.139.019-.1.071-.072.149-.047.249-.031.373-.017.42-.001.028-.001.03-.001.024v.018l-.14-.087-.167-.083-.187-.078-.195-.069-.161-.05-.028-.009-.172-.046.078-.68.12-.51.002-.004.142-.29.031-.064M59.49 82v5.397h-7.174v-5.344h1.381v.275h4.494V82h1.299m-1.242 5.979.468.085.105.02.419.189.28.288.158.398.007.072.007.075.019.211.015.164v.527H61v1.068h-4.28l.044.096.047.096.047.095.047.092.046.088.046.083-1.43.374-.082-.148-.082-.153-.08-.155-.079-.157-.074-.156-.069-.155H51v-1.068h7.37v-.542l-.013-.144-.046-.112-.088-.082-.142-.056-.206-.031-.282-.01H53.77l-.343.002-.18.004-.196.005-.382.014-.365.022-.322.03-.215.031-.018.002-.007.002-.012.001-.002.001-.023-.192-.049-.394-.028-.19-.028-.18-.022-.125-.006-.033.217-.033.301-.023.225-.01.134-.005.394-.009.405-.004h4.255l.744.032M69 68l-3.8 22.803L65 92l-7.52 5.013L56 98l-7.225-4.816L47 92l-.2-1.197L43 68h26m-24.003 1.998L47 82.291l1.382 8.48v.032h.007L51 92.587l5 3.416L61.859 92l1.752-1.197h.007v-.031L65 82.29l2.003-12.293H44.997m13.193 13.23h-4.494v.558h4.494v-.557m-.846 1.39h-3.648v.518h4.494v-.519h-.846m0 1.336h-3.648v.542h4.494v-.542Zm0 0" transform="matrix(4.29492 0 0 4.26451 -180.387 -285.722)"/>
    <path fill="#f9f9f9" d="M43.867 112.523c-8.926-6.054-16.258-11.035-16.293-11.07-.035-.031-3.285-19.68-7.219-43.664-3.937-23.984-7.203-43.89-7.261-44.234l-.106-.63h47.094c43.43 0 47.094.02 47.094.274 0 .309-14.34 87.84-14.438 88.106-.047.132-32.164 22.035-32.543 22.191-.054.02-7.402-4.914-16.328-10.973m17.496-6.609c1.535-.394 2.86-.781 2.946-.855.09-.079-.07-.555-.38-1.133-.296-.547-.534-1.043-.534-1.098s4.105-.101 9.128-.101h9.13v-4.7h-5.36l-.11-2.16c-.167-3.262-.824-4.555-2.816-5.555-1.945-.976-2.652-1.015-17.074-1-11.953.012-14.86.079-15.129.348-.05.05.047 1.14.215 2.426l.309 2.332.582-.027c.32-.012 2.105-.11 3.964-.22 2.09-.12 7.063-.175 13.016-.14 11.762.063 10.906-.14 10.906 2.582v1.414H38.543v4.7l8.832.011 8.836.012.984 2.016c.575 1.18 1.067 1.984 1.184 1.941.11-.039 1.453-.394 2.984-.793m13.864-30.379V63.953H69.48v1.34H50.375v-1.172h-6.086v22.996h30.938ZM65.422 55.31v-4.45h11.46l.083-8.687c.066-6.8.144-9.106.363-10.617.574-4 1.7-7.157 3.418-9.59.496-.707.906-1.32.906-1.363s-.492-.395-1.093-.778a19 19 0 0 1-2.04-1.558c-.535-.489-1.003-.793-1.082-.707-.078.082-.593.793-1.144 1.578-1.738 2.465-3.066 5.937-3.762 9.816-.543 3.055-.683 5.422-.683 11.543v5.832h-7.102v-2.973l2.324-.199c3.82-.324 3.762-.312 3.762-.883 0-.488-.34-3.738-.394-3.765-.016-.008-.981.082-2.141.199-1.164.117-2.426.219-2.813.227l-.695.007-.113-1.011c-.297-2.598-1.293-3.79-3.735-4.48-1.773-.505-16.996-.442-17.511.07-.117.117.265 4.394.402 4.515.02.016.418-.035.883-.117 1.137-.2 11.375-.398 12.785-.25 1.328.145 1.836.508 1.836 1.328v.543l-5.367.477c-2.953.261-5.395.5-5.43.53-.035.032.043.99.168 2.126l.234 2.066 4.227-.363c2.324-.2 4.66-.406 5.195-.46l.973-.099v2.512h-6.254c-5.316 0-6.254-.035-6.254-.242 0-.133.223-.848.5-1.59l.5-1.348-.629-.164c-.344-.09-1.37-.347-2.277-.574l-1.652-.414-.23.445c-.505.973-2.888 7.582-2.767 7.66.024.016.805.192 1.735.395 1.605.348 2.097.363 9.762.363h8.074v1.68h-16.23v4.363h16.23v2.852h5.578Zm-9.805-28.211c0-5.778-.152-6.77-1.195-7.805-1.125-1.121-1.867-1.25-7.172-1.25-4.031 0-4.652.039-5.324.309-1.45.582-2.254 1.714-2.766 3.89-.207.875-.617 3.582-.617 4.059 0 .023.437.168.973.32.754.211 2.789 1.078 3.609 1.531.055.032.152-.832.215-1.918.234-3.984.164-3.91 3.758-3.91 2.652 0 2.761.016 3.015.375.223.313.262 1.063.262 4.781v4.41h5.242Zm10.688 2.234c.074-2.176.156-2.746.527-3.805.777-2.222 2.383-3.367 5.691-4.062.883-.188 1.707-.371 1.829-.41.152-.051-.02-.352-.516-.914-.582-.66-1.34-1.903-1.93-3.157-.015-.027-1.004.207-2.199.524-5.543 1.465-7.715 3.746-8.418 8.844-.144 1.062-.266 2.742-.262 3.734v1.805h5.192Zm0 0"/>
    <path fill="#f9f9f9" d="M50.375 70.414v-1.09H69.48v2.18H50.375Zm0 5.793v-1.008H69.48v2.012H50.375Zm0 5.789v-1.09H69.48v2.18H50.375Zm0 0"/>
</svg>
