<svg xmlns="http://www.w3.org/2000/svg" width="120" height="120" viewBox="0 0 120 136">
    <path stroke="red" stroke-width=".004" d="M-79-18v1.21h-2.496l.048.207.056.2.006.021.077.229.088.232.099.227.106.217-.78.222h2.276v1.194h-3.866l.028.086.06.172.031.085.031.084.03.083h3.954V-8h-4.512v-.98h1.221v-.584h-1.15v-2.37h1.15v-.617h-1.26v-.585l-.165.043-.245.064.058.09.061.087.063.082.062.078v.001l.06.069.06.062-.12.046-.177.069-.288.13-.052.027-.228.12-.27.162-.258.18-.09.071-.06.048-.046.037-.033.026-.017.014.221.318.207.337.193.355.18.371.003.009.162.379.152.404-.591.157h.764v1.177h-3.48l-.23.032-.09-.032-.194-.07-.502-.177.165-.657.056-.17.147-.442.237-.57.016-.031.256-.496.303-.487.332-.448-.267-.187-.282-.174-.296-.16-.208-.096-.089-.042-.013-.006-.325-.128-.19-.063-.05-.016-.034-.011-.025-.01-.024-.007-.016-.005.135-.14.14-.168.138-.188.131-.195.117-.19.016-.029.08-.144.18.07.18.07.345.16.327.175.31.192.294.21.26.213.016.013.27-.214.045-.032.234-.166.29-.183.3-.169.042-.02.269-.135.308-.136.005-.002.006-.003.003-.001-.028-.08-.027-.076-.026-.077-.025-.075-.023-.074-.021-.07h-3.614v-1.195h2.417l-.11-.024-.764-.165.084-.238.084-.235.079-.221.004-.011.084-.226.011-.029.071-.192.08-.214h-2.473V-18H-79m-3.754 1.655-.008-.039-.033-.16.819-.246H-85l-.086.256-.047.15-.036.112-.079.266-.074.264-.067.258-.06.249h3.142l-.114-.22-.104-.225-.09-.227-.078-.224-.061-.214M-80.738-29v4.176l.149-.144.147-.139.146-.134.145-.13.143-.125.062-.052.049-.043.018-.015.008-.007.006-.004v-.001l.11.152.138.189.156.207.162.208.157.191.087.095.02.022.035.038-.547.415-.545.482-.526.535-.477.556-.014.016-.44.596-.37.597-.006.008-.077-.03-1.14-.44.166-.275.177-.276.187-.275.196-.275.203-.272.211-.268V-29h1.264m-4.135.039.035.201.02.088.031.131.062.229.073.227.079.215.045.105.01.024.018.04.004.014.004.007.002.005-.308-.013-.307-.008-.29-.004h-.256l-.093.002h-.111l-.136.008h-.025l-.061.003-.068.013-.052.023-.035.037-.02.053-.007.07v3.73h3.14v1.209H-89v-1.21h1.455v-3.759l.012-.313.039-.263.072-.218.112-.178.156-.142.069-.037.137-.074.242-.083.282-.058.324-.039.084-.005.282-.017.409-.01.44-.003h.012m5.75 7.681-.448.31-.3.242-.152.121-.14.127-.299.268-.41.41-.36.41-.295.392-.036-.016-.357-.148-.824-.344.412-.507.412-.455.01-.01.04-.045.496-.5.517-.474.523-.437.462-.344.004-.003.024-.02.014-.008.007-.007.004-.002.09.156.11.182.122.193.13.191.126.174.094.115.024.03m-4.441 1.67h-5.168v-1.21h5.168v1.21M-71-32l-3.8 22.802L-75-8l-7.52 5.013L-84-2l-7.225-4.816L-93-8l-.2-1.197L-97-32h26m-14.97 21.655-.046-.07-.112-.165-.171-.227-.17.227-.16.235-.065.105-.086.14-.14.255-.129.267-.116.278h1.708l-.11-.278-.12-.267-.135-.255-.084-.14-.063-.105m-9.034-19.657L-93-17.709l1.382 8.48v.032h.007L-89-7.413l5 3.416L-78.141-8l1.752-1.197h.007v-.031L-75-17.71l.21-1.291 1.793-11.002h-22.006m14.57 17.45h-.984v.618h.984v-.617m-.984 1.498h-1.126v.61h2.11v-.61h-.984m0 1.489v.585h.984v-.585Zm0 0" transform="matrix(4.29492 0 0 4.26451 420.902 140.729)"/>
    <path fill="#f9f9f9" d="M43.867 112.523c-8.926-6.054-16.258-11.035-16.293-11.07-.035-.031-3.285-19.68-7.219-43.664-3.937-23.984-7.203-43.89-7.261-44.234l-.106-.63h47.094c43.14 0 47.094.024 47.094.27 0 .305-14.344 87.844-14.434 88.106-.05.136-32.176 22.043-32.547 22.195-.054.02-7.402-4.914-16.328-10.973m36.77-17.687V82.918H63.594l-.344-1.004-.34-1.008h16.543v-5.199l-4.523-.043-4.52-.047 1.184-.316c.648-.172 1.242-.367 1.312-.43.07-.062-.136-.683-.457-1.379C71.99 72.508 71 69.59 71 69.22c0-.035 2.398-.063 5.324-.063h5.328v-5.203H39.56v5.203H50.2l-.52 1.383c-1.1 2.938-1.554 4.324-1.445 4.434.063.062.703.246 1.426.406l1.309.293-4.778.016-4.773.015v5.2l7.805.042 7.8.043.57 1.68-1.945.973c-1.714.859-3.304 1.84-5.043 3.12l-.527.391-.95-.77c-1.675-1.35-6.257-3.8-7.116-3.8-.125 0-.434.36-.688.8-.574.997-1.656 2.473-2.324 3.184-.383.403-.453.559-.273.621 2.632.915 4.546 1.81 6.285 2.934l1.3.844-.93 1.285c-1.093 1.52-2.562 4.078-3.21 5.61-1.102 2.597-2.414 6.984-2.16 7.226.074.07.808.36 1.629.644l1.492.52h16.203v-5.203l-1.309-.012-1.312-.015.93-.266c.511-.145.953-.281.98-.3.031-.02-.258-.821-.64-1.778-.833-2.082-2.196-4.711-3.29-6.348l-.8-1.195.46-.371c1.036-.836 3.54-2.305 4.91-2.871l1.458-.606h5.543v2.516h-4.903v10.238h4.903v2.352h-5.239v4.363h19.61Zm-8.543-36.672c2.097-2.566 6.867-6.86 8.824-7.945.293-.164.285-.203-.113-.73-.618-.817-2.504-3.657-2.582-3.887-.188-.559-6.141 4.445-9.22 7.753-2.058 2.211-3.605 4.079-3.483 4.208.128.132 4.847 2.156 5.082 2.175.101.008.773-.699 1.492-1.574m-10.051-3.613v-2.684H39.727v5.371h22.316Zm8.516-6.848c2.504-3.734 6.601-8.101 9.761-10.402.727-.528 1.32-1.02 1.325-1.09.003-.066-.43-.645-.965-1.277a42 42 0 0 1-1.817-2.34c-.465-.657-.898-1.196-.96-1.2-.063-.003-.919.715-1.903 1.598l-1.79 1.602v-17.64h-5.577v23.773l-.692.914c-2.02 2.66-4.343 6.132-4.191 6.257.176.149 4.836 1.922 5.082 1.938.184.012.79-.742 1.727-2.133m-6.489-5.738v-2.688H50.547V22.988l.465-.183c.3-.117 1.64-.153 3.812-.106 3.016.07 3.332.051 3.227-.191-.438-.996-1.086-2.988-1.336-4.11l-.297-1.328-2.727.098c-4.64.168-6.718.707-7.82 2.031-.976 1.18-.965 1.082-1.031 10.973l-.059 9.105h-6.238v5.371H64.07Zm0 0"/>
    <path fill="#f9f9f9" d="M71.34 88.543v-1.258h4.055v2.516H71.34Zm-4.902 6.379V93.66h8.957v2.52h-8.957Zm4.902 6.293v-1.176h4.055v2.352H71.34Zm-24.422-.797c.496-1.176 1.773-3.445 2.547-4.523l.77-1.07.3.382c1.008 1.277 2.285 3.496 2.883 4.992l.336.848h-7.102Zm7.18-24.958c0-.265 1.382-5.108 1.668-5.843l.18-.46 6.132.011 6.133.016-1.266.402c-.699.223-1.363.402-1.48.406-.117 0-.211.149-.211.328 0 .551.851 3.047 1.445 4.25l.563 1.133H60.68c-5.614 0-6.582-.035-6.582-.242m6.042 10.797c-.35-.426-.636-.848-.636-.945 0-.176 1.156-.465 1.297-.325.039.04.05.516.023 1.055l-.05.984Zm0 0"/>
</svg>
