<svg xmlns="http://www.w3.org/2000/svg" width="120" height="120" viewBox="0 0 120 136">
    <path fill="red" stroke="red" stroke-width=".004" d="m89-60.578-.133.32-.126.36-.115.39-.03.116-.072.283-.084.392v.004l-.068.376-.308-.106-.517-.178.07-.388.076-.383.005-.028.094-.414.105-.403.118-.374.049-.123.08-.205.765.322.04.017.032.014.019.008m-1.658-.153-.006.313.002.347.01.37.014.309.002.067.021.372.025.355h-.005l-.73.092-.028-.353-.027-.37-.01-.163-.013-.21-.02-.363-.01-.343-.005-.308.478-.07.264-.04.017-.002.013-.002h.008m-1.181.33.03.255.045.294.057.317.029.142.037.185.073.324.077.308-.007.002-.486.114-.226.053-.077-.303-.076-.317-.073-.321-.009-.045-.055-.269-.052-.296-.036-.268.604-.142.104-.025.018-.003.016-.004.007-.002m2.28 2.379v3.384l.092.085.096.085.096.08.094.074.09.064.031.018.052.032-.338.491-.253.461-.037.068-.244.548-.056.155-.091.253-.053.145-.055.189-.102.353-.078.337-.04.177-.992-.138.008-.039.016-.081.027-.12.03-.122.03-.122.034-.122.037-.123h-.871l-.189.07-.636-.462.097-.234.105-.239.114-.242.121-.24.006-.01.118-.227.128-.227h-1.022v-4.321h3.634m-3.3-1.888.044.208.061.234.023.076.05.173.086.254.093.249.097.233-.009.003-.289.112-.398.154-.07-.154-.03-.065-.096-.236-.092-.243-.08-.24-.068-.225-.004-.015-.044-.188.58-.263.123-.057.014-.006.009-.004m-.219-.23-.564.383-.304.34-.021.025-.063.07-.02.023-.278.529-.176.6-.099.667-.01.159-.04.573h.893v4.72l-.27.154v.001l-.274.172-.266.18-.252.186-.096.077-.134.106-.2.175-.826-.84-.02-.02.02-.012.17-.098.195-.109.196-.107.2-.104.2-.101.199-.098v-1.22h-.954v-.982h.954v-1.067h-2.49v1.036h1.143v.974H80.59v.967h1.135v1.006h-2.24v-4.996h1.143v-2.702l-.002-.13-.007-.09-.016-.061-.027-.035-.041-.017-.06-.004h-.309l-.07.017-.051.066-.037.135-.024.2-.003.025-.02.335-.01.32-.002.064-.002.032v.049l-.124-.094-.152-.088-.17-.08-.175-.073-.17-.06-.156-.05.036-.38.022-.241.095-.47.14-.334.19-.218.248-.118.14-.015.174-.02h.636l.215.017.162.012.277.093.192.168.12.25.061.343.017.445v2.71h.507l.045-.574.028-.34.14-.835.235-.752.359-.667.513-.577.051-.036.272-.19.093-.065.114-.08.064-.044.039-.027.027-.02.022-.015.012-.008.073.144.098.156.118.159.128.152.131.137.002.001.124.111m2.352 7.01.05-.118.011-.024.064-.142.07-.143.072-.144h-.719l-.067.127-.065.135-.063.14-.021.051-.041.098-.06.152-.062.156h.719l.055-.145.057-.143m.031 3.33v.318l.005.33v.022l.01.371.018.38.016.25.007.124.027.357h-.005l-.749.092-.036-.355-.018-.217-.013-.154-.025-.375-.02-.365-.004-.13-.008-.214-.004-.31.795-.123.004-.001m-1.214.216.03.281.022.15.026.168.062.34.074.349.039.168.04.177.084.326-.007.001-.443.1-.274.06-.09-.32-.083-.338-.001-.006-.075-.337-.066-.334-.054-.313-.005-.04-.033-.239.681-.175.06-.014.013-.004m2.91-.054-.138.32-.059.166-.069.197-.117.39-.103.403-.09.398-.072.378-.287-.1-.542-.186.074-.39.014-.066.072-.346.097-.417.07-.261.038-.143.118-.376.128-.329.844.353.023.01m-6.011-.309.023.142.003.019.01.042.008.037.021.092.05.176.057.175.041.11.022.06.067.157.039-.073.003-.007.041-.079.03-.057.01-.02.04-.075.068-.137.003-.007.107.086.129.093.088.06.055.037.064.04.085.055.147.09.14.079.13-.056.032-.014.49-.21.015-.007.02-.008.014-.006.042.237.064.263.08.28.083.244.015.044.107.282.114.269-.716.27-.095-.215-.093-.23-.088-.238-.061-.182-.02-.057-.07-.232-.056-.218-.163.3-.103.207-.06.12-.053.116-.104.228-.147.355-.076.205-.056.152-.113.352-1.04-.308.07-.196.043-.123.127-.328.137-.33.106-.243.03-.065.007-.019.144-.316.142-.3-.184-.003h-.11l-.07-.002-.165-.002h-.145l-.115-.001h-.078l-.057.003-.043.01-.03.017-.02.027-.012.039-.004.051v2.498h1.818v3.277h-4.555v-3.277h1.568v-2.53l.009-.253.025-.178.005-.038.056-.183.087-.152.123-.126.163-.102.182-.08.206-.052.028-.004.205-.03.26-.018.288-.008h.316m-2.948.6.045.193.036.159.112.396.133.422.147.432.153.423.082.216.069.18-.973.324-.164-.396-.042-.108-.121-.307-.155-.42-.142-.412-.123-.388-.098-.351.488-.17.553-.193m4.698 2.275h3.695v3.392l.094.09.096.084.098.081.096.073.09.062.084.05-.16.23-.187.267-.297.533-.25.552-.034.093-.135.366-.036.098-.042.14-.015.049-.107.355-.124.516-.996-.138.025-.12.026-.111.003-.011.032-.122.034-.122.035-.123.034-.124H85.9l-.188.07-.166-.12-.283-.204-.045-.033-.147-.106.099-.235.108-.24.115-.244.122-.242.127-.237.13-.228h-1.033v-4.341m-.317 4.796v1.11h-2.164l.047.145.02.06.03.087.052.147.053.145.054.14.053.132-.647.18-.453.128-.08-.184-.085-.195-.086-.2-.084-.201-.072-.18-.007-.017-.07-.187h-1.862v-1.11h5.301M97-64l-3.8 22.803L93-40l-7.52 5.013L84-34l-7.225-4.816L75-40l-.2-1.197L71-64h26m-10.748 8.704v-.109h-.492v.714h.492v-.605m.765 10.855v.717h.497v-.717h-.497m.424 1.854.073-.142h-.73l-.07.127-.068.136-.065.142-.064.149-.063.153-.016.038-.047.118h.731l.05-.118.011-.028.061-.145.063-.144.065-.143.069-.143M72.997-62.002 75-49.709l1.382 8.48v.032h.007L79-39.413l5 3.416L89.859-40l1.752-1.197h.007v-.031L93-49.71l2.003-12.293H72.997m13.255 4.977h-.492v.7h.492v-.7m1.264 1.729v-.109h-.461v.714h.461v-.605m0-1.03v-.7h-.461v.7h.461m-1.299 10.258h-.52v.702h.52v-.702m1.297.702v-.702h-.497v.702h.497m-4.577.293h-2.308v1.04h2.308v-1.04m3.28.632h-.52v.717h.52Zm0 0" transform="matrix(4.29492 0 0 4.26451 -300.644 277.193)"/>
    <path fill="#f9f9f9" d="M44.207 112.75c-8.742-5.93-16.07-10.906-16.293-11.062-.387-.27-.695-2.07-7.644-44.395a36280 36280 0 0 1-7.25-44.242c0-.07 21.183-.125 47.078-.125 43.414 0 47.078.02 47.078.273 0 .309-14.34 87.836-14.434 88.102-.05.136-32.18 22.047-32.547 22.195-.054.02-7.25-4.812-15.988-10.746m7.93-6.836c1.644-.453 1.96-.594 1.867-.816a138 138 0 0 1-.684-1.828l-.57-1.551h9.293v-4.867H39.051v4.867l4.015.004h4.016l.652 1.62c.364.891.84 2.016 1.063 2.5.387.837.433.876.883.75.261-.073 1.367-.382 2.457-.679m23.773-.293c.36-1.754 1.824-5.902 2.758-7.812a37 37 0 0 1 1.965-3.461c.851-1.285 1-1.606.797-1.72-.14-.077-.68-.483-1.2-.905l-.945-.766V76.371H63.223v18.633h4.312l-1.48 2.976c-.813 1.637-1.473 3.016-1.47 3.063.005.05.59.5 1.306 1.008l1.296.918 2.399-.051 2.402-.05-.781 3.038.531.094c.293.05 1.254.195 2.137.32.883.121 1.656.235 1.719.246.066.012.207-.414.316-.945M60.352 87.2v-7.133H52.57l.043-5.496.047-5.5 2.004-.047c1.582-.035 1.988 0 1.922.168-.047.118-.523 1.2-1.063 2.399-1.503 3.37-2.285 5.52-2.05 5.644.199.11 4.257 1.32 4.418 1.32.043 0 .187-.359.32-.796.445-1.488 1.414-3.813 2.387-5.735l.968-1.914.633 1.914c.66 1.997 1.344 3.68 1.492 3.68.047 0 .766-.246 1.594-.547 1.75-.633 1.688-.277.586-3.328-.418-1.16-.851-2.594-.965-3.187-.117-.594-.226-1.102-.246-1.13-.023-.023-.73.25-1.57.614l-1.535.66-1.508-.969c-.832-.53-1.563-1.054-1.629-1.156-.215-.351-.426-.195-.855.649-.239.46-.461.84-.504.84-.13 0-1.102-3.18-1.102-3.61 0-.418-.012-.418-1.566-.414-4.258.008-6.403 1.008-6.88 3.21-.105.497-.179 3.228-.179 6.782v5.95H40.57v14.265h19.782Zm-15.934-9.328c1.14-.379 2.07-.746 2.07-.82s-.41-1.258-.91-2.63c-.95-2.6-2.031-6.073-2.226-7.155-.063-.344-.137-.63-.164-.63-.086 0-4.555 1.563-4.626 1.618-.199.156 3.442 10.3 3.7 10.3.047 0 1.015-.308 2.156-.683m34.77-4.11c.417-2.097 1.367-5.437 1.96-6.906.282-.703.454-1.34.383-1.41-.254-.25-3.476-1.511-3.672-1.437-.398.152-2.234 6.73-2.566 9.187l-.102.77 1.664.601c.918.329 1.754.606 1.856.618.105.007.316-.621.477-1.422m-9.88.747c1.16-.266 1.524-.41 1.458-.586-.223-.567-1.313-5.93-1.403-6.879-.148-1.586.117-1.523-2.98-.719-.649.164-.649.168-.543.867.41 2.664 1.57 7.672 1.781 7.672.078 0 .836-.16 1.688-.355m4.313-.285 1.016-.118-.008-.921a287 287 0 0 0-.152-4.657c-.125-3.261-.18-3.734-.415-3.734-.308 0-2.273.293-2.851.422-.36.082-.379.168-.379 1.55 0 1.454.238 5.184.441 6.88l.106.878.613-.09c.34-.05 1.07-.144 1.63-.21M56.383 58.5a42 42 0 0 1 3.215-2.227l1.593-.964.004-10.114V35.082h-3.77l.114-1.703c.398-6.04 1.992-9.477 5.465-11.79l1.23-.82-1-1.066c-.554-.586-1.214-1.426-1.468-1.863-.254-.442-.48-.832-.508-.863-.024-.036-.758.433-1.63 1.035-4.226 2.925-6.46 7.578-6.956 14.468-.2 2.754-.125 2.602-1.277 2.602h-1l-.051-7.344c-.051-7.148-.063-7.363-.414-8.015-.828-1.528-1.453-1.785-4.606-1.891-3.785-.129-4.894.273-5.687 2.059-.418.93-.844 2.914-.996 4.62l-.098 1.094 1.2.407c.66.222 1.593.652 2.07.953l.87.547.114-.79c.062-.433.121-1.28.133-1.878.02-1.32.242-2.352.547-2.543.12-.074.5-.14.843-.14 1.242-.009 1.153-.5 1.153 6.562v6.359H40.57l.043 10.7.043 10.702 9.719.086v-4.535h-4.73v-4.027h4.902v-4.2h-4.902v-4.363h10.48v4.364h-4.059v4.363h4.059l-.004 2.562v2.559l-2.266 1.145c-1.242.628-2.402 1.25-2.574 1.374-.289.215-.18.364 1.543 2.086 1.024 1.024 1.875 1.856 1.899 1.856.02 0 .77-.563 1.66-1.254m19.762-.047c.894-3.828 2.73-8.226 4.57-10.957l.957-1.418-.39-.3a56 56 0 0 1-1.196-.977l-.8-.676V29.711H63.561V48.34h4.141l-1.293 2.644c-.715 1.453-1.344 2.797-1.394 2.985-.082.281.136.511 1.187 1.258l1.29.918 2.331-.06 2.328-.054-.32 1.223c-.18.672-.324 1.355-.324 1.52 0 .32.023.324 2.62.714.837.125 1.563.239 1.618.25.05.008.23-.566.399-1.285M65.582 28.437l1.516-.601-.348-.867c-.613-1.524-.832-2.176-1.246-3.7-.227-.82-.442-1.523-.48-1.566-.079-.078-2.794 1.094-3.06 1.32-.214.188.134 1.508.966 3.665.726 1.882.937 2.351 1.058 2.351.043 0 .762-.27 1.594-.602m13.953-2.59c.246-1.152.817-3.19 1.27-4.53.453-1.337.77-2.485.707-2.551-.145-.145-3.352-1.477-3.563-1.477-.18 0-.886 1.91-1.375 3.727-.34 1.257-1.367 6.222-1.297 6.273.02.016.832.29 1.809.613 1.566.516 1.789.555 1.89.317.063-.149.313-1.215.56-2.371m-10.113 2c.824-.19 1.516-.37 1.539-.394.023-.023-.148-.848-.383-1.832a68 68 0 0 1-.773-3.93c-.192-1.171-.364-2.14-.38-2.152-.081-.05-3.144.703-3.241.797-.192.191 1.199 7.133 1.55 7.738.098.16-.03.18 1.688-.226m5.105-.437c.364-.086.391-.16.301-.785-.058-.383-.152-2.45-.215-4.594-.078-2.64-.175-3.902-.3-3.898-.376.004-3.192.492-3.266.566-.082.078.23 6.223.406 7.969l.106 1.07 1.285-.113c.707-.062 1.465-.16 1.683-.215m0 0"/>
    <path fill="#f9f9f9" d="M67.79 35.5v-1.426h1.858v2.852H67.79Zm5.577 0v-1.426h1.692v2.852h-1.692Zm0 6.883v-1.426h1.692v2.852h-1.692Zm-5.577 0v-1.426h1.858v2.852H67.79Zm3.042 9.211c0-.059.313-.817.695-1.68l.696-1.574h1.433c1.09 0 1.414.055 1.344.21-.05.118-.383.872-.734 1.68l-.641 1.47h-1.398c-.766 0-1.395-.048-1.395-.106M45.813 87.2v-2.098h9.636v4.195h-9.636Zm21.637-4.954v-1.34h2.03v2.684h-2.03Zm5.75 0v-1.34h1.859v2.684h-1.86Zm0 6.969v-1.43h1.859v2.856h-1.86Zm-5.75 0v-1.43h2.03v2.856h-2.03Zm3.214 9.125c0-.106.336-.899.75-1.762l.75-1.574h2.856l-.774 1.762-.773 1.765h-1.407q-1.4-.002-1.402-.191m0 0"/>
</svg>
