<svg xmlns="http://www.w3.org/2000/svg" width="120" height="120" viewBox="0 0 120 136">
    <path fill="red" stroke="red" stroke-width=".004" d="m51.948-60.783.052-.025.092-.046.132-.043.025-.008.172-.037.182-.031.207-.018.226-.009h.241l.207.004h.045l.083.003.08.002.048.002.032.001h.015l.018.187.037.208.056.218.073.218.089.207.086.156.007.012.008.014.002.005-.25-.016-.233-.01-.214-.007-.19-.004h-.29l-.082.002-.072.01-.066.021-.06.032-.057.047-.056.064-.097.232-.016.037-.09.505-.043.459-.03.315-.04.732-.018.345-.048 1.412-.04 1.782h2.636l.099-.19.102-.183.102-.177.103-.172.083-.132.021-.034.102-.16h-2.574v-3.538h1.93v-.578h1.005v3.715l.13.124.157.143.17.15.175.145.168.129.15.103-.152.188-.149.182-.063.078-.335.519-.128.245-.174.33-.205.477-.06.14-.168.481-.057.163-.181.657-1.209-.277.068-.235.071-.235.074-.233.077-.23.081-.229.085-.226H51v-.032l.001-.085.001-.116.003-.127.004-.12.007-.09v-.013l.012-.557.035-1.633.053-1.722.01-.184.054-1.047.003-.067.091-.933v-.001l.122-.622.161-.373.126-.168.13-.13.135-.098M61-60.04l-.099.333-.075.315-.015.062-.082.405-.071.412-.021.145-.038.258-.046.374-.11-.037L60-57.92l-.09-.031.043-.38.004-.036.043-.335.005-.039.062-.42.04-.23.03-.179.078-.38.086-.328.681.233.018.006m-.557 2.666v5.966h-3.768v-1.033h1.122v-.709h-.965v-.94h.965v-.64h-.996v-.925h.996v-.678h-1.224v-.079l.002-.08.003-.09.004-.086.007-.074.017-.602.015-.547.037-.908.047-.694.063-.506.082-.345.108-.212.078-.108.085-.084.093-.064.101-.046.03-.01.081-.023.12-.02.123-.02.138-.014.15-.01.16-.004h.263l.032.001.025.001h.012l.012.153.025.164.039.167.049.164.059.154.062.127.005.011-.133-.013-.123-.009-.076-.004h-.036l-.098-.004-.082-.001h-.12l-.05.006-.046.012-.043.02-.04.032-.04.046-.012.028-.017.039-.027.095-.024.13-.023.165-.01.082-.013.125-.023.253.354-.128.017-.007.014-.004.05.204.062.227.07.242.037.113.043.132.057.165.026.074.086.223-.447.154-.071-.168-.07-.178-.067-.183-.065-.184-.012-.035-.05-.144-.057-.172-.006.181-.004.135-.002.062-.008.21-.008.227-.007.24-.005.255h2.842m-.715-2.55-.004.29.002.242.001.08.01.342.014.349.013.253.005.091.022.325h-.005l-.394.029-.135.01-.025-.318-.009-.137-.012-.2-.017-.345-.013-.338-.003-.141-.004-.177-.003-.286.22-.027.33-.042h.007m-.887.3.028.232.002.023.041.286.05.305.055.31.02.1.04.207.063.287-.007.001-.51.083-.07-.29-.06-.288-.005-.017-.059-.305-.05-.298-.01-.073-.032-.206-.014-.125-.015-.124.06-.012.473-.096M52-49.992h1.34v.67h5.374V-50H60v8.408h-2.672l-.087.266-.04.129-.045.142-.028.095-.052.178-.073.27-.062.262-.049.25-1.646-.215.1-.241.102-.238.102-.233.015-.033.09-.195.019-.042.085-.18.107-.215H52v-8.4M69-64l-3.8 22.803L65-40l-7.52 5.013L56-34l-7.225-4.816L47-40l-.2-1.197L43-64h26m-15.16 6.65v1.456h.936v-1.456h-.935m-8.844-4.652L47-49.709l1.382 8.48v.032h.007L52-38.73l4 2.733L61.859-40l1.752-1.197h.007v-.031L65-49.71l.21-1.29 1.793-11.002H44.997m14.44 5.67h-.674v.677h.675v-.678m-.675 2.243h.675v-.64h-.675v.64m0 1.65h.675v-.71h-.675v.71m-.049 4.409H53.34v1.977h5.374v-1.977m-5.374 5.14h5.374v-1.901H53.34Zm0 0" transform="matrix(4.29492 0 0 4.26451 -180.387 277.193)"/>
    <path fill="#f9f9f9" d="M43.867 112.523a8566 8566 0 0 1-16.293-11.066c-.054-.055-14.543-88.062-14.554-88.406 0-.07 21.183-.125 47.078-.125 43.215 0 47.078.02 47.078.27 0 .308-14.34 87.843-14.434 88.105-.05.136-32.176 22.043-32.547 22.195-.054.02-7.402-4.914-16.328-10.973m20.446-7.101c.156-.73.574-2.262.921-3.399l.637-2.066 5.777-.043 5.778-.047V63.953h-5.75v2.852h-22.82v-2.852h-5.919v35.918h8.22c6.511 0 8.195.043 8.124.211l-1.3 2.871c-.66 1.461-1.165 2.7-1.114 2.75.051.047 1.633.297 3.52.555 1.886.254 3.476.469 3.531.48.059.008.234-.582.395-1.316m-7.958-46.336c1.407-5.29 3.766-10.215 6.34-13.246l.77-.906-.41-.27c-.586-.379-2.332-1.8-3.086-2.508l-.633-.597v-15.88h-4.563v2.352h-8.285v15.274h10.98l-.921 1.515a50 50 0 0 0-1.27 2.18l-.343.672H43.742l.113-4.156c.36-13.239.735-18.188 1.524-20.055.465-1.094.7-1.16 3.976-1.102 2.516.043 2.887.016 2.817-.203a29 29 0 0 0-.54-1.343c-.253-.598-.581-1.711-.73-2.473l-.273-1.387-2.195.008c-2.477.004-4.438.293-5.422.797-.844.433-1.793 1.418-2.262 2.355-1.105 2.196-1.637 8.403-1.95 22.774a765 765 0 0 1-.187 7.008l-.097 2.812h14.156l-.895 2.64c-.492 1.458-.875 2.79-.851 2.97.035.265.43.413 2.324.863 1.254.3 2.434.53 2.617.52.227-.02.38-.212.488-.614m22.93-13.848V32.395H67.113l.012-1.551c.008-.856.063-1.883.129-2.29l.113-.734.649 1.785c.359.98.71 1.82.78 1.864.141.086 1.692-.38 1.911-.574.07-.063-.207-1.13-.621-2.372-.41-1.238-.8-2.539-.863-2.886-.067-.348-.18-.668-.25-.711-.075-.043-.457.031-.852.172l-.719.25.114-1.22c.261-2.784.539-3.073 2.793-2.898l1.507.122-.418-1.145c-.23-.629-.472-1.562-.535-2.074l-.117-.93-1.098-.05c-1.605-.075-3.785.269-4.433.702-1.3.872-1.832 2.332-2.149 5.895-.18 2.055-.515 9.922-.515 12.129l-.004 1.215h5.242v2.687h-4.227v4.028h4.227v2.687h-4.227v4.195h4.227v2.856h-4.902v4.531h16.398Zm.586-15.066c.258-2.078.809-5.055 1.29-6.985.28-1.136.487-2.09.46-2.109-.031-.023-.648-.246-1.375-.496a85 85 0 0 1-1.531-.539c-.153-.059-.328.41-.59 1.586-.43 1.898-1.207 7.02-1.207 7.941 0 .614.004.617 1.227 1.035.671.23 1.312.426 1.418.434.113.008.246-.363.308-.867m-7.121.457c.523-.067.957-.137.957-.16 0-.024-.156-.793-.344-1.715a77 77 0 0 1-.652-3.758l-.305-2.086-.574.05c-.32.024-.871.126-1.234.22l-.657.175.11.903c.136 1.164.89 5.18 1.129 6.012.113.406.261.613.398.558.117-.043.645-.133 1.172-.2m3.566-.48c.086-.024.133-.489.106-1.036a299 299 0 0 1-.16-4.27l-.106-3.273-1.25.145-1.254.144.114 3.547c.066 1.953.16 3.856.214 4.23l.098.68 1.04-.062c.57-.035 1.109-.082 1.198-.106m0 0"/>
    <path fill="#f9f9f9" d="M50.883 35.754V32.73h3.89v6.043h-3.89Zm21.133 2.684v-1.344h2.703v2.687h-2.703Zm0 6.714V43.81h2.703v2.687h-2.703Zm0 6.965v-1.426h2.703v2.856h-2.703ZM48.855 76.625v-4.113h22.82v8.226h-22.82Zm0 13.598v-3.946h22.82v7.887h-22.82Zm0 0"/>
</svg>
