<svg xmlns="http://www.w3.org/2000/svg" width="120" height="120" viewBox="0 0 120 120">
    <path d="M7.5 3.563v91.875h14.094l.746 1.574 1.48 2.468.375.625L26.344 103l2.156 2.383.266.289.289.266 2.383 2.156 2.894 2.148.625.375 2.066 1.238.403.243 3.261 1.543 3.395 1.214 3.5.875 3.566.532.11.004 2.969.144.523.028 3.602-.176 3.566-.532 3.5-.875 3.394-1.214 2.618-1.239.644-.304 2.469-1.48.625-.376 2.894-2.148 2.383-2.156.29-.266.265-.29L83.16 103l2.145-2.895.375-.625 1.48-2.468.047-.098.45-.953H112.5V69.188l-1.29-.012-1.284-.04-1.29-.062-1.284-.09-1.282-.113-.234-.023-1.047-.114-1.277-.164-1.278-.187-1.27-.215-1.265-.242-1.261-.262-1.258-.289-1.25-.312-1.243-.34-1.238-.36-1.226-.386-.723-.243-.5-.168-.195-.07-1.02-.363-.094-.035-.836-.32-.222-.087-.051-.015-.406-.164-1.016-2.149-.055-.09-1.425-2.378-.375-.625-2.145-2.895L81 53.992l-.266-.289-.289-.266-2.382-2.16-2.895-2.144-.625-.375-2.469-1.48-.644-.305-2.618-1.239-3.394-1.214-3.5-.875-1.555-.23-.156-.2-.031-.043-.176-.234-.297-.403-.297-.398-.746-1.051-.726-1.063-.707-1.082-.684-1.09-.66-1.105-.64-1.117-.622-1.133-.394-.762-.2-.379-.574-1.152-.55-1.168-.528-1.172-.504-1.187-.484-1.196-.457-1.203-.336-.945-.098-.27-.41-1.222-.387-1.227-.36-1.238L49 20.133l-.312-1.25-.29-1.258-.261-1.262-.242-1.265-.215-1.27-.188-1.277-.164-1.278-.137-1.28-.113-1.282-.043-.582-.047-.703-.062-1.29-.04-1.284-.011-1.137v-.152Zm5.25 5.25h29.07l.004.046.11 1.32.136 1.321.16 1.313.188 1.312.207 1.309.234 1.304.258 1.301.285 1.293.309 1.29.328 1.284.356 1.278.378 1.27.282.878.12.383.427 1.258.449 1.246.472 1.238.352.867.145.36.52 1.222.542 1.207.563 1.2.585 1.19.61 1.177.629 1.168L51.12 39l.672 1.14.695 1.13.715 1.117.102.148.27.403.034.054-.011.004-2.45.117-3.566.532-3.5.875-3.395 1.214-3.261 1.543-.403.243-2.066 1.238-.625.375-2.895 2.144-2.382 2.16-.29.266-.265.29-2.156 2.382-2.149 2.895-.375.625-1.48 2.468-1.543 3.262-.977 2.734-.238.66-.875 3.5-.531 3.567L18 79.688l.176 3.601.531 3.566.832 3.332H12.75Zm42 39.375 3.086.152 3.059.453 3 .75 2.91 1.043 2.793 1.32 1.125.672.707.426.82.492 2.484 1.84 2.29 2.078 2.078 2.29.023.034 1.816 2.45.059.097.86 1.43.671 1.125 1.32 2.793 1.044 2.91.75 3 .453 3.059.152 3.085-.152 3.086-.453 3.059-.75 3-1.043 2.91-1.137 2.403-.184.39-.672 1.125L81 97.09l-.059.097-1.84 2.485-2.078 2.289-2.289 2.078-2.484 1.84-.82.492-.707.426-1.125.672-2.793 1.32-2.91 1.043-3 .75-3.06.453-3.085.153-.523-.028-2.563-.125-3.059-.453-3-.75-2.91-1.043-2.793-1.32-1.125-.672-1.43-.86-.097-.058-.227-.168-2.257-1.672-2.29-2.078-2.078-2.29-1.84-2.484-.058-.097-.86-1.43-.671-1.125-.184-.39-1.137-2.403-1.043-2.91-.75-3-.453-3.059-.152-3.085.137-2.747.015-.34.453-3.058.75-3 1.043-2.91 1.32-2.793.673-1.125.859-1.43.059-.097 1.816-2.45.023-.035 1.11-1.223.969-1.066 1.222-1.11 1.067-.968 1.324-.98.933-.692.227-.168.098-.059 1.43-.859 1.124-.672 2.793-1.32 2.91-1.043 3-.75 3.06-.453 2.562-.125Zm0 5.25-.523.027-2.051.097-2.547.38-2.5.624-2.426.868-2.082.988-.246.113-2.21 1.328-2.067 1.532-.13.117-.25.226-.695.633-.836.754-1.73 1.91-1.531 2.07-1.324 2.207-.118.247-.984 2.082-.871 2.425-.625 2.5-.352 2.375-.027.172-.125 2.575.125 2.574.379 2.547.625 2.5.871 2.425.984 2.082.118.246.085.149 1.16 1.934.079.125 1.531 2.07 1.73 1.91.836.754 1.075.976 2.066 1.532 2.211 1.324.246.117 2.082.984.922.333 1.504.539 2.5.625 2.547.379 2.05.097.524.028 2.574-.126 2.547-.378 2.5-.625.457-.164 1.969-.707 2.082-.985.246-.117 2.207-1.324 2.07-1.532.028-.023 1.882-1.707 1.731-1.91 1.531-2.07.078-.125 1.25-2.082.114-.247.984-2.082.871-2.425.625-2.5.379-2.547.125-2.575-.125-2.574-.027-.172-.352-2.375-.625-2.5L79 69.641l-.984-2.082-.114-.246-1.328-2.208-1.531-2.07-1.73-1.91-.13-.113-1.402-1.274-.351-.32-.028-.023-2.07-1.532-2.207-1.328-.246-.113-2.082-.988-2.426-.868-2.5-.625-2.547-.379Zm0 5.25 2.059.101 2.039.3 1.996.5.41.15 1.531.546.156.074-8.191 8.192-8.191-8.192.156-.074 1.531-.547.406-.148 2-.5 2.04-.3 1.535-.075Zm-12.863 4.425 9.152 9.149 3.711 3.715 12.863-12.864.461.34 1.524 1.387 1.386 1.523.34.461-10.113 10.117-2.75 2.746 3.715 3.711 9.148 9.153-.34.46-1.027 1.134-.36.39-1.523 1.387-.46.34-2.122-2.117-7.031-7.032-3.711-3.715-.523.528-10.22 10.219-2.12 2.117-.461-.34-1.524-1.387-.355-.39-1.031-1.133-.34-.461 12.863-12.864-3.715-3.71-9.148-9.153.34-.46 1.386-1.524 1.524-1.387Zm48.5 7.785.175.055.516.168.422.133.11.035 1.269.379 1.277.355 1.285.329 1.29.308 1.292.285 1.301.258 1.305.234 1.308.208 1.313.187 1.313.16 1.273.13.047.007 1.32.11.047.003v16.469H89.79l.128-.356.875-3.5.531-3.566.176-3.602-.176-3.601-.246-1.648-.285-1.918-.223-.891-.043-.176-.039-.152-.035-.137-.023-.102-.02-.082Zm-54.965.598 8.191 8.192-8.191 8.19-.074-.155-.696-1.938-.5-2-.3-2.039-.102-2.058.102-2.06.101-.687.2-1.351.5-2 .695-1.938Zm38.656 0 .074.156.696 1.938.5 2 .199 1.351.101.688.102 2.058-.102 2.06-.3 2.038-.442 1.758-.058.242-.696 1.938-.074.156-8.191-8.192ZM54.75 90.824l8.191 8.192-.113.054-.043.02-1.941.695-1.996.5-2.04.3-2.058.103-.523-.028-1.536-.074-2.039-.3-2-.5-1.937-.696-.156-.074Zm0 0"/>
    <path fill="#5984bd" d="M12.855 49.523V8.848H41.72l.082.64c.047.356.156 1.325.246 2.157 1.101 10.218 4.996 21.265 10.512 29.812.453.7.82 1.34.82 1.418 0 .082-.465.148-1.035.148-1.38 0-4.352.47-6.617 1.04a36.37 36.37 0 0 0-16.907 9.609c-5.668 5.668-9.175 12.594-10.468 20.652-.215 1.36-.274 2.547-.27 5.446.008 3.976.234 5.937 1.031 9.035l.364 1.398h-6.622Zm77.45 39.508c.902-3.418 1.093-5.035 1.093-9.34 0-3.359-.046-4.203-.332-5.82-.18-1.039-.394-2.117-.476-2.394-.121-.422-.11-.493.078-.422.45.175 3.36.992 4.828 1.36 2.84.71 6.09 1.292 8.922 1.597.832.09 1.8.203 2.152.246l.645.086v16.312h-17.34Zm0 0"/>
    <path fill="#5984bd" d="M50.281 110.781c-13.953-2.14-24.55-12.738-26.629-26.629-.347-2.34-.347-6.578 0-8.922 1.414-9.453 6.793-17.535 14.965-22.488 3.469-2.105 7.77-3.605 12.008-4.191 3.434-.477 8.305-.223 11.574.601 5.64 1.422 10.672 4.27 14.758 8.364 4.809 4.812 7.785 10.707 8.875 17.574.348 2.195.352 6.91.008 9.152-1.055 6.84-4.117 12.875-8.992 17.727-4.664 4.644-10.356 7.554-17.118 8.75-2.074.367-7.234.402-9.449.062m8.102-5.066c5.867-.88 10.883-3.399 14.98-7.516 3.992-4.015 6.489-8.976 7.407-14.726.25-1.559.25-6 0-7.559-1.864-11.676-10.672-20.492-22.215-22.226-2.004-.301-5.73-.301-7.594.003-5.867.95-10.723 3.383-14.711 7.371-4.148 4.149-6.707 9.247-7.535 15-.25 1.75-.25 5.512 0 7.258 1.512 10.512 9.164 19.114 19.37 21.785 3.083.805 7.325 1.055 10.298.61m0 0"/>
    <path fill="#5984bd" d="M40.738 95.223a33 33 0 0 1-1.718-1.75l-.793-.891 6.441-6.445 6.445-6.446-6.418-6.418c-5.41-5.406-6.394-6.457-6.273-6.683.219-.41 3.168-3.305 3.367-3.305.094 0 3.047 2.875 6.563 6.387l6.39 6.39 6.39-6.39c3.513-3.512 6.446-6.387 6.513-6.387.218 0 1.898 1.531 2.777 2.535l.851.97-6.453 6.452-6.449 6.453 6.426 6.426c3.535 3.531 6.426 6.473 6.426 6.527 0 .184-3.336 3.454-3.524 3.454-.097 0-3.054-2.875-6.566-6.391l-6.39-6.387-6.391 6.387c-3.516 3.516-6.457 6.387-6.54 6.383-.082-.004-.566-.395-1.074-.871m0 0"/>
    <path fill="#5984bd" d="M50.664 64.426c-2.2-2.203-3.969-4.028-3.93-4.059.172-.14 1.996-.73 3.094-1 2.906-.715 6.16-.773 9.14-.168 1.302.266 3.567.961 3.782 1.16.07.067-7.871 8.067-8.008 8.067-.043 0-1.879-1.801-4.078-4M35.043 86.7c-.957-2.716-1.238-4.657-1.125-7.817.047-1.32.195-2.867.336-3.5.215-.969 1.043-3.59 1.176-3.727.023-.023 1.863 1.778 4.082 4l4.039 4.04-4.059 4.054-4.058 4.059Zm17.277 13.769c-1.695-.188-5.593-1.227-5.593-1.489 0-.046 1.804-1.886 4.007-4.09l4.008-4.003 4.008 4.004c2.203 2.203 4.008 4.043 4.008 4.09 0 .101-2.168.812-3.403 1.113-2.007.492-4.718.636-7.035.375m17.657-16.731-4.043-4.047 4.058-4.062 4.063-4.059.394 1.114c.836 2.359 1.164 4.312 1.168 6.968.004 2.723-.492 5.551-1.32 7.489l-.274.644Zm0 0"/>
</svg>
