<svg xmlns="http://www.w3.org/2000/svg" width="120" height="120" viewBox="0 0 120 120">
    <path d="M55.719 25.941h-.012l-.258.004-.062.004-.196.004-.257.012-.254.015-.258.016-.258.024-.254.023-.258.027-.254.028-.164.023-.09.012-.257.035-.25.039-.254.043-.508.094-.25.05-.254.055-.25.059-.035.012-.215.05-.246.063-.25.07-.492.14-.492.157-.243.082-.214.074-.028.012-.242.09-.035.012-.207.078-.238.093-.239.098-.238.102-.234.101-.235.106-.23.109-.223.105-.012.008-.168.082-.062.032-.227.117-.23.12-.223.122-.226.125-.223.129-.223.133-.218.133-.22.136-.12.078-.094.059-.43.289-.21.148-.208.149-.414.305-.097.078-.106.082-.203.16-.2.16-.187.16-.007.004-.2.168-.191.168-.191.172-.192.176-.187.175-.184.18-.148.149-.036.03v.005l-.062.062-.234.25-.043.047-.07.082-.114.133-.11.129-.109.137-.074.093-.031.04-.102.136-.203.281-.094.141-.097.145-.09.144-.09.148-.172.297-.082.149-.05.097-.106.211-.074.153-.075.156-.07.156-.066.16-.125.32-.059.16-.059.165-.054.16-.051.164-.047.164-.047.168-.004.012-.039.152-.039.168-.011.051-.028.117-.035.168-.031.168-.031.172-.024.168-.027.172-.02.168-.015.164-.004.008-.012.172-.016.171-.015.344-.004.172v.04h-.004v1.718l-.309.004-.57.02-.574.027-.57.047-.57.054-.567.07-.57.079-.563.093-.563.106-.562.117-.559.133-.554.14-.551.157-.547.164-.543.18-.375.128-.168.059-.535.203-.531.215-.528.223-.52.238-.515.246-.512.258-.503.273-.5.278-.493.293-.488.3-.309.203-.171.114-.473.32-.465.336-.457.344-.453.351-.441.364-.434.375-.106.093-.32.29-.418.39-.41.398-.402.41-.39.419-.384.425-.37.438-.364.441-.356.45-.343.46-.332.465-.243.356-.082.117-.312.477-.3.488-.169.281-.125.211-.281.5-.27.504-.257.512-.25.515-.235.524-.226.523-.211.531-.184.48-.02.06-.19.538-.177.543-.168.551-.152.551-.144.555-.13.558-.117.559-.074.387-.031.175-.094.567-.07.5-.012.066-.066.57-.059.567-.043.574-.031.57-.004.145-.004.148-.008.157-.004.12v.18l-.003.137v.117l.003-.144.02-.285.031-.285.043-.286.055-.285.07-.285.012-.039.07-.246.094-.281.105-.282.118-.28.129-.278.14-.278.156-.277.164-.273.079-.118.222.06 1.215.433 1.164.55 1.106.66 1.035.77.953.863.656.727.207.23.77 1.036.218.363.442.742.55 1.164.122.332.11.309.124.344.078.226.094.363.125.504.094.383.004.023.047.297.023.172.004.028-.172-.13-1.105-.663-.54-.254-.625-.297-1.214-.434-1.25-.312-1.274-.188-1.285-.062-1.285.062-1.274.188-.394.101-.234.059-.622.152-1.214.434-1.164.55-1.106.665-1.035.765-.953.868-.719.792-.144.16-.594.801-.176.235-.281.472-.098.165.465-.282 1.164-.55 1.215-.434 1.25-.313 1.273-.187 1.285-.067 1.286.067.168.023.234.035.875.13 1.25.312 1.21.433 1.165.551 1.105.664 1.036.766.746.676.078.074.074.172 1.477 3.55v10.5h9.847v-10.5l1.578-3.796.063-.14h-.004l.422-.466.144-.16.766-1.035.664-1.106.55-1.164.434-1.21.313-1.25.191-1.274.063-1.285-.063-1.29-.191-1.273-.203-.816-.11-.434-.433-1.21-.551-1.165-.664-1.105-.606-.82-.16-.215-.863-.953-.797-.723-.16-.145-1.035-.765-.633-.383.277.469.551 1.164.434 1.21.086.34.226.91.192 1.274.062 1.29-.062 1.261v.023l-.192 1.274-.312 1.25-.434 1.215-.55 1.164-.653 1.09-.008.011-.039.055-.058.078-.114.156-.027.036-.055-.356-.312-1.25-.313-.879-.12-.332-.079-.164-.473-1-.664-1.105-.765-1.036-.207-.23-.657-.723-.957-.867-1.035-.766-1.101-.664-1.164-.55-.454-.16-.761-.274-1.25-.312-1.274-.188-1.285-.062-1.289.062-1.273.188-.297.074.176-.246.058-.078.125-.168.016-.024.215-.265.222-.262.239-.262.246-.258.261-.254.27-.254.281-.25.29-.246.304-.242.312-.242.114-.082.21-.152.333-.235.343-.226.356-.227.363-.223.371-.214.383-.215.313-.168.078-.043.402-.203.41-.2.418-.195.32-.144.106-.047.434-.188.44-.18.454-.18.457-.171.465-.164.473-.164.48-.156.223-.07.77.382 4.3 2.153 8.813 4.406v-.04l4.984 2.067 14.969 6.2 3.93 1.628.105.043.004-.008.133.055.238.106.234.113.23.117.454.25.222.137.09.054.13.086.214.145.211.152.207.153.207.164.2.164.195.172.191.175.187.18.18.184.067.07.113.121.172.191.168.2.164.203.16.203.152.21.149.216.14.215.137.222.133.223.082.148.043.078.12.23.114.235.11.235.105.238.188.484.062.18.023.066.079.246.046.157.024.093.07.25.059.254.055.254.046.254.043.258.036.258.027.258.023.257.016.258.008.203v.059l.004.09h-.004v6.3h-2.758v5.25h49.875V59.935l-.004-.504-.02-.64-.027-.638-.043-.636-.055-.637-.066-.633-.074-.633-.074-.523-.016-.11-.102-.632-.07-.391-.043-.234-.125-.63-.11-.5-.027-.12-.148-.621-.156-.618-.172-.617-.184-.61-.191-.609-.207-.601-.215-.602-.23-.597-.239-.59-.25-.59-.258-.582-.226-.48-.047-.098-.281-.57-.293-.567-.305-.562-.312-.555-.325-.55-.336-.544-.343-.539-.211-.316-.145-.211-.363-.528-.375-.515-.258-.34-.125-.168-.394-.504-.403-.496-.41-.488-.422-.477-.285-.316-.144-.157-.094-.101-.344-.363-.445-.453-.457-.45-.465-.437-.469-.43-.48-.422-.489-.41-.496-.402-.504-.395-.507-.383-.516-.375-.527-.363-.528-.355-.539-.344-.543-.336-.55-.324-.504-.285-.051-.028-.563-.304-.566-.293-.57-.282-.579-.273-.582-.258-.59-.25-.59-.238-.382-.149-.215-.082-.598-.215-.605-.203-.61-.195-.609-.184-.617-.171-.617-.157-.258-.062-.363-.086-.621-.137-.63-.125-.624-.113-.633-.102-.629-.086-.637-.078-.633-.066-.636-.055-.637-.043-.637-.027-.636-.02-.508-.004Zm.023 5.25H81.97l.465.004.593.02.598.031.594.043.597.055.59.066.594.082.59.09.586.105.586.118.582.129.582.14.578.153.289.082.281.082.57.175.567.188.562.2.559.21.555.223.55.234.543.246.114.055.426.203.53.266.528.277.524.293.515.297.512.312.5.32.496.333.27.187.222.156.258.188.223.164.476.36.465.37.461.383.45.39.445.4.433.41.234.23.192.187.418.426.41.434.398.445.09.102.301.347.383.461.371.465.363.477.352.48.34.492.332.496.32.504.313.508.039.07.261.446.051.094.238.43.278.527.27.53.253.54.246.543.235.55.222.555.211.559.2.562.187.567.176.57.164.574.152.575.14.582.09.398.04.184.117.586.105.586.09.59.082.593.067.59.054.598.043.593.031.598.02.594.004.449v28.89H74.094v-6.132h.004l-.004-.336-.012-.332-.016-.332-.027-.336-.031-.332-.012-.113-.027-.22-.043-.327-.055-.328-.047-.258-.011-.075-.067-.324-.074-.328-.082-.324-.086-.32-.094-.32-.101-.317-.11-.317-.113-.316-.121-.308-.13-.31-.132-.304-.113-.25-.028-.054-.148-.301-.066-.133-.086-.164-.16-.293-.165-.29-.171-.284-.176-.282-.188-.28-.187-.274-.195-.27-.008-.011-.196-.258-.203-.262-.215-.258-.214-.25-.223-.25-.461-.484-.242-.23-.164-.16-.078-.071-.246-.223-.254-.219-.227-.187-.031-.027-.262-.207-.266-.2-.27-.195-.272-.191-.278-.184-.285-.18-.285-.172-.29-.168-.292-.16-.297-.152-.297-.148-.305-.141-.304-.137-.309-.129-.004.012-.02-.012-5.874-2.433-14.97-6.2V39.332l.017-.258.011-.129.004-.039.008-.09.02-.125.019-.129.023-.124.028-.13.062-.25.035-.124.036-.106.004-.016.085-.242.047-.12.055-.118.05-.117.06-.117.058-.114.063-.113.062-.11.004-.007.066-.106.07-.105.07-.11.235-.304.086-.102.082-.093.18-.188-.004-.004.094-.094.32-.304.164-.149.164-.144.168-.145.168-.14.172-.141.176-.137.172-.133.18-.132.093-.067.086-.062.18-.125.183-.125.368-.242.187-.114.191-.113.188-.113.195-.106.192-.105.074-.04.121-.066.184-.093.015-.004.196-.098.199-.094.203-.093.2-.09.05-.02.152-.066.203-.082.414-.157.414-.148.106-.031.105-.035.211-.067.211-.062.211-.059.215-.058.215-.051.21-.051.22-.05.43-.087.12-.02.098-.015.219-.039.215-.031.437-.055.219-.023.219-.02.222-.02.438-.023.086-.004.136-.004.196-.004Zm2.996 7.348-.258.016-.253.035-.25.062-.243.09-.199.09-.035.02-.223.132-.207.153-.191.172-.133.152-.039.039-.152.207-.133.223-.11.23-.085.242-.063.25-.039.258-.008.145-.004.11.012.257.04.254.062.25.086.242.109.234.133.223.152.207.172.191.191.172.207.153.223.132.035.016.2.094.242.09.25.058.253.04.258.011.258-.012.254-.039.25-.058.188-.07.054-.02.235-.11.218-.132.207-.153.192-.172.172-.191.152-.207.133-.223.113-.234.086-.242.063-.25.035-.254.015-.258-.008-.11-.003-.144-.04-.258-.062-.25-.086-.242-.113-.23-.133-.223-.152-.207-.036-.04-.136-.151-.192-.172-.207-.153-.218-.132-.235-.11-.054-.02-.188-.07-.25-.062-.254-.035Zm-20.61 6.574v5.246l-.35.004-.618.008-.617.016-.621.023-.613.028-.618.03-.613.04-.61.047-.613.05-.605.06-.605.062-.606.07-.598.074-.597.082-.262.04-.332.046-.59.094-.586.097-.582.106-.578.11-.574.113-.57.12-.563.13-.562.132-.551.137-.551.14-.543.153-.535.152-.11.032h.004l.008-.012.016-.02.023-.027.028-.031.035-.043.023-.027.016-.02.05-.055.051-.058.055-.063.063-.07.07-.078.035-.043.031-.031.32-.344.36-.371.371-.36.375-.351.219-.192.168-.148.394-.332.278-.223.125-.101.41-.309.418-.305.426-.289.433-.28.438-.274.445-.258.45-.25.46-.238.461-.223.168-.078.3-.137.477-.203.477-.191.484-.18.489-.168.488-.156.496-.145.5-.129.5-.12.504-.106.508-.094.398-.067.11-.015.511-.07.512-.06.512-.042.515-.031.516-.02Zm0 9.055v3.547l-6.26-3.133.288-.039.555-.066.562-.059.563-.05.566-.048.567-.039.566-.035.57-.027.57-.024.575-.015.57-.008ZM26.317 74.371l.141.277.461.922.14.278.348.699.223.45h.004l.004.01.543.005h2.386l-.351.468-.043.06-.59.784-.047.063-.133.175-.18.235-.058.082-.355.473.136.27-.058.14-.43 1.027-.3.727-.052.117-.8 1.926v9.976h-1.973V83.56l-1.64-3.938.136-.27-1.398-1.859-.36-.48h.844L25 77.008l.004-.012.406-.805.055-.109.105-.215.008-.02.152-.304.22-.43.273-.55Zm0 0"/>
    <path fill="#ff4b4b" d="M74.094 84.871c-.004-4.203-.114-5.234-.758-7.168-1.27-3.812-4.031-7.098-7.477-8.894-.68-.352-6.015-2.618-11.863-5.036l-10.633-4.39.004-9.832c.004-5.41.063-10.23.13-10.711.194-1.328.718-2.332 1.745-3.32 2.254-2.176 5.582-3.743 8.82-4.149 1.56-.195 28.274-.195 30.352 0 8.832.832 16.73 5.582 21.578 12.977 1.649 2.515 3.188 6.101 3.89 9.066.755 3.191.747 2.965.81 19.738l.054 15.614H74.102ZM60.227 43.367c.945-.625 1.367-1.812 1.043-2.93-.762-2.62-4.512-2.5-5.11.16-.3 1.337.477 2.712 1.77 3.13.625.199 1.707.03 2.297-.36m-36.719 8.071c3.582-3.672 8.215-5.801 13.578-6.231l.945-.078v5.184h-.945c-3.977.003-10.27.906-14.281 2.054-.164.047.125-.336.703-.93m11.508 4.661-2.95-1.496.844-.094c.461-.051 1.805-.14 2.98-.2l2.141-.109v1.707c0 .938-.015 1.7-.035 1.696s-1.36-.68-2.98-1.504m-9.614 32.468v-4.968l-.836-2c-.46-1.098-.804-2.055-.761-2.125.043-.067-.274-.59-.707-1.164-.43-.575-.785-1.075-.785-1.118 0-.039.601-.074 1.332-.074h1.332l1.343-2.672.66 1.336.665 1.336h1.335c.735 0 1.332.035 1.332.074 0 .043-.351.543-.78 1.118-.434.574-.75 1.097-.712 1.164.043.07-.297 1.027-.758 2.125l-.835 2v9.937h-1.825Zm0 0"/>
</svg>
