<svg xmlns="http://www.w3.org/2000/svg" width="120" height="120" viewBox="0 0 120 119">
    <path d="m99.328 45.16-5.246-5.203-7.875-7.805-5.246-5.203L59.973 6.133l-3.938 3.902L38.98 26.95l-5.246 5.203-7.87 7.805-5.25 5.203h13.12v28.621h-13.12l5.25 5.203L38.98 91.996l20.993 20.813 3.933-3.899 17.055-16.914 13.121-13.012 5.246-5.203H86.207v-28.62Zm-13.117-5.203h-5.25v5.203h.004v28.621h-.004v5.203h5.25l-5.25 5.207-20.988 20.817L38.98 84.19l-5.246-5.207h5.246V39.957h-5.246l5.246-5.203 20.993-20.816L80.96 34.754l5.246 5.203Zm0 0"/>
    <path fill="#f9f9f9" d="m47 26.918 13.023-12.914 13.07 12.96L86.165 39.93h-5.246v39.16l2.48.055 2.485.05-12.977 12.868-12.98 12.867-25.953-25.735 2.527-.093 2.531-.094.051-19.535.047-19.532-2.578-.054-2.578-.051Zm0 0"/>
</svg>
