<svg xmlns="http://www.w3.org/2000/svg" width="120" height="120" viewBox="0 0 120 120">
    <path d="m88.09 11.5-2.254.063-2.234.187-2.188.316-2.129.434-2.039.55-1.45.497-.487.164-1.813.77-1.672.863-1.488.937-.027.016-1.344 1.035-1.16 1.105-.97 1.165-.757 1.214-.55 1.247-.329 1.277-.101 1.16h-.012v3.035L36.992 39.172l.004.004v.008H37l-.031.011-.157.07-.312.15-.305.155-.152.082-.148.086h-.004l-.145.086-.148.09-.29.188-.14.093-.14.102-.09.062-.047.04-.141.101-.133.105-.047.04-.086.07-.132.11-.258.226-.13.117-.124.117-.242.242-.118.125-.117.13-.113.124-.113.133-.11.129-.109.137-.105.133-.024.035-.078.101-.102.14-.058.083-.04.058-.097.141-.187.29-.09.148-.172.296-.024.043-.058.11-.156.304-.075.153-.074.156-.066.16-.059.133-.012.023-.398.97-.012.027-.023.058-.016.035-.055.118-.054.113-.063.117-.062.11-.063.113-.066.109-.07.11-.149.21-.078.102-.074.094-.008.007-.082.098-.086.098-.18.187-.09.09-.093.086-.098.086-.058.05-.04.032-.101.082-.102.078-.21.149-.11.07-.11.066-.113.067-.113.062-.113.059-.063.031-.054.024-.118.054-.043.02-.074.031.024.05-2.032.84-1.535.637-5.867 2.43-.027.012-.004-.012-.309.129-.304.133-.305.144-.297.145-.297.156-.293.16-.289.164-.57.352-.278.183-.23.164-.043.028-.27.195-.265.203-.262.207-.258.211-.254.219-.074.07-.172.153-.105.101-.137.13-.238.233-.235.239-.226.242-.227.25-.215.254-.21.258-.207.261-.204.266-.195.27-.187.277-.184.277-.133.211-.047.07-.172.29-.164.289-.16.293-.097.191-.055.105-.149.301-.14.301-.133.305-.129.308-.121.313-.113.312-.11.317-.101.32-.094.32-.086.32-.082.325-.074.324-.067.328-.015.102-.043.226-.051.332-.047.329-.039.332-.031.332-.027.332-.016.336-.012.332-.004.332h.004v13.093l.008.48.02.481.03.48.044.477.054.477.07.476.083.477.094.473.105.468.121.465.129.465.094.309.047.148.156.457.168.45.176.449.191.441.2.438.214.43.223.425.234.422.246.41.145.23.113.18.27.399.277.39.285.387.3.379.306.37.316.36.328.356.203.207.133.137.344.335.355.325.36.32.191.156.043.035.137.114.379.297.382.289.395.277.398.27.407.253.414.246.422.239.425.222.43.211.438.204.074.03.367.16.445.177.453.168.457.152.457.145.465.128.465.122.469.105.473.094.25.043.222.039.477.066.48.059.477.043.48.031.48.02.352.003v.004h26.45l.335.012.332.016.02.004.312.023.333.031.332.04.332.046.328.051.328.059.328.07.324.07.324.082.325.086.32.098.316.097.317.11.082.027.23.086.313.121.308.13.305.132.305.14.3.149.293.152.297.16.29.165.285.171.28.18.282.184.273.187.27.196.27.203.14.11.121.097.258.21.25.22.25.222.234.219.012.008.238.234h-1.867v5.25h48.563v-84h-.012l-.102-1.16-.332-1.274-.546-1.25-.762-1.214-.965-1.165-1.16-1.105-1.344-1.035-.027-.016-1.489-.937-1.671-.864-1.817-.77-1.933-.66-2.043-.55-2.125-.434L93 11.812l-.422-.058-2.234-.191Zm0 5.246 1.738.04 1.727.112 1.445.16.242.032 1.64.258 1.575.332 1.496.394 1.399.461 1.293.52 1.168.574 1.039.621.894.664.746.695.586.73.426.75.254.766.086.758v78.637H71.07l-.11-.172-.046-.074-.168-.254-.219-.32-.191-.27V24.621l.086-.766.254-.765.426-.75.585-.73.747-.696.894-.664 1.04-.621 1.167-.574.262-.106 1.031-.414 1.399-.46 1.496-.395 1.574-.332 1.64-.258 1.688-.192 1.727-.113Zm-15.164 7.879-2.422 1.004 9.039 21.828 1.766-.734.66-.27Zm7.96 0-2.425 1.004 9.043 21.828 2.422-1.004Zm7.876 0-2.426 1.004 9.043 21.828 2.422-1.004Zm7.875 0-2.426 1.004 9.043 21.828 2.422-1.004Zm-31.551 8.594v63.82l-.07-.05-.325-.216-.328-.207-.332-.203-.336-.195-.34-.191-.343-.184-.117-.059-.23-.117-.352-.172-.352-.164-.356-.156-.359-.152-.36-.145-.366-.137-.368-.132-.254-.086-.113-.04-.097-.03-.274-.087-.375-.109-.375-.105-.07-.016-.305-.078-.379-.09-.383-.082-.382-.074-.383-.07-.383-.063-.387-.05-.387-.048-.386-.043-.39-.031-.388-.023-.39-.02-.387-.012h-.258v-.004h-26.25l-.265-.003-.395-.02-.394-.027-.395-.043-.395-.055-.39-.066-.39-.075-.344-.082-.043-.007-.383-.102-.38-.113-.378-.121-.371-.137-.367-.145-.368-.16-.359-.168-.352-.176-.347-.191-.344-.2-.336-.21-.273-.184-.055-.035-.324-.23-.317-.243-.308-.246-.297-.257-.004-.004-.293-.266-.285-.277-.274-.282-.27-.293-.257-.3-.25-.309-.238-.316-.23-.325-.223-.328-.207-.336-.2-.343-.19-.348-.08-.156-.1-.2-.102-.218-.067-.14-.156-.364-.148-.367-.133-.375-.125-.375-.113-.383-.098-.383-.09-.387-.078-.386-.066-.391-.051-.395-.043-.394-.031-.395-.02-.394-.004-.29V67.149h-.004l.004-.222v-.059l.008-.199.016-.262.023-.258.031-.257.035-.258.04-.254.046-.258.055-.254.063-.254.066-.25.02-.066.054-.18.078-.25.082-.246.094-.242.098-.242.101-.239.11-.234.113-.234.121-.23.125-.227.047-.075.086-.148.137-.219.144-.218.145-.215.312-.414.164-.204.168-.195.172-.195.18-.188.183-.187.184-.18.191-.176.196-.172.203-.164.203-.16.207-.156.21-.152.216-.145.218-.14.223-.133.227-.13.226-.124.106-.051.125-.066.234-.114.238-.105.114-.047.007.012.125-.051 3.457-1.434.47-.195 5.648-2.34-.008-.02-.012-.023v-.004l-.004-.004.086-.035.156-.07.114-.05.043-.02.156-.075.152-.078.153-.082.148-.082.152-.082.149-.09.144-.086.29-.187.28-.195.141-.102.274-.21.066-.056.067-.05.132-.114.13-.109.128-.113.125-.117.043-.043.082-.079.121-.117.121-.125.235-.25.117-.129.11-.129.218-.265.211-.274.102-.136.097-.145.098-.14.016-.024.078-.121.09-.145.046-.07.215-.371.164-.305.074-.152.079-.156.14-.313.055-.133h.004l.008-.027.402-.969.008-.023.011-.027.032-.067.05-.117.06-.117.058-.114.125-.226.07-.11.14-.21.157-.211.082-.098v-.004l.082-.094.086-.097.086-.094.09-.094.093-.09.086-.082.008-.008.098-.082.097-.085.204-.157.105-.078.211-.14.113-.07.11-.063.113-.063.113-.058.117-.059.11-.047.008-.004.117-.054-.004-.008 2.016-.832Zm-17.719 15.82-.515.023-.508.075-.5.125-.153.054-.332.121-.464.22-.446.265-.414.308-.379.344-.347.383-.305.414-.016.024-.25.417-.222.465-.043.125-.13.36-.124.5-.032.21-.042.301-.028.516.028.512.074.511.097.383.028.117.172.485.222.465.266.441.305.414.347.383.383.344.41.308.446.266.347.164.117.055.332.12.153.056.5.124.508.075.515.023.516-.023.508-.075.5-.124.484-.176.469-.219.148-.09.293-.176.414-.308.38-.344.347-.383.308-.414.262-.441.223-.465.172-.484.03-.118.095-.383.078-.511.023-.512-.023-.516-.047-.3-.031-.211-.125-.5-.172-.485-.223-.465-.246-.417-.016-.024-.308-.414-.348-.383-.379-.344-.414-.308-.293-.176-.148-.09-.469-.218-.484-.176-.5-.125-.508-.075Zm25.559 1.836-2.422 1.004.66 1.594 2.512 6.062 5.867 14.172.027-.012 2.399-.992-5.453-13.168-2.512-6.062Zm7.96 0-2.425 1.004 9.043 21.828 2.422-1.004Zm7.876 0-2.426 1.004 9.043 21.828 2.422-1.004Zm7.875 0-2.426 1.004 9.043 21.828 2.422-1.004ZM72.926 76.867l-.18.078-2.242.926 2.242 5.414L79.543 99.7l2.426-1.004Zm7.96 0-.027.012-2.398.992L87.504 99.7l2.394-.992.028-.012Zm7.876 0-1.758.73-.668.274L95.379 99.7l.668-.277 1.754-.727Zm7.875 0-1.766.735-.66.27 9.043 21.827.656-.273 1.766-.73ZM67.195 98.43l1.13 1.261.128.153.125.144.129.153.133.152.125.148-.133-.144-.262-.285-.27-.282-.273-.277-.28-.27-.286-.265-.266-.242Zm0 0"/>
    <path fill="#5aad6d" d="M64.027 96.293c-1.359-.848-3.566-1.766-5.582-2.316l-1.78-.485-15.74-.11c-17.421-.116-16.484-.05-19.234-1.355-3.261-1.55-5.586-4.183-6.843-7.75l-.516-1.472v-8.836c0-8.754.004-8.844.426-10.067.75-2.168 2.574-4.468 4.46-5.625.36-.218 2.884-1.32 5.614-2.445 2.727-1.125 5.531-2.344 6.227-2.71 2.28-1.2 4.027-3.153 5.027-5.622.531-1.324 1.105-2.137 1.973-2.797.59-.45 26.77-11.406 26.91-11.266.039.04.05 14.329.023 31.75l-.047 31.68Zm-14.78-37.059c2.476-.843 3.956-3.797 3.202-6.39-.426-1.465-1.281-2.496-2.664-3.215-1.648-.852-3.183-.852-4.832 0-1.383.719-2.238 1.75-2.664 3.215-.742 2.55.715 5.523 3.125 6.379 1.012.359 2.8.363 3.832.011m21.512 43.371-.383-.535.094-50.11 4.5 10.876C80.004 75 79.355 73.914 81.125 73.129c.648-.285.855-.469.79-.695-.192-.657-8.81-21.297-8.95-21.438-.082-.082-.653.063-1.27.32-.617.262-1.168.473-1.222.473-.051 0-.09-6.23-.082-13.848.007-10.117.07-14.007.23-14.437 1.067-2.89 5.32-5.18 11.625-6.25 2.336-.399 8.637-.453 11.043-.098 5.945.88 10.793 3.215 12.047 5.805.375.777.383.973.336 11.996l-.05 11.203-4.4-10.668c-2.421-5.867-4.449-10.722-4.507-10.793-.149-.172-2.453.817-2.45 1.047 0 .102 2.016 5.043 4.473 10.98l4.469 10.797.934-.375a21 21 0 0 1 1.254-.464c.304-.086.32.609.304 12.863-.008 7.121-.05 12.867-.097 12.766-.043-.102-2.059-4.946-4.473-10.766-4.895-11.793-4.332-10.86-6.059-10.086l-.937.422 4.492 10.832c2.469 5.957 4.535 10.875 4.586 10.93.05.05.617-.114 1.254-.372l1.156-.46.05 6.433a998 998 0 0 1 0 12.793l-.05 6.356-4.398-10.649c-2.418-5.855-4.453-10.71-4.52-10.789-.09-.105-2.3.645-2.531.86-.098.09 8.965 21.734 9.121 21.788.098.032.68-.148 1.297-.398l1.125-.457v4.39H71.137Zm10.195-3.41c.559-.246 1.02-.5 1.02-.558 0-.188-8.864-21.532-9-21.68-.172-.18-2.414.785-2.414 1.04 0 .515 8.914 21.648 9.132 21.648.137 0 .704-.204 1.262-.45m7.879.035c.883-.34 1.063-.48 1-.78-.059-.302-8.742-21.41-8.879-21.59-.023-.032-.598.167-1.273.44-.918.368-1.215.567-1.157.79.254.95 8.91 21.555 9.055 21.555.098 0 .66-.188 1.254-.415m7.95-.035c.562-.246 1.019-.5 1.019-.562 0-.195-8.856-21.528-8.996-21.676-.172-.176-2.414.781-2.414 1.031 0 .508 8.918 21.657 9.132 21.657.133 0 .7-.204 1.258-.45m-7.743-26.047c.465-.199.848-.445.848-.546 0-.172-8.813-21.559-8.946-21.711-.074-.082-2.125.714-2.355.918-.094.082 1.789 4.879 4.324 11.02 5.024 12.155 4.38 11.07 6.13 10.32m7.914-.02c.649-.284.86-.468.793-.694-.191-.657-8.808-21.297-8.95-21.438-.175-.176-2.273.664-2.366.945-.035.102 1.949 5.043 4.406 10.98 4.996 12.063 4.352 10.99 6.117 10.208M80.82 47.005c.633-.25 1.153-.516 1.153-.586 0-.191-8.856-21.57-8.993-21.715-.171-.176-2.421.766-2.421 1.016 0 .312 8.914 21.84 9.02 21.789.05-.024.612-.25 1.241-.504m9.067-.629c0-.145-8.746-21.484-8.926-21.777-.063-.102-2.488.949-2.488 1.082 0 .11 5.902 14.457 8.742 21.258l.25.597 1.21-.48c.665-.266 1.212-.57 1.212-.68m7.91.04c.004-.192-8.844-21.567-8.988-21.712-.067-.066-.645.098-1.286.363-.968.399-1.148.543-1.082.856.079.367 8.473 20.687 8.797 21.293.149.277.278.258 1.36-.184.66-.265 1.199-.547 1.199-.617m0 0"/>
</svg>
