<svg xmlns="http://www.w3.org/2000/svg" width="120" height="120" viewBox="0 0 120 120">
    <path d="m22.527 22.86.004.175.004.078.004.184v.074l.012.121.027.395.063.511.09.516.113.512.136.508.165.511.19.508.08.184.132.32.238.5.266.5.285.492.16.254.152.238.336.489.356.48.387.48.406.473.066.075.36.394.453.465.476.457.496.45.172.151.348.293.539.442.492.379.07.05.582.426.606.418.625.41.645.403.664.394.468.266-.004.004-.027.012-.043.015-.07.031-.082.036-.106.043-.125.05-3.203 1.325-4.066 1.687-.973.402-1.969.817-3.968 1.644-.098.04.004.015-.578.254-.696.34-.68.379-.66.41-.636.441-.613.469-.594.504-.012.012-.55.52-.54.558-.511.582-.48.605-.435.61-.02.023-.417.652-.387.672-.355.692-.317.707-.285.722-.246.735-.21.746-.177.754-.136.765-.098.77-.062.773-.016.59-.008.184.016.773.054.778.09.77.13.76.167.759.203.75.242.738.274.723.312.71.348.696.379.676.18.285.234.37.445.634.473.613.039.047.465.543.535.562.559.535.105.09.484.418.61.48.633.446.652.418.676.383.691.351.711.313.723.281.734.242.746.207.278.063.48.11.766.132.77.098.773.054.773.02H55.97v.035h.261l.258.012.258.015.262.024.258.027.254.035.257.043.258.047.254.055.25.058.25.067.25.074.25.078.242.086.11.043.136.047.239.098.476.21.23.118.04.02.191.1.227.126.226.133.219.136.219.141.21.148.212.153.207.16.199.164.2.168.194.172.188.176.184.183.18.188.179.191.144.168.024.027.168.2.16.203.156.21.149.212.148.215.137.218.137.223.128.223.122.23.117.23.078.16.035.075.105.238.09.207-.011.008.011.027 1.63 3.93 1.929 4.66 1.426 3.442h-1.426v5.25h42V52.516h-5.25v2.195l-3.246-3.246L90.69 39.402l-.011-.015.011-.012-.375-.375-.382-.367-.106-.098-.203-.203-.008.008-.074-.07-.39-.356-.4-.352-.401-.347-.407-.34-.414-.336-.414-.332-.422-.324-.191-.145-.23-.175-.43-.313-.434-.305-.437-.3-.442-.297-.445-.29-.45-.285-.452-.277-.457-.27-.461-.265-.461-.258-.47-.254-.19-.097-.278-.149-.476-.238-.477-.235-.48-.226-.149-.067-.332-.152-.488-.215-.488-.207-.493-.203-.492-.191-.5-.188-.496-.18-.504-.175-.504-.168-.508-.16-.507-.153-.508-.144-.41-.113-.106-.028-.406-.105-.106-.028-.515-.125-.52-.12-.515-.114-.524-.102-.52-.101-.523-.09-.527-.082-.523-.078-.028-.004-.5-.066-1.055-.118-.527-.047-.531-.043-.531-.03-.528-.028-.53-.02-.099-.004-.433-.007-.531-.008-.532.004-.53.008-.532.015-.531.024-.528.03-.531.04-.152.012-.375.03-.508.052h-.07l-.32-.008-2.032-.043-.996-.027-1.016-.028-1.988-.07-.406-.016-1.551-.066-1.926-.09-1.883-.105-1.84-.118-.675-.047-1.117-.078-1.747-.14-1.683-.149-1.371-.133-.254-.023-1.563-.168-1.492-.18-1.422-.187-1.343-.195-1.27-.204-1.188-.21-.07-.012-1.031-.203-1.016-.227-.93-.23-.835-.235-.739-.242-.488-.183-.16-.06-.55-.25-.454-.25-.352-.253-.253-.258-.149-.258Zm8.278 6.25.402.136.855.27.887.261.926.254.953.246.988.239 1.02.234 1.047.219.254.05.824.165 1.102.207 1.132.195 1.157.184 1.175.18.528.07.675.093 1.223.157 1.242.148 1.258.137 1.281.125 1.293.117.903.074.406.031 1.324.094 1.328.082.352.02.992.054 1.355.063 1.36.05.594.016.77.024 1.37.027 1.375.016.785.004h.457l.02.003h.012l.222.008.254.04.254.062.242.086.23.113.223.133.207.152.192.172.172.191.156.208.133.222.11.23.085.243.063.25.039.258v.015l.011.242-.011.254-.04.258-.062.25-.086.242-.11.235-.132.218-.156.208-.172.19-.059.052-.132.12-.208.157-.222.133-.23.11-.243.085-.254.063-.254.039-.125.004-.117.007h-.012l-.457-.003-.441-.004-1.031-.016-1.028-.031-1.027-.043-.773-.043-.25-.016-1.016-.066-1.016-.078-1.007-.094-1-.106h-.012l-.985-.117-.988-.129-.976-.136-.461-.075-.508-.078-.957-.164-.945-.176-.938-.183-.922-.2-.91-.206-.012-.004-.883-.215-.878-.23-.868-.243-.054-.015-.793-.235-.832-.261-.817-.27-.797-.281-.777-.29-.738-.288-.02-.008-.738-.309-.406-.18-.313-.136-.687-.32-.012-.008-.676-.332-.656-.34-.629-.352-.61-.355-.585-.364-.25-.168-.309-.203-.535-.379-.512-.382-.488-.391-.457-.395-.125-.113-.117-.11-.102-.093-.09-.086h-.004Zm41.297 5.261h.007l.067.02.02.004.077.023.27.078.094.027.922.29.457.156.453.16.453.168.45.172.448.183.442.184.445.195.137.063.3.133.438.207.434.21.43.22.425.222.426.23.422.235.418.242.414.246.41.254.184.117.222.14.403.263.398.273.394.273.395.282.387.289.144.11.239.183.378.297.375.3.372.309.367.316.363.317.356.324.226.21.805.802 2.777 2.78.945.946 4.645 4.64 10.668 10.673V91.89h-29.64l-3.36-8.102-2.43-5.871-.011-.023.011-.004-.129-.309-.136-.309-.141-.3-.145-.301-.156-.293-.16-.293-.164-.29-.176-.288-.113-.18-.063-.101-.187-.278-.188-.273-.168-.23-.027-.04-.203-.265-.176-.223-.031-.043-.43-.508-.453-.492-.234-.238-.239-.23-.117-.114-.129-.117-.246-.223-.254-.215-.257-.215-.262-.207-.266-.199-.273-.195-.274-.192-.277-.183-.281-.176-.278-.164-.011-.008-.29-.168-.292-.156-.297-.156-.301-.145-.3-.14-.31-.137-.304-.125-.313-.121-.312-.117-.316-.106-.32-.101-.321-.094-.32-.086-.293-.074-.032-.008-.324-.074-.328-.067-.328-.058-.332-.055-.328-.047-.664-.07-.332-.024-.336-.015-.332-.012-.309-.004v-.035h-31.5l-.601-.016-.602-.05-.598-.086-.59-.122-.582-.156-.574-.187-.015-.004-.547-.215-.547-.254-.531-.281-.516-.313-.5-.343-.172-.133-.305-.239-.453-.394-.43-.422-.406-.445-.379-.473-.351-.488-.324-.508-.293-.527-.262-.543-.11-.262-.124-.297-.2-.57-.164-.578-.133-.59-.097-.594-.063-.602-.03-.601.003-.469.004-.137.039-.601.074-.598.11-.593.144-.586.176-.579.207-.562.242-.555.047-.09.227-.449.3-.52.332-.503.364-.485.386-.46.414-.442.438-.414.46-.387.485-.363.422-.277.082-.055.52-.3.539-.278.55-.242-.003-.012.375-.156 3.562-1.473 5.477-2.27 8.164-3.382.879-.364.172-.07.542-.227.016-.003.598.214.047.016.804.277.864.282.879.27.89.257.227.063.675.187.915.238.925.227.168.035.77.176.949.203.957.191.965.18.976.168.575.094.406.062.238.035.75.11 1 .133 1 .117h.016l.992.105 1.016.094 1.02.082 1.019.07 1.023.059 1.028.043 1.03.031 1.028.02.902.004v.003l.012-.003.117.003v-.007l.641-.032.766-.113.75-.187.726-.262.7-.328.663-.399.622-.46.57-.52.52-.57.46-.622.188-.316.21-.348.329-.699.262-.726.187-.75.113-.766.04-.77-.04-.773-.113-.766Zm-24.11 9.219-.387.02-.382.058-.375.094-.11.039-.254.09-.347.168-.332.195-.313.23-.285.262-.262.285-.23.309-.195.332-.168.351-.13.364-.093.375-.059.383-.015.382.015.387.059.383.094.375.129.363.168.352.195.328.23.312.262.285.285.262.313.23.332.196.347.168.254.09.11.039.375.094.382.058.387.016.383-.016.383-.058.375-.094.363-.129.352-.168.332-.195.308-.23.285-.263.262-.285.004-.007.227-.305.199-.328.164-.352.129-.363.094-.375.058-.383.02-.387-.02-.382-.058-.383-.094-.375-.13-.364-.163-.351-.2-.332-.226-.3-.004-.009-.262-.285-.285-.262-.308-.23-.332-.195-.352-.168-.363-.13-.375-.093-.383-.059Zm0 0"/>
    <path fill="#ff4b4b" d="M59.824 38.422c-10.61-.64-20.203-3.195-25.832-6.875-1.293-.848-2.726-1.985-2.625-2.082.031-.031.945.183 2.031.48 7.36 2.024 19.313 3.438 29.032 3.438 2.289 0 2.515.027 3.14.355 1.715.907 1.82 3.395.184 4.407-.5.308-.793.359-2.184.382a63 63 0 0 1-3.746-.105m0 0"/>
    <path fill="#ff4b4b" d="M76.281 91.504c-.074-.145-1.355-3.223-2.844-6.84-1.492-3.613-2.906-7-3.144-7.523-.766-1.672-1.824-3.137-3.348-4.625-1.687-1.657-3.273-2.68-5.36-3.465-2.878-1.082-1.562-1.012-21.25-1.117-19.75-.106-18.308-.028-20.558-1.137-2.445-1.211-4.449-3.598-5.261-6.27-1.493-4.894.89-10.246 5.547-12.457 1.578-.75 19.457-8.113 19.695-8.113.125 0 .633.14 1.129.313 2.793.972 7.562 2.125 10.992 2.656 4.863.758 11.605 1.191 13.625.879 1.758-.27 3.21-1.012 4.476-2.282 1.645-1.648 2.383-3.55 2.278-5.886-.028-.649-.043-1.184-.031-1.184.168.004 2.722.914 3.71 1.32 2.817 1.164 5.954 3.024 8.27 4.91.629.512 5.77 5.532 11.426 11.153l10.277 10.219v29.718H91.164c-13.887 0-14.75-.015-14.883-.27M49.56 51.19c1.765-.738 2.77-2.863 2.254-4.77-.43-1.593-2.114-2.847-3.82-2.847-3.31 0-5.153 3.778-3.138 6.418.426.559 1.512 1.254 2.258 1.442.617.156 1.766.043 2.446-.243m0 0"/>
</svg>
