<svg xmlns="http://www.w3.org/2000/svg" width="120" height="120" viewBox="0 0 120 120">
    <path d="m88.727 11.043-.051.031-.496.297-.977.586-.547.406-.133.098-.875.648-1.43 1.297-1.296 1.434-1.152 1.55-.504.844-.489.813-.828 1.746-.648 1.82-.469 1.875-.285 1.91-.094 1.93.094 1.93.285 1.91.469 1.875.496 1.395.152.425.828 1.746.676 1.13.012.015v.004l-.145.004h-.004l-.324.015-.379.016-.422.027-.28.016-.7.059-.7.066-.698.082-.696.094-.695.105-.692.121-.69.13-.274.058-.004-.004-.27-.813-.285-.863L70.73 27.45l-4.082 12.246v-.004l-.574-.957-.422-.699-.824-1.746-.305-.852-.347-.968-.469-1.871-.281-1.914-.098-1.93.098-1.93.281-1.91.469-1.875.652-1.82.703-1.489-.047.028-1.48.887-.676.503-.34.25-.535.399-1.43 1.297-1.214 1.34-.082.09-1.079 1.453-.02.027-.054.074-.906 1.508-.086.148-.828 1.746-.652 1.82-.47 1.876-.28 1.91-.02.352-.078 1.578.098 1.93.28 1.91.47 1.874.652 1.817.828 1.75.086.144.035.059.477.793.008.016.003.004-.093.074-.086.066-.168.14-.176.141-.2.164-.534.457-.528.465-.515.473-.512.484-.453.446-.012-.008v-.004l-.09.09-.094.09-.097.086-.098.082-.101.078-.047.039-.055.043-.21.148-.11.07-.11.067-.113.066-.11.059-.117.062-.113.055-.12.055-.017.008-.101.043-.117.046-.121.047-.125.04-.121.038-.25.07-.125.032-.118.023h-.007l-.125.028-.13.02-.257.03-.13.012-.124.008-.129.004h-.094v-.02l-.035.02-.883.441-.078.036L18.82 67.94l-9.582 4.79 41.004 15.984v.066h.13l.257.016.258.023.125.02.129.02.129.023.25.055.25.07.12.039.243.086.101.043.02.004.039.02.078.03.117.055.117.059.114.058.226.125.11.07.105.071.11.07.101.078.106.079.097.078.102.086.094.082.093.09.047.042.047.047 13.492 13.496v5.141h43.313v-63h-5.25v.05l-.336-.237-.582-.395-.586-.387-.594-.375-.602-.363-.363-.21-.246-.142-.613-.343-.567-.301-.054-.031-.625-.32-.63-.31-.636-.296-.644-.285-.118-.051-.004-.012-.917-2.761-.149-.45-1.101-3.3-1.278-3.836-1.43-4.282-1.933 5.801-.512-.562-1.148-1.551-.992-1.656-.829-1.75-.648-1.817-.473-1.875-.28-1.91-.095-1.93.09-1.836.004-.093.281-1.914.473-1.875.648-1.817ZM83.78 22.988l.016.09.594 2.371.824 2.305 1.047 2.215.261.441.555.918.442.738.742 1 .715.965.64.711.633.696.352.386-.02.059-.95 2.855-.038.11-.153.46-.004.008-.417-.07-.227-.035-.469-.074-.695-.094-.7-.082-.699-.066-.703-.06-.699-.042-.117-.004-.008-.012-.02-.023-.011-.016-.395-.535-.726-1.215-.235-.492-.37-.785-.098-.273-.383-1.063L82.12 33l-.207-1.402-.07-1.414.07-1.414.207-1.403.344-1.375.48-1.332.371-.789.235-.492.02-.031Zm-23.195 8.688.012.09.593 2.37.465 1.301.364 1.004.968 2.051.075.164.05.082.215.356.996 1.66 1.36 1.836-.008.027-.582.285-.625.32-.621.333-.614.34-.156.093-.09.051-.36.211-.6.363-.594.375-.59.387-.477.324-.004-.004-.008-.011-.011-.024-.016-.039-.055-.11-.527-1.113-.476-1.336-.344-1.374-.207-1.403-.07-1.414.003-.133.067-1.281.207-1.402.156-.617.188-.758.476-1.332.375-.79.23-.492.02-.03Zm32.852 3.515.082.246 1.101 3.301.688 2.067-.153-.055-.672-.215-.671-.203-.676-.191-.68-.18-.562-.14.003-.016.012-.024.012-.043.016-.047.011-.039.309-.914 1.097-3.3Zm-22.708.133 1.141 3.414.426 1.278.035.101.004.016-.031.008-.68.191-.035.012-.637.191-.668.219-.664.226-.66.239-.223.086.856-2.567Zm11.989 8.664.64.004.637.02.637.027.637.043.636.055.633.066.637.074.629.09.632.102.356.062.273.051.625.125.621.137.622.144.617.16.617.172.613.184.606.191.605.207.598.215.597.227.594.242.586.25.582.258.156.074.29.137.132.062.57.281.571.293.559.305.558.313.547.324.543.336.54.343.53.356.524.363.515.375.512.383.5.395.496.402.488.41.45.395.03.027.052.047v50.992H74.766l-7.317-7.316-9.781-9.786-.121-.12-.25-.235-.129-.113-.133-.114-.129-.109-.136-.105-.133-.106-.102-.078-.035-.027-.14-.102-.282-.195-.289-.188-.148-.09-.297-.171-.149-.079-.152-.082-.156-.078-.153-.074-.312-.14-.035-.016-.125-.051-.16-.066-.16-.063-.16-.058-.165-.055-.16-.055-.328-.101-.168-.043-.164-.043-.168-.043-.336-.07-.059-.012-.109-.024-.172-.027-.168-.027-.172-.024-.168-.02-.172-.019-.171-.016-.344-.023-.344-.008-.098-.004v-.035l-.074-.027-23.047-8.114h23.121v-5.25H24.988l25.254-12.628.074-.04.887-.44V57h.172l.172-.004.172-.008.172-.011.168-.012.257-.024.086-.011.172-.02.168-.023.172-.028.168-.027.504-.105.168-.043.164-.043.168-.043.164-.051.137-.043.027-.008.164-.055.16-.054.164-.059.16-.062.16-.067.157-.066.312-.14.157-.075.152-.078.152-.082.153-.078.148-.086.082-.051.067-.035.144-.09.29-.188.144-.097.14-.098.137-.101.137-.106.05-.039.024-.016.062-.05.133-.106.133-.11.258-.226.25-.234.074-.074h.004l.008.007.012-.011.027-.024.414-.41.465-.437.472-.43.48-.422.49-.41.491-.402.504-.395.508-.383.52-.375.015-.011.508-.352.531-.355.535-.344.543-.336.551-.324.555-.313.121-.066.441-.239.567-.293.574-.28.578-.274.582-.258.586-.25.59-.242.598-.227.601-.215.14-.047.466-.16.605-.191.613-.184.614-.172.32-.082.297-.078.621-.144.625-.137.625-.125.629-.113.629-.102.633-.09.632-.074.637-.066.637-.055h.02l.613-.043.64-.027.637-.02Zm-12.45 8.004-.386.02-.383.058-.375.094-.363.129-.348.164-.305.184-.027.015-.312.23-.286.262-.261.286-.227.308-.2.332-.167.352-.129.363-.094.375-.054.379-.02.387.02.386.054.383.063.242.031.133.129.364.168.347.2.332.226.313.066.07.195.215.286.262.312.226.332.2.348.167.363.13.375.093.383.055.387.02.382-.02.383-.055.375-.094.18-.062.183-.067.352-.168.332-.199.309-.226.285-.262.261-.285.231-.313.2-.332.163-.347.13-.364.034-.133.059-.242.058-.383.02-.386-.02-.387-.058-.379-.094-.375-.129-.363-.164-.352-.199-.332-.23-.308-.262-.286-.285-.261-.309-.23-.027-.016-.305-.184-.352-.164-.363-.129-.375-.094-.383-.058ZM86.39 57.77l-.051.027-.5.3-.977.587-.547.402-.129.098-.878.652-.036.031-1.394 1.266-1.297 1.43-1.152 1.55-.993 1.66-.058.125-.766 1.622-.652 1.82-.125.504-.344 1.367-.285 1.914-.094 1.93.094 1.925.285 1.915.469 1.87.652 1.82.825 1.747.992 1.66.074.102.484.648.227.305.367.496 1.297 1.43 1.855-1.856-.066-.07-.887-.977-.844-1.14-.726-1.215-.234-.492-.372-.79-.476-1.331-.348-1.375-.207-1.403-.07-1.414.07-1.418.207-1.398.348-1.375.476-1.336.372-.785.234-.496.156-.258.074-.13.016.087.012.043.582 2.332.824 2.304 1.047 2.211.266.442.992 1.66.742 1 .715.965.644.707.98 1.086-.019.058-1.476 4.438-.918 2.746h2.625l.918-2.746 1.707-5.129 1.71 5.129.387 1.156.528 1.59h2.625l-1.184-3.559-2.637-7.91-1.43-4.281-1.933 5.8-.508-.562-1.152-1.55-.992-1.657-.828-1.746-.649-1.82-.472-1.875-.118-.79-.164-1.12-.094-1.93.094-1.93.281-1.91.473-1.875.649-1.82.601-1.266Zm0 0"/>
    <path fill="#f9f9f9" d="M65.594 94.46c-8.996-8.972-9.121-9.085-10.68-9.843-1.062-.512-2.035-.832-2.973-.969-.937-.14-5.09-1.496-12.652-4.136l-11.262-3.926 22.336-.188.051-2.644.05-2.649-12.589-.011-12.59-.008 12.817-6.43c12.03-6.031 12.91-6.441 14.34-6.676 2.91-.472 4.308-1.218 7.09-3.785 3.921-3.62 8.347-6.144 13.495-7.699 3.559-1.074 5.262-1.297 9.844-1.293 3.719.004 4.3.05 6.438.504 5.539 1.176 10.207 3.34 14.601 6.762l1.531 1.195v50.879H74.7Zm24.254-8.472c1.086-3.238 1.27-3.656 1.43-3.25.1.254.671 1.95 1.273 3.762l1.09 3.297h1.347c.746 0 1.352-.063 1.352-.14 0-.243-5.055-15.364-5.184-15.509-.07-.078-.535 1.114-1.039 2.645s-.976 2.785-1.05 2.785c-.079 0-.512-.52-.965-1.16-4.23-5.93-4.973-12.98-2.079-19.711.168-.395.266-.758.215-.812-.218-.215-2.925 1.808-4.394 3.28-3.793 3.813-5.754 8.579-5.754 13.99 0 4.562 1.879 9.565 4.805 12.8l1.011 1.113.899-.887c.496-.488.902-.96.902-1.054 0-.09-.344-.551-.762-1.028-1.015-1.152-2.097-3.129-2.715-4.949-.457-1.36-.5-1.73-.496-4.273.004-2.532.051-2.926.508-4.274.278-.816.653-1.765.836-2.11l.336-.62.41 1.55c.996 3.758 3.149 7.723 5.555 10.22l.832.863-2.438 7.296 2.829-.109ZM71.914 59.543c.906-.414 1.832-1.43 2.137-2.355.355-1.083.148-2.567-.485-3.485-.793-1.144-2.27-1.863-3.566-1.738-4.059.39-5.11 5.734-1.484 7.531.988.488 2.382.508 3.398.047M59.941 44.645c-1.527-3.56-1.515-8.153.036-11.508l.554-1.207.332 1.207c.875 3.218 2.41 6.418 4.106 8.57.293.375.535.719.535.77 0 .046-.899.597-2 1.218-1.098.625-2.258 1.305-2.574 1.512l-.582.383Zm9.774-6.059c.469-1.414.906-2.633.972-2.707.067-.074.442.828.829 2.012.39 1.18.68 2.164.644 2.187-.035.024-.691.234-1.457.477a57 57 0 0 0-1.617.52c-.125.046.144-1.028.629-2.49m18.637.497c-.461-.074-1.48-.2-2.27-.27l-1.434-.132-.558-.91c-1.422-2.313-2.094-4.754-2.094-7.606 0-2.258.336-3.898 1.172-5.707l.578-1.258.442 1.63c1.015 3.75 3.44 8.136 5.707 10.32l.644.62-.578 1.75c-.316.961-.621 1.739-.676 1.727-.05-.012-.472-.086-.933-.164m5.015 1.078c-.664-.207-1.234-.402-1.273-.433-.035-.036.25-1.008.636-2.164l.7-2.102.804 2.41c.442 1.324.805 2.473.805 2.55 0 .208-.305.161-1.672-.26m0 0"/>
</svg>
