<svg xmlns="http://www.w3.org/2000/svg" width="120" height="120" viewBox="0 0 120 120">
    <path d="m40.05 13.8-1.03.052H39L38 14l-.715.18-.285.07-.969.348-.93.441-.886.531-.824.614-.313.285-.453.406-.691.766-.614.824-.53.887-.442.93-.172.488-.172.48-.254 1-.148 1.02-.051 1.03.035.77.016.258.148 1.02.254 1 .344.972.441.93.074.121.457.762.614.828.691.762.766.695.824.613.887.528.23.113.7.328.968.348.285.07.715.18 1 .148v41.746L20.875 47.18l-.25-.407-3.344-5.41-.05-.078-.032-.05.488-.075 1-.25.97-.347.425-.2.504-.242.039-.02.848-.507.824-.614.765-.695.692-.762.613-.828.531-.883.442-.93.348-.972.058-.238.192-.762.148-1.02.05-1.027-.05-1.031-.066-.46-.082-.56-.25-1-.348-.968-.442-.93-.507-.844-.024-.043-.613-.824-.692-.765-.765-.692-.824-.613-.848-.508-.04-.023-.503-.239-.426-.203-.968-.344-1-.253-1.02-.149-1.031-.05-1.028.05-1.02.148-1 .254-.456.16-.512.184-.934.442-.882.53-.828.614-.762.692-.695.765-.614.824-.023.043-.504.844-.441.93-.348.968-.25 1-.082.56-.07.46-.051 1.031.05 1.028.153 1.02.187.76.063.24.348.972.44.93.528.882.614.828.695.766.762.691.828.614.883.527.792.375.141.066.969.348 1 .25 1.02.153.203.007v.024l.003.02 5.809 44.12V106.2h78.75V85.484l5.809-44.12.004-.044.203-.008.707-.105.312-.047 1-.25.969-.347.933-.442.883-.527.203-.153.625-.46.762-.696.695-.762.614-.828.527-.883.442-.93.347-.972.063-.238.187-.762.04-.254.112-.765.051-1.028-.05-1.031-.114-.762-.039-.258-.25-1-.347-.968-.442-.93-.504-.844-.023-.043-.614-.824-.695-.765-.762-.692-.828-.613-.882-.531-.934-.442-.512-.183-.457-.16-1-.255-.312-.042-.707-.106-1.028-.05-1.031.05-1.02.148-1 .254-.968.344-.93.442-.039.023-.848.508-.824.613-.766.692-.69.765-.614.824-.024.043-.507.844-.442.93-.347.968-.25 1-.149 1.02-.05 1.031.05 1.028.148 1.02.192.76.058.24.348.972.442.93.53.882.614.828.692.762.558.508.207.187.824.614.848.508.04.02.929.44.969.348 1 .25.488.074-.082.13-3.344 5.41-.25.406L81 76.492V34.746l1-.148 1-.25.969-.348.699-.328.23-.113.887-.528.824-.613.766-.691.691-.766.614-.828.215-.356.316-.527.441-.93.344-.972.254-1 .148-1.02.016-.258.035-.77-.05-1.03-.149-1.02-.254-1-.344-.969-.441-.93-.316-.527-.215-.36-.614-.823-.691-.766-.453-.406-.313-.285-.824-.614-.887-.53-.93-.442-.968-.344L82 14l-1-.148h-.02l-.687-.036-.344-.015-1.027.05-1.02.149-1 .254-.972.344-.93.441-.883.531-.828.614-.312.285-.454.406-.691.766-.14.191-.473.633-.528.887-.441.93-.348.968-.25 1-.152 1.02-.05 1.03.038.77.012.258.152 1.02.25 1 .348.972.441.93.528.883.472.637.141.19.691.767.766.691.828.613.883.528.234.113.696.328.972.348 1 .25.996.148-.023.055-3.125 6.937-6.3 14.004-9.45 21-15.75-35.004-3.125-6.937-.023-.051v-.004l.996-.148 1-.25.968-.348.7-.328.234-.113.883-.528.004-.004.824-.609.762-.691.695-.766.613-.828.528-.883.441-.93.348-.972.25-1 .152-1.02.012-.258.039-.77-.051-1.027-.152-1.02-.25-1-.348-.972-.441-.93-.528-.882-.613-.828-.695-.766-.762-.691-.824-.61-.004-.004-.883-.53-.934-.438-.968-.348-1-.25-1.02-.152Zm0 5.25.516.024.508.078.5.125.485.172.464.223.446.262.41.308.383.344.164.184.183.199.305.414.266.441.222.465.172.488.125.5.074.508.028.516-.028.515-.035.254-.039.254-.125.5-.172.485-.222.464-.266.446-.305.41-.347.383-.383.347-.41.305-.446.266-.464.222-.473.168-.012.004-.183.047-.317.078-.508.074-.515.028-.516-.028-.508-.074-.027-.008-.293-.07-.18-.047-.484-.172-.469-.222-.289-.172-.152-.094-.414-.305-.383-.347-.344-.383-.308-.41-.262-.446-.223-.464-.172-.485-.125-.5-.078-.508-.023-.515.023-.516.078-.508.125-.5.172-.488.223-.465.262-.441.308-.414.184-.2.16-.183.383-.344.414-.308.152-.09.29-.172.464-.223.488-.172.473-.12.027-.005.508-.078Zm39.9 0 .515.024.508.078.027.004.473.121.488.172.465.223.441.262.414.308.383.344.16.184.184.199.308.414.266.441.219.465.172.488.125.5.078.508.023.516-.023.515-.078.508-.125.5-.172.485-.223.464-.262.446-.308.41-.344.383-.383.347-.414.305-.441.266-.465.222-.488.172-.18.047-.293.07-.027.008-.508.074-.172.012-.344.016-.511-.028-.512-.074-.317-.078-.183-.047-.485-.172-.464-.222-.442-.266-.414-.305-.383-.347-.347-.383-.305-.41-.266-.446-.218-.464-.176-.485-.125-.5-.04-.254-.034-.254-.028-.515.028-.516.074-.508.125-.5.176-.488.218-.465.266-.441.305-.414.183-.2.164-.183.383-.344.414-.308.442-.262.464-.223.485-.172.5-.125.511-.078Zm-64.313 6.563.144.008.371.016.508.078.5.125.488.172.465.222.442.262.414.309.383.343.343.383.309.414.078.133.184.309.222.465.137.386.035.102.125.5.078.508.024.515-.024.512-.078.512-.125.5-.035.101-.137.383-.222.465-.184.312-.012.024-.066.11-.309.41-.343.382-.383.348-.414.305-.442.265-.465.219-.488.176-.5.125-.508.074-.37.02-.145.007-.512-.027-.512-.074-.5-.125-.02-.008-.464-.168-.465-.219-.441-.265-.414-.305-.383-.348-.348-.383-.098-.132-.207-.282-.066-.105-.2-.336-.218-.465-.176-.484-.125-.5-.074-.512-.027-.512.027-.515.074-.508.125-.5.176-.488.219-.465.265-.442.207-.277.098-.137.348-.383.383-.343.414-.309.125-.074.316-.188.465-.222.484-.172.5-.125.512-.078Zm88.726 0 .516.024.508.078.5.125.21.074.274.098.465.222.316.188.13.074.41.309.382.343.348.383.305.414.265.442.223.465.172.488.125.5.074.508.027.515-.027.516-.074.508-.125.5-.172.484-.223.465-.199.336-.066.11-.305.41-.348.382-.383.348-.41.305-.445.265-.465.223-.273.097-.192.067-.02.008-.5.125-.507.074-.516.027-.515-.027-.508-.074-.5-.125-.485-.172-.468-.223-.09-.054-.352-.211-.414-.305-.383-.348-.343-.383-.309-.41-.062-.11-.2-.335-.222-.465-.137-.383-.035-.101-.125-.5-.078-.508-.024-.516.024-.515.078-.508.125-.5.035-.102.137-.386.222-.465.262-.442.309-.414.343-.383.383-.343.414-.309.352-.21.09-.052.468-.222.485-.172.5-.125.508-.078ZM44.25 53.7l13.125 28.875H44.25Zm31.5 0v28.875H62.625Zm-53.312 5.336 14.68 23.54H25.534Zm75.125 0-3.098 23.54H82.887Zm-71.688 28.79h68.25v13.128h-68.25Zm12.89 3.73-2.6 2.597 2.6 2.598 2.598-2.598Zm14.122 0-2.598 2.597 2.598 2.598 2.597-2.598Zm14.226 0-2.597 2.597 2.597 2.598 2.598-2.598Zm14.121 0-2.597 2.597 2.597 2.598 2.602-2.598Zm0 0"/>
    <path fill="#f9f9f9" d="M13.758 35.668c-1.883-.758-3.297-2.816-3.297-4.797 0-1.828 1.25-3.797 3.004-4.719.984-.52 3.402-.484 4.437.067a5.84 5.84 0 0 1 2.375 2.375c.551 1.035.586 3.453.067 4.437-.489.93-1.582 2.032-2.465 2.489-1.086.558-2.934.628-4.121.148M38.633 29.3c-1.336-.44-2.656-1.573-3.285-2.827-.496-.985-.578-2.602-.188-3.778.387-1.156 1.508-2.468 2.621-3.058 1.078-.575 3.45-.575 4.516 0 .89.476 1.984 1.586 2.465 2.5.52.988.484 3.402-.067 4.441a5.7 5.7 0 0 1-2.375 2.356c-.84.43-2.875.632-3.687.367m39.519-.141c-1.125-.398-2.23-1.433-2.82-2.64-1.742-3.56 1.086-7.692 5.016-7.336 2.797.253 4.703 2.34 4.703 5.14 0 3.586-3.5 6.04-6.899 4.836m24.528 6.602c-1.961-.633-3.45-2.739-3.442-4.871.02-5.43 7.309-7.176 9.723-2.328.977 1.957.484 4.773-1.055 6.07-1.472 1.238-3.511 1.68-5.226 1.129M83.184 82.273c.117-.3 14.144-22.73 14.187-22.687.024.023-.633 5.152-1.453 11.398a4481 4481 0 0 0-1.496 11.403c0 .023-2.543.047-5.652.047-3.106 0-5.622-.075-5.586-.16m-20.321.054c0-.055 2.875-6.414 6.383-14.133l6.383-14.03.004 14.132.004 14.137H69.25c-3.512 0-6.387-.047-6.387-.106M44.281 68.203c.016-13.89.024-14.21.356-13.476.187.414 2.937 6.457 6.113 13.43s5.93 13.038 6.117 13.476l.348.8H44.27Zm-20.179 2.949c-.813-6.203-1.442-11.312-1.399-11.355s2.985 4.586 6.543 10.293a6870 6870 0 0 0 7.086 11.355l.625.989h-5.691l-5.688-.004Zm1.761 23.208v-6.481h68.184v12.96H25.863Zm14.317 1.085 1.273-1.265-1.36-1.364-1.355-1.367-1.273 1.262c-.7.695-1.274 1.348-1.274 1.45 0 .245 2.282 2.546 2.528 2.546.101 0 .761-.566 1.46-1.262m14.097-.011 1.262-1.27-1.367-1.36-1.367-1.355-1.305 1.313-1.305 1.316 1.305 1.317c.719.722 1.352 1.312 1.41 1.312.055 0 .672-.57 1.367-1.273m14.266.011 1.273-1.265-1.359-1.364-1.355-1.367-1.274 1.262c-.7.695-1.273 1.348-1.273 1.45 0 .245 2.28 2.546 2.527 2.546.102 0 .762-.566 1.461-1.262m14.098-.011 1.261-1.27-1.367-1.36-1.367-1.355-1.305 1.313-1.304 1.316 1.304 1.317c.719.722 1.352 1.312 1.41 1.312.055 0 .672-.57 1.368-1.273m0 0"/>
</svg>
