<svg xmlns="http://www.w3.org/2000/svg" width="120" height="120" viewBox="0 0 120 120">
    <path d="m83.414 10.945-.156.114-.153.109-1.027.934-.914 1.043-.316.457-.48.687-.673 1.234-.187.457-.352.856-.402 1.379-.262 1.43-.117 1.468v.14l.027 1.352.172 1.504.313 1.5.453 1.48.59 1.446.722 1.399.196.312.218.348.383.605.043.074.957 1.266.043.047-.004.004-.07.152-.152.328-.051.114-.207.441-.043.094-3.59 7.742-2.875 6.2-.203-.095-.133-.078-1.43-.816-1.472-1.016-1.367-1.129-1.254-1.238-1.125-1.324-.985-1.406-.84-1.47-.68-1.523-.515-1.558-.351-1.578-.137-1.246-.04-.344-.003-1.574.168-1.555.246-1.09-.117.184-.114.175-.183.387-.488 1.008-.508 1.46-.305 1.349-.039.164v.007l-.168 1.547.004 1.578.18 1.586.347 1.579.516 1.558.68 1.524.84 1.472.984 1.403.34.402.785.926 1.254 1.234.566.469.8.66 1.474 1.02.136.074 1.426.816.055.024-.004.007-.336.727-1.149 2.473-.68 1.464-.683 1.473-.097.219.007.004-.039.086-.078.144-.008.016-.078.129-.09.14-.097.137-.102.133-.11.125-.112.125-.118.117-.12.113-.13.106-.03.023-.103.082-.136.094-.14.09-.145.086-.145.078-.152.07-.153.067-.156.058-.16.055-.16.043-.164.039-.164.031-.164.024-.168.02-.164.01-.168.005v-.004H62.23v-.012l-.132-.008-1.926-.074-2.04-.234-1.995-.39-1.52-.423-.422-.117-1.863-.683-1.102-.516-.023-.012-.645-.297-1.656-.957-1.527-1.078-1.383-1.187-1.226-1.285-1.063-1.38-.484-.796-.395-.653-.695-1.507-.5-1.555-.219-1.14-.043.222-.039.21-.102 1.602.102 1.602.23 1.219.07.367.5 1.555.696 1.511.883 1.45 1.059 1.375 1.226 1.289 1.387 1.187.992.703.531.375 1.657.953.644.301 1.125.524.945.347.918.34.422.117 1.516.422 2 .39 2.039.235 1.926.074v.785l-.293.032-.567.066-.566.082-.567.094-.562.105-.563.118-.554.129-.559.144-.55.152-.547.168-.446.145-.097.031-.54.192-.539.203-.175.07-.356.14.004.016h-.004l-3.41 1.414-9.977 4.133-11.023 4.567-4.332 1.792v.004l.004.008-.16.07-.54.274-.226.133-.293.172-.504.332-.48.359-.461.39-.438.415-.418.437-.386.465-.055.074-.305.407-.332.503-.304.524-.27.539-.242.55-.211.567-.027.09-.149.484-.14.59-.11.59-.074.602-.043.601-.004.602.027.601.067.602.097.594.133.59.164.578.2.57.23.558.262.543.277.497.016.03.324.509.351.488.063.078.316.39.407.45.43.422.456.394.477.371.496.344.516.313.53.28.548.255.562.219.574.187.582.156.594.121.594.086.602.051.605.016h20.93l.066.004.215.004.34.015.344.027.343.04.34.05.336.063.336.07.332.086.332.094.328.105.324.114.317.128.055.02.261.117.313.145.304.156.301.168.293.176.29.187.284.196.274.207.27.21.261.223.258.23.039.04.207.199.238.25.11.117.12.137.223.262.215.27.203.276.196.282.187.289.098.164h-1.797v5.25h3.281v.129h5.25l-.004-.13h33.473v-5.25h-1.856l-9.57-23.1-.004.003-.015.004-.008.004-.149-.348-.238-.52-.246-.515-.258-.512-.273-.504-.278-.5-.293-.492-.304-.488-.313-.48-.023-.036-.297-.437-.336-.465-.344-.457-.351-.45-.364-.445-.375-.433-.382-.426-.391-.418-.398-.41-.41-.398-.419-.395-.27-.238-.155-.14-.438-.376-.441-.363-.45-.352-.46-.343-.465-.336-.473-.325-.476-.312-.489-.3-.199-.118-.293-.176-.5-.281-.39-.207-.114-.063-.512-.257-.515-.25-.524-.235-.527-.226-.531-.211-.535-.203-.114-.04-.425-.152-.547-.176-.547-.168-.313-.086-.082-.023-.008-.004h.004l.024-.012.05-.02.06-.026.093-.043.035-.016.086-.043.129-.066.016-.008.148-.078.082-.043.11-.059.117-.066.097-.059.13-.074.089-.055.129-.082.152-.098.125-.085.153-.106.093-.066.118-.086.203-.16.203-.165.199-.167.191-.172.192-.176.183-.184.18-.187.176-.192.172-.195.164-.2.129-.16.031-.042.156-.207.153-.215.144-.215.14-.219.134-.219.054-.09.074-.136.125-.23.118-.231.113-.234v-.004l.105-.23.102-.243-.027-.012.027-.074 1.48-4.043 1.371-3.742.575-1.574 6.105-16.668.047-.133.008-.02.012-.03.316-.016.48-.067.786-.113.68-.156.562-.13 1.207-.394 1.16-.496 1.102-.594 1.03-.683.235-.188.719-.586.867-.847.77-.918.664-.98.558-1.032.438-1.07.199-.684.078-.273.043-.149.2-1.125.07-1.133-.051-1.132-.024-.149-.027-.16-.14.809-.32 1.105-.442 1.07-.555 1.032-.07.105-.594.875-.77.918-.867.848-.953.773-1.031.684-1.106.593-1.156.497-1.207.394-1.242.29-.45.062-.054.007.008-.027-.317-.133-.476-.199-1.246-.512-.035-.015-1.563-.649-.008.012-.015-.023-.168-.223-.844-1.336-.719-1.402-.59-1.446-.457-1.48-.312-1.5-.04-.336-.132-1.164-.027-1.496.117-1.469.207-1.145.055-.285.402-1.379.539-1.312.672-1.234ZM62.098 69.97v2.992h5.25v-2.977l.398.055.508.082.508.094.465.097.039.008.5.121.5.13.492.144.492.156.488.168.485.18.476.191.473.203.355.164.114.051.464.227.457.238.454.246.445.262.437.27.434.28.426.29.414.304.41.313.406.32.39.332.388.34.379.352.367.363.226.226.137.141.348.379.343.383.332.394.32.403.313.41.301.418.293.426.004.007.277.426.27.438.261.445.247.453.238.457.226.461.215.469.203.472.028-.007.84 2.027 2.492 6.02 5.328 12.863H65.875l-.086-.239-.164-.41-.176-.402-.183-.402-.114-.227-.086-.168-.14-.266-.067-.124-.218-.383-.23-.38-.243-.37-.25-.364-.262-.355-.27-.352-.277-.34-.293-.332-.296-.328-.31-.316-.23-.223-.085-.086-.325-.296-.336-.29-.34-.28-.347-.27-.36-.262-.363-.25-.37-.242-.38-.227-.383-.222-.39-.207-.008-.004-.387-.192-.398-.187-.406-.176-.41-.164-.368-.133-.469-.156-.421-.13-.29-.077-.136-.04-.43-.105-.43-.09-.437-.082-.434-.066-.441-.055-.438-.043-.441-.031-.441-.02-.309-.003v-.004h-21v.004l-.516-.028-.507-.074-.5-.125-.489-.176-.465-.219-.44-.265-.415-.309-.383-.343-.347-.383-.305-.414-.266-.442-.219-.465-.175-.484-.121-.488-.004-.012-.075-.512-.027-.515.027-.512.075-.512.125-.5.175-.484.22-.465.265-.445.254-.344.05-.07.348-.38.383-.347.414-.305.441-.265.16-.078.305-.145.043-.016v-.003l1.969-.813 20.996-8.7 3.942-1.632 1.84-.762-.005-.011.125-.047.48-.18.49-.168.491-.156.496-.14.497-.134.504-.12.503-.106.059-.012.445-.082.512-.082.512-.07Zm-4.985 8.242-.195.012-.191.027-.188.047-.18.066-.035.016-.14.066-.164.098-.157.117-.144.13-.13.144-.116.152-.098.168-.082.172-.066.183-.047.188-.028.191-.007.192.007.195.016.117.012.074.047.188.066.18.082.175.098.164.117.157.129.144.144.13.157.112.164.102.14.066.035.016.18.066.188.047.191.028.195.007.192-.007.191-.028.188-.047.18-.066.175-.082.164-.102.156-.113.114-.101.03-.028.13-.144.117-.157.098-.164.082-.175.066-.18.047-.188.012-.074.015-.117.012-.195-.012-.192-.027-.191-.047-.188-.066-.183-.082-.172-.098-.168-.117-.152-.13-.145-.03-.027-.114-.102-.156-.117-.164-.098-.176-.082-.18-.066-.187-.047-.191-.027Zm0 0"/>
    <path fill="#ff4b4b" d="M65.418 102.5c-1.754-3.852-5.106-6.93-9.04-8.305-2.554-.89-1.839-.847-15.253-.93l-12.184-.074-1.003-.5c-2.083-1.027-3.141-3.05-2.836-5.421.199-1.536 1.21-3.004 2.562-3.72.934-.491 29.535-12.347 30.645-12.702 1.03-.328 2.93-.75 3.39-.754l.36-.004v2.894h5.398V71.54c0-1.664-.121-1.559 1.422-1.242 6.39 1.32 11.828 5.578 14.691 11.512.332.683 2.52 5.879 4.864 11.546l4.261 10.297h-26.75Zm-7.527-20.48c1.039-.434 1.492-1.594 1.03-2.637-.448-1.012-1.5-1.461-2.495-1.063-1.332.535-1.746 2.04-.848 3.102.61.726 1.473.95 2.313.598m0 0"/>
</svg>
