<svg xmlns="http://www.w3.org/2000/svg" width="120" height="120" viewBox="0 0 120 120">
    <path d="m86.512 17.926-2.633 6.851-1.961 5.09h.008l-.055.149-.281.797-.067.199-.07.199-.2.598-.062.203-.062.199-.063.203-.062.2-.063.202-.058.204-.063.199-.058.203-.028.101-.03.102-.056.203-.058.203-.164.61-.051.203-.055.207-.101.406-.051.207-.043.176-.004.027-.05.207-.024.114-.024.09-.043.187v.015l-.097.012-.563.094-.28.05-.282.055-.563.118-.277.066-.281.063-.278.07-.277.074-.273.074-.075.024-.203.058-.273.078-.274.086-.16.051-.113.035-.273.094-.54.188-.148.054-.121.047-.266.102-.265.105-.532.219-.261.113-.262.117-.262.121-.258.122-.257.125-.254.128-.258.13-.23.124-.02.012-.254.133-.5.281-.246.145-.211.129-.035.02-.242.148-.243.152-.242.156-.238.156-.238.164-.235.16-.234.169-.461.336-.68.527-.195.16-.027.02-.22.183-.218.188-.43.375-.21.195-.211.191-.414.399-.184.183-.004-.004-10.965 10.97-3.883 3.882.008.008-.004.004-.078.074-.074.07-.117.114-.352.316-.043.035-.117.102-.164.133-.082.07-.082.062-.086.067-.082.062-.086.067-.172.125-.008.007-.078.055-.086.059-.086.062-.086.059-.09.058-.085.059-.051.031-.04.028-.179.109-.09.059-.09.05-.09.055-.023.016-.07.039-.09.05-.375.204-.094.047-.094.05-.093.047-.094.043-.098.047-.07.031-.023.016-.196.086-.094.043-.097.039-.035.015-.063.028v.004l-.566.234-4.301 1.781-.156.067-19.715 8.164-4.137-5.211.762 6.61-4.438 1.84-1.199.495-4.84 2.004.016.027-.016.008 6.028 14.551.011-.004v.004h63.188l.316.004.32.008.32.011.317.012.32.016.32.02.634.046.32.031.316.032h.02l.297.035.316.035.317.04.316.042.317.047.632.102.313.054.312.059.317.058.625.133.308.07.23.051.083.02.308.074.309.078.309.082.617.172.304.09.61.187.137.043.168.055.304.102.602.21.297.11.254.098.046.015.297.114.297.12.293.122.297.12.293.126.293.129.289.132.578.274.285.137.29.144.28.145.286.148.281.149.195.109.082.043.282.156.277.16.273.16.547.329.27.171.27.168.269.176.531.352.04.027.222.156.262.184.203.145v3.554h15.75v-63h-5.25v1.883l-.043-.023-.262-.168-.262-.16-.531-.32-.027-.016-.239-.137-.539-.305-.547-.289-.16-.082-.113-.062-.555-.274-.28-.133-.278-.133-.281-.128-.286-.125-.28-.122-.286-.12-.29-.118-.167-.066-.117-.047-.578-.219-.293-.105-.29-.106-.292-.097-.297-.098-.293-.094-.297-.09-.293-.09-.3-.085-.298-.083-.297-.078-.3-.078-.301-.074-.055-.012-.246-.058-.3-.067-.305-.066-.301-.063-.305-.058-.61-.11-.609-.093-.308-.047h-.024l-.28-.04-.31-.038-.304-.035-.309-.032-.09-.008-.066-.007-.004-.004v-.008l-.004-.012-.047-.207-.05-.203-.051-.207-.102-.406-.05-.207-.274-1.016-.059-.203-.027-.102-.031-.101-.059-.203-.058-.2-.063-.203-.059-.203-.062-.199-.063-.203-.066-.2-.062-.202-.2-.598-.02-.063-.046-.136-.07-.2-.067-.199-.07-.199-.074-.2-.07-.198-.055-.149h.007Zm0 14.71.054.157.067.195.062.196.067.195.047.144.015.051.063.2.062.195.059.199.058.195.063.2.055.195.117.398.054.2.055.195.031.125.02.074.055.2.05.198.055.204.047.199.05.199.048.2.05.202.047.2.043.203.047.199.016.07.027.133.043.2.086.406.04.199.155.812.035.203.036.2v.003l.035.204.031.203.035.203.063.406.03.207.056.406.027.207.027.204.012.105.016.098.004.058.02.149.046.406.02.207.023.203.02.207.039.41.015.207.016.203.004.004.011.203.016.208.016.203.023.414.012.203.012.207.015.414.008.203.004.094.004.113.008.207.004.207v.067l.003.136.004.207v.207l.004.207v.203h5.246v-.421l-.004-.211v-.211l-.004-.211-.003-.207-.008-.211v-.082l-.012-.34-.02-.422-.007-.21-.035-.634-.012-.207-.016-.21-.008-.126-.007-.086-.032-.421-.015-.208-.059-.632-.02-.207-.023-.211-.02-.211-.019-.176-.004-.031-.027-.211-.024-.207-.02-.176v.004h.016l.086.012.282.047.015.003.266.043.281.051.285.055.278.058.28.059.278.066.282.067.277.066.277.074.074.02.2.055.23.066.047.016.273.078.274.086.547.18.539.187.27.102.202.078.063.023.266.106.53.218.263.114.261.117.262.12.258.122.246.121.012.004.254.129.257.129.188.101.066.035.5.274.25.14.246.145.246.149.243.148.242.152.242.157.07.046.168.114.239.16.234.16.234.168.23.168.184.133.047.035.23.176.227.175.223.176.223.184.218.18.153.128v49.344h-4.239l-.164-.144-.261-.23-.27-.231-.27-.227-.222-.183-.047-.04-.273-.222-.274-.219-.277-.219-.024-.015-.254-.196-.28-.214-.282-.207-.285-.207-.285-.204-.29-.203-.183-.129-.105-.07-.29-.195-.293-.196-.296-.191-.297-.187-.266-.168-.031-.02-.3-.184-.302-.18-.304-.179-.305-.176-.305-.172-.617-.336-.309-.164-.312-.16-.316-.16-.313-.156-.316-.153-.32-.152-.25-.113-.067-.031-.32-.145-.325-.144-.32-.137-.324-.137-.324-.133-.657-.257-.328-.126-.328-.12-.664-.235-.332-.11-.312-.1-.024-.009-.336-.11-.672-.202-.336-.098-.68-.187-.679-.172-.34-.082-.687-.157-.344-.074-.203-.039-.14-.031-.345-.066-.347-.063-.344-.062-1.043-.165-.695-.093-.352-.04-.347-.038-.352-.04-.336-.03h-.012l-.351-.032-.352-.027-.347-.024-.352-.02-.703-.03-.352-.012-.351-.008-.352-.004H17.23l-1.87-4.52-.817-1.968 4.25-1.762.23 1.984.016.153-.016.008.024.05v.008h.004l.023.047.113.242.2.332.23.309.258.289.04.035.245.223.313.23.332.2.347.163.364.133.375.094.382.055.387.02.387-.02.379-.055.375-.094.367-.133.047-.023.3-.14.333-.2.308-.23.29-.258.257-.29.23-.308.2-.332.113-.242.05-.105.13-.364.094-.375.058-.383.02-.386-.02-.387-.058-.383-.094-.375-.106-.3h.004l-.008-.008-.02-.055-.015.008-.008-.008-1.332-1.676 1.657-.687 14.664-6.075 7.047-2.918.199-.082v-.007l.012-.004.226-.102.11-.047.113-.054.113-.051.11-.051.109-.055.113-.054.219-.11.11-.058.109-.055.105-.059.063-.035.046-.023.11-.059.105-.062.106-.059.11-.062.105-.063.039-.023.066-.04.211-.124.102-.067.105-.066.102-.067.105-.066.066-.043.036-.023.203-.141.101-.066.102-.075.101-.07.098-.07.102-.075.03-.023.067-.047.196-.148.097-.078.098-.075.094-.074.097-.078.04-.035.152-.121.093-.078.094-.082.094-.078.09-.083.094-.082.023-.02.066-.062.094-.082.09-.082.09-.086.09-.082.09-.086.085-.085.09-.086.086-.086.04-.043.046-.047-.004-.004.004-.008 10.16-10.16.79-.785.57-.574 3.14-3.141.02-.016.164-.164.184-.18.187-.175.191-.172.004-.008.188-.164.195-.172.125-.11.07-.058.2-.164.199-.16.406-.32.207-.153.156-.117.051-.035.422-.297.215-.144.43-.282.218-.136.22-.133.222-.133.031-.016.195-.113.223-.125.453-.242.23-.117.231-.114.234-.113.235-.11.234-.105.235-.101.222-.094.016-.008.238-.097.242-.094.239-.09.175-.066.067-.024.246-.086.242-.082.492-.156.246-.07.25-.07.246-.071.016-.004.164-.04.07-.019.239-.058.011-.004.02-.004h.004l-.016.125-.043.387-.02.21-.023.208-.039.422-.015.21-.02.208-.031.421-.004.086-.012.125-.011.211-.016.207-.024.422-.007.211-.012.211-.016.422-.011.34-.004.082-.004.21-.004.208-.012.633v.421h5.25v-.41l.008-.414.004-.203.008-.414.004-.113.003-.094.008-.203.008-.207.012-.207.008-.207.011-.203.012-.207.016-.207.011-.203.016-.208.016-.203v-.004l.015-.203.02-.207.035-.41.023-.207.02-.203.023-.207.047-.406.024-.207.011-.098.012-.105.027-.204.028-.207.027-.203.016-.105.015-.098.032-.207.027-.203.035-.203.031-.203.036-.203.03-.204.005-.003.031-.2.039-.203.035-.203.117-.61.043-.199.04-.203.042-.203.043-.199.028-.133.015-.07.047-.2.047-.202.047-.2.047-.203.047-.199.101-.398.051-.204.05-.199.055-.199.02-.074.035-.125.055-.196.11-.398.058-.2.058-.194.059-.2.059-.195.062-.2.063-.195.062-.199.016-.05.047-.145.062-.195.133-.391Zm-19.36 26.762-.257.016-.254.035-.25.063-.243.09-.234.109-.219.133-.207.152-.191.172-.172.191-.152.207-.137.223-.11.23-.085.243-.063.25-.039.258-.012.253.012.258.04.254.062.25.086.242.109.235.137.222.105.145.047.062.172.192.191.172.207.152.22.133.233.11.243.09.25.058.254.039.257.011.07-.003.188-.008.254-.04.25-.058.242-.09.235-.11.222-.132.207-.152.188-.172.176-.192.043-.062.109-.145.133-.222.11-.235.085-.242.063-.25.039-.254.011-.258-.011-.253-.04-.258-.062-.25-.086-.242-.11-.23-.132-.224-.152-.207-.176-.191-.188-.172-.207-.152-.222-.133-.235-.11-.242-.09-.25-.062-.254-.035-.187-.012ZM20.926 75.035l1.594 2.004.53.672.798 1.004.007.008.016-.008.02.055.007.007h-.003l.023.059.031.125.016.129.008.129-.008.129-.016.125-.031.125-.047.125-.016.035-.039.078-.066.113-.074.102-.086.097-.098.086-.101.079-.114.062-.117.059-.02.007-.1.036-.126.03-.125.02-.129.004-.129-.004-.129-.02-.125-.03-.12-.043-.09-.043-.137-.079-.106-.078-.094-.086-.085-.097-.079-.102-.066-.113-.027-.055v-.008l-.028-.05.02-.008-.02-.16-.21-1.844-.016-.133Zm0 0"/>
    <path fill="#5aad6d" d="M101.559 95.695c-4.375-3.617-10.278-6.535-15.914-7.86-4.426-1.042-1.946-.972-36.762-1.065l-31.645-.086-1.261-3.04c-.696-1.667-1.239-3.109-1.204-3.199.032-.086.907-.507 1.938-.937 2.078-.867 2.156-.856 2.16.289.004 1.414 1.14 2.777 2.695 3.23 2.106.618 4.29-.597 4.907-2.73.375-1.29.203-2.125-.664-3.242-.387-.5-.649-.957-.582-1.02.07-.062 5.375-2.285 11.789-4.941 6.418-2.656 12.101-5.047 12.636-5.313 2.325-1.172 3.227-1.976 12.325-11.004 9.289-9.218 9.761-9.64 12.5-11.039 1.222-.625 4.3-1.73 4.418-1.586.035.04.007.645-.063 1.352a42 42 0 0 0-.133 2.918l-.011 1.637h5.277v-.52c.004-1.32.363-5.187.652-6.996.453-2.848 1.637-7.516 1.906-7.516.157 0 1.098 3.407 1.54 5.59.437 2.153.859 5.582.859 6.98.004.54.047 1.313.105 1.723l.102.739h5.234l-.004-1.317c0-.726-.074-2.137-.168-3.137-.093-.996-.129-1.855-.078-1.906.168-.168 2.23.293 4.13.93 2.362.785 5.183 2.223 7.155 3.648l1.52 1.098.039 24.734.04 24.73-2.04-.007-2.039-.012ZM68.176 64.473c1.082-.461 1.851-1.809 1.633-2.86-.278-1.355-1.332-2.199-2.758-2.199-1.012 0-1.754.477-2.239 1.438-.457.902-.453 1.535.008 2.41.637 1.195 2.13 1.738 3.356 1.21m0 0"/>
    <path fill="#5aad6d" d="M22.04 80.285c-.466-.258-.477-.3-.763-2.62-.308-2.52-.34-2.505 1.196-.599 1.101 1.375 1.359 1.79 1.359 2.23 0 .919-.96 1.446-1.793.99m0 0"/>
    <path fill="#5aad6d" d="M22.04 80.285c-.466-.258-.477-.3-.763-2.62-.308-2.52-.34-2.505 1.196-.599 1.101 1.375 1.359 1.79 1.359 2.23 0 .919-.96 1.446-1.793.99m0 0"/>
</svg>
