<svg xmlns="http://www.w3.org/2000/svg" width="120" height="120" viewBox="0 0 120 120">
    <path d="m60.195 9.895-.511.027-.512.074-.5.125-.484.172-.465.223-.442.265-.414.305-.082.074-.3.274-.344.382-.309.41-.266.446-.218.465-.176.484-.125.5-.074.508-.028.516.028.515.074.508.125.5.176.488.218.465.196.328.07.113.309.415.343.382.301.27.082.074.414.309.29.172v3.39l-.657.031-.129.02-1.84.273-1.09.16-3 .755-2.91 1.039-2.793 1.324-2.652 1.586-2.484 1.843-.274.247-.027-.024-.246-.25-.489-.484-.761-.762-.727-.73-.137-.137-.023-.02.059-.226.074-.508.027-.516-.008-.144-.02-.371-.073-.508-.125-.5-.176-.485-.219-.468-.266-.442-.304-.414-.348-.379-.383-.347-.289-.215-.125-.094-.441-.262-.465-.222-.484-.172-.5-.125-.512-.078-.512-.024-.515.024-.512.078-.5.125-.485.172-.464.222-.442.262-.414.309-.383.347-.343.38-.309.413-.266.442-.218.468-.172.485-.13.5-.073.508-.02.37-.004.145.024.516.074.508.129.5.172.484.218.469.266.441.309.414.343.38.383.347.414.308.442.262.464.223.485.172.5.125.512.078.515.023.512-.023.512-.078.433-.11 1.203 1.203.618.622.496.496.007.004-.375.414-.503.68-1.336 1.8-1.59 2.652-1.32 2.793-1.044 2.914-.351 1.403-.399 1.594-.21 1.418-.243 1.64-.05.988-.102 2.098.152 3.09.453 3.059.75 2.996 1.043 2.91 1.32 2.797.153.254 1.438 2.394 1.84 2.484.437.481 1.64 1.809 1.856 1.683.23.207.204.188.297.218 2.187 1.622 2.652 1.59 2.793 1.324 1.465.523-.058.14-.172.43-.29.73-.23.571-3.633 9.086L39 110.105h42l-2.098-5.25-2.34-5.84-5.222-13.062-.219-.547-.3-.75-.173-.433-.058-.141 1.465-.523 1.3-.618.633-.3.86-.407 2.652-1.59 2.188-1.62.296-.22 2.29-2.077.234-.258 1.844-2.031 1.84-2.485 1.437-2.394.152-.254 1.32-2.797 1.044-2.91.75-2.996.296-1.997.157-1.062.152-3.09-.102-2.098-.05-.988-.157-1.062-.296-1.996-.75-2.996-1.043-2.915-1.32-2.793-1.59-2.652-.86-1.156-.477-.645-.503-.68-.188-.206 1.902-1.903.29-.285.074-.078.082-.082.222.059.157.023.355.05.512.028.515-.027.512-.074.5-.125.485-.176.464-.219.442-.266.414-.308.101-.09.282-.254.203-.227.14-.156.309-.414.266-.441.218-.465.172-.484.13-.5.073-.512.024-.512-.012-.277-.012-.238-.074-.512-.129-.5-.172-.485-.218-.464-.266-.442-.309-.414-.343-.383-.282-.254-.101-.09-.414-.308-.442-.266-.464-.218-.485-.172-.5-.13-.512-.073-.515-.024-.512.024-.355.05-.157.024-.5.129-.484.172-.465.218-.441.266-.414.309-.157.14-.226.203-.344.383-.308.414-.266.442-.219.464-.176.485-.125.5-.02.144-.054.367-.012.239-.015.277.027.512.055.37.02.142.109.433-2.254 2.254-.48-.434-2.485-1.843-2.652-1.586-.86-.41-1.933-.914-2.91-1.04-3-.753-3.06-.454-.265-.011v-3.41l.293-.172.414-.309.383-.344.344-.382.308-.415.067-.113.2-.328.218-.465.172-.488.129-.5.039-.266.035-.242.023-.515-.023-.516-.035-.238-.04-.27-.12-.473-.008-.027-.172-.484-.219-.465-.266-.445-.308-.41-.344-.383-.383-.348-.414-.305-.441-.265-.465-.223-.484-.172-.5-.125-.137-.02-.375-.054ZM60 28.203l2.574.129.246.035 2.301.344 2.5.625 2.426.867 2.328 1.102 1.07.64.543.325.594.359 2.07 1.535.098.09h.004l.988.898.82.743 1.126 1.242.605.664.14.195 1.391 1.875.684 1.14.644 1.071 1.102 2.328.867 2.426.625 2.496.379 2.55.023.473.102 2.098-.125 2.574-.379 2.547-.625 2.5-.867 2.426-1.102 2.328-.644 1.07-.684 1.141-.383.52-1.148 1.55-.606.664-1.124 1.243-1.91 1.73-2.071 1.535-.594.356-1.613.968-2.328 1.102-1.383.492-1.043.375-2.176.543-.324.082-2.3.344-.247.035-2.574.125-2.43-.117-.144-.008-.64-.094-1.84-.273-.067-.012-2.5-.625-2.426-.867-2.328-1.102-2.207-1.324-1.879-1.39-.191-.145-1.91-1.73-1.126-1.243-.515-.566-.09-.098-.125-.171-1.023-1.38-.383-.519-1.324-2.21L35.75 64.5l-.871-2.426-.625-2.5-.379-2.547-.125-2.574.102-2.098.023-.472.379-2.551.625-2.496.871-2.426 1.102-2.328 1.324-2.21 1.531-2.071.027-.028.578-.636 1.126-1.242.82-.743 1.09-.988.117-.09 1.953-1.445 1.137-.684 1.07-.64 2.328-1.102 2.426-.867 2.5-.625.066-.012 1.84-.273.64-.094.145-.008ZM44.688 36.36l-2.786 2.782 5.47 5.468h-7.06v3.938H51.31l3.937 3.937H40.312v3.938h14.934l-3.937 3.937H40.313v3.938h7.058l-1.785 1.789-3.684 3.684 2.785 2.78 8.254-8.253H67.06l8.254 8.254 2.785-2.781-5.47-5.473h7.06V60.36H68.69l-3.246-3.242-.691-.695h14.933v-3.938H64.755l3.937-3.937h10.996V44.61H72.63l5.469-5.468-2.785-2.782-1.325 1.325-6.93 6.925H52.942Zm12.19 12.188h6.243L60 51.672l-.332-.336ZM60 57.238l.594.598 2.527 2.523H56.88Zm-5.305 28.235.25.039.328.047 1.512.226.13.02.655.03v3.388l-.289.175-.414.309-.082.074-.3.27-.344.383-.309.414-.266.441-.218.465-.176.484-.125.5-.074.512-.028.516.028.511.074.512.125.5.027.074.149.41.218.465.266.442.309.414.343.383.301.27.082.077.414.305.442.266.465.218.484.176.5.125.512.074.511.028.516-.028.375-.054.137-.02.5-.125.484-.176.465-.218.441-.266.414-.305.383-.347.344-.383.308-.414.266-.442.219-.465.148-.41.024-.074.129-.5.039-.27.035-.242.023-.511-.023-.516-.035-.242-.04-.27-.128-.5-.172-.484-.219-.465-.137-.227-.129-.214-.308-.414-.344-.383-.383-.344-.414-.309-.293-.175v-3.407l.266-.011 2.219-.332.14.328.067.152 5.715 13.063 2.554 5.84H46.22l2.625-6 5.644-12.903.02-.047.156-.355Zm0 0"/>
    <path fill="#f9f9f9" d="M57.547 80.48c-10.317-.918-19.262-8.125-22.453-18.09-1.594-4.976-1.594-10.886 0-15.867 4.191-13.086 17.746-20.691 31.09-17.449 4.937 1.2 9.129 3.625 12.707 7.348 3.566 3.707 5.937 8.363 6.863 13.473.437 2.417.437 6.71 0 9.125a26.25 26.25 0 0 1-6.774 13.37c-4.554 4.794-10.246 7.516-16.918 8.106-1.203.106-2.316.18-2.472.164-.156-.012-1.074-.094-2.043-.18m-8.602-12.05 4.086-4.086h14.063l4.136 4.129 4.133 4.132 1.43-1.418 1.43-1.421-2.711-2.711-2.707-2.711h6.933v-3.992H68.801l-1.89-1.903-1.895-1.898h14.722v-4.184H65.016l1.894-1.902 1.89-1.899h10.938v-3.992h-6.933l2.707-2.71 2.71-2.716-1.386-1.375c-.762-.753-1.477-1.37-1.59-1.37s-2 1.835-4.191 4.085l-3.98 4.086H53.03l-4.086-4.086c-2.246-2.25-4.172-4.086-4.28-4.086-.106 0-.79.598-1.517 1.332l-1.324 1.328 2.75 2.758 2.75 2.754h-7.12v3.992h11.124l1.895 1.899 1.894 1.902H40.203v4.184h14.82l-1.859 1.898-1.86 1.903h-11.1v3.98l3.468.055 3.469.05-2.614 2.575c-1.437 1.418-2.613 2.656-2.613 2.754 0 .242 2.508 2.75 2.75 2.75.11 0 2.035-1.84 4.281-4.086m-2.285 35.593c.2-.445 2.074-4.738 4.176-9.539 2.102-4.804 3.852-8.765 3.89-8.804.044-.043.684-.016 1.426.058l1.348.133v3.242l-.77.657c-1.699 1.453-2.304 4.14-1.39 6.144 1.258 2.738 4.465 3.902 7.144 2.582 2.047-1.004 3.133-2.898 2.953-5.148-.117-1.453-.62-2.461-1.746-3.5l-.87-.801V85.87l1.167-.133c.64-.07 1.23-.062 1.309.024.101.113 7.414 16.703 8.3 18.832.079.187-2.714.234-13.597.234H46.305Zm0 0"/>
    <path fill="#f9f9f9" d="m58.547 58.828 1.512-1.52 1.476 1.47c.813.808 1.477 1.492 1.477 1.519 0 .031-1.344.055-2.989.055h-2.988Zm-.097-8.836-1.415-1.426h6.07l-1.52 1.418c-.835.782-1.565 1.422-1.62 1.426s-.735-.637-1.516-1.418m0 0"/>
</svg>
