<svg xmlns="http://www.w3.org/2000/svg" width="120" height="120" viewBox="0 0 120 120">
    <path d="M51.668 25.941h-.016l-.254.004-.257.008-.258.012-.258.015-.117.008-.137.008-.258.024-.254.023-.257.027-.254.028-.258.035-.254.035-.254.039-.227.04-.023.003-.508.094-.25.05-.254.055-.25.059-.5.125-.246.07-.117.031-.133.04-.246.07-.242.078-.246.078-.242.082-.246.086-.239.09-.035.012-.207.078-.238.093-.238.098-.239.102-.234.101-.04.016-.194.09-.235.109-.46.227-.231.117-.227.12-.129.071-.097.051-.223.125-.223.129-.222.133-.22.133-.218.136-.215.137-.43.289-.21.148-.192.137-.015.012-.414.305-.407.32-.199.16-.2.164-.194.168-.192.172-.191.168-.192.176-.047.047-.14.128-.184.18-.148.149h-.004l-.031.03v.005l-.063.062-.12.125-.114.125-.117.13-.11.132-.113.129-.106.137-.105.132-.05.07-.055.067-.102.14-.195.282-.094.145-.09.144-.18.297-.164.297-.082.152-.074.156-.078.153-.14.312-.133.32-.06.16-.062.16-.054.165-.055.16-.035.113-.016.051-.047.164-.047.168-.042.164-.043.168-.008.051-.028.117-.035.168-.031.168-.031.172-.028.168-.023.172-.02.168-.02.172-.007.082-.008.09-.011.171-.016.344-.004.172v.04h-.004v1.718l-.308.004-.575.02-.57.03-.57.044-.57.054-.57.07-.567.079-.563.093-.566.106-.215.047-.344.07-.558.133-.555.14-.55.157-.548.164-.547.18-.539.187-.535.203-.125.05-.406.165-.527.223-.524.238-.516.246-.507.258-.508.273-.496.278-.496.293-.176.109-.145.09-.164.101-.48.317-.473.32-.465.336-.457.344-.453.351-.441.364-.434.375-.43.382-.414.391-.41.398-.402.41-.113.122-.278.297-.383.425-.37.438-.364.441-.355.45-.176.234-.168.226-.332.465-.246.356-.078.117-.313.477-.234.374-.07.114-.098.172-.192.32-.28.5-.27.504-.258.512-.25.515-.235.524-.226.523-.211.531-.203.54-.192.538-.175.543-.168.551-.153.551-.144.555-.13.558-.116.551v.008l-.106.562-.094.567-.082.566-.054.45-.016.12-.055.567-.043.574-.03.563v.007l-.005.145-.008.148v.024l-.007.254-.004.18v.136l-.004.117.004-.144.02-.285.027-.258.004-.028.043-.285.058-.285.066-.285.083-.285.093-.281.106-.282.117-.28.062-.138.067-.14.144-.278.153-.277.168-.273.175-.274.192-.27.203-.269.21-.265.09-.106.137-.156.235-.262.25-.258.258-.254.27-.254.28-.25.192-.16.101-.086.301-.242.313-.242.324-.234.332-.235.344-.226.355-.227.363-.223.372-.214.382-.215.395-.211.398-.203.32-.157.09-.042.418-.196.426-.191.434-.188.445-.18.45-.18.456-.171.47-.164.472-.164.476-.156.164-.051.063-.02 4.238 2.121L29 60.426l3.484 1.738 1.856.93v-.04l19.953 8.266.512.211 3.418 1.418.105.043.004-.008.133.055.238.106.234.113.168.086.063.031.23.125.223.129.223.133.218.14.215.145.215.152.207.156.203.16.2.165.195.172.191.175.043.04.145.14.183.184.176.191.172.191.168.2.164.203.16.203.153.21.148.216.14.215.137.222.13.215.003.008.125.226.121.23.117.235.11.235.101.238.098.242.09.242.086.246.004.008.074.238.074.25.067.25.058.254.055.254.047.254.043.258.035.258.027.258.024.257.015.258.008.203.004.059v.09h-.004v6.3h-2.754v5.25h49.875V59.935h-.004l-.004-.504-.015-.64-.032-.638-.043-.636-.054-.637-.063-.633-.078-.633-.09-.633-.101-.632-.114-.625-.03-.16-.094-.47-.11-.5-.023-.12-.149-.621-.16-.618-.172-.617-.183-.61-.192-.609-.207-.601-.215-.602-.226-.597-.239-.59-.03-.067-.22-.523-.261-.582-.274-.578-.144-.297-.137-.273-.293-.567-.3-.562-.317-.555-.324-.55-.332-.544-.266-.41-.082-.129-.352-.527-.367-.528-.37-.515-.259-.34-.129-.168-.39-.504-.403-.496-.414-.488-.418-.477-.433-.473-.438-.464-.027-.032-.418-.422-.457-.449-.46-.437-.474-.43-.48-.422-.488-.41-.496-.402-.5-.395-.512-.383-.234-.172-.282-.203-.523-.363-.531-.355-.508-.328-.031-.016-.543-.336-.547-.324-.559-.313-.559-.304-.566-.293-.574-.282-.578-.273-.582-.258-.586-.25-.594-.238-.594-.23-.445-.157-.156-.059-.285-.097-.32-.106-.606-.195-.614-.184-.613-.171-.62-.157-.618-.148-.625-.137-.625-.125-.629-.113-.629-.102-.633-.086-.633-.078-.636-.066-.36-.031-.277-.024-.637-.043-.636-.027-.637-.02-.508-.004Zm.023 5.25h26.227l.465.004.594.02.597.031.594.043.445.04.149.015.593.066.594.082.59.09.586.105.586.118.582.129.582.14.574.153.574.164.57.175.567.188.563.2.558.21.555.223.379.16.168.074.547.246.539.258.531.266.527.277.524.293.515.297.508.312.504.32.496.333.2.136.288.203.485.356.476.36.465.37.461.383.45.39.445.4.433.41.04.035.195.195.191.187.418.426.41.434.399.445.39.45.38.46.374.465.36.477.351.48.344.492.332.496.32.5.114.188.199.324.297.516.289.523.28.528.044.09.223.44.257.54.246.543.235.55.097.247.126.308.21.559.2.562.187.567.176.57.164.574.152.575.141.582.004.004.125.578.117.586.106.586.09.59.058.421.023.172.067.59.055.598.042.593.032.598.02.594.003.449v14.559l-1.754-1.754-2.781-2.785-4.64 4.64-1.86-1.855-2.781-2.785-4.64 4.64-4.641-4.64-4.641 4.64-4.64-4.64-4.235 4.238-.895.89-.277.282-.078.074-.324.324-.012.016-.008.004-.004.004-.086-.176-.152-.297-.125-.23-.035-.063-.164-.29-.172-.284-.004-.008-.176-.274-.183-.28-.188-.274-.195-.274-.203-.265-.207-.262-.211-.258-.22-.25-.222-.25-.226-.246-.235-.238-.238-.23-.242-.231-.246-.223-.117-.101-.137-.118-.258-.214-.262-.207-.265-.2-.27-.199-.273-.187-.282-.184-.28-.18-.286-.172-.289-.168-.293-.16-.297-.152-.297-.148-.304-.141-.305-.137-.309-.129-.004.012-.02-.012-5.874-2.433-14.969-6.2V39.332l.016-.258.023-.258.02-.125.02-.129.007-.05.016-.075.027-.128.027-.125.07-.25.04-.121.086-.243.047-.12.027-.063.023-.055.055-.117.059-.117.058-.114.063-.113.062-.11.067-.113.074-.105.07-.11.055-.074.023-.027.157-.203.082-.102.086-.093.18-.188-.005-.004.094-.094.32-.304.164-.149.164-.144.168-.145.133-.11.035-.03.172-.141.172-.137.176-.133.18-.132.015-.012.164-.117.36-.25.183-.121.188-.121.187-.114.192-.113.125-.074.062-.04.192-.105.195-.105.074-.04.121-.066.196-.097.199-.098.398-.187.203-.09.203-.086.204-.082.105-.04.102-.038.207-.079.207-.074.039-.015.168-.059.422-.133.21-.062.211-.059.215-.058.211-.051.156-.04.06-.011.214-.05.219-.044.215-.043.218-.035.215-.039.219-.031.437-.055.22-.023.136-.012.082-.008.222-.02.438-.023.223-.008.195-.004Zm5.621 4.723-.515.027-.512.075-.5.125-.484.175-.094.043-.371.176-.027.016-.414.25-.415.304-.382.348-.344.383-.309.414-.265.441-.22.465-.108.305-.067.18-.125.5-.074.511v.008l-.023.504.023.516.074.511.125.5.176.485.219.465.265.441.309.414.344.383.093.082.29.262.414.308.44.266.466.219.484.172.5.128.512.075.516.023.511-.023.512-.075.5-.129.484-.171.465-.22.442-.265.414-.308.289-.262.093-.082.344-.383.309-.414.265-.441.22-.465.175-.485.125-.5.074-.511.028-.516-.028-.504v-.008l-.074-.511-.125-.5-.066-.18-.11-.305-.219-.465-.265-.441-.309-.414-.344-.383-.382-.348-.414-.304-.442-.266-.367-.176-.098-.043-.484-.175-.5-.125-.512-.075Zm-23.234 9.2v5.245l-.351.004-.618.008-.62.016-.618.023-.613.028-.617.03-.614.04-.613.047-.41.035-.2.015-.605.06-.605.062-.606.07-.597.074-.598.082-.594.086-.496.078-.68.113-.582.106-.582.11-.57.113-.57.12-.567.13-.558.132-.192.047-.363.09-.547.14-.543.153-.535.152-.11.032h.005l.007-.012.016-.02.023-.027.086-.101.34-.387.352-.375.36-.371.366-.36.38-.351.163-.145.055-.047.168-.148.395-.332.402-.324.41-.309.418-.305.426-.289.43-.28.44-.274.446-.258.45-.25.261-.133.195-.105.465-.223.469-.215.473-.203.48-.191.48-.18.489-.168.492-.156.496-.145.262-.066.234-.063.504-.12.504-.106.508-.094.508-.082.511-.07.512-.06.512-.042.516-.031.515-.02Zm0 9.054v3.547l-5.074-2.54-1.188-.593.286-.039.558-.066.344-.036.219-.023.562-.05.567-.048.566-.039.566-.035.57-.027.571-.024.574-.015.57-.008Zm40.203 21.34 4.64 4.64 4.641-4.64 4.641 4.64 4.64-4.64 4.641 4.64 2.782-2.785 1.859-1.855 4.535 4.535v8.766H70.043v-6.133h.004l-.004-.336-.012-.332-.02-.332-.023-.336-.031-.332-.012-.113-.027-.22-.047-.327-.05-.328-.008-.043v-.004l.007-.004.012-.016.023-.02.063-.062.043-.047.05-.05.036-.032Zm0 0"/>
    <path fill="#ff4b4b" d="M19.41 51.445c1.235-1.285 3.5-2.953 5.274-3.879 2.457-1.28 5.062-2.035 8-2.316l1.261-.121v5.062l-1.09.094c-.597.055-1.91.14-2.914.192-2.332.125-6.16.68-8.617 1.25-3.097.722-2.902.75-1.914-.282m11.586 4.625-2.86-1.445.86-.11c.473-.058 1.777-.16 2.902-.226l2.047-.117v1.68c0 .925-.02 1.675-.043 1.671a314 314 0 0 1-2.906-1.453M67.79 74.488c-1.321-2.27-4.017-4.758-6.427-5.937-.578-.281-5.77-2.461-11.539-4.844l-10.496-4.336.05-10.539.052-10.535.414-.918c.851-1.887 4.02-4.258 7.047-5.274 2.574-.867 3.058-.886 19.343-.816l15.145.066 2.11.465c11.577 2.551 19.956 10.91 22.542 22.493.371 1.652.39 2.187.453 10.878l.067 9.137-2.227-2.219-2.226-2.214-2.309 2.3L97.48 74.5l-2.304-2.305-2.305-2.3-2.308 2.3-2.305 2.305-2.352-2.348-2.351-2.343-2.348 2.347-2.352 2.344-4.609-4.61-2.887 2.887-2.886 2.883Zm-7.888-28.734c1.715-.934 2.657-2.559 2.657-4.586 0-2.152-1.004-3.762-2.946-4.715-2.187-1.078-4.511-.637-6.156 1.164-.984 1.074-1.41 2.149-1.41 3.551 0 1.328.41 2.434 1.25 3.387 1.73 1.965 4.328 2.437 6.605 1.199M70.11 84.297l-.09-4.395 4.218-4.265 2.309 2.304 2.308 2.301 2.352-2.344 2.348-2.343 4.703 4.687 2.305-2.3 2.308-2.305 4.61 4.61 2.308-2.306 2.313-2.304 2.214 2.218 2.22 2.223v8.613H70.198Zm0 0"/>
</svg>
