<svg xmlns="http://www.w3.org/2000/svg" width="120" height="120" viewBox="0 0 120 120">
    <path d="m67.742 5.531-1.144.008-1.141.031-1.144.067-1.137.09-1.137.12L60.906 6l-1.074.172-.055.008-1.125.207-1.117.238-1.11.266-1.105.297-1.097.32-.532.172-.554.18-1.078.378-1.07.403-1.06.433-1.042.461-1.035.485-1.024.515-.46.246-.548.293-.73.414-.262.149-.832.5-.148.09-.961.617-.95.636-.93.665-.913.683-.895.711-.879.734-.86.754-.835.778-.137.129-.367.359-.316.309-18.563 18.562-.215.219-.218.222-.211.223-.211.227-.008.008-.203.218-.207.23-.406.47-.2.234-.195.238-.184.227-.011.015-.192.239-.191.246-.375.492-.184.25-.18.25-.351.508-.176.258-.168.257-.11.168-.058.09-.168.262-.16.262-.32.53-.457.81-.106.195-.039.078-.148.27-.14.277-.274.554-.133.278-.133.281-.129.281-.058.133-.04.09-.027.059-.242.57-.117.285-.227.578-.21.578-.106.293-.195.586-.094.293-.18.594-.086.297-.02.078-.062.219-.078.3-.078.297-.074.301-.07.3-.067.306-.066.3-.04.2-.023.105-.059.3-.109.61-.047.305-.047.308-.046.305-.016.145-.024.164-.039.304-.035.309-.031.305-.055.617-.023.308-.02.309-.015.309-.024.617-.008.308-.003.266h-.004v34.414l.015.746.043.774.07.77.098.765.13.761.155.758.051.203.133.547.21.743.24.738.26.726.294.715.316.707.344.692.371.68.39.663.419.653.441.633.465.617.394.488.094.113.317.367.191.215.527.563.551.547.57.52.59.503.606.477.625.457.64.433.653.41.672.387.394.207.29.153.698.335.707.31.72.28.73.258.738.227.746.203.754.172.758.148.765.117.766.09.773.063.157.007.613.024.773.008.774-.028.77-.05.769-.079.766-.109.761-.137.754-.164.75-.195.742-.219.73-.246.032-.012.367-.14.325-.121.714-.301.7-.328.687-.352.676-.375.66-.402.648-.426.63-.45.609-.472.597-.492.168-.152.407-.364.558-.539-.16-.156 3.703-3.703L36.273 93.32l-.148.149h-.004l-3.41 3.414-.14.14-.012.008.164.164-.13.118-.3.242-.316.218-.336.196-.348.168-.336.136-.023.008-.368.117-.375.09-.382.063-.387.031-.387.008-.383-.028-.386-.05-.38-.082-.366-.106-.141-.05-.223-.087-.351-.16-.34-.183-.324-.211-.309-.235-.289-.257-.27-.278-.246-.293-.226-.316-.203-.328-.18-.344-.152-.355-.125-.364-.098-.375-.074-.383-.012-.132-.027-.25-.012-.254-.004-.13.008-.257.015-.258.032-.254.047-.254.054-.254.07-.25.083-.242.09-.242.105-.234.117-.23.125-.223.137-.22.152-.21.156-.203.168-.195.137-.141.043-.047.184-.176.195-.172.207-.156.207-.148.219-.141.226-.125.23-.117.235-.102.239-.093.246-.082.246-.067h.004l.25-.058.254-.043.257-.032.254-.02.258-.007v-.055l.023.055 6.934-2.871 7.746-3.207 6.496-2.692-4.3 10.38-.25.105.101.25-.02.05.051.02 1.875 4.531 12.012-4.976.008-.004 2.008-.832.445-.184.078-.035-.047-.11.192-.07.359-.125.367-.12.363-.114.372-.11.37-.1.372-.095.375-.086.375-.078.375-.074.379-.066.37-.059.009-.004.378-.05.383-.047.38-.04.765-.054.387-.016.382-.012.383-.004.383.004.383.008.383.02.086.004.296.02.387.03.379.04.383.046.379.051.379.059.379.066.375.074.375.079.375.085.37.094.223.063.149.039.367.11.367.112.367.118.36.129.36.132.358.14.352.15.355.152.348.16.344.164.344.172.23.12.074.044.035.016.336.187.332.188.332.199.325.203.324.207.316.215.625.445.305.234.3.235.298.246.293.246.289.254.117.105.168.153.277.265.219.215.008.004-.008.008.219.219.445.43.027.027.2.183.226.207.23.207.235.207.469.399.238.199.242.195.238.192.247.191.246.188.246.183.129.098.12.086.25.183.509.352.257.172.09.062.168.11.258.168.523.328.266.16.266.156.125.074.144.082.27.153.539.297.273.144.242.125.036.016.277.14.277.137.278.133.28.133.563.25.286.125.285.12.285.114.289.117.285.11.293.11.29.105.292.101.285.098.008.004.293.097.293.094.594.18.297.086.296.082.301.078.297.078.3.07.302.075.304.066.301.066.305.059.3.059.11.023.195.035.61.102.304.047.309.043.305.043.617.07.305.031.308.031.617.047.618.04.113.003.195.008.309.012.308.008.313.003h5.558v-52.5h-.004l-.011-1.011-.043-1.14-.074-1.142-.102-1.136-.133-1.137-.16-1.133-.187-1.125-.22-1.12-.245-1.118-.278-1.11-.218-.788-.086-.313-.332-1.094-.36-1.086-.386-1.074-.415-1.066-.44-1.051-.47-1.043-.496-1.031-.52-1.016-.07-.129-.476-.875-.574-.988-.383-.625-.215-.352-.625-.957-.645-.941-.671-.926-.696-.906-.715-.89-.718-.84-.024-.032-.762-.851-.785-.832-.804-.813-.825-.789-.843-.77-.868-.746-.882-.726-.899-.703-.922-.676-.937-.656-.953-.633-.965-.606-.988-.582-.996-.554-.208-.11-.257-.133-.547-.289-1.028-.504-1.039-.476-1.023-.441-.027-.008-1.059-.426-1.074-.395-1.082-.37-1.09-.34-.633-.18-.465-.133-1.105-.285-1.117-.258-1.118-.227-1.125-.199-1.132-.172-1.133-.14-1.137-.11-.27-.02-.87-.066-1.141-.05Zm-.734 5.25 1.055.004 1.054.035 1.051.059.727.062.324.028 1.047.117 1.046.148 1.04.172 1.035.2 1.027.23 1.023.254 1.016.285 1.008.313.035.011.965.324.988.364.98.39.97.418.956.442.106.05.836.415.933.496.918.515.907.543.043.028.847.539.871.59.86.613.84.633.824.66.805.68.515.46.274.239.77.722.745.742.73.762.708.781.687.801.664.817.645.836.62.855.595.867.574.883.18.297.37.602.528.914.5.93.477.94.449.954.426.965.398.976.375.985.348.996.105.34.211.664.293 1.011.266 1.024.238 1.027.156.754.055.277.183 1.04.153 1.042.129 1.047.097 1.047.07 1.055.044 1.05.011.938v47.238l-.586-.007-.289-.008-.293-.012-.265-.016h-.028l-.585-.039-.29-.023-.293-.027-.289-.032-.293-.035-.289-.039-.293-.039-.289-.043-.289-.047-.285-.05-.578-.11-.285-.062-.215-.047-.07-.016-.285-.066-.286-.07-.28-.071-.286-.078-.281-.078-.282-.082-.28-.086-.098-.031-.18-.055-.555-.188-.277-.097-.547-.203-.547-.22-.047-.019-.222-.094-.27-.113-.531-.242-.266-.125-.523-.258-.262-.133-.258-.136-.258-.14-.125-.067-.132-.075-.254-.144-.254-.149-.5-.304-.246-.156-.2-.13-.046-.03-.243-.16-.242-.165-.242-.168-.477-.344-.234-.175-.2-.153-.03-.023-.23-.18-.231-.183-.227-.188-.445-.375-.656-.586-.211-.203-.211-.2-.211-.206-.043-.043.008-.008-.047-.047-.082-.078-.172-.172-.309-.297-.316-.289-.317-.281-.324-.281-.324-.274-.332-.265-.336-.262-.34-.258-.344-.254-.351-.246-.172-.117-.18-.121-.355-.235-.13-.082-.23-.148-.363-.223-.367-.215-.371-.21-.375-.207-.375-.2-.383-.191-.383-.188-.386-.18-.387-.171-.395-.168-.285-.117-.11-.043-.394-.157-.402-.148-.403-.14-.402-.137-.406-.13-.41-.12-.41-.114-.41-.109-.415-.102-.418-.097-.12-.024-.298-.062-.418-.082-.418-.074-.421-.07-.422-.06-.422-.054-.426-.047-.422-.043-.426-.031-.425-.027-.203-.008-.223-.012-.426-.016-.426-.004h-.425l-.426.008-.43.016-.422.023-.43.028-.421.035-.426.043-.246.027-.176.024-.422.054-.422.063-.422.07-.418.078-.418.082-.418.09-.414.098-.414.105-.414.11-.363.101-.043.016-.41.125-.04.012-.366.117-.403.136-.402.145-.399.148-.398.157.05.125-.05.02-6.906 2.859 4.297-10.38.101-.038.969-.403-2.012-4.851-12.414 5.144-7.746 3.207-6.957 2.883-1.023.422-.168.07-.086.012-.09.008-.34.05-.34.063-.336.07-.332.086-.332.094-.328.106-.32.117-.32.125-.317.136-.309.149-.308.156-.3.164-.294.18-.035.02-.254.163-.281.196-.278.207-.27.21-.175.15-.086.073-.254.23-.246.24-.238.25-.234.253-.22.262-.214.27-.207.273-.195.285-.008.016-.176.273-.18.293-.164.3-.156.305-.148.313-.137.312-.125.32-.012.032-.105.293-.106.328-.094.332-.082.332-.074.336-.062.336-.051.34-.04.344-.026.34-.016.343-.008.344.004.133.012.383.035.515.062.512.09.508.113.5.137.5.16.488.008.016.18.464.207.47.226.445.008.015.254.45.274.437.296.418.32.406.337.39.355.376.371.355.39.336.407.317.422.296.254.16.18.118.148.082.3.172.462.23.472.211.48.184.49.16.495.14.504.114.508.086.262.03.25.032.511.04.516.01.516-.01.515-.04.512-.062.508-.086.504-.114.468-.132.028-.008.488-.16.48-.184.473-.21.457-.231.45-.254.437-.278.422-.296.406-.317.293-.254.094-.082.222-.21.008.011.032.027.011.016 3.657 3.656-.47.445-.495.442-.516.414-.531.394-.551.376-.562.347-.532.297-.047.027-.32.164-.27.137-.601.274-.613.25-.625.222-.633.2-.64.167-.65.145-.651.113-.657.09-.66.059-.664.035-.66.004-.664-.024-.246-.02-.414-.03-.657-.082-.656-.106-.648-.133-.64-.16-.638-.187-.629-.215-.617-.242-.605-.266-.594-.293-.582-.316-.457-.274-.113-.066-.555-.364-.535-.386-.262-.207-.262-.203-.5-.434-.488-.45-.465-.472-.445-.492-.422-.508-.402-.527-.38-.543-.358-.559-.333-.574-.308-.586-.281-.598-.258-.613-.235-.621-.128-.398-.075-.23-.18-.638-.152-.644-.125-.653-.097-.656-.07-.656-.04-.664-.015-.59V59.152l.007-.289.016-.57.016-.29.039-.57.047-.57.062-.57.04-.281.034-.285.043-.286.032-.18.015-.1.047-.282.05-.281.056-.282.117-.562.066-.277.067-.282.02-.082.046-.195.074-.277.074-.274.082-.277.164-.547.18-.547.012-.035.082-.234.094-.27.101-.27.035-.093.067-.172.105-.266.219-.531.113-.262.117-.261.122-.258.12-.262.126-.258.129-.254.128-.258.137-.25.137-.253.082-.149.055-.101.14-.246.145-.25.148-.247.149-.242.152-.242.156-.242.32-.477.07-.101.095-.133.164-.234.336-.461.175-.23.176-.224.176-.226.184-.223.058-.07.121-.148.188-.22.375-.429.195-.215.191-.207.2-.21.199-.204.05-.05.15-.153 3.714-3.71 11.453-11.458 3.453-3.453.696-.676.777-.715.004-.004.789-.691.812-.672.828-.648.516-.383.332-.246.762-.535.101-.07.88-.583.894-.558.906-.535.926-.508.937-.485.946-.46.965-.434.968-.406.985-.383.093-.032.899-.324 1.004-.328 1.008-.3 1.02-.274 1.023-.246 1.03-.223.157-.027.883-.164 1.039-.164.539-.07.508-.063 1.047-.11 1.05-.082 1.055-.05Zm3.77 10.766-.774.023-.77.051-.77.082-.765.106-.761.14-.754.164-.75.192-.743.218-.73.247-.723.277-.715.297-.23.11-.469.218-.687.351-.676.375-.566.344-.094.059-.649.426-.629.449-.609.472-.598.497-.574.515-.558.535 3.71 3.711h.004l.477-.457.496-.441.516-.414.531-.395.352-.238.023-.016.176-.12.562-.348.578-.325.59-.3.606-.274.613-.25.625-.223.633-.195.64-.172.645-.144.652-.114.657-.09.66-.058.664-.035h.3l.36-.004.664.023.66.051.66.082.653.106.648.133.645.16.632.187.63.215.617.242.605.266.598.293.582.316.566.34.082.055.3.199.173.11.539.386.52.41.503.434.485.449.464.473.446.492.422.508.402.527.36.512.023.031.355.559.332.574.309.586.281.597.262.614.23.62.203.63.028.09.152.546.153.645.124.652.098.657.07.66.04.66.015.66v15.785l-.012.43-.043.46-.066.458-.098.457-.12.445-.15.442-.171.43-.2.417-.222.41-.246.391-.27.379-.289.363-.312.344-.113.113-.012.008-.203.203-.352.305-.11.082-.257.2-.383.26-.398.24-.41.214-.426.191-.434.164-.441.141-.45.113-.456.086-.461.059-.184.012-.277.02-.465.003-.465-.023-.46-.051-.458-.074-.45-.106-.444-.129-.438-.156-.426-.184-.418-.207-.402-.23-.387-.254-.37-.274-.36-.3-.332-.313-.004-.004-3.711 3.711.43.41.449.391.387.313.078.058.48.352.496.324.512.305.523.28.356.169.183.086.547.234.559.203.566.184.575.156.578.129.586.102.59.074.593.05.594.024.594-.004.191-.012.402-.02.594-.058.586-.086.586-.113.578-.137.57-.164.567-.187.418-.164.137-.051.527-.234.547-.274.52-.285.507-.313.492-.336.258-.19.219-.165.46-.375.442-.398.192-.192.23-.226.406-.438.383-.453.363-.469.344-.488.317-.5.296-.516.274-.53.078-.173.168-.367.223-.55.199-.563.172-.567.148-.578.121-.582.094-.586.066-.594.04-.593.015-.594v-15.75l-.015-.77-.043-.773-.07-.77-.098-.765-.13-.766-.132-.636-.024-.122-.183-.75-.211-.742-.238-.734-.262-.727-.293-.718-.316-.704-.344-.695-.371-.68-.39-.664-.419-.648-.398-.57-.043-.067-.465-.617-.488-.602-.317-.363-.191-.219-.531-.562-.547-.543-.57-.523-.024-.02-.461-.395-.106-.085-.605-.481-.625-.457-.64-.434-.653-.41-.672-.383-.683-.363-.7-.332-.28-.125-.427-.183-.718-.286-.73-.254-.74-.23-.745-.2-.754-.175-.758-.148-.766-.118-.765-.09-.774-.062-.77-.031-.655-.004Zm-30.72 12.598-.386.02-.379.054-.375.093-.367.133-.348.164-.332.2-.309.23-.289.258-.257.285-.23.313-.2.332-.098.207-.066.14-.129.364-.094.374-.058.383-.02.367v.02l.02.387.054.379.098.375.129.367.066.14.098.208.2.332.23.308.257.29.29.257.308.23.332.2.348.164.367.129.375.093.379.059.387.02.386-.02.344-.05.04-.009.374-.093.363-.13.348-.163.332-.2.313-.23.285-.258.258-.289.23-.308.2-.333.163-.351.133-.363.094-.375.055-.38.02-.386v-.023l-.02-.364-.055-.383-.094-.374-.133-.364-.164-.347-.199-.332-.23-.313-.258-.285-.285-.258-.313-.23-.332-.2-.348-.168-.363-.129-.375-.093-.039-.004-.344-.05Zm0 0"/>
    <path fill="#f9f9f9" d="M26.898 109.016c-2.605-.38-5.28-1.489-7.351-3.047-2.777-2.094-4.77-5.094-5.754-8.66l-.328-1.196v-40l.336-1.656c.804-3.973 2.39-7.535 4.82-10.824.879-1.192 21.059-21.535 23.02-23.207 2.816-2.403 5.57-4.192 8.87-5.77 11.333-5.414 24.743-5.015 35.802 1.063 3.43 1.886 6.437 4.203 9.347 7.199 5.113 5.27 8.55 11.727 10.137 19.043.84 3.863.793 2.203.844 29.809l.046 25.437h-.843c-1.14-.004-3.68-.352-5.172-.71-2.91-.696-5.895-1.99-8.375-3.634-1.652-1.093-2.082-1.441-4.02-3.258-.863-.808-2.078-1.859-2.703-2.34-5.933-4.546-13.707-6.343-21.082-4.863-1.492.301-3.91 1.043-4.5 1.387-.594.344-6.785 2.918-6.851 2.852-.028-.028.886-2.32 2.035-5.098l2.086-5.043.554-.223.551-.218-.234-.555c-.133-.309-.578-1.395-.992-2.418s-.828-1.86-.922-1.86c-.09-.003-6.496 2.614-14.235 5.81-8.261 3.413-14.433 5.886-14.957 5.987-3.605.704-6.683 3.47-7.902 7.106-.352 1.047-.395 1.383-.395 3.21 0 1.833.043 2.169.395 3.212.55 1.644 1.32 2.883 2.59 4.172 3.75 3.812 9.55 4.222 13.832.98l.957-.723 1.797 1.793c2.074 2.07 2.058 1.778.199 3.176-3.32 2.504-7.637 3.645-11.602 3.067M82.121 71.07c4.617-1.175 8.27-4.808 9.555-9.507.328-1.211.332-1.25.332-11.434 0-9.402-.024-10.32-.27-11.461-.629-2.879-1.773-5.676-3.175-7.77-3.598-5.355-9.22-8.687-15.72-9.312-4.366-.422-9.347.789-13.085 3.184-.875.558-2.88 2.125-3.293 2.57l-.36.387 1.817 1.82c1 1 1.871 1.82 1.941 1.82.067 0 .496-.316.95-.707 3.46-2.96 8.242-4.336 12.582-3.62 6.375 1.05 11.078 5.339 12.886 11.745.309 1.09.317 1.395.367 10.758.055 10.437.051 10.516-.738 12.191-.57 1.215-2.3 2.973-3.492 3.543-2.805 1.344-6.012 1.008-8.383-.879l-.746-.593-1.883 1.89-1.883 1.887.73.645c1.72 1.503 4.599 2.82 6.864 3.128 1.383.192 3.633.063 5.004-.285M41.418 41.81c.89-.317 1.637-.965 2.129-1.852.367-.668.43-.934.43-1.875 0-.937-.063-1.203-.434-1.875q-1.144-2.068-3.57-2.062c-1.47 0-3.02 1.054-3.625 2.457-.297.691-.297 2.273 0 2.96.343.801 1.261 1.739 2.082 2.118.86.402 2.062.453 2.988.129m0 0"/>
</svg>
