<svg xmlns="http://www.w3.org/2000/svg" width="120" height="120" viewBox="0 0 120 120">
    <path d="M113.258 13.684 71.91 27.285l-2.797.918-4.453 1.469-1.187.387-.07.023-.032.012-.14.008-.622.035-.707.066-.293.027-.289.04-.68.09-.44.078-.49.09-.886.195-.824.23-.398.137-.368.125-.691.285-.613.309-.532.332-.441.351-.012.012-.336.351-.25.375-.148.383-.05.383.05.387.148.383.192.28.058.095.348.363.441.351.532.329.613.312.691.285.07.024.266.093.426.145.828.23.293.063.016.004-.016.012-.015.015-.04.035-.48.438-.508.484-.453.446-.012-.008-.09.09-.093.086-.024.019-.074.066-.098.082-.101.083-.102.078-.105.074-.11.074-.105.07-.11.067-.07.043-.043.023-.113.063-.113.058-.235.11-.117.05-.242.094-.121.043-.09.028-.031.011-.125.035-.25.063-.125.027-.129.024-.125.02-.258.03-.129.012-.129.008-.129.004-.125.004v-.004h-31.5v.004l-.347.004-.442.02-.441.03-.438.043-.437.055-.438.067-.433.082-.434.09-.093.023-.336.082-.426.117-.422.129-.418.14-.05.016-.368.133-.41.164-.402.176-.403.187-.394.196-.391.207-.281.16-.102.062-.379.227-.37.242-.364.25-.356.262-.351.27-.34.28-.332.29-.328.297-.317.308-.308.317-.164.18-.133.148-.29.332-.167.203-.113.137-.27.351-.262.356-.25.363-.242.371-.226.379-.223.383-.207.39-.195.395-.188.398-.039.094-.137.313-.16.41-.152.418-.14.418-.13.422-.117.425-.105.43-.09.434-.082.433-.067.438-.02.16-.034.277-.043.438-.031.441-.02.441-.008.442v5.25h.012l5.238.7 5.25.702 26.25 3.5 2.102.281v.067H6.742v5.25l.008.344.016.343.027.344.039.34.05.34.063.34.07.336.087.332.093.332.106.324.117.324.004.016.121.304.137.317.148.308.156.305.164.3.18.298.184.289.195.281.207.277.211.27.223.262.23.254.242.246.246.238.227.207.027.023.145.121.117.102.27.215.277.203.281.195.29.188.292.176.301.168.305.156.312.148.317.137.316.125.324.117.328.106.332.093.067.016.265.066.336.075.336.062.34.047.344.04.34.03.343.016.344.004h26.25l.242.004.239.004.242.007.238.012.242.012h.004l.235.02.242.019.238.023.477.055.476.07.238.04.235.042h.012l.226.047.234.047.235.051.234.055.469.117.46.133.231.07.059.016.172.054.226.078.23.079.224.082.453.171.222.09.22.094.222.098.218.097.22.102.054.027.16.078.43.22.21.112.423.235.207.125.203.12.207.13.199.129.203.133.399.273.195.14.191.141.192.149.191.144.027.024.16.129.184.152.188.152.539.48.176.165.343.336 13.457 13.457v5.18h43.313V34.394h-5.254v.02l-.133-.099-.582-.394-.59-.387-.594-.375-.601-.363-.594-.344-.012-.008-.613-.343-.62-.332-.626-.32-.633-.31-.636-.296-.641-.285-.649-.278-.652-.261-.656-.25-.66-.243-.664-.226-.668-.215-.672-.207-.2-.055-.476-.137-.68-.18-.683-.167-.602-.137-.086-.015-.687-.145-.688-.133-.695-.117-.695-.105-.696-.094-.699-.082-.7-.07-.698-.055-.516-.032-.187-.011-.7-.032-.527-.015.004-.004.016-.008ZM85.414 32.535l.637.004.64.02.637.027.379.027.258.016.637.055.632.066.633.074.633.09.629.102.629.113.625.125.625.137.62.148.618.156.617.172.61.184.609.191.227.078.379.13.597.214.598.23.59.239.59.25.582.258.578.273.57.281.566.293.563.305.023.012.532.3.55.325.543.336.54.343.527.356.273.187.254.176.102.074.414.301.507.383.504.394.496.403.489.41.332.293v59.98H77.297l-7.352-7.355-9.746-9.742-.39-.383-.2-.188-.199-.183-.203-.184-.414-.36-.207-.175-.422-.344-.215-.168-.219-.164-.128-.097-.09-.067-.219-.16-.223-.16-.68-.457-.23-.149-.23-.144-.23-.14-.24-.141-.233-.137-.477-.266-.164-.09-.078-.039-.485-.25-.246-.117-.246-.12-.23-.106-.016-.008-.25-.113-.5-.211-.254-.106-.508-.195-.515-.188-.516-.171-.262-.083-.523-.156-.262-.074-.261-.07-.266-.067L49 77.7l-.098-.023-.265-.063-.266-.058-.27-.055-.265-.05-.54-.095-.269-.043-.175-.023-.094-.016-.27-.035-.273-.031-.27-.031-.273-.028-.27-.023-.547-.04-.156-.007-.113-.004-.273-.011-.274-.008-.547-.008h-26.25v.004l-.254-.008-.258-.02-.257-.03-.254-.044-.25-.058-.25-.07-.242-.079-.243-.094-.234-.105-.23-.113-.227-.13-.215-.136-.21-.148-.208-.16-.195-.168-.184-.176-.18-.188-.167-.195-.16-.203-.149-.211-.137-.219-.125-.223-.117-.23-.105-.238-.09-.239-.07-.203-.012-.043-.07-.246-.055-.254-.047-.254-.031-.257-.016-.254-.008-.258h34.125v-10.5h-.008l-.515-.07-2.102-.278-26.25-3.504-5.25-.699v-.7l.004-.343.02-.34.027-.343.039-.344.05-.34.06-.328.003-.008.07-.336.083-.332.097-.332.106-.328.113-.324.129-.317.137-.316.144-.313.156-.304.168-.301.176-.293.188-.29.195-.284.168-.223.04-.05.21-.27.219-.258.004-.004.23-.258.238-.246.25-.238.254-.23.262-.223.27-.215.277-.203.281-.196.086-.054.203-.133.293-.176.301-.168.305-.156.312-.149.317-.136.32-.125.098-.035.222-.082.328-.102.332-.098.332-.082.336-.074.34-.059.34-.05.34-.04.344-.027.343-.02h.078l.168-.003h31.668l.172-.004.172-.008.344-.023.172-.016.172-.02.168-.019.172-.023.167-.028h.004l.168-.027.504-.106.168-.043.164-.042.168-.043.328-.102.164-.055.16-.054.16-.059.009-.004.152-.059.32-.132.313-.14.152-.075.156-.078.153-.078.148-.082.152-.086.145-.086.148-.09.29-.188.023-.015.117-.082.14-.098.141-.102.047-.035.09-.066.156-.125.114-.09.132-.11.258-.226.25-.234.074-.074h.004v.003l.008.004.035-.035.418-.41.164-.156.301-.281.469-.43.48-.422.489-.41.496-.403.504-.394.507-.383.516-.375.527-.363.528-.356.539-.343.543-.336.55-.325.532-.3.023-.012.563-.305.566-.293.469-.23.101-.05.579-.274.582-.258.59-.25.59-.242.597-.227.598-.215.605-.207.61-.191.609-.184.617-.172.617-.16.621-.144.625-.137.625-.125.035-.008.594-.105.63-.102.632-.09.633-.074.633-.066.636-.055.637-.043.637-.027.64-.02ZM73.586 43.84l-.387.02-.383.058-.375.094-.363.129-.351.168-.329.195-.312.23-.285.262-.262.285-.094.125-.101.14-.035.044-.196.332-.168.351-.129.364-.093.375-.059.383-.016.382.016.387.059.383.093.375.13.363.167.352.196.332.195.261.035.047.262.285.285.262.312.23.329.196.351.168.363.129.375.094.383.058.387.02.383-.02.383-.058.375-.094.078-.027.285-.102.351-.168.332-.195.309-.23.285-.263.262-.285.23-.308.153-.262.043-.07.168-.352.129-.363.093-.375.059-.383.02-.387-.02-.382-.059-.383-.093-.375-.13-.364-.167-.351-.196-.332-.035-.043-.101-.14-.094-.126-.262-.285-.285-.262-.309-.23-.332-.195-.351-.168-.285-.102-.078-.027-.375-.094-.383-.059Zm-53.98 5.515-.258.012-.254.04-.2.046-.05.016-.242.086-.235.11-.07.042-.149.09-.207.152-.191.172-.172.191-.156.208-.133.222-.047.102-.062.133-.086.242-.063.25-.039.254-.004.136-.008.121.012.254.04.258.062.25.086.242.062.133.047.098.133.222.156.208.172.19.191.173.207.152.22.133.234.11.242.09.05.01.2.052.254.035.257.015.258-.015.254-.035.25-.063.242-.09.235-.109.222-.133.204-.152.19-.172.177-.191.152-.208.133-.222.11-.23.085-.243.063-.25.039-.258.011-.254-.003-.12-.008-.137-.04-.254-.062-.25-.086-.242-.11-.235-.132-.222-.152-.208-.176-.19-.191-.173-.207-.152-.145-.09-.074-.043-.235-.11-.242-.085-.25-.063-.254-.039Zm0 0"/>
    <path fill="#5984bd" d="M68.285 91.977c-5.351-5.36-9.668-9.536-10.55-10.204-2.633-2.003-5.989-3.523-9.583-4.347-1.515-.344-2.257-.367-16.972-.461l-15.387-.102-.824-.406c-1.434-.703-2.563-2.262-2.856-3.945l-.117-.66h34.137l-.094-10.641-14.684-1.961a13472 13472 0 0 0-17.035-2.27l-2.351-.308.113-1.281c.39-4.274 3.035-7.766 6.988-9.23l1.117-.415 17.852-.094 17.852-.09 1.27-.464c1.839-.676 2.675-1.22 4.765-3.102 1.023-.922 2.492-2.144 3.265-2.719 12.364-9.168 29.461-8.816 41.586.856l1.075.855.003 30.028v30.03H77.344ZM20.938 54.266c2.296-1.399 1.308-4.922-1.383-4.922-2.59-.004-3.578 3.422-1.407 4.875.77.511 1.993.535 2.79.047m54.671-3.082c1.989-1.168 2.547-3.72 1.235-5.664-1.664-2.465-5.434-2.2-6.79.48-1.128 2.227 0 4.86 2.41 5.64.821.262 2.278.051 3.145-.456m0 0"/>
</svg>
