<svg xmlns="http://www.w3.org/2000/svg" width="120" height="120" viewBox="0 0 120 120">
    <path d="m75.063 10.71-1.29.192-1.273.567-1.25.937-1.21 1.305-1.165 1.652-.332.598-.773 1.387-.082.187-.168.367-.336.746-.45 1-.597 1.63-.356.968-.855 2.832-.012.031-.766 3.102-.109.547-.027.012-.23.093-.516.215-1.328.55-24.946 10.333.004.008v.004l-.027.011-.313.141-.156.074-.152.078-.305.164-.012.004-.136.078-.004.004-.145.086-.148.09-.145.09-.144.094-.282.195-.136.102-.141.105-.266.211-.132.113-.13.11-.128.117-.13.113-.085.082-.04.04-.12.116-.121.125-.235.25-.226.258-.219.266-.105.137-.204.273-.097.145-.047.062-.05.078-.188.29-.09.144-.172.297-.024.047-.058.105-.078.152-.075.149-.003.004-.149.312-.066.156-.059.133-.012.024-.398.972-.012.024-.023.058-.016.035-.11.235-.058.113-.062.113-.067.11-.066.113-.07.106-.075.109-.074.102-.078.105-.082.098-.082.101-.016.016-.07.078-.09.098-.18.18-.093.09-.098.085-.043.031-.055.051-.203.156-.105.078-.106.07-.218.141-.227.125-.227.118-.12.054-.044.016-.074.035.024.047-2.032.844-1.535.633-5.867 2.43-.027.015-.004-.016-.309.13-.304.136-.305.14-.297.149-.297.152-.293.16-.289.168-.285.172-.281.18-.282.184-.273.19-.27.196-.265.203-.262.207-.219.18-.039.031-.254.22-.074.065-.172.157-.238.222-.004.008-.238.235-.235.238-.226.242-.227.25-.215.254-.21.258-.207.261-.204.266-.101.14-.094.13-.187.273-.184.281-.18.282-.172.285-.164.293-.16.293-.152.297-.012.015-.137.281-.14.305-.133.305-.129.308-.121.313-.113.312-.11.317-.101.316-.094.32-.086.325-.082.324-.074.324-.067.328-.039.223-.02.105-.05.329-.047.332-.039.332-.031.332-.027.332-.016.332-.012.336-.004.332h.004v13.09l.008.48.02.48.03.48.044.481.054.477.07.477.083.472.094.473.105.469.121.468.129.461.133.434.008.027.156.453.168.453.176.446.191.441.2.438.214.433.223.426.234.418.246.414.227.352.031.054.27.403.277.39.285.387.3.375.306.371.316.363.328.352.203.21.133.134.234.23.11.106.355.328.36.316.34.281.03.028.38.297.382.289.395.277.398.266.407.257.414.247.422.234.308.164.547.273.438.2.44.191.446.18.453.164.457.156.457.145.465.129.465.117.133.03.336.075.473.094.472.082.477.07.48.055.477.047.48.031.48.02.352.004h26.211l.238.003.336.012.332.016.332.023.333.031.332.04.332.046.328.055.328.059.328.066.324.074.324.082.301.078.024.008.32.094.316.102.317.105.312.117.313.121.308.125.305.137.305.14.3.145.293.156.297.157.29.168.285.172.28.175.036.024.246.16.273.191.27.196.27.199.14.113.121.094.258.215.25.215.25.222.246.23.117.114.121.117v.004h-1.867v5.25h48.563V34.477h-5.25v1.328l-.078-.09-.305-.352-.23-.258-.083-.09-.32-.343-.32-.336-.328-.332-.332-.332-.68-.64-.348-.313-.351-.309-.356-.3-.36-.297-.366-.293-.367-.29-.375-.277-.102-.078-.098-.07-.18-.13-.378-.269-.387-.265-.39-.258-.391-.254-.399-.246-.398-.238-.406-.239-.407-.226-.41-.223-.414-.219-.043-.02-.375-.187-.418-.207-.851-.39-.43-.184-.43-.18-.437-.172-.434-.168-.441-.156-.196-.07-.246-.086-.043-.012-.398-.133-.45-.14-.445-.133-.449-.125-.453-.121-.453-.113-.453-.11-.457-.097-.461-.094-.281-.05-.176-.036-.461-.078-.461-.074-.465-.067-.46-.058h-.013l-.285-.032-.16-.02h-.008l-.004-.007-.003-.016-.043-.144-.758-2.512-.957-2.598-.785-1.746-.25-.554-.465-.84-.305-.547-.332-.598-1.168-1.652-1.21-1.305-1.25-.937-1.274-.567Zm0 5.25.769.165.766.492.75.813.304.472.422.657.7 1.433.663 1.719.622 1.996.57 2.25.117.547.402 1.933.461 2.692.278 1.996.12.875.122 1.105.21 1.922.259 3.157.187 3.246.113 3.312.04 3.344h5.25l-.063-3.86-.191-3.82-.313-3.75-.422-3.55-.011-.086-.551-3.493-.227-1.129.05.008.157.028.024.007.402.075.426.09.172.039.25.054.418.106.421.11.415.112.418.125.41.13.41.136.41.145.406.148.403.16.34.137.062.023.394.172.399.176.39.184.387.187.387.2.383.198.379.211.375.215.375.219.367.227.363.234.363.238.356.246.351.25.16.117.192.141.344.262.34.27.336.273.328.277.328.285.32.29.317.292.312.301.305.305.304.312.297.313.29.32.284.324.282.332.004.004.273.328.27.34.261.344.258.348.254.351.246.356.242.359.235.363.226.367.223.372.219.375.21.379.012.019.192.36.195.386.191.387.188.39.133.293v58.516H71.066l-.07-.121-.035-.05-.215-.329-.219-.32-.222-.32-.23-.313-.24-.309-.241-.304-.246-.301-.254-.297-.262-.29-.262-.284-.27-.285-.273-.274-.28-.273-.286-.266-.098-.086-.191-.172-.293-.257-.3-.247-.306-.246-.136-.105-.168-.133-.313-.23-.32-.227-.32-.223-.325-.215-.328-.207-.332-.203-.336-.195-.34-.191-.343-.184-.348-.18-.348-.168-.355-.164-.125-.058-.23-.102-.36-.148-.36-.145-.366-.14-.368-.13-.086-.03-.28-.094-.372-.118-.375-.109-.375-.105-.375-.098-.379-.086-.375-.082-.008-.004-.382-.074-.383-.067-.383-.062-.387-.055-.387-.047-.386-.039-.387-.03-.39-.028-.391-.016-.387-.012-.258-.004h-26.25l-.265-.003-.395-.02-.394-.031-.395-.04-.395-.054-.39-.066-.39-.078-.387-.086-.383-.102-.38-.113-.253-.082-.125-.043-.371-.133-.367-.148-.368-.157-.359-.168-.352-.18-.347-.187-.344-.2-.336-.21-.328-.219-.324-.234-.317-.238-.308-.25-.301-.258-.293-.266-.285-.277-.274-.285-.27-.293-.257-.301-.25-.309-.238-.316-.23-.32-.223-.332-.207-.336-.2-.34-.19-.352-.18-.351-.044-.094-.125-.266-.156-.363-.148-.371-.133-.371-.125-.38-.113-.378-.098-.383-.09-.387-.078-.39-.066-.39-.051-.391-.043-.395-.031-.398-.02-.395-.004-.289v-13.23h-.004l.004-.223v-.059l.008-.203.016-.258.023-.257.031-.258.035-.258.04-.258.046-.254.055-.254.063-.254.05-.191.016-.059.074-.25.078-.246.082-.246.094-.242.098-.242.101-.239.11-.234.113-.234.082-.157.04-.074.124-.226.133-.223.137-.223.289-.43.156-.21.156-.203.164-.203.168-.2.145-.16.027-.031.18-.191.183-.184.184-.18.191-.176.196-.171.406-.329.207-.152.21-.152.157-.106.059-.039.218-.14.223-.137.453-.25.23-.117.235-.114.238-.105.114-.047.007.012.125-.055 3.926-1.625 4.942-2.047.707-.293-.008-.02-.004-.011-.008-.016v-.004l.082-.035.156-.07.313-.148.305-.157.152-.082.297-.172.14-.086.004-.003.434-.282.14-.101.137-.098.274-.21.265-.22.258-.226.035-.031.09-.086.125-.118.125-.12.117-.122.121-.125.024-.027.094-.098.113-.129.11-.132.113-.13.105-.136.11-.133.101-.137.102-.14.195-.281.094-.145.058-.09.031-.055.09-.148.09-.145.082-.152.086-.152.078-.149.078-.156.075-.152.14-.313.059-.136.008-.024.402-.969.023-.054.028-.067.054-.117.055-.113.059-.117.062-.11.055-.097.012-.016.066-.11.07-.109.149-.21.078-.102.082-.102.082-.097.086-.098.086-.094.137-.137.046-.043.094-.09.098-.085.097-.082.102-.082.102-.079.105-.074.059-.043.047-.031.109-.07.11-.067.109-.062.113-.067.117-.058.113-.055.11-.05.008-.005.117-.05-.004-.008 2.016-.832 20.792-8.614.497-.207.011-.003.356-.149.156-.062-.023.129-.008.085-.426 3.551-.312 3.75-.188 3.82-.055 3.391-.008.469h5.247l.007-.469.032-2.875.113-3.312.187-3.246.262-3.157.211-1.922.117-1.105.13-.914.269-1.957.46-2.692.407-1.933.113-.547.574-2.25.618-1.996.664-1.719.699-1.433.422-.657.304-.472.75-.813.766-.492ZM99.16 48.513l-.273.015-.274.04-.222.054-.043.012-.262.094-.25.117-.234.14-.223.164-.203.188-.188.203-.164.223-.14.234-.043.09-.036.074-.039.086-.035.094-.058.164-.067.27-.039.273-.015.273.015.278.04.27.066.269.093.258.118.25.14.234.164.223.188.203 1.043 1.047.207.183.219.164.238.14.25.122.258.09.27.07.273.04.273.01.277-.01.059-.009.21-.03.27-.071.258-.09.25-.121.239-.14.218-.165.207-.183.184-.207.164-.22.144-.237.118-.247.09-.261.07-.266.039-.273.016-.278-.004-.054-.012-.22-.04-.273-.07-.265-.09-.262-.117-.246-.144-.238-.164-.22-.184-.206-1.047-1.043-.203-.188-.222-.164-.18-.105-.055-.035-.12-.055-.13-.062-.261-.094-.266-.067-.273-.039Zm-51.793 1.312-.515.028-.508.074-.5.125-.485.172-.464.222-.446.266-.41.305-.383.347-.347.383-.305.41-.094.153-.172.293-.222.464-.172.485-.125.5-.032.21-.042.298-.028.515.028.516.074.508.125.5.004.011.168.473.222.469.266.441.305.414.347.383.38.344.413.308.184.11.262.152.343.168.121.055.485.172.5.125.508.078.515.023.516-.023.508-.078.5-.125.043-.016.441-.156.469-.223.441-.262.414-.308.38-.344.347-.383.308-.414.262-.441.223-.469.168-.473.004-.011.125-.5.078-.508.023-.516-.023-.515-.047-.297-.031-.211-.125-.5-.172-.485-.223-.464-.172-.293-.09-.153-.308-.41-.348-.383-.379-.347-.414-.305-.441-.266-.469-.222-.441-.157-.043-.015-.5-.125-.508-.074Zm12.29 6.434-.278.012-.27.039-.27.07-.26.09-.247.12-.039.02-.2.121-.222.165-.203.183-.133.149-.05.054-.165.223-.144.238-.117.246-.094.262-.067.266-.039.273-.015.273.015.278.04.273.066.266.094.262.09.183.027.063.144.238.055.074.11.145.05.058.008.008.125.14 1.047 1.044.203.187.223.164.238.14.246.118.262.094.265.066.274.04.273.015.278-.016.273-.039.266-.066.261-.094.059-.027.191-.09.235-.14.222-.165.203-.187.188-.203.117-.164.047-.059.14-.234.118-.25.094-.258.004-.016.062-.254.04-.273.003-.059.012-.215-.016-.277-.039-.27-.066-.269-.094-.258-.117-.25-.14-.234-.165-.223-.187-.203-1.047-1.047-.203-.183-.22-.165-.202-.12-.036-.024-.25-.117-.257-.09-.27-.07-.273-.04Zm21.003.91-.277.016-.274.039-.265.066-.262.094-.246.117-.238.14-.059.047-.164.118-.203.187-.078.086-.106.117-.164.223-.144.234-.118.25-.093.258-.067.27-.039.273-.015.274v1.476l.015.277.04.274.066.266.094.257.117.25.144.239.164.218.184.207.203.184.023.016.141.105.059.043.238.14.246.118.262.094.265.066.274.043.277.012.274-.012.171-.027.032-.004.05-.008.02-.004.27-.066.257-.09.153-.074.097-.047.235-.14.222-.165.204-.184.187-.207.164-.218.14-.239.118-.25.086-.234.008-.023.066-.266.04-.274.015-.277v-1.476l-.016-.274-.039-.273-.066-.27-.008-.023-.086-.235-.117-.25-.14-.234-.165-.223-.187-.203-.204-.187-.222-.164-.235-.141-.097-.047-.153-.07-.257-.094-.27-.066-.02-.004-.253-.035Zm19.031 0-.21.012-.067.004-.273.039-.266.066-.262.094-.246.117-.238.14-.223.165-.203.187-.183.203-.165.223-.144.234-.05.11-.067.14-.094.258-.066.27-.04.273-.015.274v1.476l.016.277.039.27.066.27.094.257.117.25.144.239.165.218.183.207.203.184.223.164.238.14.024.012.222.106.262.094.266.066.273.043h.066l.211.012.274-.012.035-.008.238-.035.27-.066.035-.012.223-.082.25-.117.234-.14.223-.165.203-.184.187-.207.164-.218.078-.133.063-.106.117-.25.094-.257.066-.27.043-.27.012-.277v-1.476l-.012-.274-.043-.273-.066-.27-.094-.258-.117-.25-.063-.101-.078-.133-.164-.223-.187-.203-.203-.187-.223-.164-.234-.141-.25-.117-.223-.082-.035-.012-.27-.066-.238-.035-.035-.008Zm-27.386.21-.278.017-.273.039-.266.066-.261.094-.25.117-.235.14-.222.165-.082.078-.122.11-1.046 1.042-.184.207-.164.219-.145.238-.117.246-.058.168-.032.094-.07.266-.031.226-.008.047-.012.277.012.274.039.273.07.266.09.262.117.246.145.238.164.223.184.203.015.011.192.172.02.016.198.148.239.145.25.117.254.09.003.004.27.066.273.04.274.015.273-.016.274-.039.27-.066.257-.094.25-.117.164-.098.004-.004.07-.043.153-.113.066-.05.207-.184 1.043-1.047.188-.203.164-.223.097-.164.043-.07.117-.25.059-.164.035-.094.067-.27.043-.27.003-.14.008-.136-.011-.274-.043-.273-.067-.27-.094-.258-.117-.25-.043-.07-.097-.164-.164-.223-.188-.203-.203-.187-.223-.164-.234-.141-.25-.117-.258-.094-.27-.066-.265-.04h-.008Zm19.03 0-.21.013-.066.004-.274.039-.265.066-.262.094-.25.117-.219.133-.016.008-.222.164-.203.187-1.047 1.043-.184.203-.164.223-.144.238-.118.246-.05.149-.04.113-.07.266-.031.226-.008.047-.012.273.012.278.04.273.07.266.039.113.05.149.118.246.144.238.164.219.184.207.207.183.219.164.238.141.25.121.258.09.265.066.051.008.223.035.277.012.273-.012.274-.043.27-.066.019-.008.223-.078.015-.004.25-.121.239-.14.09-.067.128-.098.207-.183 1.043-1.047.012-.012.176-.191.164-.223.078-.133.063-.101.05-.106.067-.144.043-.117.05-.141.024-.094.043-.176.043-.273.012-.273-.012-.278-.043-.27-.067-.269-.05-.14-.043-.118-.067-.144-.05-.106-.063-.101-.078-.133-.164-.223-.176-.191-.012-.012-.203-.187-.222-.164-.235-.141-.25-.117-.262-.094-.207-.05-.058-.016-.274-.04-.261-.015Zm-31.151 7.536-.274.012-.273.039-.27.07-.258.09-.18.086-.07.031-.238.145-.219.164-.207.183-.183.204-.164.222-.141.238-.121.247-.05.148-.04.113-.066.266-.043.273-.012.274v1.48l.012.274.008.039.035.234.066.266.04.113.054.148.117.25.14.235.165.222.183.204.207.183.22.164.237.145.25.117.258.094.27.066.047.008.226.031.274.016.277-.016.27-.039.269-.066.258-.094.25-.117.238-.145.09-.066.129-.098.207-.183.183-.204.165-.222.144-.235.117-.25.094-.261.066-.266.032-.234.007-.04.012-.273v-1.48l-.012-.274-.039-.273-.066-.266-.094-.261-.117-.247-.144-.238-.165-.222-.183-.204-.207-.183-.13-.098-.089-.066-.238-.145-.067-.031-.183-.086-.258-.09-.27-.07-.27-.04Zm-18.375.129-.274.016-.273.039-.27.066-.258.094-.25.117-.152.094-.086.047-.219.164-.207.187-.183.203-.164.223-.141.234-.121.25-.09.258-.066.27-.043.273-.012.274v1.476l.008.184.004.093.043.274.066.266.094.257.117.25.14.239.165.218.183.207.207.184.22.164.085.05.152.09.25.118.258.094.27.066.273.043.274.012.277-.012.27-.043.124-.031.145-.035.258-.094.25-.117.238-.14.219-.165.207-.184.183-.207.165-.218.144-.239.117-.25.094-.257.066-.266.04-.274.003-.093.012-.184v-1.476l-.016-.274-.03-.215-.009-.058-.066-.27-.094-.258-.117-.25-.144-.234-.165-.223-.183-.203-.207-.187-.219-.164-.238-.141-.25-.117-.125-.047-.133-.047-.27-.066-.238-.035-.031-.004Zm10.02.082-.278.012-.27.039-.27.07-.257.09-.25.117-.238.145-.22.164-.206.183-.906.907-.137.14-.188.203-.164.223-.14.234-.117.25-.028.07-.066.188-.067.27-.043.273-.011.274.011.273.04.262.003.011.067.27.093.258.118.25.14.234.164.223.188.203.137.125.066.059.223.168.234.14.25.117.262.094.176.043.09.023.273.04.273.015.278-.015.273-.04.266-.066.261-.094.246-.117.239-.14.222-.165.204-.187.503-.504.543-.539.184-.207.148-.2.016-.019.14-.238.122-.246.094-.262.066-.266.039-.273.016-.273-.016-.278-.04-.273-.007-.02-.058-.246-.094-.262-.121-.246-.14-.238-.165-.223-.184-.203-.207-.183-.218-.164-.157-.094-.082-.05-.25-.118-.257-.09-.27-.07-.27-.04Zm-18.376.129-.277.016-.27.039-.27.066-.257.094-.25.117-.238.14-.16.122-.06.043-.206.187-1.043 1.043-.188.207-.164.219-.14.238-.09.188-.027.058-.094.262-.067.266-.043.273-.011.273.011.278.02.129.023.144.067.266.093.262.118.246.14.238.164.223.188.203.203.183.223.164.234.141.25.121.262.09.136.035.13.035.273.04.273.011.278-.012.273-.039.266-.07.261-.09.246-.121.239-.14.222-.165.204-.183 1.046-1.047.184-.203.164-.223.066-.11.075-.124.101-.211.02-.04.09-.257.066-.27.043-.273.012-.273-.004-.09-.008-.184-.043-.273-.066-.27-.09-.258-.02-.039-.101-.21-.14-.235-.165-.223-.184-.203-.207-.187-.218-.164-.239-.141-.25-.117-.257-.094-.27-.066-.121-.02-.149-.02Zm62.692 1.504-.188.008-.09.004-.273.039-.266.07-.262.09-.246.117-.238.144-.223.165-.203.183-.066.07-.117.133-.114.149-.05.074-.059.094-.086.144-.117.246-.094.262-.066.266-.04.273-.011.223-.004.05.016.278.039.273.066.266.094.262.117.246.086.144.059.094.054.074.11.145v.004l.183.203 1.047 1.043.203.187.223.164.234.14.094.044.156.074.13.047.132.047.113.027.153.04.273.038.273.016.278-.016.273-.039.266-.066.262-.094.129-.058.117-.06.238-.14.223-.164.203-.187.183-.203.121-.164.043-.059.145-.234.117-.25.008-.02.086-.238.066-.27.04-.27.015-.277-.016-.273-.039-.273-.066-.27-.094-.258-.012-.023-.105-.227-.145-.234-.043-.059-.12-.164-.184-.203-1.047-1.047-.203-.183-.223-.165-.234-.14-.25-.121-.262-.09-.266-.07-.203-.028-.07-.011-.176-.008Zm-18.375.129-.278.015-.273.04-.266.066-.066.023-.196.07-.246.118-.058.035-.18.105-.043.036-.18.128-.203.188-.183.203-.164.223-.145.234-.117.25-.094.258-.066.27-.04.273-.003.09-.012.183.016.274.039.273.066.27.094.258.117.25.145.234.164.223.183.203.383.382.219.223.445.442.059.054.144.13.223.163.234.14.25.122.262.09.266.07.105.016.168.023.273.012.086-.004.141-.004.05-.004.274-.039.266-.07.262-.09.246-.117.238-.145.223-.164.203-.183.183-.204.121-.164.043-.058.145-.239.117-.246.055-.152.039-.11.066-.265.04-.273.015-.274-.016-.277-.039-.274-.066-.265-.094-.262-.074-.152-.043-.094-.145-.238-.043-.059-.12-.16-.184-.207-1.047-1.043-.203-.184-.223-.168-.234-.14-.055-.024-.14-.066-.055-.027-.262-.094-.21-.051-.056-.016-.273-.039Zm9.289.398-.274.012-.273.043-.27.066-.258.09-.25.121-.238.14-.219.165-.207.183-.183.207-.164.22-.141.238-.121.25v.003l-.09.254-.066.266-.043.273-.012.278.012.273.043.274.066.265.09.254v.008l.121.246.14.238.165.223.183.203.207.184.211.16.008.004.238.144.25.118.258.093.27.067.273.039.274.015h1.48l.273-.015.274-.04.266-.066.261-.094.176-.085.074-.032.235-.144.222-.164.203-.184.188-.203.164-.223.14-.234.11-.234.008-.016.094-.262.066-.265.039-.274.016-.273-.016-.278-.039-.273-.066-.266-.094-.257-.008-.02-.11-.23-.14-.239-.164-.219-.188-.207-.203-.183-.222-.164-.235-.14-.25-.122-.261-.09-.266-.066-.273-.043-.274-.012Zm-18.375.13-.274.015-.273.039-.27.066-.258.094-.25.117-.238.14-.219.169-.207.183-.183.203-.164.223-.141.234-.07.149-.051.101v.008l-.09.254-.066.266-.043.273-.012.274.012.277.043.27.066.27.09.25v.007l.05.105.071.145.14.238.165.219.183.207.207.184.22.164.237.14.25.117.258.094.27.067.273.043.274.011h1.48l.273-.011.274-.043.27-.067.257-.094.25-.117.235-.14.222-.164.203-.184.188-.207.164-.219.07-.12.07-.118.106-.219.004-.012.008-.02.094-.257.066-.27.039-.269.016-.277-.016-.274-.039-.273-.04-.164-.026-.102-.094-.262-.008-.015-.004-.012-.105-.223-.141-.234-.164-.223-.188-.203-.203-.183-.222-.168-.235-.14-.25-.118-.258-.094-.27-.066-.272-.04-.274-.015Zm-9.028 7.218-.277.012-.27.039-.27.07-.26.09-.247.12-.238.141-.223.165-.203.183-.133.149-.05.054-.165.223-.144.238-.117.246-.094.262-.067.266-.039.273-.015.273.015.278.04.273.066.266.094.262.117.246.144.238.055.074.11.145.05.058.133.149 1.047 1.043.203.187.223.164.238.14.246.118.262.094.265.066.274.04.273.015.278-.016.273-.039.266-.066.261-.094.059-.027.191-.09.235-.14.222-.165.203-.187.188-.203.117-.164.047-.059.14-.234.118-.25.094-.258.066-.27.04-.273.015-.274-.016-.273-.012-.098-.027-.175-.066-.27-.094-.258-.117-.25-.14-.234-.048-.059-.117-.164-.187-.203-1.047-1.047-.203-.183-.223-.165-.235-.14-.25-.121-.257-.09-.27-.07-.273-.04-.246-.011Zm-18.375.129-.277.015-.27.04-.27.066-.132.047-.129.047-.246.117-.238.14-.223.164-.203.188-.184.203-.164.223-.144.234-.117.25-.09.258-.07.27-.04.273-.015.273.015.274.04.27v.003l.07.27.09.258.117.25.144.234.164.223.184.203 1.047 1.047.203.183.223.164.238.14.246.122.262.09.265.07.274.04.273.01.156-.007.122-.004.273-.039.266-.07.261-.09.25-.121.235-.14.222-.165.203-.183.188-.207.117-.16.047-.06.14-.237.118-.247.094-.261.066-.266.04-.273.015-.278-.016-.273-.031-.227-.008-.047-.066-.265-.094-.262-.117-.246-.14-.238-.048-.059-.117-.164-.187-.203-1.047-1.043-.203-.188-.223-.164-.235-.14-.25-.117-.257-.094-.27-.067-.273-.039Zm9.29.398-.274.012-.274.043-.27.066-.257.09-.25.121-.234.14-.078.06-.145.105-.203.183-.188.207-.164.22-.14.238-.117.25-.004.003-.09.254-.067.266-.039.273-.015.274.008.148.007.13.04.273.066.265.09.254.004.008.117.246.14.238.164.223.188.203.203.184.145.11.078.054.234.14.25.121.258.09.27.07.273.04.273.011h1.48l.274-.011.274-.04.27-.07.257-.09.11-.05.171-.086.207-.125.07-.051.149-.113.207-.184.184-.203.164-.223.14-.238.11-.23.008-.016.093-.262.067-.265.043-.274.004-.129.007-.148-.011-.274-.043-.273-.067-.266-.093-.257-.008-.02-.11-.23-.14-.239-.164-.219-.184-.207-.207-.183-.223-.164-.234-.14-.102-.052-.039-.015-.109-.055-.258-.09-.27-.066-.273-.043-.273-.012Zm-18.376.13-.273.015-.274.039-.27.066-.257.094-.25.117-.234.14-.223.165-.203.187-.188.203-.164.223-.14.234-.117.25-.004.008-.09.254-.067.266-.039.273-.015.274v.015l.011.262.043.27.067.27.09.25.004.007.117.25.14.238.164.219.184.207.207.184.223.164.234.14.25.117.258.094.27.067.081.011.192.032.273.011h1.48l.274-.011.274-.043.27-.067.257-.094.25-.117.234-.14.223-.164.203-.184.188-.207.164-.219.02-.035.12-.203.11-.23.008-.02.093-.258.067-.27.043-.269.011-.262v-.015l-.011-.274-.043-.273-.067-.266-.093-.262-.008-.015-.11-.235-.12-.203-.02-.03-.164-.224-.184-.203-.207-.187-.219-.164-.238-.14-.25-.118-.258-.094-.27-.066-.273-.04-.273-.015Zm64.477.124-.184.008-.093.004-.153.023-.117.016-.168.043-.102.027-.257.09-.25.121-.239.14-.222.165-.203.183-.184.204-.164.222-.14.238-.122.247-.094.261-.007.04-.059.226-.039.273-.008.168-.004.106v1.48l.012.274.04.273.058.227.007.039.094.261.121.25.14.235.165.222.184.204.203.183.222.168.239.14.25.118.257.094.102.023.168.043.117.016.153.023.093.004.184.012.273-.016.274-.039.152-.039.117-.027.258-.094.25-.117.234-.14.223-.169.207-.183.184-.204.164-.222.14-.235.122-.25.09-.261.066-.266.043-.273.011-.274v-1.476l-.003-.11-.008-.168-.043-.273-.067-.266-.09-.261-.12-.247-.141-.238-.164-.219-.184-.207-.207-.183-.062-.047-.16-.117-.235-.14-.25-.122-.258-.09-.27-.066-.273-.043Zm-18.375.129-.277.016-.27.039-.27.066-.257.094-.25.117-.086.05-.153.09-.222.165-.125.117-.078.07-.145.16-.039.043-.164.223-.14.234-.122.25-.094.258-.066.27-.039.273-.004.035-.012.239v1.476l.016.277.04.274.065.266.094.257.117.25.145.239.164.218.04.043.144.164.074.067.129.117.222.164.239.14.23.11.02.008.257.094.266.066.274.043.277.012.074-.004.2-.008.273-.043.054-.012.141-.035.074-.02.258-.093.25-.117.234-.14.223-.165.203-.184.188-.207.164-.218.14-.239.118-.25.093-.257.067-.266.043-.274.011-.277v-1.476l-.011-.239-.004-.035-.04-.273-.066-.27-.093-.258-.118-.25-.14-.234-.164-.223-.188-.203-.203-.187-.223-.164-.234-.141-.25-.117-.258-.094-.074-.02-.14-.035-.055-.011-.274-.04-.199-.011Zm10.02.082-.278.012-.273.039-.125.035-.141.035-.262.09-.152.074-.094.043-.238.145-.219.164-.207.183-1.047 1.047-.183.203-.164.223-.141.234-.117.25-.094.258-.066.27-.043.27-.012.277.012.273.043.273.058.243.008.027.094.258.117.25.14.234.165.223.183.203.207.187.219.165.238.14.25.117.258.094.27.066.152.024.121.016.09.003.184.012.277-.015.094-.012.175-.028.27-.066.258-.094.156-.074.094-.043.238-.14.219-.165.207-.187 1.043-1.043.14-.152.047-.055.164-.219.141-.238.117-.246.094-.262.066-.266.043-.273.012-.277-.012-.274-.008-.043-.035-.23-.066-.266-.094-.262-.117-.246-.14-.238-.165-.223-.187-.203-.203-.183-.22-.164-.089-.051-.148-.094-.25-.117-.258-.09-.27-.07-.273-.04Zm-18.376.129-.277.016-.168.023-.105.016-.106.027-.16.039-.258.094-.25.117-.238.14-.219.165-.207.187-1.047 1.043-.183.207-.164.219-.04.066-.101.172-.117.246-.094.262-.066.266-.004.02-.04.253-.011.277.012.274.039.254.004.02.066.265.094.262.117.246.14.238.165.223.183.203.207.183.223.164.234.141.25.121.258.09.207.055.063.015.273.04.254.011h.043l.254-.012.113-.015.156-.024.055-.015.215-.055.258-.09.25-.117.219-.133.019-.012.219-.164.207-.183 1.047-1.047.183-.203.164-.223.141-.234.117-.25.094-.258.066-.27.043-.27.008-.148.004-.129-.004-.124-.008-.149-.027-.176-.016-.097-.066-.27-.094-.258-.117-.25-.14-.234-.165-.223-.183-.203-.207-.187-.223-.164-.234-.141-.25-.117-.258-.094-.27-.066-.05-.008-.223-.031Zm-9.757 7.535-.274.012-.226.031-.047.008-.27.07-.258.09-.25.117-.238.145-.219.164-.207.183-.183.204-.164.222-.141.238-.121.247-.05.148-.04.113-.066.266-.043.273-.012.274v1.48l.012.274.043.273.066.266.04.113.05.148.121.25.14.235.165.222.183.204.207.183.22.164.237.145.25.117.258.094.27.066.047.008.226.031.274.016.273-.016.273-.039.27-.066.258-.094.25-.117.238-.145.09-.066.129-.098.207-.183.183-.204.165-.222.14-.235.121-.25.09-.261.07-.266.04-.273.011-.274v-1.48l-.012-.274-.039-.273-.07-.266-.09-.261-.12-.247-.141-.238-.165-.222-.183-.204-.207-.183-.13-.098-.089-.066-.238-.145-.25-.117-.258-.09-.27-.07-.273-.04Zm-18.375.129-.274.016-.273.039-.27.066-.258.094-.25.117-.152.09-.086.05-.219.165-.207.187-.183.203-.164.223-.141.234-.121.25-.09.258-.066.27-.043.273-.012.274v1.476l.012.277.043.274.066.266.09.257.121.25.14.239.165.218.183.207.207.184.22.164.085.05.152.09.25.118.258.094.27.066.273.043.274.012.277-.012.27-.043.124-.031.145-.035.258-.094.25-.117.238-.14.219-.165.207-.184.183-.207.165-.218.14-.239.121-.25.094-.257.066-.266.04-.274.011-.277v-1.476l-.012-.274-.039-.273-.066-.27-.094-.258-.12-.25-.141-.234-.165-.223-.183-.203-.207-.187-.219-.164-.238-.141-.25-.117-.258-.094-.145-.035-.125-.031-.27-.04Zm10.02.082-.278.012-.27.039-.27.07-.257.09-.25.121-.238.14-.22.165-.206.183-.906.907-.137.14-.188.203-.164.223-.14.234-.117.25-.094.258-.047.18-.02.09-.043.273-.011.274.011.273.043.273.067.27.093.258.118.25.14.234.164.223.188.203.137.125.066.062.223.165.234.14.25.117.262.094.265.066.274.04.273.015.278-.015.023-.004.25-.036.266-.066.261-.094.246-.117.239-.14.222-.165.204-.187.464-.465.172-.168.41-.41.184-.207.164-.219.14-.238.122-.246.09-.262.066-.266.023-.14.02-.133.012-.273-.012-.278-.043-.273-.066-.266-.09-.262-.121-.246-.14-.238-.165-.223-.184-.203-.207-.183-.218-.164-.157-.094-.082-.047-.25-.121-.257-.09-.27-.07-.27-.04Zm-18.376.129-.277.016-.27.039-.27.066-.257.094-.25.117-.238.14-.16.122-.06.043-.206.187-1.043 1.043-.188.207-.164.219-.14.238-.117.246-.094.262-.067.266-.043.273-.011.277.011.274.043.273.067.266.093.262.118.246.035.062.105.176.164.223.188.203.203.183.223.164.234.141.25.121.262.09.136.035.13.035.273.04.273.011.278-.012.273-.039.266-.07.261-.09.246-.121.239-.14.222-.165.204-.183 1.046-1.047.184-.203.164-.223.14-.234.102-.211.02-.04.09-.257.066-.27.043-.27v-.003l.012-.273-.012-.274-.043-.273-.066-.27-.09-.258-.02-.039-.101-.21-.14-.235-.165-.223-.184-.203-.207-.187-.218-.164-.239-.141-.25-.117-.257-.094-.27-.066-.121-.02-.149-.02Zm65.317 1.504-.278.012-.101.015-.172.024-.266.07-.262.09-.246.117-.238.144-.223.165-.203.183-.183.203-.164.223-.145.238-.047.098-.07.148-.094.262-.066.266-.04.273-.015.273.016.278.039.273.066.266.094.262.117.246.145.238.054.074.11.145.183.207 1.047 1.043.203.187.223.164.234.14.25.118.262.094.266.066.273.04.273.015.278-.016.273-.039.18-.047.086-.02.262-.093.246-.117.238-.14.223-.165.203-.187.183-.203.121-.164.043-.059.145-.234.117-.25.094-.258.066-.27.04-.273.015-.274-.008-.117-.008-.16-.039-.27-.066-.269-.094-.258-.117-.25-.145-.234-.043-.063-.12-.16L101.8 87l-1.047-1.047-.203-.183-.008-.008-.215-.157-.234-.144-.25-.117-.262-.09-.266-.07-.273-.04Zm-17.59.129-.274.015-.273.04-.27.066-.258.094-.25.117-.234.14-.223.164-.203.188-.156.172-.031.031-.164.223-.121.203-.02.031-.117.25-.094.258-.066.27-.043.273-.012.273.012.274.043.273.066.27.094.258.117.25.14.234.165.223.187.203.961.96.082.087.207.183.22.164.237.14.25.122.258.09.27.07.27.04.277.01.273-.01.273-.04.27-.07.258-.09.039-.02.21-.101.24-.14.218-.165.207-.183.074-.086.11-.118.062-.085.059-.079.043-.058.14-.239.117-.246.094-.261.066-.266.043-.273.012-.274-.012-.25v-.027l-.043-.274-.066-.265-.094-.262-.117-.246-.14-.238-.043-.059-.06-.078-.062-.086-.187-.203-1.043-1.043-.207-.188-.219-.164-.238-.14-.25-.117-.258-.094-.266-.067-.273-.039-.27-.015Zm8.504.398-.274.012-.273.043-.27.066-.258.09-.25.121-.238.14-.219.165-.207.183-.183.207-.024.028-.14.191-.141.239-.121.25v.003l-.09.254-.066.266-.043.273-.012.278.012.273.043.274.066.265.09.254v.008l.121.246.14.238.165.223.129.14.054.063.207.184.22.164.237.14.25.121.258.094.27.067.273.039.274.011h1.48l.273-.011.274-.04.23-.058.036-.008.261-.094.094-.046.156-.075.235-.14.222-.164.203-.184.188-.203.164-.223.14-.238.11-.23.008-.016.094-.262.066-.265.023-.149.016-.125.016-.273-.016-.278-.039-.273-.066-.266-.094-.257-.008-.02-.11-.23-.14-.239-.145-.191-.02-.028-.187-.207-.203-.183-.222-.164-.235-.14-.25-.122-.261-.09-.036-.011-.23-.055-.273-.043-.274-.012Zm-17.586.13-.278.015-.273.039-.266.066-.261.094-.247.117-.238.14-.222.169-.204.183-.093.102-.09.101-.164.223-.145.234-.117.25-.004.008-.09.254-.066.266-.04.273-.015.274.016.27v.007l.039.27.066.27.09.25.004.007.117.25.145.238.164.219.183.207.204.184.124.09.098.074.238.14.247.117.261.094.266.067.273.043.278.011h1.476l.278-.011.27-.043.269-.067.257-.094.09-.039.16-.078.098-.058.14-.082.223-.164.204-.184.183-.207.164-.219.145-.238.11-.234.007-.016.094-.258.066-.27.04-.269v-.008l.015-.27-.016-.273-.039-.273-.066-.27-.094-.258-.008-.015-.11-.235-.144-.234-.164-.223-.09-.101-.094-.102-.203-.183-.222-.168-.239-.14-.16-.075-.09-.043-.257-.094-.27-.066-.27-.04-.277-.015Zm27.199 8-.277.01-.27.04-.27.07-.09.031-.167.059-.25.117-.239.145-.222.164-.203.183-.184.204-.164.222-.14.238-.024.043-.098.204-.09.261-.07.266-.039.273-.012.274v1.48l.012.274.04.273.07.266.09.261.12.25.133.22.008.015.164.222.184.204.203.183.222.164.239.145.25.117.257.094.27.066.27.04.277.015.273-.016.274-.039.27-.066.257-.094.172-.082.078-.035.234-.145.223-.164.207-.183.184-.204.164-.222.008-.016.132-.219.122-.25.09-.261.066-.266.043-.273.011-.274v-1.48l-.011-.274-.043-.273-.067-.266-.09-.261-.097-.204-.024-.043-.14-.238-.164-.222-.184-.204-.207-.183-.223-.164-.234-.145-.078-.035-.172-.082-.258-.09-.27-.07-.273-.04Zm-17.59.128-.273.016-.274.039-.265.066-.262.094-.25.117-.235.14-.222.165-.203.187-.188.203-.164.223-.09.148-.05.086-.118.25-.093.258-.067.27-.039.273-.016.274v1.476l.016.277.04.274.066.266.093.257.117.25.055.09.086.149.164.218.188.207.203.184.222.164.235.14.25.118.262.094.265.066.028.004.246.039.273.012.277-.012.274-.043.265-.066.262-.094.25-.117.235-.14.07-.052.152-.113.203-.184.188-.207.164-.218.086-.149.055-.09.117-.25.093-.257.067-.266.039-.274.016-.277v-1.476l-.016-.274-.04-.273-.003-.02-.063-.25-.093-.258-.118-.25-.05-.086-.09-.148-.164-.223-.188-.203-.203-.187-.152-.11-.07-.054-.235-.141-.25-.117-.262-.094-.265-.066-.274-.04Zm9.234.082-.277.012-.273.039-.266.07-.258.09-.25.117-.238.145-.223.164-.203.183-1.047 1.047-.183.203-.164.223-.141.234-.117.25-.094.258-.066.27-.043.27-.012.277.012.273.043.273.066.27.094.258.117.25.14.234.153.207.012.016.183.203.207.187.219.165.238.14.25.117.258.094.27.066.273.04.168.011.106.004.277-.015.27-.04.269-.066.258-.094.25-.117.238-.14.219-.165.207-.187.058-.059.989-.984.183-.207.164-.219.141-.238.117-.246.094-.262.066-.266.043-.273.012-.273-.012-.278-.043-.273-.066-.266-.094-.262-.117-.246-.098-.168-.043-.07-.164-.223-.183-.203-.207-.183-.223-.164-.234-.141-.25-.121-.075-.027-.183-.063-.27-.07-.273-.04Zm-17.59.129-.273.016-.273.039-.059.015-.207.051-.262.094-.25.117-.234.14-.223.165-.203.187-.367.363-.68.68-.183.203-.164.223-.145.238-.117.246-.094.262-.066.266-.04.273-.015.277.016.274.039.273.066.266.094.262.117.246.145.238.164.223.183.203.118.105.085.078.223.164.238.141.246.121.262.09.266.07.273.04.278.011.273-.012h.004l.16-.023.11-.016.269-.07.258-.09.25-.117.234-.145.223-.164.203-.183 1.047-1.047.183-.203.168-.223.141-.234.117-.25.094-.258.066-.27.04-.27.015-.276-.016-.274-.039-.273-.066-.27-.094-.258-.117-.25-.14-.234-.047-.063-.122-.16-.183-.203-.203-.187-.223-.164-.234-.141-.25-.117-.262-.094-.266-.066-.273-.04Zm0 0"/>
    <path fill="#5984bd" d="M70.266 102.758c-.516-.692-1.664-1.957-2.547-2.805-2.395-2.3-4.676-3.687-7.746-4.719-3.266-1.093-3.79-1.12-19.543-1.125-16.332 0-16.012.024-19.008-1.445-3.317-1.629-5.817-4.734-6.75-8.394-.34-1.325-.371-2.09-.367-9.684 0-8.883.03-9.227 1.02-11.242a12.5 12.5 0 0 1 1.222-1.914c1.414-1.782 2.422-2.367 8.183-4.762 2.957-1.227 5.848-2.484 6.43-2.797 2.195-1.168 3.922-3.137 4.953-5.648.61-1.477 1.512-2.606 2.496-3.106.496-.254 21.383-8.969 24.047-10.035.14-.059.157.277.055 1.094-.266 2.133-.695 8.047-.805 11.043l-.11 2.945h5.376l.125-3.602c.52-14.742 2.59-25.378 5.695-29.222 3.211-3.969 6.758 1.922 8.613 14.308.653 4.368 1.254 12.618 1.329 18.282 0 .175.652.234 2.62.234h2.618v-2.668c0-3-.242-6.726-.668-10.332-.309-2.64-.781-5.773-.95-6.336-.093-.316-.034-.336.594-.219 2.856.536 6.641 2.133 9.395 3.965 3.215 2.14 6.55 5.824 8.34 9.215l.867 1.648v58.586H71.207Zm12.855-2.074c.961-.516 1.5-1.664 1.492-3.192-.008-2.3-1.043-3.57-2.914-3.566-1.89 0-2.879 1.238-2.875 3.59.004 1.066.094 1.523.422 2.093.762 1.325 2.504 1.809 3.875 1.075m17.676-.196c.308-.175.75-.652.988-1.058.367-.633.418-.953.371-2.266-.039-1.203-.136-1.644-.441-2.059-1.34-1.808-3.488-1.812-4.82-.011-.415.558-.633 2.422-.422 3.554.25 1.332 1.91 2.508 3.199 2.262a4.5 4.5 0 0 0 1.125-.422m-27.348.102c.766-.324 2.508-2.168 2.676-2.824.191-.766-.027-1.891-.492-2.547-.727-1.02-2.395-1.422-3.508-.848-.738.383-2.43 2.23-2.574 2.817-.594 2.355 1.683 4.34 3.898 3.402m18.766-1.07c1.23-1.204 1.566-1.79 1.566-2.707 0-1.938-1.847-3.29-3.726-2.727-.977.289-2.746 2.168-2.918 3.09-.25 1.328.21 2.453 1.277 3.125.469.293.836.36 1.68.304 1.023-.062 1.14-.125 2.12-1.085m-8.492-7.954c1.015-.527 1.578-1.925 1.254-3.129-.27-.992-1.836-2.632-2.91-3.042-1.442-.551-2.954.171-3.536 1.695-.492 1.293-.265 2 1.086 3.406.625.656 1.399 1.266 1.715 1.363.676.204 1.664.082 2.39-.293m17.105.102c.774-.293 1.32-.875 1.66-1.766.246-.648.262-.925.086-1.582-.234-.863-1.586-2.468-2.465-2.922-.71-.367-2.004-.332-2.773.082-.695.375-1.496 1.657-1.496 2.399 0 1.164 1.305 2.918 2.672 3.598.875.433 1.531.488 2.316.191m-25.941-.598c.965-.492 1.504-1.379 1.504-2.476 0-1.801-1.348-2.899-3.555-2.899-2.238 0-3.55 1.098-3.55 2.965 0 1.778 1.312 2.82 3.558 2.828.906.004 1.433-.105 2.043-.418m17.726-.136c1-.61 1.387-1.41 1.305-2.696-.063-1.004-.137-1.16-.824-1.804-.625-.582-.946-.73-1.836-.84-2.64-.332-4.395.847-4.395 2.96 0 1.016.586 1.966 1.5 2.423.957.48 3.434.457 4.25-.043m-49.515-.704c.359-.18.847-.62 1.09-.984.398-.594.433-.816.378-2.473-.062-1.808-.066-1.828-.73-2.492-1.438-1.433-3.652-1.094-4.586.703-.164.317-.262 1.09-.262 2.075 0 1.324.067 1.671.422 2.187.828 1.219 2.39 1.637 3.688.984m-8.91-.546c1-.704 1.949-1.957 2.101-2.786.313-1.66-1.05-3.261-2.777-3.261-1.14 0-1.703.297-2.793 1.457-1.012 1.086-1.356 2.054-1.074 3.062.57 2.074 2.73 2.801 4.543 1.528m27.535.304c.347-.215.793-.75 1.027-1.23.344-.715.395-1.07.32-2.25-.101-1.547-.383-2.094-1.472-2.84-1.258-.863-3.301-.266-3.98 1.164-.434.914-.411 3.191.042 4.043.762 1.434 2.688 1.96 4.063 1.113m-9.684-.07c.715-.375 2.223-1.973 2.461-2.598.879-2.347-1.703-4.75-3.879-3.605-.59.312-2.144 1.887-2.45 2.48-.327.649-.245 1.957.165 2.633.746 1.223 2.484 1.73 3.703 1.09m27.871-7.723c.93-.695 1.25-1.492 1.25-3.14 0-1.727-.336-2.48-1.39-3.133-.856-.531-2.258-.54-2.961-.016-1.051.778-1.356 1.477-1.356 3.133 0 1.824.348 2.617 1.426 3.25.887.523 2.262.48 3.031-.094m-9.988.059c.926-.387 2.086-1.516 2.555-2.477.945-1.949-.364-4.027-2.54-4.027-1 0-1.66.344-2.64 1.375-1.008 1.05-1.192 1.441-1.192 2.504 0 1.156.57 2.078 1.57 2.531.927.418 1.419.438 2.247.094m28.16-.086c2.02-1.082 2.023-5.36.004-6.418-1.445-.758-3.223-.23-3.934 1.168-.539 1.055-.511 3.191.055 4.176.762 1.328 2.504 1.808 3.875 1.074m-9.672-.094c.766-.324 2.508-2.164 2.676-2.824.187-.746-.023-1.883-.461-2.5-.738-1.04-2.43-1.465-3.54-.89-.737.378-2.429 2.23-2.573 2.812-.594 2.355 1.683 4.34 3.898 3.402m-44.656-1.039a2.8 2.8 0 0 0 1.406-2.39c0-1.06-.312-1.645-1.445-2.7-1.508-1.414-2.957-1.62-4.168-.601-1.707 1.437-1.406 3.594.734 5.289 1.223.969 2.25 1.09 3.473.402m18.238-.062c.469-.239.985-.688 1.18-1.028.394-.687.457-2.043.121-2.695-.324-.637-1.684-2.012-2.305-2.34-.703-.367-1.988-.355-2.726.024-1.102.57-1.727 2.144-1.332 3.347.465 1.403 2.527 3.114 3.758 3.114.261 0 .847-.192 1.304-.422m-26.797-.45c.934-.695 1.27-1.328 1.27-2.402 0-1.082-.336-1.707-1.285-2.418-.621-.46-2.907-.64-3.93-.3-.887.292-1.73 1.292-1.89 2.242-.196 1.144.472 2.394 1.585 2.968.723.371 1.051.422 2.301.356 1.07-.055 1.586-.172 1.95-.446m18.121.004c1.43-.675 2.028-2.722 1.164-3.98-.75-1.086-1.292-1.371-2.843-1.469-1.18-.078-1.535-.027-2.25.32-1.094.532-1.61 1.356-1.61 2.579 0 1.128.547 2.05 1.5 2.527.86.433 3.149.445 4.04.023m26.957-7.363c1.22-.742 1.727-2.473 1.09-3.703-.422-.82-2.222-2.41-2.894-2.555-2.008-.441-3.871 1.356-3.492 3.364.14.746 1.441 2.308 2.441 2.921.75.461 2.074.45 2.855-.027m18.122.012a2.74 2.74 0 0 0 1.543-3.254c-.262-.977-1.836-2.633-2.876-3.027-1.449-.555-2.992.171-3.57 1.683-.492 1.29-.265 2 1.086 3.406 1.5 1.563 2.39 1.84 3.817 1.192m-26.727-.508c1.316-.984 1.707-2.582.941-3.879-.613-1.043-1.437-1.422-3.093-1.422-1.567 0-2.426.297-3.004 1.031-1.246 1.582-.66 3.817 1.183 4.497 1.055.39 3.317.261 3.973-.227m18.176-.059c2.02-1.03 2.023-3.937.008-5.004-1.122-.593-2.985-.593-4.11 0-1.992 1.055-2.012 3.95-.031 4.997.965.507 3.144.511 4.133.007m-46.793-.746c1.21-.55 1.547-1.254 1.547-3.258 0-1.996-.364-2.765-1.57-3.312-1.012-.461-1.571-.445-2.544.07-1.144.606-1.496 1.36-1.496 3.219 0 1.887.348 2.637 1.504 3.227.996.511 1.528.523 2.559.054m-9.844-.008c.441-.125 1.066-.597 1.809-1.37 1.347-1.403 1.574-2.114 1.082-3.403-.582-1.527-2.094-2.25-3.535-1.7-1.075.411-2.641 2.052-2.91 3.044-.352 1.312.312 2.695 1.566 3.265.879.399 1.082.414 1.988.164m28.41-.234c1.043-.71 1.348-1.281 1.45-2.742.07-.988.015-1.54-.231-2.176-.809-2.121-3.645-2.45-5.035-.586-.317.426-.403.848-.446 2.153-.046 1.41.004 1.718.375 2.351.805 1.375 2.645 1.848 3.887 1m-9.613-.066c.93-.442 2.465-2.2 2.613-2.985.38-2.023-1.004-3.574-3.039-3.406-1.094.09-1.898.61-2.933 1.887-.77.953-.907 2.433-.31 3.394.77 1.246 2.364 1.727 3.669 1.11m30.168-7.696c1.023-.757 1.324-1.468 1.324-3.113 0-1.883-.348-2.629-1.516-3.254-1.421-.762-3.093-.262-3.859 1.149-.484.886-.453 3.367.05 4.238.786 1.36 2.813 1.855 4 .98m19.078-.015c1.04-.758 1.227-1.239 1.227-3.114 0-1.898-.18-2.343-1.286-3.167-.714-.536-2.32-.536-3.035 0-1.101.82-1.289 1.273-1.289 3.132 0 1.512.055 1.793.45 2.348.898 1.254 2.788 1.64 3.933.8m-28.594-.13c.766-.39 2.192-2.038 2.39-2.765.376-1.347-.269-2.75-1.523-3.316-1.418-.645-2.293-.387-3.816 1.125-1.187 1.176-1.527 2.078-1.195 3.183.558 1.868 2.41 2.657 4.144 1.774m19.078-.003c.621-.316 2.008-1.824 2.239-2.434.851-2.234-1.168-4.496-3.418-3.832-1.07.313-2.868 2.13-3.047 3.078-.473 2.528 1.949 4.352 4.226 3.188m-29.546-1.156c1.167-.668 1.68-2.512 1.035-3.754-.47-.906-2.211-2.399-2.965-2.54-2.133-.402-3.957 1.563-3.348 3.598.27.895 2.145 2.746 3.024 2.98a3 3 0 0 0 2.254-.284M49.539 59.91c1.172-.52 1.902-1.238 2.527-2.492 1.059-2.113.68-4.367-1.007-6.055-3.32-3.32-8.918-1.031-8.954 3.66-.027 3.883 3.895 6.461 7.434 4.887m51.899-4.972c1.37-.708 1.957-2.165 1.43-3.551-.337-.875-1.825-2.414-2.641-2.723-2.172-.828-4.426 1.145-3.832 3.352.23.859 1.601 2.453 2.476 2.886.77.38 1.875.395 2.567.035m0 0"/>
</svg>
