<svg xmlns="http://www.w3.org/2000/svg" width="120" height="120" viewBox="0 0 120 120">
    <path d="M5.664 6.188v21h10.5v7.875h-10.5v21h10.5v7.874h-10.5v21h10.5v7.876h-10.5v21h15.75v-.012l.356-.016.57-.027.574-.047.57-.055.567-.07.566-.078.567-.094.148-.027.414-.078.559-.118.558-.132.555-.141.55-.156.552-.164.543-.18.539-.188.03-.011.509-.192.53-.215.524-.222.524-.238.515-.247.512-.257.504-.274.5-.277.184-.11.308-.183.488-.3.48-.317.47-.32.468-.337.457-.343.45-.352.441-.363.438-.375.425-.379.418-.395.41-.398.399-.41.39-.418.227-.25.156-.176.375-.437.364-.442.351-.449.176-.234.168-.227.336-.465.32-.472.086-.125.23-.352.301-.488.293-.493.282-.5.27-.503.257-.512.246-.516.238-.523.223-.524.215-.53.203-.54.031-.094.156-.445.18-.543.164-.55.156-.552.141-.554.133-.559.09-.43h27.312l.09.43.133.559.14.554.157.551.164.551.18.543.156.445.031.094.203.54.215.53.223.524.238.523.246.516.258.512.27.504.28.5.294.492.007.011.293.477.317.477.32.472.336.465.168.227.176.234.351.45.364.44.375.438.156.176.226.25.391.418.398.41.41.398.419.395.425.379.438.375.441.363.45.352.457.343.468.336.47.32.48.317.273.168.215.133.492.293.5.277.504.274.512.257.515.247.524.238.523.222.516.208.015.007.54.203.538.188.543.18.551.164.551.156.555.14.558.133.45.094.109.024.562.105.567.094.566.078.567.07.57.055.574.047.57.027.356.016v.011h15.75v-21h-10.5v-7.874h10.5v-21h-10.5v-7.876h10.5v-21h-10.5v-7.874h10.5v-21h-15.75v.011l-.356.012-.57.031-.574.047-.57.055-.567.07-.566.078-.567.094-.562.105-.11.024-.449.094-.558.132-.555.141-.55.156-.552.164-.543.18-.539.188-.539.203-.015.007-.516.207-.523.223-.524.238-.515.247-.512.257-.504.27-.5.281-.492.293-.215.133-.273.168-.2.133-.28.183-.47.32-.468.337-.457.343-.45.352-.441.363-.438.375-.425.383-.418.39-.41.399-.399.41-.39.418-.028.027-.355.399-.375.437-.364.442-.351.449-.176.234-.168.223-.336.469-.32.469-.317.48-.293.477-.007.011-.125.211-.168.282-.282.5-.27.503-.257.512-.246.516-.238.523-.223.524-.215.53-.156.411-.047.129-.187.539-.18.543-.164.55-.156.552-.141.554-.133.559-.09.43H46.344l-.09-.43-.133-.559-.14-.554-.157-.551-.164-.551-.18-.543-.187-.54-.05-.128-.153-.41-.215-.531-.223-.524-.238-.523-.246-.516-.258-.512-.27-.503-.28-.5-.169-.282-.125-.21-.3-.489-.23-.352-.087-.128-.32-.47-.336-.468-.168-.223-.176-.234-.351-.45-.364-.44-.375-.438-.355-.399-.027-.027-.391-.418-.398-.41-.41-.398-.419-.391-.425-.383-.438-.375-.441-.363-.45-.352-.457-.343-.468-.336-.47-.32-.28-.184-.2-.133-.488-.3-.308-.184-.184-.11-.5-.281-.504-.27-.512-.257-.515-.247-.524-.238-.523-.223-.531-.214-.508-.192-.031-.011-.54-.188-.542-.18-.551-.164-.551-.156-.555-.14-.558-.133-.559-.118-.414-.078-.148-.027-.567-.094-.566-.078-.567-.07-.57-.055-.574-.047-.57-.031-.356-.012v-.011Zm5.246 5.25h9.715l.516.003.515.02.512.031.516.047.511.055.508.07.512.082.508.094.504.105.105.028.395.093.5.13.492.144.492.156.488.168.485.18.476.191.477.203.465.215.03.012.434.215.457.238.454.246.445.262.437.27.434.28.426.29.414.304.414.313.387.308.015.012.395.332.383.344.378.348.372.359.359.371.348.379.343.383.262.312.07.082.32.403.313.414.305.414.289.426.281.433.27.438.261.445.247.453.238.457.164.336.062.129.215.465.203.476.192.477.18.484.167.489.157.492.144.492.13.5.07.297.05.203.106.504.093.508.082.511.07.508.055.512.047.516.032.511.02.516.003.43v.086h36.75v-.086l.004-.43.02-.516.03-.511.048-.516.054-.512.07-.508.083-.511.093-.508.106-.504.05-.203.07-.297.13-.5.144-.492.157-.492.168-.489.18-.484.19-.477.204-.476.215-.465.062-.129.164-.336.238-.457.247-.453.261-.445.27-.438.281-.433.29-.426.304-.414.312-.414.32-.403.07-.082.263-.312.343-.383.348-.379.36-.371.37-.36.38-.347.269-.242.113-.102.395-.332.402-.32.414-.313.414-.304.426-.29.434-.28.437-.27.445-.262.454-.246.367-.191.09-.047.46-.227.47-.215.476-.203.476-.191.485-.18.488-.168.492-.156.492-.145.372-.093.128-.036.5-.12.504-.106.508-.094.508-.082.512-.07.511-.055.516-.047.512-.031.515-.02.516-.004h9.715v10.5H98.586v18.376h10.504v10.5H98.586v18.374h10.504v10.5H98.586v18.376h10.504v10.5h-9.715l-.516-.004-.273-.012-.242-.008-.512-.031-.516-.047-.511-.055-.512-.07-.508-.082-.508-.094-.504-.105-.5-.121-.128-.036-.372-.093-.492-.145-.492-.156-.488-.168-.485-.18-.476-.191-.477-.203-.468-.215-.461-.227-.457-.238-.454-.246-.445-.262-.437-.27-.399-.257-.035-.024-.426-.289-.414-.304-.414-.313-.402-.32-.395-.332-.113-.102-.27-.242-.378-.348-.372-.359-.359-.371-.348-.379-.343-.383-.332-.394-.11-.14-.21-.263-.313-.414-.305-.414-.289-.426-.281-.433-.27-.438-.261-.445-.247-.453-.238-.457-.226-.461-.043-.098-.172-.37-.203-.477-.192-.477-.18-.484-.167-.489-.157-.492-.144-.492-.13-.5-.12-.5-.004-.02-.102-.484-.093-.508-.082-.507-.07-.512-.055-.512-.047-.516-.032-.511-.02-.516v-.234l-.003-.196v-.085h-36.75v.085l-.004.196v.234l-.02.516-.03.511-.048.516-.054.512-.07.512-.083.507-.093.508-.102.485-.004.02-.12.5-.13.5-.144.491-.157.492-.168.489-.18.484-.19.477-.204.476-.172.371-.043.098-.226.46-.238.458-.247.453-.261.445-.27.438-.281.433-.29.426-.304.414-.312.414-.211.262-.11.14-.332.395-.343.383-.348.379-.36.371-.37.36-.38.347-.382.344-.395.332-.015.012-.387.308-.414.313-.414.304-.426.29-.035.023-.399.258-.437.27-.445.26-.454.247-.457.238-.464.227-.465.215-.477.203-.476.191-.485.18-.488.168-.492.156-.492.145-.5.129-.395.093-.105.028-.504.105-.508.094-.512.082-.508.07-.511.055-.516.047-.512.031-.242.008-.273.012-.516.004H10.91v-10.5h10.504V79.687H10.91v-10.5h10.504V50.814H10.91v-10.5h10.504V21.937H10.91Zm0 0"/>
    <path fill="#f9f9f9" d="M10.965 103.371v-5.207h10.527V79.7H10.965V69.316l5.226-.039 5.23-.035V50.777l-5.23-.039-5.226-.039V40.316h10.527v-18.46H10.965V11.44l6.164.067c6.707.07 7.238.125 10.074 1.05 3.875 1.266 7.7 4.032 10.235 7.407 2.304 3.066 3.847 7.273 4.066 11.086l.082 1.476h36.887v-.996c0-.547.125-1.73.28-2.636 1.114-6.512 5.34-12.223 11.188-15.118 1.954-.968 3.246-1.425 5.336-1.886 1.328-.293 1.926-.325 7.61-.383l6.168-.067v10.414H98.523v18.461h10.532v10.387H98.52l.039 9.27.035 9.27 5.23.034 5.23.04v10.382h-10.53v18.465h10.53v10.41l-6.023-.062c-6.59-.07-7.3-.14-9.984-1a20.5 20.5 0 0 1-8.137-4.871c-2.515-2.434-4.285-5.207-5.37-8.41-.583-1.72-1.067-4.325-1.067-5.747v-.996H41.586l-.082 1.477c-.203 3.558-1.426 7.129-3.543 10.351-1.102 1.676-3.887 4.446-5.633 5.606-2.383 1.582-4.832 2.601-7.742 3.215-1.285.27-2.059.308-7.527.37l-6.094.071Zm0 0"/>
</svg>
