<svg xmlns="http://www.w3.org/2000/svg" width="120" height="120" viewBox="0 0 120 120">
    <path d="m75.063 10.71-1.29.192-1.273.567-1.25.937-1.21 1.305-1.165 1.652-.336.598-.77 1.387-.085.187-.5 1.113-.45 1.004-.28.758-.673 1.836-.855 2.832-.012.031-.766 3.102-.109.547-.027.012-.23.093-.516.215-1.328.55-24.946 10.333.004.008v.004l-.027.011-.16.07-.157.071-.152.074-.152.078-.305.164-.148.082-.137.082-.012.008-.148.09-.145.09-.144.094-.282.195-.14.102-.137.105-.266.211-.132.113-.13.11-.214.195-.043.035-.125.121-.121.117-.114.118-.007.007-.235.25-.226.258-.219.266-.105.137-.204.273-.097.14-.098.145-.094.145-.09.136-.003.008-.09.145-.172.297-.082.152-.156.305-.149.312-.066.156-.059.133-.265.645-.145.351-.012.024-.023.058-.016.035-.11.235-.124.226-.063.11-.02.035-.046.078-.07.106-.149.21-.078.102-.164.203-.086.094-.18.187-.093.094-.09.086-.098.082-.098.086-.203.156-.015.012-.09.066-.106.07-.109.071-.11.066-.113.067-.113.062-.113.059-.117.059-.118.05-.043.02-.074.031.024.05-2.032.845-1.535.633-5.867 2.43-.027.01-.004-.01-.309.128-.304.137-.305.14-.297.149-.297.152-.293.16-.289.168-.285.172-.281.18-.102.066-.18.117-.273.192-.27.195-.265.2-.262.21-.258.211-.254.22-.074.065-.172.157-.242.23-.238.23-.235.243-.226.242-.223.25-.219.25-.21.258-.207.262-.086.113-.118.156-.195.27-.156.23-.031.043-.184.281-.18.282-.172.285-.164.289-.16.293-.152.297-.149.3-.14.305-.133.305-.129.308-.121.313-.113.312-.11.317-.097.316-.016.055-.082.266-.086.32-.082.324-.07.328-.07.324-.06.332-.05.329-.047.332-.039.332-.031.332-.024.332-.02.332-.01.332-.005.336h.004v13.09l.008.48.02.48.03.48.044.481.054.477.07.477.083.472.094.473.007.043.098.426.121.468.129.461.145.461.152.453.168.453.176.446.191.441.203.438.121.254.09.18.223.425.234.418.246.414.258.406.227.34.043.059.277.394.285.387.3.375.306.371.316.363.156.168.172.184.203.21.133.134.344.336.355.328.36.316.37.309.38.297.382.289.395.277.398.266.407.257.414.247.422.234.425.223.43.214.387.18.05.02.442.191.45.18.448.164.457.156.457.14.465.133.465.118.469.105.473.094.472.082.477.07.48.055.477.047.48.031.48.016.352.007h26.242l.207.004.336.008.332.02.332.023.333.031.171.02.16.02.333.046.328.055.328.059.328.066.324.074.324.082.325.086.32.094.316.102.317.105.312.117.313.121.273.11.035.015.305.137.305.14.3.145.293.153.297.16.29.168.285.172.28.175.278.184h.004l.273.191.176.125.098.07.266.2.14.113.121.094.258.21.254.22.043.043.203.18.246.23.238.23v.004h-1.867v5.25h48.563V34.477h-5.25v1.328l-.078-.09-.305-.352-.313-.347-.32-.344-.32-.336-.328-.332-.332-.332-.34-.32-.04-.036-.3-.285-.348-.312-.351-.309-.356-.3-.36-.297-.366-.293-.367-.29-.375-.277-.38-.277-.378-.27-.387-.265-.387-.258-.394-.254-.399-.246-.203-.121-.195-.117-.223-.133-.183-.106-.407-.226-.41-.223-.414-.219-.418-.21-.418-.204-.851-.39-.43-.184-.352-.145-.078-.035-.433-.172-.438-.168-.883-.312-.441-.145-.445-.14-.45-.133-.449-.125-.453-.121-.23-.059-.223-.054-.453-.11-.457-.097-.461-.094-.457-.086-.461-.078-.461-.074-.465-.067-.46-.058-.403-.043-.063-.008-.004-.008-.003-.012-.043-.148-.758-2.512-.676-1.836-.281-.758-1.035-2.304-.465-.84-.305-.547-.332-.598-1.168-1.652-1.21-1.305-1.25-.937-1.274-.567Zm0 5.25.769.165.766.492.75.813.726 1.129.7 1.433.163.418.5 1.305.622 1.992.57 2.25.52 2.48.46 2.692.278 1.996.12.875.333 3.027.047.586.21 2.57.188 3.247.113 3.312.04 3.344h5.25l-.063-3.86-.191-3.82-.313-3.75-.125-1.043-.308-2.593-.551-3.493-.227-1.129.05.008.157.032.024.003.402.075.426.09.422.093.296.074.122.032.421.11.415.112.37.114.04.011.754 6.461 1.457 12.473.55 4.734.168 1.438 1.61 13.781.61-5.25.995-8.531.168-1.438.555-4.734 1.453-12.473.234-1.996.008.008.192.152.332.274.332.277.328.285.32.29.317.296.312.297.305.305.304.312.293.317.293.32.285.324.282.328.277.332.27.34.261.344.258.348.254.351.246.356.242.359.051.086.184.277.226.367.223.372.219.375.21.379.204.378.195.387.191.387.188.39.133.293v58.516h-3.508l-4.57-23.5-1.532 7.875-1.62 8.34-1.415 7.285h-4.238l-3.113-28.445-1.47-13.43-.855 7.82-3.722 34.055h-3.707l-3.348-22.965-1.23-8.41-3.137 21.524-.531 3.64-.254 1.727-.008.054-.004.051-.008.04-.004.038-.007.047v.008l-.004.004-.098-.094-.29-.258-.292-.257-.3-.247-.306-.246-.308-.238-.313-.23-.316-.227-.25-.172-.07-.05-.325-.216-.328-.207-.332-.203-.32-.187-.016-.008-.34-.191-.343-.184-.196-.102v-.003l-.004-.008-.003-.024-.004-.03-.008-.036-.008-.043-.023-.11-.012-.066-.016-.074-.367-1.898-4.11-21.133-2.413 12.422-1.696 8.71-.004.016v.004l-.097-.004-.387-.012-.258-.004h-26.25l-.265-.003-.395-.02-.398-.031-.391-.04-.395-.054-.308-.05-.082-.016-.39-.078-.387-.086-.383-.102-.38-.113-.378-.125-.371-.133-.367-.145-.368-.16-.359-.168-.352-.18-.347-.187-.137-.078-.207-.121-.336-.211-.332-.219-.32-.23-.317-.242-.308-.25-.301-.258-.293-.266-.285-.277-.274-.285-.27-.293-.257-.301-.195-.238-.055-.07-.238-.317-.23-.32-.223-.332-.211-.336-.2-.34-.187-.348-.18-.355-.168-.36-.156-.363-.148-.371-.133-.371-.125-.375-.012-.043-.101-.34-.098-.383-.09-.387-.078-.39-.066-.39-.055-.391-.04-.395-.03-.395-.02-.398-.004-.289v-13.23h-.004l.004-.215v-.067l.008-.203.016-.258.023-.257.063-.516.043-.258.046-.254.055-.254.02-.086.043-.168.066-.25.074-.25.078-.246.082-.246.094-.242.098-.242.101-.239.11-.234.015-.031.098-.203.121-.23.125-.227.133-.223.137-.223.289-.43.156-.21.148-.196.008-.007.164-.203.168-.2.172-.191.18-.191.183-.184.184-.18.191-.176.196-.171.203-.164.203-.16.207-.157.21-.152.216-.145.125-.078.093-.062.223-.133.227-.13.226-.124.23-.117.235-.114.238-.105.114-.047.007.012.098-.043.027-.008 3.926-1.629 5.649-2.34-.008-.02-.004-.011-.008-.016v-.004l.082-.035.156-.07.313-.148.152-.075.305-.164.148-.086.016-.007.133-.079.289-.18.144-.097.145-.094.137-.101.14-.098.274-.21.265-.22.258-.226.25-.235.113-.109.008-.012.121-.12.121-.126.114-.125.117-.129.11-.129.113-.132.105-.133.211-.274.102-.14.097-.14.012-.016.086-.125.094-.145.18-.29.09-.148.081-.152.082-.148.082-.153.074-.156.079-.152.14-.313.059-.136.41-.993.012-.023H36.3l.015-.031.028-.063.05-.117.06-.117.058-.113.062-.114.067-.113.066-.11.07-.109.075-.105.074-.102.078-.105.082-.098.059-.074.023-.028.086-.093.086-.098.09-.09.187-.18.098-.085.097-.082.094-.075.008-.007.102-.075.105-.078.106-.074.109-.07.11-.067.109-.062.226-.125.117-.055.11-.05.008-.005.117-.05-.004-.008 2.016-.832 11.828-4.903 2.062 10.594 1.52 7.82 1.52-7.82 2.687-13.82 1.175-.484.508-.211.356-.149.156-.062-.023.129-.309 2.597-.125 1.04-.312 3.75L62 46.23l-.055 3.387-.008.469h5.247l.007-.469.032-2.875.113-3.312.187-3.246.211-2.567.051-.59.328-3.027.13-.914.269-1.957.46-2.692.52-2.48.574-2.25.618-1.992.504-1.305.16-.418.699-1.433.726-1.13.75-.812.766-.492ZM47.367 49.825l-.515.028-.344.05-.164.024-.5.125-.485.176-.464.218-.446.266-.414.305-.379.347-.347.383-.305.414-.266.442-.222.464-.172.485-.125.5-.074.511-.016.258-.012.254.028.516.074.508.125.5.172.488.222.465.266.441.305.414.347.383.38.344.413.308.446.262.343.168.121.055.485.172.5.125.164.027.344.05.515.024.516-.023.508-.078.5-.125.484-.172.469-.223.441-.262.414-.308.11-.102.27-.242.347-.383.308-.414.262-.441.223-.465.172-.488.125-.5.078-.508.023-.516-.012-.254-.011-.258-.078-.511-.125-.5-.172-.485-.223-.464-.262-.442-.308-.414-.348-.383-.27-.246-.109-.101-.414-.305-.441-.266-.469-.218-.484-.176-.5-.125-.508-.074Zm0 0"/>
    <path fill="#5984bd" d="M76.105 103.707c-.035-.164-1.05-7.11-2.257-15.437-1.203-8.329-2.235-15.25-2.285-15.387-.055-.137-.946 5.586-2.055 13.226-1.078 7.407-1.98 13.485-2.004 13.508-.02.024-.27-.16-.547-.41-.789-.703-2.086-1.621-3.14-2.219l-.958-.547-2.226-11.457c-1.223-6.304-2.266-11.574-2.317-11.718-.086-.246-.351 1.05-3.09 15.136l-1.09 5.618h-29.21l-1.14-.356c-2.4-.754-4.157-1.8-5.77-3.434-2.274-2.3-3.43-4.851-3.75-8.25-.082-.886-.114-4.222-.082-8.464.062-8 .054-7.91 1.191-10.239.594-1.215.828-1.539 1.875-2.582.66-.652 1.54-1.39 1.957-1.633.418-.246 3.023-1.382 5.793-2.53 2.766-1.145 5.504-2.337 6.078-2.645 2.45-1.32 3.961-3.075 5.156-5.989.5-1.214 1.375-2.246 2.356-2.78.574-.313 13.906-5.891 14.226-5.954.106-.02.73 3.04 3.07 15.086.34 1.766.65 3.184.68 3.152.032-.03.973-4.777 2.094-10.547a2538 2538 0 0 1 2.098-10.761c.058-.246.422-.442 2-1.07.097-.04.09.34-.028 1.261-.421 3.254-.843 9.445-.843 12.344v1.555h5.27l.07-.825c.039-.457.101-2.285.14-4.066.25-12.324 2.512-23.895 5.422-27.738 2.645-3.496 5.445-.735 7.54 7.43 1.343 5.25 2.163 12.136 2.476 20.804l.16 4.395h5.281l-.086-3.34c-.12-4.942-.586-9.973-1.332-14.38-.18-1.054-.305-1.933-.281-1.96.074-.07 2.976.656 2.976.746 0 .273 4.52 38.703 4.555 38.738.07.07.102-.203 2.129-17.617 1.059-9.09 1.945-16.547 1.973-16.57.074-.078 1.793 1.453 2.656 2.363a27.3 27.3 0 0 1 4.371 6.164l.582 1.145v58.53h-1.719c-.945 0-1.718-.034-1.718-.077 0-.047-1.012-5.281-2.247-11.633a2441 2441 0 0 1-2.253-11.652c-.02-.57-.54 1.93-2.457 11.824l-2.235 11.539h-4.129l-.074-.496c-.039-.274-1.074-9.676-2.297-20.899-1.222-11.222-2.265-20.296-2.316-20.168-.051.133-1.082 9.344-2.29 20.473-1.206 11.125-2.23 20.426-2.269 20.66l-.074.43h-1.77c-1.726 0-1.77-.008-1.836-.297m-27.3-43.555a5.54 5.54 0 0 0 3.406-2.93c.312-.671.355-.913.355-2.144 0-1.23-.043-1.476-.355-2.144-1.3-2.77-4.48-3.899-7.2-2.555-1.55.766-2.523 2.09-2.859 3.898-.28 1.528.305 3.332 1.461 4.489 1.399 1.398 3.371 1.925 5.192 1.386m0 0"/>
</svg>
