<svg xmlns="http://www.w3.org/2000/svg" width="120" height="120" viewBox="0 0 120 120">
    <path d="M6.188 5.664v15.75h.011l.012.356.031.57.047.574.055.57.07.567.078.566.094.567.105.562.118.559.132.558.141.555.059.215.097.336.164.55.18.544.188.539.203.539.156.386.059.145.222.523.238.524.247.515.257.512.27.504.281.5.293.492.3.488.317.48.32.47.337.468.066.086.277.371.352.45.363.441.375.438.383.425.39.418.399.41.41.399.418.39.426.383.437.375.442.364.449.351.273.207.184.137.469.336.469.32.48.317.488.3.492.293.5.282.504.27.512.257.516.246.523.238.43.184.094.039.53.215.54.203.539.187.543.18.55.164.239.07.313.086.554.141.559.133.43.09v27.312l-.43.09-.559.133-.554.14-.313.086-.238.07-.551.165-.543.18-.54.187-.538.203-.531.215-.524.223-.523.238-.313.148-.203.098-.512.258-.503.27-.5.28-.493.294-.488.3-.48.317-.47.32-.468.336-.184.137-.273.207-.45.351-.413.34-.465.399-.426.382-.418.391-.41.398-.398.41-.391.419-.383.425-.375.438-.363.441-.352.45-.113.148-.062.086-.168.223-.336.464-.32.473-.317.48-.3.489-.294.492-.281.5-.27.504-.257.512-.04.078-.207.437-.238.524-.223.523-.058.145-.156.386-.203.54-.188.538-.18.543-.164.551-.156.551-.14.555-.133.558-.118.559-.105.562-.094.567-.078.566-.062.496-.008.07-.055.57-.047.575-.031.57-.012.356h-.011v15.75h21v-10.5h7.875v10.5h21v-10.5h7.874v10.5h21v-10.5h7.876v10.5h21v-15.75h-.012l-.012-.356-.031-.57-.043-.574-.059-.57-.008-.07-.062-.497-.078-.566-.094-.567-.105-.562-.118-.559-.132-.558-.141-.555-.156-.55-.164-.552-.18-.543-.188-.539-.203-.539-.215-.53-.222-.524-.238-.524-.004-.011-.203-.426-.04-.078-.257-.512-.27-.504-.281-.5-.293-.492-.3-.488-.317-.48-.32-.47-.337-.468-.168-.223-.062-.086-.113-.148-.352-.45-.363-.441-.375-.438-.379-.425-.395-.418-.398-.41-.41-.399-.418-.39-.426-.383-.465-.399-.414-.34-.449-.351-.457-.344-.34-.246-.129-.09-.469-.32-.48-.317-.488-.3-.493-.293-.5-.282-.503-.27-.512-.257-.516-.246-.21-.098-.313-.14-.524-.223-.53-.215-.54-.203L96 74.52l-.543-.18-.55-.164-.552-.156-.21-.055-.344-.086-.559-.133-.43-.09V46.344l.43-.09.559-.133.344-.086.21-.055.551-.156.551-.164.543-.18.54-.187.538-.203.531-.215.094-.04.43-.183.523-.238.516-.246.512-.258.504-.27.5-.28.492-.294.488-.3.48-.317.47-.32.128-.09.34-.246.457-.344.45-.351.44-.364.438-.375.426-.382.418-.391.41-.398.398-.41.395-.419.379-.425.375-.438.363-.441.352-.45.277-.37.066-.087.336-.468.32-.47.317-.48.3-.488.294-.492.281-.5.27-.504.257-.512.243-.504.004-.011.238-.524.222-.523.215-.531.203-.54.188-.538.18-.543.164-.551.097-.336.059-.215.14-.555.133-.558.118-.559.105-.562.094-.567.078-.566.07-.567.059-.57.043-.574.031-.57.012-.356h.011V5.664h-21v10.5h-7.874v-10.5h-21v10.5h-7.876v-10.5h-21v10.5h-7.874v-10.5Zm5.25 5.246h10.5v10.504h18.375V10.91h10.5v10.504h18.374V10.91h10.5v10.504h18.376V10.91h10.5v9.715l-.004.516-.012.273-.008.242-.031.512-.047.516-.055.511-.07.508-.082.512-.094.508-.105.504-.121.5-.13.5-.144.492-.156.492-.145.422-.023.066-.18.485-.191.476-.203.477-.215.465-.227.464-.238.457-.246.454-.262.445-.27.437-.046.075-.235.359-.289.426-.304.414-.313.414-.32.402-.332.395-.344.383-.348.378-.027.028-.332.344-.371.359-.379.348-.055.05-.328.293-.394.332-.403.32-.414.313-.414.305-.426.289-.433.281-.352.219-.086.05-.445.262-.453.247-.457.238-.461.226-.469.215-.476.203-.477.192-.484.18-.489.167h-.003l-.489.157-.492.144-.352.09-.148.04-.5.12-.504.106-.508.093-.507.082-.512.07-.512.055-.516.047-.511.032-.516.02-.43.003h-.085v36.75h.085l.43.004.516.02.511.03.516.048.512.054.512.07.507.083.508.093.504.106.5.12.148.04.352.09.492.144.489.157h.003l.489.168.484.18.477.19.476.204.469.215.46.226.458.238.453.247.445.261.086.051.352.219.433.281.426.29.414.304.414.312.403.32.394.333.078.07.305.273.379.348.371.36.332.343.027.028.348.378.344.383.332.395.32.402.313.414.304.414.29.426.09.137.19.297.27.437.262.445.246.454.238.457.227.46.215.47.203.476.191.476.121.329.059.156.168.488.156.492.145.492.129.5.12.5.106.504.094.508.082.508.02.152.05.36.055.511.047.516.031.512.02.515.004.516v9.715h-10.5V98.586H79.687v10.504h-10.5V98.586H50.814v10.504h-10.5V98.586H21.937v10.504h-10.5v-9.715l.004-.516.02-.515.031-.512.047-.516.055-.511.05-.36.02-.152.082-.508.094-.508.105-.504.121-.5.13-.5.144-.492.156-.492.168-.488.059-.156.12-.329.192-.476.203-.477.215-.468.227-.461.238-.457.246-.454.262-.445.27-.437.19-.297.09-.137.29-.426.304-.414.313-.414.32-.402.332-.395.195-.219.149-.164.348-.378.359-.372.371-.359.379-.348.305-.273.078-.07.394-.332.403-.32.414-.313.414-.305.426-.289.433-.281.438-.27.445-.261.453-.247.457-.238.465-.226.465-.215.476-.203.477-.192.453-.168.031-.011.489-.168.492-.157.492-.144.352-.09.148-.04.5-.12.504-.106.508-.093.511-.082.508-.07.512-.055.516-.047.511-.032.516-.02.43-.003h.086v-36.75h-.086l-.43-.004-.516-.02-.511-.03-.516-.048-.512-.054-.508-.07-.511-.083-.508-.093-.504-.106-.5-.12-.148-.04-.352-.09-.492-.144-.492-.157-.489-.168-.031-.011-.453-.168-.477-.192-.476-.203-.465-.215-.465-.226-.457-.238-.453-.247-.445-.261-.438-.27-.433-.281-.426-.29-.414-.304-.414-.312-.403-.32-.394-.333-.328-.293-.055-.05-.379-.348-.371-.36-.36-.37-.347-.38-.149-.163-.195-.22-.332-.394-.32-.402-.313-.414-.304-.414-.29-.426-.234-.36-.047-.074-.27-.437-.26-.445-.247-.454-.238-.457-.227-.464-.215-.465-.203-.477-.191-.476-.18-.485-.023-.066-.145-.422-.156-.492-.145-.492-.129-.5-.12-.5-.106-.504-.094-.508-.082-.508-.07-.512-.055-.511-.047-.516-.031-.512-.008-.242-.012-.273-.004-.516Zm0 0"/>
    <path fill="#f9f9f9" d="M11.543 102.715c.062-6.16.07-6.332.437-7.828.508-2.075 1.008-3.426 1.954-5.258 3.285-6.36 9.851-10.633 17.125-11.145l1.421-.097V41.645l-1.859-.18c-1.996-.192-4.164-.684-5.703-1.293-6.664-2.64-11.414-8.234-12.996-15.309-.29-1.3-.32-1.918-.379-7.64l-.059-6.227h10.364v10.488h18.496V10.996h10.515l-.101 10.414 9.21.035 9.212.04v-10.49h10.488v10.488h18.496V10.996h10.367l-.066 6.227c-.059 5.707-.09 6.343-.375 7.64-.93 4.164-2.781 7.551-5.766 10.54-3.676 3.675-8.168 5.722-13.445 6.12l-1.348.102v36.762l1.422.097q7.794.551 13.363 6.13c3.055 3.062 4.829 6.304 5.774 10.534.285 1.297.316 1.934.375 7.641l.066 6.227H98.164V98.527H79.668v10.489H69.18V98.527l-9.211.035-9.211.04.101 10.414H40.344V98.527H21.848v10.489H11.48Zm0 0"/>
</svg>
