<svg xmlns="http://www.w3.org/2000/svg" width="120" height="120" viewBox="0 0 120 120">
    <path d="m87.234 11.504-2.101 6.3-.524 1.575-.109.328-.059.172-.046.144-.04.118-.027.086-.031.093-.004.004-.758-.277-1-.34-.078-.023-.93-.286-1.015-.285-1.024-.254-1.027-.23-1.035-.2-1.04-.171-1.042-.149-1.051-.117-.438-.035-.613-.055-1.05-.058-1.055-.035-1.055-.004-1.055.023-1.05.05-1.051.083-1.051.105-.621.082-.422.055-1.043.164-1.035.192-1.031.218-1.028.25-1.015.274-1.012.3-1 .329-.992.355-.024.008-.96.375-.973.406-.961.434-.95.46-.538.282-.395.203-.926.508-.152.09-.754.445-.895.559-.882.582-.215.148-.645.457-.597.442-.25.183-.832.653-.813.671-.793.696-.773.715-.754.734L14.75 57.18l.031.03.012.009-.523.55-.508.59-.477.61-.445.636-.414.653-.383.676-.348.695-.312.707-.281.727-.243.734-.203.75-.168.754-.004.015-.129.75-.093.77-.055.773-.016.778.02.773.059.774.097.77.137.765.172.754.207.746.246.738.086.211.2.508.315.71.352.692.383.672.418.652.449.633.48.61.508.585.54.56.562.53.02.016.57.488.617.473.637.445.656.41.676.38.484.238.211.105.71.309.727.277.735.238.75.2.031.007.727.156.765.13.77.09.773.05.778.012.773-.024.773-.062.77-.102.762-.136.758-.176.746-.215.734-.25.52-.207.199-.078-.008-.024.008-.004 5.867-2.43 8.848-3.663 5.25-2.176.21-.086 4.383-1.816 7.48-3.098v8.633l-7.48 11.218-4.382 6.579-.211.312-.262.395h.578l.41.406.528.5.539.488.543.48.554.473.559.457.472.375.098.078.574.438.004.004.586.43.594.417.598.41.609.4.613.386.621.375.63.367.632.352.64.343.65.328.651.32.657.31.664.296.453.192.215.09.672.273.68.258.683.25.687.234.692.223.695.21.695.2.704.187.707.172.707.16.71.149.715.137.04.003.675.118.719.109.719.098.722.086.723.07.723.059.722.043.727.035.727.015.726.008.727-.008.691-.015h.035l.723-.035.726-.043.723-.06.727-.07.718-.085.72-.098.718-.11.715-.12.715-.137.71-.149.711-.16.66-.164.044-.008.703-.187.699-.2.691-.21.692-.223.687-.234.684-.25.68-.258.671-.274.668-.28.664-.298.657-.308.652-.32.41-.208.238-.12.641-.344.633-.352.629-.367.62-.375.614-.387.61-.398.601-.41.59-.418.586-.43.578-.442.277-.218.293-.235.563-.457.55-.472.544-.48.539-.49.527-.5.41-.405h.106V57.18l-.012-1.055-.043-1.055-.07-1.05-.102-1.051-.125-1.047-.156-1.043-.18-1.04-.21-1.03-.161-.696-.078-.332-.266-1.02-.144-.5-.149-.511-.32-1.008-.344-.996-.375-.984-.398-.977-.426-.965-.45-.953-.179-.355-.297-.586-.5-.926-.265-.457-.262-.457-.55-.898-.575-.887-.117-.172-.48-.695-.618-.852-.644-.836-.665-.816-.687-.801-.2-.219-.507-.562-.73-.762-.747-.742-.77-.723-.788-.7-.805-.679-.824-.66-.84-.633-.86-.613-.874-.59-.68-.433-.008-.036-.027-.082-.047-.133-.067-.195-.085-.262-.043-.125-1.723-5.175Zm-16.8 11.547.957.015.957.04.953.066.554.055.399.039.95.12.948.15.942.171.933.2.93.226.926.254.914.277.91.305.75.273.148.055.028.012-.176.523-1.691 5.078-1.407 4.219h5.25l2.563-7.688.156.09 1.125 3.38 1.406 4.218h5.25l-.765-2.297.222.215.668.687.645.703.601.692.028.031.61.742.585.754.563.774.543.789.523.804.297.489.2.328.476.832.449.844.426.855.406.867.375.883.355.887.329.898.304.91.278.914.105.383.148.543.223.93.203.937.172.942.149.945.12.95.094.953.067.953.039.957.012.847.004.11h-.004v37.136l-.403.356-.508.426-.511.418-.524.41-.531.394-.535.39-.543.38-.55.367-.56.36-.234.14-.332.207-.57.336-.574.324-.586.317-.586.304-.563.278-.035.015-.598.282-.605.27-.61.26-.613.247-.62.238-.626.223-.625.215-.633.199-.425.129-.207.062-.641.176-.64.164-.645.156-.649.141-.648.129-.652.117-.657.106-.656.093-.656.078-.66.07-.66.055-.66.043-.571.028-.094.004-.66.02-.664.003-.664-.004-.66-.02-.664-.03-.66-.044-.66-.054-.66-.07-.657-.079-.656-.093-.656-.106-.653-.117-.594-.117-.054-.012-.649-.14-.644-.157-.64-.164-.641-.176-.633-.191-.633-.2-.625-.214-.625-.223-.617-.238-.617-.246-.61-.262-.605-.27-.598-.28-.035-.016-.375-.188-.184-.09-.59-.304-.585-.317-.575-.324-.57-.336-.566-.348-.559-.359-.55-.367-.544-.38-.535-.39-.531-.394-.524-.41-.004-.004.06-.09L67.41 82.52l1.973-3.028v-12.12l6.156-2.552-2.008-4.847-4.148 1.715-5.25 2.175-9.524 3.946-2.34.968-.21.086-5.25 2.176-12.868 5.332-4.062 1.684.004.007-.403.157-.574.187-.582.156-.59.118-.597.086-.602.054-.601.016-.606-.02-.601-.05-.598-.086-.59-.121-.582-.157-.574-.187-.137-.055-.426-.164-.547-.254-.53-.285-.516-.312-.497-.344-.476-.367-.453-.399-.43-.422-.406-.449-.38-.469-.35-.488-.184-.289-.14-.223-.294-.527-.262-.543-.23-.555-.2-.57-.163-.582-.133-.586-.098-.598-.062-.597-.028-.606.004-.601.043-.602.075-.598.109-.593.14-.586.075-.235.105-.343.207-.567.242-.55.274-.54.3-.52.337-.503.359-.484.39-.461.395-.422.012-.012-.016-.016 27.832-27.832-.02-.02.505-.491.18-.176.706-.645.723-.629.238-.195.5-.414.758-.586.773-.562.79-.543.793-.516.007-.008.817-.496.832-.476.844-.45.859-.43.867-.402.156-.066.723-.313.89-.351.9-.328.905-.305.918-.277.922-.254.93-.227.937-.199.942-.172.535-.086.41-.062.95-.121.952-.094.954-.067.957-.039ZM55.996 36.18l-.387.015-.379.059-.375.094-.363.129-.351.168-.332.195-.309.23-.285.262-.262.285-.23.313-.2.332-.164.347-.007.02-.082.234-.04.11-.093.375-.028.164-.03.218-.02.387.02.383.058.383.093.375.04.11.082.234.007.02.164.35.2.333.23.308.262.285.285.262.309.23.332.2.351.164.363.129.375.094.38.058.386.02.387-.02.27-.039.113-.02.375-.093.199-.07.164-.06.348-.163.332-.2.312-.23.285-.262.262-.285.227-.308.199-.332.168-.352.129-.363.093-.375.055-.383.02-.383-.02-.387-.055-.382-.093-.375-.13-.364-.167-.347-.2-.332-.226-.313-.262-.285-.285-.262-.312-.23-.332-.195-.348-.168-.363-.13-.375-.093-.114-.016-.27-.043Zm0 0"/>
    <path fill="#ff4b4b" d="M75.816 102.781a35.6 35.6 0 0 1-11.21-3.683c-1.84-.965-4.934-2.961-5.333-3.446-.144-.172 1.145-2.285 4.954-8.129l5.148-7.898V67.449l2.164-.89c1.188-.493 2.59-1.082 3.117-1.313l.957-.414-.968-2.352c-.536-1.292-1.06-2.378-1.165-2.414-.171-.058-6.875 2.692-36.293 14.891-7.78 3.227-9.542 3.824-11.246 3.824-1.343 0-3.312-.492-4.695-1.176-5.441-2.695-7.344-9.398-4.183-14.734.492-.832 4.269-4.73 15.21-15.707 8.004-8.031 15.301-15.23 16.211-16 4.297-3.629 9.461-6.133 15.176-7.36 2.156-.46 2.61-.495 6.82-.491 3.532.003 4.829.074 5.98.316 1.888.402 5.45 1.387 5.802 1.605.23.141.027.907-1.274 4.82a515 515 0 0 1-1.633 4.891c-.066.188.489.227 2.637.184l2.723-.05 1.207-3.634c.664-2 1.258-3.636 1.316-3.636.063 0 .672 1.656 1.36 3.68l1.25 3.683h2.644c1.457 0 2.649-.031 2.649-.07s-.125-.422-.278-.852c-.148-.43-.273-.828-.273-.887 0-.195 1.148.989 2.203 2.27 4.215 5.129 6.844 11.57 7.543 18.469.121 1.195.191 9.023.191 20.992v19.082l-.597.566c-1.04.985-3.586 2.77-5.457 3.832-3.68 2.082-8.075 3.582-12.38 4.219-2.448.363-7.847.36-10.277-.012M56.953 43.984c1.012-.254 2.246-1.297 2.688-2.27 1.351-2.976-1.543-6.327-4.7-5.44-1.742.484-2.855 1.996-2.863 3.882-.008 2.114 1.64 3.844 3.824 4.016.133.008.606-.074 1.051-.188m0 0"/>
</svg>
