<svg xmlns="http://www.w3.org/2000/svg" width="120" height="120" viewBox="0 0 120 119">
    <path d="M74.75 20.313v2.601l.395.004.398.02.394.03.395.04.39.055.391.066.39.074.306.07.082.02.382.098.38.113.374.121.375.133.368.148.363.157.36.164.355.18.347.187.34.195.34.211.23.152.098.067.324.226.313.239.308.246.301.258.293.265.156.145.13.129.277.28.265.29.258.297.25.308.238.313.23.32.224.324.207.336.203.34.187.344.18.351.168.356.12.277.036.082.145.367.136.368.125.375.11.379.101.379.09.382.078.387.063.387.054.39.043.391.028.375.004.016.011.285v.02l-.492.015-.625.023-.62.036-.622.039-.621.046-.621.055-.617.063-.621.07-.618.078-.297.04-.32.042-.617.09-.613.102-.614.105-.613.113-.61.117-.609.13-.609.132-.605.145-.606.148-.602.156-.601.16-.598.172-.597.176-.383.121-.211.063-.594.191-.59.2-.586.206-.586.211-.582.22-.578.222-.578.234-.574.238-.57.247-.57.253-.567.258-.438.207-.12.059-.56.273-.558.278-.336.175-.215.11-.55.293-.543.3-.543.305-.536.309-.535.32-.531.32-.527.333-.008.007-.512.328-.52.344-.515.348-.508.355-.508.36-.5.367-.496.371-.492.379-.488.383-.07.054-.415.336-.48.395-.473.398-.468.407-.465.414-.457.418-.457.421-.45.426-.441.434-.441.441-.43.442-.43.449-.238.254-.184.199-.418.457-.41.465-.406.469-.402.472-.395.477-.39.484-.348.442-.035.043-.375.492-.371.496-.368.5-.359.504-.355.508-.348.511v.004l-.34.516-.336.52-.328.523-.27.445-.05.086-.317.531-.312.535-.301.54-.297.542-.289.547-.285.551-.277.55-.27.56-.266.558-.078.172-.18.39-.25.567-.242.566-.175.426-.043.098-.078.18-.09.171-.094.176-.102.168-.105.164-.113.16-.121.157-.11.132-.015.02-.13.145-.136.144-.145.137-.144.129-.098.078-.054.047-.157.12-.16.114-.164.11-.168.101-.176.094-.175.09-.18.082-.18.074-.187.07-.188.063-.187.054-.172.04-.02.007-.195.04-.195.03-.196.028-.195.02-.2.011h-.14l-.055.004-2.468.047-2.547.152-.238.024-2.258.222-2.426.344-2.328.438-2.207.523-2.067.61-1.91.687-1.726.754-.711.383-.825.437-.734.488-.59.391-1.101.922-.867.96-.625.993-.38 1.008-.124 1.023.125 1.02.379 1.008.625.992.406.453.46.508.97.812.132.114 1.325.875.824.44.71.38 1.727.758 1.91.683 2.067.61 2.207.523 2.328.438 2.426.343 2.258.227.238.023 2.547.149 2.312.047v.004l30.867 2.187 38.57 2.73v1.817h5.247V33.582h-5.246v1.824H90.504l.012-.265v-.016l.03-.375.04-.39.055-.391.062-.371.004-.016.078-.387.086-.383.102-.378.113-.38.125-.374.133-.367.148-.368.035-.082.121-.277.168-.356.18-.351.188-.344.199-.34.21-.336.22-.324.23-.32.242-.313.246-.308.262-.297.266-.29.277-.28.129-.13.152-.144.293-.265.094-.079.207-.18.309-.245.316-.239.324-.226.328-.219.336-.21.344-.196.348-.188.351-.18.36-.163.367-.157.367-.148.34-.121.031-.012.379-.121.379-.113.383-.098.386-.09.387-.074.39-.067.395-.054.395-.04.394-.03.395-.02.398-.004v-2.602l-.441.008-.442.016-.44.031-.442.043-.438.059-.433.066-.438.078-.43.09-.43.106-.378.101-.047.012-.422.129-.418.137-.418.152-.41.16-.402.176-.403.183-.394.196-.39.207-.384.218-.379.227-.23.148-.09.06-.047.03-.363.246-.36.262-.347.266-.34.277-.336.29-.324.296-.317.305-.308.312-.297.324-.293.329-.277.34-.27.343-.047.063-.215.293-.07.097-.18.262-.03.047-.212.32-.23.375-.219.38-.207.386-.195.394-.188.395-.008.023-.05.114-.004.007-.059-.144-.187-.395-.196-.394-.21-.387-.22-.379-.226-.375-.21-.32-.032-.047-.25-.36-.215-.292-.047-.063-.27-.344-.28-.34-.29-.328-.082-.09-.215-.234-.308-.312-.317-.305-.328-.297-.332-.289-.34-.277-.351-.266-.356-.262-.363-.246-.047-.03-.324-.208-.375-.227-.383-.218-.262-.137-.128-.07-.395-.196-.402-.183-.407-.176-.41-.16-.414-.152-.418-.137-.422-.13-.425-.112-.43-.106-.434-.09-.011-.004-.422-.074-.434-.066-.441-.059-.438-.043-.441-.031-.442-.016Zm14.484 20.296h15.82v51l-38.57-2.73L35.88 86.71v-.02l-.293-.004-1.766-.019-2.035-.074-1.265-.082-.735-.043-1.941-.172-1.86-.219-.89-.133-.88-.129-1.651-.304-.641-.145-.887-.199-1.383-.379-1.226-.41-1.059-.438-.883-.46-.695-.485-.5-.492-.289-.488-.012-.02-.101-.508.101-.511.301-.504.5-.496.695-.48.883-.466 1.059-.437 1.226-.41 1.383-.375.23-.055.657-.149.64-.14 1.653-.305 1.77-.265 1.859-.215 1.941-.172.735-.047 1.265-.078 2.035-.074 2.059-.028h.152l.262-.011.258-.016.258-.024.257-.027.258-.035.258-.04.508-.1.25-.063.254-.067.246-.07.25-.078.027-.012.219-.074.242-.09.238-.094.239-.101.238-.11.23-.113.23-.12.227-.126.223-.129.067-.039.156-.097.215-.141.214-.149.211-.148.407-.32.39-.336.063-.059.125-.12.187-.18.18-.184.176-.192.168-.191.168-.2.16-.202.156-.207.149-.207.148-.215.137-.215.136-.223.13-.222.12-.227.118-.227.113-.234.105-.234.04-.094h.003l.059-.145.164-.39.066-.153.16-.378.235-.532.242-.523.25-.527.254-.52.262-.52.27-.511.273-.512.035-.066.246-.442.285-.504.293-.5.3-.5.306-.492.312-.488.316-.488.325-.48.332-.477.047-.067.289-.41.34-.469.347-.465.352-.46.36-.458.366-.453.367-.445.38-.445.378-.438.387-.433.395-.43.398-.422.402-.422.407-.414.414-.406.254-.25.164-.156.421-.399.43-.394.43-.387.422-.371.015-.012.446-.379.445-.37.453-.368.457-.363.461-.356.465-.351.469-.344.472-.336.48-.336.481-.324.485-.32.49-.316.492-.309.5-.3.117-.075.383-.222.508-.293.508-.281.175-.098.336-.184.516-.27.52-.265.519-.258.527-.254.528-.246.53-.238.536-.234.54-.227.538-.219.543-.215.43-.16.117-.047.547-.199.297-.105.254-.086.55-.188.043-.011.512-.168.559-.172.558-.164.563-.16.562-.153.567-.144.566-.14.57-.13.57-.125.571-.117.574-.11.575-.105.574-.094.43-.066.148-.023.578-.083.578-.074.582-.07.578-.059.582-.054.582-.047.582-.04.582-.03.586-.028.582-.015.586-.012.582-.004ZM70.422 68.188l-.387.019-.383.055-.375.093-.363.13-.348.163-.332.2-.308.226-.172.156-.117.102-.258.281-.23.309-.2.328-.164.348-.129.359-.094.371-.058.379-.02.383.02.383.058.379.094.37.094.27.035.094.164.344.2.328.23.308.258.286.289.257.308.227.332.195.348.164.297.106.066.023.375.094.383.059.387.015.387-.015.379-.059.374-.094.364-.129.351-.164.332-.195.309-.227.285-.257.262-.286.043-.058.187-.25.196-.328.168-.344.129-.363.093-.371.059-.38.015-.382-.015-.383-.059-.379-.094-.371-.128-.36-.168-.347-.196-.328-.187-.246-.043-.063-.262-.281-.113-.102-.172-.156-.309-.226-.332-.2-.351-.164-.364-.129-.374-.093-.38-.055Zm0 0"/>
    <path fill="#5aad6d" d="M70.758 89.121C52.727 87.824 36 86.68 33.594 86.574c-2.41-.101-5.383-.308-6.614-.457-10.632-1.289-15.03-4.394-9.765-6.902 3.43-1.63 8.98-2.555 17.094-2.848 1.62-.058 3.43-.222 4.02-.363 2.847-.684 5.562-2.805 6.773-5.297.238-.492 1.078-2.207 1.859-3.816C54.17 52.105 68.734 42.26 85.5 40.85c1.18-.101 6.066-.183 10.855-.183h8.711v50.855l-.757-.023c-.418-.012-15.516-1.082-33.551-2.379m.832-13.281c1.02-.297 1.988-1.137 2.465-2.13.234-.491.297-.968.246-1.87-.09-1.574-.703-2.52-2.102-3.223-1.293-.648-2.336-.648-3.605.008a3.87 3.87 0 0 0-.762 6.398c1.176 1.028 2.254 1.262 3.758.817m0 0"/>
</svg>
