<svg xmlns="http://www.w3.org/2000/svg" viewBox="0 0 60 60">
    <defs>
        <filter id="0NK_svg__a" width="1.166" height="1.107" x="-.041" y="-.033" color-interpolation-filters="sRGB">
            <feFlood flood-color="#000" flood-opacity=".498" result="flood"/>
            <feComposite in="flood" in2="SourceGraphic" operator="in" result="composite1"/>
            <feGaussianBlur in="composite1" result="blur" stdDeviation="1"/>
            <feOffset dx="5" dy="3" result="offset"/>
            <feComposite in="SourceGraphic" in2="offset" result="composite2"/>
        </filter>
    </defs>
    <g filter="url(#0NK_svg__a)" opacity=".99" transform="matrix(.6 0 0 .6 -237.884 -50.698)">
        <path fill="#fee572" d="m446.472 98-19.256 5.892-10.271 61.433H476l-10.259-61.359z"/>
        <path fill="#c3983c" fill-opacity=".992" d="M416.945 165.325v5.668H476v-5.669z"/>
    </g>
    <path fill="#e13007" d="m20.922 12.4.073.646s.058.533.228 1.123c.132.456.295.99.682 1.351-.273.582-.412 1.264-.412 2.009 0 .695.118 1.338.356 1.893v.002a1.2 1.2 0 0 0-.08.253 2 2 0 0 0-.033.264c-.031.388.002.87.115 1.377q.069.31.18.622c-.426 1.19-.665 2.333-.593 3.58-1.463 1.64-2.764 3.394-3.61 5.434l-.01.021-.003.02c-.242 1.014-.473 2.092-.051 3.19l.036.095.56.31c.326.676.56 1.147.962 1.431.355.251.802.3 1.412.247l1.884-2.65.757.54-1.788 2.513.147.356.245-.079c1.246-.4 1.91-.975 2.38-1.677.458-.683.76-1.469 1.342-2.383 1.843-.854 2.682-1.304 4.51-1.99l.023-.008-.056-.032c.26-.454.547-1.471.725-2.415.09-.473.158-.933.198-1.31s.048-.692.04-.78l.927-.089c.024.252 0 .563-.044.969-.043.406-.113.885-.207 1.381-.175.93-.412 1.891-.761 2.568l.047.217c0 .02.015.288.022.613.008.335-.005.744-.018.808l-.004.019v.017c-.075 1.146-.79 2.515-1.645 3.659 1.742 1.191 4.003 2.01 6.258 2.186 1.2.093 2.386.01 3.499-.275-.504-3.292-.401-6.93-.784-9.993-.469-2.786-1.383-4.042-3.397-5.743a7.7 7.7 0 0 0-1.252-.81 4 4 0 0 0-.629-.266c-.164-.048-.26-.005-.143-.05l-.449-1.143a1.1 1.1 0 0 1 .5-.079h.002c.152.012.292.053.433.094.281.082.565.206.848.35.566.29 1.116.655 1.483.965 2.12 1.79 3.313 3.476 3.818 6.488l.001.013.002.012c.393 3.124.352 6.678.779 9.756a7.6 7.6 0 0 0 2.093-1.302c-.358-2.07-.478-4.34-.58-8.264v-.01c-.15-2.279-1.371-4.946-3.283-7.034-1.873-2.045-4.434-3.514-7.317-3.433-.115-.904 2.164-.757 3.311-.921-.849-.654-2.827-1.6-4.064-1.928l.056-.128.232-.526.458-1.008-1.05.35a8 8 0 0 1-.8.217q-.151.031-.298.047a3 3 0 0 1-.334.017 2 2 0 0 1-.282-.022l-.074-.011a1.9 1.9 0 0 1-.577-.202 2 2 0 0 1-.293-.192l-.042-.032-.047-.023a2.3 2.3 0 0 0-.392-.145l-.024-.008a2 2 0 0 0-.183-.037l-.013-.002a1.4 1.4 0 0 0-.383-.008l-.047.006a1.3 1.3 0 0 0-.69.332l-.002.002a2 2 0 0 0-.19.203q-.087.11-.156.228l-.145.245.145.247s.084.143.207.375a13 13 0 0 1 .435.912q.075.18.142.367l.045.125q.067.198.12.394c.08.293.134.57.147.793l-.162-.023-.66-.778a4.3 4.3 0 0 0-.414-1.425c-.198-.39-.5-.778-.914-1.006l.032-1.788-.653.226c-.525.183-.763.148-1.05.059-.287-.09-.64-.293-1.17-.39zm1.19 1.315c.112.044.2.072.332.113.257.08.653-.01 1.005-.04l-.008.44a1.66 1.66 0 0 0-.94.448 3 3 0 0 1-.35-.775c-.028-.096-.017-.095-.038-.186m4.559.654c.091-.008.224.017.424.107.794.58 1.679.575 2.547.42-.124.284-.156.343-.327.76-.357.868-.745 1.869-.888 2.566-.147.717-.191 1.509-.324 2.178-.132.666-.345 1.155-.695 1.393-.022.004-.274.125-.549.222a23 23 0 0 1-1.117.362c-.405.12-.816.232-1.148.305-.33.074-.646.085-.582.095-.306-.047-.541-.223-.754-.526s-.373-.726-.465-1.142c-.042-.19-.027-.323-.043-.498.18.124.352.26.561.343.644.257 1.458.31 2.114-.156.48-.34.935-.79 1.302-1.253.368-.464.654-.924.756-1.398.183-.851-.165-1.777-.497-2.56-.254-.596-.418-.865-.534-1.07.045-.037.094-.118.136-.131a.4.4 0 0 1 .083-.017m-3.04.769a1.214 2.391 0 0 1 1.216 2.39 1.214 2.391 0 0 1-1.215 2.392 1.214 2.391 0 0 1-1.214-2.391 1.214 2.391 0 0 1 1.214-2.391m2.122 8.24c-.107.447-.183.855-.4 1.219a1.26 1.26 0 0 1-.64.535c-.282.103-.604.123-1.002.092l-.522-.04.154-.499c.158-.513.367-.627.598-.947q.104.01.201.005h.01l.01-.002a2 2 0 0 0 .184-.019l.01-.001c.022-.004.048-.012.069-.016.117-.022.238-.049.38-.08.28-.063.597-.149.918-.24zm-5.875 7.599.537.567c-.453.428-.811.7-.944.861-.066.081-.073.11-.075.143-.003.034.006.106.083.247l-.69.368c-.118-.22-.188-.44-.172-.67a1.05 1.05 0 0 1 .251-.583c.255-.312.596-.541 1.01-.933m8.636 6.65a9 9 0 0 1-.558.533c-1.958 1.493-2.38 2.977-2.655 5.321l-.02.185.163.09c4.695 2.606 8.234 3.317 11.15 2.99 2.915-.325 5.18-1.68 7.335-3.122l.151-.101-.032-.18a31 31 0 0 0-.74-3.325l-.003-.004v-.004a33 33 0 0 1-.457-1.709 9.3 9.3 0 0 1-2.173 1.17c.192.924.442 1.787.788 2.556l-1.12.505c-.376-.836-.65-1.743-.86-2.69a12.2 12.2 0 0 1-3.88.3c-2.573-.2-5.104-1.11-7.09-2.515z" color="#000" enable-background="accumulate" opacity=".99" overflow="visible" style="line-height:normal;font-variant-ligatures:normal;font-variant-position:normal;font-variant-caps:normal;font-variant-numeric:normal;font-variant-alternates:normal;font-variant-east-asian:normal;font-feature-settings:normal;font-variation-settings:normal;text-indent:0;text-align:start;text-decoration-line:none;text-decoration-style:solid;text-decoration-color:#000;text-transform:none;text-orientation:mixed;white-space:normal;shape-padding:0;shape-margin:0;inline-size:0;isolation:auto;mix-blend-mode:normal;solid-color:#000;solid-opacity:1"/>
</svg>
