<svg xmlns="http://www.w3.org/2000/svg" viewBox="0 0 60 60">
    <defs>
        <filter id="0NY_svg__a" width="1.18" height="1.109" x="-.044" y="-.033" color-interpolation-filters="sRGB">
            <feFlood flood-color="#000" flood-opacity=".498" result="flood"/>
            <feComposite in="flood" in2="SourceGraphic" operator="in" result="composite1"/>
            <feGaussianBlur in="composite1" result="blur" stdDeviation="1"/>
            <feOffset dx="5" dy="3" result="offset"/>
            <feComposite in="SourceGraphic" in2="offset" result="composite2"/>
        </filter>
    </defs>
    <g opacity=".99">
        <g filter="url(#0NY_svg__a)" transform="matrix(.6 0 0 .6 -286.1 -50.343)">
            <path fill="#fee572" d="m526.836 98-17.831 5.92-9.336 60.222H554l-9.335-60.223z"/>
            <path fill="#c3983c" fill-opacity=".992" d="M499.67 164.142v5.668H554v-5.669z"/>
        </g>
        <path fill="#e13007" fill-opacity=".992" d="m30 17.94-.099.12-.77.931-.107 3.624.393.183v.675a7.15 7.15 0 0 0-3.704 1.402l-.745-.745.138-.422-2.643-2.494-1.37-.1.151 1.359 2.487 2.655.426-.154.682.682a7.15 7.15 0 0 0-1.947 4.33h-.757l-.201-.402-3.635.106-1.038.9 1.068.852 3.636.118.188-.403h.74a7.15 7.15 0 0 0 6.524 6.516v.533l-.393.18.108 3.625.868 1.052.868-1.052.106-3.625-.387-.175v-.536a7.15 7.15 0 0 0 6.538-6.518h.722l.188.403 3.636-.118 1.068-.853-1.038-.9-3.635-.105-.201.401h-.74a7.15 7.15 0 0 0-1.93-4.313l.699-.698.42.138 2.494-2.644.099-1.369-1.358.151-2.654 2.487.155.424-.726.726a7.15 7.15 0 0 0-3.737-1.416v-.679l.387-.175-.106-3.626zm-.583 7.096v1.803c-.458.073-.89.233-1.279.46l-1.302-1.3a5.6 5.6 0 0 1 2.58-.963m1.17 0a5.6 5.6 0 0 1 2.612.978l-1.304 1.304a3.7 3.7 0 0 0-1.308-.478zm-4.637 1.731 1.277 1.277a3.7 3.7 0 0 0-.912 1.941h-1.858a5.6 5.6 0 0 1 1.493-3.218m8.13.02a5.6 5.6 0 0 1 1.479 3.198h-1.874a3.7 3.7 0 0 0-.89-1.915ZM30 28.124a2.39 2.39 0 0 1 2.39 2.39 2.39 2.39 0 0 1-2.39 2.39 2.39 2.39 0 0 1-2.39-2.39 2.39 2.39 0 0 1 2.39-2.39m-5.545 3.032h1.88c.079.449.241.871.468 1.25l-1.356 1.357a5.6 5.6 0 0 1-.992-2.607m9.21 0h1.88a5.6 5.6 0 0 1-.973 2.577l-1.356-1.356a3.7 3.7 0 0 0 .45-1.22m-1.194 2.131 1.344 1.344a5.6 5.6 0 0 1-3.228 1.476V34.19a3.7 3.7 0 0 0 1.884-.901m-4.916.023a3.7 3.7 0 0 0 1.862.88v1.917a5.6 5.6 0 0 1-3.208-1.452z" color="#000" style="-inkscape-stroke:none"/>
    </g>
</svg>
