<svg xmlns="http://www.w3.org/2000/svg" viewBox="0 0 60 60">
    <defs>
        <filter id="0RY_svg__a" width="1.154" height="1.1" x="-.038" y="-.031" color-interpolation-filters="sRGB">
            <feFlood flood-color="#000" flood-opacity=".498" result="flood"/>
            <feComposite in="flood" in2="SourceGraphic" operator="in" result="composite1"/>
            <feGaussianBlur in="composite1" result="blur" stdDeviation="1"/>
            <feOffset dx="5" dy="3" result="offset"/>
            <feComposite in="SourceGraphic" in2="offset" result="composite2"/>
        </filter>
    </defs>
    <g fill-opacity=".992" filter="url(#0RY_svg__a)" opacity=".99" transform="matrix(.6 0 0 .6 -41.934 -52.115)">
        <path fill="#fcc8dc" d="m119.89 98-21.702 7.118L88 170.049h63.78l-10.19-64.93z" opacity=".99"/>
        <path fill="#dc7ea2" d="M88 170.05v5.668h63.78v-5.67z"/>
    </g>
    <path fill="#e13007" d="M25.426 11.569c.073.679 1.597 4.575-.33 4.113-.022-.005-.04-.006-.063-.011-.605-.438-.828-1.486-.856-1.594-.038-.146-.236-.316-.494-.47-.771-.46-2.206-.55-1.22.44.803 1.043 1.528 1.782 1.857 2.636l.007-.004c.143.75.52 1.848.714 2.557l.288 1.24c.102.354.297.955.571 1.482.14.268.3.517.456.691.156.171.29.26.419.294a.8.8 0 0 0 .163-.312c.086-.286.129-.723.146-1.16.017-.438.009-.88.002-1.196q-.005-.235-.004-.368c-.7-.942-.964-1.759-1.308-2.838.035-.145.353-.135.56-.201 2.965-.95.518-4.324-.541-5.115l.002-.003a1.4 1.4 0 0 0-.199-.123.5.5 0 0 0-.17-.059m9.15 0a.5.5 0 0 0-.17.058 1.4 1.4 0 0 0-.199.123l.002.004c-1.059.79-3.506 4.164-.541 5.114.163.052.416.389.516.336-.323 1.01-.595 1.802-1.265 2.703q.002.133-.003.368c-.007.317-.015.758.002 1.196s.06.875.146 1.16c.03.115.085.222.163.313.13-.036.263-.124.419-.295.156-.174.316-.423.455-.69.274-.528.47-1.13.572-1.483l.287-1.24c.195-.709.572-1.807.715-2.557l.007.004c.329-.854 1.054-1.593 1.857-2.636.986-.99-.45-.9-1.22-.44-.258.154-.457.324-.495.47-.028.108-.25 1.157-.855 1.594-.023.005-.041.006-.064.012-1.927.46-.402-3.435-.33-4.114M30 20.138l-2.05.494c.004.265.006.557-.006.872-.018.465-.052.917-.18 1.352a1.6 1.6 0 0 1-.336.647l-.355.414-.526-.143c-.337-.092-.606-.304-.827-.546l-.004-.002-.002-.004a4 4 0 0 1-.58-.867 8 8 0 0 1-.408-.946l-.143.035v.002c-.425 1.126-.27 3.207-.082 4.672l.033.27-.252.103c-.326.133-.746.298-1.086.48-.339.181-.551.41-.561.448l-.419 1.526c-.05.183-.035.28-.017.333.02.054.05.085.118.128.11.07.312.121.52.178.338-.003.717-.02 1.114.015.486.046 1.007.19 1.384.612l.037.044.023.054c.147.346.238.72.326 1.079h-.573c-.27-.008-3.184-.065-4.931 2.231-.66.868-1.291 1.509-2.016 1.84-.316.144-.457.272-.72.307-.164.021-.454-.083-.697-.15l.227.59c.79.27 1.429.138 2.04-.26.635-.413 1.222-1.106 1.793-1.85.744-.977 1.942-1.43 2.942-1.65.85-.188 1.352-.174 1.55-.175l.637-.026q.063.148.132.25c.06.102.153.18.263.221q1.782-.397 3.602-.556l.028-.004.03.004c.939.077 2.294.263 3.6.556.11-.04.203-.12.264-.22q.075-.12.13-.249l.636.024c.198 0 .704-.013 1.554.175 1 .22 2.198.673 2.942 1.65.57.744 1.158 1.437 1.792 1.85.611.397 1.252.53 2.041.26l.227-.59c-.243.067-.533.171-.696.15-.263-.035-.405-.164-.721-.308-.725-.33-1.357-.971-2.016-1.839-1.747-2.296-4.66-2.238-4.93-2.23h-.576c.087-.36.178-.733.326-1.08l.024-.054.038-.044c.38-.427.916-.582 1.428-.647.473-.06.938-.047 1.316-.052q.144-.036.274-.104c.069-.043.097-.077.116-.13s.032-.15-.018-.333l-.416-1.526c-.01-.037-.224-.267-.563-.45-.339-.18-.76-.344-1.086-.477l-.252-.104.034-.27c.187-1.465.342-3.547-.084-4.674l-.14-.034a8 8 0 0 1-.407.945 4 4 0 0 1-.58.868l-.001.003-.004.002c-.22.242-.49.454-.827.546l-.526.143-.355-.414a1.6 1.6 0 0 1-.336-.647c-.128-.435-.162-.887-.18-1.352-.012-.314-.01-.606-.007-.872zm-8.719 1.203c-.614 1.359-.873 2.096.861 4.099-1.145-.274-2.387-2.574-2.91-3.046-.896 2.269.226 3.264 1.614 3.987-1.353.29-2.16-.36-3.517-.771.756 1.381 1.689 3.493 3.976 2.51-.85 1.167-2.33 1.705-3.595 2.456 1.301.246 2.657.892 3.766-.249-.576 1.052-1.514 1.951-2.434 2.855q.564-.075 1.121-.193a5.8 5.8 0 0 1 1.945-1.39c.007-.36.106-.734.204-1.063.058-.197.074-.227.12-.353-.168-.043-.305-.054-.497-.175a1 1 0 0 1-.403-.49c-.08-.22-.078-.478-.002-.758l.419-1.528c.124-.455.517-.676.91-.887.313-.167.628-.288.914-.404a30 30 0 0 1-.12-1.042zm17.436 0-2.377 3.561q-.049.52-.116 1.039c.285.116.598.237.91.404.395.211.79.432.914.887l.415 1.528c.077.28.08.537 0 .759a1 1 0 0 1-.402.489c-.192.121-.33.132-.497.175.045.126.064.156.122.353.098.329.193.702.2 1.062.676.307 1.36.74 1.949 1.39q.549.12 1.123.194c-.921-.904-1.86-1.803-2.436-2.855 1.11 1.14 2.467.495 3.767.249-1.265-.75-2.747-1.289-3.596-2.456 2.287.983 3.22-1.128 3.976-2.51-1.358.411-2.162 1.06-3.515.771 1.387-.723 2.51-1.718 1.612-3.987-.522.471-1.767 2.771-2.91 3.046 1.734-2.004 1.475-2.74.86-4.099m-5.015 3.292a1 1 0 0 1 .14.015c.303.052.586.244.837.658.663 1.357-.39 2.013-1.471 2.402-1.154.187-1.806-.138-2.268-.896 1.805-1.299 2.04-2.089 2.624-2.172a1 1 0 0 1 .138-.007m-7.268.007c.585.083.82.873 2.624 2.172-.462.759-1.116 1.083-2.27.896-1.081-.39-2.134-1.044-1.47-2.402.25-.414.533-.606.837-.658.102-.017.276.074.28-.007zm1.833 5.353c.568.124.818.94 1.21 1.444l-.721-.535-.896-.096c.06-.387-.316-.696.407-.813m3.463 0c.723.117.348.425.408.813l-.896.098-.721.533c.393-.504.64-1.32 1.209-1.444m5.102.238q-.327 0-.652.037c-.412.052-.737.178-.948.397-.03.077-.053.175-.08.264a7.8 7.8 0 0 1 1.974.373 4 4 0 0 0-.12-.565c-.085-.282-.14-.419-.174-.506m-13.318.058q-.185-.004-.37.003c-.04.107-.077.198-.151.445-.059.195-.082.38-.11.562a7.7 7.7 0 0 1 1.962-.37c-.025-.089-.05-.186-.079-.262-.211-.22-.498-.325-.88-.362a7 7 0 0 0-.372-.016m11.067 2.405c-.033.066-.059.134-.1.195-.154.234-.378.44-.675.533.033 3.397-.021 3.048-.872 6.256l-.036.133-.116.074c-.766.492-1.766.734-2.77.734s-2.017-.244-2.793-.795l-.104-.074-.032-.124c-.85-3.224-.95-2.868-.876-6.199l-.01-.001a1.3 1.3 0 0 1-.686-.538c-.04-.06-.063-.128-.096-.192a7.5 7.5 0 0 0-1.533.188q-.293.068-.578.162c.097.167.191.335.309.486-.006-.01.251.17.477.269.227.098.43.164.43.164l.206.07.034.214c.476 3.139 1.12 4.291 1.911 6.638q.144.216.335.391l.494 6.62.7-4.974.936 4.415.866-4.324.86 4.316.943-4.48.7 5.078.489-6.654a2 2 0 0 0 .331-.388c.792-2.346 1.433-3.498 1.91-6.636l.035-.215.205-.069s.206-.068.433-.166c.226-.099.48-.277.474-.27.118-.151.213-.32.31-.487a7.5 7.5 0 0 0-2.112-.35m-4.584.177c-.796.067-1.893.208-2.995.43L27.508 36l.697-1.352.938 1.035.866-.983.861.978.943-1.072.7 1.412.497-2.712q-1.494-.3-3.012-.435m.011 4.542-.86.83-.816-.786-.366 1.945a4.3 4.3 0 0 0 2.046.508c.742 0 1.46-.185 2.037-.474l-.371-1.972-.809.778z"/>
</svg>
