<svg xmlns="http://www.w3.org/2000/svg" viewBox="0 0 60 60">
    <defs>
        <filter id="0TO_svg__a" width="1.184" height="1.112" x="-.045" y="-.035" color-interpolation-filters="sRGB">
            <feFlood flood-color="#000" flood-opacity=".498" result="flood"/>
            <feComposite in="flood" in2="SourceGraphic" operator="in" result="composite1"/>
            <feGaussianBlur in="composite1" result="blur" stdDeviation="1"/>
            <feOffset dx="5" dy="3" result="offset"/>
            <feComposite in="SourceGraphic" in2="offset" result="composite2"/>
        </filter>
    </defs>
    <g filter="url(#0TO_svg__a)" opacity=".99" transform="matrix(.6 0 0 .6 -334.455 -50.834)">
        <path fill="#fee572" d="m607.424 100-17.367 5.643-9.208 58.137 53.151-.001-9.208-58.136z"/>
        <path fill="#c3983c" fill-opacity=".992" d="M580.849 163.78v5.668H634v-5.67z"/>
    </g>
    <path fill="#e13007" d="M22.514 14.702a.65.65 0 0 0-.332.082l-.622.318.479.564c1.388 1.64 1.665 3.108 1.729 4.432.031.662-.001 1.285.013 1.873.014.572.07 1.14.348 1.633q.002.008.006.014l.015.027c.443.892.98 1.556 1.588 2.033-.47.374-.984.78-1.658 1.338a.31.31 0 0 0 .074.522 14.5 14.5 0 0 0 3.922 1.076c-.043 1.731-.168 3.314-.654 4.74-.61 1.791-1.768 3.368-4.108 4.793l-.007.004c-1.13.732-1.91 1.337-2.448 2.107-.536.77-.805 1.684-.947 2.973a.31.31 0 0 0 .229.334c2.933.786 6.396 1.16 9.857 1.144 3.462.017 6.927-.358 9.861-1.144a.31.31 0 0 0 .229-.334c-.142-1.29-.413-2.202-.95-2.973s-1.316-1.375-2.445-2.107l-.007-.004c-2.34-1.425-3.5-3.002-4.11-4.793-.486-1.427-.61-3.011-.652-4.744a15 15 0 0 0 3.92-1.07.31.31 0 0 0 .076-.524 80 80 0 0 0-1.664-1.336c.61-.478 1.146-1.142 1.59-2.035l.021-.041c.278-.493.334-1.06.348-1.633.014-.588-.016-1.211.015-1.873.064-1.324.34-2.792 1.729-4.432l.479-.564-.622-.318c-.344-.176-.617-.034-.859.093s-.48.3-.723.471c-.437.309-.896.565-1.117.613-.597-.344-1.208-.301-1.666-.045-.498.28-.834.743-.992 1.233l-.334 1.03.895-.317c.068-.024.105-.02.193.043.088.062.206.202.312.416.213.426.366 1.121.336 1.844-.03.722-.231 1.465-.675 2.07a3 3 0 0 1-.46.494q.144-.415.145-.877c0-1.547-1.3-2.795-2.873-2.795-1.572 0-2.873 1.248-2.873 2.795 0 .308.054.602.148.879a3 3 0 0 1-.462-.496c-.444-.605-.646-1.348-.676-2.07-.03-.723.123-1.418.336-1.844.106-.214.226-.354.314-.416.088-.063.124-.067.192-.043l.894.316-.332-1.03a2.18 2.18 0 0 0-.994-1.232c-.457-.256-1.069-.3-1.666.045-.22-.048-.678-.304-1.115-.613-.242-.17-.481-.344-.723-.47-.159-.084-.33-.174-.527-.176m1.33 1.96c.337.221.699.409 1.113.407h.125l.107-.076c.41-.287.7-.243.961-.096.047.026.09.064.133.1-.251.188-.448.457-.605.773-.327.655-.5 1.524-.461 2.45.038.924.3 1.911.898 2.726.596.811 1.52 1.427 2.791 1.644.357.11.738.131 1.082.14h.022c.345-.009.725-.032 1.082-.142 1.27-.217 2.193-.831 2.789-1.642.598-.815.862-1.802.9-2.727s-.136-1.794-.463-2.449c-.157-.316-.354-.585-.605-.773.043-.036.088-.074.135-.1.26-.147.549-.191.959.096l.107.076h.125c.414.002.778-.186 1.115-.406-.595 1.213-.794 2.377-.842 3.375-.035.737-.004 1.387-.017 1.902s-.072.863-.201 1.08l-.012.02-.012.021c-.552 1.13-1.189 1.751-1.984 2.129s-1.77.494-2.945.488q-.057 0-.116-.004l-.027-.002-.025.002q-.06.004-.118.004c-1.174.006-2.15-.11-2.945-.488s-1.432-1-1.984-2.129l-.01-.021-.012-.02c-.129-.217-.19-.565-.203-1.08s.02-1.165-.016-1.902c-.047-.998-.246-2.162-.841-3.375m6.154 3.395c1.05 0 1.873.806 1.873 1.795 0 .896-.676 1.643-1.584 1.775l-.039.004q-.125.009-.25.012a7 7 0 0 1-.248-.012l-.04-.004c-.907-.132-1.585-.879-1.585-1.775 0-.989.824-1.795 1.873-1.795" color="#000" style="-inkscape-stroke:none"/>
</svg>
