<svg xmlns="http://www.w3.org/2000/svg" viewBox="0 0 60 60">
    <defs>
        <filter id="0UM_svg__a" width="1.154" height="1.1" x="-.038" y="-.031" color-interpolation-filters="sRGB">
            <feFlood flood-color="#000" flood-opacity=".498" result="flood"/>
            <feComposite in="flood" in2="SourceGraphic" operator="in" result="composite1"/>
            <feGaussianBlur in="composite1" result="blur" stdDeviation="1"/>
            <feOffset dx="5" dy="3" result="offset"/>
            <feComposite in="SourceGraphic" in2="offset" result="composite2"/>
        </filter>
    </defs>
    <g opacity=".99">
        <g fill-opacity=".992" filter="url(#0UM_svg__a)" transform="matrix(.6 0 0 .6 -89.934 -52.115)">
            <path fill="#fcc8dc" d="m199.892 98-21.089 6.577L168 170.049h63.78l-10.804-65.473z"/>
            <path fill="#dc7ea2" d="M168 170.05v5.668h63.78v-5.67z"/>
        </g>
        <path fill="none" stroke="#fcc7dc" stroke-opacity=".988" stroke-width=".84" d="M25.907 24.788c-.986-.003-2.458.118-3.444.685m1.208 4.074c-2.315.245-2.97.405-4.218.956m3.641 3.731c-.86.022-1.873.048-4.182.794m3.749 5.264c-1.321-.18-2.139.275-3.46.649"/>
    </g>
    <path fill="#e13007" d="m25.813 10.156-.76 1.091c-.41.604-.649.888-.868 1.2-.23.31-.412.65-.65 1.254l-.11.22.165.22c.768.86 2.034 1.582 3.326 2.235 1.292.65 2.6 1.244 3.435 1.636 1.39.896 2.44 2 3.456 3.168.076 1.115.549 1.917 1.724 3.048l-.604.65c-1.414-1.36-2.034-2.565-2.017-4.143h.101c-.339-.503-.677-.982-1.03-1.364a2.8 2.8 0 0 0-1.745-.926c-.504-.078-.879-.11-1.636-.495a6 6 0 0 0-.22-.054l-.275.054-1.144.495.981.494c.02.026.03.054.058.11.086.164.21.402.33.713.118.32.237.696.32 1.085-3.792.394-7.846 3.061-10.03 4.586-.467.366-.156 1.114.439 1.035 1.428-.21 2.545-.457 3.702-.878l.01-.006v.001c.476-.165 1.017-.256 1.557-.32.714-.08 1.395-.092 1.872-.092a6.2 6.2 0 0 1 2.566-1.476c.238-.43.247-.732.165-1.152-.092-.449-.32-.947-.275-1.582l.87.055c-.03.384.164.814.274 1.363.086.421-.076.944-.275 1.473.11.091.293.228.595.439.375.247.851.549 1.309.814.457.266.906.522 1.253.714.174.091.33.165.44.22.057.025.076.04.11.052l-.22.87h-.058c-.019-.01-.086-.047-.11-.055-.047-.022-.047-.025-.11-.055-.118-.06-.31-.173-.493-.274-.357-.192-.787-.44-1.255-.714-.466-.274-.968-.558-1.363-.814a5.4 5.4 0 0 1-.65-.485c-1.667.503-2.723 1.657-3.497 3.265-.805 1.674-1.268 3.835-1.527 6.106-.256 2.27-.366 4.633-.55 6.76-.182 2.128-.43 4.013-1.09 5.344-.11.22-.21.366-.256.585.814.085 1.641.192 2.49.293 3.688.448 7.675.85 11.613-.44a.584.584 0 0 0 .33-.759c-1.239-2.539-1.76-5.411-5.67-8.886-.385-1.117-.339-2.178-.275-3.327.02-.274-.029-.567-.086-.86-.512-.768-.986-1.931-1.423-3.804l.302-.513.54.275c.421 1.823 1.013 3.015 1.369 3.535.485.613.576.495.814.495.723-.017 1.302-.32 1.963-.55.467 2.263.985 4.23 1.09 6.489-.01.11.005.229.057.33l1.472 2.18a.57.57 0 0 0 .65.22l1.09-.33a.584.584 0 0 0 .385-.76l-.029-.077 1.371-.704c.146.228.421.32.677.228.357-.128.769-.247 1.199-.439s.897-.467 1.2-.98a1 1 0 0 0 .057-.22c.002-.013.029-.086.274-.275.247-.183.677-.448 1.363-.76a.584.584 0 0 0 .11-.981l-.705-.494c-1.825-2.66-3.26-4.72-3.6-7.902-.002-.019.002-.036 0-.055l.44-2.563a.57.57 0 0 0-.12-.42c-.076-.45-.365-.852-.695-1.267-.42-.522-.965-1.042-1.526-1.58a22 22 0 0 1-1.526-1.637c-.412-.484-.64-.905-.714-1.254l2.181-3.108-3.98 1.309c-.759-.146-2.39-.714-4.033-1.527-1.69-.833-3.422-1.906-4.308-2.78-.058-.061-.257-.376-.385-.65a2.6 2.6 0 0 1-.164-.604zm-.594 2.297c.146.33.347.677.594.92 1.037 1.023 2.788 2.033 4.526 2.89 1.738.86 3.386 1.53 4.362 1.69h.11l1.636-.494-.87 1.255v.164c.092.64.504 1.23.982 1.8.476.567 1.075 1.097 1.636 1.636.53.503 1.038 1.011 1.402 1.446l-2.383-1.228c-1.246-.512-1.374-.796-1.854-1.145a1.3 1.3 0 0 0-.284-.164c-1.23-1.438-2.488-2.874-4.3-4.033h-.057c-.87-.412-2.126-.948-3.38-1.58-1.148-.577-2.194-1.283-2.835-1.909.128-.274.247-.576.385-.76.076-.11.22-.347.329-.484zm11.525 13.3h.604l.174.274c.21.33.256.613.338.888.086.274.21.622.577 1.233l.31.503-.512.302a1.21 1.21 0 0 1-1.042.07c-.302-.138-.512-.349-.732-.587l-.007-.008-.007-.007c-.156-.183-.284-.33-.394-.513a1.2 1.2 0 0 1-.183-.686c.038-.512.32-.796.696-1.26zm-11.249.2a15 15 0 0 0-1.082.076c-.484.056-.97.147-1.345.275l.002.003c-2.934.823-4.843 1.086-6.523 3.92a.58.58 0 0 0 .494.869l.806.033h.006c.841-.239.64-.175 1.69-.605l.003.006c1.163-.494 2.198-.65 4.245-.86.22-.806.495-1.574.833-2.275q.37-.782.879-1.437zm-1.909 4.516c-1.824.192-2.731.338-3.75.777l.003.007c-1.047.43-.86.393-1.695.63l-.03.015c-.85.513-1.749 1.271-2.713 2.473-.613.475-.086 1.114.704.927 2.37-.22 4.524-1.139 6.9-1.203l.028-.274c.129-1.143.302-2.277.55-3.354zm14.333 2.533 2.671 3.163-.128.658-2.435 1.028 2.034 1.062-.02.085a.53.53 0 0 0 .039.32l-2.002-.869-.54-1.314c-.174-1.112.038-1.766.274-2.508.128-.411.048-1.087.11-1.635zm-14.986 1.87h-.002c-.787.023-1.68.067-3.74.733-.504.247-1.039.503-1.28.723-1.429 1.316-2.764 2.878-3.27 3.653a.578.578 0 0 0 .649.869c1.874-.494 2.67-.449 3.216-.275.394.057.302.128.732-.091 1.175-.33 2.028-.778 3.31-.64.12-1.577.22-3.276.385-4.976zm-.832 5.724h-.002v.001c-.796-.003-1.442.275-2.376.558-2.856 1.687-4.8 3.978-5.357 4.773-.03.036-.202.192-.22.22a.578.578 0 0 0 .65.87c1.847-.696 4.02-.696 6.39-.486.066-.402.21-.723.32-.935.549-1.092.805-2.866.981-4.962l.001-.016a4 4 0 0 0-.393-.023z" color="#000" enable-background="accumulate" overflow="visible" style="line-height:normal;font-variant-ligatures:normal;font-variant-position:normal;font-variant-caps:normal;font-variant-numeric:normal;font-variant-alternates:normal;font-variant-east-asian:normal;font-feature-settings:normal;font-variation-settings:normal;text-indent:0;text-align:start;text-decoration-line:none;text-decoration-style:solid;text-decoration-color:#000;text-transform:none;text-orientation:mixed;white-space:normal;shape-padding:0;shape-margin:0;inline-size:0;isolation:auto;mix-blend-mode:normal;solid-color:#000;solid-opacity:1"/>
</svg>
