<svg xmlns="http://www.w3.org/2000/svg" viewBox="0 0 60 60">
    <defs>
        <filter id="1NG_svg__a" width="1.16" height="1.106" x="-.039" y="-.033" color-interpolation-filters="sRGB">
            <feFlood flood-color="#000" flood-opacity=".498" result="flood"/>
            <feComposite in="flood" in2="SourceGraphic" operator="in" result="composite1"/>
            <feGaussianBlur in="composite1" result="blur" stdDeviation="1"/>
            <feOffset dx="5" dy="3" result="offset"/>
            <feComposite in="SourceGraphic" in2="offset" result="composite2"/>
        </filter>
    </defs>
    <g fill-opacity=".992" filter="url(#1NG_svg__a)" opacity=".99" transform="matrix(.6 0 0 .6 -189.175 -160.36)">
        <path fill="#ececec" d="m365.293 350.22 20.4-6.08L396 280.533h-61.417l10.685 63.606z"/>
        <path fill="#8b8b8b" d="M345.268 347.92v-3.78l20.025 6.08 20.4-6.08v3.779l-20.4 6.081z"/>
    </g>
    <path fill="#e13007" fill-opacity=".992" d="m29.909 47.096.299-.418c.871-1.22 1.728-2.703 3.072-3.289l.563-.244-.478-.386c-.677-.547-1.17-1.413-1.507-2.523a3.99 3.99 0 0 0 1.935-3.43c0-.069-.007-.138-.01-.207a28 28 0 0 0 1.87-1.542l.216-.191c.496.31.932.678 1.315 1.112 1.492 1.695 2.23 4.462 2.546 8.923l.62-.016v-.027l-.002-.011c.077-4.119-.193-7.949-1.673-10.758a7.9 7.9 0 0 0-2.035-2.505l2.358-4.908c-.733-.596-1.232-.947-1.821-1.403l-2.013 5.382a9 9 0 0 0-.774-.325l.593-1.584c-3.277-1.519-7.126-1.538-10.3.07l.53 1.53a8 8 0 0 0-.77.328l-1.696-4.89c-.42.231-.864.476-1.743.896l2.26 4.7c-.972.715-1.727 1.632-2.294 2.71-1.481 2.809-1.751 6.638-1.674 10.757l-.002.011v.027l.618.016c.316-4.461 1.057-7.227 2.548-8.923a6 6 0 0 1 1.184-1.028l.042.038c.863.755 1.634 1.388 2.359 1.897a3.98 3.98 0 0 0 1.916 3.342c-.336 1.114-.829 1.984-1.508 2.533l-.48.387.563.243c1.344.585 2.201 2.07 3.073 3.288zm.009-6.912a3.2 3.2 0 0 1-1.799-.552 3.36 3.36 0 0 1-1.272-1.625l-.002-.003-.002-.006a3 3 0 0 1-.106-.35 3 3 0 0 1-.067-.342l-.002-.009a4 4 0 0 1-.039-.492c0-1.874 1.474-3.379 3.288-3.379s3.285 1.505 3.285 3.38c0 .069-.006.138-.01.21a3.43 3.43 0 0 1-.662 1.835l-.007.01a3.3 3.3 0 0 1-.824.782l-.002.002a3.2 3.2 0 0 1-1.781.54zm-9.76-.98.003-.006zc.234-1.83.647-3.481 1.358-4.83q.122-.232.257-.453.024-.036.045-.073c.074-.122.151-.236.231-.354l.065-.094q.142-.201.295-.39l.046-.053c.086-.102.174-.204.265-.297l.125-.13c.07-.069.142-.142.216-.207q.068-.065.138-.126.16-.14.329-.269c.21-.162.434-.309.67-.45l.014-.008q.242-.14.501-.268l.054-.027a8 8 0 0 1 1.11-.424l.119-.035q.251-.072.517-.13c.054-.011.11-.026.164-.036q.25-.05.51-.09l.21-.032q.25-.032.509-.053.128-.014.257-.024.254-.015.518-.023c.096-.004.188-.01.286-.01q.409-.006.842.01l.011.002h.002l.012-.002q.419-.015.812-.012a15 15 0 0 1 1.491.093h.002q.35.042.68.106h.001c.22.04.431.09.637.142h.002q.308.081.596.18c1.927.651 3.205 1.886 4.074 3.535.71 1.348 1.124 2.997 1.358 4.826l-.002-.007.002.007c-.43-1.512-1.019-2.704-1.836-3.633l-.112-.122q-.087-.097-.179-.19l-.142-.135-.17-.158a4 4 0 0 0-.167-.138l-.167-.134-.174-.13-.178-.121q-.093-.064-.19-.127a4 4 0 0 0-.172-.1l-.21-.122a4 4 0 0 0-.173-.09q-.109-.058-.222-.115l-.139-.061q-.265-.12-.55-.228-.063-.025-.13-.049a6 6 0 0 0-.27-.09l-.201-.064-.273-.08a17 17 0 0 0-.691-.175l-.308-.065-.212-.041q-.151-.03-.305-.056l-.078-.012a23 23 0 0 0-1.009-.143q-.66-.078-1.378-.13h-.044c-.392.029-.764.066-1.13.107h-.004c-1.68.183-3.086.499-4.258 1.023q-.05.02-.099.044-.13.059-.255.127l-.167.085-.206.115a4 4 0 0 0-.187.114l-.187.118q-.097.064-.19.13l-.159.114a5 5 0 0 0-.217.175l-.116.097a6 6 0 0 0-.29.268l-.02.02-.004.003a5 5 0 0 0-.315.333c-.818.93-1.409 2.122-1.838 3.637zm4.248-11.19c3.38-1.67 7.417-1.64 10.87-.055l2.81-7.506c-5.135-1.908-11.337-2.035-16.334-.094zm15.434-1.663 1.828-3.155-2.995-1.927-1.187 3.176c.746.653 1.69 1.28 2.354 1.906m-19.68 0c.939-.657.386-.305 2.309-1.373l-1.286-3.711-2.892 1.86zm22.394-3.514 2.475-3.624-.164-.28c-.88-1.504-2.511-2.957-4.24-3.376l-.287-.069-.134.31c-.28.645-.929 2.408-1.652 4.399 1.255 1.027 2.84 1.628 4.002 2.641zm-25.108 0c1.11-.994 2.637-1.859 3.936-2.695l.107.167c-.742-2.042-1.407-3.854-1.694-4.514l-.134-.309-.286.07c-1.729.418-3.36 1.872-4.24 3.375l-.164.28zM34.693 18.5l.647-2.204c-2.619-.575-8.355-.474-10.767.053l.62 2.078-.007-.04c2.645-.588 6.77-.54 9.506.115zm1.409-2.9 1.103-3.483-.406-.175c-4.411-1.855-10.01-1.777-13.703 0l-.407.232 1.104 3.426c3.21-.468 8.268-.822 12.31 0z" color="#000" enable-background="accumulate" overflow="visible" style="line-height:normal;font-variant-ligatures:normal;font-variant-position:normal;font-variant-caps:normal;font-variant-numeric:normal;font-variant-alternates:normal;font-variant-east-asian:normal;font-feature-settings:normal;font-variation-settings:normal;text-indent:0;text-align:start;text-decoration-line:none;text-decoration-style:solid;text-decoration-color:#000;text-transform:none;text-orientation:mixed;white-space:normal;shape-padding:0;shape-margin:0;inline-size:0;isolation:auto;mix-blend-mode:normal;solid-color:#000;solid-opacity:1"/>
</svg>
