<svg xmlns="http://www.w3.org/2000/svg" viewBox="0 0 60 60">
    <defs>
        <filter id="1NK_svg__a" width="1.166" height="1.11" x="-.041" y="-.034" color-interpolation-filters="sRGB">
            <feFlood flood-color="#000" flood-opacity=".498" result="flood"/>
            <feComposite in="flood" in2="SourceGraphic" operator="in" result="composite1"/>
            <feGaussianBlur in="composite1" result="blur" stdDeviation="1"/>
            <feOffset dx="5" dy="3" result="offset"/>
            <feComposite in="SourceGraphic" in2="offset" result="composite2"/>
        </filter>
    </defs>
    <g opacity=".99">
        <g filter="url(#1NK_svg__a)" transform="matrix(.6 0 0 .6 -237.884 -161.069)">
            <path fill="#feec99" d="m446.472 350.22 19.257-5.911L476 282.896h-59.055l10.266 61.384z"/>
            <path fill="#c3983c" fill-opacity=".992" d="M427.21 348.06v-3.78l19.262 5.94 19.257-5.911v3.78L446.472 354z"/>
        </g>
        <path fill="none" stroke="#feec99" stroke-width=".84" d="m39.331 22.53-1.682 2.373m4.082.961c.41.763-.156.949-1.072 1.815"/>
        <path fill="none" stroke="#feec99" stroke-opacity=".992" stroke-width="1.8" d="M35.071 16.158c-.33-.074-1.106-.41-1.263-.496-5.708-3.157-11.554-3.743-16.444-.099-.208.155-1.507.81-1.722.87"/>
        <path fill="none" stroke="#feec99" stroke-opacity=".992" stroke-width="1.2" d="M35.733 25.754c-.308-.215-.255-.334-.298-.436-1.53-3.674-4.229-5.489-5.914-5.899-6.626.028-8.262 4.138-11.37 7.148-.129.124-.46.403-.659.41"/>
    </g>
    <path fill="#e13007" d="m39.346 44.347-.073-.646s-.058-.533-.228-1.123c-.132-.456-.295-.99-.682-1.351.273-.582.412-1.264.412-2.009 0-.695-.118-1.338-.356-1.893v-.002c.037-.086.063-.167.08-.253q.023-.125.033-.264a4.8 4.8 0 0 0-.115-1.377 5 5 0 0 0-.18-.622c.426-1.19.665-2.333.593-3.58 1.463-1.64 2.764-3.394 3.61-5.434l.01-.021.004-.02c.241-1.014.472-2.092.05-3.189l-.035-.096-.56-.31c-.327-.676-.56-1.147-.963-1.431-.355-.25-.802-.3-1.411-.247l-1.885 2.65-.757-.54 1.788-2.513-.147-.356-.245.079c-1.246.4-1.91.975-2.38 1.677-.457.683-.76 1.469-1.341 2.383-1.844.854-2.683 1.305-4.511 1.99l-.023.008.057.032c-.26.454-.548 1.471-.726 2.415-.09.473-.157.933-.198 1.31-.04.377-.048.692-.04.78l-.926.089c-.025-.251-.001-.563.043-.969s.113-.885.207-1.381c.175-.93.412-1.891.762-2.568l-.048-.217c0-.019-.015-.288-.022-.612a8 8 0 0 1 .019-.809l.003-.019v-.017c.076-1.146.79-2.515 1.645-3.659-1.741-1.191-4.003-2.01-6.257-2.186-1.2-.093-2.387-.01-3.5.275.504 3.292.401 6.93.784 9.993.47 2.786 1.383 4.042 3.398 5.743.257.218.777.568 1.25.81.237.122.466.218.63.266.165.048.26.005.143.051l.449 1.142a1.1 1.1 0 0 1-.5.08h-.001c-.152-.013-.293-.054-.434-.095a5 5 0 0 1-.848-.35 8.3 8.3 0 0 1-1.483-.965c-2.119-1.79-3.312-3.476-3.817-6.488l-.002-.013-.002-.011c-.393-3.125-.352-6.679-.778-9.757a7.6 7.6 0 0 0-2.094 1.302c.358 2.07.478 4.34.58 8.264v.01c.151 2.279 1.371 4.946 3.283 7.034 1.873 2.045 4.435 3.514 7.317 3.433.116.904-2.164.757-3.31.921.848.654 2.826 1.6 4.064 1.928l-.057.128c-.138.317-.232.526-.232.526l-.458 1.008 1.05-.35a8 8 0 0 1 .8-.217q.152-.031.299-.047.17-.02.333-.017.144.001.283.022.037.005.073.012.14.024.277.07.151.051.3.131.148.081.294.192l.041.032.047.023q.198.093.392.145l.025.008a2 2 0 0 0 .183.037l.013.002q.09.014.18.017a1.4 1.4 0 0 0 .202-.01l.047-.005a1.3 1.3 0 0 0 .69-.332l.002-.002q.104-.094.19-.203t.157-.228l.145-.245-.145-.247s-.085-.143-.208-.375a13 13 0 0 1-.435-.912 7 7 0 0 1-.141-.367l-.046-.125a7 7 0 0 1-.12-.393 4 4 0 0 1-.147-.794l.162.023.66.778c.063.52.2 1.002.414 1.425.198.39.501.778.914 1.006l-.032 1.788.654-.226c.525-.183.762-.148 1.05-.058.286.09.639.292 1.17.39zm-1.19-1.315a4 4 0 0 0-.332-.113c-.256-.08-.653.01-1.004.04l.007-.44a1.66 1.66 0 0 0 .94-.448 3 3 0 0 1 .35.775c.029.096.017.095.039.186m-4.559-.654c-.09.008-.224-.017-.424-.107-.794-.58-1.679-.575-2.547-.42.124-.284.157-.343.328-.76.357-.868.744-1.869.887-2.566.147-.716.192-1.509.324-2.178.132-.666.345-1.155.696-1.393.022-.004.274-.124.548-.222a23 23 0 0 1 1.117-.362c.405-.12.817-.232 1.148-.305.331-.074.646-.085.582-.094.306.046.542.222.754.525s.373.726.465 1.142c.043.19.028.323.044.498-.181-.124-.352-.26-.562-.343-.644-.257-1.458-.31-2.114.156-.48.341-.934.79-1.302 1.253-.368.464-.654.924-.756 1.398-.183.851.165 1.777.498 2.56.254.596.418.865.533 1.07-.044.037-.094.118-.136.131a.4.4 0 0 1-.083.017m3.04-.768a1.214 2.391 0 0 1-1.216-2.392 1.214 2.391 0 0 1 1.216-2.39 1.214 2.391 0 0 1 1.213 2.39 1.214 2.391 0 0 1-1.213 2.392m-2.122-8.24c.107-.448.183-.856.4-1.22.135-.228.358-.431.64-.535.282-.103.605-.123 1.003-.092l.522.04-.155.499c-.158.513-.366.627-.597.948a1.4 1.4 0 0 0-.202-.006h-.01l-.01.002a2 2 0 0 0-.183.019l-.012.002c-.02.003-.046.01-.067.015-.118.022-.239.049-.381.08-.28.063-.597.149-.918.24zm5.875-7.6-.537-.567c.453-.428.812-.7.944-.861.066-.081.073-.11.076-.143.002-.034-.007-.106-.083-.247l.69-.368c.117.22.187.44.17.67a1.05 1.05 0 0 1-.25.583c-.255.312-.595.541-1.01.933m-8.635-6.65c.189-.195.376-.376.557-.533 1.958-1.493 2.38-2.977 2.655-5.321l.021-.185-.164-.09C30.13 10.385 26.59 9.675 23.674 10c-2.914.326-5.18 1.68-7.335 3.122l-.15.101.031.18c.188 1.07.337 1.846.74 3.325l.003.004v.004c.179.602.325 1.159.458 1.709a9.3 9.3 0 0 1 2.172-1.17c-.191-.924-.441-1.787-.787-2.556l1.119-.505c.377.836.65 1.743.861 2.69a12.2 12.2 0 0 1 3.88-.3c2.573.2 5.104 1.11 7.089 2.515z" color="#000" enable-background="accumulate" opacity=".99" overflow="visible" style="line-height:normal;font-variant-ligatures:normal;font-variant-position:normal;font-variant-caps:normal;font-variant-numeric:normal;font-variant-alternates:normal;font-variant-east-asian:normal;font-feature-settings:normal;font-variation-settings:normal;text-indent:0;text-align:start;text-decoration-line:none;text-decoration-style:solid;text-decoration-color:#000;text-transform:none;text-orientation:mixed;white-space:normal;shape-padding:0;shape-margin:0;inline-size:0;isolation:auto;mix-blend-mode:normal;solid-color:#000;solid-opacity:1"/>
</svg>
