<svg xmlns="http://www.w3.org/2000/svg" viewBox="0 0 60 60">
    <defs>
        <filter id="1RY_svg__a" width="1.154" height="1.103" x="-.038" y="-.032" color-interpolation-filters="sRGB">
            <feFlood flood-color="#000" flood-opacity=".498" result="flood"/>
            <feComposite in="flood" in2="SourceGraphic" operator="in" result="composite1"/>
            <feGaussianBlur in="composite1" result="blur" stdDeviation="1"/>
            <feOffset dx="5" dy="3" result="offset"/>
            <feComposite in="SourceGraphic" in2="offset" result="composite2"/>
        </filter>
    </defs>
    <g fill-opacity=".992" filter="url(#1RY_svg__a)" opacity=".99" transform="matrix(.6 0 0 .6 -41.934 -160.851)">
        <path fill="#fdd3e3" d="m119.89 352.22 21.701-7.117 10.189-64.932H88l10.188 64.932z"/>
        <path fill="#de7ea3" d="M98.188 348.882v-3.78l21.702 7.118 21.701-7.117v3.78L119.89 356z"/>
    </g>
    <path fill="#e13007" d="M34.574 45.537c-.073-.68-1.597-4.575.33-4.114.022.006.04.007.063.012.605.437.828 1.486.856 1.594.038.146.236.316.494.47.771.46 2.206.549 1.22-.44-.803-1.044-1.528-1.783-1.857-2.636l-.007.003c-.143-.749-.52-1.848-.714-2.557l-.288-1.239a8.5 8.5 0 0 0-.571-1.483c-.14-.268-.3-.516-.456-.69-.156-.171-.29-.26-.419-.295a.8.8 0 0 0-.163.313c-.086.285-.129.722-.146 1.16s-.009.879-.002 1.195q.005.236.004.368c.7.943.964 1.76 1.308 2.838-.035.146-.353.136-.56.202-2.965.95-.518 4.324.541 5.114l-.002.004q.095.07.199.122.08.045.17.06m-9.15 0q.091-.015.17-.059a1.4 1.4 0 0 0 .199-.122l-.002-.004c1.059-.79 3.506-4.164.541-5.114-.163-.052-.416-.389-.516-.336.323-1.01.595-1.803 1.265-2.704q-.002-.132.003-.368c.007-.316.015-.758-.002-1.195s-.06-.875-.146-1.16a.8.8 0 0 0-.163-.313c-.13.035-.263.124-.419.294a3.5 3.5 0 0 0-.455.691 8.5 8.5 0 0 0-.572 1.483l-.287 1.24c-.195.708-.572 1.807-.715 2.556l-.007-.003c-.329.853-1.054 1.592-1.857 2.636-.986.989.45.9 1.22.44.258-.154.457-.324.495-.47.028-.108.25-1.157.855-1.594.023-.005.041-.006.064-.012 1.927-.461.402 3.435.33 4.114M30 36.968l2.05-.494a16 16 0 0 1 .006-.873c.018-.464.052-.916.18-1.351a1.6 1.6 0 0 1 .336-.648l.355-.413.526.143c.337.092.606.303.827.546l.004.002.002.003c.23.257.415.55.58.868.168.323.302.65.408.946l.143-.035v-.002c.425-1.127.27-3.207.082-4.672l-.033-.27.252-.103c.326-.133.746-.298 1.086-.48.339-.182.551-.41.561-.448l.419-1.527c.05-.182.035-.28.017-.332-.02-.054-.05-.085-.118-.128-.11-.07-.312-.122-.52-.178-.338.003-.717.02-1.114-.016-.486-.045-1.007-.189-1.384-.612l-.037-.043-.023-.054c-.147-.346-.238-.72-.326-1.08h.573c.27.008 3.184.065 4.931-2.23.66-.868 1.291-1.509 2.016-1.84.316-.144.457-.273.72-.307.164-.022.454.083.697.15l-.227-.59c-.79-.27-1.429-.139-2.04.26-.635.413-1.222 1.106-1.793 1.85-.744.977-1.942 1.43-2.942 1.65-.85.188-1.352.174-1.55.175l-.637.025a1.6 1.6 0 0 0-.132-.25.52.52 0 0 0-.263-.22q-1.782.396-3.602.556l-.028.003-.03-.003a28 28 0 0 1-3.6-.556.52.52 0 0 0-.264.22q-.076.12-.13.249l-.636-.024c-.198 0-.704.013-1.554-.175-1-.22-2.198-.673-2.942-1.65-.57-.744-1.158-1.438-1.792-1.85-.611-.398-1.252-.53-2.041-.26l-.227.59c.243-.067.533-.172.696-.15.263.034.405.164.721.307.725.331 1.357.972 2.016 1.84 1.747 2.295 4.66 2.238 4.93 2.23h.576c-.087.36-.178.733-.326 1.08l-.024.054-.038.043c-.38.427-.916.583-1.428.648-.473.06-.938.047-1.316.052a1.2 1.2 0 0 0-.274.104c-.069.043-.097.077-.116.13s-.032.15.018.332l.416 1.527c.01.037.224.266.563.449.339.18.76.345 1.086.477l.252.104-.034.271c-.187 1.465-.342 3.547.084 4.674l.14.033c.106-.295.239-.621.407-.944.164-.317.35-.61.58-.868l.001-.003.004-.002c.22-.243.49-.455.827-.546l.526-.143.355.413c.16.187.273.41.336.648.128.435.162.887.18 1.351.012.315.01.607.007.873zm8.719-1.204c.614-1.358.873-2.095-.861-4.098 1.145.273 2.387 2.573 2.91 3.046.896-2.269-.226-3.265-1.614-3.988 1.353-.289 2.16.36 3.517.772-.756-1.382-1.689-3.493-3.976-2.51.85-1.167 2.33-1.706 3.595-2.456-1.301-.247-2.657-.892-3.766.248.576-1.051 1.514-1.95 2.434-2.854q-.564.075-1.121.193a5.8 5.8 0 0 1-1.945 1.39c-.007.36-.106.734-.204 1.063-.058.196-.074.227-.12.353.168.043.305.054.497.175a1 1 0 0 1 .403.49c.08.22.078.478.002.757l-.419 1.529c-.124.455-.517.675-.91.887-.313.167-.628.287-.914.404q.069.52.12 1.042zm-17.436 0 2.377-3.56q.049-.52.116-1.04c-.285-.116-.598-.236-.91-.403-.395-.212-.79-.432-.914-.887l-.415-1.529c-.077-.28-.08-.537 0-.758a1 1 0 0 1 .402-.49c.192-.12.33-.132.497-.174-.045-.126-.064-.157-.122-.353-.098-.329-.193-.703-.2-1.063-.676-.306-1.36-.74-1.949-1.39q-.549-.118-1.123-.193c.921.904 1.86 1.803 2.436 2.854-1.11-1.14-2.467-.495-3.767-.248 1.265.75 2.747 1.289 3.596 2.456-2.287-.983-3.22 1.127-3.976 2.51 1.358-.412 2.162-1.06 3.515-.772-1.387.723-2.51 1.719-1.612 3.988.522-.472 1.767-2.772 2.91-3.046-1.734 2.004-1.475 2.74-.86 4.098m5.015-3.291a1 1 0 0 1-.14-.015c-.303-.052-.586-.245-.837-.658-.663-1.357.39-2.013 1.471-2.402 1.154-.187 1.806.137 2.268.896-1.805 1.299-2.04 2.088-2.624 2.172a1 1 0 0 1-.138.007m7.268-.007c-.585-.084-.82-.873-2.624-2.172.462-.76 1.116-1.083 2.27-.896 1.081.389 2.134 1.044 1.47 2.402-.25.413-.533.606-.837.658-.102.017-.276-.075-.28.006zm-1.833-5.353c-.568-.125-.818-.94-1.21-1.444l.721.535.896.095c-.06.388.316.697-.407.814m-3.463 0c-.723-.117-.348-.425-.408-.814l.896-.097.721-.533c-.393.503-.64 1.32-1.209 1.444m-5.102-.239q.327 0 .652-.037c.412-.051.737-.178.948-.396.03-.077.053-.175.08-.264a7.8 7.8 0 0 1-1.974-.374q.041.287.12.565c.085.283.14.42.174.506m13.318-.057q.185.004.37-.003c.04-.107.077-.198.151-.446.059-.194.082-.379.11-.561a7.7 7.7 0 0 1-1.962.37c.025.088.05.186.079.262.211.22.498.325.88.361q.187.015.372.017M25.42 24.411c.033-.065.059-.134.1-.195.154-.233.378-.44.675-.533-.033-3.396.021-3.047.872-6.255l.036-.133.116-.074c.766-.492 1.766-.735 2.77-.735s2.017.245 2.793.795l.104.074.032.125c.85 3.223.95 2.868.876 6.198l.01.002c.284.094.526.285.686.538.04.06.063.128.096.192a7.5 7.5 0 0 0 1.533-.189q.293-.068.578-.161c-.097-.167-.191-.335-.309-.486.006.009-.251-.17-.477-.269-.227-.098-.43-.165-.43-.165l-.206-.069-.034-.215c-.476-3.138-1.12-4.29-1.911-6.637a2.2 2.2 0 0 0-.335-.392L32.5 9.208l-.7 4.973-.936-4.414-.866 4.324-.86-4.316-.943 4.48-.7-5.079-.489 6.655c-.125.118-.24.245-.331.388-.792 2.346-1.433 3.497-1.91 6.636l-.035.215-.205.069s-.206.068-.433.166c-.226.098-.48.277-.474.27-.118.15-.213.32-.31.487q.285.092.578.16c.503.115 1.017.18 1.533.19m4.584-.176a28 28 0 0 0 2.995-.43l-.505-2.699-.697 1.352-.938-1.036-.866.984-.861-.979-.943 1.073-.7-1.412-.497 2.711q1.494.301 3.012.436m-.011-4.543.86-.829.816.786.366-1.946a4.3 4.3 0 0 0-2.046-.507c-.742 0-1.46.185-2.037.474l.371 1.972.809-.779z"/>
</svg>
