<svg xmlns="http://www.w3.org/2000/svg" viewBox="0 0 60 60">
    <defs>
        <filter id="1TO_svg__a" width="1.184" height="1.115" x="-.045" y="-.036" color-interpolation-filters="sRGB">
            <feFlood flood-color="#000" flood-opacity=".498" result="flood"/>
            <feComposite in="flood" in2="SourceGraphic" operator="in" result="composite1"/>
            <feGaussianBlur in="composite1" result="blur" stdDeviation="1"/>
            <feOffset dx="5" dy="3" result="offset"/>
            <feComposite in="SourceGraphic" in2="offset" result="composite2"/>
        </filter>
    </defs>
    <g filter="url(#1TO_svg__a)" opacity=".99" transform="matrix(.6 0 0 .6 -334.455 -163.332)">
        <path fill="#feec99" d="M624.958 346.654 634 288.441h-53.151l8.642 58.613 17.934 5.166z"/>
        <path fill="#c3983c" fill-opacity=".992" d="M589.491 350.833v-3.78l17.934 5.167 17.533-5.566v3.78L607.425 356z"/>
    </g>
    <path fill="#e13007" d="M37.486 42.462a.65.65 0 0 0 .332-.082l.622-.319-.479-.564c-1.388-1.64-1.665-3.108-1.729-4.432-.031-.662.001-1.285-.013-1.873-.014-.572-.07-1.14-.348-1.633q-.002-.007-.006-.013l-.015-.028c-.443-.892-.98-1.555-1.588-2.033.47-.374.984-.78 1.658-1.338a.31.31 0 0 0-.074-.521 14.5 14.5 0 0 0-3.922-1.076c.043-1.732.168-3.314.654-4.74.61-1.792 1.768-3.369 4.108-4.794l.007-.003c1.13-.732 1.91-1.337 2.448-2.108.536-.77.805-1.683.947-2.973a.31.31 0 0 0-.229-.334c-2.933-.786-6.396-1.16-9.857-1.144-3.462-.016-6.927.358-9.861 1.144a.31.31 0 0 0-.229.334c.142 1.29.413 2.203.95 2.973s1.316 1.376 2.445 2.108l.007.003c2.34 1.425 3.5 3.002 4.11 4.793.486 1.428.61 3.012.652 4.745a15 15 0 0 0-3.92 1.07.31.31 0 0 0-.076.523c.675.558 1.197.97 1.664 1.336-.61.478-1.146 1.142-1.59 2.035l-.021.041c-.278.493-.334 1.061-.348 1.633-.014.588.016 1.211-.015 1.873-.064 1.324-.34 2.792-1.729 4.432l-.479.564.622.319c.344.176.617.033.859-.094s.48-.3.723-.47c.437-.31.896-.566 1.117-.614.597.345 1.208.302 1.666.045.498-.28.834-.743.992-1.233l.334-1.029-.895.317c-.068.024-.105.02-.193-.043s-.206-.203-.312-.416c-.213-.427-.366-1.122-.336-1.844s.231-1.466.675-2.07a3 3 0 0 1 .46-.495q-.144.415-.145.877c0 1.548 1.3 2.795 2.873 2.795 1.572 0 2.873-1.247 2.873-2.795a2.7 2.7 0 0 0-.148-.879q.266.23.462.497c.444.604.646 1.348.676 2.07s-.123 1.417-.336 1.844c-.106.213-.226.353-.314.416-.088.062-.124.067-.192.043l-.894-.317.332 1.03c.158.489.496.952.994 1.232.457.257 1.069.3 1.666-.045.22.048.678.305 1.115.613.242.17.481.344.723.471.159.083.33.173.527.176m-1.33-1.961c-.337-.221-.699-.408-1.113-.406h-.125l-.107.076c-.41.286-.7.242-.961.095-.047-.026-.09-.064-.133-.1.251-.187.448-.456.605-.773.327-.655.5-1.524.461-2.449s-.3-1.912-.898-2.726c-.596-.812-1.52-1.428-2.791-1.645-.357-.11-.738-.13-1.082-.14h-.022c-.345.01-.725.032-1.082.142-1.27.218-2.193.831-2.789 1.643-.598.814-.862 1.801-.9 2.726s.136 1.794.463 2.45c.157.316.354.585.605.773-.043.035-.088.073-.135.1-.26.146-.549.19-.959-.096l-.107-.076h-.125c-.414-.002-.778.185-1.115.406.595-1.214.794-2.378.842-3.375.035-.738.004-1.388.017-1.903.013-.514.072-.862.201-1.08l.012-.02.012-.02c.552-1.13 1.189-1.752 1.984-2.13s1.77-.493 2.945-.488q.057 0 .116.004l.027.002.025-.002q.06-.004.118-.004c1.174-.005 2.15.11 2.945.488s1.432 1 1.984 2.13l.01.02.012.02c.129.218.19.566.203 1.08s-.02 1.165.016 1.903c.047.997.246 2.161.841 3.375m-6.154-3.395c-1.05 0-1.873-.806-1.873-1.795 0-.896.676-1.643 1.584-1.775l.039-.004q.125-.008.25-.012.125.004.248.012l.04.004c.907.132 1.585.88 1.585 1.775 0 .989-.824 1.795-1.873 1.795" color="#000" style="-inkscape-stroke:none"/>
</svg>
