<svg xmlns="http://www.w3.org/2000/svg" viewBox="0 0 60 60">
    <defs>
        <filter id="1UM_svg__a" width="1.154" height="1.103" x="-.038" y="-.032" color-interpolation-filters="sRGB">
            <feFlood flood-color="#000" flood-opacity=".498" result="flood"/>
            <feComposite in="flood" in2="SourceGraphic" operator="in" result="composite1"/>
            <feGaussianBlur in="composite1" result="blur" stdDeviation="1"/>
            <feOffset dx="5" dy="3" result="offset"/>
            <feComposite in="SourceGraphic" in2="offset" result="composite2"/>
        </filter>
    </defs>
    <g opacity=".99">
        <g fill-opacity=".992" filter="url(#1UM_svg__a)" transform="matrix(.6 0 0 .6 -89.934 -160.851)">
            <path fill="#fdd3e3" d="m199.89 352.22 21.067-6.56 10.823-65.489H168l10.822 65.489z"/>
            <path fill="#de7ea3" d="M178.822 349.44v-3.78l21.068 6.56 21.067-6.56v3.78L199.89 356z"/>
        </g>
        <path fill="none" stroke="#fcd2e3" stroke-opacity=".988" stroke-width=".84" d="M34.092 32.377c.986.004 2.458-.117 3.444-.685m-1.208-4.074c2.315-.244 2.97-.404 4.218-.955m-3.641-3.732c.86-.021 1.873-.047 4.182-.793m-3.75-5.264c1.322.18 2.14-.275 3.462-.65"/>
    </g>
    <path fill="#e13007" d="m34.373 47.057.759-1.09c.412-.604.65-.888.87-1.2.228-.311.411-.65.649-1.255l.11-.22-.165-.219c-.769-.86-2.034-1.583-3.326-2.235-1.292-.65-2.6-1.245-3.435-1.636-1.39-.897-2.44-2.001-3.456-3.168-.077-1.116-.55-1.917-1.724-3.048l.604-.65c1.414 1.36 2.034 2.564 2.017 4.143h-.101c.338.503.677.981 1.03 1.363.613.668 1.24.85 1.745.927.503.077.879.11 1.636.494.002.001.21.055.22.055l.275-.055 1.144-.494-.982-.494c-.019-.027-.028-.055-.057-.11a7 7 0 0 1-.33-.714 8 8 0 0 1-.32-1.085c3.792-.393 7.846-3.06 10.03-4.585.467-.366.156-1.115-.439-1.036-1.428.21-2.545.458-3.702.878l-.01.006c-.476.164-1.017.256-1.557.32-.714.079-1.396.091-1.872.091a6.2 6.2 0 0 1-2.566 1.476c-.238.43-.247.732-.165 1.153.092.448.32.946.275 1.581l-.87-.054c.03-.385-.164-.815-.274-1.364-.086-.42.076-.943.274-1.472a9 9 0 0 0-.594-.44 28 28 0 0 0-1.309-.814 74 74 0 0 0-1.253-.713c-.174-.092-.33-.165-.44-.22-.057-.026-.076-.041-.11-.053l.22-.869h.057c.02.01.087.046.11.055.048.022.048.024.11.054.119.06.311.174.494.275.357.192.787.439 1.255.713.466.275.968.558 1.363.815.265.174.476.33.65.485 1.667-.504 2.723-1.657 3.497-3.265.805-1.675 1.268-3.836 1.527-6.106.256-2.27.366-4.634.55-6.761.182-2.128.43-4.013 1.09-5.343.11-.22.21-.366.256-.586-.814-.085-1.641-.192-2.49-.293-3.688-.448-7.675-.85-11.613.44a.584.584 0 0 0-.33.76c1.239 2.538 1.76 5.41 5.67 8.886.385 1.116.339 2.178.275 3.326-.02.275.028.567.086.86.512.769.986 1.932 1.423 3.805l-.302.512-.54-.274c-.421-1.824-1.013-3.015-1.369-3.536-.485-.613-.577-.494-.814-.494-.723.016-1.303.32-1.963.549-.467-2.263-.985-4.23-1.09-6.488a.6.6 0 0 0-.057-.33l-1.473-2.18a.57.57 0 0 0-.65-.22l-1.09.33a.584.584 0 0 0-.384.759l.029.077-1.371.705a.566.566 0 0 0-.677-.229c-.357.128-.769.247-1.199.44-.43.191-.897.466-1.2.98a1 1 0 0 0-.057.22c-.002.012-.029.086-.274.274-.248.183-.678.449-1.363.76a.584.584 0 0 0-.11.982l.705.494c1.825 2.659 3.26 4.72 3.6 7.902.002.018-.002.035 0 .054l-.44 2.563a.57.57 0 0 0 .12.421c.076.449.365.851.695 1.267.42.521.965 1.042 1.526 1.58.558.54 1.095 1.122 1.526 1.636.412.485.64.906.714 1.254l-2.182 3.109 3.98-1.31c.76.147 2.39.714 4.034 1.528 1.69.832 3.422 1.906 4.308 2.78.058.06.256.375.385.65.118.275.164.595.164.604zm.594-2.297c-.146-.329-.347-.677-.594-.92-1.037-1.022-2.789-2.032-4.526-2.89-1.738-.86-3.386-1.529-4.362-1.69h-.11l-1.636.494.87-1.254v-.165c-.092-.64-.504-1.23-.983-1.8-.475-.567-1.074-1.097-1.635-1.636-.53-.503-1.038-1.01-1.402-1.445l2.383 1.227c1.246.513 1.374.797 1.854 1.145.077.058.174.12.284.165 1.23 1.437 2.488 2.873 4.3 4.032h.057c.87.412 2.125.948 3.38 1.58 1.148.577 2.194 1.283 2.835 1.91-.128.274-.247.576-.385.759-.076.11-.22.348-.33.485zm-11.525-13.3h-.604l-.174-.274c-.21-.329-.256-.613-.338-.887-.086-.275-.21-.622-.577-1.234l-.311-.503.512-.302a1.21 1.21 0 0 1 1.043-.069c.302.138.512.348.732.586l.006.008.008.008c.156.183.284.33.394.512.11.183.201.43.183.686-.039.513-.32.797-.696 1.26zm11.249-.2a15 15 0 0 0 1.081-.076c.485-.055.971-.146 1.345-.274v-.003c2.933-.824 4.842-1.086 6.522-3.92a.58.58 0 0 0-.495-.87l-.805-.033-.006.001c-.841.238-.64.174-1.69.604l-.003-.005c-1.163.494-2.199.65-4.246.86a13.4 13.4 0 0 1-.832 2.275q-.37.781-.879 1.436zm1.909-4.515c1.824-.192 2.73-.339 3.75-.778l-.003-.006c1.047-.43.86-.394 1.695-.631l.029-.015c.851-.512 1.75-1.27 2.714-2.472.613-.476.086-1.115-.705-.928-2.369.22-4.523 1.14-6.899 1.203l-.029.275a30 30 0 0 1-.549 3.353zM22.267 24.21l-2.672-3.162.129-.659 2.434-1.028-2.033-1.062.02-.085a.53.53 0 0 0-.039-.32l2.002.87.54 1.313c.174 1.113-.038 1.766-.274 2.508-.128.412-.048 1.087-.11 1.635zm14.986-1.87h.002c.786-.022 1.68-.066 3.74-.732.503-.248 1.039-.504 1.28-.723 1.429-1.316 2.764-2.879 3.27-3.653a.578.578 0 0 0-.65-.87c-1.873.495-2.67.449-3.215.275-.394-.056-.302-.128-.732.092-1.175.329-2.028.777-3.311.64-.119 1.577-.22 3.276-.384 4.975zm.832-5.724h.002c.796.003 1.442-.275 2.376-.559 2.856-1.686 4.8-3.978 5.357-4.773.029-.035.202-.192.22-.22a.578.578 0 0 0-.65-.869c-1.847.696-4.02.696-6.39.485-.066.403-.21.723-.32.935-.549 1.092-.805 2.866-.981 4.963l-.001.016c.137.015.265.023.393.023z" color="#000" enable-background="accumulate" overflow="visible" style="line-height:normal;font-variant-ligatures:normal;font-variant-position:normal;font-variant-caps:normal;font-variant-numeric:normal;font-variant-alternates:normal;font-variant-east-asian:normal;font-feature-settings:normal;font-variation-settings:normal;text-indent:0;text-align:start;text-decoration-line:none;text-decoration-style:solid;text-decoration-color:#000;text-transform:none;text-orientation:mixed;white-space:normal;shape-padding:0;shape-margin:0;inline-size:0;isolation:auto;mix-blend-mode:normal;solid-color:#000;solid-opacity:1"/>
</svg>
