<svg xmlns="http://www.w3.org/2000/svg" width="120" height="120" viewBox="0 0 120 136">
    <path fill="red" stroke="red" stroke-width=".004" d="m-22.615-17.503.005.002 1.61.548-.298.57-.004.007-.323.566-.343.553-.36.54-.374.525-.387.51h2.078v1.554h-3.446l-.119.126-.066.07-.188.19-.192.186-.196.182-.199.18-.203.178h3.845V-4h-1.756v-.56h-3.101V-4h-1.67v-5.03l-.192.118-.178.107-.012.008-.19.114-.193.11-.196.108-.177.09-.008.005-.008.004-.01.005-.104-.151-.13-.18-.147-.195-.158-.205-.098-.124-.064-.082-.159-.196-.009.278-.02.679-.023.345-.04.576-.101.859-.12.613-.031.157-.05.157-.159.498-.114.212-.162.3-.111.147-.128.129-.144.11-.157.09-.171.069-.183.048-.276.06-.288.041-.155.012-.145.011-.22.007-.094.003-.325-.003-.193-.007-.123-.004-.023-.001-.017-.293-.04-.296-.064-.293-.039-.13-.048-.159-.038-.097-.057-.143-.015-.04-.065-.128-.029-.058-.016-.032-.012-.024-.01-.018-.002-.005.315.022.287.015.258.006h.229l.198-.008.167-.014.092-.02.03-.01.054-.018.075-.037.068-.047.059-.057.053-.07.04-.082.095-.194.108-.425.082-.552.06-.658.01-.219.027-.521.018-.737v-.066l-.305.379-.313.367-.132.145-.186.205-.224.228-.098.1-.323.302-.298.25-.017.013-.009.008-.12-.234-.15-.26-.113-.179-.059-.093-.18-.269-.018-.023-.136-.186-.03-.04-.07-.086-.066-.082-.038-.048.512-.37.512-.449.498-.514.469-.565.144-.204.28-.397.363-.62-.021-.15-.019-.124-.046-.27-.052-.27-.059-.265-.065-.266-.053-.2-.018-.064-.061.065-.195.208-.054.054-.205.203-.26.243-.259.23-.256.216-.075.062-.083.069-.044.036-.025.02-.018.014-.005.005-.128-.25-.151-.277-.17-.287-.18-.282-.187-.263-.161-.198-.015-.019-.01-.011.295-.201.301-.224.003-.002.302-.241.305-.26.304-.275.299-.287-.186-.284-.201-.281-.22-.28-.118-.14-.115-.136-.25-.276-.267-.276 1.24-.928.234.222.22.224.086.092.124.134.196.228.183.23.173.23.158-.2.152-.2.145-.198.135-.198.125-.196.114-.195 1.335.842-.181.295-.117.18-.079.122-.002.004-.209.303-.222.308-.232.307-.239.305.319.825.004.012.178.642.058.206.16.862.038.326.062.551.05.892.009.605.005.303v.033l.604-.307.051-.029.544-.306.455-.282.128-.079.569-.385.552-.408.532-.428h-3.166v-1.554h2.93v-1.274h-2.198v-1.554h2.197v-1.48h1.713v1.48h1.873v.647l.17-.27.15-.25.014-.023.158-.273.151-.274.145-.275.14-.275m-12.997-5.3h-.007v.031l-1.041 6.388L-37-14.29l-2.003 12.293h22.006L-17.323-4-19-14.291l-.341-2.093-1.041-6.388v-.03h-.007L-23-24.588l-5-3.416-5 3.416-2.61 1.784M-28-30l7.618 5.079L-19-24l1.27 7.616 2.397 14.386L-15 0h-26l2.73-16.384L-37-24l1.382-.921 6.138-4.093h.001L-28-30m3.486 15.48.167-.217.159-.22h-1.227v1.275h.172l.19-.206.186-.21.18-.209.111-.136.062-.077m-2.118 6.008h3.101V-9.57h-3.101v1.058m3.101 2.515V-7.11h-3.101v1.112Zm0 0" transform="matrix(4.29492 0 0 4.26451 180.387 132.2)"/>
    <path fill="#f9f9f9" d="M13.094 122.91c.058-.347 3.324-20.25 7.261-44.234 3.934-23.985 7.184-43.633 7.22-43.668.292-.27 32.394-21.969 32.523-21.98.218-.024 32.562 21.91 32.644 22.136.094.262 14.434 87.797 14.434 88.106 0 .246-3.864.27-47.094.27H12.988Zm53.004-8.937v-1.176h13.187v2.351h7.606V85.102H70.75l2.367-2.258 2.363-2.258 7.395-.008 7.398-.008v-6.882h-8.789l1.414-1.887c1.707-2.281 3.918-5.625 5.297-8.016 1.149-1.988 2.125-3.87 2.047-3.945-.031-.024-1.633-.582-3.562-1.235l-3.508-1.19-.766 1.51a59 59 0 0 1-1.902 3.395l-1.137 1.883-.047-1.215-.05-1.218h-7.93v-6.38h-7.61v6.38h-9.464v6.714h9.464v5.204H51.223v6.882h13.386l-.921.743c-3.09 2.5-7.614 5.453-11.325 7.39l-2.101 1.098-.114-3.567c-.218-6.945-1.156-12.18-3.054-17.058l-.61-1.574 1.59-2.118c1.672-2.23 3.824-5.421 3.824-5.668 0-.144-5.753-3.816-5.828-3.718-.023.027-.324.504-.675 1.054-.82 1.297-2.66 3.778-2.805 3.778-.059 0-.48-.473-.934-1.047-.957-1.223-4.11-4.492-4.328-4.492-.14 0-4.664 3.304-5.191 3.789-.2.183-.059.41.91 1.445 1.512 1.621 2.894 3.309 3.883 4.75l.808 1.172-.672.59c-.37.328-1.351 1.187-2.175 1.91a56 56 0 0 1-3.239 2.586l-1.73 1.262.562.69q1.277 1.566 2.887 4.427c.633 1.129 1.04 1.683 1.168 1.605.52-.305 3.293-2.73 4.746-4.152.89-.871 1.649-1.535 1.688-1.473.132.23.937 3.848 1.129 5.094l.203 1.285-.555.98c-2.355 4.16-6.453 8.754-10.348 11.61-.535.39-.972.754-.972.805 0 .05.258.406.57.793.785.957 2.691 3.882 3.164 4.851.215.438.45.797.523.797.47 0 4.336-3.816 6.688-6.598l1.395-1.648v1.144c0 1.598-.31 6.415-.516 8.028-.473 3.719-1.094 5.277-2.36 5.926-.73.375-.882.39-3.93.332-1.741-.036-3.167-.036-3.167-.008 0 .031.16.37.36.762.796 1.546 1.394 3.867 1.542 5.996l.04.586 2.96-.008c5.664-.016 7.82-.903 9.45-3.89 1.671-3.06 2.503-7.317 2.921-14.934.145-2.68.258-3.688.39-3.575.102.082.903 1.098 1.782 2.254l1.59 2.098 1.441-.774a45 45 0 0 0 2.332-1.335c.493-.313.93-.567.973-.567.047 0 .082 4.762.082 10.574v10.578h7.438Zm0 0"/>
    <path fill="#f9f9f9" d="M71.34 71.086v-2.602h2.45c1.347 0 2.452.032 2.452.067 0 .148-1.988 2.62-3.086 3.836-.683.754-1.312 1.3-1.496 1.3-.3 0-.32-.16-.32-2.601M66.098 93.66v-2.18h13.187v4.364H66.098Zm0 10.578v-2.351h13.187v4.699H66.098Zm0 0"/>
</svg>
