<svg xmlns="http://www.w3.org/2000/svg" width="120" height="120" viewBox="0 0 120 136">
    <path stroke="red" stroke-width=".004" d="m-91.618 43.228-.965 5.924-.417 2.557-2.003 12.293h22.006L-73.323 62-75 51.709l-.417-2.557-.965-5.924v-.03h-.007L-77 42.78l-2-1.367-5-3.416-5 3.416-2 1.367-.61.417h-.008v.031M-75 42l1.192 7.152L-71.668 62l.335 2.002.255 1.534L-71 66h-26l.078-.464 2.73-16.384L-93 42l1.382-.921.618-.413 5.52-3.68h.001L-84 36l7 4.666.618.413L-75 42m-2.606 6v1.861h-9.767v2.227h7.42l.351-.068.159.068 1.12.48-.328 1.198-.399 1.106-.468 1.02-.532.937-.357.515-.238.344-.654.783.611.389.655.352.697.317.74.28.772.239.006.002.72.178.04.01.035.01.023.005-.213.23-.224.281-.224.31-.163.246-.051.077-.191.315-.158.288-.887-.26-.836-.3-.785-.339-.737-.38-.45-.274-.241-.146-.65-.46-.21.148-.163.115-.266.186-.674.41-.705.375-.736.34-.452.183-.312.125-.775.271-.017.006-.124-.282-.142-.278-.015-.03-.18-.316-.194-.309-.199-.282-.021-.027-.086-.106-.057-.07-.03-.036.717-.206.69-.243.667-.28.078-.039.562-.278.614-.354.537-.36.05-.033-.522-.64-.34-.487-.143-.204-.445-.737-.313-.6-.096-.184-.373-.829-.337-.875h-.584l-.087 1.363-.163 1.417-.118.649-.141.776-.373 1.386-.508 1.297-.055.098-.307.54-.278.488-.013.022-.008.015-.203-.185-.253-.204-.186-.137-.013-.01-.083-.061-.29-.198-.275-.175-.019-.01-.221-.128.714-1.28.174-.496.32-.914.174-.824.14-.657.173-1.49.075-1.44.006-.509.01-.817V48h11.608m-3.142 5.915h-4.145l.274.616.303.59.334.563.364.535.394.507.426.478.42-.477.393-.505.065-.097.296-.437.327-.562.293-.59Zm0 0" transform="matrix(4.29492 0 0 4.26451 420.902 -149.258)"/>
    <path fill="#f9f9f9" d="M13.02 123.414c.011-.344 14.5-88.355 14.554-88.406.293-.27 32.395-21.969 32.524-21.98.218-.024 32.562 21.91 32.644 22.136.094.262 14.434 87.797 14.434 88.106 0 .246-3.864.27-47.078.27-25.895 0-47.078-.056-47.078-.126m25.183-10.828c3.395-6.043 5.555-13.55 6.672-23.203.223-1.942.453-4.469.512-5.625.16-3.211.074-3.02 1.41-3.02h1.129l.906 2.309c2.285 5.828 5.27 11.078 8.773 15.453.692.86 1.23 1.59 1.196 1.617-.43.387-3.895 2.48-5.383 3.258-3.098 1.61-8.246 3.586-10.773 4.129-.66.14-.672.2-.145.75.71.75 2.254 3.172 3.23 5.066.516 1.004 1.016 1.828 1.11 1.828.254 0 3.222-1.05 5.144-1.816 3.996-1.598 7.637-3.492 11.043-5.754l2.254-1.5 1.38.984c2.597 1.852 5.995 3.731 9.136 5.055 3.41 1.438 8.668 3.153 9.133 2.977.12-.047.472-.528.777-1.067.871-1.539 2.77-4.242 3.73-5.308.481-.535.833-1.016.782-1.067s-.992-.312-2.09-.582c-4.067-.996-8.547-2.683-12.055-4.539-1.812-.953-4.058-2.332-4.058-2.484 0-.055.539-.738 1.195-1.52 3.75-4.46 6.89-9.988 9.102-16.02.796-2.179 2.214-6.987 2.21-7.503-.003-.133-1.132-.7-2.738-1.375l-2.734-1.149-.926.184c-.633.125-5.875.184-16.617.184H45.812v-9.399h41.926v-8.058H37.7v9.695c0 12.238-.219 18.937-.777 23.762-.887 7.695-2.633 13.73-5.387 18.586-.805 1.425-1.48 2.656-1.5 2.73-.015.078.684.59 1.559 1.137 1.652 1.043 4.097 2.875 4.652 3.488.176.2.367.356.422.356s.746-1.153 1.535-2.56m0 0"/>
    <path fill="#f9f9f9" d="M64.313 93.418c-2.567-2.879-5.258-7-6.938-10.629l-.914-1.969 8.648-.043c4.758-.023 8.684-.011 8.723.028.148.148-1.527 3.808-2.547 5.574-1.613 2.789-2.992 4.7-5.484 7.598l-.489.566Zm0 0"/>
</svg>
