<svg xmlns="http://www.w3.org/2000/svg" width="120" height="120" viewBox="0 0 120 136">
    <path stroke="red" stroke-width=".004" d="m-35.618-56.772-1.241 7.62-.141.86-2.003 12.294h22.006L-17.323-38-19-48.291l-.14-.861-1.242-7.62v-.03h-.007L-21-57.22l-2-1.367-5-3.416-5 3.416-2 1.367-.61.417h-.008v.031M-41-34l2.525-15.152L-37-58l1.382-.921.618-.413 5.52-3.68h.001L-28-64l7 4.666.618.413L-19-58l1.475 8.848L-15.667-38l.334 2.002L-15-34h-26m12.299-15.226-.037.074-.674 1.354-.017.033v.001l-.05-.05-.056-.054-.058-.056-.06-.056-.063-.053-.066-.051v1.355h-1.28v1.09h1.788v1.493h-1.787v3.457l1.164-.209.349-.062.274-.05.003.05.096 1.338-.911.201-.914.196-.9.19-.618.132-.25.053h-.006l-.828.18-.77.168-.34-1.568v-.008l-.001-.003.14-.02.18-.027.163-.026.18-.028.36-.059.378-.063.39-.064.154-.025.25-.04v-3.713h-1.975v-1.494h1.975v-1.089h-1.136v-.651l-.121.12-.119.113-.048.043-.07.065-.119.103-.12.1-.114.092-.006.005-.067-.24-.039-.125-.057-.184-.114-.344-.123-.348-.12-.32-.088-.212-.021-.052.555-.44.162-.148.391-.36.533-.566.498-.61.093-.135.355-.511.381-.666.062.028 1.228.559-.043.09-.086.181-.045.089-.049.087-.052.086.051.031.057.034.189.114.152.091.436.283.414.286.382.285.343.274.292.256m-3.265-.126-.144.2-.03.04-.182.237-.187.232-.191.227-.068.08-.125.145h3.012l-.282-.239-.3-.24-.257-.19-.063-.047-.331-.234-.017-.011-.324-.22-.337-.221-.009-.006-.165.247m8.782.703v1.43h-3.299v-1.43h3.299M-21-39.825l-.014.367-.044.315-.08.268-.12.225-.166.187-.216.154-.267.11-.308.084-.313.05-.039.006-.399.036-.451.018-.417.004h-.09l-.034-.237-.057-.274-.075-.29-.035-.11-.057-.18-.103-.27-.104-.211-.006-.01-.003-.007.332.012.325.005h.303l.266-.002.214-.003.149-.001.097-.006.072-.02.05-.033.034-.052.017-.072.006-.095v-9.913h-4.59v11.738h-1.5V-51.35H-21v11.524m-5.373-6.295h3.078v4.599h-2.008v.757h-1.07v-5.356m-4.06 2.38 1.258.34-.12.392-.018.057-.08.266-.056.184-.133.441-.128.419-.123.387-.098.294-.016.047-.15-.047-.623-.197-.211-.067-.019-.005-.012-.004.105-.37.103-.416.034-.153.064-.287.09-.447.017-.102.057-.33.06-.403m-2.328 2.689-.008.002-.325.09-.826.228-.024-.228-.015-.146-.06-.418-.076-.444-.09-.454-.1-.448-.109-.423.012-.004 1.069-.316.12.428.114.45.104.455.09.443.073.415.043.312.008.058m8.35-3.713h-.893v1.899h.894Zm0 0" transform="matrix(4.29492 0 0 4.26451 180.387 277.193)"/>
    <path fill="#f9f9f9" d="M13.02 123.414c.011-.344 14.5-88.355 14.554-88.406.293-.27 32.395-21.969 32.524-21.98.218-.024 32.562 21.91 32.644 22.136.094.262 14.434 87.797 14.434 88.106 0 .246-3.864.27-47.078.27-25.895 0-47.078-.056-47.078-.126m51.007-33.402.043-25.051h19.442v21.45c0 16.46-.047 21.5-.203 21.652-.149.144-1.266.203-3.973.203-2.496 0-3.77.058-3.77.175 0 .094.141.454.313.797.473.93 1.031 2.715 1.367 4.36l.3 1.465 2.942-.012c5.711-.02 8.149-1.031 9.297-3.864l.403-.992.093-52.117H57.31v57.074l3.34-.043 3.335-.046Zm-24.386 21.61c3.535-.747 8.402-1.778 10.82-2.29s4.465-.996 4.55-1.078c.137-.129-.163-5.844-.316-5.996-.03-.031-.652.058-1.383.195-.73.137-1.343.23-1.363.215-.015-.02.293-1.055.692-2.297 1.226-3.824 2.523-8.219 2.449-8.297-.11-.105-5.016-1.433-5.305-1.433-.14 0-.254.144-.254.32 0 .664-.906 5.238-1.531 7.723-.36 1.421-.621 2.636-.582 2.699s.91.37 1.937.683c1.028.317 1.868.618 1.868.672s-.782.23-1.735.39a84 84 0 0 0-2.113.384l-.379.09V88.96h7.777v-6.547h-7.777V78.05h5.578v-5.774l.66.641c.364.352.727.602.805.55.078-.046.824-1.452 1.656-3.12l1.516-3.028-.5-.527c-.797-.836-4.871-3.824-7.203-5.281l-2.137-1.336.57-1.125c.317-.617.516-1.156.446-1.2-.328-.195-5.461-2.46-5.574-2.456-.07 0-.387.472-.7 1.046-.843 1.543-2.43 3.852-3.89 5.664-1.637 2.036-5.11 5.48-6.899 6.856l-1.387 1.062.356.868c.195.476.816 2.226 1.379 3.886.558 1.664 1.039 3.051 1.066 3.086.086.117.797-.422 1.961-1.484l1.14-1.043v2.715h4.731v4.363h-8.449v6.547h8.45v15.73l-4.266.696c-2.348.383-4.442.695-4.649.695-.21 0-.383.094-.386.211 0 .113.316 1.703.707 3.527.585 2.758.753 3.305.972 3.239.149-.043 3.16-.692 6.692-1.438m-2.387-8.724c1.285-.363 2.387-.703 2.445-.761.27-.266-1.91-10.465-2.324-10.88-.129-.124-4.125.95-4.59 1.235-.148.094-.062.68.328 2.285.434 1.77 1.028 5.07 1.48 8.243.044.3.13.543.196.543.066-.004 1.176-.301 2.465-.665m34.594-1.093v-1.598h8.62V80.398l-6.722.043-6.719.043-.086 22.914h4.907Zm9.129-29.04V69.66H66.605v6.211h14.372Zm0 0"/>
    <path fill="#f9f9f9" d="M39.578 71.36c.129-.169.871-1.094 1.652-2.051.782-.957 1.684-2.137 2.004-2.618l.586-.875 1.801 1.192c1.95 1.297 5.602 4.008 5.938 4.414.187.223-.496.25-6 .25-6.024 0-6.204-.008-5.98-.313M71.848 90.39v-3.945h3.547v7.887h-3.547Zm0 0"/>
</svg>
