<svg xmlns="http://www.w3.org/2000/svg" width="120" height="120" viewBox="0 0 120 136">
    <path fill="red" stroke="red" stroke-width=".004" d="m20.382 43.228-.965 5.924L19 51.709l-2.003 12.293h22.006L38.677 62 37 51.709l-.417-2.557-.965-5.924v-.03h-.007L35 42.78l-2-1.367-5-3.416-5 3.416-2 1.367-.61.417h-.008v.031M37 42l1.192 7.152L40.332 62l.335 2.002.255 1.534L41 66H15l.078-.464 2.73-16.384L19 42l1.382-.921.618-.413 5.52-3.68h.001L28 36l7 4.666.618.413L37 42m-3.096 6.951.157.164-.052.037-.578.413h1.182v1.179h-3.237l-.016.06-.001.005-.001.003-.015.063-.017.066-.017.065-.016.063-.017.06h1.127v1.234l.005.137.017.094.034.06.056.034.083.014.115.004h.718l.108-.014.084-.054.063-.112.046-.19.032-.283.011-.218.003-.056.003-.043.002-.034.001-.028.001-.019.159.096.192.093.215.086.223.076.22.063.022.005.184.042-.091.605-.093.316-.041.139-.042.072-.146.251-.249.208-.32.112-.4.033h-1.137l-.538-.032-.397-.103-.277-.185-.174-.277-.002-.007-.089-.372-.009-.17-.003-.06-.012-.217-.002-.045v-.364l-.23.437-.028.041-.245.36-.323.365-.03.025-.351.306-.444.299-.5.26-.013.006-.002.001-.036-.078-.042-.084-.048-.089-.014-.024-.04-.069-.06-.095-.069-.097v.002l-.005.007-.316.57h4.663v3.087h-7.967v.386h9.934v.847h-9.934v.418h9.293v.091l-.002.093-.004.103-.006.09v.011l-.01.084-.064.624-.073.51-.085.408-.1.317-.105.208-.016.031-.142.174-.138.106-.155.085-.167.064-.176.043-.16.023-.02.003-.179.008-.188.014-.226.007-.259.002-.283-.005-.3-.01-.242-.014-.028-.002h-.022l-.013-.001-.008-.001-.011-.1-.021-.11-.03-.117-.04-.122-.028-.078-.017-.043-.052-.116-.08.018-.643.141-.15.033-.008-.033-.04-.176-.016-.05-.053-.184-.084-.248-.098-.252-.05-.114-.056-.131-.114-.226 1.26-.226.051.098.055.105.105.216.076.164.026.057.093.218.081.208.065.19.1.008.092.006.081.003.073.002.064.001h.054l.06-.001.017-.001.067-.008.06-.014.054-.024.053-.034.054-.047.058-.083.053-.126.05-.172.044-.224.042-.278.04-.339H23.1v-5.595h3.315l.039-.097.058-.149.018-.047.035-.091.002-.006.035-.096.023-.063.01-.03-.01-.01-.142-.135-.177-.152-.049-.039-.143-.114-.197-.145-.194-.13-.181-.11.818-.494h-1.105v1.662h-1.282v-1.662h-1.48l1.116.343-.231.28-.253.284-.082.086-.186.196-.271.27-.264.25-.176.156-.03.026-.016.015-.012.01-.009.008-.006.006-.142-.117-.172-.129-.19-.133-.192-.129-.183-.116-.15-.087-.01-.007.244-.181.047-.038.196-.157.237-.206.04-.036.186-.175.209-.21.19-.209h-.586v-2.047h5.668v2.047h-.784l.191.115.193.126.19.132.175.134.158.13.131.124-.358.232-.272.176 1.371.118-.085-.111-.087-.106-.068-.077-.02-.023-.088-.092-.087-.085-.021-.019-.064-.056.516-.268.217-.156.208-.149.345-.344.274-.389.213-.436.01-.03.15-.457h-1.657v-1.179h1.857l.019-.23.013-.183.003-.054.012-.246.01-.253.01-.26.01-.264h1.437l-.007.26-.01.257-.01.252-.002.043-.01.204-.005.061-.013.179-.021.234h1.205l-.14-.143-.152-.147-.018-.017-.116-.106-.026-.024-.162-.14-.16-.132-.154-.116.983-.633.033-.021.235.155.237.17.228.181.214.182.189.177m-5.81-.083v.943H21.11v-.943h2.663l-.038-.09-.039-.091-.04-.09-.04-.087-.042-.085-.044-.082 1.046-.235.479-.108.074.134.076.141.075.147.07.15.063.149.051.147h2.63m-.972 11.276.007-.001 1.341-.224.112.236.09.22.017.041.089.25.08.255.068.244.052.223-.267.052-.039.007-1.106.217-.014.002-.034-.22v-.006l-.055-.24-.072-.262-.084-.27-.091-.268-.094-.256m-2.442-.021.01-.001 1.47-.192.068.253.06.269.05.275.037.27.027.257.01.186.002.044-1.534.224-.013.001-.001-.228-.002-.04-.013-.219-.028-.278-.038-.284-.05-.277-.055-.26M21 61.195l.302-.224.304-.257.295-.276.276-.285.248-.28.21-.265.464.234.918.463-.23.273-.249.288-.263.29-.275.282-.284.263-.291.233-1.157-.6-.094-.049-.063-.032-.052-.027-.036-.02-.023-.011m5.006-10.237h-2.818v.547h2.818v-.547m5.06 3.998h-6.188v.418h6.188v-.418m0 1.501v-.407h-6.188v.407Zm0 0" transform="matrix(4.29492 0 0 4.26451 -60.129 -149.258)"/>
    <path fill="#f9f9f9" d="M13.02 123.414c.011-.344 14.5-88.355 14.554-88.406.293-.27 32.395-21.969 32.524-21.98.218-.024 32.562 21.91 32.644 22.136.094.262 14.434 87.797 14.434 88.106 0 .246-3.864.27-47.078.27-25.895 0-47.078-.056-47.078-.126m68.328-8.457c2.636-.555 3.808-1.941 4.52-5.363.343-1.645.855-5.852.855-7.028v-.68H46.828v-1.679h42.598v-3.691H46.828v-1.512h34.149V81.578l-8.582-.008-8.579-.004L65 80.941c3.273-1.738 5.715-4.07 7.277-6.953l.575-1.054.007 1.593c.008 2.578.594 4.141 1.864 4.973 1.183.777 2.086.898 6.797.898 3.933.004 4.43-.027 5.246-.332 1.421-.527 2.382-1.734 2.879-3.609.293-1.125.695-3.441.601-3.5-.031-.023-.668-.21-1.41-.422a19 19 0 0 1-2.566-.957c-.665-.316-1.254-.578-1.31-.578-.054 0-.097.324-.097.715-.004 1.09-.328 2.851-.605 3.273-.238.36-.352.38-2.52.38-2.074 0-2.289-.032-2.449-.325-.102-.191-.176-1.59-.176-3.36v-3.03h-4.758l.118-.548c.066-.3.152-.601.191-.671.043-.067 3.191-.125 6.996-.125h6.922v-5.196l-2.41-.047-2.406-.043 1.218-.84c.672-.46 1.223-.93 1.227-1.042.008-.356-4.453-3.996-5.344-4.356-.101-.043-1.191.57-2.418 1.363l-2.23 1.438.87.687c.481.375 1.38 1.164 2 1.75l1.126 1.07-2.512.009c-2.223.003-2.5-.028-2.41-.262.059-.145.152-1.582.215-3.188l.11-2.925h-6.263l-.105.882c-.059.485-.105 1.41-.11 2.055 0 .648-.05 1.684-.109 2.309l-.11 1.132h-7.894v5.204h3.465c1.906 0 3.465.027 3.465.058s-.144.465-.32.965c-1.305 3.68-3.352 5.984-6.907 7.77-.488.246-.886.5-.886.562 0 .066.433.555.96 1.086.532.531.915 1.016.852 1.074-.058.063-1.226.016-2.59-.101-2.789-.243-2.75-.188-.875-1.293.442-.258.801-.52.805-.582.004-.184-1.68-1.547-2.945-2.383l-1.172-.778h3.105v-8.894H33.473v8.894l1.14.008 1.14.004-1.87 1.801c-1.031.988-2.301 2.098-2.824 2.469-.524.367-.957.71-.961.758-.004.046.406.332.914.632a35 35 0 0 1 2.293 1.559l1.37 1.008.962-.832c1.199-1.04 3.547-3.434 4.84-4.93.68-.785.906-1.156.75-1.219a158 158 0 0 0-2.09-.664l-1.86-.574 2.746-.012 2.747-.007v7.05h5.578v-7.05H50.5c2.414 0 2.395-.083.258 1.167-.676.395-1.223.766-1.219.825 0 .058.594.5 1.313.976.722.48 1.753 1.274 2.293 1.766l.98.887-.41 1.093-.414 1.09-7.125.043-7.125.047v24.164l16.27.016 16.273.015-2.7.493c-1.48.273-2.714.52-2.742.543-.027.027.243.71.602 1.515.36.805.871 2.184 1.137 3.063l.484 1.597.512-.101c.277-.055 1.129-.239 1.886-.407l1.38-.312.35 1.074c.196.59.356 1.262.356 1.488v.418h3.797c2.164 0 4.18-.082 4.692-.191m-43.559-1.293c1.258-1.094 5.129-5.273 5.277-5.7.024-.07-1.324-.8-2.992-1.624l-3.035-1.5-.387.496c-1.316 1.676-4.316 4.578-5.933 5.746-.446.32-.77.621-.719.672.11.113 6.055 3.203 6.184 3.215.05.008.773-.582 1.605-1.305m12.418-.172 3.129-.465-.047-1.164c-.09-2.285-.809-5.613-1.21-5.605-.638.012-6.102.781-6.192.87-.059.056.015.692.164 1.415.219 1.086.605 4.422.605 5.219 0 .265-.14.277 3.551-.27m11.055-.27c1.66-.32 3.054-.613 3.097-.656.13-.129-.77-3.199-1.32-4.496-.285-.68-.559-1.363-.61-1.527a.46.46 0 0 0-.421-.293c-.363 0-5.598.852-5.68.922-.027.027.25.941.613 2.039.579 1.738.786 2.5 1.141 4.215.043.207.094.379.117.379.02 0 1.399-.262 3.063-.582m-.575-52.038v-2.098H49.356l-.175-.465c-.383-1.023-1.575-3.23-1.746-3.23-.243-.004-6.418 1.37-6.508 1.445-.035.035.136.504.383 1.05.246.544.445 1.036.445 1.094 0 .055-2.547.106-5.66.106H30.43v4.195h30.258Zm0 0"/>
    <path fill="#f9f9f9" d="M39.559 69.238v-1.09H51.39v2.184H39.559Zm7.269 16.785v-.753H73.2v1.511H46.83Zm0 4.617v-.84H73.2v1.68H46.83ZM74.2 111.09c-.15-.121-.41-.602-.579-1.063s-.672-1.613-1.113-2.558l-.809-1.723h6.942l-.121 1.05c-.204 1.774-.723 3.528-1.184 3.985-.356.352-.61.422-1.645.473-.843.039-1.308-.012-1.492-.164M61.195 81.496c0-.047.25-.531.559-1.082.469-.844.586-.953.73-.715.098.156.387.64.645 1.078l.465.801h-1.2c-.66 0-1.199-.039-1.199-.082m0 0"/>
</svg>
