<svg xmlns="http://www.w3.org/2000/svg" width="120" height="120" viewBox="0 0 120 136">
    <path fill="red" stroke="red" stroke-width=".004" d="m48.382-22.772-1.041 6.388L47-14.29 44.997-1.998h22.006L66.677-4 65-14.291l-.341-2.093-1.041-6.388v-.03h-.007L63-23.22l-2-1.367-5-3.416-5 3.416-2 1.367-.61.417h-.008v.031M43 0l2.73-16.384L47-24l1.382-.921.618-.413 5.52-3.68h.001L56-30l7 4.666.618.413L65-24l1.27 7.616L68.332-4l.334 2.002L69 0H43m19.829-16.895v1.359h-3.064l.069.106.065.104.062.102.056.102.05.101.041.101h2.174v.67h-2.303v.37h1.95v.554h-1.95v.34h1.95v.584h-1.95v.308H62.4v.658h-5.816v.096l.76.109.568.082-.15.148-.075.071-.075.069-.075.066-.075.061h4.092v2.559h-7.241v.404H63v.712h-8.687v.35h8.205l-.001.023-.002.061-.004.086-.004.101-.005.103-.005.094-.012.097-.046.377-.067.395-.078.324-.091.26-.107.202-.124.15-.124.106-.135.085-.144.064-.13.04-.023.008-.159.031-.058.006-.106.011-.16.004-.2.002-.234-.002-.258-.006-.206-.01-.069-.002-.236-.015h-.018l-.014-.002h-.019l-.01-.096-.017-.104-.025-.11-.03-.112-.024-.07-.013-.044-.001-.003-.04-.11-.127.052-.643.263-.021.01-.013.004-.085-.178-.113-.2-.134-.211-.066-.095-.082-.116-.155-.2-.157-.18.921-.35h-6.063l.467.2.304.13-.087.175-.057.116-.16.285-.005.01-.189.288-.213.277-.092.098-.149.158-.156.133L52.33-4l-.19-.096-.716-.36-.225-.114-.154-.078.154-.122.106-.083.242-.236.221-.26.196-.274.167-.279.118-.242.017-.034.081.034.401.168v-4.758h3.096l.051-.071.008-.011.061-.082.062-.083.061-.082.061-.077.007-.009.053-.063h-.964v-1.647l-.074.065-.071.065-.069.065-.07.065-.07.062-.042.034-.01.008-.007.006-.007.006-.006.004-.003.003-.084-.098-.1-.11-.113-.118-.122-.122-.127-.123-.128-.12v2.018h-1.264v-1.625l-.06.052-.058.048-.059.046-.059.045-.059.043-.01.006-.025.019-.013.01-.011.007-.067-.145-.089-.182-.106-.203-.117-.21-.046-.074-.076-.125-.12-.176v1.137l-.003.188-.017 1.114-.077 1.429-.158 1.488-.012.065-.25 1.415-.057.206-.12.427-.01.03-.206.739-.465 1.07-.039.088-.019.045-.01.024-.009.02-.005.011-.195-.139-.24-.153-.264-.155-.27-.146-.255-.124-.054-.022-.016-.006L49-4.924l.152-.343.357-.807.02-.07.335-1.196.148-.852.082-.476.13-1.336.059-1.288.01-.996.003-.188v-4.419h5.56l-.055-.117-.056-.116-.057-.115-.058-.113-.06-.111-.057-.108L57.11-18l.11.171.11.181.015.027.09.161.101.19.095.19.089.185h5.11m-4.259 1.906-.033-.06-.006-.01-.04-.07-.04-.068-.04-.065-.038-.06.664-.214h-2.87l.898.265.001.001-.033.055-.035.057-.035.059-.074.12-.037.06h1.756l-.038-.07m1.12 9.855.008.014.088.152.001.001.08.001.075.002.062.001h.131l.048-.004.065-.002.058-.006.052-.013.048-.02.01-.006.034-.021.043-.038.035-.047.017-.023.048-.095.045-.126.041-.16.038-.2.034-.241h-1.736l.146.158.145.164.086.105.053.064.13.171.115.169m-1.928.56-.418.14-.752.25-.026.01-.014.004-.058-.201-.082-.224-.048-.11-.056-.128-.12-.239-.027-.048-.104-.185-.137-.214.015-.005 1.152-.335.136.202.121.198.013.02.128.227.047.092.067.133.094.216.069.197M54.85-15.045l-.125.197-.134.2-.142.198-.086.114-.063.083-.157.194v.478l.33-.28.312-.305.154-.17.139-.155.22-.275.05-.065.247-.35.219-.355h-1.725l.878.298-.117.193m.565 9.902.008.023.074.213.063.222.039.196-.302.085-.886.25-.035.01-.03.008-.018.006-.014.003-.042-.219-.06-.238-.076-.247-.087-.25-.095-.242-.101-.228.01-.003 1.222-.284.12.22.092.193.02.04.098.242m-2.54-9.454.292-.305.082-.097.182-.218.23-.32h-1.757v1.743l.332-.243.326-.27.031-.03.282-.26m4.47 2.195h-.76v.308h1.949v-.308h-1.189m0-.584h1.189v-.34h-1.95v.34h.761m0-.893h1.189v-.371h-1.95v.37h.761m2.614 3.772h-5.645v.36h5.645v-.36m0 1.307v-.372h-5.645v.372Zm0 0" transform="matrix(4.29492 0 0 4.26451 -180.387 132.2)"/>
    <path fill="#f9f9f9" d="M13.02 123.414c.011-.344 14.5-88.355 14.554-88.406.293-.27 32.395-21.969 32.524-21.98.218-.024 32.562 21.91 32.644 22.136.094.262 14.434 87.797 14.434 88.106 0 .246-3.864.27-47.078.27-25.895 0-47.078-.056-47.078-.126m32.355-8.977c.457-.39 1.273-1.3 1.816-2.023 1.098-1.473 2.582-4.066 2.446-4.285-.047-.074-.64-.36-1.317-.633l-1.234-.488 6.027-.047c3.317-.023 8.793-.023 12.168 0l6.14.047-1.519.566c-.836.313-1.55.594-1.586.625-.035.028.239.414.606.856.84 1.007 1.918 2.597 2.398 3.53.2.395.446.716.543.716s.895-.297 1.766-.656l1.582-.657.262.89c.144.493.261 1.009.261 1.15 0 .784 0 .784 3.73.784 2.786 0 3.696-.058 4.321-.269 1.723-.578 2.64-1.52 3.278-3.344.414-1.183.93-4.094 1.093-6.164l.117-1.469H52.914v-1.343h37.36V99.03h-37.36v-1.676H84.02V86.277H66.87l1.64-1.656-.57-.098c-.316-.054-1.597-.25-2.843-.433-1.25-.184-2.309-.371-2.352-.418-.047-.043 5.559-.082 12.453-.082h12.54v-3.02H77.253v-1.175h8.453v-2.688h-8.453v-1.172h8.453v-2.687h-8.453v-1.344h9.976v-3.02h-9.382l-.594-1.125a32 32 0 0 1-.645-1.257c-.03-.075 2.88-.137 6.465-.137h6.524V60.09H67.625l-.527-1.047c-.817-1.613-2.059-3.652-2.235-3.652-.207 0-6.773 1.714-6.867 1.793-.043.035.25.683.649 1.441l.722 1.383-23.867.086-.004 12.125c-.004 6.672-.074 13.469-.164 15.11-.484 9.089-1.89 16.097-4.309 21.456l-1.074 2.39 1.719.86a42 42 0 0 1 3.11 1.746c.765.489 1.456.848 1.535.797.082-.05.656-1.246 1.273-2.656 3.297-7.535 5.004-18.73 5.02-32.867l.003-4.614.567.887c.312.484.894 1.524 1.293 2.3l.722 1.419 1.383-1.008.043 3.363.047 3.364h5.57v-8.47l2.86 2.821.808-.742.813-.742.094 6.797h4.046l-.718.922-.715.921-6.637.004h-6.633l-.043 10.141-.043 10.137-.992-.414c-.543-.227-1.004-.391-1.027-.364-.02.032-.32.578-.672 1.22-.863 1.581-1.863 2.835-3.395 4.257l-1.289 1.195 2.672 1.34c1.473.738 2.79 1.344 2.926 1.348.14.004.629-.309 1.086-.7m9.281-.222c.852-.238 2.07-.582 2.7-.766l1.148-.336-.113-.617c-.29-1.57-1.91-5.242-2.309-5.23-.363.007-5.039 1.12-5.14 1.222-.051.051.175.778.503 1.617.332.84.774 2.204.989 3.032s.453 1.508.527 1.508c.078 0 .84-.196 1.695-.43m10.563-.594c2.953-.98 2.781-.707 1.785-2.84-.8-1.715-2.086-3.73-2.32-3.64-.106.039-.649.199-1.207.355-.555.156-1.641.473-2.407.7l-1.394.417.52.875c.718 1.207 1.59 3.051 1.933 4.106.16.484.336.883.398.883.059 0 1.27-.387 2.692-.856m0 0"/>
    <path fill="#f9f9f9" d="M42.602 69.574v-3.61h3.644c2.867 0 3.617.048 3.524.212-.801 1.39-4.391 5.02-6.368 6.433l-.8.575Zm9.636 3.633c0-.758.086-.96.871-1.988 1.203-1.567 2.72-3.922 2.606-4.035-.05-.051-.797-.344-1.66-.645l-1.567-.555 3.352-.007c2.633-.008 3.32.035 3.222.199-1.453 2.453-4.07 5.582-6.023 7.21l-.8.669ZM64.07 68.41c0-.043.16-.347.36-.68.195-.332.316-.644.27-.69-.052-.052-.802-.31-1.673-.571l-1.578-.48h5.578l5.578.003-1.043.363c-.574.204-1.097.418-1.16.485-.066.066.082.46.332.883l.45.761h-3.555c-1.957 0-3.559-.035-3.559-.074m-1.351 3.766v-.672H71v1.344h-8.281Zm0 3.945v-.586H71v1.172h-8.281Zm0 3.859v-.585H71v1.175h-8.281Zm-9.805 9.82v-.671h24.172v1.344H52.914Zm0 4.028v-.668h24.172v1.34H52.914Zm22.957 16.168a19 19 0 0 0-1.48-1.926c-.47-.523-.856-.996-.856-1.05 0-.051 1.55-.098 3.442-.098h3.441l-.137.86c-.203 1.261-.625 2.417-1.02 2.769-.253.226-.671.324-1.554.367l-1.21.055Zm0 0"/>
</svg>
