<svg xmlns="http://www.w3.org/2000/svg" width="120" height="120" viewBox="0 0 120 136">
    <path stroke="red" stroke-width=".004" d="m-7.618-22.772-1.041 6.388L-9-14.29l-2.003 12.293h22.006L10.677-4 9-14.291l-.341-2.093-1.041-6.388v-.03h-.007L7-23.22l-2-1.367-5-3.416-5 3.416-2 1.367-.61.417h-.008v.031M-13 0l2.73-16.384L-9-24l1.382-.921.618-.413 5.52-3.68h.001L0-30l7 4.666.618.413L9-24l1.27 7.616L12.332-4l.334 2.002L13 0h-26m9.38-18 .077.024 1.634.507-.216.542-.228.543v.002l-.243.543-.254.54-.265.538-.275.53v10.23h-1.723v-7.567l-.153.191-.153.185-.152.178-.15.174-.147.168-.02.023-.053.06-.033.038-.016.018-.015.016-.008.01-.108-.257-.15-.318-.178-.348-.19-.35-.189-.324-.119-.184-.005-.008L-7-12.37l.663-.737.642-.845.607-.932.557-1 .236-.5.258-.545.416-1.071m6.814.152v2.815H7v7.06H5.2v-.791H3.194V-4H1.382v-4.764H-.592v.9h-1.7v-7.17h3.674v-2.814h1.811M0-13.366h-.592v2.956h1.974v-2.956H0m3.193 1.078v1.878h2.008v-2.956H3.193Zm0 0" transform="matrix(4.29492 0 0 4.26451 60.129 132.2)"/>
    <path fill="#f9f9f9" d="M13.094 122.91c.058-.347 3.324-20.25 7.261-44.234 3.934-23.985 7.184-43.633 7.22-43.668.292-.27 32.394-21.969 32.523-21.98.218-.024 32.562 21.91 32.644 22.136.094.262 14.434 87.797 14.434 88.106 0 .246-3.864.27-47.094.27H12.988Zm32.55-29.504V71.668l1.247-2.473c1.953-3.879 5.3-11.398 5.136-11.547-.078-.066-7.25-2.257-7.398-2.257-.078 0-.5.925-.941 2.058-2.938 7.547-7.364 14.875-12.278 20.332-1.394 1.547-1.48 1.684-1.262 2.016C31.27 81.5 33.531 85.684 34.2 87.3c.114.27.27.11 2.442-2.434l1.394-1.637v31.918h7.61Zm28.231 11.586V94.836h8.453v3.527h7.945V67.98H73.875V56.062H65.93V67.98H50.207V98.7h7.438v-3.864h8.285v20.312h7.945Zm0 0"/>
    <path fill="#f9f9f9" d="M57.645 81.578v-6.21h8.285v12.417h-8.285Zm16.23 0v-6.21h8.453v12.417h-8.453Zm0 0"/>
</svg>
