<svg xmlns="http://www.w3.org/2000/svg" width="120" height="120" viewBox="0 0 120 136">
    <path stroke="red" stroke-width=".004" d="m-91.618 9.228-1.166 7.156L-93 17.71l-2.003 12.293h22.006L-73.323 28-75 17.709l-.216-1.325-1.166-7.156v-.03h-.007L-77 8.78l-2-1.367-5-3.416-5 3.416-2 1.367-.61.417h-.008v.031M-97 32l2.603-15.616L-93 8l1.382-.921.618-.413 5.52-3.68h.001L-84 2l7 4.666.618.413L-75 8l1.397 8.384L-71.667 28l.334 2.002L-71 32h-26m19.04-17.925v1.928h.843v1.478h-.842v5.42H-77v1.51h-6.68v-1.51h.895v-5.42h-.853v-1.478h.853v-1.928h1.449v1.928h1.885v-1.928h1.492m-6.01 1.928v.836h-1.79v.92h1.716v3.868h-4.954l-.019 1.022-.056 1.08-.082.847-.024.245-.17 1.062-.185.74-.063.25-.333.856-.006.014-.132-.124-.045-.036-.13-.103-.197-.14-.204-.134-.105-.06-.088-.052-.064-.03-.1-.049.299-.83.207-.913.095-.696.036-.27.072-.987.03-.975.007-.932v-6.009h2.472l-.055-.179-.056-.181-.058-.182-.062-.179-.064-.174-.068-.165 1.6-.343.108.222.103.235.097.24.089.242.082.238.05.153.024.073h2.024v.6m5.178 8.44.324.437.333.468.309.458.016.024.301.473.26.444.204.396-.781.445-.438.249-.053.03-.042.024-.036.02-.024.014-.183-.406-.241-.457-.285-.487-.312-.497-.327-.49-.107-.15-.218-.309.218-.114.832-.44.25-.131m-2.866 2.206-.264.349-.117.154-.394.454-.29.286-.048.048-.024.024-.035.035-.157-.16-.196-.183-.218-.191-.227-.187-.22-.169-.122-.086-.075-.052.075-.063.3-.254.03-.031.327-.335.336-.405.306-.433.268-.451.205-.424.018-.036.12.036.138.041 1.212.362-.272.572-.32.56-.356.539m-2.578-3.567v1.275h-1.002v1.382l1.045-.311.046-.014.028-.008.015-.005.011-.003.006-.002.003.2.01.214.016.22.02.213.027.196.007.041.016.084.005.034.002.008-.813.266-.607.205-.438.159-.18.074-.121.05-.2.104-.081.058-.02.014-.01.007-.018.014-.005.003-.025-.103-.034-.115-.042-.124-.05-.129-.054-.134-.06-.134-.6.188-.454.153-.273.101-.063.024-.239.103-.165.088-.014.01-.029.02-.025.02-.02.013-.016.012-.01.007-.01-.086-.046-.171-.067-.193-.08-.201-.09-.196-.047-.09-.04-.077-.004-.01-.049-.083-.026-.044-.01-.017.102-.067.098-.089.09-.118.07-.155.05-.2.016-.25v-3.652h1.15v1.21h.896v1.286h-.895v1.457l.762-.184.033-.008.004-.001-.004.1v.111l.002.114.006.118.007.117.01.115.078-.077.073-.094.064-.112.05-.132.032-.155.012-.18v-3.631h1.172v1.167h1.002m-4.156-5.323v-.92h-.607v.92h.607m7.054 1.95v.878h1.885v-.879h-1.885m1.885 2.27h-1.885v.922h1.885v-.921m-5.7-2.924h-.607v1.285h.607v-1.285m-1.598-2.217h-.639v.92h.639v-.92m-1.641 2.217h-.607v1.285h.607v-1.285m1.002 1.285h.639v-1.285h-.639v1.285m7.937-2.86h-1.885v.868h1.885Zm0 0" transform="matrix(4.29492 0 0 4.26451 420.902 -4.265)"/>
    <path fill="#f9f9f9" d="M13.02 123.414c.011-.344 14.5-88.355 14.554-88.406.293-.27 32.395-21.969 32.524-21.98.218-.024 32.562 21.91 32.644 22.136.094.262 14.434 87.797 14.434 88.106 0 .246-3.864.27-47.078.27-25.895 0-47.078-.056-47.078-.126m53.761-9.734c1.653-1.75 2.926-3.38 4.489-5.75 1.343-2.035 3.18-5.547 2.988-5.715-.156-.14-5.856-1.84-6.172-1.84-.125 0-.477.512-.781 1.133-1.172 2.375-3.04 4.902-5.305 7.168-1.71 1.71-2.113 2.203-1.91 2.312.512.285 2.789 2.145 3.84 3.137.586.555 1.156 1.012 1.265 1.016.11.004.82-.657 1.586-1.461m20.828-.715c1.371-.778 2.493-1.453 2.493-1.508 0-.05-.454-.91-1.012-1.906-1.13-2.012-3.188-5.149-5.149-7.832l-1.285-1.762 3.809-.047 3.808-.043v-6.543h-4.058V70.332h3.55v-6.379h-3.55v-8.226H79.62v8.226h-7.945v-8.226h-6.422v8.226h-3.719v6.379h3.719v22.996h-3.89v6.543l10.48.043 10.476.043-2.707 1.41c-1.492.778-2.687 1.492-2.66 1.594s.934 1.508 2.02 3.121c2.02 3.012 3.804 6.047 4.629 7.871l.464 1.031.524-.304c.289-.168 1.648-.942 3.02-1.715m-52.14-.727c1.875-4.875 2.941-11.668 3.187-20.297l.11-3.82h21.246V71.336h-7.27v-3.691h7.61v-6.38h-8.707l-.477-1.382c-.695-2.02-1.813-4.492-2.027-4.492-.203 0-6.762 1.375-6.844 1.433-.027.02.293 1.028.71 2.239l.763 2.203H33.133v15.879c0 9.195-.074 17.09-.176 18.757-.34 5.453-1.156 10.024-2.398 13.399l-.598 1.62 1.394.849c.766.464 1.801 1.183 2.305 1.597.5.414.95.758.996.762s.41-.848.813-1.89m5.949.446c1.309-.637 6.586-2.442 6.848-2.344.097.039.398.7.664 1.472.27.774.496 1.422.511 1.442.012.02.63-.254 1.368-.613.738-.36 3.191-1.274 5.453-2.036q4.102-1.381 4.027-1.585c-.066-.172-.352-2.84-.488-4.555l-.043-.531-2.406.714-2.41.715v-5.66h4.226v-5.539h-4.227V89.13H49.7l-.008 8.183c-.007 8.586-.023 8.805-.773 9.903l-.316.46-.051-1.382c-.024-.762-.074-1.387-.11-1.387-.035 0-.832.184-1.77.403l-1.702.398v-6.004h3.886v-5.707H44.97v-5.035h-5.06l-.05 8.605c-.055 9.551 0 9.106-1.212 10.2l-.562.507.73 1.465c.399.805.856 1.938 1.016 2.52.156.578.332 1.031.387 1.008.054-.028.593-.29 1.199-.582m0 0"/>
    <path fill="#f9f9f9" d="M38.71 69.492v-1.847h2.54v3.69h-2.54Zm6.935 0v-1.847h2.535v3.69h-2.535ZM38.71 79.73v-2.687h2.54v5.371h-2.54Zm6.935 0v-2.687h2.535v5.371h-2.535Zm7.097 0v-2.687h2.367v5.371h-2.367Zm18.934-7.636v-1.762h7.945v3.523h-7.945Zm0 9.566v-1.762h7.945v3.524h-7.945Zm0 9.82v-1.847h7.945v3.695h-7.945Zm0 0"/>
</svg>
