<svg xmlns="http://www.w3.org/2000/svg" width="120" height="120" viewBox="0 0 120 136">
    <path stroke="red" stroke-width=".004" d="m76.382-56.772-1.241 7.62-.141.86-2.003 12.294h22.006L94.677-38 93-48.291l-.14-.861-1.242-7.62v-.03h-.007L91-57.22l-2-1.367-5-3.416-5 3.416-2 1.367-.61.417h-.008v.031M71-34l2.525-15.152L75-58l1.382-.921.618-.413 5.52-3.68h.001L84-64l7 4.666.618.413L93-58l1.475 8.848L96.333-38l.334 2.002L97-34H71m20-15.341-.001.047-.002.122v.02l-.003.13v.018l-.002.186-.002.176-.001.137-.085 2.937-.098 2.303-.122 1.746-.07.56-.085.7-.2.853-.217.44-.026.054-.012.023-.211.251-.218.193-.228.145-.244.108-.265.08-.289.059-.306.03-.25.012-.107.005-.395.006-.422-.002-.434-.008-.293-.007-.073-.002h-.044l-.024-.001-.032-.263-.06-.289-.089-.302-.014-.038-.06-.16-.038-.1-.136-.282-.155-.25.33.024.13.009.434.022.4.013.354.006.3.003h.234l.134-.005.06-.01.057-.009.105-.033.095-.05.09-.066.088-.087.194-.372.156-.695v-.006l.125-1.048.018-.265.082-1.181.07-1.602.012-.274.07-2.339h-3.737l-.18.378-.096.187-.09.178-.192.35-.063.106-.025.04-.108.185-.2.313-.197.283-.006.01-.19-.147-.173-.122-.067-.047-.273-.18-.282-.177-.27-.161-.233-.133.358-.498.144-.2.454-.804.005-.01.095-.206.042-.093.027-.06.248-.54.05-.135.312-.83.307-1.002.177-.722.073-.294.396.08.485.097.839.17-.098.387-.106.389-.113.388-.118.387-.123.383-.125.378H91m-8.4.174.017.015 1.052.962-.272.268-.29.263-.303.256-.32.248-.07.05-.261.191-.061.04-.172.116-.114.076.036.061.022.04.056.097.675 1.17.084.258.406 1.262.22 1.538-.023 1.296-.003.128-.24 1.178-.428.798-.229.253-.248.198-.214.119-.054.03-.292.103-.317.062-.344.027h-.164l-.182-.001-.194-.001-.201-.004-.204-.006-.096-.004h-.015l-.053-.004h-.037l-.023-.243-.038-.262-.053-.271-.071-.27-.09-.26-.107-.228-.004-.01.215.021.212.016.064.004.14.01.19.008.175.006.151.001.16-.005.143-.022.128-.044.118-.075.112-.111.11-.155.109-.17.095-.237.077-.294.049-.285.01-.062.04-.39.015-.383.002-.046-.59.494-.507.387-.116.089-.611.428-.035.024-.654.42-.648.378-.631.331-.08-.145-.037-.067-.137-.226-.153-.23-.162-.225-.168-.208-.124-.134L77-40.57l.8-.346.024-.013.059-.03.47-.244.073-.038.199-.103.818-.492.778-.536.707-.56.079-.075.524-.494-.02-.113-.023-.114-.026-.114-.028-.114-.039-.153-.013-.048-.006-.027-.532.396-.57.39-.402.256-.192.122-.6.353-.59.32-.55.272-.014.007-.1-.202-.002-.003-.125-.215-.148-.224-.158-.22-.16-.205-.13-.15-.026-.029.646-.246.1-.045.584-.26.038-.018.059-.03.593-.3.667-.382.108-.07.504-.329.077-.06.45-.344-.052-.095-.049-.081-.005-.01-.057-.09-.059-.087-.06-.09-.053-.08-.007-.01-.424.224-.265.132-.165.082-.425.2-.011.005-.034.015-.042.02-.364.162-.113.048-.328.14-.43.172-.012.005-.109-.187-.015-.023-.07-.107-.05-.075-.153-.212-.164-.205-.168-.186-.148-.14-.01-.008-.003-.005-.003-.002.252-.099.25-.101.248-.104.019-.008.229-.1.249-.112.252-.117-.134-.264-.155-.286-.014-.024-.157-.274-.18-.298-.09-.142-.093-.147-.18-.269.273-.13.335-.16.627-.296.186.253.191.273.19.285.18.287.166.279.145.262.028-.016.117-.067.147-.086.148-.089.146-.09.145-.092.14-.092-.11-.22-.11-.195-.018-.033-.141-.234-.147-.234-.147-.226-.143-.214.163-.083 1.05-.536.134.181.134.192.11.163.024.035.13.199.124.195.115.185.037-.028.098-.076.13-.105.123-.105.116-.106.11-.105.088-.09.015-.014m-.205-1.318-.475.218-.342.156-.885.34-.925.3-.94.26-.25.059-.013.003-.017.004-.644.151-.08-.147-.006-.011-.023-.043-.134-.225-.153-.234-.162-.23-.164-.212-.16-.178.802-.174.117-.025.93-.243.91-.28.863-.309.784-.33.492-.25.184-.093 1.014 1.085-.723.408m4.024 5.38.051.049.502.477.51.532.44.517.344.484-1.275 1.093-.054.048-.038.032-.32-.491-.416-.533-.147-.168-.339-.386-.533-.554-.556-.53-.555-.486.043-.035.487-.405.02-.016.707-.586.559.457.167.147Zm0 0" transform="matrix(4.29492 0 0 4.26451 -300.644 277.193)"/>
    <path fill="#f9f9f9" d="M13.02 123.414c.011-.344 14.5-88.355 14.554-88.406.293-.27 32.395-21.969 32.524-21.98.218-.024 32.562 21.91 32.644 22.136.094.262 14.434 87.797 14.434 88.106 0 .246-3.864.27-47.078.27-25.895 0-47.078-.056-47.078-.126m68.39-8.71c2.488-.708 4.336-2.157 5.375-4.22 1.41-2.793 2.25-9.093 2.813-21.101.215-4.574.672-18.89.672-21.11l.003-1.636H79.941c-9.32 0-10.32-.024-10.226-.262.305-.79 1.722-5.484 2.215-7.34.41-1.535.515-2.168.37-2.215-.66-.215-7.25-1.449-7.327-1.375-.047.047-.352 1.133-.676 2.41-1.942 7.688-4.844 14.458-8.188 19.098-.55.766-1 1.43-1 1.477s.551.41 1.227.804 2.129 1.325 3.238 2.063l2.008 1.348.395-.489c.609-.761 2.812-4.504 3.77-6.414l.862-1.719h15.918l-.097 2.309a553 553 0 0 0-.192 5.246c-.265 8.352-.707 15.602-1.175 19.219-.567 4.36-1.266 6.215-2.61 6.914-.695.363-.93.387-3.719.379-1.632-.004-3.96-.07-5.168-.153-1.21-.082-2.21-.136-2.226-.12-.016.015.344.785.8 1.706a18 18 0 0 1 1.598 5.008l.098.64 5.191-.066c4.57-.058 5.328-.105 6.383-.402m-31.879-.06c2.446-.609 4.219-2.109 5.64-4.777.833-1.562.981-2 1.442-4.316.469-2.324.52-2.899.535-5.93.024-4.758-.472-8.016-1.886-12.422-.942-2.926-1.164-3.43-2.703-6.09-.922-1.593-1.676-2.921-1.676-2.953 0-.031.437-.344.972-.695 2.254-1.48 7.067-5.48 6.942-5.77-.055-.117-3.899-3.632-4.402-4.023-.258-.2-.415-.113-1.352.73-.582.528-1.262 1.102-1.512 1.278l-.453.324-1.43-2.148c-.785-1.18-1.562-2.254-1.722-2.387-.258-.215-.551-.11-2.68.965-3.191 1.613-2.95 1.379-2.351 2.246.859 1.25 2.917 4.71 2.917 4.91 0 .105-.628.559-1.394 1.012-.766.457-1.55.925-1.738 1.047-.325.203-.407.113-1.301-1.415-1.18-2.02-3.293-5.066-3.586-5.18-.16-.058-5.035 2.063-5.473 2.38-.027.02.442.78 1.04 1.691.6.914 1.57 2.516 2.156 3.567 1 1.8 1.043 1.925.75 2.136-.344.25-5.422 2.418-5.664 2.418-.473 0-.243.473.746 1.535.609.653 1.468 1.75 1.906 2.438.676 1.058.851 1.234 1.168 1.156.766-.191 5.324-2.187 8.066-3.535l2.844-1.395.676 1.032.672 1.035-.559.469c-.894.753-4.309 3-6.008 3.957-2.07 1.168-5.98 3.007-8.078 3.8-.93.352-1.722.664-1.765.7-.04.03.16.3.445.601.754.79 2.008 2.543 2.695 3.762.328.582.63 1.062.672 1.062.191 0 3.66-1.808 5.672-2.953 2.18-1.242 5.883-3.633 8.023-5.187l1.04-.75.273 1.082c.148.594.273 1.203.273 1.351 0 .532-3.695 3.711-6.914 5.946-3.328 2.316-7.957 4.875-11.386 6.297l-1.141.472.726.86c1.098 1.293 2.286 3.03 3.258 4.761.035.059 3.235-1.652 4.805-2.566 2.934-1.707 7.879-5.176 10.086-7.074.57-.493 1.086-.899 1.14-.899.192 0 .102 2.145-.152 3.582-.332 1.895-.664 2.824-1.394 3.918-1.094 1.633-1.98 1.88-5.786 1.59-1.25-.098-2.3-.148-2.332-.117-.035.031.125.5.352 1.039.496 1.191.934 2.953 1.094 4.418.11.96.168 1.098.543 1.21.61.184 6.367.028 7.27-.194m26.246-18.597 2.836-2.418-.629-.863c-1.078-1.489-1.218-1.657-3.027-3.66-2.793-3.086-8.93-8.516-9.406-8.317-.219.09-5.367 4.29-5.367 4.379 0 .027 1.136 1.086 2.53 2.348 3.567 3.234 7.079 7.14 9.11 10.136.461.676.79 1.012.918.934.113-.07 1.477-1.211 3.035-2.54m-38.5-28.484c7.153-1.786 13.27-4.024 17.543-6.418 1.64-.922 1.653-.93 1.352-1.282-.164-.195-1.168-1.273-2.223-2.402l-1.926-2.05-1.675.835c-4.508 2.246-11.766 4.645-18.227 6.027-.887.192-1.703.38-1.824.422-.137.047.176.582.89 1.512.61.793 1.458 2.04 1.887 2.773.43.735.871 1.336.98 1.336.11 0 1.56-.34 3.223-.754m0 0"/>
</svg>
