<svg xmlns="http://www.w3.org/2000/svg" width="120" height="120" viewBox="0 0 120 136">
    <path stroke="red" stroke-width=".004" d="m-35.618 9.228-1.166 7.156L-37 17.71l-2.003 12.293h22.006L-17.323 28-19 17.709l-.216-1.325-1.166-7.156v-.03h-.007L-21 8.78l-2-1.367-5-3.416-5 3.416-2 1.367-.61.417h-.008v.031M-41 32l2.603-15.616L-37 8l1.382-.921.618-.413 5.52-3.68h.001L-28 2l7 4.666.618.413L-19 8l1.397 8.384L-15.667 28l.334 2.002L-15 32h-26m20-15.834h-2.202v1.548h1.978v6.735l-.004.127-.004.14-.024.239-.047.21-.075.185-.107.158-.146.132-.16.103-.174.075-.188.052-.205.031-.17.012-.054.004-.072.002h-.067l-.045.001h-.05l-.01.001-.03-.175-.047-.196-.06-.207-.07-.21-.081-.203-.088-.19V28h-1.421v-8.792h-.652v6.767h-1.282v-8.26h1.934v-1.56h-2.095V14.64H-21v1.527m-7.096-1.592-.04.12-.056.16-.094.277-.092.275-.091.27-.087.262h1.464v4.721h-2.244v.996h2.351v5.067h-2.351v1.029h-1.389V15.938h.694l.09-.325.086-.33.08-.333.075-.326.064-.316.054-.297.91.162.661.117.006.001H-28l-.096.283m-2.469.271-.155.299-.027.052-.195.35-.205.347-.217.343-.1.148-.047.072-.079.117-.069.096-.108.151-.06.082.266.813.191.829.13.845.08.866.01.225.029.663.011.913-.011 1.033-.039 1.017-.04.47-.04.488-.13.861-.19.72-.266.543-.1.13-.113.113-.128.098-.141.08-.154.06-.165.04-.14.03-.076.017-.228.036-.239.025-.249.016-.258.006h-.243l-.02-.001-.016-.282-.035-.28-.054-.28-.074-.27-.037-.102-.057-.16-.088-.196-.012-.025-.008-.018-.005-.012.225.022.203.01h.183l.063-.001.1-.004.03-.003.111-.009.122-.015.086-.009.075-.017.067-.028.059-.038.052-.05.046-.063.119-.247.037-.161.057-.248.063-.487.007-.054.017-.235.031-.41.03-.723.013-.77-.098.15-.113.174-.215.312-.218.298-.22.28-.22.264-.088.097-.063.07-.032.035-.02.021-.011.013-.006.007-.122-.218-.148-.244-.166-.255-.174-.249-.174-.228-.128-.146-.039-.045.41-.394.072-.087.334-.397.393-.55.365-.593.27-.508.054-.103.26-.58.011-.026-.012-.09-.021-.157-.01-.068-.024-.176-.037-.24-.038-.236-.04-.233-.025-.139-.017-.09-.15.15-.15.15-.15.15-.152.143-.152.14-.071.062-.037.03-.02.018-.017.014-.01.01-.146-.18-.177-.193-.196-.196-.204-.19-.021-.018-.18-.153-.06-.046-.037-.029-.033-.025-.027-.02-.02-.015-.01-.008.249-.219.245-.233.241-.246.235-.257.23-.266.221-.273-.126-.258-.021-.043-.166-.299-.182-.295-.2-.292-.216-.29-.232-.288 1.186-.834.176.202.165.205.155.206.147.208.125.184.016.023.135.207.127-.213.122-.215.117-.215.112-.215.107-.212.1-.208.004.002 1.208.747.155.096m8.015 4.363h-.652v5.35l.114.008.106.006.096.004.085.002h.134l.038-.002.03-.01.023-.019.015-.028.009-.04.002-.052v-5.219m-5.931-.054v-1.711h-.855v1.711h.855m.096 4.006h-.951v2.068h.951Zm0 0" transform="matrix(4.29492 0 0 4.26451 180.387 -4.265)"/>
    <path fill="#f9f9f9" d="M13.094 122.91c.058-.347 3.324-20.25 7.261-44.234 3.934-23.985 7.184-43.633 7.22-43.668.292-.27 32.394-21.969 32.523-21.98.218-.024 32.562 21.91 32.644 22.136.094.262 14.434 87.797 14.434 88.106 0 .246-3.864.27-47.094.27H12.988Zm67.719-14.433c.003-4.723.054-6.586.18-6.372.304.516.968 2.594 1.093 3.403.062.422.219.808.348.86.418.155 3.25-.259 4-.587 1.02-.449 1.875-1.242 2.343-2.176l.395-.796.094-31.641h-8.461v-6.375h9.468v-6.715H65.59v6.715h8.96v6.375h-8.284v35.418h5.582V77.715h2.703v37.433h6.254Zm-42.176 5.82c3.242-.45 4.531-1.266 5.644-3.574 1.125-2.34 1.73-5.153 2.242-10.43.293-3.043.293-17.094-.003-19.89-.45-4.282-1.301-8.508-2.286-11.344l-.41-1.188 1.09-1.582c1.61-2.328 4.281-6.863 4.281-7.266 0-.086-5.453-3.425-5.824-3.566-.176-.07-.316.05-.441.375-.22.578-2.52 4.762-2.617 4.762-.04 0-.446-.551-.903-1.227-1.039-1.527-2.855-3.808-3.031-3.808-.223 0-5.191 3.535-5.149 3.66.028.062.532.758 1.125 1.543 1.34 1.765 2.43 3.453 3.13 4.832.468.926.503 1.097.304 1.379-.621.882-3.234 3.715-4.477 4.851l-1.402 1.281.82.622c.454.343 1.567 1.382 2.473 2.312 1.426 1.457 1.692 1.664 1.934 1.484.152-.113 1.011-.918 1.906-1.789l1.629-1.578.266 1.485c.148.82.359 2.132.464 2.921L39.598 80l-.547 1.25c-1.742 3.957-4.758 8.527-7.461 11.3l-1.29 1.321.868 1.074c.758.942 3.039 4.383 3.21 4.844.114.313 2.634-2.684 4.446-5.289l1.11-1.594-.098 3.692c-.18 6.828-.809 9.875-2.184 10.609-.445.238-.996.293-2.957.297-2.078.004-2.394.039-2.3.258.52 1.199 1.105 3.191 1.257 4.289l.262 1.879.082.547h1.668c.918 0 2.258-.082 2.973-.18m15.797-2.34v-2.18h10.144V87.953H54.434v-4.027h9.636V63.617h-3.043c-1.675 0-3.043-.058-3.043-.125 0-.07.504-1.625 1.118-3.453.613-1.828 1.086-3.355 1.046-3.394-.09-.086-6.773-1.266-6.836-1.204-.027.028-.246.989-.488 2.141a103 103 0 0 1-.96 4.063l-.524 1.972h-2.992v50.524h6.086Zm0 0"/>
    <path fill="#f9f9f9" d="M54.434 73.77v-3.606h3.55v7.215h-3.55Zm0 25.18v-4.282h3.886v8.562h-3.886Zm27.257 1.472-.886-.063V77.715h2.707v11.242c0 10.941-.012 11.242-.328 11.414-.18.094-.391.16-.465.14-.074-.015-.54-.058-1.028-.09m0 0"/>
</svg>
