<svg xmlns="http://www.w3.org/2000/svg" width="120" height="120" viewBox="0 0 120 136">
    <path fill="red" stroke="red" stroke-width=".004" d="m-91.618-22.772-1.041 6.388L-93-14.29l-2.003 12.293h22.006L-73.323-4-75-14.291l-.341-2.093-1.041-6.388v-.03h-.007L-77-23.22l-2-1.367-5-3.416-5 3.416-2 1.367-.61.417h-.008v.031M-97 0l2.73-16.384L-93-24l1.382-.921.618-.413 5.52-3.68h.001L-84-30l7 4.666.618.413L-75-24l1.27 7.616L-71.668-4l.334 2.002L-71 0h-26m10.188-16.392-.003.008-.09.298-.1.302-.106.299h2.463V-18h1.906v2.515h4.881v1.759h-4.881v3.001H-77v1.77h-5.742V-4h-1.906v-4.955h-6.112v-1.77h6.112v-3.001h-3.203l-.22.43-.227.41-.232.39-.133.208-.104.162-.242.346-.223.29-.011.012-.008.012-.006.007-.233-.138-.289-.159-.321-.167-.012-.006-.315-.157-.308-.148-.17-.077-.095-.044.567-.675.321-.49.198-.3.468-.885.336-.78.074-.174.252-.725.096-.277.28-1.026 1.853.356-.083.317-.085.313Zm0 0" transform="matrix(4.29492 0 0 4.26451 420.902 132.2)"/>
    <path fill="#f9f9f9" d="M13.094 122.91c.058-.347 3.324-20.25 7.261-44.234 3.934-23.985 7.184-43.633 7.22-43.668.292-.27 32.394-21.969 32.523-21.98.218-.024 32.562 21.91 32.644 22.136.094.262 14.434 87.797 14.434 88.106 0 .246-3.864.27-47.094.27H12.988Zm52.496-18.254V94.164h24.683v-7.719H65.59V73.688h20.965v-7.555H65.59V55.39h-8.281v10.742h-5.157c-2.836 0-5.156-.063-5.156-.137 0-.078.191-.7.426-1.387.816-2.375 1.824-6.21 1.672-6.347-.196-.172-7.828-1.602-7.942-1.489-.043.043-.343 1.024-.66 2.172-2.133 7.735-5.582 14.735-9.55 19.387l-1.028 1.207 2.277 1.086c1.254.602 2.98 1.48 3.832 1.957l1.555.871.399-.476c.937-1.122 3.445-5.024 4.539-7.067l1.183-2.21 6.805-.009 6.805-.004v12.758H30.938v7.72h26.37v20.983h8.282Zm0 0"/>
</svg>
