<svg xmlns="http://www.w3.org/2000/svg" width="120" height="120" viewBox="0 0 120 136">
    <path stroke="red" stroke-width=".004" d="m20.382 9.228-1.166 7.156L19 17.71l-2.003 12.293h22.006L38.677 28 37 17.709l-.216-1.325-1.166-7.156v-.03h-.007L35 8.78l-2-1.367-5-3.416-5 3.416-2 1.367-.61.417h-.008v.031M15 32l2.603-15.616L19 8l1.382-.921.618-.413 5.52-3.68h.001L28 2l7 4.666.618.413L37 8l1.397 8.384L40.333 28l.334 2.002L41 32H15m18.28-18-.017 1.562-.009.822-.006.516-.007 2.782.037 2.481.01.207.004.087.007.132.076 1.572.054.415.12.917.267.485.064-.075.055-.21.046-.333.037-.438.02-.346.01-.18.018-.554v-.032l.001-.012.144.264.154.27.15.244.01.018.163.247.16.222.152.184-.094.855-.101.522-.032.168-.182.53-.24.376-.312.224-.391.078-.876-.473-.004-.01-.215-.485-.116-.262-.11-.25-.1-.224-.038-.088-.069-.395-.144-.824-.072-.413-.009-.048-.057-.329-.08-1.154-.037-.517-.061-.875-.026-1.173-.038-1.757-.006-1.554-.003-.785-.003-.822h-7.398v3l-.026 1.467-.096 1.616-.194 1.686-.238 1.245-.083.43-.476 1.583-.408.875-.137.294-.008.015-.043.092-.025.055-.018.04-.011.023-.008.017-.18-.17-.227-.19-.257-.19-.268-.181-.257-.154-.033-.017L21 27l.609-1.285.342-1.14.082-.271.272-1.478.153-1.486.067-1.433.015-1.323V14h10.74m-2.021 2.079v1.09h-2.725l-.047.105-.047.104-.048.1-.05.099-.05.095-.051.092h2.557v3.81h-4.475v.482h5.125v.99h-5.125v.493h5.324v.1l-.002.103v.117l-.004.117-.005.103-.024.45-.003.047-.025.465-.057.778-.066.609-.082.46-.104.332-.13.218-.13.137-.138.11-.145.085-.012.005-.14.057-.164.042-.173.025-.168.01-.204.005-.175.002-.059.001h-.256l-.272-.002-.269-.005h-.012l-.023-.195-.012-.067-.026-.142-.05-.214-.045-.152-.017-.058-.047-.13-.025-.068-.08-.176.17.016.047.004.206.017.19.013.17.01.143.005.11.002.084-.003.071-.01h.002l.061-.018.056-.027.053-.038.052-.05.003-.005.06-.11.036-.132.017-.06.046-.284.04-.386.003-.052.029-.447.026-.577.002-.048h-5.387v-6.764h2.023l.024-.101.019-.101.008-.043.007-.048.002-.009.015-.099.015-.098.015-.096h-2.43v-1.09h6.768m-2.295 10.37-.064-.214-.085-.232-.101-.243-.042-.09-.033-.07-.04-.086-.124-.241-.13-.228.327-.128.502-.198.145.219.139.233.128.238.094.19.02.043.094.219.071.195-.84.367-.03.012-.018.008-.013.006m-1.98-1.325.011-.003.89-.233.107.294.098.314.028.104.06.215.074.31.057.292.03.207.007.05-.051.015-.91.262-.014.004-.026-.267-.01-.064-.036-.236-.063-.32-.075-.325-.038-.143-.047-.176-.092-.3m-.22 2.033-.14.016-.785.087-.04.004-.03.004h-.014l-.008.002.008-.316v-.352l-.008-.377-.019-.389-.008-.108-.022-.278-.006-.053-.03-.249-.01-.07.043-.003.197-.021.366-.04.348-.036.018.122.035.237.029.263.013.12.031.39.021.38.004.134.006.22v.313m-2.005-.156-.182.241-.096.127-.326.316-.477-.337-.169-.12-.125-.087-.099-.07-.073-.052-.042-.03.296-.279.267-.325.235-.36.201-.384.165-.397.125-.4.118.046.93.368-.142.453-.169.45-.2.433-.237.407m4.51-8.271h-2.945v.506h2.945v-.506m0 1.36h-2.945v.517h2.945Zm0 0" transform="matrix(4.29492 0 0 4.26451 -60.129 -4.265)"/>
    <path fill="#f9f9f9" d="M13.02 123.414c.011-.344 14.5-88.355 14.554-88.406.293-.27 32.395-21.969 32.524-21.98.218-.024 32.562 21.91 32.644 22.136.094.262 14.434 87.797 14.434 88.106 0 .246-3.864.27-47.078.27-25.895 0-47.078-.056-47.078-.126m24.644-11.262c3.207-6.84 5.121-15.87 5.867-27.687.168-2.688.25-6.961.25-13.168l.004-9.192h31.61v4.985c0 8.902.335 20.484.761 26.488.348 4.84.524 6.344 1.16 9.902l.746 4.196 1.254 2.77 1.25 2.769 1.77.969c1.691.93 1.805.964 2.695.879 2.813-.282 4.336-3.262 5.07-9.926l.184-1.7-1.015-1.402c-.56-.773-1.454-2.18-1.993-3.12-.539-.946-1.035-1.72-1.105-1.724s-.125.543-.125 1.211c0 2.856-.492 7.395-.832 7.735-.098.093-.356-.239-.664-.844-.422-.824-.574-1.477-.867-3.672-.723-5.383-.895-11.055-.88-29.32l.016-16.91H36.547l-.078 15.148c-.074 14.992-.078 15.191-.52 19.094-.8 7.105-2.332 13.539-4.113 17.273a447 447 0 0 0-1.332 2.817l-.563 1.207 1.243.675c1.324.723 3.628 2.383 4.304 3.106.227.238.492.437.59.434.102 0 .813-1.344 1.586-2.993m33.344 2.391c1.144-.34 2.23-1.07 2.785-1.879 1.09-1.582 1.617-5.25 2.043-14.262l.113-2.39H53.082v-1.848h21.977v-4.531H53.082v-1.848h19.102v-16.45H61.359l.598-1.17.594-1.177h11.66V64.29H44.969v4.695l10.406.086-.176 1.094-.172 1.09-4.355.043-4.352.047v29.031h23.075l-.043.965c-.114 2.574-.415 5.77-.625 6.672-.168.71-.375 1.12-.711 1.41-.47.402-.489.402-3.157.293-2.523-.102-2.68-.09-2.554.183.433.98.933 2.645 1.117 3.696l.207 1.219h3.234c2.473 0 3.446-.063 4.145-.27m-26.793-1.176c.781-.594 2.097-2.387 3.039-4.144.875-1.63 2.363-5.649 2.156-5.828-.156-.137-4.492-1.86-4.527-1.801-.016.023-.238.644-.5 1.383-.942 2.687-2.242 4.859-4.063 6.773l-1.07 1.125 2.055 1.453c1.133.8 2.117 1.461 2.195 1.469.074.004.398-.192.715-.43m8.508-1.488c1.152-.137 2.136-.29 2.191-.34.129-.133-.27-6.602-.5-8.102-.219-1.41-.004-1.324-2.7-1.019L50 102.61l.102.942c.054.515.152 2.656.214 4.758.059 2.097.157 3.816.211 3.816.059 0 1.047-.113 2.196-.246m6.886-1.711c1.196-.352 2.094-.707 2.094-.82 0-.828-1.203-5.5-1.86-7.203l-.148-.395-2.039.531c-1.629.422-2.02.578-1.937.781.297.723 1.273 4.91 1.449 6.215.11.828.234 1.504.273 1.504s1.016-.277 2.168-.613m6.86-2.484 1.812-.79-.344-.867c-.468-1.183-1.949-3.98-2.402-4.53l-.367-.454-1.773.687c-.977.38-1.797.711-1.825.739-.027.027.328.793.793 1.707.7 1.37 1.25 2.664 1.797 4.234.047.125.176.188.293.145.113-.047 1.024-.438 2.016-.871m0 0"/>
    <path fill="#f9f9f9" d="M53.082 76.707v-1.004h12.34v2.012h-12.34Zm0 5.875v-1.004h12.34v2.012h-12.34Zm0 0"/>
</svg>
