<svg xmlns="http://www.w3.org/2000/svg" width="120" height="120" viewBox="0 0 120 136">
    <path fill="red" stroke="red" stroke-width=".004" d="m76.382 9.228-1.166 7.156L75 17.71l-2.003 12.293h22.006L94.677 28 93 17.709l-.216-1.325-1.166-7.156v-.03h-.007L91 8.78l-2-1.367-5-3.416-5 3.416-2 1.367-.61.417h-.008v.031M71 32l2.603-15.616L75 8l1.382-.921.618-.413 5.52-3.68h.001L84 2l7 4.666.618.413L93 8l1.397 8.384L96.333 28l.334 2.002L97 32H71m13.24-16.385-.14.255h6.398v1.622h-3.391l.536.49.04.03.552.425.638.414.68.368.558.247.152.068.395.138.323.113.018.006-.207.201-.134.147-.084.092-.216.261-.203.271-.044.065-.061.091-.073.11-.14.245-.383-.148-.372-.166-.362-.182-.353-.196-.166-.102-.18-.11-.338-.224v.773h-2.9v1.634h-1.685V20.92H80.05v-.623l-.284.184-.02.013-.312.192-.323.187-.333.18-.345.175-.25.115-.05.023-.036.018-.02.009-.12-.235-.159-.256-.188-.26-.132-.16-.071-.088-.002-.002-.205-.218-.2-.178.405-.182.37-.167.717-.381.661-.409.606-.433.554-.456.504-.475h-3.412V15.87h4.702l.175-.307.163-.307.149-.31.136-.31.122-.316.108-.32 1.866.301-.104.268-.11.265-.116.263-.124.261-.131.257m6.418 7.453v1.644h-3.018v3.267h-1.78v-3.267h-4.063l-.19.61-.29.596-.406.575-.547.545-.493.353-.214.152-.845.435-.026.013-.017.009-.143-.21-.186-.234-.017-.02-.195-.22-.075-.077-.15-.153-.072-.065-.108-.098-.043-.04-.205-.162.248-.115.374-.175.52-.312.427-.33.341-.346.267-.36.119-.22.082-.15h-2.719v-1.645h3.028v-1.536h1.695v1.536h3.903V21.51h1.78v1.558h3.018m-8.735-4.28-.004.004-.317.303-.338.299H83.1v-1.31h1.685v1.31h1.972l-.308-.286-.295-.298-.137-.152-.145-.159-.267-.323-.07-.093-.183-.243-.237-.348h-2.047l-.267.335-.217.256-.06.072-.293.32Zm0 0" transform="matrix(4.29492 0 0 4.26451 -300.644 -4.265)"/>
    <path fill="#f9f9f9" d="M13.094 122.91c.058-.347 3.324-20.25 7.261-44.234 3.934-23.985 7.184-43.633 7.22-43.668.292-.27 32.394-21.969 32.523-21.98.218-.024 32.562 21.91 32.644 22.136.094.262 14.434 87.797 14.434 88.106 0 .246-3.864.27-47.094.27H12.988Zm26.508-8.62c3.257-1.614 6.468-4.263 8.308-6.864.969-1.364 2.102-3.707 2.54-5.246l.273-.965h17.234v13.933h7.945v-13.933H88.75v-7.219H75.902v-6.543h-7.945v6.543H51.391v-6.543h-7.438v6.543H30.937v7.219h11.665l-.465.836c-1.508 2.699-4.563 5.234-8.414 6.976l-1.297.586 1.601 1.508c.883.828 2.043 2.074 2.578 2.766.532.691 1.04 1.261 1.118 1.261.082 0 .93-.386 1.879-.859m23.96-25.747v-3.441H76.06l.05-1.59.047-1.586 1.27.8c2.922 1.852 7.781 4.126 7.918 3.708.187-.551 2.199-3.29 3.484-4.735.902-1.015 1.371-1.668 1.238-1.715-3.425-1.195-5.246-1.964-7.46-3.16-2.872-1.55-5.536-3.402-7.75-5.394l-1.04-.93h14.258V63.28h-13.61c-7.484 0-13.605-.039-13.605-.086 0-.05.407-.898.903-1.89 1-1.992 2.074-4.528 1.96-4.63-.199-.167-7.984-1.3-8.097-1.175-.07.078-.344.746-.61 1.484-.265.739-1.042 2.457-1.734 3.82l-1.254 2.477H31.781v7.22h14.262l-.496.52c-1.36 1.43-5.012 4.242-7.59 5.847-1.64 1.02-4.434 2.488-6.395 3.36l-1.66.734 1.086 1.105c1.387 1.41 2.328 2.621 3.086 3.97l.606 1.07 2.312-1.153c1.27-.637 3.137-1.652 4.145-2.262 1.008-.609 1.863-1.109 1.902-1.109.04 0 .07.566.07 1.262v1.258h13.016v6.882h7.438Zm0 0"/>
    <path fill="#f9f9f9" d="M50.91 76.246c1.219-1.176 2.899-2.95 3.735-3.945L56.16 70.5h8.738l.543.797c1.059 1.555 3.082 3.957 4.653 5.512l1.586 1.578h-8.118v-5.54h-7.437v5.54h-7.43Zm0 0"/>
</svg>
