<svg xmlns="http://www.w3.org/2000/svg" width="120" height="120" viewBox="0 0 120 136">
    <path fill="red" stroke="red" stroke-width=".004" d="m-35.618 43.228-.965 5.924-.417 2.557-2.003 12.293h22.006L-17.323 62-19 51.709l-.417-2.557-.965-5.924v-.03h-.007L-21 42.78l-2-1.367-5-3.416-5 3.416-2 1.367-.61.417h-.008v.031M-19 42l1.192 7.152L-15.668 62l.335 2.002.255 1.534L-15 66h-26l.078-.464 2.73-16.384L-37 42l1.382-.921.618-.413 5.52-3.68h.001L-28 36l7 4.666.618.413L-19 42m-7.35 6.01v1.262h1.829v-1.261h1.628v1.261h1.28v1.4h-1.28v1.046h1.67v1.444h-3.562v.679h2.96v5.131h-1.85l.504.334.123.086.377.264.48.354.448.346.402.326.34.294-.579.464-.682.546-.017.014-.341-.336-.25-.224-.156-.141-.454-.381-.48-.383-.492-.373-.124-.09-.358-.26.358-.33.097-.09.455-.42h-3.141l.604.42.496.345-.473.43-.539.422-.583.405-.607.376-.126.07-.28.155-.205.114-.497.244-.03.015-.065.032-.023-.032-.111-.153-.156-.204-.168-.212-.175-.21-.174-.198-.096-.102-.044-.048-.026-.027.508-.232.519-.279.04-.025.471-.288.233-.161.252-.174.338-.263.103-.08.381-.34h-1.777v-5.131h3.003v-.679h-3.648v-1.444h2.062v-1.045h-1.66v-1.401h1.66v-1.261h1.608m-5.076 0v2.77h1.174v1.65h-1.174v.559l.195.258.078.104.339.48.363.535.348.521.291.444.194.298-.904 1.233-.01.014-.011.014-.007.01-.006.008-.003.004-.106-.249-.126-.281-.142-.305-.155-.323-.166-.335-.172-.339v6.887h-1.618v-5.82l-.177.523-.184.501-.07.172-.12.301-.198.439-.208.401-.123.202-.04.066-.02.033-.016.027-.011.017-.007.012-.094-.26-.12-.297-.137-.312-.146-.309-.146-.288-.018-.032-.08-.141-.041-.074.384-.601.06-.118.304-.598.336-.8.3-.849.259-.872.207-.86h-1.406v-1.65h1.512V48h1.618v.01m5.054 7.05h-1.395v.818h1.395v-.819m1.796-4.386h-1.774v1.045h1.829v-1.045h-.055m1.08 4.386h-1.289v.82h1.29v-.82m0 1.897h-1.29v.798h1.29v-.798m-4.272 0v.798h1.395v-.798Zm0 0" transform="matrix(4.29492 0 0 4.26451 180.387 -149.258)"/>
    <path fill="#f9f9f9" d="M13.094 122.91c.058-.347 3.324-20.25 7.261-44.234 3.934-23.985 7.184-43.633 7.22-43.668.292-.27 32.394-21.969 32.523-21.98.218-.024 32.562 21.91 32.644 22.136.094.262 14.434 87.797 14.434 88.106 0 .246-3.864.27-47.094.27H12.988Zm32.394-22.324.012-14.563 1.086 2.184c.598 1.2 1.387 2.86 1.754 3.691.367.829.726 1.524.805 1.547.128.035 3.867-4.945 4.035-5.379.082-.21-4.028-6.445-6.403-9.71l-1.304-1.793v-2.204h5.074v-7.218h-5.074V55.39h-7.098v11.75h-6.426v7.218h2.961c1.625 0 2.957.04 2.957.086 0 .223-1.047 4.246-1.445 5.567-1.563 5.144-3.61 9.89-5.617 13.015l-.832 1.297 1.047 2.07c.574 1.137 1.335 2.801 1.69 3.7.356.894.692 1.625.747 1.625.2 0 1.73-2.844 2.563-4.75a77 77 0 0 0 1.597-4.016l.738-2.062.012 12.129.008 12.128h7.098Zm10.707 13.492c4.504-2.355 8.035-4.723 11.305-7.574.527-.461.96-.918.957-1.008 0-.094-.621-.582-1.375-1.09a209 209 0 0 1-2.152-1.469l-.774-.546h6.34l6.336.004-1.844 1.722-1.843 1.719 1.507 1.086c2.246 1.617 6.172 4.777 8.211 6.605.989.891 1.848 1.621 1.907 1.621.136 0 5.406-4.195 5.464-4.355.11-.285-6.449-5.348-9.597-7.406l-1.399-.914 3.742-.043 3.743-.047V80.234h-12.68v-2.687h15.215v-6.379h-7.102v-4.195h5.41v-6.211h-5.41V55.39H75.06v5.37h-7.78v-5.37h-7.097v5.37h-7.102v6.212h7.102v4.195H51.39v6.379h15.722v2.687H54.098v22.157l7.351.015-.906.817c-2.023 1.836-6.055 4.437-9.152 5.922-.977.464-1.809.875-1.848.91-.043.035.234.382.61.773.831.86 3.03 3.543 3.273 3.996.097.176.3.324.449.324.152 0 1.195-.48 2.32-1.07m0 0"/>
    <path fill="#f9f9f9" d="M67.281 69.07v-2.097h7.778v4.195H67.28Zm-6.086 18.215v-1.68h5.918v3.356h-5.918Zm12.848 0v-1.68h5.41v3.356h-5.41Zm0 8.055v-1.68h5.41v3.36h-5.41Zm-12.848 0v-1.68h5.918v3.36h-5.918Zm0 0"/>
</svg>
