<svg xmlns="http://www.w3.org/2000/svg" width="120" height="120" viewBox="0 0 120 136">
    <path fill="red" stroke="red" stroke-width=".004" d="m-63.618-22.772-1.041 6.388L-65-14.29l-2.003 12.293h22.006L-45.323-4-47-14.291l-.341-2.093-1.041-6.388v-.03h-.007L-49-23.22l-2-1.367-5-3.416-5 3.416-2 1.367-.61.417h-.008v.031M-69 0l2.73-16.384L-65-24l1.382-.921.618-.413 5.52-3.68h.001L-56-30l7 4.666.618.413L-47-24l1.27 7.616L-43.668-4l.334 2.002L-43 0h-26m12.668-16.915-.053-.14-.054-.141-.053-.136-.054-.13-.053-.123 1.776-.415.087.195.09.2.088.205.087.208.084.208.078.208h5.031v1.533H-59.97v1.086h1.713v-.873h1.637v.873h1.852v-.873h1.67v.873h3.457v4.035h-10.415l-.097 1.045-.048.34-.076.545-.024.169-.207 1.04-.228.84-.044.162-.346.941-.175.352-.138.276-.056.112-.06.12-.19-.164-.238-.182-.265-.186-.272-.174-.052-.03-.205-.117-.052-.025-.17-.08.53-1.126.37-1.234.125-.694.11-.598.132-1.297.058-1.252.01-.95.003-.207v-4.28h5.384l-.054-.139m7.217 11.53-.037.11-.133.4-.24.367-.321.24-.417.132-.524.04h-1.734l-.698-.042-.029-.008-.487-.128-.358-.244-.197-.319-.013-.02-.016-.026-.117-.5-.033-.65v-3.76h1.691v1.055h3.35v1.395h-3.35v1.3l.007.19.029.137.057.09.095.052.14.024.196.006h1.274l.172-.017.126-.062.089-.123.061-.202.028-.196.015-.1.022-.26.003-.051.004-.04.002-.032.002-.024.191.122.232.118.257.11.268.099.184.058.079.025.093.024.152.04-.115.67m-5.932-1.958h-2.751v1.533l.454-.044 2.286-.224.05-.004.021-.002.013-.002h.012l-.003.22v.238l.005.243.009.234.013.214.018.165.001.016-1.56.2-.865.12-.27.037-.788.125-.52.102-.284.076-.045.012-.217.084-.024-.096-.029-.117-.08-.244-.029-.074-.07-.181-.112-.244v-.003l-.113-.21-.005-.01-.063-.095-.038-.056-.015-.022.142-.075.134-.102.116-.133.093-.17.06-.21.009-.102.013-.156v-3.577h1.68v1.14h2.752v1.394m-3.211-4.184v-1.224h-1.713v.732l-.003.163-.003.164-.005.165h1.724m6.935-1.224H-53.1v1.224h1.776v-1.224m-5.298 0v1.224h1.852v-1.224Zm0 0" transform="matrix(4.29492 0 0 4.26451 300.644 132.2)"/>
    <path fill="#f9f9f9" d="M13.02 123.414c.011-.344 14.5-88.355 14.554-88.406.293-.27 32.395-21.969 32.524-21.98.218-.024 32.562 21.91 32.644 22.136.094.262 14.434 87.797 14.434 88.106 0 .246-3.864.27-47.078.27-25.895 0-47.078-.056-47.078-.126m34.144-8.773c1.805-.473 5.352-1.036 11.582-1.836 2.973-.383 5.559-.727 5.746-.766.324-.062.336-.18.285-2.965-.03-1.597-.07-2.91-.086-2.922-.015-.011-2.539.23-5.609.535-3.066.305-5.785.56-6.043.563l-.465.008v-6.211h11.664v-6.211H52.574v-4.867h-7.422l-.05 8.265c-.051 8.118-.059 8.282-.422 9.024-.47.957-.672 1.203-1.43 1.715l-.617.414.492.785c.559.887 1.543 3.183 1.836 4.277.172.637.246.719.566.63.203-.06.942-.255 1.637-.438m38.527-.235c2.391-.773 3.653-2.66 4.329-6.48.14-.785.253-1.473.253-1.528 0-.058-.363-.199-.804-.308-1.242-.309-4.114-1.465-4.809-1.934-.344-.234-.656-.422-.695-.422-.04 0-.121.473-.184 1.047-.199 1.887-.457 2.844-.87 3.258-.395.39-.434.395-4.192.395-3.48 0-3.824-.028-4.192-.32-.39-.317-.398-.384-.453-3.696l-.05-3.371h14.39v-6.211H74.043v-4.531h-7.465l.074 9.61c.063 8.483.106 9.726.364 10.616.75 2.582 2.324 3.758 5.507 4.121.602.07 3.61.11 6.676.086 4.801-.031 5.707-.078 6.492-.332m-48.441-1.734c2.602-5.16 4.422-12.317 5.273-20.688.133-1.34.247-2.53.247-2.644 0-.168 4.593-.211 22.398-.211h22.398V71.672H72.691V67.98h-7.437v3.692h-7.777V67.98h-7.102v3.692h-7.266v-4.363h45.98v-6.715H67.5l-.965-2.332c-.531-1.282-1.062-2.461-1.18-2.621-.199-.274-.46-.235-4.003.586-2.086.484-3.813.898-3.836.921-.028.024.254.809.62 1.747l.669 1.699H35.699l-.078 13.976c-.07 12.809-.11 14.239-.437 17.145-.762 6.758-2.082 11.96-4.106 16.183-.637 1.329-1.156 2.446-1.156 2.485 0 .035.09.062.203.062.355 0 3.207 1.77 4.7 2.918.788.606 1.456 1.106 1.476 1.11.023 0 .449-.809.949-1.801m0 0"/>
    <path fill="#f9f9f9" d="M43.11 80.402v-2.52h7.265v5.036h-7.266Zm14.367 0v-2.52h7.777v5.036h-7.777Zm15.214 0v-2.52h7.438v5.036H72.69Zm0 0"/>
</svg>
