<svg xmlns="http://www.w3.org/2000/svg" width="120" height="120" viewBox="0 0 120 136">
    <path stroke="red" stroke-width=".004" d="m-63.618-56.772-1.241 7.62-.141.86-2.003 12.294h22.006L-45.323-38-47-48.291l-.14-.861-1.242-7.62v-.03h-.007L-49-57.22l-2-1.367-5-3.416-5 3.416-2 1.367-.61.417h-.008v.031M-69-34l2.525-15.152L-65-58l1.382-.921.618-.413 5.52-3.68h.001L-56-64l7 4.666.618.413L-47-58l1.475 8.848L-43.667-38l.334 2.002L-43-34h-26m18.362-17.044v1.376h-5.31v.623h4.916l.266-.043 1.213.268-.146.45-.157.46-.093.26-.071.198-.132.348-.035.093-.165.411-.16.37-1.42-.351-.008-.002-.005-.002h-.002l.059-.155.06-.166.062-.174.008-.024.053-.159.06-.19.06-.196h-4.202v.892l2.54-.224.875-.077.13 1.25.002.025.004.043.002.015-1.014.092-2.54.23v.043l.01.2.025.104.013.053.072.12.117.083.17.048.232.015h2.766l.274-.003.306-.011.316-.018.287-.023.017-.002.269-.032.201-.038.01-.002.018.139.013.104.028.252.026.253.025.247.025.233.025.212-.203.046-.258.032-.196.014-.103.007-.324.012-.333.006h-3.263l-.76-.044-.582-.143-.422-.251-.28-.368-.077-.234-.085-.261-.043-.446-.017-.186-.202.018-1.66.154-.128-1.354 1.788-.164.202-.018v-1.043h-2.34v2.826l-.028 1.079-.08.92-.02.242-.204 1.19-.124.432-.21.737-.46 1.009-.038.086-.254.356-.193.273-.163.229-.034.047-.021.03-.015.02-.008.012-.164-.163-.213-.187-.243-.193-.251-.182-.002-.001-.237-.154-.036-.018-.173-.09.598-.854.421-.936.006-.02.269-.965.142-.9.016-.102.073-.985.018-.933v-4.201h3.766V-52h1.744v.956h5.309m1.53 10.968-.044.181-.126.532-.245.5-.338.321-.447.17-.295.025-.105.01-.175.015h-1.68l-.685-.04h-.002l-.51-.128-.358-.23-.228-.341-.119-.469-.035-.608v-2.686h1.66v2.654l.007.181.029.13.058.088.096.052.143.025.198.007h1.266l.194-.026.142-.1.099-.208.067-.349.043-.522.003-.068.018-.462.003-.054.002-.044.002-.04v-.035l.002-.026.192.122.236.117.262.109.272.097.265.082.089.023.152.04-.109.955m-7.759.558-.476.508-.15.16-.893.463-.067.034-.743.192-.195.05-.245.064-.068.017-.056.015-.035.01-.023.005-.08-.21-.12-.229-.143-.237-.16-.228-.162-.201-.004-.005-.161-.169 1.098-.233.159-.07.592-.258.47-.458.254-.626.004-.036.098-.794.017-1.07h1.638l-.031 1.346-.076.518-.084.576Zm0 0" transform="matrix(4.29492 0 0 4.26451 300.644 277.193)"/>
    <path fill="#f9f9f9" d="M13.02 123.414c.011-.344 14.5-88.355 14.554-88.406.293-.27 32.395-21.969 32.524-21.98.218-.024 32.562 21.91 32.644 22.136.094.262 14.434 87.797 14.434 88.106 0 .246-3.864.27-47.078.27-25.895 0-47.078-.056-47.078-.126m33.94-9.004c2.337-.605 3.161-.91 4.77-1.75 1.622-.851 2.172-1.25 3.333-2.41 1.296-1.3 1.437-1.516 2.164-3.273.98-2.387 1.406-4.926 1.55-9.329l.106-3.148h-7.324v2.281c0 3.469-.243 5.254-.965 7.09-.57 1.442-.707 1.64-1.742 2.527-1.48 1.266-3.368 2.07-6.348 2.696-1.266.265-2.32.511-2.352.543-.027.031.43.652 1.02 1.379.59.726 1.394 1.953 1.789 2.726.394.774.82 1.406.945 1.406s1.5-.332 3.055-.738m-9.647-1.96c2.492-3.45 4.394-8.294 5.386-13.731.79-4.332.938-6.594 1.035-15.926l.09-8.77h9.766v4.317l-.887.097a298 298 0 0 1-4.226.391c-3.172.277-3.34.309-3.34.637 0 .492.515 5.535.57 5.59.023.023 1.637-.11 3.582-.297 1.945-.188 3.727-.32 3.961-.293.395.047.43.129.531 1.222.149 1.641.707 3.313 1.414 4.231.809 1.055 2.059 1.762 3.977 2.246l1.601.406h10.145c7.45-.004 10.477-.062 11.402-.218.692-.118 1.278-.235 1.301-.254.055-.055-.625-6.22-.691-6.29-.032-.027-.578.047-1.215.165-.863.164-3.516.218-10.328.218H62.22l-.45-.445c-.335-.332-.472-.668-.535-1.3-.082-.848-.078-.856.407-.86.851-.008 14.597-1.281 14.675-1.36.094-.09-.476-5.64-.586-5.738-.066-.054-9.554.735-13.562 1.125l-.973.098v-3.688h17.758l-.113.461c-.063.254-.403 1.27-.758 2.262-.352.988-.59 1.828-.523 1.863.066.04 1.472.399 3.129.801 2.59.633 3.03.7 3.167.485.461-.72 4.051-10.372 4.051-10.895 0-.059-1.023-.32-2.277-.582l-2.274-.477-11.418.028L60.52 68v-2.54h22.652v-6.042H60.52v-4.027h-7.778v12.59H36.684l-.004 8.265c-.004 14.207-.325 18.906-1.63 23.793-.976 3.668-2.59 6.902-4.991 10.016-.102.129.144.36.785.722 1.054.602 3.683 2.59 4.308 3.262.227.242.493.418.594.383.098-.031.8-.918 1.566-1.973m48.207.882c2.062-.86 3.199-2.41 3.902-5.328.293-1.207.844-4.91.848-5.707.003-.098-.395-.281-.883-.402-1.375-.348-3.848-1.313-4.715-1.84l-.781-.48-.106.76a16 16 0 0 0-.105 1.79c0 1.46-.301 3.754-.594 4.547-.395 1.066-.66 1.156-3.691 1.23-3.317.078-4.758-.058-5.196-.492-.308-.305-.324-.64-.324-6.613V94.5h-7.477l.086 7.094c.07 5.976.13 7.246.371 8.086.676 2.36 2.247 3.562 5.247 4.011.277.043 3.207.063 6.507.047 5.809-.027 6.028-.043 6.91-.406m0 0"/>
</svg>
