<svg xmlns="http://www.w3.org/2000/svg" width="120" height="120" viewBox="0 0 120 136">
    <path stroke="red" stroke-width=".004" d="m76.382 43.228-.965 5.924L75 51.709l-2.003 12.293h22.006L94.677 62 93 51.709l-.417-2.557-.965-5.924v-.03h-.007L91 42.78l-2-1.367-5-3.416-5 3.416-2 1.367-.61.417h-.008v.031M93 42l1.192 7.152L96.332 62l.335 2.002.255 1.534L97 66H71l.078-.464 2.73-16.384L75 42l1.382-.921.618-.413 5.52-3.68h.001L84 36l7 4.666.618.413L93 42m-3.532 6.127.13.046.972.346-.159.633-.072.286-.227.688-.056.17-.333.796-.056.108-.324.631-.424.682-.465.626.155.11.012.008.104.072.102.072.035.021.16.098.2.124.414.224.434.202.042.016.413.164.336.111.046.015.039.013.032.01.022.008-.189.194-.196.237-.194.263-.183.273-.126.205-.037.06-.023.042-.11.2-.506-.196-.483-.222-.31-.167-.148-.08-.435-.268-.41-.294-.262-.215-.06-.05-.044-.035-.02-.017-.378.3-.391.278-.406.256-.073.041-.149.084-.199.112-.435.217-.428.189-.015.006-.007.004.076.218.037.107.034.106.033.103.03.1h5.059v1.67h-3.384l1.223.265-.116.333-.118.33-.117.324-.117.318-.114.31-.112.298h3.46V62H77v-1.694h3.494l-.066-.29-.088-.309-.107-.32-.124-.325-.138-.319-.15-.303 1.092-.312h-3.185v-1.67h5.412l-.039-.12-.041-.122-.027-.076-.015-.044-.044-.119-.043-.118-.044-.116h-5.534V48h6.316v1.371h-1.708v.818h1.609v3.319h-1.61v.864h1.764v.818l.244-.064.33-.086-.08-.125-.086-.122-.071-.094-.017-.022-.073-.09-.003-.003-.012-.015-.085-.098-.08-.087.177-.069.237-.092.403-.182.39-.205.378-.227.362-.252.137-.109.071-.058.067-.053.003-.002.067-.054-.067-.096-.242-.35-.29-.47-.27-.496-.226-.469-.025-.052-.232-.543-.213-.565.827-.22h-1.07v-1.647h4.873l.32-.046M82.313 59.96l-.393.119-.753.227H85.4l.12-.358.116-.368.111-.371.104-.37.094-.362.071-.299.012-.05H81.63l.159.307.131.285.015.032.128.318.107.313.085.3.058.277m5.578-9.02.197-.358.18-.372.163-.39H86.04l.153.39.17.372.19.358.155.26.049.083.223.33.24.316.237-.317.224-.33.05-.082.16-.26m-5.93 1.335v-.853h-2.954v.853h2.955m-2.955-2.904v.818h1.378v-.818h-1.378m1.378 4.137h-1.378v.864h1.378Zm0 0" transform="matrix(4.29492 0 0 4.26451 -300.644 -149.258)"/>
    <path fill="#f9f9f9" d="M13.094 122.91c.058-.347 3.324-20.25 7.261-44.234 3.934-23.985 7.184-43.633 7.22-43.668.292-.27 32.394-21.969 32.523-21.98.218-.024 32.562 21.91 32.644 22.136.094.262 14.434 87.797 14.434 88.106 0 .246-3.864.27-47.094.27H12.988Zm75.656-11.457v-3.691h-7.371c-6.953 0-7.363-.016-7.25-.293.203-.492 2.57-6.985 2.695-7.383.13-.418.258-.367-2.527-.984l-1.692-.375 6.805-.016 6.805-.012V91.48H64.477l-.422-1.289-.422-1.293 2.648-1.3c2.559-1.262 5.266-2.926 6.992-4.301l.836-.668 1.442 1.094c1.972 1.496 3.496 2.445 5.594 3.488 1.484.742 4.23 1.918 4.472 1.918.035 0 .352-.473.7-1.047.945-1.578 2.046-3.11 3.074-4.289.507-.582.894-1.078.859-1.106-.035-.027-.785-.292-1.668-.59-3.348-1.132-9.336-4.402-9.023-4.929.066-.113.445-.629.84-1.14 2.44-3.18 5.218-8.633 6.558-12.876.727-2.304 1.484-5.453 1.34-5.582-.078-.066-1.125-.453-2.336-.855l-2.195-.735-22.57.094v7.207l3.804.024-1.184.328c-.652.18-1.277.36-1.39.402-.633.219 3.332 8.524 5.636 11.8.407.583.743 1.122.743 1.196 0 .215-1.274 1.203-2.875 2.235-1.551 1-3.868 2.187-5.496 2.812-.555.215-1.079.45-1.164.52-.083.074.187.511.593.976.41.461.88 1.067 1.043 1.344l.301.504-.64.164a63 63 0 0 1-1.102.281l-.465.11v-3.395h-7.61v-3.523h6.93V64.625h-6.93v-3.191h7.438V55.39H31.441v33.234l23.899.086.469 1.258c.257.691.472 1.316.476 1.386.004.067-5.203.125-11.57.125H33.133v7.22l6.469.007 6.464.012-1.91.558c-1.05.305-1.945.59-1.988.633s.227.719.598 1.504c.687 1.461 1.718 4.356 2.004 5.633l.16.715H29.922v7.386H88.75Zm0 0"/>
    <path fill="#f9f9f9" d="M38.71 63.027v-1.593h5.75v3.191h-5.75Zm0 8.813v-1.676h12.513v3.356H38.71Zm0 8.98v-1.76h5.75v3.523h-5.75ZM73 70.71a39 39 0 0 1-1.645-2.503c-.77-1.297-2.21-4.375-2.214-4.715 0-.164 1.097-.21 4.914-.21h4.914l-.117.374c-.184.586-1.723 3.621-2.407 4.742-.554.918-2.101 3.172-2.39 3.489-.067.07-.543-.457-1.055-1.176m-21.977 36.41 1.918-.601-.113-.747c-.164-1.082-1.031-3.558-1.883-5.378-.406-.868-.738-1.606-.738-1.637 0-.035 4.148-.059 9.215-.059 7.258 0 9.21.043 9.21.207 0 .39-1.198 4.723-1.878 6.801l-.672 2.055-8.488-.02-8.485-.015Zm0 0"/>
    <path fill="#f9f9f9" d="M13.078 123.09c.09-.434.309-1.742.508-2.992.043-.278.309-1.899.59-3.61.281-1.707.547-3.332.594-3.605.043-.278.308-1.903.59-3.61.28-1.71.554-3.41.609-3.785.054-.37.136-.863.183-1.09.067-.34.418-2.441 1.153-6.96.043-.278.308-1.899.59-3.61.28-1.707.546-3.332.593-3.605.043-.278.313-1.903.594-3.61.281-1.71.555-3.41.61-3.785.05-.371.132-.863.18-1.09a315 315 0 0 0 1.003-6.129c.05-.37.129-.863.176-1.09.129-.632 1.058-6.207 1.148-6.874.047-.325.317-1.946.602-3.61.285-1.66.558-3.36.61-3.777.05-.414.128-.942.175-1.172.14-.707.91-5.25.992-5.875.047-.324.621-3.8 1.285-7.723.66-3.922 1.235-7.398 1.278-7.722.074-.582.328-1.918.5-2.641.05-.21.16-.379.242-.379.086 0 .75-.418 1.476-.93.727-.511 1.934-1.336 2.676-1.832s2.266-1.523 3.38-2.289a1828 1828 0 0 1 7.284-4.937c.953-.645 2.633-1.77 3.735-2.496 1.097-.723 2.023-1.387 2.054-1.469.032-.082.121-.148.2-.148.183 0 2.937-1.872 3.011-2.047.031-.075.137-.133.23-.133.2 0 2.9-1.856 2.985-2.05a.24.24 0 0 1 .211-.134c.086 0 1.254-.726 2.594-1.613l2.441-1.613.52.367c.28.2.515.305.52.226 0-.074.058-.046.132.067.152.242 9.805 6.762 10.008 6.762.078 0 .164.066.195.144s.742.586 1.578 1.133c.836.543 1.606 1.066 1.707 1.16.102.094.825.586 1.606 1.094.781.504 1.445.976 1.476 1.043.032.07.16.129.282.129.125 0 .254.062.285.14s.625.512 1.324.965c.695.453 1.293.88 1.324.95s.156.124.281.124c.122 0 .25.063.282.137.078.192 6.027 4.227 6.23 4.227.09 0 .164.078.164.168 0 .093.082.168.184.168.097 0 .293.113.43.25.136.136.91.699 1.718 1.254 2.426 1.66 2.324 1.523 2.64 3.53.153.973.317 2.028.364 2.352.11.739 1.059 6.32 1.168 6.875.047.227.129.72.18 1.09.055.375.328 2.078.61 3.785.28 1.707.546 3.332.593 3.61.11.683 1.078 6.59 1.184 7.218.046.274.304 1.864.574 3.524.273 1.66.531 3.207.578 3.433.047.227.129.72.18 1.09.054.375.328 2.078.609 3.785s.547 3.332.594 3.61c.043.277.308 1.898.59 3.61.28 1.706.546 3.331.593 3.609.043.273.309 1.898.59 3.605.281 1.711.547 3.332.59 3.61a636 636 0 0 0 1.156 6.968c.047.23.13.758.18 1.172.082.707.82 5.113 1.008 6.043.047.23.125.762.175 1.176.051.414.649 4.156 1.329 8.308.742 4.54 1.175 7.621 1.082 7.723-.098.11-16.075.184-47.07.223l-46.919.054Zm75.672-11.625v-3.68l-7.168-.055c-3.945-.027-7.223-.105-7.289-.168-.113-.113.133-.882 1.027-3.242.243-.644.512-1.394.594-1.664.086-.273.36-1.015.61-1.652.523-1.324.511-1.348-.876-1.633-3.003-.621-2.867-.644 4.016-.66l6.55-.012V91.48l-10.859-.003H64.492l-.39-1.278c-.215-.699-.368-1.293-.336-1.316.027-.024 1.207-.625 2.617-1.336 2.34-1.184 5.472-3.07 6.453-3.883.215-.18.547-.457.742-.617.41-.348.695-.371 1.004-.086.277.262 1.809 1.39 2.926 2.16 2.344 1.613 7.754 4.2 8.203 3.926.102-.067.258-.281.344-.48.172-.391.527-.981.672-1.114.05-.047.351-.5.671-1.008.32-.507.625-.96.676-1.007.196-.168 2.2-2.66 2.2-2.735 0-.039-.704-.32-1.567-.621-1.887-.66-5.191-2.203-6.777-3.16-.637-.387-1.211-.703-1.278-.703s-.332-.219-.59-.485l-.472-.488 1.246-1.82a86 86 0 0 0 1.953-2.996c.992-1.653 3.008-5.89 3.445-7.25.2-.63.41-1.22.465-1.313.059-.09.11-.203.121-.25.008-.047.059-.199.114-.336.539-1.383 1.527-5.558 1.359-5.722-.074-.07-1.16-.48-2.414-.91l-2.285-.778-11.2.117-11.199.121v7.172l1.735.016 1.73.02-1.152.343-1.153.348.09.601c.11.746.664 2.102 1.782 4.336.472.95.859 1.758.859 1.801 0 .207 2.965 5.29 3.187 5.461.059.043.204.25.317.453.183.328.156.426-.254.809-1.29 1.21-4.984 3.351-7.816 4.523-.606.25-1.157.508-1.227.574-.07.067.328.72.887 1.454l1.015 1.332-.633.187a45 45 0 0 1-1.097.297l-.465.11v-3.364h-7.61v-3.523h6.93V64.625h-6.93v-3.191h7.438V55.39H31.441v33.18l8.653.113c4.758.058 10.11.109 11.894.109 2.403 0 3.29.055 3.407.21.253.337.765 2.161.644 2.282-.062.063-5.242.137-11.508.172l-11.398.059v7.183l12.594.024-1.758.574c-.969.316-1.785.598-1.817.629-.03.031.254.77.633 1.64.8 1.829 2.184 5.883 2.07 6.07-.042.067-3.421.126-7.503.126h-7.43v7.386H88.75Zm0 0"/>
</svg>
