<svg xmlns="http://www.w3.org/2000/svg" width="120" height="120" viewBox="0 0 120 136">
    <path fill="red" stroke="red" stroke-width=".004" d="m-63.618 75.228-1.09 6.692-.292 1.789-2.003 12.293h22.006L-45.323 94-47 83.709l-.291-1.79-1.091-6.69v-.032h-.007L-49 74.78l-2-1.367-5-3.416-5 3.416-2 1.367-.61.417h-.008v.031M-69 98l2.68-16.08L-65 74l1.382-.921.618-.413 5.52-3.68h.001L-56 68l7 4.666.618.413L-47 74l1.32 7.92L-43.667 94l.334 2.002L-43 98h-26m15.605-16.305-.08.225-.033.095v.003l-.118.313H-49v.045l-.001.118-.002.163-.004.179-.006.166-.01.127-.065 3.084-.064 2.086-.01.325-.078 1.488-.017.33-.126 1.305-.171.873-.226.522-.177.235-.181.182-.19.137-.201.1-.219.072-.24.05-.212.037-.044.007-.29.026-.316.01-.338.002h-.036l-.316-.007-.12-.003-.11-.003-.066-.002-.042-.002h-.023l-.025-.262-.053-.29-.079-.306-.102-.305-.088-.206-.036-.084-.145-.262.181.011.168.01.328.017.3.01.228.003h.038l.226.002h.18l.114-.004.1-.014.093-.029.085-.045.08-.066.003-.003.074-.087.031-.073.128-.303.127-.707.083-.878.019-.206.08-1.507.068-1.978.01-.405.048-2.09h-3.693l-.021.042-.118.225-.142.256-.143.248-.145.24-.144.233-.144.225h3.605v4.952h-2.704v.809h-1.406v-5.2l-.183-.175-.218-.2-.239-.209-.245-.203-.235-.18-.138-.095-.072-.049.51-.628.16-.25.308-.477.423-.805.152-.354.136-.313.042-.098.042-.098.315-.902.253-.92 1.692.388-.095.329-.1.328-.103.327-.108.323m-3.55-1.123v1.446h-1.57v.992h1.35v1.317h-1.35v.895h1.394v1.295h-1.395v.949h1.714v.031l-.001.079-.002.112-.004.125-.006.123-.009.102-.045 1.61-.019.464-.033.807-.067.971-.087.71-.115.482-.15.297-.004.004-.106.146-.119.118-.13.089-.142.066-.155.045-.169.028-.17.028-.033.003-.161.017-.21.013-.223.006-.231.002-.2-.004h-.036l-.016-.215-.036-.23-.053-.233-.07-.23-.082-.216-.088-.18-.003-.007-.003-.005.186.018.173.012.029.001.127.007.137.003.115.002h.09l.078-.002.07-.006.065-.016.06-.03.056-.044.056-.064.041-.094.037-.133.023-.118.011-.062.032-.232.013-.116.019-.175.032-.354-.538.194-.069-.279v-.006l-.088-.318-.1-.338-.11-.343-.006-.019-.111-.316-.04-.103-.081-.21.08-.027.547-.188.1.236.096.25.095.255.037.103.054.154.087.251.078.233.002.007.007-.253.01-.275.004-.117.007-.18.01-.315.01-.337.007-.357h-3.978v-8.35h5.275m-3.45 9.051.008-.002.717-.116.096.407.042.2.049.225.082.43.009.051.054.317.008.047.058.39.041.35-.161.031-.563.115-.015.003-.008.001-.042-.356-.057-.401-.03-.18-.04-.247-.077-.436-.067-.34-.017-.087-.088-.402m-.164.054.034.434.001.012.03.473.024.48.002.06.015.414.011.445.001.164.002.237-.738.091-.042.006.005-.334v-.072l-.003-.45-.013-.48v-.022l-.02-.467-.026-.48-.005-.077-.026-.38.748-.054m-1.66-.196.747.25-.043.38-.018.152-.074.574-.086.588-.098.574-.109.53-.12.461-.822-.281-.054-.018-.043-.015-.036-.013-.024-.008.138-.466.127-.529.114-.565.1-.578.06-.406.023-.158.064-.524.154.052m9.242-2.63h-1.308v2.04h1.308v-2.04m-6.89-4.834h-.945v.992h.945v-.992m0 2.309h-.945v.895h.945v-.895m-.945 2.19v.949h.945v-.949Zm0 0" transform="matrix(4.29492 0 0 4.26451 300.644 -285.722)"/>
    <path fill="#f9f9f9" d="M13.02 123.414c.011-.344 14.5-88.355 14.554-88.406.293-.27 32.395-21.969 32.524-21.98.218-.024 32.562 21.91 32.644 22.136.094.262 14.434 87.797 14.434 88.106 0 .246-3.864.27-47.078.27-25.895 0-47.078-.056-47.078-.126m68.488-8.504c2.152-.41 3.12-.867 4.27-2.008.8-.797 1.16-1.328 1.59-2.343 1.534-3.645 2.19-12.008 2.648-33.852.05-2.445.136-6.016.195-7.93l.102-3.484H80.39c-7.875 0-9.907-.043-9.836-.207.27-.645 2.449-7.34 2.5-7.68.058-.394-.024-.422-3.493-1.21-1.949-.442-3.628-.778-3.73-.739s-.316.586-.484 1.219c-1.86 7.035-4.97 13.523-8.68 18.097l-1.086 1.34.395.254c.851.555 2.937 2.27 4.128 3.395l1.258 1.187v22.114h6.258v-3.36h11.496V78.387h-7.61c-4.183 0-7.605-.032-7.605-.07 0-.036.52-.922 1.153-1.97a103 103 0 0 0 1.73-2.952l.574-1.051h15.645v2.058c0 1.13-.078 4.621-.168 7.762-.535 18.438-1.191 24.07-2.938 25.305-.437.312-.796.379-2.218.426-.93.027-2.778-.008-4.102-.082s-2.41-.079-2.41-.004c0 .074.203.527.45 1.007.652 1.278 1.218 3.028 1.503 4.633.137.774.246 1.473.246 1.551 0 .25 6.758.176 8.14-.09m-31.043-.16c2.3-.344 3.422-1.07 4.308-2.793.922-1.797 1.364-5.777 1.684-15.191.094-2.77.219-6.075.273-7.344l.102-2.305h-7.469v-3.863h6.086v-5.707h-6.086v-3.524h5.914v-5.875h-5.914v-4.027h6.762v-6.379h-22.82v35.75h17.07v1.485c0 .816-.047 2.414-.11 3.546l-.113 2.059-.566-1.57c-.7-1.934-1.594-4.176-1.668-4.176-.14 0-2.54.902-2.648.992-.067.059.21 1.047.613 2.2a75 75 0 0 1 1.293 4.109c.308 1.11.574 2.039.59 2.066.02.024.535-.14 1.152-.371l1.121-.422-.098.961c-.195 1.89-.597 3.98-.836 4.344-.375.566-1.257.722-3.402.61l-1.922-.106.36.808c.5 1.125.964 2.797 1.097 3.965l.11.988 1.797-.003c.988 0 2.48-.102 3.32-.227m-15.688-5.492c.606-2.504 1.907-10.77 1.907-12.094 0-.203-.536-.469-1.97-.973-1.081-.379-1.98-.671-1.995-.644-.02.023-.203 1.254-.41 2.73-.48 3.407-1.079 6.52-1.73 8.973a121 121 0 0 0-.54 2.07c-.035.157 3.906 1.621 4.191 1.555.094-.02.34-.746.547-1.617m4.813-.68 1.488-.187v-2.493c0-2.543-.273-8.136-.437-8.863-.086-.398-.094-.398-1.72-.285-.894.063-1.644.129-1.663.148-.02.02.027.942.105 2.051.075 1.11.192 3.77.258 5.918.082 2.528.184 3.903.3 3.903.099 0 .849-.086 1.669-.192m6.703-2.25c.172-.16-.805-5.96-1.52-9.016-.312-1.347-.37-1.46-.707-1.386-.203.047-.898.164-1.546.261-.649.098-1.211.211-1.25.25-.043.043.164 1.305.46 2.805.293 1.5.696 3.867.895 5.262l.363 2.531 1.621-.324c.895-.18 1.653-.352 1.684-.383m0 0"/>
    <path fill="#f9f9f9" d="M39.559 66.133V64.12h3.886v4.027H39.56Zm0 9.652v-1.762h3.886v3.524H39.56Zm0 9.399v-1.93h3.886v3.863H39.56Zm28.062 3.863v-4.281h5.41v8.562h-5.41Zm0 0"/>
</svg>
