<svg xmlns="http://www.w3.org/2000/svg" width="120" height="120" viewBox="0 0 120 136">
    <path fill="red" stroke="red" stroke-width=".004" d="m-91.618 75.228-1.09 6.692-.292 1.789-2.003 12.293h22.006L-73.323 94-75 83.709l-.291-1.79-1.091-6.69v-.032h-.007L-77 74.78l-2-1.367-5-3.416-5 3.416-2 1.367-.61.417h-.008v.031M-97 98l2.68-16.08L-93 74l1.382-.921.618-.413 5.52-3.68h.001L-84 68l7 4.666.618.413L-75 74l1.32 7.92L-71.667 94l.334 2.002L-71 98h-26m19.831-16.37v1.554h-7.422V81.63h3.03l-.066-.203-.07-.206-.073-.206-.074-.203-.075-.196v-.003l-.075-.18.074-.022 1.466-.41.002-.001.11.258.12.273.12.28.117.28.111.277.097.262h2.608m-8.33.194-.04.096-.099.234-.151.337-.162.34-.065.13-.105.208-.177.332-.183.32h1.446v6.077h-5.173v-4.749l-.131-.124-.135-.12-.137-.112-.134-.102-.127-.088-.044-.026-.073-.043.486-.697.391-.7.025-.045.35-.774.146-.398.141-.381.08-.265.15-.497.173-.723 1.353.188.041.006-.004.021-.031.147-.041.17-.037.144-.007.027-.047.172-.049.172-.048.173h1.256l.264-.097.38.275.108.077.14.101.27.194m7.844 2.256v4.588h-2.196v3.54l-.012.355-.009.065-.033.238-.079.256-.122.213-.171.176-.228.144-.255.11-.136.035-.153.04-.326.047-.112.007-.123.01-.129.008-.18.004-.223.006h-.265l-.06.002h-.118l-.037-.225-.054-.24-.069-.246-.08-.245-.089-.237-.03-.07-.063-.149v-.002l-.059.113-.057.11-.056.108-.055.105-.052.102-.04.079-.005.012-.004.008-.15-.12-.181-.131-.2-.135-.102-.066-.038-.024-.068-.043-.207-.125-.194-.11-.963.411-.019.009-.06-.332-.076-.32-.012-.05-.115-.391-.134-.402-.15-.396-.012-.028-.148-.348.148-.055.855-.323.132.3.13.323.123.334.113.334.098.325.08.305.228-.421.227-.456.062-.136.158-.347.206-.496.045-.12.14-.38.158-.493 1.341.398.116.034-.116.326-.04.114-.003.006-.178.459-.192.463-.2.457-.202.443-.104.22-.095.2.26.004.25.003.232.002.202.001h.271l.08-.004.06-.013.043-.025.028-.038.016-.054.005-.071v-3.497h-2.545V84.08h6.377m-.298 5.714.124.318.005.013.098.251.218.588.2.576.171.544.137.491-.824.287-.502.175-.041.015-.035.012-.033.011-.022.008-.114-.493-.156-.554-.187-.592-.205-.603-.214-.592-.052-.137-.16-.42 1.362-.452.23.554m-7.916 3.353-.147.037-.864.221-.028.008-.017.004-.04-.393-.068-.445-.077-.419-.011-.057-.103-.49-.112-.481-.116-.457.01-.002 1.003-.224.124.45.118.472.106.48.062.31.013.066.018.091.075.438.054.39m-1.636.401-.559.086-.517.08-.021.003-.016.002-.006.001v-.445l-.007-.49-.016-.522-.004-.102-.02-.43-.031-.523-.04-.5h.01l.668-.083.379-.046.05.497.044.52.036.524.002.041.025.471.017.481.006.435m-2.102-.008-.18.46-.325-.135-.61-.255-.075-.032-.068-.027-.056-.024-.048-.02-.031-.013.194-.448.18-.509.163-.546.145-.563.124-.557.082-.425.02-.104 1.16.399-.102.547-.121.577-.07.296-.066.287-.15.566-.166.526m1.809-9.897.094-.189.09-.2.09-.207.088-.215.089-.219h-1.024l-.085.204-.086.203-.088.202-.091.2-.097.2-.102.2h1.024l.098-.18m5.878 2.004h-.591v1.458h3.23v-1.458h-2.639m-4.456-.431h-.728v1.003h.728v-1.003m-2.544 0v1.003h.697v-1.003h-.697m1.816 3.28h.728v-.981h-.728v.982m-1.119-.982h-.697v.982h.697Zm0 0" transform="matrix(4.29492 0 0 4.26451 420.902 -285.722)"/>
    <path fill="#f9f9f9" d="M13.02 123.414c.011-.344 14.5-88.355 14.554-88.406.293-.27 32.395-21.969 32.524-21.98.218-.024 32.562 21.91 32.644 22.136.094.262 14.434 87.797 14.434 88.106 0 .246-3.864.27-47.078.27-25.895 0-47.078-.056-47.078-.126m23.12-10.324c1.16-3.36 3.09-11.602 2.786-11.895-.156-.148-4.563-1.66-4.848-1.66-.121 0-.445 1.137-.824 2.899-.871 4.05-1.86 7.218-3.262 10.449-.07.164 4.668 2.226 5.18 2.25.187.012.465-.574.969-2.043m36.524 1.457c2.398-.442 4.07-1.54 4.758-3.117.558-1.297.668-3.149.676-11.43l.004-7.512h9.296V72.68H59.844v19.808h10.988v7.602c0 5.691-.05 7.656-.203 7.805-.14.14-1.04.203-2.957.203-1.516 0-2.758-.024-2.758-.055 0-.027.492-1.121 1.094-2.422 1.648-3.586 3.777-8.871 3.62-9.004-.194-.164-6.116-1.797-6.284-1.73-.114.039-.422.746-.688 1.566-.734 2.25-1.851 4.899-3.273 7.754l-1.285 2.574-.465-1.566c-.703-2.383-2.13-6.184-2.426-6.477-.07-.07-4.191 1.461-4.348 1.614-.058.058.23.937.645 1.953.8 1.965 1.746 5.027 2.09 6.757.113.579.265 1.051.34 1.051.074 0 1.03-.383 2.129-.851l1.996-.848.683.371c.371.203 1.496.926 2.5 1.602l1.817 1.234.62-1.25c.344-.687.68-1.215.747-1.172.191.117 1.293 3.555 1.52 4.739l.199 1.054 2.64-.11c1.45-.062 3.195-.21 3.88-.335m-30.234-.824c.886-.137 1.867-.297 2.183-.348l.575-.098-.106-3.136c-.102-2.973-.586-9.438-.719-9.579-.097-.101-4.261.36-4.48.493-.145.09-.149.84-.012 2.953.102 1.555.234 4.437.297 6.398.102 3.117.148 3.567.387 3.567.148 0 .992-.114 1.875-.25m9.703-2.836c-.48-3.239-2.098-10.551-2.41-10.887-.067-.066-.38-.055-.703.031-.325.082-1.32.313-2.22.508l-1.628.36.234.87c.727 2.692 1.633 7.305 2.012 10.208l.098.777 4.718-1.172Zm34.926-.621c1.629-.563 3.023-1.086 3.105-1.16.395-.372-4.465-13.989-5.078-14.22-.117-.042-1.504.344-3.078.868l-2.871.95.437 1.124c1.48 3.828 3.317 9.516 4.114 12.746.093.39.226.711.292.711.063 0 1.45-.457 3.079-1.02M55.785 84.684V71.672H52.73c-1.683 0-3.03-.055-3-.125.028-.07.493-.926 1.028-1.906.93-1.704 2.664-5.375 2.902-6.133.094-.313-.152-.551-1.797-1.735-1.593-1.144-1.976-1.351-2.332-1.25-.23.063-1.703.149-3.273.192-2.309.058-2.832.027-2.762-.153.242-.624 1.02-4 .938-4.078-.051-.047-1.41-.273-3.028-.504-2.086-.292-2.968-.355-3.05-.226-.063.101-.211.648-.329 1.21-1.02 4.9-3.867 11.692-6.539 15.614-.699 1.024-1.3 1.95-1.343 2.05-.04.106.32.47.796.81.48.343 1.207.93 1.618 1.304l.746.68v20.27h22.48Zm33.813-18.97v-3.44H78.3l-.25-.735c-.246-.715-2.48-5.992-2.598-6.133-.07-.086-6.523 1.668-6.668 1.813-.058.058.297 1.199.79 2.535l.886 2.437-12.984.086v6.88h32.12Zm0 0"/>
    <path fill="#f9f9f9" d="M39.219 71.59c0-.05.218-.528.488-1.055.266-.527.77-1.62 1.117-2.43l.633-1.468h4.164l-.5 1.218a50 50 0 0 1-1.129 2.477l-.633 1.258-2.07.047c-1.137.027-2.07.004-2.07-.047m-.169 8.223v-2.098h2.876v4.2H39.05Zm7.778 0v-2.098h3.043v4.2h-3.043Zm0 9.82V87.62h3.043v4.027h-3.043Zm-7.778 0V87.62h2.876v4.027H39.05Zm27.555-7.051v-3.02h13.692v6.043H66.605Zm0 0"/>
</svg>
