<svg xmlns="http://www.w3.org/2000/svg" width="120" height="120" viewBox="0 0 120 120">
    <path fill="red" stroke="red" stroke-width=".004" d="m33.89 38.108.018.292.04.296.047.216.016.078.088.29.038.096.057.143.015.039.065.129.03.059.016.032.01.023.013.024-.315-.023-.287-.016-.257-.005-.23.001-.198.007-.167.014-.092.02-.03.009-.054.019-.076.037-.067.047-.058.057-.054.07-.135.276-.108.425-.03.197-.052.355-.06.659-.037.739-.007.296v.03l-.012.456v.02l.306-.378.11-.128.202-.24.132-.145.187-.204.322-.328.323-.302.24-.2.037-.032.02-.017.017-.014.01-.008.12.234.15.26.172.272.18.269.018.023.137.187.03.039.069.086.066.082.038.048-.512.37-.512.449-.498.514-.468.565-.1.14-.046.064-.278.397-.364.62.04.273.046.272.052.268.033.153.026.113.065.266.053.2.018.065.062-.066.194-.209.053-.052.206-.204.121-.113.14-.13.258-.23.257-.216.226-.187.017-.015.006-.004.129.25.15.277.152.255.017.031.182.282.186.263.074.091.036.044.028.035.023.028.016.02.009.01-.295.202-.3.224-.306.243-.305.26-.304.276-.042.04-.257.246.186.284.201.281.219.278.234.278.25.275.267.277-1.24.929-.234-.223-.221-.224-.086-.092-.123-.134-.195-.228-.185-.229-.172-.231-.159.2-.05.067-.101.131-.145.2-.136.198-.124.196-.114.195-.543-.342-.792-.5.18-.295.117-.18.08-.121.211-.308.204-.283.018-.025.232-.307.239-.306-.003-.008-.019-.049-.3-.78-.237-.846-.07-.373-.09-.49-.1-.877-.038-.68-.012-.212-.015-.908v-.033l-.604.307-.594.335-.455.282-.128.08-.16.108-.06.04-.35.235-.55.41-.532.427h3.165v1.554h-2.93v1.274h2.198v1.554h-2.197v1.48h-1.713v-1.48h-1.873v-.647l-.17.27-.164.272-.159.273-.15.275-.145.275-.139.275-.005-.002-1.61-.548.302-.577.324-.566.342-.553.07-.105.29-.436.374-.524.386-.51h-2.077v-1.554h3.445l.12-.127.066-.07.188-.19.192-.185.196-.182.199-.18.157-.137.046-.04h-3.845V38h1.755v.56h3.102V38h1.67v5.03l.192-.119.178-.108.012-.006.191-.115.192-.11.197-.108.184-.095.008-.004.006-.003.004-.001.104.15.13.179.147.196.093.122.065.084.163.204.157.196.016-.484.014-.472.062-.922.077-.655.025-.203.152-.77.05-.156.158-.498.226-.42.05-.093.111-.148.128-.128.144-.11.157-.089.171-.07.183-.048.276-.06.288-.04.154-.013.147-.01.313-.011.325.003.267.01.05.002h.022M41 34l-3.8 22.802L37 58l-7.52 5.013L28 64l-7.225-4.815L19 58l-.199-1.197L15 34.001h26M24.514 48.52l-.166.217-.16.219h1.227v-1.274h-.171l-.192.206-.186.21-.179.21-.111.135-.062.077m-7.518-12.522L19 48.291l1.383 8.481v.031h.008l7.61 5.2 7.611-5.2h.007v-.031l.778-4.771.604-3.71 2.003-12.293H16.996m9.636 3.999H23.53v1.112h3.102v-1.112m-2.056 2.514H23.53v1.058h3.102v-1.058Zm0 0" transform="matrix(3.78963 0 0 3.7628 -45.996 -124.173)"/>
    <path fill="#f9f9f9" d="M45.766 99.285a5552 5552 0 0 1-14.375-9.77c-.032-.027-2.899-17.363-6.371-38.523-3.473-21.164-6.356-38.73-6.407-39.031l-.093-.555h41.554c38.32 0 41.551.016 41.551.239 0 .273-12.652 77.507-12.738 77.742-.043.117-28.38 19.441-28.715 19.582-.047.015-6.531-4.336-14.406-9.684M56.879 68.72v-2.813h8.351v-5.922h-8.35v-4.593h11.039v-6.07l-5.856-.005-5.855-.007.45-.375c2.398-2.016 6.546-4.766 9.991-6.633 1.723-.934 2.098-1.086 2.122-.871.015.144.101 1.73.187 3.52.297 6.23.992 10.085 2.547 14.112.324.84.59 1.59.59 1.665 0 .078-.551.859-1.223 1.734-1.172 1.535-3.558 5.035-3.543 5.21.004.075 2.617 1.731 4.617 2.93l.547.329.903-1.364a41 41 0 0 1 1.562-2.203l.66-.843.762.992c.98 1.27 3.594 4.023 3.82 4.02.094-.005 1.227-.79 2.512-1.75l2.336-1.747-1.188-1.3c-1.445-1.57-2.714-3.145-3.402-4.22l-.52-.8 1.126-1.067c1.226-1.164 3.816-3.257 4.937-3.984.387-.254.707-.488.707-.531s-.394-.602-.883-1.25c-.734-.973-2.703-4.211-2.89-4.75-.075-.215-1.989 1.37-4.082 3.383l-1.817 1.754-.152-.57a45 45 0 0 1-.832-3.848l-.235-1.356.692-1.16c2.203-3.707 5.535-7.45 8.66-9.719l1.215-.887-.938-1.257a42 42 0 0 1-1.879-2.832c-.52-.868-.964-1.602-.984-1.633-.164-.242-3.98 3.488-5.86 5.726-.69.828-1.273 1.489-1.292 1.47s.027-1.43.105-3.142c.281-6.335.973-9.402 2.262-10.101.418-.227.894-.266 3.43-.266 1.62 0 2.949-.043 2.949-.093s-.2-.516-.446-1.036c-.554-1.18-1.003-2.902-1.136-4.367l-.106-1.133-2.773.086c-5.098.157-6.695.844-8.172 3.516-1.45 2.629-2.27 6.91-2.566 13.441-.075 1.575-.168 2.895-.204 2.93-.043.043-.761-.832-1.601-1.934l-1.527-2.011-.989.547c-.543.3-1.472.836-2.062 1.187-.586.356-1.11.64-1.157.64s-.082-4.198-.082-9.327V18.81h-6.562v2.074H43.305V18.81h-6.86v26.51h14.348l-1.172 1.067a53 53 0 0 0-2.074 1.996l-.902.937H33.609v6.07h7.637l-.535.704a92 92 0 0 0-4.031 5.843c-1.18 1.872-3.278 5.606-3.188 5.665.024.02 1.434.5 3.133 1.078l3.09 1.043.691-1.278a96 96 0 0 1 1.68-2.953l.996-1.672.086 2.086h7v5.63h6.71Zm0 0"/>
    <path fill="#f9f9f9" d="M45.945 59.797c1.707-2.246 3.64-4.406 3.946-4.406.254 0 .277.16.277 2.297v2.296h-2.184c-1.718 0-2.148-.039-2.039-.187m-2.64-22.031v-1.922h11.488v3.847H43.305Zm0-9.332v-2.07h11.488v4.148H43.305Zm0 0"/>
</svg>
