<svg xmlns="http://www.w3.org/2000/svg" width="120" height="120" viewBox="0 0 120 120">
    <path stroke="red" stroke-width=".004" d="m91-26.858-.714 1.28-.174.496-.178.506-.142.408-.314 1.48-.173 1.491-.037.717-.038.721-.015 1.328v4.432H77.606v-1.862h9.768v-2.226h-7.42l-.352.067-.158-.067-1.122-.481.33-1.198.397-1.107.47-1.02.531-.935.595-.86.654-.783-.165-.105-.446-.284-.656-.352-.696-.318-.74-.279-.773-.24-.005-.002-.72-.178-.04-.009-.034-.009-.024-.006.213-.23.224-.281.224-.311.162-.245.052-.077.192-.315.156-.287.888.258.836.301.785.339.737.38.45.274.241.146.233.164.159.113.126.09.087.062.043.03.64-.449.675-.41.705-.374.737-.34.451-.183.312-.125.515-.18.115-.04.073-.026.043-.015.03-.01.016-.005.124.281.156.308.18.316.196.31.198.282.021.026.068.085.104.127-.104.03-.612.176-.69.243-.668.28-.077.039-.562.278-.614.354-.43.288-.013.01-.094.062-.05.033.522.64.482.691.446.737.313.6.096.184.373.83.12.309.217.564h.585l.036-.564.05-.799.163-1.417.26-1.424.121-.456.026-.097.225-.833.508-1.297.64-1.126.013-.022.008-.015.203.186.252.203.2.148.083.06.29.198.276.175.017.01.222.128M97-32 93.2-9.197 93-8l-7.52 5.013L84-2l-7.225-4.815L75-8l-.2-1.197L71-31.999h26M84.62-20.531l-.305-.59-.334-.562-.363-.536-.394-.508-.426-.477-.422.477-.391.506-.065.094-.296.438-.327.563-.293.59-.256.62h4.146l-.252-.564-.023-.051m-11.623-9.47L75-17.71l1.383 8.481v.031h.008l7.61 5.2 7.611-5.2h.007v-.031L92.397-14l.604-3.71 2.003-12.293Zm0 0" transform="matrix(3.78963 0 0 3.7628 -258.215 124.173)"/>
    <path fill="#f9f9f9" d="M45.766 99.285A8288 8288 0 0 1 31.39 89.52c-.051-.047-12.832-77.7-12.844-78.004 0-.063 18.691-.11 41.539-.11 38.133 0 41.539.016 41.539.239 0 .27-12.656 77.507-12.738 77.742-.043.117-28.38 19.441-28.715 19.582-.047.015-6.531-4.336-14.406-9.684m34.23-38.62c0-14.384.25-18.372 1.512-24.38.898-4.277 2.015-7.379 3.836-10.652.89-1.606 1.363-2.602 1.254-2.64-.418-.138-3.778-2.446-4.762-3.27l-1.074-.899L79.504 21c-2.906 5.04-4.953 12.063-5.91 20.324-.285 2.446-.602 6.301-.602 7.371l-.004.489-1.062-.043-1.067-.043-.703-1.778c-2.207-5.57-4.84-10.215-7.86-13.879-.519-.629-.94-1.203-.94-1.277 0-.144 2.214-1.613 3.652-2.414 2.562-1.434 6.285-2.977 9.324-3.852.86-.25 1.59-.472 1.613-.5.028-.023-.316-.535-.761-1.132-.907-1.22-2.485-3.875-2.871-4.828-.141-.348-.333-.63-.434-.63-.293 0-2.574.801-4.633 1.626-3.687 1.484-7.758 3.664-10.652 5.691-.524.371-.992.645-1.043.613l-2.246-1.476c-2.961-1.957-6.352-3.64-10.012-4.969-1.461-.531-4.656-1.484-4.969-1.484-.117 0-.465.449-.773.992-.79 1.402-2.035 3.191-3.14 4.508l-.946 1.132 1.601.395c5.407 1.336 11.149 3.793 14.633 6.246.028.02-.488.672-1.144 1.45-3.332 3.929-6.145 8.894-8.07 14.234-.91 2.523-2.008 6.449-1.848 6.593.066.063 1.168.559 2.453 1.102l2.336.988.86-.156c.573-.11 5.515-.16 14.706-.16H72.84v8.293H35.844v7.11h44.152Zm0 0"/>
    <path fill="#f9f9f9" d="M48.176 48.543c1.308-3.41 3.906-7.617 6.52-10.555l.874-.98.766.847c1.152 1.278 2.742 3.41 3.8 5.106.919 1.457 2.868 5.187 3.075 5.875l.102.336h-15.38Zm0 0"/>
</svg>
