<svg xmlns="http://www.w3.org/2000/svg" width="120" height="120" viewBox="0 0 120 120">
    <path stroke="red" stroke-width=".004" d="m34.371 72.502.266 1.226.074.343v.004l.001.003v.001l.001.002-.14.02-.18.027-.163.026-.18.029-.36.058-.378.063-.39.065-.155.023-.248.041v3.712h1.974v1.495h-1.974v1.09h1.136v.65l.12-.12.119-.114.118-.106.119-.104.12-.1.09-.073.015-.012.009-.006.006-.006.067.24.096.309.113.344.102.288.013.033.009.027.094.251.027.07.042.104.044.108.022.05-.556.44-.552.508-.533.567-.498.61-.094.136-.354.51-.38.667-.063-.03-1.228-.558.043-.091.087-.18.044-.09.05-.086.051-.085-.297-.18-.152-.091-.436-.283-.414-.286-.382-.285-.342-.274-.293-.256.65-1.306.078-.155.051.049.056.054.053.052.003.004.06.056.064.053.066.05V80.73h1.28v-1.09h-1.788v-1.495h1.787v-3.457l-1.112.2-.675.121-.092-1.28-.007-.107.911-.201.913-.196.902-.191.866-.183.007-.002.828-.178.77-.169m-.453 2.23.039.374.06.418.043.252.033.192.09.454.1.447.109.424-.012.004-1.069.316-.12-.428-.115-.45-.103-.455-.09-.444-.01-.06-.062-.355-.045-.311-.007-.058.007-.002 1.114-.308.024-.007.014-.003m-5.295-2.7V85.35H21V73.825l.004-.097.01-.27.044-.315.08-.268.12-.226.167-.186.215-.154.267-.111.307-.083.315-.05.038-.006.382-.034.017-.002.451-.018.135-.001.063-.001.15-.001h.07l.049-.001h.04l.034.236.057.275.075.291.092.29.103.268.104.212.005.01.004.007-.332-.012-.325-.005h-.303l-.265.002-.216.003h-.148l-.097.007-.072.02-.05.033-.035.053-.008.037-.008.034-.006.095v9.913h4.59V72.033h1.5m2.34 3.2-.106.37-.043.173-.06.243-.098.44-.09.448-.074.432-.06.401-1.254-.34v-.001h-.003l.138-.448.136-.45.133-.441.128-.419.123-.387.114-.34 1.003.315.012.004m-4.589-.469v5.356h-3.078v-4.598h2.008v-.758h1.07m.11 6.456v1.429h-3.299V81.22h3.299m6.217 1.196.067-.08.126-.145h-3.012l.281.239.301.24.257.19.063.047.33.234.342.231.284.186.021.015.017.01.015.01.008.006.166-.246.175-.241.18-.237.189-.232.19-.227M41 68.001l-3.8 22.802L37 92l-7.52 5.013L28 98l-7.225-4.815L19 92l-.199-1.197L15 68.001h26m-24.004 1.997L19 82.291l1.383 8.481v.031h.008l7.61 5.2 7.611-5.2h.007v-.031l.778-4.771.604-3.71 2.003-12.293H16.996m8.307 6.868h-.893v1.899h.893Zm0 0" transform="matrix(3.78963 0 0 3.7628 -45.996 -252.108)"/>
    <path fill="#f9f9f9" d="M45.766 99.285A8288 8288 0 0 1 31.39 89.52c-.051-.047-12.832-77.7-12.844-78.004 0-.063 18.691-.11 41.539-.11 38.133 0 41.539.016 41.539.239 0 .265-12.652 77.507-12.734 77.738-.043.117-28.387 19.445-28.723 19.586-.043.015-6.527-4.336-14.402-9.684m30.293-28.75c2.07-3.703 5.773-8.015 9.27-10.812.76-.61 1.382-1.13 1.382-1.16 0-.028-.191-.54-.43-1.13-.336-.835-1.453-4.12-1.89-5.562-.098-.316-.286-.21-1.496.84l-1.18 1.023-.047-1.097-.04-1.094h-4.315v-3.855h7.457v-5.774h-7.457V28.031l3.992-.625c2.195-.343 4.078-.652 4.187-.683.11-.035.156-.176.113-.32s-.343-1.485-.668-2.977c-.32-1.496-.609-2.735-.636-2.758-.074-.063-19.63 4.125-19.727 4.223-.11.113.227 5.066.352 5.21.09.102 1.449-.078 2.152-.285.227-.066.266-.02.207.196-.043.148-.695 2.265-1.445 4.699-.754 2.434-1.348 4.445-1.324 4.469.07.066 4.511 1.254 4.703 1.254.097 0 .215-.254.265-.555.29-1.79 1.047-5.488 1.422-6.973.242-.953.442-1.797.442-1.879s-.743-.375-1.649-.656c-.902-.273-1.672-.543-1.707-.598-.031-.05.637-.21 1.485-.355a47 47 0 0 0 1.855-.34l.313-.086v12.922h-6.711v5.773h6.71v3.856H66.73l-.082 4.941-.566-.492c-.309-.27-.586-.465-.617-.433-.028.03-.672 1.289-1.43 2.789l-1.375 2.738.578.504c1.711 1.488 4.844 3.722 7.176 5.113.516.309.934.586.934.617 0 .035-.215.493-.477 1.024-.262.527-.45.984-.41 1.011.18.137 4.71 2.157 4.863 2.168.098.004.426-.437.735-.988M62.547 43.988v-25.18H56.73V63.09H39.422l.039-18.957c.035-16.668.07-18.98.266-19.106.12-.078 1.703-.14 3.52-.14l3.296-.004-.508-1.266c-.527-1.305-1.234-3.867-1.234-4.496l-.004-.355-2.797.086c-2.98.093-4.324.308-5.613.894-1.719.777-2.504 2.008-2.77 4.328-.097.848-.152 9.23-.156 23.207v21.883h29.086Zm-8.055 12.219v-2.742h-12.68v5.48h12.68Zm-.449-16.883V29.176h-4.176v2.816h-7.605V49.47h11.781Zm27.32.38c.52-.157 1.422-.423 2.004-.59l1.055-.31-.477-2.034c-.539-2.297-1.074-5.282-1.21-6.754-.051-.543-.133-.989-.188-.989-.168 0-4.379 1.176-4.445 1.243-.274.273 1.851 9.718 2.187 9.718.07 0 .555-.129 1.074-.285m0 0"/>
    <path fill="#f9f9f9" d="M46.586 40.652v-3.476h3.281v6.96h-3.281Zm25.852 20.305a70 70 0 0 1-4.727-3.523c-.3-.246-.05-.262 5.238-.262h5.555l-1.43 1.723c-.781.945-1.664 2.078-1.957 2.515s-.601.793-.695.785c-.09-.004-.984-.562-1.984-1.238m0 0"/>
</svg>
