<svg xmlns="http://www.w3.org/2000/svg" width="120" height="120" viewBox="0 0 120 120">
    <path fill="red" stroke="red" stroke-width=".004" d="M-23.099-25.758v5.594h-3.315l-.039.098-.058.15-.018.046-.035.09-.001.007-.036.096-.023.064-.01.029.01.011.124.116.018.018.178.153.191.152.197.144.194.132.181.11-.524.316-.294.176h1.105v-1.66h1.282v1.66h1.48l-.576-.176-.54-.166.23-.28.253-.284.27-.282.27-.27.056-.054.208-.195.206-.183.016-.015.011-.01.01-.008.006-.006.142.117.172.129.189.132.193.13.182.115.001.002.056.032.042.025.029.016.033.02-.244.182-.243.195-.237.205-.225.211-.21.21-.029.032-.16.176h.585v2.048h-5.668v-2.048h.783l-.19-.114-.095-.062-.098-.064-.189-.132-.176-.134-.158-.131-.13-.122.558-.364.071-.045-.327-.029-.045-.004-.999-.085.066.085.019.025.086.107.089.1.088.092.087.085.02.019.065.055-.516.269-.217.156-.164.117-.044.032-.345.345-.274.388-.212.436-.162.487h1.658v1.18h-1.857l-.019.229-.016.237-.012.245-.01.255-.01.257-.01.266h-1.437l.007-.26.01-.257.01-.252.002-.043.011-.203.018-.24.02-.235h-1.205l.14.142.152.148.16.147.162.14.161.132.153.117-.982.632-.034.022-.234-.156-.239-.17-.226-.181-.216-.182-.187-.177-.158-.164.63-.45h-1.182v-1.179h3.237l.017-.06v-.008l.016-.063.017-.066.017-.065.016-.063.017-.06h-1.127v-1.235l-.003-.068-.003-.068-.016-.094-.034-.06-.056-.033-.083-.015-.115-.004h-.717l-.108.013-.085.054-.063.112-.023.095-.022.095-.033.284-.012.218-.002.056-.003.044-.002.032-.002.03v.017l-.159-.095-.192-.093-.215-.087-.223-.075-.221-.064-.205-.046.047-.316.045-.289.133-.455.188-.323.249-.208.32-.112.4-.033h1.137l.538.032.397.103.277.185.173.278.092.378.01.17.002.06.012.214.002.049v.363l.216-.412.015-.025.027-.041.245-.359.323-.366.381-.331.444-.3.5-.258.007-.005h.006l.002-.003.036.078.042.084.048.09.014.023.04.07.06.094.069.097.005-.009.316-.57h-4.663v-3.087h7.967v-.386h-9.934v-.847h9.934v-.418h-9.293v-.091l.002-.093.005-.103.005-.09.001-.01.01-.085.063-.624.073-.51.025-.117.06-.292.101-.316.12-.239.142-.174.138-.106.156-.084.166-.065.177-.043.16-.023.02-.003.177-.008.19-.014.226-.006.258-.002h.084l.067.002.132.002.301.011.29.016h.014l.007.002.013.098.02.11.027.11.003.009.04.121.045.12.051.117.082-.018.781-.17.011-.004.049.209.014.048.054.186.084.247.062.16.036.093.105.246.115.225-1.26.226-.051-.097-.055-.105-.105-.217-.102-.22-.065-.152-.028-.066-.081-.209-.065-.189-.1-.01-.092-.004-.081-.004-.073-.003h-.118l-.06.001h-.016l-.068.009-.06.013-.054.025-.053.034-.054.047-.058.083-.053.126-.042.147-.007.025-.045.224-.042.277-.04.34h9.238M-21-27.196l-.302.225-.304.258-.295.275-.276.285-.248.28-.21.265-.464-.234-.918-.463.23-.273.25-.288.262-.29.274-.282.286-.263.29-.233 1.157.6.094.049.063.032.051.027.06.03m-3.867-.514.001.229.015.26.028.276.038.285.006.036.043.241.056.26-.01.002-1.47.19-.068-.253-.059-.268-.03-.172-.02-.104-.038-.27-.027-.256-.012-.23 1.446-.21.044-.007.024-.004.02-.003.013-.002m-2.255 1.566h-.007l-1.341.225-.112-.236-.09-.22-.013-.032-.078-.217-.014-.042-.08-.255-.069-.244-.051-.223.305-.06 1.033-.2.025-.007.025-.004.023-.004.014-.003.034.22.055.246.072.262.084.27.091.267.094.257m6.013 11.276h-2.664l.037.091.04.09.08.177.042.085.044.082-1.046.236-.48.108-.072-.135-.077-.141-.075-.147-.071-.15-.062-.15-.051-.146h-2.63v-.944h6.985v.944M-15-32l-3.8 22.802L-19-8l-7.52 5.013L-28-2l-7.225-4.815L-37-8l-.199-1.197-3.8-22.802h26m-24.004 1.997L-37-17.709l1.383 8.481v.031h.008l7.61 5.2 7.611-5.2h.007v-.031l.778-4.771.604-3.71 2.003-12.293h-22.007m15.817 12.497h-2.82v.547h2.82v-.547m-7.879-3.45h6.188v-.42h-6.188v.42m0-1.502v.407h6.188v-.407Zm0 0" transform="matrix(3.78963 0 0 3.7628 166.223 124.173)"/>
    <path fill="#f9f9f9" d="M45.766 99.285A8288 8288 0 0 1 31.39 89.52c-.051-.047-12.832-77.7-12.844-78.004 0-.063 18.691-.11 41.539-.11 38.133 0 41.539.016 41.539.239 0 .27-12.656 77.507-12.738 77.742-.043.117-28.38 19.441-28.715 19.582-.047.015-6.531-4.336-14.406-9.684m28.488-28.367c1.558-.34 2.855-.633 2.875-.648.023-.012-.16-.45-.41-.973l-.446-.945 4.993-.043 5-.036v-3.699h-26.55v3.703h9.918l.336.848c.383.973 1.18 2.406 1.344 2.414.062 0 1.386-.277 2.94-.621m-30.332-.902c1.055-.672 1.914-1.258 1.914-1.301.004-.047-.316-.328-.703-.63-.39-.3-1.18-.98-1.754-1.507l-1.043-.957 2.215-.004 2.222-.008-.09.778c-.05.43-.132 1.695-.187 2.816l-.101 2.035h5.664l.105-2.691c.059-1.48.14-2.746.18-2.817.043-.062 1.652-.12 3.574-.12h3.496v-4.59h-6.246l.344-1.004c1.004-2.93 2.906-5.078 5.863-6.618l1.082-.562-.922-.98c-.719-.762-.867-.993-.664-1.032.145-.027 1.055.024 2.031.11.973.09 1.926.164 2.118.168.257 0 .042.199-.836.765L61 52.63l.586.504c.324.281 1.152.906 1.844 1.383l1.258.875h-2.59v7.847h21.629v-7.847l-1.082-.004-1.079-.008 1.59-1.516c.875-.836 1.996-1.816 2.496-2.175.5-.364.907-.704.907-.758s-.286-.266-.633-.473c-.352-.203-1.258-.812-2.02-1.355l-1.379-.98-1.316 1.198c-1.707 1.551-4.496 4.586-4.496 4.89 0 .063.187.161.41.212.23.05 1.02.285 1.758.52l1.34.43-2.348.01-2.352.009v-6.22h-5.07v6.22h-1.82c-1.102 0-1.762-.055-1.676-.133.074-.078.7-.469 1.379-.871l1.246-.739-1.316-.902c-.723-.496-1.668-1.223-2.098-1.61l-.773-.706.765-2h12.645V27.11l1.66.804.543-.664c1.035-1.262 3.097-3.293 4.406-4.332.719-.574 1.258-1.094 1.191-1.156-.066-.059-1.304-.715-2.75-1.461l-2.632-1.356-.875.73c-1.082.907-3.133 2.997-4.371 4.454l-.938 1.101 1.848.93 1.843.926H64.41c-7.875-.004-14.25-.031-14.168-.059.078-.03 1.113-.226 2.293-.43 1.18-.206 2.18-.406 2.223-.449s-.164-.593-.453-1.226C53.777 23.773 53 21.496 53 21.109c0-.37-.258-.382-1.629-.082-.742.168-1.473.301-1.621.301-.285 0-.672-.879-.863-1.965l-.094-.554h-3.387c-3.676 0-4.593.132-5.8.836-1.59.921-2.247 2.867-2.79 8.23-.12 1.227-.222 2.32-.222 2.434 0 .168 2.86.203 17.597.203h17.602v1.48h-37.59v3.258h37.59v1.332H41.664V48.43l7.57.004h7.57l-.964.535c-2.934 1.617-5.227 3.804-6.43 6.125l-.347.668-.11-.594a10 10 0 0 1-.125-1.332c-.02-1.555-.617-2.938-1.531-3.555-1.008-.683-2-.812-6.121-.812-2.953 0-3.938.047-4.418.215-1.73.605-2.617 2.074-3.07 5.078-.106.71-.188 1.297-.172 1.3.011.004.554.16 1.214.344.653.18 1.688.563 2.293.848.61.281 1.13.492 1.157.46.027-.026.12-.698.203-1.491.144-1.399.316-1.977.656-2.2.29-.191 3.89-.132 4.086.067.129.125.18.992.18 2.96v2.786h2.09c1.144 0 2.085.059 2.085.129s-.039.34-.093.59l-.09.465H34.953v4.59h4.39l-2.35 1.683 1.07 1.012c1.07 1.015 3.558 2.93 3.808 2.93.07.003.996-.547 2.05-1.22M61.105 26.28c1.239-.21 2.286-.41 2.325-.449.039-.035-.18-.816-.48-1.73-.618-1.883-1-3.336-1-3.797 0-.168-.048-.309-.102-.309-.184 0-5.48 1.05-5.524 1.094-.133.129 1.203 4.183 1.7 5.16.253.504.265.504 3.081.031m8.528.082a140 140 0 0 0 2.695-.367l.461-.082-.27-1.367a28 28 0 0 1-.37-3.035c-.055-.914-.153-1.664-.212-1.664-.199 0-5.273.734-5.593.804-.29.07-.297.137-.192 1.371.2 2.274.746 4.637 1.07 4.633.094 0 1.18-.129 2.41-.293m0 0"/>
    <path fill="#f9f9f9" d="M67.77 59.316v-.964h10.437v1.925H67.77ZM48.527 44.508v-.668h23.266v1.332H48.527Zm0-4.074v-.743h23.266v1.485H48.527Zm-4.711-13.813c.047-.266.153-.914.239-1.441.394-2.39.855-2.961 2.383-2.961 1.265.004 1.394.074 1.699.933.152.418.601 1.461 1.004 2.305.398.848.726 1.566.726 1.594 0 .031-1.379.054-3.066.054h-3.063Zm13.821 22.793c-.254-.441-.461-.84-.461-.89s.465-.094 1.031-.094h1.031l-.445.812c-.242.446-.5.848-.566.89-.075.044-.336-.28-.59-.718m0 0"/>
</svg>
