<svg xmlns="http://www.w3.org/2000/svg" width="120" height="120" viewBox="0 0 120 120">
    <path fill="red" stroke="red" stroke-width=".004" d="m-49 38.924-.153.343-.356.807-.248.886-.107.38-.23 1.328-.13 1.336-.048 1.053-.01.234-.014 1.185v4.42h-5.56l.055.116.056.117.036.07.021.044.058.113.06.111.056.108-1.594.426-.112-.172-.109-.181-.015-.027-.09-.161-.1-.19-.096-.19-.09-.185h-5.109v-1.359h3.063l-.068-.106-.066-.104-.061-.102-.04-.072-.016-.03-.05-.102-.04-.1h-2.175v-.67h2.303v-.37h-1.95v-.554h1.95v-.34h-1.95v-.584h1.95v-.308H-62.4v-.657h5.816v-.097l-.76-.11-.568-.08.094-.093.056-.055.075-.072.076-.068.074-.067.075-.061h-4.092v-2.56h7.241v-.403H-63v-.712h8.687v-.35h-8.206l.002-.023.002-.061.004-.086.005-.1.004-.104.005-.094.058-.473.067-.396.078-.324.047-.136.044-.123.107-.203.125-.15.123-.106.135-.085.144-.064.13-.04.023-.007.159-.032.164-.017.16-.004.2-.001h.234l.083.003.175.005.274.011.21.013.028.002h.017l.013.002h.02l.01.096.017.104.025.11.03.112.038.114.04.114.127-.053.644-.264.02-.008.013-.004.084.177.115.2.006.01.056.088.07.113.15.211.154.2.158.179-.922.35h6.063l-.467-.2-.304-.128.087-.177.057-.115.16-.284.005-.01.09-.139.099-.15.213-.277.24-.256.27-.228 1.131.57.154.077-.154.122-.106.083-.06.06-.182.176-.22.26-.198.273-.166.28-.136.276-.481-.202v4.758h-3.096l-.051.072-.007.01-.124.165-.056.076-.005.006-.062.077-.06.072h.964v1.647l.075-.065.072-.065.068-.065.07-.066.071-.06.04-.034.01-.008.015-.013.006-.004.003-.003.084.098.1.11.113.118.122.122.127.123.06.057.068.062V45.15h1.264v1.625l.059-.051.059-.049.058-.046.06-.045.059-.043.035-.025.013-.01.01-.007.069.145.087.182.108.203.042.076.074.133.123.2.038.056.069.102.012.018v-1.137l.02-1.302.007-.117.07-1.312.158-1.488.23-1.297.032-.183.057-.205.13-.459.205-.738.466-1.07.038-.087.02-.045.01-.025.009-.02.006-.011.194.139.24.153.264.154.27.148.254.123.055.022.015.006.153.062m-4.852.628-.01.002-1.222.284-.12-.219-.092-.195-.019-.04-.1-.241-.079-.23-.002-.006-.063-.222-.04-.196.303-.085.885-.25.065-.018.02-.006.013-.003.042.22.061.237.076.247.086.25.095.242.101.229m-2.7-1.382.058.201.082.223.048.11.056.13.04.078.08.16.131.233.137.214-.014.004-1.153.336-.137-.202-.12-.198-.013-.022-.128-.225-.114-.225-.033-.075-.06-.141-.07-.197.418-.14.752-.25.026-.01.014-.004m-2.018 10.818.033.061.006.01.054.093.027.046.039.063.038.062-.664.213h2.87l-.365-.109-.04-.01-.026-.008-.467-.139.032-.056.035-.056.004-.006.031-.053.074-.12.036-.06h-1.755l.038.07M-43 34l-3.8 22.802L-47 58l-7.52 5.013L-56 64l-7.225-4.815L-65 58l-.199-1.197-3.8-22.802h26m-11.454 8.8h-5.504v.372h5.645V42.8h-.14m2.218 5.236-.326.27-.313.29-.291.305-.083.098-.127.152-.054.065-.231.32h1.757v-1.743l-.332.243m-2.236-.176-.313.305-.293.325-.22.275-.05.065-.063.089-.163.232-.021.03-.218.354h1.724l-.878-.299.052-.085.065-.107.125-.197.134-.2.141-.198.15-.197.157-.194v-.479l-.33.28m-4.834-8.217-.086-.105-.053-.064-.13-.172-.115-.168-.096-.166h-.001l-.08-.002-.067-.002h-.008l-.07-.001-.028-.001h-.038l-.057.001-.048.004-.065.001-.058.007-.052.013-.048.02-.01.007-.034.02-.043.038-.052.07-.048.095-.045.127-.042.159-.037.199-.03.213-.004.029h1.736l-.146-.158-.145-.164m-7.698-3.645L-65 48.291l1.383 8.481v.031h.008l7.61 5.2 7.611-5.2h.007v-.031l.778-4.771.604-3.71 2.003-12.293h-22.007m11.637 8.11h1.054v-.36h-5.645v.36h4.59m-1.976 1.986h-1.189v.308h1.95v-.308h-.761m0 .893h-1.189v.34h1.95v-.34h-.761m.76 1.263v-.37h-1.949v.37Zm0 0" transform="matrix(3.78963 0 0 3.7628 272.333 -124.173)"/>
    <path fill="#f9f9f9" d="M45.766 99.285A8288 8288 0 0 1 31.39 89.52c-.051-.047-12.832-77.7-12.844-78.004 0-.063 18.691-.11 41.539-.11 38.309 0 41.539.016 41.539.239 0 .273-12.652 77.507-12.738 77.742-.043.117-28.38 19.441-28.715 19.582-.047.015-6.531-4.336-14.406-9.684m13.156-28.492c1.543-.41 2.879-.773 2.973-.805.113-.039-.07-.531-.493-1.332l-.66-1.27H81.79V57.41c0-5.484.066-11.332.148-12.992.434-8.793 1.633-15.031 3.82-19.922.532-1.191.946-2.187.923-2.215-.024-.023-.782-.41-1.684-.86-.902-.448-2.105-1.124-2.676-1.495-.566-.371-1.093-.66-1.16-.633-.344.11-2.191 4.793-2.918 7.367-1.707 6.102-2.453 12.5-2.668 22.906-.113 5.707.016 5.473-1.46 2.688l-.852-1.61-.586.465-.582.457v-5.949H67.02l-.004 7.48-1.2-1.226c-.652-.672-1.226-1.219-1.265-1.219-.043 0-.41.309-.817.688l-.738.683v-6.101l-3.445-.086 1.133-1.543 5.925-.008 5.93-.004V26.38l.828.363c.45.195.856.363.89.363.04 0 .247-.351.466-.78.718-1.41 1.574-2.536 2.922-3.845l1.324-1.289-2.39-1.195c-1.317-.648-2.485-1.187-2.595-1.187-.289 0-2.113 1.878-2.867 2.953a25 25 0 0 0-1.258 2.093l-.617 1.172.57.227c2.122.86 2.895.789-8.98.789l-10.742.004 1.27-.504a241 241 0 0 0 1.41-.555c.078-.027-.31-.648-.86-1.375-.55-.726-1.219-1.742-1.484-2.246-.266-.512-.551-.93-.64-.93-.087 0-.74.235-1.454.52-.71.285-1.355.52-1.426.52-.152 0-.617-1.555-.617-2.059v-.332l-3.394.047c-3.192.043-3.442.07-4.176.394-1.004.453-1.852 1.375-2.27 2.48-.48 1.27-.886 3.442-.996 5.356l-.101 1.664h31.074v1.188H33.46v2.812h32.965v1.48H38.98v9.774l15.29.008-.747.648c-.41.36-.695.704-.632.766s1.156.262 2.437.445c1.277.184 2.363.372 2.406.418.051.047-4.855.09-10.902.09H35.844v2.664h9.101v1.035h-7.308v2.368h7.308v1.039h-7.308v2.37h7.308v1.188h-8.652v2.664h8.145l.32.63c.176.343.465.843.64 1.109l.32.484H34.204v5.184h19.328l.64 1.28c.763 1.524 1.602 2.864 1.802 2.864.078 0 1.406-.332 2.949-.742m-.625-45.555c1.066-.3 1.992-.597 2.062-.66.067-.058-.043-.367-.246-.687-.562-.883-1.367-2.543-1.675-3.453-.153-.446-.325-.872-.383-.942-.059-.07-1.145.215-2.422.64l-2.317.766.2.555c.578 1.625 2.28 4.488 2.613 4.398.125-.035 1.101-.316 2.168-.617m7.805 0c1.949-.46 2.265-.574 2.175-.781-.468-1.062-1.18-3.082-1.418-3.996-.156-.613-.312-1.14-.347-1.172-.059-.055-1.707.371-4.211 1.09l-.766.223.207.898c.383 1.629 1.563 4.266 1.91 4.27.09.003 1.192-.239 2.45-.532m0 0"/>
    <path fill="#f9f9f9" d="M69.668 61.43c.84-1.157 3.02-3.367 4.379-4.434.66-.516 1.262-.96 1.34-.988.082-.031.136 1.21.136 3.074v3.125H69.11Zm-8.613.656c0-.234 1.879-2.84 2.898-4.02a26 26 0 0 1 2.05-2.093l1.017-.903v.805c0 .727-.063.879-.692 1.676-.762.96-2.45 3.508-2.379 3.578.024.027.711.27 1.52.55l1.48.505L64 62.19c-1.617.008-2.945-.039-2.945-.105m-11.149-.167c1.465-.469 1.38-.371.946-1.113-.211-.356-.387-.692-.387-.735 0-.05 1.41-.086 3.133-.086h3.136l-.386.606c-.211.332-.356.633-.32.668.03.035.656.234 1.386.445s1.356.406 1.39.442c.036.035-2.148.054-4.847.05l-4.91-.008Zm.707-5.191v-.594h7.16v1.187h-7.16Zm0-3.481v-.523h7.16v1.039h-7.16Zm0-3.406v-.52h7.16v1.035h-7.16Zm-5.367-8.664v-.594h21.18v1.184h-21.18Zm0-3.559v-.59h21.18v1.184h-21.18ZM42.32 25.313a9 9 0 0 1 .407-1.56c.37-.976.8-1.241 2.043-1.241h.878l.543.816c.301.445.918 1.242 1.371 1.774l.82.964h-6.16Zm0 0"/>
</svg>
