<svg xmlns="http://www.w3.org/2000/svg" width="120" height="120" viewBox="0 0 120 120">
    <path stroke="red" stroke-width=".004" d="M5.114 38v7.569l.152-.193.153-.184.116-.135.036-.043.15-.174.147-.168.136-.155.008-.01.109.257.138.293.012.025.178.348.19.35.092.157.097.167.035.054.09.138.047.074-.663.737-.642.845-.607.932-.15.268-.407.731-.494 1.045-.416 1.073-.078-.025-1.634-.507.215-.542.23-.545.241-.544.255-.54.072-.146.193-.39.275-.53V38.001h1.724m-2.82 3.864v7.168h-3.676v2.815h-1.811v-2.815H-7v-7.06h1.799v.792h2.008V38h1.81v4.764H.594v-.9h1.7M13 34 9.2 56.803 9 58l-7.52 5.013L0 64l-7.225-4.815L-9 58l-.199-1.197-3.8-22.802h26m-24.004 1.997L-9 48.291l1.383 8.481v.031h.008l7.61 5.2 7.611-5.2h.007v-.031l.778-4.771L9 48.29l2.003-12.293h-22.007M.593 44.41h-1.975v2.957H.593V44.41m-3.786.647v-.647h-2.008v2.957h2.008Zm0 0" transform="matrix(3.78963 0 0 3.7628 60.114 -124.173)"/>
    <path fill="#f9f9f9" d="M45.766 99.285a5552 5552 0 0 1-14.375-9.77c-.032-.027-2.899-17.363-6.371-38.523-3.473-21.164-6.356-38.73-6.407-39.031l-.093-.555h41.554c38.32 0 41.551.016 41.551.239 0 .273-12.652 77.507-12.738 77.742-.043.117-28.38 19.441-28.715 19.582-.047.015-6.531-4.336-14.406-9.684m29.093-30.12c2.676-6.669 6.493-12.93 10.645-17.45 1.187-1.297 1.254-1.399 1.058-1.703-1.09-1.707-2.988-5.23-3.425-6.375-.082-.215-.2-.387-.266-.383-.062.004-.82.832-1.676 1.844l-1.57 1.84-.04-14.067-.034-14.062H72.84V57.32l-1.2 2.38c-1.913 3.792-4.476 9.655-4.3 9.831.137.137 6.164 1.98 6.387 1.957.125-.02.582-.941 1.132-2.324m-19.918-3.481v-5.258h13.871V33.324h-6.566v3.406h-7.305V18.81H47.93v17.92h-7.457v-3.113H33.46v26.809h14.47V70.94h7.011Zm0 0"/>
    <path fill="#f9f9f9" d="M54.941 48.43v-5.48h7.305v10.96h-7.305Zm-14.468 0v-5.48h7.457v10.96h-7.457Zm0 0"/>
</svg>
