<svg xmlns="http://www.w3.org/2000/svg" width="120" height="120" viewBox="0 0 120 120">
    <path stroke="red" stroke-width=".004" d="m91 6.985-.3.83-.085.377-.121.536-.131.965-.072.989-.03.973-.007.934v6.008h-2.472l.055.179.056.181.058.182.062.179.05.139.015.035.067.165-.082.018-1.517.326-.11-.223-.102-.235-.096-.24-.09-.243-.081-.236-.05-.154-.026-.073h-2.023V17.16h1.79v-.92h-1.715v-3.867h4.954l.002-.085.017-.937.056-1.08.003-.032.102-1.06.16-.987.01-.075.2-.795.04-.153.009-.041.333-.856.006-.015.132.125.045.035.13.103.197.14.204.134.193.112.065.031.099.048m-2.355-.546.01.086.046.17.066.194.082.202.036.078.051.11.002.008.086.166.005.01.048.082.027.046.01.016-.101.067-.1.088-.088.119-.072.154-.037.157-.01.044-.018.249v3.653h-1.15v-1.211h-.896V9.642h.895V8.185l-.03.007-.765.185h-.004l.004-.1v-.11l-.001-.114-.008-.118-.007-.118-.009-.114-.077.077-.075.093-.063.114-.049.131-.015.074-.018.081-.011.18v3.631h-1.173v-1.167h-1.002V9.642h1.002V8.261l-1.145.34-.007.002-.002-.2-.01-.21v-.004l-.015-.219-.022-.214-.026-.196-.007-.04-.016-.085-.006-.034v-.008l.813-.266.606-.206.438-.157.18-.075.122-.05.2-.104.08-.058.02-.014.01-.008.019-.013.004-.003.024.102.035.116.042.124.05.129.054.134.056.125.005.009.032-.01.566-.178.455-.154.272-.101.064-.023.238-.103.166-.088.042-.03.026-.02.02-.013.016-.012.01-.007m-4.602.59-.075.063-.299.253-.359.365-.335.406-.053.076-.253.356-.268.452-.222.46-.044-.013-.215-.064-1.212-.361.273-.573.038-.067.108-.19.172-.304.357-.539.264-.348.117-.154.394-.454.337-.334.025-.025.017-.016.018-.017.157.158.195.184.219.191.227.187.216.167.003.002.093.065.03.02.075.053m-5.627-.954.185.407.24.457.285.487.312.497.181.27.146.22.325.459-.012.006-1.288.68-.324-.437-.333-.468-.31-.46-.015-.022-.301-.473-.26-.444-.204-.396 1.219-.693.053-.03.041-.024.036-.022.024-.014M77 9.588h6.68v1.51h-.895v5.42h.853v1.48h-.853v1.927h-1.449v-1.928h-1.885v1.928H77.96v-1.928h-.844V16.52h.844V11.1H77V9.59M97 2l-3.8 22.802L93 26l-7.52 5.013L84 32l-7.225-4.815L75 26l-.199-1.197L71 2.001h26m-8.003 11.658h-.607v1.285h.607V13.66m-16-9.66 2.002 12.292 1.383 8.481v.031h.008l7.61 5.2 7.611-5.2h.007v-.031l.778-4.771.604-3.71 2.003-12.293H72.996M86.75 16.241v.92h.639v-.92h-.639m1.64 0v.92h.608v-.92h-.607m-1.641-2.582v1.285h.639V13.66h-.639m-1.598 1.285h.607V13.66h-.607v1.285m-5.7-3.845v.922h1.885V11.1h-1.885m0 5.285v.135h1.885v-.868h-1.885v.733m1.885-2.093v-.88h-1.885v.88Zm0 0" transform="matrix(3.78963 0 0 3.7628 -258.215 -3.763)"/>
    <path fill="#f9f9f9" d="M45.766 99.285A8288 8288 0 0 1 31.39 89.52c-.051-.047-12.832-77.7-12.844-78.004 0-.063 18.691-.11 41.539-.11 38.309 0 41.539.016 41.539.239 0 .273-12.652 77.507-12.738 77.742-.043.117-28.38 19.441-28.715 19.582-.047.015-6.531-4.336-14.406-9.684m27.109-28.37c1.621-.34 2.95-.677 2.95-.743 0-.067-.27-.895-.602-1.836-.325-.95-.594-1.781-.594-1.852 0-.078 2.027-.132 4.625-.132h4.625V53.355c0-7.148.07-14.464.156-16.253.266-5.645.91-9.57 2.113-12.93.325-.926.57-1.692.543-1.715a26 26 0 0 0-.953-.527c-.488-.274-1.41-.887-2.05-1.367-.997-.75-1.172-.836-1.254-.61-.051.145-.32.832-.598 1.524-1.012 2.52-1.898 6.699-2.352 11.086-.222 2.109-.527 7.523-.53 9.238v.851H60.16v14.813h6.563v3.258h-6.86v5.629h7.707l.64 1.742c.669 1.824 1.427 3.441 1.61 3.441.063 0 1.438-.277 3.055-.62m-29.867-3.306V63.98h6.86v7.258h5.667V63.98h3.281v-5.628h-3.28v-20.29h3.429V32.29l-18.57-.008 2.46-1.273a205 205 0 0 0 2.512-1.317c.028-.027-.527-.878-1.23-1.898-1.707-2.465-3.457-5.348-4.395-7.254l-.77-1.55-2.663 1.503-2.668 1.496.375.742c.98 1.942 3.257 5.465 5.285 8.188l1.023 1.371h-6.863v5.773h3.73v20.29h-3.28v5.628h3.28v7.258h5.817ZM77.94 34.47c.051-8.305.04-8.207 1.11-9.14l.508-.442-.664-1.375c-.368-.754-.778-1.758-.915-2.227-.132-.476-.289-.84-.343-.808-1.114.593-2.836 1.289-4.653 1.886-1.254.407-2.332.739-2.394.739-.059 0-.328-.598-.594-1.336-.266-.735-.523-1.317-.574-1.29-1.043.583-3.102 1.395-5.879 2.32l-3.457 1.157.023.574c.133 3.203.254 4.207.485 4.141a153 153 0 0 1 2.027-.605c.984-.29 1.875-.56 1.977-.594.144-.047.187.508.187 2.453v2.515h-3.879v4.887h3.88v4.442h4.456l.047-7.368.043-7.37.438-.782c.527-.945.675-.812.68.598 0 .55.054 1 .112 1 .063-.004.735-.164 1.493-.356l1.379-.351v5.3h-3.43v5.032h3.43v4.445h4.457ZM54.038 30.4c1.156-2.184 2.578-4.07 4.527-6.012.973-.965 1.743-1.778 1.715-1.801-.027-.023-.449-.34-.941-.703s-1.516-1.207-2.274-1.871c-1.152-1.016-1.421-1.188-1.652-1.067-.648.344-3.45 3.688-4.922 5.883-.984 1.469-2.863 4.91-2.863 5.25 0 .14.816.453 2.574.973 1.414.422 2.688.773 2.824.781.172.004.493-.445 1.012-1.434m0 0"/>
    <path fill="#f9f9f9" d="M43.008 39.691v-1.629h6.86v3.262h-6.86Zm0 8.664v-1.554h6.86v3.11h-6.86Zm0 8.442v-1.555h6.86v3.11h-6.86Zm21.48-6.738v-2.371h2.235v4.738h-2.235Zm6.114 0v-2.371h2.238v4.738h-2.238Zm6.261 0v-2.371h2.09v4.738h-2.09Zm0 9.035v-1.63h2.09v3.259h-2.09Zm-6.261 0v-1.63h2.238v3.259h-2.238Zm0 0"/>
</svg>
