<svg xmlns="http://www.w3.org/2000/svg" width="120" height="120" viewBox="0 0 120 120">
    <path stroke="red" stroke-width=".004" d="m-79.38 73.627-.217-.02-.211-.016-.064-.004-.14-.01-.19-.009-.175-.005-.151-.001-.16.005-.144.022-.063.023-.063.02-.119.075-.02.021-.092.09-.11.156-.109.17-.096.237-.076.294-.06.348-.039.39-.002.048-.005.143-.005.112-.002.06-.003.065.077-.065.512-.428.624-.477.646-.453.654-.418.466-.272.182-.107.632-.331.078.145.037.067.138.226.153.23.162.225.168.208.124.133.043.047-.8.346-.025.013-.8.414-.716.432-.102.06-.429.296-.35.241-.705.56-.603.569.018.114.024.113.022.096.005.017.026.115.06.228.484-.36.047-.036.57-.391.402-.256.192-.121.6-.353.59-.32.55-.273.013-.006.102.206.126.213.148.225.158.22.16.205.13.15.027.029-.647.246-.102.046-.485.216-.097.042-.037.02-.06.029-.593.3-.668.382-.107.07-.504.329-.527.403.052.096.048.082.007.008.055.09.12.177.06.091.137-.071.286-.153.266-.132.165-.082.436-.205.44-.198.44-.186.432-.173.01-.005.11.187.014.023.12.182.154.212.164.205.168.186.148.14.01.008.003.005.003.002-.252.099-.249.1-.25.105-.019.008-.228.1-.249.112-.252.117.133.264.156.286.171.298.18.298.09.142.064.102.03.046.18.267-.275.131-.334.158-.626.298-.187-.252-.192-.273-.188-.286-.056-.09-.126-.197-.165-.279-.145-.261-.028.015-.117.067-.148.086-.147.09-.147.09-.144.09-.14.092.104.208.006.011.128.23.141.234.147.234.147.226.143.214-1.213.62-.134-.182-.134-.192-.134-.198-.13-.198-.124-.196-.115-.185-.037.029-.098.075-.13.105-.123.105-.116.106-.11.105-.103.105-.003-.003-1.066-.975.272-.268.002-.002.288-.262.303-.255.32-.248.331-.241.233-.156.113-.076-.113-.198-.353-.611-.322-.56-.378-1.17-.103-.318-.009-.03-.22-1.54.026-1.423.225-1.104.016-.075.426-.797.23-.253.249-.197.213-.12.054-.03.291-.103.318-.062.344-.027h.164l.182.001.194.001.201.004.204.006.096.005h.015l.052.003h.038l.023.244.038.261.054.27.07.272.09.259.107.228.005.01m-6.89-1.609.031.264.06.289.088.303.075.196.038.1.136.283.155.25-.33-.024-.13-.009-.434-.022-.4-.012-.059-.001-.295-.007-.3-.002h-.234l-.134.005-.06.01-.057.01-.104.032-.086.044-.01.005-.09.068-.088.086-.006.011-.108.207-.08.155-.156.694-.126 1.054-.017.266-.083 1.18-.016.37-.065 1.506-.07 2.339h3.737l.18-.378.185-.366.192-.348.089-.148.108-.183.2-.314.042-.06.155-.224.006-.008.189.147.123.086.05.035.068.047.273.18.282.177.27.162.152.085.08.047-.502.7-.347.614-.111.198-.137.3-.027.058-.249.542-.361.965-.307 1-.25 1.018-.881-.179-.84-.169.1-.387.105-.388.112-.389.119-.387.122-.383.126-.378H-91l.001-.048.002-.121.003-.15v-.018l.002-.186.001-.176.002-.137.017-.585.068-2.351.098-2.304.122-1.746.155-1.26.125-.53.075-.323.217-.44.039-.077.21-.251.217-.193.23-.145.242-.108.266-.08.289-.06.306-.029.25-.012.107-.005.396-.005.421.002h.1l.334.007.293.007.073.001.044.001h.024m-.628 3.854.32.49.416.534.147.168.339.387.36.373.173.18.555.53.556.486-.53.44-.02.016-.477.396-.23.19-.234-.19-.325-.267-.167-.146-.403-.355-.553-.526-.51-.532-.19-.222-.25-.294-.343-.485 1.274-1.093.054-.048.038-.032m6.206 7.899.821-.267.104-.034.938-.26.206-.048.032-.008.027-.006.018-.004.644-.15.078.147.03.053.134.225.153.234.162.23.163.212.161.177-.803.175-.116.026-.93.243-.911.28-.09.031-.772.277-.784.33-.492.25-.183.093-1.015-1.085.723-.408.475-.218.342-.157.373-.142.512-.196M-71 68l-3.8 22.802L-75 92l-7.52 5.013L-84 98l-7.225-4.815L-93 92l-.199-1.197-3.8-22.802h26m-24.004 1.997L-93 82.291l1.383 8.481v.031h.008l7.61 5.2 7.611-5.2h.007v-.031l.778-4.771.604-3.71 2.003-12.293Zm0 0" transform="matrix(3.78963 0 0 3.7628 378.443 -252.108)"/>
    <path fill="#f9f9f9" d="M45.766 99.285A8288 8288 0 0 1 31.39 89.52c-.051-.047-12.832-77.7-12.844-78.004 0-.063 18.691-.11 41.539-.11 38.133 0 41.539.016 41.539.239 0 .27-12.656 77.507-12.738 77.742-.043.117-28.38 19.441-28.715 19.582-.047.015-6.531-4.336-14.406-9.684m10.496-29.27c.82-3.523 2.558-8.57 4.047-11.734.925-1.972 2.171-4.117 3.308-5.695.559-.77.996-1.41.977-1.422-.016-.016-.739-.445-1.598-.957a51 51 0 0 1-2.805-1.793c-.675-.48-1.285-.875-1.347-.875-.274 0-2.41 3.516-3.63 5.965l-.792 1.59H40.426l.105-4.106c.055-2.261.2-6.18.317-8.703.601-12.738 1.312-16.312 3.402-17.097.504-.192 4.77-.2 7.48-.016 1.067.07 1.958.113 1.98.094.02-.024-.26-.633-.632-1.36-.683-1.351-1.418-3.746-1.418-4.629v-.492l-4.664.063c-3.793.05-4.824.105-5.555.312-2.273.637-3.894 1.906-4.843 3.793-1.575 3.125-2.34 10.793-2.832 28.363-.082 2.934-.188 6.45-.235 7.817l-.082 2.48h9.106c5.008 0 9.105.043 9.105.094 0 .05-.265.934-.59 1.961-.8 2.527-1.8 6.074-1.8 6.371 0 .2.57.36 3.023.856 1.66.335 3.152.613 3.32.625.258.011.344-.188.649-1.504m12.289.868c3.426-1.828 10.566-4.215 16.094-5.38 1.8-.378 2.21-.581 1.753-.862-.27-.168-1.89-2.403-2.535-3.493-.324-.558-.652-1.015-.726-1.015-.242 0-3.352.762-5.45 1.34a85 85 0 0 0-7.351 2.414c-2.73 1.05-6.973 3.21-6.863 3.5.043.125 3.738 4.14 3.808 4.144.028 0 .594-.293 1.27-.648m4.886-9.2c1.227-.613 2.235-1.152 2.235-1.206 0-.051-.527-.934-1.172-1.961-1.578-2.516-1.852-3.055-1.621-3.243.101-.078.8-.515 1.55-.968l1.372-.82.851 1.433c1.168 1.96 3.051 4.621 3.27 4.621.16 0 4.531-2.016 4.683-2.16.032-.027-.343-.672-.835-1.426-1.016-1.562-1.91-3.09-2.489-4.23l-.394-.778 1.086-.492c.597-.27 1.87-.808 2.836-1.203l1.75-.71-.875-.927a21 21 0 0 1-1.727-2.203c-.469-.7-.914-1.273-.988-1.273-.285 0-5.434 2.254-7.57 3.316l-2.231 1.11-.363-.547c-.2-.301-.477-.72-.614-.934l-.254-.387 1.086-.808c2.586-1.93 6.72-4.25 10.184-5.715 1.148-.488 2.34-.965 2.648-1.063.305-.101.555-.218.555-.257 0-.047-.258-.391-.578-.77-.746-.887-2.152-2.977-2.398-3.562-.102-.25-.258-.458-.344-.458-.207 0-3.528 1.739-5.328 2.786-2.043 1.191-4.63 2.87-6.23 4.05-.884.653-1.41.954-1.45.836a32 32 0 0 1-.305-1.14l-.242-.946.793-.808c.992-1.004 3.77-3.223 5.645-4.512 2.773-1.902 6.382-3.902 9.285-5.152.8-.344 1.453-.672 1.453-.73 0-.06-.176-.27-.387-.466-.531-.496-1.687-2.078-2.445-3.351l-.637-1.063-.988.493c-3.567 1.78-8.742 5.203-12.086 7.98l-1.254 1.043.102-1.465c.21-2.953.793-4.738 1.941-5.922.895-.925 1.434-1.03 4.266-.851 1.273.082 2.34.129 2.37.101.028-.027-.12-.5-.331-1.054a16.3 16.3 0 0 1-.93-3.844c-.09-.867-.117-.914-.547-1-.824-.164-4.496-.082-5.672.129-1.52.265-2.816.883-3.863 1.84-.652.59-1.055 1.156-1.734 2.43-.813 1.534-.914 1.835-1.352 4.027-.422 2.132-.469 2.636-.465 5.035.008 3.957.567 7.496 1.762 11.14.789 2.41 1.039 2.973 2.352 5.243l1.464 2.547-.359.234c-2.098 1.371-6.563 5.113-6.563 5.5 0 .113 3.801 3.594 3.997 3.66.054.02.671-.465 1.37-1.074.696-.61 1.298-1.11 1.34-1.11s.274.317.512.704c.875 1.406 2.344 3.445 2.485 3.445.078 0 1.148-.5 2.379-1.113M57.739 47.23c1.242-1.011 2.258-1.91 2.262-1.996.008-.09-.25-.367-.566-.62-2.875-2.294-8.149-7.977-9.664-10.419-.297-.48-.583-.87-.63-.87-.136 0-5.156 4.284-5.21 4.448-.297.829 10.394 11.54 11.32 11.34.133-.027 1.25-.875 2.488-1.883m0 0"/>
</svg>
