<svg xmlns="http://www.w3.org/2000/svg" width="120" height="120" viewBox="0 0 120 120">
    <path stroke="red" stroke-width=".004" d="m34.081 6.162.016.282.034.281.054.278.045.166.029.104.094.263.088.196.012.025.008.019.005.01-.225-.022-.203-.009-.182-.001-.064.002-.1.004-.03.002-.111.01-.122.014-.086.01-.075.017-.068.027-.058.039-.052.05-.046.063-.096.2-.023.047-.094.409-.064.487-.006.054-.048.645-.03.723-.013.77.097-.15.115-.175.214-.311.219-.298.118-.154.101-.126.22-.264.203-.223.011-.013.005-.007.124.218.146.244.113.171.054.084.173.25.175.227.064.073.063.073.04.045-.41.393-.406.485-.299.419-.093.13-.366.594-.324.612-.26.578-.011.027.011.09.003.017.019.14.034.244.037.24.038.236.028.164.011.069.043.228.15-.15.147-.147.003-.003.15-.148.152-.143.152-.14.129-.11.016-.015.01-.009.146.179.177.193.196.196.204.19.201.17.002.004.185.14-.185.162-.064.057-.245.233-.067.068-.174.177-.235.258-.229.266-.223.273.148.3.166.3.181.295.201.292.217.29.232.287-1.187.835-.176-.202-.165-.205-.156-.206-.146-.208-.126-.184-.015-.024-.135-.206-.127.213-.122.216-.117.213-.112.216-.107.212-.1.209-.004-.003-1.208-.747-.156-.096.156-.298.027-.053.196-.35.012-.022.192-.325.217-.342.226-.338.236-.33-.233-.713-.032-.099-.192-.83-.13-.844-.08-.866-.038-.889-.007-.568-.004-.344.011-1.033.038-1.016.08-.959.113-.744.017-.117.192-.72.265-.543.1-.13.113-.112.128-.1.142-.079.153-.06.165-.04.14-.03.076-.017.228-.036.238-.026.25-.015.259-.006h.263m-4.745.088h1.39v11.814h-.695l-.09.325-.086.33-.081.332-.074.326-.064.315-.054.298-.246-.043-.664-.119-.66-.117-.007-.001-.004-.001H28l.097-.282.039-.119.056-.162.093-.276.093-.275.09-.269.087-.262h-1.462V13.34h2.243v-.995h-2.351V7.279h2.35v-1.03m-2.778 1.776v8.261h-1.934v1.559h2.095v1.516H21v-1.527h2.203v-1.548h-1.978V9.551l.008-.267.023-.239.047-.211.075-.184.107-.158.146-.132.16-.102.151-.066.024-.01.186-.052.206-.031.224-.016.244-.004.021.113.01.061.046.197.06.207.07.209.081.204.068.147.01.02.01.021V6.001h1.421v8.791h.653V8.025h1.28M41 2.001l-3.8 22.802L37 26l-7.52 5.013L28 32l-7.225-4.815L19 26l-.199-1.197L15 2.001h26M22.55 9.573v5.22h.653v-5.35l-.115-.008-.106-.006-.096-.005-.084-.003h-.135l-.037.003-.03.01-.024.018-.014.03-.01.04-.002.05m-5.554-5.574L19 16.291l1.383 8.481v.031h.008l7.61 5.2 7.611-5.2h.007v-.031l.778-4.771.604-3.71 2.003-12.293H16.996m12.34 6.841V8.772h-.952v2.067h.952m-.664 4.007h-.19v1.711h.854v-1.71Zm0 0" transform="matrix(3.78963 0 0 3.7628 -45.996 -3.763)"/>
    <path fill="#f9f9f9" d="M45.766 99.285a5552 5552 0 0 1-14.375-9.77c-.032-.027-2.899-17.363-6.371-38.523-3.473-21.164-6.356-38.73-6.407-39.031l-.093-.555h41.554c38.145 0 41.551.016 41.551.239 0 .27-12.656 77.507-12.738 77.742-.043.117-28.38 19.441-28.715 19.582-.047.015-6.531-4.336-14.406-9.684m20.836-29.824c.226-1.098.605-2.7.835-3.555l.422-1.554 2.594-.086V19.699h-5.371v3.848h-8.95V42.8h8.95v3.558h-8.5v17.918h2.773c2.157 0 2.762.043 2.708.188-.368.95-2.047 5.937-2.016 5.972.078.075 5.703 1.07 5.918 1.047.152-.015.344-.625.637-2.023m9.41.258c1.191-2.235 1.504-2.774 1.605-2.774.043 0 .2.2.348.446.555.933 2.965 3.996 3.144 3.996.121 0 4.559-3.117 4.559-3.203 0-.04-.363-.52-.805-1.063-1.02-1.258-2.289-3.21-2.968-4.558l-.528-1.043 1.235-1.399c.68-.77 1.89-2.031 2.691-2.8l1.45-1.407-.65-.508c-.355-.281-1.343-1.207-2.19-2.054l-1.544-1.547-.546.496c-.297.273-1.067.992-1.7 1.601-.652.63-1.16 1.016-1.16.887s-.168-1.309-.375-2.629l-.379-2.402.961-1.961c1.77-3.602 3.633-6.363 5.848-8.68l1.43-1.492-1.098-1.45c-.602-.796-1.426-2.003-1.828-2.695l-.739-1.246-.87.95c-.473.523-1.454 1.754-2.169 2.738l-1.57 2.148c-.258.352-.262.278-.18-2.523.192-6.254.739-9.016 1.922-9.715.395-.234.793-.273 2.598-.277 1.828-.004 2.121-.04 2.062-.227-.039-.125-.25-.726-.472-1.336-.442-1.215-.801-2.972-.809-3.96l-.008-.63h-1.613c-.887 0-2.246.106-3.016.239-2.52.418-3.503 1.054-4.449 2.851-1.039 1.985-1.703 5.074-2.129 9.946-.285 3.261-.246 14.273.067 17.113.445 4.054.886 6.304 1.836 9.347l.515 1.657-1.101 1.601c-1.215 1.774-2.375 3.688-3.149 5.211l-.5.992 2.555 1.582c1.406.868 2.605 1.586 2.66 1.586.055.004.531-.808 1.059-1.808m-20.625-3.516v-2.965h-8.055v-5.625h7.461v-31.25h-5.074V51.84h-2.387V18.809h-5.52l-.019 11.773-.352-.887c-.199-.488-.476-1.41-.625-2.05l-.27-1.16-1.12.097c-2.73.234-4.02.984-4.739 2.77-.238.585-.261 1.765-.3 14.449l-.04 13.812h7.465v5.625h-8.351v5.926h21.926Zm0 0"/>
    <path fill="#f9f9f9" d="M61.652 33.102v-3.778h3.43v7.555h-3.43Zm.298 22.214v-3.183h3.132V58.5h-3.133ZM39.574 41.855c0-8.3.035-9.996.203-10.058.114-.043.618-.04 1.121.004l.914.086V51.84h-2.238Zm0 0"/>
</svg>
