<svg xmlns="http://www.w3.org/2000/svg" width="120" height="120" viewBox="0 0 120 120">
    <path fill="red" stroke="red" stroke-width=".004" d="M84.647 38v4.955h6.114v1.77h-6.114v3.002h3.204l.22-.43.227-.411.232-.39.237-.37.241-.346.224-.29.011-.013.009-.011.005-.006.233.137.29.16.32.166.012.006.315.157.308.148.169.077.096.044-.567.675-.32.49-.2.3-.467.885-.192.447-.144.333-.074.174-.348 1.003-.282 1.025-1.85-.356.082-.318.085-.312.089-.31.094-.305.099-.303.107-.298h-2.465v2.516h-1.905v-2.516h-4.881v-1.758h4.881v-3.002H77v-1.77h5.742V38h1.905M97 34l-3.8 22.802L93 58l-7.52 5.013L84 64l-7.225-4.815L75 58l-.199-1.197L71 34.001h26m-24.004 1.997L75 48.291l1.383 8.481v.031h.008l7.61 5.2 7.611-5.2h.007v-.031l.778-4.771.604-3.71 2.003-12.293Zm0 0" transform="matrix(3.78963 0 0 3.7628 -258.215 -124.173)"/>
    <path fill="#f9f9f9" d="M45.766 99.285a5552 5552 0 0 1-14.375-9.77c-.032-.027-2.899-17.363-6.371-38.523-3.473-21.164-6.356-38.73-6.407-39.031l-.093-.555h41.554c38.32 0 41.551.016 41.551.239 0 .273-12.652 77.507-12.738 77.742-.043.117-28.38 19.441-28.715 19.582-.047.015-6.531-4.336-14.406-9.684m16.93-32.488v-4.738h9.066l-.52 1.59c-.89 2.726-1.55 5.269-1.387 5.367.325.199 6.891 1.363 7.004 1.242.063-.074.266-.695.446-1.39 1.777-6.743 4.98-13.364 8.414-17.372.547-.637.992-1.191.992-1.234 0-.04-.652-.38-1.453-.75a70 70 0 0 1-3.367-1.707c-1.809-.973-1.926-1.016-2.121-.758-1.625 2.129-2.997 4.273-4.348 6.812l-.817 1.532h-11.91V44.137h23.121v-6.813h-23.12V18.81h-7.458v18.515H33.461v6.813h21.777V55.39H36.742v6.668h18.496v9.476h7.457Zm0 0"/>
</svg>
