<svg xmlns="http://www.w3.org/2000/svg" width="120" height="120" viewBox="0 0 120 120">
    <path stroke="red" stroke-width=".004" d="m-23.169 7.01-.296.28-.267.325-.236.36-.113.217-.088.167-.164.397-.125.4-.118-.046-.217-.086-.713-.282.142-.452.036-.098.133-.352.2-.434.238-.407.181-.242.096-.126.327-.317.77.545.099.07.073.053.042.029m.755-1.01.005.004.152.146.021.02.228.189.257.19.267.181.258.154L-21 7l-.565 1.193-.044.093-.424 1.411-.072.393-.2 1.085-.115 1.114-.039.371-.066 1.434-.015 1.322v4.586h-10.74l.032-2.9.002-.717.005-2.066-.03-2.03-.007-.451-.01-.207-.004-.087-.006-.132-.009-.145-.008-.202-.014-.289-.047-.935-.173-1.332-.174-.316-.094-.17-.063.075-.024.095-.031.115-.046.334-.037.437-.03.526-.008.292-.005.133-.003.082-.001.047-.001.032-.001.012-.144-.264-.154-.269-.16-.263-.163-.247-.16-.222-.152-.184.062-.56.032-.295.133-.69.182-.53.241-.376.31-.224.392-.077.276.148.6.324.005.01.33.747.11.25.1.224.038.088.069.394v.006l.282 1.61.031.437.05.716.093 1.333.005.06v.079l.063 2.85.005 1.107v.447l.007 1.606h7.398v-2.999l.026-1.467.096-1.616.008-.067.186-1.619.227-1.189.094-.486.241-.802.235-.78.408-.876.237-.508.014-.027m-3.333.73-.008.315v.352l.008.377.019.39.002.027.028.357.045.372h-.015l-.937.102-.019-.123-.035-.237-.042-.383-.007-.088-.024-.302-.02-.38-.011-.341v-.325l.139-.016.785-.087.04-.005.03-.003.014-.003h.008m-1.623.315.011.124.013.143.047.3.063.32.06.26.015.066.085.318.092.3-.011.003-.89.233-.107-.294-.098-.314-.086-.312-.002-.007-.074-.312-.057-.29-.036-.257.547-.157.428-.124m-1.133.247-.17-.016-.048-.005-.205-.015-.129-.01-.061-.005h-.013l-.156-.008-.144-.006-.111-.002-.084.003-.07.01-.002.001-.062.017-.054.027-.054.038-.052.05-.063.114-.036.133-.017.06-.046.285-.024.23-.015.155-.033.5-.028.624h5.387v6.763h-2.023l-.024.102-.009.047-.01.054-.007.044-.009.047v.009l-.016.1-.014.097-.016.096h2.43v1.09h-6.767v-1.09h2.724l.047-.106.047-.102.048-.102.049-.098.02-.04.03-.055.052-.093h-2.557v-3.808h4.475v-.483h-5.125v-.99h5.125v-.493h-5.324v-.029l.001-.07.001-.104v-.019l.001-.098.003-.117.004-.103.053-.962.056-.767v-.01l.068-.61.081-.462.104-.33.131-.218.13-.137.137-.11.145-.085.012-.005.14-.057.095-.024.07-.018.172-.025.168-.009.204-.006.234-.003h.257l.272.002.28.005.006.054.017.141.038.209.05.215.045.151.017.058.048.13.025.068.022.053.057.123m-.46.26.063.212.086.233.08.195.02.048.042.09.073.156.125.242.129.227-.327.129-.502.196-.144-.218-.14-.234-.128-.237-.114-.233-.072-.166-.023-.053-.07-.195.17-.074.7-.306.018-.007.013-.005M-15 2l-3.8 22.802L-19 26l-7.52 5.013L-28 32l-7.225-4.815L-37 26l-.199-1.197L-41 2.001h26m-24.004 1.997L-37 16.291l1.383 8.481v.031h.008l7.61 5.2 7.611-5.2h.007v-.031l.778-4.771.604-3.71 2.003-12.293h-22.007m12.681 11.272v-.507h-2.945v.507h2.945m0-1.877h-2.945v.517h2.945Zm0 0" transform="matrix(3.78963 0 0 3.7628 166.223 -3.763)"/>
    <path fill="#f9f9f9" d="M45.766 99.285A8288 8288 0 0 1 31.39 89.52c-.051-.047-12.832-77.7-12.844-78.004 0-.063 18.691-.11 41.539-.11 38.133 0 41.539.016 41.539.239 0 .27-12.656 77.507-12.738 77.742-.043.117-28.38 19.441-28.715 19.582-.047.015-6.531-4.336-14.406-9.684m35.13-38.555c0-5.94.066-12.156.156-13.812.488-9.54 1.875-16.29 4.492-21.813.914-1.933 1.144-2.543.992-2.632-1.379-.785-3.172-1.996-4.086-2.754-.625-.516-1.191-.883-1.258-.813-.07.067-.66 1.262-1.308 2.649-2.672 5.715-4.403 13.734-5.11 23.691-.093 1.305-.207 6.418-.25 11.367l-.082 8.996H46.586l-.004-6.18c-.004-8.343-.219-16.316-.594-21.628-.246-3.598-.425-5.121-.984-8.328l-.68-3.926-1.11-2.52-1.112-2.52-1.645-.862c-1.586-.836-1.676-.864-2.445-.766-2.38.293-3.637 2.816-4.328 8.668l-.204 1.707.348.367c.383.406 2.133 3.078 2.836 4.32l.441.79.114-1.63c.215-3.234.426-5.343.586-5.917.152-.563.175-.575.383-.297.64.847.832 1.52 1.167 4.058.61 4.645.743 9.336.739 25.594v14.996h40.8Zm-7.461.883V59.54H64.3l.105-.703c.055-.387.137-.856.18-1.04l.082-.331h7.723V31.844H51.918l.098-1.887c.226-4.094.48-5.488 1.109-6.074l.398-.371 2.348.086c1.563.058 2.352.039 2.352-.059 0-.086-.102-.344-.22-.57-.218-.426-.722-2.285-.898-3.32l-.093-.563-3.16.047c-2.926.043-3.22.07-3.91.387-1.47.671-2.419 1.964-2.766 3.77-.406 2.108-.848 7.37-.903 10.702l-.023 1.625 10.086.04 10.09.038v1.63h-19.39v4h19.39v1.624H49.422v14.516h9.52L58.48 58.5l-.464 1.04H47.629v4.144h25.805ZM57.21 30.645c.84-.336 1.562-.633 1.598-.668.035-.032-.246-.645-.618-1.356a28 28 0 0 1-1.175-2.629 73 73 0 0 0-.524-1.379c-.07-.11-3.383 1.383-3.449 1.551-.09.23 1.266 3.074 2.02 4.23.3.47.562.852.585.852.016.004.72-.266 1.563-.601m16.777-1.055c.75-2.23 2.082-4.457 3.617-6.055.493-.52.848-.984.786-1.039-.375-.348-3.563-2.5-3.7-2.5-.261 0-1.761 1.633-2.379 2.586-.308.477-.792 1.34-1.078 1.918-.586 1.164-1.675 4.105-1.675 4.496.004.192.515.453 1.976 1.016 1.086.414 2 .734 2.031.707s.22-.532.422-1.13m-10.02-.184c-.507-1.75-.995-3.843-1.179-5.105-.129-.844-.254-1.555-.285-1.582-.027-.028-.899.187-1.934.48l-1.875.531.075.543c.144 1.024.804 3.653 1.25 5l.453 1.352 1.793-.457c1.64-.418 1.785-.484 1.703-.762m4.372.555c.793-.09.793-.09.71-.547-.155-.832-.386-4.574-.386-6.285l-.004-1.68-.558.082a36 36 0 0 1-1.38.164c-.449.051-1.081.125-1.398.176l-.578.082.078 2.613c.047 1.434.164 3.305.266 4.149l.187 1.535 1.133-.098a67 67 0 0 0 1.93-.191m0 0"/>
    <path fill="#f9f9f9" d="M55.387 52.723v-.883h11.039v1.773h-11.04Zm0-5.183v-.884h11.039v1.774h-11.04Zm0 0"/>
</svg>
