<svg xmlns="http://www.w3.org/2000/svg" width="120" height="120" viewBox="0 0 120 120">
    <path stroke="red" stroke-width=".004" d="m-77.576 7.28-.622.288-.52.313-.402.311-.025.019-.341.345-.266.36-.201.372h2.718v1.644h-3.028v1.536h-1.695v-1.536h-3.903v1.558h-1.78v-1.558h-3.018V9.288h3.018V6.021h1.78v3.267h4.063l.191-.609.234-.487.054-.11.407-.575.547-.545.707-.506.631-.324.104-.054.069-.035.084-.042.143.21.186.233.212.24.225.23.224.203.024.02.12.095.06.048m.576 6.726-.775.348-.05.026-.667.355-.661.408-.605.434-.555.456-.373.35-.131.124h3.412v1.623h-4.703l-.174.306-.163.308-.15.309-.135.311-.122.316-.108.32-1.008-.162-.858-.14.104-.267.11-.265.116-.263.124-.261.13-.258.14-.254h-6.397v-1.623h3.391l-.135-.123-.4-.367-.593-.453-.638-.414-.68-.369-.558-.247-.152-.069-.395-.138-.324-.112-.017-.006.207-.201.134-.147.085-.092.215-.26.202-.273.045-.064.061-.091.072-.11.14-.245.384.148.372.166.362.182.352.196.346.212.339.224v-.773h2.9v-1.634h1.686v1.634h3.048v.623l.304-.197.312-.193.323-.187.334-.18.344-.174.336-.155.02-.01.12.235.132.214.027.042.189.26.202.248.207.22.156.14.044.039m-8.35 2.154.151.224.085.123h2.047l.099-.123.168-.21.217-.257.061-.072.292-.32.307-.313.003-.004.316-.303.339-.3h-1.833v1.312h-1.685v-1.311h-1.972l.307.286.296.298.136.15.145.162.267.322.07.093.184.243M-71 2l-3.8 22.803L-75 26l-7.52 5.013L-84 32l-7.225-4.815L-93 26l-.199-1.197L-97 2.001h26m-24.004 1.997L-93 16.291l1.383 8.481v.031h.008l7.61 5.2 7.611-5.2h.007v-.031l.778-4.771.604-3.71 2.003-12.293Zm0 0" transform="matrix(3.78963 0 0 3.7628 378.443 -3.763)"/>
    <path fill="#f9f9f9" d="M45.766 99.285a5552 5552 0 0 1-14.375-9.77c-.032-.027-2.899-17.363-6.371-38.523-3.473-21.164-6.356-38.73-6.407-39.031l-.093-.555h41.554c38.32 0 41.551.016 41.551.239 0 .273-12.652 77.507-12.738 77.742-.043.117-28.38 19.441-28.715 19.582-.047.015-6.531-4.336-14.406-9.684M64.57 70.32c.223-.668.918-2.218 1.54-3.445l1.136-2.227 8.988-.039 8.985-.039v-6.367H78.87c-4.058 0-6.316-.05-6.258-.14.203-.329 3.496-3.036 4.832-3.973a48 48 0 0 1 8.34-4.68l.942-.41-.965-1.016c-1.168-1.23-1.996-2.324-2.676-3.539l-.512-.914-1.922.961a69 69 0 0 0-3.636 1.988L75.3 47.508l-.047-1.09-.04-1.098H63.59v-6.074h-6.563v6.074h-10.89v1.407c0 .777-.028 1.406-.063 1.406s-.656-.367-1.383-.824c-1.285-.809-4.894-2.63-6.093-3.07l-.602-.223-1.059 1.578c-.582.867-1.601 2.152-2.265 2.86L33.46 49.73l1.156.41c4.852 1.708 9.176 4.22 12.567 7.305l.82.746-12.602.012v6.371h24.114l-.793 1.594c-.79 1.57-1.903 4.187-1.813 4.254.074.058 6.438 1.078 6.856 1.094.37.015.425-.067.804-1.196M53.152 40.355V37.47H67.77v5.777h6.562V37.47h11.484v-6.367h-5.07c-2.976 0-5.074-.059-5.074-.137 0-.363 1.61-2.45 2.617-3.406 1.324-1.247 2.703-2.168 4.73-3.153.801-.39 1.454-.758 1.45-.82-.004-.063-.348-.379-.77-.703-.789-.613-2.758-2.746-3.312-3.59-.172-.266-.399-.48-.508-.48-.34-.004-3.352 1.652-4.656 2.562-3.196 2.234-5.426 5.2-6.477 8.613l-.32 1.04-15.274.077V18.81H46.29v12.293H34.801v6.367h11.488v5.777h6.863Zm0 0"/>
    <path fill="#f9f9f9" d="M55.355 57.43c-.878-1.317-2.285-3-3.867-4.63l-1.508-1.554h7.047v4.887h6.563v-4.887h6.547l-2.266 2.262c-1.246 1.242-2.7 2.808-3.234 3.48l-.969 1.215h-7.79Zm0 0"/>
</svg>
