<svg xmlns="http://www.w3.org/2000/svg" width="120" height="120" viewBox="0 0 120 120">
    <path fill="red" stroke="red" stroke-width=".004" d="M33.044-27.967v5.818l.177-.523.184-.5.19-.473.198-.439.208-.401.056-.09.154-.255.008-.012.093.261.001.005.119.291.137.313.146.308.083.162.064.126.027.05.11.196-.384.602-.363.716-.335.798-.19.534-.111.316-.26.872-.206.862h1.406v1.65h-1.512V-14h-1.618v-2.78h-1.174v-1.65h1.174v-.56l-.273-.362-.34-.48-.362-.535-.075-.113-.273-.408-.291-.445-.194-.296.904-1.234.01-.013.01-.015.008-.01.006-.007.003-.006.105.25.127.28.142.306.155.323.166.335.172.339v-6.886h1.618m-2.601 1.153-.507.233-.52.278-.041.026-.47.287-.233.161-.252.175-.44.342-.382.34h1.777v5.131h-3.003v.68h3.648v1.443h-2.06v1.045h1.66v1.401h-1.66v1.261h-1.61v-1.261h-1.83v1.261h-1.628v-1.261h-1.28v-1.401h1.28v-1.045h-1.67v-1.444h3.562v-.679h-2.96v-5.131h1.85l-.503-.333-.501-.35-.142-.107-.338-.248-.448-.346-.402-.326-.341-.295 1.28-1.022.249.244.091.09.406.366.454.381.481.383.491.373.124.09.358.26-.358.33-.553.51h3.142l-1.1-.765.473-.43.54-.422.582-.404.608-.377.404-.224.206-.116.497-.243.03-.014.065-.032.023.032.112.152.154.204.17.213.174.21.175.197.095.101.044.05.026.026M41-31.999 37.2-9.197 37-8l-7.52 5.013L28-2l-7.225-4.815L19-8l-.2-1.197L15-31.999h26m-16.215 8.245h-1.29v.798h1.29v-.798m-7.789-6.248L19-17.709l1.383 8.481v.031h.008l7.61 5.2 7.611-5.2h.007v-.031l.778-4.771.604-3.71 2.003-12.293H16.996m10.77 8.942v-.818h-1.394v.818h1.395m-1.395-1.896h1.395v-.798h-1.395v.798m-1.587 1.896v-.818h-1.29v.818h1.29m0 4.387h1.566v-1.045h-1.83v1.045Zm0 0" transform="matrix(3.78963 0 0 3.7628 -45.996 124.173)"/>
    <path fill="#f9f9f9" d="M45.766 99.285a5552 5552 0 0 1-14.375-9.77c-.032-.027-2.899-17.363-6.371-38.523-3.473-21.164-6.356-38.73-6.407-39.031l-.093-.555h41.554c38.32 0 41.551.016 41.551.239 0 .273-12.652 77.507-12.738 77.742-.043.117-28.38 19.441-28.715 19.582-.047.015-6.531-4.336-14.406-9.684m1.27-30.12v-2.368h6.71v4.738h6.266v-4.738h6.265v-5.48h-6.265v-3.704h7.906v-5.625H54.043v-2.375h11.336V30.066l-3.242-.007-3.242-.004.593-.52c2.13-1.851 5.196-3.867 8.008-5.262 1.012-.5 1.863-.933 1.89-.957.028-.023-.476-.664-1.124-1.421a72 72 0 0 1-1.825-2.235c-.355-.469-.707-.851-.777-.851-.226 0-3.082 1.449-4.597 2.328-2.797 1.62-6.586 4.367-7.891 5.715l-.496.515 1.902 1.313 1.902 1.308-2.785.043a218 218 0 0 1-5.539 0l-2.758-.043 1.563-1.406c.86-.77 1.562-1.45 1.566-1.5 0-.055-1.023-.867-2.277-1.8-2.727-2.036-4.832-3.77-6.465-5.325-.664-.633-1.277-1.148-1.363-1.148s-1.219.843-2.52 1.875c-1.304 1.03-2.39 1.89-2.418 1.914-.222.172 5.47 4.547 9.375 7.203.356.238.223.25-2.945.258l-3.32.007v19.547H47.78v2.375H34.355v5.625h6.266v3.703h-4.777v5.48h4.777v4.74h6.414Zm32.218-2.813v-5.184h5.816v-6.363l-2.672-.04-2.675-.038.57-2.223c1.43-5.54 3.574-10.879 5.707-14.18l.734-1.144-.882-1.746a49 49 0 0 1-1.457-3.145c-.313-.777-.618-1.465-.676-1.531-.114-.133-.88 1.058-1.61 2.512-.629 1.253-1.437 3.199-2.199 5.312l-.644 1.773-.012-21.546h-6.266l-.008 12.773-.007 12.777-.614-1.187c-.332-.649-1.007-2.05-1.5-3.11-.484-1.058-.937-1.98-1-2.046-.062-.067-.933.98-1.933 2.328l-1.817 2.445 2.528 3.75c1.39 2.055 2.937 4.293 3.437 4.965l.914 1.223V54.8h-4.476v6.367h4.476v10.367h6.266Zm0 0"/>
    <path fill="#f9f9f9" d="M47.035 59.465v-1.852h6.711v3.703h-6.71Zm-3.879-16.07v-1.48h4.625v2.96h-4.625Zm10.887 0v-1.48h5.074v2.96h-5.074Zm0-7.11v-1.48h5.074v2.96h-5.074Zm-10.887 0v-1.48h4.625v2.96h-4.625Zm0 0"/>
</svg>
