<svg xmlns="http://www.w3.org/2000/svg" width="120" height="120" viewBox="0 0 120 120">
    <path fill="red" stroke="red" stroke-width=".004" d="m63 39.14-.53 1.124-.208.696-.161.538-.236 1.293-.132 1.296-.045.97-.013.282-.013 1.158v4.279h-5.384l.054.139.052.141.055.14.053.136.054.131.054.123-1.777.415-.087-.195-.09-.202-.087-.203-.088-.209-.084-.209-.078-.207h-5.03v-1.533H59.97v-1.086h-1.712v.873h-1.637v-.873H54.77v.873H53.1v-.873h-3.457v-4.035h10.415l.097-1.045.148-1.054.208-1.039.006-.024.266-.98.345-.94.064-.128.248-.5.009-.014.048-.098.06-.119.19.163.238.182.265.186.273.174.255.147.054.025.169.081m-3.532-1.138.053.211.08.244.1.256.091.2.02.044v.004l.112.209.006.01.063.094.038.057.016.022-.144.075-.134.102-.115.133-.093.17-.06.21-.022.258v3.577H57.8v-1.14h-2.753v-1.395H57.8V39.81l-.455.045-2.286.223-.05.004-.021.002-.013.002-.009.001h-.003l.003-.22v-.239l-.004-.243-.01-.234-.013-.214-.017-.165-.002-.016 1.56-.2.865-.12.269-.037.789-.124.52-.103.329-.088.14-.054.037-.014.025-.01.015-.005m-5.375.517.197.318.013.021.017.026.115.5.034.65v3.76h-1.691v-1.055h-3.35v-1.396h3.35v-1.298l-.006-.192-.03-.136-.057-.09-.095-.052-.141-.023-.195-.007H50.98l-.172.017-.126.061-.089.125-.061.201-.043.296-.016.195-.005.066-.004.05-.003.04-.004.032-.002.024-.19-.122-.232-.118-.257-.11-.268-.099-.263-.083-.093-.024-.152-.04.115-.67.157-.473.013-.037.24-.367.321-.24.417-.132.523-.04h1.735l.698.042.029.008.487.129.358.243M69 34l-3.8 22.802L65 58l-7.52 5.013L56 64l-7.225-4.815L47 58l-.199-1.197L43 34.001h26m-9.022 11.691.004-.165h-1.724v1.224h1.712v-.57l.001-.162.003-.163.004-.164m-14.982-9.694L47 48.291l1.383 8.481v.031h.008l7.61 5.2 7.611-5.2h.007v-.031l.778-4.771.604-3.71 2.003-12.293H44.996m6.327 10.753h1.775v-1.224h-1.775v1.224m3.446-1.224v1.224h1.852v-1.224Zm0 0" transform="matrix(3.78963 0 0 3.7628 -152.106 -124.173)"/>
    <path fill="#f9f9f9" d="M45.766 99.285A8288 8288 0 0 1 31.39 89.52c-.051-.047-12.832-77.7-12.844-78.004 0-.063 18.691-.11 41.539-.11 38.309 0 41.539.016 41.539.239 0 .273-12.652 77.507-12.738 77.742-.043.117-28.38 19.441-28.715 19.582-.047.015-6.531-4.336-14.406-9.684M59.082 70.79c1.777-.41 3.258-.777 3.293-.812.04-.036-.18-.7-.48-1.473-.297-.777-.54-1.442-.54-1.484s4.563-.075 10.145-.075h10.137l.004-9.96c.004-10.094.105-13.387.527-17.66.539-5.407 1.812-10.442 3.562-14.075.54-1.125.98-2.086.98-2.14 0-.051-.32-.247-.71-.434-.96-.465-2.902-1.738-3.96-2.594-.481-.387-.895-.68-.919-.656-.27.297-1.836 3.722-2.36 5.16C77.278 28.66 76 34.8 75.606 39.77c-.05.648-.128 1.363-.175 1.585l-.078.41H35.996v15.407h12.977v3.254h6.562v-3.254h6.863v3.254h6.414v-3.254h6.262v3.848h-40.57v5.921l19.152.075.352.89c.797 1.985 1.57 3.63 1.703 3.63.082 0 1.602-.337 3.371-.747m14.352-36.965c0-5.25.05-7.367.183-7.808.176-.578 1.07-1.625 1.66-1.95.266-.144.258-.191-.175-.867-.524-.82-1.442-3.039-1.594-3.844-.117-.609-.215-.64-1.106-.328-1.359.477-7.105 1.399-14 2.25-1.172.145-2.191.301-2.265.344-.078.047-.094 1.117-.032 2.602l.102 2.52 4.848-.477c2.668-.262 5.066-.48 5.332-.485l.484-.011v5.48H56.434v5.48H66.87v4.297h6.563Zm-19.09-1.297c0-7.007-.035-8.359-.242-9.293-.461-2.078-1.606-3.27-3.637-3.773-.996-.254-1.711-.281-6.637-.277-5.293.003-5.555.02-6.375.324-2.133.8-3.07 2.215-3.691 5.594-.153.816-.266 1.488-.254 1.496.015.007.722.226 1.57.488.844.262 2.106.77 2.793 1.121 1.441.738 1.316.824 1.477-1.004.113-1.273.433-2.082.914-2.3.242-.11 1.496-.169 3.55-.169 2.993 0 3.204.016 3.575.305l.394.309v5.902h-12.68v5.48h12.68v4h6.563Zm0 0"/>
    <path fill="#f9f9f9" d="M68.813 49.469v-2.223h6.261v4.445h-6.261Zm-13.278 0v-2.223h6.863v4.445h-6.863Zm-13.125 0v-2.223h6.563v4.445H42.41Zm0 0"/>
</svg>
