<svg xmlns="http://www.w3.org/2000/svg" width="120" height="120" viewBox="0 0 120 120">
    <path stroke="red" stroke-width=".004" d="m61.68 72.16.165.163.213.187.243.193.252.183.239.155.208.109-.405.578-.193.275-.422.936-.274.985-.142.9-.016.101-.066.9-.007.087-.018.932v4.201H57.69v2.956h-1.743v-.957h-5.31v-1.376h5.31v-.623h-4.914l-.267.044-1.213-.27.146-.449.153-.45.004-.01.093-.261.071-.197.167-.442.165-.41.159-.37 1.397.344.016.006.007.002h.009l.006.002-.058.156-.06.166-.061.174-.061.183-.061.19-.06.196h4.203v-.892l-2.54.223-.876.077-.123-1.184-.016-.148 1.015-.092 2.54-.23v-.043l-.01-.2-.038-.157-.072-.12-.118-.084-.17-.046-.232-.016h-2.765l-.274.003-.306.012-.316.016-.304.026-.269.032-.212.04-.017-.138-.013-.105-.028-.251-.027-.254-.024-.247-.006-.046-.018-.186-.026-.213.203-.046.258-.032.3-.02.323-.013.333-.006.327-.001h2.937l.076.005.683.04.09.022.232.057.26.064.421.252.06.077.222.29.076.234.085.261.06.633 1.862-.173.128 1.354-1.99.182v1.043h2.341v-2.826l.025-.998.002-.081.08-.92.02-.242.204-1.19.335-1.17.225-.494.233-.514.039-.086.254-.356.192-.272.086-.12.078-.11.034-.047.02-.03.015-.02.008-.012m-1.03 1.119-1.1.232-.493.216-.257.112-.47.458-.253.626-.103.83-.017 1.07H56.32l.031-1.346.16-1.094.271-.656.087-.21.476-.51.15-.157.96-.498 1.183-.306.069-.017.055-.015.035-.01.023-.004.081.208.118.23.144.237.16.228.162.201.005.004.16.17m-6.888-.788.358.228.226.343.12.468.011.198.024.41v2.686h-1.66V74.17l-.007-.181-.029-.13-.058-.088-.08-.043-.016-.01-.143-.024-.197-.007h-1.267l-.195.027-.02.014-.121.085-.1.208-.066.349-.042.522-.022.53-.003.053-.002.046-.002.04v.034l-.001.027-.193-.124-.236-.116-.262-.11-.272-.096-.266-.083-.088-.023-.152-.04.11-.954.042-.182.04-.166.086-.364.105-.216.14-.286.338-.32.447-.17.575-.05h1.681l.684.04h.002l.511.129M69 68l-3.8 22.802L65 92l-7.52 5.013L56 98l-7.225-4.815L47 92l-.199-1.197L43 68.001h26m-24.004 1.997L47 82.291l1.383 8.481v.031h.008l7.61 5.2 7.611-5.2h.007v-.031l.778-4.771.604-3.71 2.003-12.293Zm0 0" transform="matrix(3.78963 0 0 3.7628 -152.106 -252.108)"/>
    <path fill="#f9f9f9" d="M45.766 99.285A8288 8288 0 0 1 31.39 89.52c-.051-.047-12.832-77.7-12.844-78.004 0-.063 18.691-.11 41.539-.11 38.133 0 41.539.016 41.539.239 0 .265-12.652 77.507-12.734 77.738-.043.117-28.387 19.445-28.723 19.586-.043.015-6.527-4.336-14.402-9.684M66.574 65.98v-5.554h14.32v-9.45c0-5.195.067-10.343.153-11.44.484-6.329 1.941-11.052 4.55-14.75 1.282-1.821 1.317-1.54-.3-2.552-.496-.304-1.527-1.078-2.3-1.714-1.333-1.102-1.415-1.149-1.614-.88-2.57 3.419-3.89 6.008-4.945 9.7-1.418 4.937-1.782 8.492-1.91 18.46l-.094 7.294h-8.606v-3.809l.781-.086c.434-.047 2.145-.203 3.805-.347 2.586-.22 3.016-.29 2.961-.489-.035-.125-.148-1.246-.254-2.484-.101-1.242-.226-2.32-.273-2.395-.051-.086-1.434-.015-3.48.168-1.868.168-3.427.274-3.462.243-.035-.04-.133-.633-.215-1.32-.375-3.212-1.691-4.747-4.726-5.509-1.3-.324-1.485-.332-10.278-.336-6.62 0-9.238.051-10.062.192-.61.105-1.145.223-1.18.262-.097.093.442 5.3.559 5.43.059.058.469.034.918-.055 1.164-.227 16.453-.352 17.168-.137.652.191 1 .672 1.12 1.531l.087.64-6.652.598c-3.66.329-6.7.641-6.754.696-.09.09.324 4.972.43 5.066.038.031 9.44-.77 12.085-1.027l.86-.086v3.254H43.488l.282-.907c.156-.5.46-1.398.675-2 .22-.605.364-1.117.336-1.14-.136-.106-5.504-1.332-5.558-1.274-.157.164-2.098 5.2-2.84 7.368-.578 1.691-.774 2.43-.645 2.472.102.035.957.239 1.899.45l1.715.386 10.257-.02 10.254-.019v2.238H39.727v5.332h20.136v3.555h6.711Zm-12.12-35.285c-.067-6.945-.102-7.234-.99-8.593-.542-.844-1.398-1.399-2.702-1.762-.86-.242-1.59-.274-6.563-.274-5.488 0-5.61.008-6.488.344-2.234.856-3.422 3.156-3.953 7.656a79 79 0 0 1-.235 1.813c-.058.383-.023.484.172.484.496 0 3.446 1.063 4.48 1.617l1.06.567.097-2.238c.113-2.438.344-3.844.734-4.442.407-.613 1.18-.73 4.36-.656 1.554.039 2.945.117 3.082.176.508.222.57.922.57 6.328v5.312h6.438Zm13.163 4.512c0-2.645.344-5.113.899-6.48.96-2.364 3.07-3.72 7.125-4.57 1.09-.231 2.02-.458 2.07-.505.047-.054-.195-.406-.535-.793-.813-.922-1.7-2.273-2.13-3.257-.187-.43-.437-.79-.55-.79s-1.285.274-2.61.606c-1.94.496-2.761.789-4.284 1.547-1.758.875-1.961 1.023-3.086 2.238-1.082 1.168-1.278 1.469-1.883 2.934-.824 2-1.215 4.445-1.34 8.332l-.082 2.558h6.406Zm0 0"/>
</svg>
