<svg xmlns="http://www.w3.org/2000/svg" width="120" height="120" viewBox="0 0 120 120">
    <path fill="red" stroke="red" stroke-width=".004" d="M-77-26.306h-3.493l.065.288.088.31.107.322.124.323.138.32.082.167.068.136-1.092.312h3.185v1.67h-5.411l.038.12.041.122.027.076.015.044.087.237.044.115h5.533v7.745h-6.315v-1.372h1.708v-.818h-1.61v-3.32h1.61v-.863h-1.764v-.818l-.243.064-.33.086.08.125.086.122.089.116.075.093.011.014.077.09.009.01.028.028.035.04.017.018-.413.161-.404.183-.39.203-.378.228-.362.252-.278.222-.066.054.066.097.242.347.126.205.164.268.27.495.251.521.232.543.084.221.128.344-.826.22h1.07v1.647h-4.873l-.32.046-.13-.046-.514-.183-.458-.163.23-.92.228-.686.056-.17.037-.089.296-.708.38-.739.374-.601.05-.081.465-.626-.167-.117-.206-.146-.395-.242-.414-.225-.434-.201-.042-.017-.413-.164-.336-.11-.045-.014-.04-.015-.031-.01-.023-.007.189-.194.196-.237.194-.263.183-.273.126-.205.038-.06.022-.042.11-.2.506.197.483.22.459.248.434.268.41.293.212.175.174.143.18-.143.198-.157.391-.278.406-.256.073-.041.348-.196.435-.217.306-.136.046-.02.046-.02.034-.014.01-.005.008-.004-.076-.218-.037-.108-.035-.105-.032-.103-.03-.1h-5.059v-1.67h3.384l-1.223-.265.064-.183.051-.15.119-.33.117-.324.117-.318.114-.31.112-.298h-3.46V-28H-77v1.693m-4.79 1.872-.064-.142-.066-.144-.015-.032-.127-.318-.108-.312-.085-.3-.058-.277.393-.12.753-.227H-85.4l-.12.358-.116.368-.111.371-.103.37-.07.263-.025.099-.071.299-.013.05h4.4l-.16-.306M-71-32l-3.8 22.802L-75-8l-7.52 5.013L-84-2l-7.225-4.815L-93-8l-.199-1.197-3.8-22.802h26M-88.431-15.82h2.392l-.153-.39-.08-.174-.09-.198-.19-.358-.203-.344-.224-.328-.24-.318-.237.318-.224.328-.211.344-.197.358-.096.198-.085.175-.162.389m-6.573-14.182L-93-17.709l1.383 8.481v.031h.008l7.61 5.2 7.611-5.2h.007v-.031l.778-4.771.604-3.71 2.003-12.293h-22.007m14.62 11.728h-1.577v.852h2.955v-.852h-1.378m0-1.235h1.378v-.863h-1.378v.863m0 4.138h1.378v-.818h-1.378Zm0 0" transform="matrix(3.78963 0 0 3.7628 378.443 124.173)"/>
    <path fill="#f9f9f9" d="M45.766 99.285a5552 5552 0 0 1-14.375-9.77c-.032-.027-2.899-17.363-6.371-38.523-3.473-21.164-6.356-38.73-6.407-39.031l-.093-.555h41.554c38.32 0 41.551.016 41.551.239 0 .273-12.652 77.507-12.738 77.742-.043.117-28.38 19.441-28.715 19.582-.047.015-6.531-4.336-14.406-9.684m39.601-42.41V42.211H64.363l-.445-1.223-.445-1.218 10.28-.043 10.274-.04v-6.363l-11.562-.023 1.687-.489c.926-.273 1.727-.53 1.774-.578.05-.05-.192-.695-.535-1.43-.641-1.374-1.551-3.952-1.735-4.933l-.105-.543h13.16v-6.52H34.8v6.52h6.492c3.566 0 6.484.047 6.48.11-.003.062-.566 1.644-1.257 3.515-.688 1.871-1.227 3.43-1.196 3.461.028.027.88.238 1.89.469l1.837.414-6 .016-6.004.011v6.367h19.21l.392 1.149c.292.863.34 1.16.199 1.21-.106.032-1.196.567-2.426 1.188-2.207 1.117-4.086 2.285-5.8 3.614l-.872.675-.988-.789c-2.102-1.675-4.567-3.117-7.184-4.207-2.176-.902-1.972-.914-2.586.168-.734 1.297-2.078 3.149-2.898 3.985-.485.5-.617.718-.473.77 3.004 1.019 5.48 2.144 7.528 3.417 2.105 1.313 2.046 1.18 1.085 2.469-2.988 4.015-5.117 8.61-6.613 14.262-.277 1.054-.484 1.937-.457 1.964.028.028.95.364 2.047.75l1.996.7 19.914-.086v-6.356l-3.355-.027 1.191-.305c.656-.168 1.219-.324 1.25-.351.102-.082-.875-2.551-1.738-4.407-1.028-2.207-1.89-3.765-3.125-5.64l-.973-1.477.43-.347c1.824-1.493 5.441-3.532 7.398-4.168.309-.102.598-.247.645-.325.05-.078-.172-.457-.492-.843-.32-.38-.723-.907-.899-1.157l-.32-.457.887-.246c.488-.133.922-.246.964-.246.04 0 .075.668.075 1.484v1.477h6.715v3.113h-6.118v12.735h6.118v2.816h-6.415v5.332h24.012Zm0 0"/>
    <path fill="#f9f9f9" d="M73.883 64.797v-1.41h5.07v2.816h-5.07Zm-5.965-7.774V55.54h11.035v2.96H67.918Zm5.965-7.925v-1.559h5.07v3.113h-5.07ZM43.55 64.316c.579-1.73 3.907-7.222 4.376-7.222.492 0 3.383 4.832 4.094 6.847l.222.633h-4.387c-4.117 0-4.386-.02-4.304-.258M52.55 33.21c.005-.253.962-3.675 1.602-5.698l.688-2.184h7.535c4.145 0 7.504.024 7.469.055s-.82.273-1.742.543l-1.68.484.09.531c.172.993 1.23 3.97 1.843 5.18l.61 1.203h-8.207c-4.512 0-8.207-.05-8.207-.113m0 0"/>
</svg>
