<svg xmlns="http://www.w3.org/2000/svg" width="120" height="120" viewBox="0 0 120 120">
    <path fill="red" stroke="red" stroke-width=".004" d="m63-58.656-.138.466-.127.528-.064.318-.05.248-.1.578-.083.564-.064.524-.153-.051-.748-.25.061-.533.074-.573.074-.507.013-.082.097-.574.11-.53.12-.461.917.314.037.013.024.008m-3.57-1.284.015.215.036.23.024.103.03.13.07.23.08.216.09.18.003.007.002.005-.186-.019-.173-.011-.03-.002-.126-.006-.137-.003-.115-.001h-.168l-.07.008-.064.015-.061.03-.056.044-.055.065-.043.093-.01.043-.026.09-.035.18-.032.232-.03.29-.022.232-.01.123.34-.123.196-.07.019.07.052.214.087.319.1.337.05.154.06.189.117.335.04.104.082.208-.083.027-.464.161-.081.028-.011-.028-.088-.208-.097-.25-.095-.255-.092-.257-.017-.054-.07-.198-.079-.24-.007.254-.007.184-.003.091-.01.296-.012.317-.009.32v.016l-.007.357h3.979v8.35h-5.276v-1.444h1.571v-.993h-1.351v-1.317h1.351v-.895h-1.395v-1.295h1.395v-.948h-1.714v-.11l.003-.114.004-.124.006-.123.01-.102.044-1.61.052-1.271.03-.425.036-.546.088-.709.114-.483.152-.297.003-.004.006-.01.1-.136.119-.118.13-.089.142-.066.155-.045.169-.028.17-.029.194-.019.21-.013.223-.006.231-.001.198.002h.038m1.748 1.452.043-.005-.002.126-.003.28.003.45.008.294.005.186.02.489.018.349.008.132.031.456-.007.001-.741.053-.035-.446-.012-.196-.018-.276-.024-.482-.01-.266-.007-.207-.011-.446-.003-.371v-.029l.737-.092m-1.198.415.04.357.053.373.006.028.069.427.077.436.026.133.059.294.087.402-.008.001-.719.118-.094-.408-.088-.407-.003-.018-.084-.429-.009-.053-.062-.363-.023-.16-.033-.23-.043-.35.161-.031.58-.118.008-.002M52.9-59.983l.025.262.053.29.01.039.07.267.101.305.088.205.036.085.145.261-.181-.01-.168-.012-.328-.015-.3-.01-.246-.004h-.246l-.18-.003-.113.006-.101.014-.092.029-.086.045-.08.066-.077.09-.03.073-.127.303-.064.353-.064.354-.06.644-.042.44-.08 1.506-.04 1.153-.029.826-.057 2.493h3.693l.14-.265.073-.134.068-.122.143-.248.145-.24.144-.233.019-.03.125-.194h-3.605v-4.952h2.704v-.81h1.406v5.2l.183.174.218.2.239.21.207.173.038.03.235.18.21.145-.42.517-.089.11-.47.727-.177.338-.245.467-.153.354-.135.314-.085.195-.314.902-.252.92-1.434-.328-.259-.06.095-.329.1-.328.064-.203.039-.124.108-.324.112-.32.002-.001.117-.314H49v-.163l.003-.163.004-.18.006-.166.01-.125v-.024l.065-3.06.064-2.086.01-.326.09-1.722.005-.096.087-.902.04-.404.17-.872.226-.522.177-.234.18-.183.19-.137.203-.1.218-.072.24-.05.212-.037.044-.007.29-.026.316-.01.338-.001.353.006.294.008.043.001.023.001M69-63.999l-3.8 22.802L65-40l-7.52 5.013L56-34l-7.225-4.815L47-40l-.199-1.197L43-63.999h26m-24.004 1.997L47-49.71l1.383 8.482v.031h.008l7.61 5.2 7.611-5.2h.007v-.031l.778-4.771.604-3.71 2.003-12.293H44.996m15.818 8.755v-.218h-.946v.948h.946v-.73m-.946 2.92h.946v-.895h-.946v.895m-5.582-4.564h-1.308v2.04h1.308v-2.04m5.582 6.874h.946v-.993h-.946Zm0 0" transform="matrix(3.78963 0 0 3.7628 -152.106 244.582)"/>
    <path fill="#f9f9f9" d="M45.766 99.285A8288 8288 0 0 1 31.39 89.52c-.051-.047-12.832-77.7-12.844-78.004 0-.063 18.691-.11 41.539-.11 38.133 0 41.539.016 41.539.239 0 .27-12.656 77.507-12.738 77.742-.043.117-28.38 19.441-28.715 19.582-.047.015-6.531-4.336-14.406-9.684m9.765-28.972c1.672-6.215 4.547-12.196 7.668-15.938l.914-1.098-.43-.312c-1.03-.75-2.343-1.828-3.488-2.852L58.965 49V29.473h-5.367v2.965H43.305v18.808h13.574l-.719 1.149a83 83 0 0 0-1.582 2.664l-.863 1.52H39.848l.093-3.595c.563-21.433 1.043-26.125 2.809-27.418.516-.378 2.277-.468 5.477-.273 1.191.066 2.18.117 2.207.098.023-.012-.192-.493-.477-1.059-.637-1.254-1.266-3.344-1.387-4.598l-.09-.925-3.144.003c-3.469.004-5.066.235-6.453.934-1.047.524-2.196 1.8-2.79 3.094-1.39 3.027-1.94 10.426-2.406 32.254-.042 2.078-.124 4.66-.171 5.742l-.09 1.96h8.742c4.809 0 8.742.017 8.742.036 0 .023-.46 1.438-1.031 3.152-.563 1.707-1.07 3.34-1.125 3.625l-.098.516 3.032.695c1.664.38 3.14.696 3.273.703.184.008.328-.293.57-1.21m28.196-16.626V37.915h-15.11l.098-1.574c.055-.871.101-2.32.105-3.223l.012-1.644.438 1.183c1.117 3.016 1.566 4.07 1.703 4.02.086-.031.64-.211 1.23-.399.598-.191 1.082-.414 1.082-.5s-.273-.925-.61-1.863a65 65 0 0 1-1.116-3.539c-.282-1.012-.528-1.86-.559-1.883-.023-.031-.39.086-.82.242-.426.164-.844.293-.922.293-.207 0-.184-.867.074-2.554.379-2.516.625-2.692 3.496-2.528 1.637.094 1.695.086 1.582-.187-.625-1.465-.95-2.61-1.203-4.246l-.082-.555h-1.598c-2.101.004-4.242.352-5.058.824-1.438.836-2.188 2.563-2.57 5.914-.317 2.75-.754 12.375-.754 16.551v1.297h6.414v3.406h-5.223v5.04h5.223v3.105h-5.07v5.183h5.07v3.555h-5.97v5.629h20.138Zm.968-20.214c.309-2.356.993-5.828 1.563-7.926.242-.895.387-1.68.328-1.738-.125-.122-3.633-1.317-3.691-1.258-.118.11-.7 2.664-1.028 4.476-.383 2.098-1.148 7.797-1.062 7.887.027.023.812.3 1.746.613l1.699.57.102-.386c.058-.215.214-1.219.343-2.238m-8.984 2.062c.637-.097 1.152-.187 1.152-.203s-.129-.629-.297-1.371c-.355-1.637-1.191-6.613-1.195-7.145-.004-.793-.133-.836-1.7-.543l-1.417.266.086.691c.183 1.485.82 5.07 1.203 6.805.367 1.672.426 1.817.707 1.75.168-.035.824-.148 1.46-.25m4.539-.633c.031-.03-.012-1.183-.098-2.558A106 106 0 0 1 80 27.14c-.004-2.434-.027-2.703-.25-2.703-.14 0-.844.074-1.57.167l-1.313.165v1.5c0 1.664.242 6.644.387 8l.094.87 1.422-.09c.785-.05 1.449-.116 1.48-.148m0 0"/>
    <path fill="#f9f9f9" d="M74.781 62.059v-1.782h3.426v3.555h-3.426Zm0-8.519v-1.552h3.426v3.106h-3.426Zm0-8.294v-1.703h3.426v3.406h-3.426ZM48.676 41.84v-3.778h4.922v7.555h-4.922Zm0 0"/>
</svg>
