<svg xmlns="http://www.w3.org/2000/svg" width="120" height="120" viewBox="0 0 120 120">
    <path fill="red" stroke="red" stroke-width=".004" d="m91-59.493-.194.448-.18.51-.163.545-.144.563-.02.083-.09.411-.015.064-.082.424-.02.104-1.16-.399.102-.548.012-.056.109-.52.136-.583.15-.566.166-.525.18-.461.325.135.685.286.068.028.057.024.047.02.03.013m-2.375-.226v.445l.007.491.016.521.024.53.023.388.008.137.04.498-.01.003-.669.08-.378.047-.05-.496-.022-.269-.022-.251-.036-.524-.027-.512-.017-.48-.005-.436.557-.086.49-.076.029-.004.02-.003.016-.002.006-.001m-1.699.302.04.392.068.446.088.476.103.488.063.271.05.212.115.458h-.01l-1.002.225-.125-.45-.111-.445-.007-.027-.106-.48-.075-.376-.017-.09-.01-.051-.067-.388-.053-.391.147-.037.796-.204.037-.01.032-.008.027-.007.017-.004m-1.468.603.06.333.026.113.062.256.115.392.125.376.008.026.15.396.013.029.147.346-.147.056-.854.323-.127-.287-.006-.015-.13-.32-.123-.335-.074-.219-.04-.115-.097-.325-.08-.305-.227.42-.162.325-.066.132-.062.136-.158.348-.206.495-.185.5-.14.437-.018.055-.189-.055-1.152-.341-.117-.034.117-.326.043-.12.178-.46.192-.463.133-.304.067-.153.202-.443.2-.42-.26-.003-.251-.004-.116-.001-.116-.002h-.473l-.08.004-.06.013-.043.025-.029.037-.015.054-.005.072v3.497h2.545v4.588h-6.377v-4.588h2.196v-3.54l.011-.356.01-.064.034-.238.078-.256.123-.213.054-.057.117-.12.227-.143.255-.11.289-.076.327-.046.363-.025.18-.004.222-.006.404-.002h.04l.037.225.053.24.02.067.05.18.08.243.09.238.092.218v.002l.059-.112.058-.11.054-.108.056-.106.052-.1.03-.063.009-.017.006-.012.004-.008.15.12.18.131.2.135.103.066.038.024.068.043.207.126.194.11.963-.414.02-.008m5.53 8.28-.485.697-.383.685-.008.016-.024.044-.35.774-.288.778-.23.763-.173.724-.984-.138-.369-.051-.041-.005.004-.022.031-.148.041-.169.037-.144.007-.027.047-.172.05-.172.047-.173H86.66l-.265.098-.38-.276-.107-.076-.141-.102-.27-.194.14-.33.151-.337.162-.34.065-.129.097-.192.008-.017.178-.333.182-.32h-1.446v-6.076h5.173v4.749l.131.124.135.12.137.112.134.101.127.089.044.027.073.042m-6.397 1.35v1.554h-3.03l.065.203.07.206.073.205.074.204.075.196v.002l.075.182-.074.02-1.466.412h-.002l-.11-.258-.119-.273-.12-.28-.118-.281-.111-.277-.097-.261h-2.608v-1.553h7.423m-6.136-9.899.115.492.155.555.188.591.034.1.171.503.215.592.21.557-.008.002-1.353.45-.23-.554-.226-.582-.219-.588-.13-.38-.069-.196-.172-.544-.137-.491.823-.287.545-.189.035-.012.032-.011.021-.008M97-63.999l-3.8 22.802L93-40l-7.52 5.013L84-34l-7.225-4.815L75-40l-.199-1.197L71-63.999h26m-8.182 14.378.103-.2h-1.025l-.098.179-.094.189-.09.2-.045.101-.045.106-.088.215-.09.219h1.025l.085-.205.086-.202.058-.133.03-.07.09-.199.098-.2m-15.822-12.38L75-49.71l1.383 8.482v.031h.008l7.61 5.2 7.611-5.2h.007v-.031l.778-4.771.604-3.71 2.003-12.293H72.996m13.38 7.507v.983h.729v-.983h-.73m2.546.983v-.983h-.698v.983h.698m-2.545 1.294v1.003h.729v-1.003h-.73m2.546 1.003v-1.003h-.698v1.003h.698m-6.41-.43v-1.458h-3.23v1.458Zm0 0" transform="matrix(3.78963 0 0 3.7628 -258.215 244.582)"/>
    <path fill="#f9f9f9" d="M45.766 99.285A8288 8288 0 0 1 31.39 89.52c-.051-.047-12.832-77.7-12.844-78.004 0-.063 18.691-.11 41.539-.11 38.133 0 41.539.016 41.539.239 0 .27-12.656 77.507-12.738 77.742-.043.117-28.38 19.441-28.715 19.582-.047.015-6.531-4.336-14.406-9.684m3.836-28.508c1.5-.414 2.777-.8 2.84-.859.062-.055-.223-1.016-.633-2.133s-.746-2.097-.746-2.176c0-.093 2.058-.144 5.667-.144h5.668V59.39H34.203v6.074h4.93c4.562 0 4.933.02 5.015.258.133.386 1.77 4.297 2.133 5.109.176.387.38.703.453.703.075 0 1.364-.34 2.868-.758m30.195-1.382c1.367-5.247 3.453-10.024 5.91-13.536.441-.62.844-1.207.898-1.3.06-.098-.222-.38-.68-.684-.429-.285-1.097-.8-1.487-1.145l-.711-.625V34.211h-19.84v22.96h2.687c1.477 0 2.684.024 2.684.056 0 .035-.438.894-.977 1.918-1.336 2.539-2.64 5.457-2.496 5.585.063.06.848.618 1.735 1.254 1.605 1.137 1.62 1.145 2.18.977.51-.148 5.081-.246 5.081-.106 0 .036-.21.868-.469 1.86-.253.992-.433 1.832-.394 1.87.086.083 4.875.778 5.172.747.14-.012.379-.66.707-1.937M60.309 47.539v-8.734h-9.696v-6.602c0-4.27.055-6.7.157-6.887.14-.265.335-.285 2.667-.285h2.512l-1.082 2.332c-1.562 3.36-3.273 7.68-3.086 7.793s5.235 1.574 5.438 1.574c.113 0 .34-.445.539-1.074.633-1.965 1.672-4.453 2.87-6.902.661-1.328 1.216-2.395 1.24-2.367.027.027.413 1.148.866 2.492 1.102 3.289 1.664 4.512 2.012 4.375.145-.059 1-.375 1.902-.707.903-.336 1.668-.629 1.7-.652.035-.028-.215-.73-.543-1.567-.797-1.996-1.637-4.676-1.852-5.883-.098-.535-.226-1.027-.289-1.101-.066-.074-.902.203-1.914.633-1.766.753-1.805.761-2.262.527-.738-.379-2.07-1.242-3.023-1.953-.477-.36-.887-.63-.91-.606-.028.028-.293.54-.598 1.145-.406.808-.59 1.043-.687.89-.23-.363-1.024-2.84-1.247-3.89-.117-.559-.246-1.047-.285-1.086-.144-.145-5.562.25-6.343.46-1.051.286-2.297.915-2.758 1.403-.532.559-.961 1.461-1.137 2.371-.09.473-.152 3.793-.152 8.184v7.383h-8.352V56.28H60.31ZM40.758 35.918c1.344-.445 2.469-.836 2.5-.867.027-.031-.309-1.024-.758-2.207-1.05-2.785-2.328-6.715-2.855-8.778-.227-.894-.461-1.68-.516-1.746-.09-.101-5.313 1.594-5.543 1.805-.356.324 4.09 12.605 4.562 12.605.094 0 1.27-.363 2.61-.812M83.34 32.25c.746-3.781 1.847-7.79 2.719-9.883.289-.695.558-1.363.597-1.492.055-.172-.453-.441-2.187-1.156-1.246-.512-2.344-.899-2.442-.864-.507.196-2.777 8.579-3.265 12.075-.028.195 3.664 1.617 4.254 1.64.152.008.285-.125.324-.32m-11.793-.473c.89-.195 1.637-.379 1.66-.406.027-.023-.215-1.156-.531-2.512-.63-2.699-1.328-6.527-1.328-7.293 0-.27-.035-.52-.082-.566-.09-.09-3.91.84-4.059.984-.219.215.852 5.774 1.75 9.082.3 1.102.367 1.211.652 1.145.176-.043 1.047-.234 1.938-.434m4.996-.297c.848-.113 1.559-.226 1.586-.253.023-.028-.012-.653-.082-1.383-.07-.735-.168-3.285-.227-5.664-.101-4.086-.12-4.332-.382-4.332-.399 0-4.051.586-4.126.664-.148.148.407 9.168.653 10.703.094.57.2.582 2.578.265m0 0"/>
    <path fill="#f9f9f9" d="M72.988 61.531c0-.16 1.059-2.625 1.5-3.488l.442-.871h3.71l-.726 1.516a92 92 0 0 0-1.023 2.222l-.305.703h-1.8c-.99 0-1.798-.039-1.798-.082m3.282-11.547v-1.851h2.386v3.707H76.27Zm0-8.66v-1.781h2.386v3.555H76.27Zm-7.012 0v-1.781h2.535v3.555h-2.535Zm0 8.66v-1.851h2.535v3.707h-2.535ZM42.262 47.54v-2.665h12.082v5.332H42.262Zm0 0"/>
</svg>
